<svg xmlns="http://www.w3.org/2000/svg" width="50" height="50" viewBox="0 0 50 50" version="1.1">
	<path d="M 44.228 7.043 C 44.004 11.497, 43.916 11.608, 39.676 12.742 C 37.298 13.378, 32.953 15.513, 30.020 17.486 L 24.688 21.075 22.094 18.652 C 19.155 15.906, 13.744 12.969, 11.800 13.063 C 11.085 13.098, 11.534 13.542, 12.798 14.049 C 15.079 14.964, 15.094 15.086, 14.798 30.987 C 14.511 46.435, 14.571 47.003, 16.500 47.003 C 18.424 47.003, 18.489 46.436, 18.200 32.001 C 18.035 23.751, 18.288 17, 18.763 17 C 19.237 17, 20.905 18.335, 22.468 19.967 L 25.311 22.934 28.345 19.967 C 30.014 18.335, 31.767 17, 32.240 17 C 32.713 17, 32.965 23.751, 32.800 32.001 C 32.511 46.459, 32.573 47, 34.500 46.923 C 35.600 46.878, 35.938 46.615, 35.250 46.338 C 34.316 45.961, 34.045 42, 34.177 30.667 C 34.316 18.673, 34.489 16.965, 35 22.500 L 35.647 29.500 35.823 22.225 C 35.989 15.409, 36.162 14.889, 38.565 13.975 C 44.018 11.902, 44 11.858, 44 27.195 C 44 41.303, 43.983 41.409, 41.250 44.325 C 39.052 46.670, 38.918 47.043, 40.582 46.184 C 44.916 43.947, 45.056 43.142, 44.749 22.372 C 44.587 11.442, 44.353 4.544, 44.228 7.043 M 6 12.094 C 6 12.592, 6.900 13, 8 13 C 9.100 13, 10 12.827, 10 12.617 C 10 12.406, 9.100 11.998, 8 11.710 C 6.900 11.423, 6 11.595, 6 12.094 M 16.402 31 C 16.402 39.525, 16.556 43.013, 16.743 38.750 C 16.931 34.488, 16.931 27.513, 16.743 23.250 C 16.556 18.988, 16.402 22.475, 16.402 31 M 6 41.639 C 6 42.925, 10.826 47.508, 11.486 46.848 C 11.757 46.576, 10.634 45.065, 8.990 43.490 C 7.345 41.915, 6 41.082, 6 41.639" stroke="none" fill="#555555" fill-rule="evenodd"/>
</svg>