<svg xmlns="http://www.w3.org/2000/svg" width="50" height="50" viewBox="0 0 50 50" version="1.1">
	<path d="M 5.417 22.500 C 5.418 33.500, 5.567 38.016, 5.748 32.535 C 5.959 26.150, 6.513 22.294, 7.289 21.800 C 8.237 21.198, 8.236 21.027, 7.288 21.015 C 6.450 21.005, 5.973 18.138, 5.745 11.750 C 5.564 6.662, 5.416 11.500, 5.417 22.500 M 43.975 5.750 C 43.961 7.263, 43.848 16.038, 43.725 25.250 C 43.601 34.463, 43.837 42, 44.250 42 C 44.663 42, 45 33.225, 45 22.500 C 45 11.775, 44.775 3, 44.500 3 C 44.225 3, 43.989 4.237, 43.975 5.750 M 12 19.500 C 10.075 20.241, 9.232 20.882, 10.128 20.924 C 11.023 20.966, 12.311 21.670, 12.991 22.489 C 13.671 23.308, 14.633 23.727, 15.130 23.420 C 16.468 22.593, 15.061 20.855, 13.681 21.630 C 12.817 22.115, 12.825 21.943, 13.708 20.989 C 15.326 19.242, 18.006 21.370, 17.500 24 C 17.302 25.029, 17.747 26.375, 18.490 26.991 C 19.990 28.237, 20.097 26.546, 18.663 24.250 C 18.233 23.563, 18.203 23, 18.596 23 C 18.989 23, 18.564 22.176, 17.653 21.169 C 16.741 20.162, 16.297 19.037, 16.664 18.669 C 17.657 17.677, 15.941 17.982, 12 19.500 M 20.622 24 C 21.238 24.825, 21.620 26.258, 21.470 27.184 C 21.319 28.110, 22.157 29.685, 23.331 30.684 C 25.233 32.302, 25.318 32.309, 24.110 30.750 C 23.365 29.788, 23.090 29, 23.500 29 C 23.910 29, 23.744 28.396, 23.131 27.658 C 22.519 26.920, 22.249 26.084, 22.533 25.800 C 22.816 25.517, 22.250 24.658, 21.274 23.893 C 19.726 22.678, 19.643 22.691, 20.622 24 M 25.670 28 C 26.260 28.825, 26.619 30.268, 26.466 31.206 C 26.314 32.145, 26.786 33.407, 27.515 34.012 C 28.541 34.864, 28.762 34.705, 28.496 33.306 C 28.307 32.313, 28.062 31.387, 27.952 31.250 C 27.841 31.113, 27.694 30.573, 27.625 30.050 C 27.556 29.527, 26.847 28.515, 26.048 27.800 C 24.828 26.707, 24.768 26.739, 25.670 28 M 29.872 31.250 C 30.627 32.212, 30.910 33, 30.500 33 C 30.090 33, 30.256 33.604, 30.869 34.342 C 31.481 35.080, 31.751 35.916, 31.467 36.200 C 31.184 36.483, 31.750 37.342, 32.726 38.107 C 34.339 39.374, 34.376 39.341, 33.128 37.750 C 32.373 36.788, 32.090 36, 32.500 36 C 32.910 36, 32.744 35.396, 32.131 34.658 C 31.519 33.920, 31.249 33.084, 31.533 32.800 C 31.816 32.517, 31.250 31.658, 30.274 30.893 C 28.661 29.626, 28.624 29.659, 29.872 31.250 M 34.872 35.250 C 35.627 36.212, 35.910 37, 35.500 37 C 35.090 37, 35.256 37.604, 35.869 38.342 C 36.481 39.080, 36.751 39.916, 36.467 40.200 C 36.184 40.483, 36.750 41.342, 37.726 42.107 C 39.339 43.374, 39.376 43.341, 38.128 41.750 C 37.373 40.788, 37.090 40, 37.500 40 C 37.910 40, 37.744 39.396, 37.131 38.658 C 36.519 37.920, 36.249 37.084, 36.533 36.800 C 36.816 36.517, 36.250 35.658, 35.274 34.893 C 33.661 33.626, 33.624 33.659, 34.872 35.250 M 38.543 38 C 39.052 38.825, 39.533 39.837, 39.610 40.250 C 39.687 40.663, 39.862 41.225, 40 41.500 C 40.138 41.775, 40.306 42.450, 40.375 43 C 40.444 43.550, 40.837 44, 41.250 44 C 41.663 44, 42.295 44, 42.655 44 C 43.015 44, 42.564 43.176, 41.653 42.169 C 40.741 41.162, 40.232 40.101, 40.522 39.811 C 40.811 39.522, 40.276 38.658, 39.332 37.893 C 37.843 36.684, 37.739 36.699, 38.543 38" stroke="none" fill="#555555" fill-rule="evenodd"/>
</svg>