<svg xmlns="http://www.w3.org/2000/svg" width="800" height="800" viewBox="0 0 800 800" version="1.1"><path d="M 89.404 47.390 C 87.292 48.334, 85.782 50.088, 84.654 52.907 C 83.128 56.721, 83.002 80.643, 83.022 362.270 C 83.043 658.092, 83.101 667.623, 84.910 671.500 C 86.924 675.816, 97.070 686.136, 103.420 690.328 C 105.576 691.751, 108.968 695.070, 110.958 697.702 C 112.948 700.335, 116.938 704.067, 119.825 705.995 C 122.712 707.923, 126.142 711.300, 127.449 713.500 C 128.755 715.700, 131.728 718.625, 134.056 720 C 139.108 722.984, 141.584 725.391, 145.216 730.850 C 146.909 733.394, 149.795 735.876, 152.875 737.437 C 156.393 739.220, 158.492 741.160, 160.159 744.170 C 161.447 746.495, 163.958 749.247, 165.740 750.285 C 168.885 752.117, 175.493 752.182, 389.740 752.496 C 511.158 752.673, 612.674 752.861, 615.331 752.912 C 622.247 753.047, 633.039 750.312, 635.791 747.727 C 637.077 746.519, 638.810 744.094, 639.643 742.340 C 640.745 740.018, 642.965 738.244, 647.796 735.825 C 653.105 733.166, 654.952 731.598, 657.016 728 C 658.988 724.562, 660.954 722.818, 665.347 720.609 C 668.735 718.906, 672.585 715.902, 674.720 713.296 C 676.713 710.864, 681.304 706.949, 684.922 704.596 C 688.540 702.243, 693.918 697.815, 696.874 694.756 C 699.829 691.696, 704.878 687.687, 708.092 685.847 C 711.995 683.612, 714.529 681.337, 715.719 679 C 717.414 675.669, 717.512 660.572, 717.758 366.162 C 718.010 64.019, 717.972 56.724, 716.114 52.525 C 713.669 46.997, 709.473 45.302, 702.881 47.178 C 699.439 48.158, 636.255 48.494, 408 48.746 C 133.318 49.050, 107.586 48.863, 95 46.480 C 93.625 46.220, 91.107 46.629, 89.404 47.390 M 110.013 60.602 C 102.934 62.509, 100.679 64.050, 98.622 68.384 C 97.111 71.568, 96.972 76.770, 97.222 120.887 C 97.494 168.814, 97.545 169.915, 99.596 172.678 C 104.247 178.943, 81.373 178.500, 400.500 178.500 C 719.631 178.500, 696.754 178.943, 701.404 172.677 C 703.466 169.898, 703.500 169.051, 703.500 119.677 L 703.500 69.500 701.248 66.343 C 699.908 64.465, 697.075 62.441, 694.248 61.343 C 689.678 59.569, 678.745 59.493, 402.500 59.311 C 151.965 59.147, 114.803 59.311, 110.013 60.602 M 115.500 191.620 C 114.400 191.840, 111.198 192.484, 108.385 193.051 C 101.291 194.482, 99.097 197.119, 97.917 205.635 C 96.372 216.783, 97.180 664.941, 98.750 667.684 C 99.437 668.885, 101.912 671.147, 104.250 672.711 C 106.904 674.486, 109.561 677.524, 111.326 680.801 C 113.679 685.169, 115.143 686.548, 120.064 689.032 C 124.955 691.501, 126.399 692.854, 128.436 696.874 C 130.311 700.574, 131.923 702.214, 135.199 703.756 C 140.001 706.016, 142.467 708.417, 145.466 713.754 C 146.781 716.093, 149.261 718.278, 152.482 719.936 C 155.388 721.432, 158.383 723.958, 159.670 726 C 164.064 732.973, 165.602 734.161, 175.307 738.078 L 185.115 742.036 400.383 741.768 L 615.651 741.500 624.187 737.270 C 630.680 734.053, 633.822 731.754, 637.318 727.661 C 640.130 724.370, 644.065 721.193, 647.458 719.477 C 651.491 717.436, 653.683 715.510, 655.501 712.408 C 657.471 709.046, 659.365 707.500, 664.465 705.090 C 669.212 702.848, 671.370 701.167, 672.586 698.768 C 675.057 693.890, 676.906 692.135, 681.901 689.926 C 687.528 687.436, 689.799 685.417, 691.472 681.413 C 692.191 679.693, 694.689 676.534, 697.024 674.393 C 699.359 672.252, 701.884 669.052, 702.635 667.282 C 703.775 664.594, 703.997 626.788, 703.980 437.782 C 703.968 305.200, 703.578 208.861, 703.038 205.127 C 701.961 197.673, 699.778 194.819, 693.671 192.877 C 690.252 191.790, 637.963 191.521, 403.500 191.385 C 246.200 191.294, 116.600 191.400, 115.500 191.620" stroke="none" fill="#444" fill-rule="evenodd"/></svg>