<svg xmlns="http://www.w3.org/2000/svg" width="1000" height="1000" viewBox="0 0 1000 1000" version="1.1"><path d="M 131.309 61.035 C 127.062 62.290, 123.821 64.553, 121.960 67.565 C 119.981 70.766, 119.969 73.091, 119.992 449.897 C 120.015 823.913, 120.042 829.145, 122 839.254 C 124.122 850.203, 125.703 853.234, 131.092 856.679 C 137.301 860.649, 141.085 864.247, 143 868 C 144.874 871.673, 147.401 874.086, 155.876 880.294 C 158.282 882.057, 161.304 885.397, 162.591 887.716 C 165.437 892.842, 167.648 895.121, 173.137 898.587 C 178.585 902.025, 180.392 903.803, 182.344 907.644 C 184.486 911.860, 189.340 916.593, 193.587 918.608 C 197.081 920.266, 198.619 921.903, 204.088 929.783 C 205.723 932.139, 208.442 934.906, 210.131 935.933 C 216.819 940.001, 225.844 940.216, 360.500 939.523 C 430.900 939.160, 496.375 938.964, 506 939.087 C 515.625 939.210, 582.450 939.354, 654.500 939.406 C 768.676 939.488, 786.008 939.307, 789.457 938 C 792.195 936.962, 795.029 934.496, 798.652 930 C 801.533 926.425, 806.277 921.681, 809.195 919.457 C 812.113 917.234, 816.525 912.687, 819 909.354 C 821.475 906.020, 824.994 902.214, 826.819 900.896 C 833.970 895.733, 836.154 893.607, 839.525 888.528 C 841.451 885.627, 844.932 881.982, 847.263 880.427 C 853.752 876.098, 855.931 873.949, 859.577 868.282 C 861.649 865.062, 865.056 861.655, 868.477 859.384 C 874.289 855.525, 877.368 851.528, 878.401 846.500 C 880.793 834.856, 880.986 805.386, 881.008 449.259 C 881.031 75.752, 881.005 70.745, 879.081 67.643 C 878.009 65.914, 875.639 63.704, 873.816 62.732 C 870.664 61.051, 852.221 60.952, 501.809 60.732 C 299.029 60.604, 132.304 60.741, 131.309 61.035 M 859.871 66.462 C 859.617 66.716, 695.644 66.978, 495.487 67.044 C 268.247 67.118, 130.899 67.519, 129.793 68.111 C 124.975 70.689, 125 70.293, 125 143.503 C 125 203.062, 125.213 213.041, 126.615 219.207 C 129.275 230.900, 135.185 233.839, 145.805 228.750 L 150.500 226.500 501.227 226.186 L 851.954 225.872 857.059 228.436 C 864.001 231.922, 866.245 231.740, 869.824 227.397 C 875.965 219.947, 876 219.468, 876 143.135 C 876 65.784, 876.286 69.007, 869.248 67.052 C 865.332 65.964, 860.663 65.671, 859.871 66.462 M 855.500 259.617 C 851.125 260.905, 808.270 261.021, 512.727 260.541 C 141.668 259.938, 169.416 259.498, 167.142 266.021 C 165.445 270.890, 167.369 274.008, 173.500 276.325 C 182.830 279.851, 185.477 281.491, 191.993 287.781 C 195.678 291.339, 200.885 295.159, 204 296.592 C 215.192 301.737, 216.461 302.659, 219.194 307.614 C 222.703 313.977, 225.739 316.489, 232.210 318.383 C 239.337 320.470, 241.582 322.242, 244.573 328.143 C 246.487 331.922, 248.014 333.515, 250.804 334.650 C 261.751 339.099, 262.846 339.942, 265.997 346.343 C 269.161 352.769, 269.443 352.983, 279.500 356.580 C 286.720 359.163, 292.083 363.104, 296.701 369.220 C 299.394 372.787, 302.133 375.156, 304.875 376.292 C 307.144 377.231, 310.775 378.732, 312.945 379.627 C 317.716 381.595, 320.392 384.300, 322.457 389.244 C 324.252 393.539, 327.005 395.595, 333.629 397.589 C 339.634 399.396, 341.540 401.157, 345.082 408.168 C 347.693 413.335, 348.438 414.020, 353.511 415.918 C 356.571 417.063, 359.313 418, 359.604 418 C 361.043 418, 366.936 423.416, 370.024 427.575 C 372.961 431.531, 375.243 433.095, 384.738 437.659 C 395.152 442.663, 396.228 443.453, 399.400 448.411 C 403.343 454.575, 405.902 456.626, 411.500 458.109 C 416.343 459.393, 421.570 464.166, 423.053 468.661 C 424.364 472.633, 427.957 475.373, 433.980 476.995 C 440.269 478.688, 442.024 480.174, 446.008 487.183 C 449.438 493.216, 449.690 493.417, 457.249 496.157 C 466.887 499.650, 471.751 502.830, 475.871 508.327 C 478.877 512.339, 481.066 513.750, 493.376 519.607 C 496.165 520.933, 497.989 522.849, 499.876 526.432 C 503.538 533.385, 507.165 536.600, 512.895 537.975 C 518.373 539.289, 521.200 541.821, 524.959 548.781 C 527.180 552.893, 528.264 553.778, 533.501 555.758 C 542.567 559.185, 544.258 560.245, 546.691 564.026 C 547.921 565.937, 549.677 568.563, 550.595 569.863 C 551.536 571.195, 557.547 574.743, 564.382 577.999 C 574.359 582.753, 576.942 584.445, 579 587.574 C 582.631 593.094, 584.711 594.749, 590.936 597.070 C 597.658 599.576, 600.679 602.182, 603.100 607.562 C 605.449 612.783, 607.269 614.359, 614 617 C 620.813 619.673, 622.469 621.130, 626.218 627.750 C 627.853 630.638, 629.627 633, 630.161 633 C 630.695 633, 634.474 634.545, 638.560 636.432 C 644.296 639.083, 647.642 641.560, 653.245 647.304 C 659.032 653.237, 662.220 655.560, 669 658.785 C 676.585 662.392, 677.823 663.377, 680.500 667.925 C 682.838 671.897, 684.645 673.572, 688.688 675.511 C 691.542 676.880, 694.491 678, 695.242 678 C 697.391 678, 702.646 684.134, 703.919 688.129 C 705.439 692.900, 707.434 694.569, 714.537 697.013 C 721.065 699.259, 725.249 702.685, 728.006 708.043 C 729.527 710.999, 731.735 712.541, 741.343 717.357 C 751.269 722.332, 753.401 723.850, 756.807 728.361 C 759.279 731.634, 762.395 734.367, 765.129 735.659 C 779.636 742.514, 779.442 742.382, 781.700 747 C 784.661 753.059, 787.409 755.575, 792.676 757.049 C 798.796 758.763, 801.595 761.255, 805.019 768.038 C 807.930 773.804, 808.051 773.901, 815.198 776.187 C 821.635 778.245, 823.150 779.255, 828.966 785.359 C 833.645 790.271, 837.479 793.180, 842.472 795.609 C 846.306 797.474, 849.935 799, 850.535 799 C 852.428 799, 856.683 804.309, 858.921 809.463 C 862.033 816.630, 863.584 818, 868.587 818 C 874.274 818, 877.203 814.258, 877.005 807.248 C 876.931 804.636, 876.686 682.237, 876.461 535.249 C 876.019 247.671, 876.361 265.352, 871.143 260.629 C 868.453 258.195, 861.795 257.764, 855.500 259.617 M 130.177 274.667 C 130.663 277.176, 133 277.520, 133 275.083 C 133 273.855, 132.354 273, 131.427 273 C 130.495 273, 129.985 273.680, 130.177 274.667 M 138.242 284.158 C 136.579 285.821, 136.674 289.468, 138.470 292.941 C 140.986 297.807, 151.062 299.799, 154.415 296.094 C 156.875 293.376, 156.147 288.154, 153 285.934 C 149.744 283.637, 139.942 282.458, 138.242 284.158 M 164.200 305.200 C 162.606 306.794, 162.671 312.167, 164.311 314.410 C 166.071 316.817, 173.833 317.657, 176.417 315.720 C 179.165 313.659, 178.966 308.201, 176.056 305.844 C 173.447 303.731, 166.069 303.331, 164.200 305.200 M 186.557 325.223 C 182.667 330.776, 186.594 336, 194.659 336 C 203.839 336, 205.599 329.775, 197.770 325.001 C 193.324 322.291, 188.544 322.385, 186.557 325.223 M 214.750 346.027 C 213.787 346.617, 213 348.223, 213 349.596 C 213 351.630, 213.971 352.544, 218.250 354.536 C 226.931 358.578, 233 357.278, 233 351.378 C 233 349.513, 232.174 348.553, 229.668 347.506 C 224.974 345.544, 216.850 344.739, 214.750 346.027 M 167.667 348.667 C 166.458 349.876, 166.972 352.775, 168.500 353.362 C 170.952 354.302, 173 352.951, 173 350.393 C 173 348.553, 172.461 348, 170.667 348 C 169.383 348, 168.033 348.300, 167.667 348.667 M 130.288 358.650 C 129.621 358.920, 128.137 360.660, 126.991 362.515 L 124.905 365.889 124.940 598.557 L 124.975 831.224 127.069 834.612 C 128.221 836.475, 129.525 838, 129.968 838 C 131.193 838, 141.424 848.131, 143.351 851.253 C 144.285 852.766, 147.907 856.251, 151.399 858.995 C 154.891 861.739, 159.613 866.455, 161.892 869.474 C 164.172 872.493, 168.545 876.856, 171.609 879.170 C 174.674 881.484, 178.967 886.007, 181.150 889.220 C 183.553 892.759, 187.756 896.999, 191.809 899.973 C 195.489 902.673, 199.623 906.596, 200.996 908.691 C 204.219 913.608, 207.432 916.781, 212.955 920.500 C 215.405 922.150, 219.005 925.256, 220.955 927.403 C 222.905 929.549, 225.850 931.814, 227.500 932.435 C 229.714 933.269, 265.199 933.350, 363 932.746 C 435.875 932.296, 499.775 931.940, 505 931.956 C 510.225 931.971, 572.325 932.332, 643 932.759 C 736.944 933.325, 772.307 933.233, 774.500 932.416 C 777.704 931.222, 798.435 913.805, 801.911 909.386 C 804.705 905.834, 806.321 899.430, 805.662 894.519 C 804.954 889.239, 801.136 885.874, 792.648 883.049 C 785.656 880.722, 782.557 877.973, 778.942 870.887 C 776.917 866.917, 774.385 865.174, 767.500 863.011 C 762.241 861.358, 759.286 858.537, 756.826 852.817 C 754.789 848.083, 750.780 845.238, 743.607 843.438 C 740.276 842.601, 736.668 838.317, 734.487 832.605 C 732.908 828.470, 732.275 827.931, 726.139 825.491 C 713.143 820.324, 708.891 817.706, 704.842 812.375 C 702.493 809.283, 699.274 806.463, 696.725 805.263 C 682.061 798.363, 682.654 798.801, 679.434 792.506 C 676.700 787.162, 675.833 786.312, 671.434 784.665 C 661.792 781.054, 659.610 779.482, 657.156 774.376 C 653.841 767.478, 652.572 766.353, 645.429 763.976 C 638.968 761.826, 635.336 758.701, 631.909 752.344 C 630.651 750.010, 628.004 748.392, 619.270 744.617 C 608.451 739.940, 605.275 737.594, 601.512 731.500 C 599.100 727.593, 596.916 726.033, 589.611 723 C 585.154 721.149, 582.873 719.461, 580.828 716.500 C 579.309 714.300, 578.051 711.743, 578.033 710.818 C 577.989 708.582, 573.551 705.531, 568 703.920 C 561.207 701.948, 559.145 700.230, 555.933 693.867 C 552.900 687.859, 550.819 686.211, 543.500 684.024 C 538.513 682.534, 536.471 680.855, 531.715 674.329 C 527.748 668.887, 522.827 665.474, 513.894 661.967 C 507.646 659.515, 504.529 656.903, 502 652 C 499.465 647.085, 496.297 644.509, 490.455 642.613 C 483.524 640.363, 481.353 638.631, 478.560 633.118 C 475.563 627.204, 474.665 626.465, 467.461 623.987 C 460.205 621.490, 458.364 619.847, 455.444 613.263 C 453.013 607.781, 452.086 607.115, 441.764 603.430 C 438.274 602.184, 435.183 599.785, 430.023 594.318 C 424.868 588.858, 421.497 586.240, 417.259 584.408 C 404.862 579.050, 403.545 578.131, 400.157 572.466 C 397.001 567.190, 391.451 563, 387.617 563 C 384.909 563, 379.852 557.723, 377.532 552.476 C 375.136 547.059, 375.071 547.012, 364.080 542.651 C 359.212 540.719, 358.314 539.869, 355.276 534.316 C 351.937 528.213, 351.774 528.083, 342.962 524.430 C 336.272 521.657, 332.963 519.599, 329.766 516.225 C 319.402 505.283, 318.396 504.486, 312.683 502.687 C 305.876 500.544, 300.568 496.214, 298.819 491.377 C 297.423 487.515, 293.610 484.744, 287.435 483.103 C 282.768 481.863, 279.655 478.898, 276.042 472.253 C 273.774 468.081, 272.777 467.302, 266.805 465.038 C 260.439 462.625, 253 456.941, 253 454.491 C 253 452.419, 247.548 448.284, 239.068 443.923 C 234.090 441.364, 229.175 437.950, 227.068 435.589 C 219.620 427.242, 216.240 424.388, 212.431 423.228 C 205.833 421.219, 202.214 418.357, 199.500 413 C 196.833 407.736, 192.876 404.563, 187.540 403.409 C 182.575 402.335, 178.899 399.021, 176.247 393.228 C 173.653 387.562, 173.488 387.445, 160.742 382.176 C 159.225 381.549, 156.525 378.890, 154.742 376.268 C 150.433 369.931, 144.680 364.536, 138.400 360.943 C 133.200 357.968, 132.474 357.763, 130.288 358.650 M 242.807 365.750 C 240.078 368.927, 239.902 369.911, 241.507 373.014 C 244.302 378.419, 251.529 379.685, 254.927 375.365 C 257.649 371.905, 257.544 369.453, 254.545 366.455 C 251.524 363.433, 245.127 363.049, 242.807 365.750 M 188.380 369.452 C 187.617 371.441, 188.747 373, 190.952 373 C 192.918 373, 193.979 371.283, 193.269 369.250 C 192.668 367.526, 189.062 367.675, 188.380 369.452 M 265.524 385.358 C 263.163 387.085, 263.074 392.503, 265.369 394.798 C 266.518 395.947, 268.696 396.500, 272.072 396.500 C 277.544 396.500, 278.959 395.338, 278.985 390.823 C 279.015 385.500, 270.216 381.928, 265.524 385.358 M 289.329 404.775 C 288.685 405.185, 287.859 406.714, 287.493 408.173 C 286.463 412.277, 289.779 415, 295.809 415 C 305.050 415, 306.651 409.946, 298.638 406.067 C 294.185 403.911, 291.314 403.513, 289.329 404.775 M 246.380 409.452 C 245.564 411.579, 246.794 413, 249.452 413 C 251.780 413, 253.510 410.635, 252.444 408.910 C 251.544 407.453, 246.991 407.861, 246.380 409.452 M 266.570 428.204 C 265.257 430.078, 265.228 430.713, 266.378 432.454 C 269.092 436.563, 275 435.164, 275 430.413 C 275 426.101, 269.122 424.561, 266.570 428.204 M 319.200 427.200 C 315.710 430.690, 319.940 436.148, 327.190 437.508 C 330.108 438.055, 331.220 437.780, 332.906 436.094 C 335.399 433.601, 335.560 431.244, 333.443 428.223 C 332.142 426.365, 330.945 426, 326.143 426 C 322.984 426, 319.860 426.540, 319.200 427.200 M 344 446 C 341.325 448.675, 341.479 451.570, 344.455 454.545 C 348.335 458.426, 355.379 457.763, 357.053 453.360 C 359.606 446.647, 349.213 440.787, 344 446 M 289.250 447.662 C 288.563 447.940, 288 449.246, 288 450.564 C 288 453.419, 292.138 454.960, 294.513 452.989 C 298.058 450.047, 293.863 445.801, 289.250 447.662 M 366.471 465.439 C 361.566 470.343, 365.561 477.028, 373.361 476.968 C 378.920 476.925, 381.227 475.060, 380.820 470.937 C 380.454 467.233, 377.211 464.358, 372.316 463.400 C 369.723 462.892, 368.639 463.270, 366.471 465.439 M 391.797 484.680 C 389.573 485.266, 388.617 488.416, 389.923 490.857 C 391.153 493.154, 395.492 494.806, 402.437 495.621 C 406.709 496.122, 407.786 495.898, 409.330 494.190 C 412.664 490.502, 409.666 487.717, 399.500 485.058 C 395.342 483.970, 394.629 483.935, 391.797 484.680 M 345.246 488.154 C 343.338 490.062, 343.747 491.788, 346.541 493.619 C 350.204 496.019, 354.264 494.134, 353.816 490.242 C 353.546 487.903, 352.984 487.456, 349.996 487.204 C 348.068 487.042, 345.931 487.469, 345.246 488.154 M 367.223 506.557 C 362.985 509.525, 365.143 515.250, 370.500 515.250 C 373.784 515.250, 376 513.309, 376 510.434 C 376 508.221, 372.740 505, 370.500 505 C 369.920 505, 368.445 505.701, 367.223 506.557 M 422 507 C 419.341 509.659, 419.466 510.620, 422.923 514.077 C 425.149 516.302, 426.771 517, 429.723 517 C 434.450 517, 436 515.606, 436 511.357 C 436 509.139, 435.297 507.621, 433.777 506.557 C 430.592 504.325, 424.443 504.557, 422 507 M 446 524.288 C 444.034 525.278, 443.435 526.436, 443.195 529.715 C 442.936 533.269, 443.272 534.132, 445.478 535.578 C 448.515 537.567, 455.314 537.815, 457.483 536.014 C 459.200 534.589, 459.489 529.781, 458.021 527.039 C 457.116 525.348, 452.163 522.980, 449.601 523.015 C 448.995 523.023, 447.375 523.596, 446 524.288 M 467.750 544.080 C 465.063 545.645, 465.373 552.447, 468.223 554.443 C 470.749 556.213, 478.171 556.514, 481.066 554.965 C 485.239 552.731, 482.176 546.526, 475.685 544.067 C 472.214 542.751, 470.025 542.755, 467.750 544.080 M 446.308 566.194 C 445.103 566.777, 443.855 567.935, 443.536 568.768 C 442.690 570.972, 445.464 574.649, 448.560 575.426 C 454.007 576.793, 457.351 569.760, 452.777 566.557 C 450.231 564.773, 449.351 564.724, 446.308 566.194 M 497.750 566.080 C 491.550 569.691, 502.243 579.448, 510.629 577.833 C 512.903 577.395, 514.498 573.121, 513.650 569.740 C 512.638 565.709, 502.424 563.358, 497.750 566.080 M 523 586 C 520.311 588.689, 520.482 591.572, 523.509 594.600 C 525.601 596.692, 526.800 597.058, 530.727 596.804 C 534.629 596.552, 535.691 596.042, 536.929 593.829 C 538.187 591.578, 538.214 590.768, 537.101 588.689 C 534.554 583.929, 526.590 582.410, 523 586 M 467.655 586.829 C 464.536 590.275, 465.969 594.439, 470.500 595.094 C 477.549 596.113, 480.651 588.984, 474.398 586.135 C 470.952 584.565, 469.575 584.707, 467.655 586.829 M 545.681 604.462 C 543.352 606.791, 543.526 612.526, 546 615 C 547.467 616.467, 549.333 617, 553 617 C 561.253 617, 564.259 612.335, 559.687 606.622 C 556.766 602.971, 548.454 601.689, 545.681 604.462 M 571.250 625.625 C 570.563 625.923, 570 627.461, 570 629.043 C 570 631.501, 570.546 632.083, 573.750 633.043 C 575.813 633.660, 579.075 634.016, 581 633.833 C 583.754 633.571, 584.569 633.016, 584.822 631.229 C 585.077 629.432, 584.388 628.642, 581.519 627.444 C 577.177 625.629, 572.963 624.883, 571.250 625.625 M 523 628 C 520.661 630.339, 520.602 630.891, 522.425 633.296 C 524.180 635.610, 530.476 636.680, 532.492 635.007 C 534.674 633.196, 534.412 628.291, 532.066 627.035 C 529.026 625.409, 525.182 625.818, 523 628 M 545.223 646.557 C 542.401 648.533, 542.388 651.352, 545.189 653.961 C 547.930 656.515, 553.127 656.623, 555.345 654.171 C 557.590 651.690, 557.425 649.474, 554.811 647.039 C 552.202 644.608, 548.286 644.411, 545.223 646.557 M 601.750 646.080 C 599.037 647.660, 599.519 652.477, 602.635 654.927 C 605.565 657.232, 611.875 657.725, 613.800 655.800 C 615.858 653.742, 615.256 648.292, 612.777 646.557 C 610.269 644.800, 604.385 644.545, 601.750 646.080 M 568.184 665.584 C 563.029 669.194, 567.448 677.108, 573.737 675.530 C 577.500 674.585, 579 673.161, 579 670.533 C 579 666.046, 572.058 662.870, 568.184 665.584 M 623.477 666.394 C 620.088 671.566, 624.284 677, 631.666 677 C 638.591 677, 641.280 671.189, 636.545 666.455 C 633.069 662.978, 625.738 662.944, 623.477 666.394 M 647.200 685.200 C 646.540 685.860, 646 687.590, 646 689.045 C 646 694.091, 652.217 697.074, 658.447 695.018 C 661.409 694.040, 662 693.372, 662 691.004 C 662 688.857, 661.177 687.655, 658.632 686.082 C 654.915 683.784, 649.067 683.333, 647.200 685.200 M 624.971 705.647 C 620.320 706.909, 620.772 713.664, 625.657 715.890 C 630.940 718.297, 635 716.165, 635 710.985 C 635 706.513, 630.537 704.137, 624.971 705.647 M 675.667 706.667 C 675.300 707.033, 675 708.347, 675 709.585 C 675 712.994, 681.228 716.431, 687.473 716.469 L 692.500 716.500 692.802 712.366 C 693.083 708.509, 692.889 708.157, 689.903 707.116 C 686.414 705.900, 676.739 705.595, 675.667 706.667 M 702.039 726.189 C 699.615 728.790, 699.571 729.270, 701.425 732.855 C 705.285 740.319, 717 739.312, 717 731.516 C 717 724.824, 706.721 721.163, 702.039 726.189 M 644.443 727.447 C 640.883 732.879, 648.205 738.920, 654.632 735.854 C 658.500 734.009, 659.160 728.926, 655.834 726.596 C 652.229 724.071, 646.368 724.509, 644.443 727.447 M 727 743.648 C 722.548 745.375, 721.770 750.861, 725.455 754.545 C 730.126 759.217, 740 756.848, 740 751.056 C 740 746.286, 731.980 741.716, 727 743.648 M 667.607 746.582 C 666.426 749.659, 667.016 752.938, 668.934 753.965 C 671.747 755.470, 676.222 755.233, 678.777 753.443 C 681.610 751.460, 681.572 750.481, 678.545 747.455 C 675.601 744.510, 668.616 743.953, 667.607 746.582 M 749.671 765.218 C 748.372 766.191, 747.938 767.589, 748.171 770.044 C 748.460 773.082, 748.979 773.656, 752.462 774.794 C 754.641 775.505, 758.916 775.955, 761.962 775.794 C 767.419 775.504, 767.505 775.452, 767.815 772.223 C 768.109 769.176, 767.798 768.798, 763.408 766.856 C 757.195 764.108, 751.982 763.486, 749.671 765.218 M 699.250 767.662 C 697.241 768.473, 697.809 771.645, 700.250 773.241 C 705.642 776.765, 711.351 776.619, 712.523 772.926 C 713.617 769.479, 710.451 766.987, 705.095 767.079 C 702.568 767.122, 699.938 767.385, 699.250 767.662 M 724.165 786.597 C 720.666 789.048, 721.594 793.017, 726.248 795.500 C 729.696 797.340, 730.215 797.378, 732.748 795.969 C 736.488 793.888, 737.070 788.863, 733.834 786.596 C 730.926 784.559, 727.074 784.560, 724.165 786.597 M 779.046 786.445 C 777.081 788.813, 778.277 792.281, 781.898 794.716 C 786.252 797.643, 792.489 797.824, 793.965 795.066 C 795.677 791.866, 795.171 788.233, 792.777 786.557 C 789.894 784.537, 780.691 784.462, 779.046 786.445 M 747.235 804.037 C 744.199 805.257, 742.719 809.289, 744.153 812.436 C 747.033 818.757, 759 817.851, 759 811.312 C 759 807.607, 757.378 805.327, 753.872 804.105 C 750.217 802.831, 750.235 802.831, 747.235 804.037 M 805.816 804.130 C 800.542 806.081, 801.264 814.624, 806.899 816.958 C 810.783 818.567, 816.638 817.545, 817.988 815.023 C 821.550 808.367, 813.598 801.250, 805.816 804.130 M 827.094 824.906 C 822.154 829.846, 826.327 836, 834.614 836 C 837.357 836, 840.140 835.460, 840.800 834.800 C 844.183 831.417, 839.461 824.701, 832.844 823.485 C 829.898 822.943, 828.781 823.219, 827.094 824.906 M 769.200 825.200 C 768.540 825.860, 768 827.869, 768 829.665 C 768 833.721, 770.113 835, 776.812 835 C 785.355 835, 786.412 829.830, 778.638 826.067 C 773.791 823.720, 770.941 823.459, 769.200 825.200 M 848.631 845.520 C 847.756 847.800, 849.800 851.185, 851.817 850.797 C 854.480 850.284, 854.100 844.586, 851.377 844.197 C 850.129 844.019, 848.998 844.564, 848.631 845.520 M 798.565 846.928 C 796.316 849.414, 797.218 852.307, 801.106 855.075 C 804.800 857.706, 811.407 858.737, 813.490 857.008 C 815.636 855.228, 815.435 848.703, 813.171 846.655 C 810.457 844.198, 800.873 844.378, 798.565 846.928 M 825.348 863.693 C 822.156 864.317, 820.420 869.185, 822.016 873.038 C 824.302 878.558, 829.058 879.505, 833.923 875.411 C 838.673 871.414, 838.086 866.124, 832.665 864.063 C 829.822 862.982, 829.158 862.948, 825.348 863.693" stroke="none" fill="#444" fill-rule="evenodd"/></svg>