<svg xmlns="http://www.w3.org/2000/svg" width="1000" height="1000" viewBox="0 0 1000 1000" version="1.1"><path d="M 112.207 61.509 C 109.902 62.510, 108.336 64.246, 106.988 67.294 C 105.099 71.565, 105.057 78.869, 104.804 444.575 C 104.663 649.684, 104.595 820.917, 104.653 825.094 C 104.793 835.207, 106.432 838.343, 117.444 849.572 C 124.007 856.264, 128.014 859.475, 132 861.241 C 136.648 863.299, 137.718 864.282, 138.905 867.588 C 141.144 873.822, 143.847 876.672, 151.170 880.520 C 156.641 883.395, 158.331 884.855, 159.543 887.757 C 162.338 894.446, 165.531 897.581, 172.021 900.008 C 177.848 902.187, 178.285 902.587, 180.631 907.892 C 183.911 915.309, 186.058 917.404, 193.061 920.023 C 199.692 922.502, 200.267 923.033, 201.931 928.200 C 204.474 936.099, 212.746 940.010, 222.629 937.988 C 242.978 933.824, 230.929 934.015, 489.500 933.765 L 735.500 933.527 486 933.013 C 249.237 932.526, 236.271 932.409, 232.008 930.709 C 229.538 929.724, 225.263 927.658, 222.508 926.117 C 219.754 924.577, 214.475 922.506, 210.777 921.517 C 203.346 919.528, 201.825 918.283, 200.040 912.725 C 198.767 908.759, 194.508 903, 192.849 903 C 192.314 903, 189.522 901.886, 186.645 900.525 C 182.028 898.341, 181.206 897.476, 179.656 893.164 C 177.553 887.316, 173.925 883.684, 168.500 881.997 C 163.351 880.396, 160.347 877.610, 158.908 873.103 C 157.206 867.766, 153.374 864.251, 147.353 862.500 C 141.146 860.696, 138.455 858.194, 137.697 853.523 C 136.879 848.480, 134.226 845.148, 128.867 842.433 C 122.151 839.029, 120.869 836.047, 119.874 821.505 C 118.769 805.354, 118.926 273.244, 120.039 260.280 C 121.306 245.539, 123.959 241.306, 133.500 238.809 C 140.905 236.871, 860.095 236.871, 867.500 238.809 C 877.316 241.378, 879.715 245.439, 881.083 261.802 C 881.700 269.173, 881.958 376.895, 881.781 553 L 881.500 832.500 879.259 836.693 C 878.026 838.999, 875.025 842.551, 872.590 844.587 C 869.904 846.832, 867.520 849.968, 866.531 852.557 C 864.311 858.370, 861.058 861.346, 854.185 863.852 C 847.568 866.265, 844.765 868.881, 843.047 874.247 C 841.620 878.702, 839.249 880.556, 832.415 882.557 C 826.762 884.212, 822.863 887.688, 820.611 893.080 C 818.724 897.596, 817.767 898.367, 810.816 900.968 C 805.071 903.117, 800.143 907.601, 796.930 913.602 C 794.644 917.872, 776.129 926.778, 765.667 928.640 C 757.391 930.113, 751.188 932.643, 752.635 933.954 C 753.111 934.384, 755.624 935.527, 758.220 936.493 C 764.425 938.801, 784.740 938.291, 789.662 935.703 C 793.601 933.631, 796.661 929.821, 797.518 925.919 C 798.277 922.461, 801.040 920.394, 807.501 918.450 C 814.093 916.466, 817.444 913.714, 818.997 909.009 C 820.888 903.279, 822.676 901.579, 829 899.502 C 834.693 897.632, 839.668 893.355, 843.500 887.036 C 844.826 884.849, 847.823 882.545, 852.397 880.195 C 857.283 877.684, 861.511 874.341, 866.897 868.727 C 871.769 863.650, 877.259 859.189, 882.181 856.307 C 886.405 853.834, 890.623 850.969, 891.554 849.941 C 896.146 844.866, 895.978 859.911, 895.958 454.076 C 895.940 78.583, 895.904 71.572, 894.011 67.292 C 892.560 64.011, 891.155 62.545, 888.334 61.366 C 884.852 59.911, 884.049 59.943, 877.043 61.806 C 872.894 62.910, 867.250 64.104, 864.500 64.460 C 858.113 65.287, 853 66.895, 853 68.078 C 853 68.585, 853.119 69, 853.264 69 C 853.409 69, 855.991 69.900, 859 71 C 862.009 72.100, 865.198 73, 866.085 73 C 869.026 73, 876.108 78.608, 878.824 83.088 L 881.500 87.500 881.500 149.500 L 881.500 211.500 879.240 215.729 C 876.422 221.005, 873.479 222.549, 863.636 223.918 C 852.662 225.444, 148.338 225.444, 137.364 223.918 C 127.521 222.549, 124.578 221.005, 121.760 215.729 L 119.500 211.500 119.500 149.500 L 119.500 87.500 122.176 83.088 C 124.892 78.608, 131.974 73, 134.915 73 C 135.802 73, 138.991 72.100, 142 71 C 145.009 69.900, 147.591 69, 147.736 69 C 147.881 69, 148 68.585, 148 68.078 C 148 66.839, 142.991 65.351, 134.500 64.067 C 130.650 63.485, 125.291 62.332, 122.591 61.504 C 116.686 59.695, 116.382 59.695, 112.207 61.509 M 333.831 67.750 C 425.863 67.891, 576.163 67.891, 667.831 67.750 C 759.499 67.609, 684.200 67.494, 500.500 67.494 C 316.800 67.494, 241.799 67.609, 333.831 67.750" stroke="none" fill="#444" fill-rule="evenodd"/></svg>