<svg xmlns="http://www.w3.org/2000/svg" width="50" height="50" viewBox="0 0 50 50" version="1.1">
	<path d="M 24.250 3.749 L 43 4.044 43 7.522 L 43 11 29.565 11 C 22.176 11, 14.863 11.480, 13.315 12.067 C 9.822 13.390, 6 16.882, 6 18.751 C 6 19.527, 7.146 18.791, 8.564 17.106 C 12.024 12.994, 16.295 12.012, 30.750 12.006 L 43 12 43 27.090 C 43 46.698, 43.745 45.921, 24.896 45.967 C 11.819 45.999, 11.189 45.905, 8.646 43.548 C 7.191 42.199, 6 41.446, 6 41.873 C 6 42.301, 7.042 43.630, 8.314 44.826 C 10.471 46.852, 11.617 47, 25.140 47 C 45.135 47, 44 48.463, 44 22.686 L 44 3 24.750 3.227 L 5.500 3.453 24.250 3.749" stroke="none" fill="#555555" fill-rule="evenodd"/>
</svg>