<svg xmlns="http://www.w3.org/2000/svg" width="1000" height="1000" viewBox="0 0 1000 1000" version="1.1"><path d="M 128.523 62.500 C 126.335 63.600, 123.738 65.908, 122.751 67.630 C 121.033 70.625, 120.957 87.047, 120.979 450.633 C 120.999 786.961, 121.177 831.420, 122.528 838.482 C 124.643 849.538, 126.545 852.985, 132.214 856.042 C 138.426 859.392, 141.599 862.478, 144.214 867.714 C 146.769 872.830, 148.638 874.640, 154.825 877.988 C 157.377 879.370, 160.373 881.977, 161.483 883.782 C 167.741 893.962, 167.038 893.259, 177.218 899.517 C 179.023 900.627, 181.670 903.697, 183.101 906.341 C 186.366 912.373, 188.616 914.626, 194.645 917.899 C 197.280 919.330, 200.351 921.948, 201.468 923.718 C 202.586 925.488, 204.400 928.391, 205.500 930.169 C 208.305 934.703, 212.476 936.815, 222.139 938.593 C 229.469 939.942, 249.422 940.103, 384 939.892 C 468.425 939.760, 594.029 939.750, 663.119 939.870 C 780.695 940.074, 789.019 939.976, 793.110 938.339 C 801.411 935.018, 806.083 931.771, 811.282 925.710 C 814.152 922.365, 818.075 918.263, 820 916.594 C 821.925 914.925, 826.511 910.397, 830.191 906.530 C 838.242 898.071, 837.783 898.531, 846.500 890.155 C 850.350 886.456, 855.335 881.420, 857.578 878.965 C 859.820 876.509, 863.870 872.433, 866.578 869.907 C 869.285 867.380, 874.001 862.655, 877.058 859.407 C 880.115 856.158, 884.709 851.590, 887.268 849.256 C 895.824 841.448, 895.030 882.060, 895.035 451.755 C 895.039 43.864, 895.286 65.972, 890.690 62.158 C 889.578 61.234, 802.816 60.908, 510.874 60.731 C 134.261 60.501, 132.481 60.509, 128.523 62.500 M 135.429 67.802 C 131.564 68.406, 128.983 70.405, 128.177 73.419 C 127.723 75.113, 127.486 107.325, 127.648 145 C 127.976 221.040, 127.797 218.981, 134.600 224.953 C 137.497 227.497, 138.931 228.007, 143.285 228.041 C 146.153 228.064, 306.900 228.187, 500.500 228.315 L 852.500 228.548 858.204 230.767 C 862.467 232.425, 864.527 232.750, 866.356 232.055 C 869.609 230.818, 873.689 225.324, 876.134 218.889 C 878.049 213.850, 878.120 211.118, 878.097 143.849 C 878.074 80.065, 877.926 73.817, 876.385 71.464 C 875.457 70.048, 873.528 68.668, 872.099 68.397 C 869.349 67.877, 138.729 67.286, 135.429 67.802 M 436 260.085 C 434.055 260.575, 366.152 260.937, 283.169 260.902 C 139.780 260.840, 133.756 260.910, 131.804 262.669 C 130.685 263.676, 129.364 265.563, 128.868 266.861 C 128.339 268.245, 127.956 385.583, 127.944 550.361 L 127.924 831.500 131.841 835 C 133.996 836.925, 136.984 839.343, 138.482 840.374 C 139.980 841.405, 141.818 843.713, 142.566 845.504 C 144.443 849.997, 148.388 854.473, 152.792 857.106 C 158.147 860.308, 160.950 863.025, 163 867 C 165.445 871.741, 167.759 874.167, 172.500 876.959 C 177.598 879.961, 183 884.995, 183 886.744 C 183 888.503, 192.497 898, 194.256 898 C 196.176 898, 201.427 903.785, 203.786 908.500 C 206.131 913.187, 208.048 915.025, 213.500 917.811 C 217.547 919.880, 218.676 920.901, 225.865 929 L 229.860 933.500 340.180 933.547 C 400.856 933.573, 451.489 933.256, 452.698 932.842 C 453.906 932.428, 455.612 930.996, 456.488 929.659 C 457.937 927.448, 458.079 897.449, 458.062 597.588 C 458.049 380.053, 457.703 267.313, 457.044 266.082 C 456.495 265.056, 454.650 263.042, 452.946 261.608 C 450.426 259.488, 448.879 259.019, 444.673 259.102 C 441.828 259.159, 437.925 259.601, 436 260.085 M 856.500 260.007 C 854.300 260.490, 785.482 260.911, 703.571 260.942 C 594.999 260.984, 553.810 261.308, 551.571 262.136 C 549.882 262.761, 547.514 264.487, 546.310 265.972 L 544.119 268.672 543.857 597.864 L 543.594 927.056 546.817 930.278 L 550.040 933.500 665.661 933.205 C 758.078 932.969, 781.905 932.647, 784.391 931.602 C 788.036 930.070, 792.311 926.005, 796.491 920.097 C 798.135 917.773, 801.060 914.701, 802.991 913.273 C 806.663 910.554, 811.425 905.875, 816.511 899.986 C 818.167 898.069, 821.620 894.787, 824.184 892.692 C 826.749 890.598, 830.644 886.504, 832.841 883.594 C 835.038 880.684, 839.342 876.640, 842.406 874.606 C 845.470 872.572, 849.670 868.808, 851.739 866.241 C 856.378 860.486, 860.121 856.746, 866.732 851.263 C 871.861 847.010, 873.954 843.893, 876.625 836.531 C 877.866 833.112, 878.064 793.550, 878.051 550.544 C 878.037 278.834, 877.969 268.436, 876.206 266.075 C 871.728 260.077, 865.258 258.085, 856.500 260.007 M 486.611 268.532 C 484.606 270.537, 483.561 276.314, 484.580 279.764 C 485.025 281.269, 485.639 425.375, 485.944 600 C 486.384 851.251, 486.761 918.089, 487.753 920.323 C 489.578 924.434, 492.138 923.436, 493.729 917.994 C 494.801 914.328, 495.040 859.914, 495.026 622.500 C 495.017 456.262, 495.422 319.165, 495.972 302.729 C 496.931 274.075, 496.642 269.664, 493.687 267.786 C 491.722 266.536, 488.240 266.903, 486.611 268.532" stroke="none" fill="#444" fill-rule="evenodd"/></svg>