<svg xmlns="http://www.w3.org/2000/svg" width="50" height="50" viewBox="0 0 50 50" version="1.1">
	<path d="M 6 13.022 C 6.825 13.568, 11.199 16.109, 15.721 18.669 L 23.941 23.325 24.254 35.412 L 24.568 47.500 24.784 35.451 L 25 23.402 35.010 18.044 C 40.516 15.098, 44.863 12.530, 44.671 12.338 C 44.479 12.145, 40.087 14.304, 34.911 17.135 C 29.735 19.966, 25.050 22.280, 24.500 22.278 C 23.950 22.277, 19.527 19.963, 14.671 17.138 C 9.815 14.312, 5.540 12.007, 5.171 12.015 C 4.802 12.024, 5.175 12.477, 6 13.022 M 7 44.500 C 8.292 45.875, 9.574 47, 9.849 47 C 10.124 47, 9.292 45.875, 8 44.500 C 6.708 43.125, 5.426 42, 5.151 42 C 4.876 42, 5.708 43.125, 7 44.500 M 41.924 44.750 L 39.500 47.500 42.250 45.076 C 44.820 42.810, 45.459 42, 44.674 42 C 44.495 42, 43.258 43.237, 41.924 44.750" stroke="none" fill="#555555" fill-rule="evenodd"/>
</svg>