<svg xmlns="http://www.w3.org/2000/svg" width="1000" height="1000" viewBox="0 0 1000 1000" version="1.1"><path d="M 111.459 61.775 C 110.120 62.477, 108.338 64.379, 107.498 66.003 C 106.137 68.636, 105.971 110.324, 105.971 450.551 C 105.971 822.666, 106.018 832.251, 107.862 836.323 C 109.017 838.875, 113.956 844.586, 120.553 851 C 126.493 856.775, 133.861 864.137, 136.927 867.359 C 139.992 870.582, 156.675 887.529, 174 905.018 C 203.525 934.823, 205.828 936.913, 210.724 938.347 C 215.355 939.703, 247.325 939.881, 492.724 939.916 C 690.261 939.944, 771.790 939.637, 777.500 938.845 C 787.806 937.415, 791.660 935.540, 795.677 930 C 802.096 921.150, 803.253 919.911, 806.853 918.040 C 811.467 915.642, 814.297 912.796, 818.322 906.509 C 820.189 903.593, 823.593 900.175, 826.509 898.289 C 831.791 894.873, 838 888.482, 838 886.461 C 838 884.927, 845.642 878.036, 849.835 875.788 C 851.592 874.846, 854.260 871.956, 855.765 869.365 C 859.218 863.418, 863.391 859.232, 869.260 855.830 C 871.820 854.346, 874.610 851.721, 875.542 849.919 C 880.116 841.073, 879.972 853.923, 880.013 450.831 C 880.050 85.761, 879.980 70.650, 878.240 67.672 C 877.244 65.966, 875.042 63.760, 873.346 62.770 C 870.392 61.045, 854.282 60.959, 492.078 60.734 C 187.102 60.545, 113.422 60.747, 111.459 61.775 M 128.108 68.631 C 126.674 69.253, 124.954 70.684, 124.286 71.810 C 123.346 73.395, 123.047 116.607, 122.961 262.958 L 122.851 452.059 125.175 454.021 C 128.359 456.709, 131.097 457.311, 137.786 456.792 C 145.495 456.194, 151.819 453.017, 155.500 447.893 C 158.654 443.502, 165.505 439.628, 172 438.564 C 173.925 438.248, 182.537 437.344, 191.139 436.555 C 199.740 435.766, 208.328 434.472, 210.223 433.680 C 212.119 432.888, 215.300 430.250, 217.293 427.818 C 223.622 420.094, 229.662 418.176, 254.239 416.085 C 270.278 414.721, 273.462 413.643, 277.109 408.342 C 280.225 403.812, 286.478 399.587, 291.500 398.616 C 293.150 398.297, 302.443 397.359, 312.150 396.531 C 321.858 395.704, 330.971 394.581, 332.402 394.037 C 333.832 393.494, 337.589 390.420, 340.751 387.208 C 345.538 382.345, 347.515 381.086, 352.566 379.684 C 355.902 378.758, 360.177 377.991, 362.066 377.980 C 367.004 377.952, 386.094 375.321, 391.061 373.984 C 393.752 373.259, 397.159 371.071, 400.464 367.945 C 408.889 359.978, 415.789 357.839, 437.500 356.469 C 450.566 355.643, 456.276 353.978, 463.535 348.877 C 474.479 341.184, 480.431 339.023, 495.198 337.380 C 511.557 335.560, 519.420 333.175, 526.245 327.966 C 534.856 321.394, 540.970 318.874, 550.747 317.866 C 578.738 314.982, 578.734 314.983, 586.031 307.736 C 592.243 301.566, 598.612 299.452, 616.677 297.566 C 635.202 295.632, 640.244 294.145, 645.884 288.951 C 653.776 281.681, 659.523 279.583, 677.331 277.467 C 695.785 275.274, 700.536 273.783, 706 268.473 C 713.389 261.291, 719.370 259.192, 738.692 256.998 C 747.936 255.948, 757.075 254.546, 759 253.881 C 760.925 253.217, 764.846 250.545, 767.714 247.943 C 776.889 239.620, 785.019 237.158, 803.701 237.044 C 815.950 236.969, 820.475 235.499, 827.045 229.458 C 835.653 221.545, 839.301 220.047, 856.062 217.543 C 865.391 216.149, 871.944 213.131, 872.073 210.168 C 872.113 209.251, 872.133 178.125, 872.119 141 L 872.093 73.500 869.031 70.750 C 866.183 68.193, 865.355 68, 857.234 68.003 C 852.430 68.005, 686.999 67.892, 489.608 67.753 C 224.355 67.566, 130.035 67.795, 128.108 68.631 M 852.844 247.355 C 850.834 247.985, 847.663 249.850, 845.798 251.500 C 843.933 253.150, 841.480 255.299, 840.347 256.275 C 836.623 259.484, 826.831 262.130, 811.548 264.057 C 791.441 266.593, 789.585 267.202, 784.313 272.995 C 777.739 280.220, 773.496 281.783, 755.726 283.529 C 730.952 285.964, 730.336 286.164, 721.470 294.645 C 716.180 299.705, 709.337 301.787, 692.181 303.557 C 668.109 306.041, 667.853 306.127, 659.741 314.416 C 652.543 321.772, 650.750 322.229, 616.248 325.517 C 610.093 326.104, 603.457 328.554, 601.723 330.879 C 596.543 337.828, 586.680 341.497, 567.847 343.481 C 560.451 344.260, 553.296 345.319, 551.949 345.834 C 548.097 347.307, 546.202 350.085, 544.302 357.043 C 542.637 363.139, 542.537 379.281, 542.519 645.727 L 542.500 927.954 545.138 930.592 L 547.776 933.231 659.605 933.248 L 771.434 933.265 777.467 926.706 C 780.785 923.099, 785.343 919.241, 787.595 918.133 C 791.605 916.159, 798 909.897, 798 907.943 C 798 906.582, 806.013 898, 807.283 898 C 809.771 898, 815.156 892.487, 818.144 886.880 C 820.766 881.962, 822.567 880.035, 827.448 876.923 C 832.734 873.553, 838 867.703, 838 865.201 C 838 863.789, 843.307 859.318, 847.500 857.197 C 852.942 854.445, 855.571 851.781, 858.450 846.099 C 859.791 843.452, 862.975 839.310, 865.526 836.893 C 868.076 834.477, 870.554 831.784, 871.032 830.909 C 871.516 830.022, 871.996 701.075, 872.117 539.504 L 872.334 249.689 870.056 247.845 C 867.425 245.714, 858.861 245.470, 852.844 247.355 M 507.007 372.983 C 505.113 377.556, 507.832 387, 511.043 387 C 513.916 387, 516.246 373.646, 513.800 371.200 C 511.558 368.958, 508.322 369.807, 507.007 372.983 M 436 384.089 C 425.743 385.280, 420.721 387.359, 417.365 391.803 C 413.174 397.352, 412.626 397.782, 406.844 400.067 C 402.726 401.694, 397.204 402.479, 382.781 403.485 C 367.322 404.564, 363.274 405.173, 359.531 406.985 C 357.039 408.191, 355 409.489, 355 409.868 C 355 411.689, 346.928 418.581, 342.304 420.708 C 337.814 422.772, 334.820 423.211, 320.304 423.932 C 299.612 424.960, 296.493 425.926, 289.870 433.357 C 283.355 440.666, 278.627 442.349, 260.218 443.913 C 241.320 445.519, 236.792 446.910, 230.500 453.038 C 222.888 460.453, 218.723 461.855, 199.250 463.558 C 178.411 465.381, 174.410 466.634, 167.562 473.482 C 160.521 480.522, 153.958 482.992, 142.212 483.022 C 132.575 483.046, 126.047 485.175, 124.025 488.953 C 123.189 490.515, 122.911 535.709, 122.971 660.133 C 123.041 805.214, 123.258 829.682, 124.499 832.652 C 125.849 835.884, 132.495 843.261, 146.271 856.820 C 167.917 878.127, 177.947 888.358, 180.949 892.195 C 182.846 894.619, 186.366 898.154, 188.772 900.051 C 195.329 905.220, 196.100 905.966, 202.029 912.883 C 207.767 919.577, 220.915 930.247, 225.697 932.089 C 229.133 933.413, 447.893 933.371, 451.379 932.046 C 452.628 931.571, 454.405 930.031, 455.327 928.623 C 456.883 926.249, 457.035 906.999, 457.431 662.282 C 457.666 517.202, 457.908 396.475, 457.969 394 C 458.063 390.177, 457.620 389.087, 455.024 386.750 C 453.343 385.238, 450.963 383.994, 449.734 383.986 C 448.505 383.979, 446.600 383.803, 445.500 383.595 C 444.400 383.388, 440.125 383.610, 436 384.089 M 508.828 649.750 C 508.734 754.112, 508.469 853, 508.240 869.500 C 508.011 886, 507.815 901.525, 507.803 904 C 507.771 911.063, 509.389 921.300, 510.600 921.702 C 512.678 922.391, 513.096 906.834, 512.953 834 C 512.875 794.125, 512.865 710.200, 512.932 647.500 C 513.076 511.348, 512.372 460, 510.362 460 C 509.218 460, 508.973 490.364, 508.828 649.750" stroke="none" fill="#444" fill-rule="evenodd"/></svg>