<svg xmlns="http://www.w3.org/2000/svg" width="800" height="800" viewBox="0 0 800 800" version="1.1"><path d="M 403.500 48.948 C 173.489 49.371, 103.014 49.779, 101.418 50.695 C 100.273 51.353, 98.780 52.560, 98.101 53.378 C 97.128 54.551, 96.878 119.499, 96.919 360.586 C 96.968 644.385, 97.091 666.494, 98.641 668.904 C 100.494 671.785, 161.649 732.748, 172.971 743 C 176.919 746.575, 181.353 750.042, 182.825 750.705 C 186.325 752.281, 629.388 752.563, 633.522 750.992 C 637.710 749.399, 660.755 728.059, 675.650 711.980 C 677.932 709.516, 687.308 700.525, 696.484 692 C 705.811 683.335, 714.024 674.843, 715.108 672.743 C 717.015 669.049, 717.048 663.846, 717.044 361.286 L 717.039 53.585 714.637 51.183 C 712.930 49.476, 710.972 48.725, 707.868 48.588 C 705.465 48.482, 568.500 48.644, 403.500 48.948 M 686.500 62.130 C 683.750 62.523, 554.683 62.861, 399.684 62.882 L 117.868 62.918 114.538 64.977 C 108.102 68.954, 108.358 66.217, 108.956 124.500 C 109.473 174.903, 109.598 177.696, 111.500 181.500 C 114.246 186.992, 118.588 188.996, 127.745 188.998 C 137.845 189.001, 163.391 191.808, 170 193.643 C 173.025 194.482, 177.505 196.720, 179.955 198.616 C 185.221 202.691, 190.652 204.379, 205.452 206.542 C 217.873 208.357, 222.209 209.881, 226.500 213.939 C 230.896 218.096, 234.745 219.745, 246.582 222.542 C 258.723 225.411, 261.323 226.574, 265.500 231.002 C 269.035 234.750, 273.607 237.188, 280.500 239 C 287.524 240.847, 291.979 243.282, 295.755 247.340 C 298.945 250.768, 303.344 252.881, 311.658 254.979 C 315.998 256.073, 318.412 258.125, 322.275 264 C 323.983 266.598, 326.241 268.160, 331.038 270.062 C 336.451 272.207, 337.987 273.380, 340.500 277.285 C 342.818 280.887, 344.920 282.630, 349.746 284.950 C 353.940 286.966, 359.033 290.865, 365.246 296.815 C 370.336 301.690, 376.633 307.603, 379.240 309.957 C 381.848 312.311, 386.993 318.038, 390.675 322.685 C 399.973 334.418, 408.198 338.830, 412.231 334.250 C 413.079 333.287, 414.951 330.148, 416.391 327.273 C 418.126 323.810, 420.105 321.491, 422.255 320.402 C 426.939 318.030, 428.973 316.001, 430.621 312.057 C 432.620 307.273, 434.694 305.193, 440.300 302.350 C 443.661 300.645, 445.910 298.553, 447.800 295.370 C 449.941 291.765, 451.906 290.111, 457.296 287.377 C 462.269 284.853, 464.951 282.705, 467.296 279.366 C 469.947 275.590, 472.163 274, 480.136 270.151 C 487.771 266.466, 490.477 264.572, 493.163 261.031 C 495.400 258.084, 497.907 256.093, 500.527 255.182 C 509.376 252.107, 512.246 250.477, 515.054 246.932 C 518.335 242.789, 522.528 240.814, 533.185 238.390 C 539.570 236.937, 541.067 236.124, 545.986 231.432 C 552.289 225.420, 554.057 224.586, 566.150 221.928 C 577.623 219.406, 579.328 218.686, 584.846 214.033 C 590.916 208.914, 596.174 207.128, 608.657 205.942 C 620.497 204.817, 625.579 203.236, 630.776 199.060 C 638.020 193.238, 652.559 190.277, 678.500 189.340 C 687.850 189.002, 696.326 188.301, 697.335 187.783 C 698.344 187.264, 699.919 185.188, 700.835 183.170 C 702.309 179.920, 702.535 173.329, 702.806 125.593 C 703.027 86.681, 702.793 70.915, 701.965 68.915 C 699.555 63.097, 694.683 60.959, 686.500 62.130 M 684 211.131 C 679.875 211.605, 672.524 212.426, 667.665 212.954 C 661.790 213.593, 657.770 214.598, 655.665 215.953 C 645.352 222.592, 638.695 224.924, 625.500 226.519 C 608.452 228.580, 606.082 229.286, 600.371 234.005 C 597.309 236.535, 592.776 238.909, 587.920 240.527 C 583.561 241.978, 579.272 244.146, 577.929 245.576 C 575.852 247.786, 575.626 248.812, 576.012 254.291 C 577.273 272.171, 575.809 700.090, 574.422 719.139 L 573.720 728.778 577.752 733.100 L 581.784 737.423 603.142 737.704 C 631.247 738.074, 632.470 737.785, 641.569 728.620 C 645.457 724.704, 650.407 719.890, 652.569 717.923 C 654.731 715.955, 658.300 712.341, 660.500 709.892 C 662.700 707.443, 669.900 700.226, 676.500 693.854 C 693.406 677.532, 699.627 670.956, 701.426 667.500 C 702.828 664.807, 702.988 641.597, 702.994 440.473 C 703.001 191.618, 703.635 213.104, 696.221 211.044 C 694.174 210.476, 692.275 210.069, 692 210.140 C 691.725 210.210, 688.125 210.656, 684 211.131 M 114.513 212.441 C 107.832 214.932, 107.031 217.529, 108.920 230.581 C 109.923 237.507, 110.393 595.471, 109.438 624.500 C 108.614 649.555, 108.713 652.334, 110.688 659.454 C 112.346 665.428, 112.708 665.842, 141.201 694.250 C 157.060 710.062, 170.440 723, 170.933 723 C 171.426 723, 173.457 725.217, 175.445 727.926 C 181.515 736.194, 184.702 737.176, 208.234 738.033 C 219.218 738.432, 229.171 738.525, 230.352 738.239 C 232.862 737.630, 235.789 735.262, 237.132 732.754 C 237.721 731.652, 237.969 648.308, 237.790 511.743 C 237.631 391.159, 237.501 282.825, 237.501 271 C 237.500 259.175, 237.155 248.560, 236.733 247.410 C 235.842 244.981, 233.273 243.536, 227.006 241.937 C 221.295 240.481, 215.206 237.440, 212 234.443 C 207.949 230.656, 202.714 229.038, 187.685 226.926 C 169.860 224.421, 167.596 223.801, 161.562 219.775 C 151.761 213.233, 149.268 212.601, 129 211.517 C 121.045 211.091, 117.534 211.315, 114.513 212.441 M 261.938 262.062 C 259.909 264.091, 259.783 264.891, 260.389 271.885 C 261.243 281.735, 261.208 695.995, 260.352 714.698 C 259.788 727.006, 259.924 729.235, 261.374 731.448 C 263.250 734.311, 265.176 734.698, 266.944 732.567 C 267.856 731.468, 268.125 678.068, 268.094 503.817 C 268.072 378.793, 268.440 274.540, 268.912 272.144 C 269.967 266.791, 269.079 263.128, 266.275 261.267 C 264.368 260, 263.917 260.083, 261.938 262.062 M 550.701 265.632 C 549.481 266.852, 549.942 271.542, 551.481 273.559 C 552.765 275.242, 553.099 275.301, 553.992 274 C 555.533 271.756, 554.800 265.573, 552.951 265.224 C 552.099 265.063, 551.087 265.246, 550.701 265.632 M 295.308 275.009 C 291.094 276.708, 289.682 280.360, 290.376 287.769 C 290.827 292.591, 292.406 711.041, 292.043 729.734 C 292.020 730.963, 293.238 733.339, 294.750 735.014 L 297.500 738.059 401.788 738.071 C 503.279 738.082, 506.149 738.030, 508.788 736.149 C 515.537 731.338, 515 737.156, 515.406 664.400 C 515.608 628.155, 516.279 569.475, 516.896 534 C 519.717 371.809, 520.329 334.207, 520.446 316 C 520.543 300.768, 520.950 295.187, 522.303 290.500 C 524.231 283.820, 523.774 279.485, 520.984 277.992 C 519.965 277.446, 515.936 277, 512.030 277 C 505.906 277, 504.662 277.310, 502.993 279.250 C 495.736 287.685, 493.146 289.884, 489.218 290.941 C 485.873 291.842, 484.186 293.188, 481.009 297.488 C 478.387 301.037, 475.372 303.717, 472.255 305.271 C 469.169 306.808, 466.003 309.608, 463.234 313.248 C 460.887 316.333, 457.357 319.853, 455.388 321.069 C 453.419 322.286, 450.471 325.131, 448.835 327.391 C 447.200 329.651, 443.755 333.086, 441.181 335.024 C 438.198 337.269, 435.360 340.685, 433.359 344.439 C 431.302 348.298, 428.619 351.490, 425.584 353.693 C 422.279 356.091, 420.267 358.600, 418.568 362.443 C 415.999 368.252, 413.572 370.153, 408.548 370.296 C 403.625 370.435, 399.398 368.200, 396.605 363.979 C 395.208 361.868, 392.073 358.770, 389.638 357.095 C 386.368 354.845, 384.480 352.465, 382.412 347.984 C 380.023 342.811, 378.868 341.520, 374.556 339.210 C 370.432 336.999, 368.910 335.385, 366.300 330.451 C 363.593 325.333, 362.357 324.066, 358.263 322.216 C 354.423 320.480, 352.805 318.944, 350.423 314.769 C 347.966 310.464, 346.401 309.021, 341.804 306.817 C 338.715 305.336, 335.357 302.930, 334.343 301.470 C 330.317 295.672, 327.243 293.145, 321.500 290.909 C 316.950 289.137, 313.897 286.932, 308.866 281.786 C 305.218 278.054, 301.767 275, 301.198 275 C 300.629 275, 299.564 274.803, 298.832 274.563 C 298.099 274.322, 296.514 274.523, 295.308 275.009" stroke="none" fill="#444" fill-rule="evenodd"/></svg>