<svg xmlns="http://www.w3.org/2000/svg" width="800" height="800" viewBox="0 0 800 800" version="1.1"><path d="M 94 47.925 C 88.639 49.004, 85.944 50.854, 84.665 54.330 C 83.783 56.729, 83.635 128.505, 84.055 349.500 L 84.611 641.500 86.757 650.866 C 88.118 656.803, 90.156 662.333, 92.324 665.973 C 94.205 669.131, 96.538 674.141, 97.508 677.107 C 100.127 685.118, 101.773 687.980, 106.934 693.500 C 109.506 696.250, 113.534 701.341, 115.885 704.813 C 118.350 708.452, 122.772 713.112, 126.325 715.813 C 129.716 718.391, 135.203 723.061, 138.519 726.191 C 143.789 731.166, 153.461 736.961, 156.543 736.990 C 157.117 736.996, 160.189 739.200, 163.369 741.890 C 170.964 748.311, 175.806 749.592, 201.688 752.026 C 221.441 753.884, 231.554 753.983, 400.500 753.983 C 569.446 753.983, 579.559 753.884, 599.312 752.026 C 625.194 749.592, 630.036 748.311, 637.631 741.890 C 640.811 739.200, 643.883 736.996, 644.457 736.990 C 647.539 736.961, 657.211 731.166, 662.481 726.191 C 665.797 723.061, 671.284 718.391, 674.675 715.813 C 678.228 713.112, 682.650 708.452, 685.115 704.813 C 687.466 701.341, 691.494 696.250, 694.066 693.500 C 699.227 687.980, 700.873 685.118, 703.492 677.107 C 704.462 674.141, 706.795 669.131, 708.676 665.973 C 710.844 662.333, 712.882 656.803, 714.243 650.866 L 716.389 641.500 716.945 349.500 C 717.367 127.671, 717.219 56.735, 716.329 54.316 C 715.643 52.452, 713.778 50.380, 711.829 49.316 C 708.634 47.573, 696.172 47.494, 403 47.360 C 234.975 47.283, 95.925 47.537, 94 47.925 M 103.565 55.508 C 102.429 56.062, 100.600 58.312, 99.500 60.508 C 97.514 64.472, 97.500 66.497, 97.500 352.500 C 97.500 658.212, 97.363 648.955, 102.033 659.725 C 103.041 662.048, 105.223 665.648, 106.882 667.725 C 108.541 669.801, 111.495 675.325, 113.445 680 C 116.209 686.625, 118.579 690.265, 124.187 696.500 C 136.676 710.387, 143.305 716.414, 149.954 719.926 C 153.503 721.801, 158.228 724.995, 160.454 727.025 C 165.840 731.939, 166.863 732.391, 178.500 735.004 C 184 736.239, 192.100 738.723, 196.500 740.525 C 200.900 742.327, 207.650 744.266, 211.500 744.834 C 221.974 746.378, 580.130 746.670, 589.819 745.142 C 593.845 744.507, 600.370 742.608, 604.319 740.922 C 608.269 739.236, 616.168 736.750, 621.874 735.397 C 633.784 732.573, 634.944 732.053, 640.840 726.890 C 643.227 724.799, 647.502 721.765, 650.340 720.146 C 657.422 716.106, 662.445 711.585, 674.400 698.493 C 682.933 689.148, 685.151 686.023, 687.709 679.744 C 689.397 675.599, 692.585 669.799, 694.794 666.854 C 699.945 659.987, 701.810 653.485, 703.072 638 C 703.741 629.790, 703.990 529.066, 703.796 344.500 C 703.521 83.290, 703.381 63.284, 701.816 60.427 C 700.890 58.737, 699.480 56.813, 698.684 56.152 C 696.783 54.575, 106.785 53.936, 103.565 55.508" stroke="none" fill="#444" fill-rule="evenodd"/></svg>