<svg xmlns="http://www.w3.org/2000/svg" width="800" height="800" viewBox="0 0 800 800" version="1.1"><path d="M 106.134 48.190 C 100.619 49.131, 98.236 50.565, 95.950 54.314 C 93.579 58.202, 93.520 60.520, 95.630 66.715 C 97.049 70.879, 97.263 77.859, 97.280 120.500 C 97.293 156.670, 96.954 171.404, 95.985 176.772 C 94.925 182.643, 94.903 186.688, 95.873 197.772 C 96.770 208.026, 97.067 276.933, 97.046 470.111 C 97.019 713.126, 96.912 729.125, 95.268 735.393 C 93.562 741.898, 93.568 742.156, 95.509 745.782 C 96.675 747.959, 98.989 750.228, 101.091 751.256 C 104.492 752.920, 120.622 753.012, 405.881 753.003 C 735.855 752.993, 712.167 753.445, 715.449 747.099 C 716.883 744.326, 717.024 711.864, 716.964 400.200 C 716.899 64.168, 716.854 56.289, 714.996 53.235 C 713.745 51.176, 711.799 49.736, 709.298 49.018 C 705.017 47.788, 113.245 46.976, 106.134 48.190 M 114.446 64.513 C 105.249 69.185, 105.820 65.461, 105.796 120.948 C 105.776 169.711, 105.778 169.781, 107.977 172.754 C 109.187 174.392, 111.918 176.710, 114.045 177.905 L 117.912 180.078 401.206 180.022 C 696.216 179.962, 687.319 180.079, 697.198 176.159 C 703.377 173.708, 703.256 174.832, 703.126 120.931 C 703.055 91.423, 702.622 71.161, 702.038 70.072 C 700.827 67.808, 696.053 65.509, 688.450 63.529 C 683.250 62.175, 650.432 62, 400.986 62 L 119.393 62 114.446 64.513 M 119.106 192.252 C 114.782 193.373, 110.358 199.102, 108.053 206.565 C 106.025 213.131, 106.015 214.419, 105.992 470.619 C 105.978 639.089, 106.313 728.716, 106.962 729.930 C 108.581 732.955, 113.825 736.870, 117.795 738.018 C 120.401 738.771, 205.320 739.001, 404 738.794 C 675.116 738.512, 686.718 738.426, 691.915 736.662 C 694.893 735.652, 698.605 733.549, 700.165 731.989 L 703 729.154 703 470.758 C 703 237.649, 702.845 211.840, 701.412 207.017 C 699.424 200.321, 696.062 196.915, 688.733 194.173 L 682.990 192.024 402.499 191.762 C 248.229 191.618, 120.702 191.839, 119.106 192.252" stroke="none" fill="#444" fill-rule="evenodd"/></svg>