<svg xmlns="http://www.w3.org/2000/svg" width="1000" height="1000" viewBox="0 0 1000 1000" version="1.1"><path d="M 131.273 62.157 C 126.122 63.317, 121.302 67.871, 120.457 72.377 C 119.415 77.932, 124.176 87, 128.135 87 C 129.138 87, 132.331 85.201, 135.230 83.003 C 138.128 80.805, 142.540 78.326, 145.033 77.495 C 149.049 76.156, 189.978 76.013, 504.033 76.242 L 858.500 76.500 865.647 78.609 C 873.330 80.875, 878.318 83.857, 880.148 87.276 C 880.971 88.814, 881.294 106.866, 881.300 151.647 C 881.307 208.077, 881.153 214.118, 879.640 216.426 C 877.093 220.313, 873.422 222.269, 864.060 224.725 L 855.500 226.970 501.270 227.021 C 189.044 227.066, 146.698 226.895, 144.153 225.579 C 142.565 224.758, 139.238 222.538, 136.758 220.645 C 129.453 215.069, 128.135 214.568, 125.954 216.541 C 123.103 219.122, 121.603 224.740, 121.693 232.500 C 121.787 240.657, 124.488 254.477, 126.641 257.817 C 128.626 260.898, 130.131 259.606, 134.002 251.497 C 136.866 245.494, 142.806 239.349, 147.374 237.660 C 150.195 236.618, 850.836 236.903, 855.362 237.948 C 862.996 239.711, 871.552 243.338, 874.323 245.986 C 876.299 247.875, 877.729 250.905, 879.092 256.092 C 881 263.355, 881.039 269.829, 881.113 587.664 L 881.188 911.827 878.952 914.852 C 876.201 918.572, 869.220 921.672, 859.327 923.565 C 847.908 925.749, 151.304 925.724, 145.110 923.539 C 141.590 922.297, 134.680 917.941, 133 915.905 C 132.725 915.572, 131.450 914.746, 130.167 914.070 C 127.179 912.496, 124.552 914.616, 121.763 920.852 C 118.017 929.226, 122.353 936.838, 132.054 938.918 C 137.523 940.091, 837.085 940.244, 869.517 939.079 C 884.922 938.526, 886.828 938.259, 889.639 936.257 C 891.670 934.811, 893.049 932.739, 893.623 930.273 C 894.122 928.125, 894.285 775.925, 894 577 C 893.725 384.775, 893.725 193.075, 894 151 C 894.277 108.606, 894.109 72.818, 893.623 70.727 C 892.052 63.973, 888.939 62.706, 872.067 61.951 C 848.211 60.883, 136.050 61.081, 131.273 62.157" stroke="none" fill="#444" fill-rule="evenodd"/></svg>