<svg xmlns="http://www.w3.org/2000/svg" width="1000" height="1000" viewBox="0 0 1000 1000" version="1.1"><path d="M 122.601 62.105 C 116.177 63.042, 112.863 64.754, 110.505 68.353 C 109.147 70.425, 108.980 112.096, 108.970 451.500 L 108.959 832.323 113.340 837.912 C 115.750 840.985, 119.368 846.079, 121.380 849.232 C 123.416 852.422, 127.480 856.808, 130.543 859.120 C 133.571 861.406, 138.287 866.091, 141.025 869.532 C 143.763 872.972, 148.291 877.522, 151.089 879.643 C 153.887 881.765, 158.376 886.291, 161.067 889.702 C 163.757 893.113, 168.369 897.724, 171.317 899.949 C 174.264 902.174, 178.751 906.668, 181.288 909.935 C 183.825 913.202, 188.286 917.757, 191.201 920.058 C 194.115 922.358, 198.531 926.774, 201.013 929.870 C 203.496 932.967, 207.321 936.400, 209.513 937.500 C 213.469 939.484, 215.750 939.502, 500 939.751 C 764.138 939.982, 786.851 939.873, 791 938.352 C 794.744 936.979, 802.659 929.540, 838.087 894.101 C 869.879 862.300, 882.110 849.393, 886.337 843.191 C 889.452 838.620, 892.003 834.345, 892.007 833.691 C 892.011 833.036, 892.042 660.640, 892.076 450.588 L 892.138 68.676 889.302 65.840 C 886.966 63.504, 885.144 62.832, 878.983 62.033 C 869.548 60.808, 131.003 60.879, 122.601 62.105 M 131.419 67.035 C 129.724 67.549, 127.474 68.924, 126.419 70.090 C 124.546 72.159, 124.493 76.187, 124.214 239.355 C 124.057 331.285, 124.172 407.850, 124.470 409.500 C 124.823 411.454, 126.233 413.332, 128.516 414.886 C 131.571 416.966, 132.823 417.204, 138.260 416.742 C 146.867 416.011, 153.352 412.937, 158.598 407.102 C 164.088 400.996, 168.464 399.232, 181.314 397.945 C 194.647 396.609, 207.785 394.340, 213.153 392.446 C 215.520 391.611, 219.492 389.236, 221.979 387.168 C 232.175 378.690, 240.869 376.100, 259.349 376.035 C 270.845 375.994, 274.100 374.810, 280.951 368.177 C 288.502 360.865, 295.433 358.657, 316.020 357.006 C 334.528 355.522, 336.503 354.884, 342.500 348.453 C 345.693 345.028, 349.628 342.121, 353.388 340.408 C 358.824 337.933, 360.667 337.674, 377.388 337.035 C 398.099 336.245, 401.156 335.394, 405.605 329.179 C 409.378 323.908, 417.011 319.404, 424.434 318.068 C 427.697 317.481, 435.378 317, 441.502 317 C 456.304 317, 461.769 315.386, 466.110 309.732 C 473.264 300.414, 478.399 298.419, 497.559 297.510 C 516.388 296.616, 521.161 295.203, 526.954 288.807 C 531.449 283.845, 537.717 279.958, 543.462 278.571 C 545.091 278.177, 553.215 277.498, 561.516 277.061 C 579.017 276.140, 584.191 274.473, 589.763 267.964 C 592.777 264.442, 596.879 261.937, 603.464 259.596 C 604.545 259.212, 612.645 258.260, 621.464 257.479 C 642.178 255.647, 646.158 254.439, 652.412 248.090 C 659.708 240.682, 663.850 239.298, 684.033 237.526 C 705.789 235.615, 710.958 234.091, 715.281 228.310 C 720.479 221.359, 726.310 219.066, 741.624 217.951 C 766.425 216.147, 770.939 214.884, 776.713 208.137 C 783.165 200.598, 786.981 199.213, 806.102 197.470 C 827.572 195.513, 832.128 194.180, 838.500 187.993 C 844.522 182.146, 848.724 180.428, 860.293 179.084 C 869.433 178.022, 873.714 176.266, 876.018 172.634 C 877.117 170.900, 877.320 161.502, 877.098 122.532 C 876.810 71.890, 876.589 69.465, 872.164 68.348 C 871.249 68.117, 706.475 67.786, 506 67.613 C 305.525 67.440, 139.925 67.029, 138 66.699 C 136.075 66.369, 133.113 66.520, 131.419 67.035 M 861.500 204.491 C 859.300 205.276, 856.600 207.050, 855.500 208.433 C 854.400 209.816, 852.441 212.323, 851.147 214.006 C 846.620 219.891, 839.881 221.960, 818.500 224.026 C 803.722 225.454, 797.199 227.372, 792.402 231.697 C 783.435 239.784, 776.510 242.427, 761.500 243.493 C 740.320 244.997, 732.788 247.100, 729.089 252.544 C 724.189 259.757, 717.043 262.455, 700 263.530 C 687 264.349, 675.503 266.441, 672.236 268.581 C 670.875 269.473, 668.395 271.759, 666.725 273.660 C 660.732 280.487, 654.921 282.298, 632.141 284.444 C 611.655 286.374, 608.751 287.221, 604.281 292.568 C 597.599 300.562, 592.187 302.397, 570.500 304.022 C 550.395 305.528, 546.534 306.671, 541.597 312.578 C 539.096 315.569, 535.789 318.088, 532.382 319.594 C 527.308 321.839, 523.344 322.493, 499.662 324.999 C 488.504 326.179, 485.774 327.297, 480.895 332.685 C 473.473 340.883, 467.207 342.826, 444.800 343.879 C 425.619 344.781, 422.463 345.827, 418.496 352.597 C 414.408 359.573, 407.473 362.134, 389 363.489 C 377.807 364.309, 368.211 365.769, 364.500 367.216 C 362.850 367.859, 359.102 370.500, 356.172 373.084 C 350.756 377.861, 349.022 378.562, 335.087 381.612 C 326.575 383.475, 323 386.221, 323 390.898 C 323 394.380, 325.523 396.522, 331.500 398.116 C 337.898 399.823, 341.702 402.735, 344.955 408.421 C 347.712 413.240, 348.568 413.936, 354.246 415.971 C 360.182 418.100, 368 424.063, 368 426.463 C 368 429.398, 376.271 435.479, 383 437.491 C 391.104 439.915, 396.114 443.274, 399.485 448.544 C 402.995 454.031, 407.376 457.082, 413.708 458.448 C 417.015 459.162, 423 464.965, 423 467.458 C 423 470.334, 428.121 474.879, 433.280 476.583 C 440.791 479.064, 442.390 480.378, 445.895 486.955 C 448.911 492.614, 449.305 492.940, 456.265 495.549 C 466.699 499.460, 473.381 503.484, 476.544 507.760 C 480.473 513.070, 482.581 514.676, 490.500 518.392 C 496.994 521.439, 497.754 522.138, 501.006 528.057 C 504.133 533.748, 505.052 534.640, 509.506 536.310 C 518.790 539.792, 521.425 541.594, 524 546.225 C 527.735 552.943, 528.521 553.611, 535.635 556.123 C 542.266 558.464, 544.698 560.574, 549.321 568 C 551.030 570.745, 553.981 572.733, 563 577.215 C 572.254 581.814, 574.977 583.670, 576.943 586.715 C 581.349 593.543, 584.269 596.022, 589.791 597.628 C 596.194 599.489, 601.460 603.834, 603.011 608.534 C 604.452 612.898, 607.942 615.637, 614.492 617.541 C 620.193 619.198, 623.696 622.336, 626.831 628.595 C 628.681 632.288, 629.651 632.976, 636.691 635.590 C 643.368 638.069, 645.515 639.506, 651.500 645.500 C 659.678 653.690, 662.079 655.367, 668.072 657.074 C 674.370 658.867, 678.644 662.363, 681.550 668.098 C 684.169 673.266, 688.171 676.453, 693.460 677.582 C 698.861 678.735, 702.076 681.378, 705.202 687.236 C 708.164 692.784, 708.511 693.063, 715.803 695.736 C 722.699 698.265, 723.834 699.096, 729.128 705.500 C 733.663 710.987, 736.147 713.040, 740.619 715 C 754.873 721.246, 756.299 722.233, 759.773 728.253 C 763.076 733.978, 766.861 736.844, 773.088 738.336 C 777.211 739.325, 781.047 742.944, 783.136 747.817 C 785.491 753.312, 786.798 754.358, 794.608 757.001 C 801.578 759.360, 804.049 761.595, 806.958 768.172 C 808.875 772.505, 809.537 773.036, 816.757 776.036 C 825.820 779.801, 831.335 783.608, 835.500 788.976 C 837.250 791.231, 840.792 793.944, 844 795.484 C 847.025 796.937, 851.075 798.885, 853 799.813 C 855.698 801.114, 857.259 803.050, 859.813 808.268 C 864.623 818.094, 868.963 820.104, 874.913 815.263 L 877.079 813.500 877.048 512 C 877.031 346.175, 877.013 209.968, 877.009 209.318 C 876.996 207.646, 872.056 204.358, 868.500 203.657 C 866.850 203.331, 863.700 203.707, 861.500 204.491 M 287.455 405.455 C 282.802 410.107, 285.186 415.643, 292 416.013 C 300.261 416.461, 302.009 416.074, 303.163 413.541 C 304.634 410.314, 302.179 406.391, 297.454 404.416 C 292.634 402.403, 290.260 402.649, 287.455 405.455 M 185.221 425.062 C 180.339 426.024, 176.111 428.765, 171.312 434.077 C 165.634 440.361, 159.608 442.301, 143.766 442.943 L 130.032 443.500 126.766 446.774 L 123.500 450.047 123.785 459.274 C 123.941 464.348, 124.166 550.175, 124.285 650 C 124.498 829.494, 124.522 831.533, 126.495 834.500 C 128.480 837.486, 131.797 840.594, 135.030 842.500 C 135.963 843.050, 139.207 846.425, 142.238 850 C 145.270 853.575, 149.817 858.036, 152.344 859.913 C 154.871 861.790, 158.804 865.985, 161.083 869.234 C 163.363 872.484, 167.858 877.057, 171.073 879.396 C 174.570 881.940, 178.564 886.115, 181.016 889.786 C 183.515 893.528, 187.336 897.498, 190.807 899.959 C 193.938 902.180, 198.757 906.792, 201.516 910.209 C 204.275 913.627, 208.550 917.924, 211.016 919.759 C 213.482 921.594, 217.487 924.928, 219.915 927.168 C 226.991 933.693, 229.486 934.349, 244.500 933.623 C 256.502 933.044, 322.762 932.951, 653.336 933.052 L 775.172 933.089 779.336 930.635 C 783.442 928.216, 791.580 921.358, 797.297 915.500 C 805.251 907.350, 810.589 895.988, 808.832 890.947 C 807.860 888.161, 803.717 885.863, 794.500 883 C 787.835 880.930, 784.060 878.052, 781.572 873.146 C 778.561 867.208, 776.753 865.631, 770 863.053 C 762.931 860.355, 760.788 858.489, 757.652 852.300 C 755.306 847.670, 754.528 847.025, 748.296 844.543 C 740.119 841.285, 738.032 839.474, 735.001 833.003 C 732.785 828.271, 732.336 827.921, 724.763 825.030 C 716.426 821.846, 709.839 817.159, 706.500 812.033 C 704.109 808.362, 698.982 804.799, 693.500 802.999 C 687.275 800.954, 683.520 798.025, 680.707 793.020 C 677.216 786.810, 675.129 785.117, 668.961 783.490 C 662.838 781.875, 658.937 778.514, 657.081 773.258 C 655.149 767.786, 653.482 766.323, 646.544 764.015 C 640.037 761.849, 636.488 758.901, 633.284 753 C 631.350 749.439, 630.240 748.746, 614.661 741.380 C 608.237 738.343, 606.120 736.723, 602.932 732.409 C 598.394 726.266, 595.902 724.330, 590.737 722.933 C 585.770 721.590, 580.586 716.921, 578.627 712.026 C 576.814 707.494, 574.614 705.840, 567.239 703.460 C 561.721 701.680, 557.733 697.971, 555.431 692.480 C 553.748 688.463, 551.599 686.756, 544.888 684.100 C 539.314 681.895, 535.384 678.516, 531.064 672.213 C 529.464 669.879, 525.865 667.477, 518.655 663.930 C 508.859 659.112, 506.917 657.538, 499.651 648.530 C 497.555 645.933, 495.313 644.565, 491.176 643.363 C 483.671 641.181, 480.538 638.679, 478.040 632.872 C 475.882 627.855, 473.907 626.338, 466.500 624.011 C 461.181 622.339, 458.467 619.699, 455.576 613.386 C 453.019 607.800, 451.264 606.501, 442.336 603.584 C 438.200 602.232, 435.800 600.430, 430.290 594.534 C 423.530 587.302, 420.936 585.654, 409.500 581.330 C 405.475 579.808, 403.889 578.470, 401.365 574.470 C 396.864 567.335, 394.298 565.143, 388.461 563.446 C 382.635 561.752, 379.932 559.295, 377.558 553.537 C 375.188 547.789, 373.497 546.328, 366.526 544.009 C 359.899 541.803, 357.858 540.097, 353.556 533.162 C 351.329 529.573, 349.537 528.224, 343.182 525.347 C 332.958 520.718, 328.629 517.625, 324.498 511.997 C 322.431 509.181, 319.346 506.501, 316.778 505.291 C 302.345 498.489, 302.656 498.712, 300.026 493.292 C 297.984 489.082, 296.553 487.598, 292.554 485.542 C 289.833 484.144, 286.978 483, 286.208 483 C 283.361 483, 278.935 478.719, 276.905 474.002 C 274.273 467.883, 272.968 466.762, 265.229 463.975 C 258.821 461.667, 255.239 458.506, 251.762 452.088 C 250.437 449.641, 248.186 448.063, 242.262 445.428 C 229.754 439.863, 227.716 438.534, 223.500 433.195 C 217.397 425.466, 213.617 423.977, 200.434 424.110 C 194.420 424.170, 187.574 424.599, 185.221 425.062 M 316.250 424.974 C 314.626 425.668, 314 426.775, 314 428.954 C 314 433.185, 320.117 437.179, 327.539 437.795 C 332.727 438.225, 333.002 438.125, 334.024 435.438 C 335.512 431.524, 334.917 429.006, 332 426.870 C 329.084 424.735, 319.509 423.582, 316.250 424.974 M 267.223 426.557 C 263.175 429.392, 264.997 434, 270.165 434 C 274.967 434, 276.240 428.269, 271.948 425.972 C 269.649 424.742, 269.848 424.717, 267.223 426.557 M 343 446 C 340.391 448.609, 340.470 451.278, 343.250 454.478 C 348.286 460.274, 358 458.345, 358 451.550 C 358 444.951, 347.816 441.184, 343 446 M 287.384 448.442 C 286.152 451.652, 287.438 453.500, 290.905 453.500 C 294.981 453.500, 297.087 451.014, 295.070 448.584 C 293.425 446.602, 288.127 446.504, 287.384 448.442 M 366.528 465.381 C 363.459 468.450, 363.374 469.935, 366.073 473.365 C 369.891 478.220, 381 476.354, 381 470.858 C 381 468.587, 375.887 464.292, 372.278 463.532 C 369.637 462.976, 368.600 463.309, 366.528 465.381 M 390.108 486.798 C 387.876 490.968, 390.357 493.025, 400.149 495.125 C 405.875 496.353, 409.289 495.016, 408.811 491.733 C 408.378 488.764, 403.089 485.968, 396.645 485.303 C 391.864 484.809, 391.076 484.990, 390.108 486.798 M 348.095 486.940 C 342.241 488.413, 343.365 494, 349.515 494 C 353.002 494, 354.487 492.111, 353.485 488.952 C 352.787 486.752, 351.199 486.160, 348.095 486.940 M 366.960 506.831 C 361.991 510.855, 368.076 518.146, 373.459 514.619 C 376.651 512.527, 376.804 508.676, 373.777 506.557 C 370.909 504.548, 369.721 504.595, 366.960 506.831 M 422.223 506.557 C 419.154 508.706, 419.442 511.353, 423.077 514.411 C 427.047 517.752, 432.243 517.919, 434.443 514.777 C 436.579 511.728, 436.406 510.315, 433.545 507.455 C 430.675 504.584, 425.612 504.183, 422.223 506.557 M 447 523.694 C 442.785 525.200, 441.645 531.645, 445 535 C 447.295 537.295, 455.775 537.825, 457.800 535.800 C 459.249 534.351, 459.370 529.560, 458.021 527.039 C 456.518 524.230, 450.560 522.422, 447 523.694 M 389.685 529.378 C 389.096 530.913, 390.762 533, 392.578 533 C 394.658 533, 396.097 530.497, 394.776 529.176 C 393.178 527.578, 390.332 527.691, 389.685 529.378 M 467.035 544.934 C 463.791 550.996, 467.423 556, 475.066 556 C 481.257 556, 484 554.661, 484 551.639 C 484 545.493, 469.750 539.861, 467.035 544.934 M 446 566.288 C 440.560 569.026, 443.480 576, 450.068 576 C 455.411 576, 457.968 569.492, 453.777 566.557 C 451.101 564.682, 449.313 564.620, 446 566.288 M 498.571 566.571 C 496.496 568.647, 496.581 571.311, 498.787 573.307 C 501.662 575.909, 507.818 578.084, 510.443 577.425 C 515.105 576.255, 515.572 568.447, 511.122 566.065 C 508.085 564.440, 500.393 564.750, 498.571 566.571 M 526.500 583.744 C 519.611 585.336, 519.112 593.336, 525.684 596.837 C 528.391 598.278, 533.493 598.341, 536.066 596.965 C 539.019 595.384, 538.800 587.546, 535.750 585.642 C 532.982 583.915, 529.158 583.130, 526.500 583.744 M 466.381 587.541 C 465.056 589.564, 464.942 590.577, 465.824 592.513 C 468.167 597.655, 477.155 596.381, 477.807 590.815 C 478.447 585.351, 469.496 582.786, 466.381 587.541 M 545.571 604.571 C 543.201 606.942, 543.587 612.263, 546.314 614.826 C 548.857 617.214, 555.605 617.817, 559.066 615.965 C 562.258 614.256, 561.649 608.724, 557.923 605.589 C 554.341 602.575, 548.083 602.059, 545.571 604.571 M 493 610 C 493 610.550, 493.675 611, 494.500 611 C 495.325 611, 496 610.550, 496 610 C 496 609.450, 495.325 609, 494.500 609 C 493.675 609, 493 609.450, 493 610 M 571.250 625.504 C 569.946 626.437, 569 628.164, 569 629.613 C 569 635.473, 589.333 639.787, 591.412 634.368 C 592.556 631.386, 590.885 628.880, 586.501 627.001 C 579.889 624.166, 573.936 623.582, 571.250 625.504 M 524.836 627.134 C 521.448 628.374, 520.505 630.796, 522.536 633.039 C 524.467 635.173, 527.941 635.936, 530.841 634.863 C 534.126 633.648, 533.850 628.274, 530.435 626.975 C 529.024 626.439, 527.787 626.036, 527.685 626.079 C 527.583 626.122, 526.301 626.597, 524.836 627.134 M 601.166 645.596 C 597.719 648.011, 598.536 652.789, 602.898 655.718 C 610.716 660.968, 619.362 656.278, 615.894 648.668 C 613.833 644.142, 605.672 642.440, 601.166 645.596 M 544.557 647.223 C 543.701 648.445, 543 650.040, 543 650.768 C 543 652.961, 547.744 657, 550.320 657 C 553.445 657, 558 653.398, 558 650.927 C 558 645.427, 547.786 642.612, 544.557 647.223 M 626 664.239 C 624.049 665.259, 623.433 666.455, 623.197 669.680 C 622.814 674.911, 625.368 677, 632.151 677 C 637.593 677, 640 675.191, 640 671.103 C 640 665.508, 631.521 661.350, 626 664.239 M 567.664 665.479 C 565.573 667.570, 565.507 672.346, 567.546 674.038 C 569.409 675.585, 575.691 675.501, 577.616 673.904 C 578.377 673.272, 579 671.755, 579 670.533 C 579 665.866, 570.892 662.251, 567.664 665.479 M 648.200 684.200 C 647.540 684.860, 647 687.133, 647 689.251 C 647 692.700, 647.362 693.253, 650.468 694.551 C 654.670 696.307, 663.146 696.454, 664.800 694.800 C 666.558 693.042, 666.264 689.549, 664.200 687.681 C 662.066 685.750, 654.650 683, 651.574 683 C 650.378 683, 648.860 683.540, 648.200 684.200 M 600.250 688.641 C 598.492 689.380, 598.694 691.669, 600.582 692.393 C 604.643 693.952, 609.618 692.184, 607.363 689.984 C 606.182 688.831, 601.777 688, 600.250 688.641 M 678.750 706.022 C 673.306 709.373, 680.976 718, 689.399 718 C 693.225 718, 695.026 716, 694.968 711.816 C 694.908 707.469, 692.490 705.657, 686.254 705.287 C 683.089 705.099, 679.712 705.430, 678.750 706.022 M 623.571 707.571 C 620.978 710.165, 621.734 712.771, 625.684 714.850 C 630.659 717.469, 635 715.674, 635 711 C 635 709.570, 634.460 707.860, 633.800 707.200 C 632.078 705.478, 625.424 705.719, 623.571 707.571 M 649 724.784 C 641.122 727.287, 643.435 736, 651.977 736 C 657.006 736, 659.638 732.809, 658.051 728.635 C 657.500 727.186, 656.923 726, 656.768 726 C 656.613 726, 655.140 725.619, 653.493 725.154 C 651.847 724.689, 649.825 724.522, 649 724.784 M 705 724.729 C 701.095 726.216, 700.888 731.980, 704.635 734.927 C 707.989 737.566, 714.063 737.693, 716.345 735.171 C 721.529 729.443, 713.070 721.657, 705 724.729 M 726.674 744.469 C 724.437 746.706, 724.524 752.259, 726.829 754.345 C 729.465 756.731, 737.180 756.564, 739.435 754.072 C 740.478 752.920, 740.936 751.373, 740.573 750.230 C 738.864 744.845, 729.980 741.163, 726.674 744.469 M 668.667 745.667 C 667.310 747.023, 667.992 752.783, 669.582 753.393 C 673.939 755.065, 681 753.299, 681 750.537 C 681 747.059, 671.160 743.173, 668.667 745.667 M 751.427 765.698 C 747.224 768.840, 750.132 773.071, 758.126 775.445 C 764.826 777.434, 768.443 777.414, 770.482 775.375 C 774.769 771.088, 768.847 766.038, 758.704 765.329 C 755.292 765.091, 752.017 765.257, 751.427 765.698 M 700.750 767.392 C 698.363 769.204, 698.553 771.232, 701.357 773.865 C 704.698 777.004, 710.883 777.880, 712.650 775.464 C 714.654 772.724, 714.344 768.254, 712.066 767.035 C 709.371 765.593, 702.849 765.798, 700.750 767.392 M 725.986 785.313 C 722.497 787.043, 722.031 792.208, 725.166 794.404 C 729.955 797.758, 737 795.803, 737 791.120 C 737 786.210, 730.785 782.934, 725.986 785.313 M 781.655 786.829 C 777.920 790.956, 781.671 796.762, 788.652 797.658 C 795.463 798.533, 799.057 792.885, 794.984 787.707 C 793.201 785.440, 792.079 785, 788.082 785 C 784.729 785, 782.818 785.544, 781.655 786.829 M 747.250 804.495 C 744.273 806.636, 744.197 811.963, 747.105 814.595 C 750.281 817.469, 757.600 817.212, 760.088 814.139 C 762.572 811.072, 762.517 810.606, 759.250 806.981 C 755.872 803.234, 750.540 802.129, 747.250 804.495 M 807 803.671 C 802.392 805.389, 801.619 811.768, 805.635 814.927 C 808.806 817.422, 815.165 817.692, 817.429 815.429 C 819.699 813.158, 819.389 808.440, 816.811 806.039 C 815.608 804.918, 814.145 803.994, 813.561 803.986 C 812.978 803.979, 811.600 803.779, 810.500 803.542 C 809.400 803.305, 807.825 803.363, 807 803.671 M 828.223 824.557 C 825.638 826.367, 825.320 830.517, 827.541 833.453 C 829.624 836.208, 840.879 836.979, 843.323 834.534 C 844.245 833.612, 845 832.474, 845 832.005 C 845 829.903, 839.760 825.245, 836.193 824.176 C 831.186 822.676, 830.887 822.690, 828.223 824.557 M 774.750 826.777 C 772.834 827.182, 772.296 831.447, 774.026 832.516 C 774.590 832.865, 777.505 833.403, 780.504 833.713 C 785.059 834.183, 786.065 833.993, 786.615 832.560 C 786.985 831.596, 786.666 830.280, 785.887 829.556 C 784.225 828.010, 777.203 826.258, 774.750 826.777 M 801.750 846.080 C 799.037 847.660, 799.519 852.477, 802.635 854.927 C 806.195 857.728, 813.496 857.810, 814.965 855.066 C 817.830 849.711, 814.431 844.983, 807.750 845.030 C 805.413 845.047, 802.712 845.519, 801.750 846.080 M 825.845 864.130 C 822.699 865.283, 821.571 868.740, 823.061 872.660 C 824.383 876.139, 825.645 876.965, 829.661 876.985 C 831.974 876.996, 833.517 876.175, 835.411 873.923 C 836.835 872.231, 838 870.401, 838 869.858 C 838 867.568, 835.834 865.138, 832.872 864.105 C 829.239 862.839, 829.372 862.838, 825.845 864.130" stroke="none" fill="#444" fill-rule="evenodd"/></svg>