<svg xmlns="http://www.w3.org/2000/svg" width="800" height="800" viewBox="0 0 800 800" version="1.1"><path d="M 101.820 48.192 C 99.742 49.122, 97.134 51.372, 96.024 53.192 C 94.014 56.490, 94.007 57.416, 94.004 359.685 C 94 626.483, 94.182 663.732, 95.513 670.060 C 97.652 680.231, 99.564 683.653, 105.244 687.478 C 107.965 689.311, 111.737 693.106, 113.627 695.912 C 115.517 698.719, 118.787 702.103, 120.894 703.433 C 123.001 704.763, 125.799 707.287, 127.112 709.043 C 129.445 712.160, 132.904 715.763, 140.663 723.156 C 142.773 725.167, 146.360 728.767, 148.633 731.156 C 150.907 733.545, 154.507 737.138, 156.633 739.140 C 158.760 741.142, 162.075 744.575, 164 746.767 C 167.029 750.217, 168.489 750.977, 174.851 752.412 C 182.801 754.205, 162.673 754.130, 509 753.662 L 628.500 753.500 633 751.248 C 635.522 749.985, 638.749 747.222, 640.341 744.961 C 641.903 742.743, 645.568 739.126, 648.484 736.924 C 651.401 734.722, 654.959 731.150, 656.391 728.986 C 657.823 726.821, 661.359 723.186, 664.247 720.906 C 667.136 718.627, 670.886 714.819, 672.579 712.445 C 674.273 710.070, 677.987 706.288, 680.832 704.039 C 683.677 701.790, 687.190 698.159, 688.638 695.972 C 690.085 693.784, 693.440 690.434, 696.093 688.529 C 698.745 686.623, 701.637 683.669, 702.519 681.963 C 707.139 673.029, 707 683.015, 706.996 360.162 C 706.993 60.750, 706.965 56.455, 705.040 53.299 C 700.832 46.397, 728.356 46.992, 401.317 46.733 C 125.407 46.516, 105.346 46.613, 101.820 48.192 M 102.785 53.571 C 97.937 56.171, 97.766 58.661, 98.274 118.967 C 98.680 167.144, 98.963 175.195, 100.408 179.743 C 102.268 185.600, 104.494 187.279, 112 188.488 C 114.475 188.887, 118.188 190.148, 120.250 191.291 L 124 193.368 128.250 190.934 L 132.500 188.500 407.786 188.243 C 651.442 188.015, 683.407 188.159, 685.986 189.493 C 690.305 191.726, 694.496 191.422, 696.231 188.750 C 697.034 187.513, 698.696 183.468, 699.923 179.762 C 702.124 173.118, 702.156 172.245, 702.165 117.762 C 702.170 87.368, 702.135 61.242, 702.087 59.705 C 702.039 58.157, 700.898 55.807, 699.530 54.440 L 697.061 51.970 401.280 52.043 C 144.352 52.106, 105.143 52.307, 102.785 53.571 M 687.500 204.317 C 685.273 205.167, 613.810 205.467, 410.164 205.481 L 135.828 205.500 133.414 208.306 C 130.527 211.661, 130.225 216.887, 132.750 219.791 C 133.713 220.898, 136.755 222.523, 139.511 223.403 C 144.629 225.036, 148.739 228.146, 151.650 232.589 C 152.608 234.050, 157.140 236.919, 162.616 239.530 C 170.731 243.399, 172.218 244.507, 174.015 248.029 C 176.264 252.437, 180.409 255.479, 185.458 256.426 C 189.059 257.102, 192.315 260.126, 194.824 265.127 C 196.084 267.637, 197.736 268.922, 201.478 270.301 C 207.814 272.634, 208.919 273.584, 211.151 278.618 C 213.411 283.715, 214.154 284.308, 221 286.481 C 225.404 287.879, 227.716 289.510, 232.601 294.666 C 237.441 299.775, 240.128 301.681, 245.601 303.890 C 250.749 305.968, 253.062 307.541, 254.713 310.087 C 259.371 317.269, 260.180 318.016, 264.460 319.094 C 269.812 320.442, 272.320 322.674, 274.812 328.308 C 276.528 332.188, 277.360 332.863, 282.917 334.889 C 288.092 336.776, 289.698 337.967, 292.695 342.139 C 295.734 346.368, 297.711 347.812, 305.647 351.596 C 313.183 355.188, 315.492 356.820, 317.465 359.945 C 320.385 364.569, 323.204 366.699, 328.193 368.048 C 331.817 369.028, 333.924 371.085, 338.306 377.923 C 339.569 379.894, 341.773 381.716, 343.500 382.220 C 350.239 384.182, 352.953 386.256, 355.154 391.127 C 357.183 395.617, 357.809 396.134, 364.126 398.548 C 369.422 400.572, 372.176 402.445, 376.640 407.060 C 380.854 411.416, 383.929 413.575, 388.292 415.239 C 394.129 417.465, 395.930 419.074, 400.342 426 C 402.017 428.629, 403.988 430.004, 408.263 431.527 C 414.900 433.891, 415.748 434.615, 418.466 440.244 C 420.244 443.926, 421.290 444.754, 426.777 446.826 C 430.230 448.129, 433.734 450.164, 434.564 451.348 C 435.394 452.532, 437.069 455.008, 438.287 456.852 C 439.929 459.339, 442.416 460.996, 447.922 463.270 C 453.509 465.578, 456.724 467.738, 460.927 472.006 C 464.931 476.073, 467.960 478.158, 471.637 479.379 C 477.385 481.288, 478.969 482.730, 481.651 488.493 C 483.190 491.799, 484.453 492.862, 488.996 494.673 C 494.578 496.898, 497.147 499.236, 500.213 504.881 C 501.156 506.615, 502.731 508.308, 503.713 508.642 C 511.629 511.330, 515.978 514.108, 518.882 518.329 C 521.354 521.922, 523.746 523.750, 530.204 526.982 C 539.799 531.785, 540.566 532.360, 543.456 536.926 C 545.093 539.513, 547.271 541.034, 552.073 542.944 C 558.072 545.330, 558.693 545.881, 561.401 551.220 C 563.972 556.290, 564.828 557.114, 568.946 558.482 C 575.273 560.583, 577.675 562.443, 580.031 567.061 C 581.695 570.323, 583.339 571.609, 589.716 574.634 C 594.982 577.134, 598.987 579.948, 602.458 583.590 C 605.473 586.753, 609.538 589.755, 612.510 591.015 C 621.218 594.705, 621.938 595.239, 624.040 599.583 C 626.363 604.382, 627.431 605.442, 631 606.489 C 637.636 608.436, 639.863 610.204, 642.383 615.527 C 644.652 620.320, 645.393 621.027, 649.214 622.043 C 655.433 623.697, 659.396 626.448, 661.580 630.627 C 663.165 633.659, 664.984 634.989, 672 638.239 C 681.708 642.737, 684.640 645.083, 685.510 649.047 C 687.102 656.293, 694.357 659.177, 699.616 654.654 L 702.343 652.309 702.150 432.563 C 701.937 190.079, 702.475 209.090, 695.701 204.960 C 692.089 202.757, 691.672 202.724, 687.500 204.317 M 101.993 215.508 C 100.370 217.464, 101.288 223.178, 103.800 226.760 C 104.857 228.267, 106.275 231.203, 106.950 233.285 C 108.600 238.370, 111.193 239.794, 119.500 240.177 L 126.500 240.500 126.808 235.663 C 127.235 228.973, 125.385 226.435, 119.431 225.542 C 114.452 224.795, 111.713 222.644, 108.797 217.187 C 106.950 213.733, 104.058 213.020, 101.993 215.508 M 128.667 241.667 C 127.486 242.848, 127.958 250.560, 129.326 252.431 C 130.968 254.677, 140.101 256.292, 143.613 254.957 C 145.840 254.110, 146.024 253.631, 145.415 250.257 C 144.393 244.596, 143.332 243.186, 139.238 242.049 C 134.989 240.869, 129.657 240.676, 128.667 241.667 M 146.209 261.512 C 146.749 268.019, 149.148 270.996, 153.861 271.006 C 155.312 271.009, 158.159 271.472, 160.188 272.035 C 163.520 272.961, 164.023 273.567, 165.408 278.330 C 167.204 284.510, 169.211 285.798, 181.194 288.464 L 188.796 290.155 189.453 294.535 C 190.525 301.681, 192.663 303.470, 200.150 303.486 L 206.500 303.500 206.800 298.306 C 207.061 293.800, 206.796 292.918, 204.800 291.651 C 203.535 290.847, 199.730 289.882, 196.344 289.507 C 189.782 288.780, 189.046 288.021, 189.014 281.941 C 188.992 277.816, 186.880 276.028, 180.190 274.467 C 171.011 272.326, 168.336 270.618, 165.760 265.252 C 163.010 259.526, 159.083 257.070, 151.405 256.278 L 145.727 255.692 146.209 261.512 M 114.836 261.134 C 109.214 263.193, 110.675 268, 116.922 268 C 122.997 268, 125.539 262.916, 120.435 260.975 C 119.024 260.439, 117.787 260.036, 117.685 260.079 C 117.583 260.122, 116.301 260.597, 114.836 261.134 M 133.338 276.008 C 128.871 277.790, 129.626 284.366, 134.436 285.573 C 138.906 286.695, 141.697 283.915, 141.035 279 C 140.642 276.086, 136.844 274.609, 133.338 276.008 M 103.690 284.154 C 102.760 284.674, 101.250 286.540, 100.334 288.300 C 98.795 291.256, 98.681 305.663, 98.846 477.500 C 98.944 579.800, 99.019 664.337, 99.012 665.361 C 98.999 667.324, 104.023 672.769, 126 694.610 C 133.425 701.989, 139.820 708.358, 140.212 708.763 C 151.155 720.091, 170.034 738.655, 174.261 742.246 C 182.060 748.870, 183.592 749.299, 197 748.612 C 210.217 747.936, 378.393 747.778, 520.500 748.309 C 599.680 748.605, 618.119 748.427, 620.869 747.337 C 622.721 746.603, 628.738 742.106, 634.239 737.342 C 645.248 727.809, 647.942 723.590, 647.978 715.823 C 648.005 710.094, 645.918 708.134, 636.426 704.975 C 632.752 703.753, 629.306 701.890, 628.444 700.662 C 627.609 699.473, 625.931 696.960, 624.713 695.078 C 623.108 692.596, 620.762 690.949, 616.171 689.078 C 610.573 686.798, 609.534 685.926, 607.171 681.526 C 604.908 677.313, 603.739 676.271, 599.522 674.709 C 593.028 672.305, 592.220 671.554, 589.501 665.407 C 587.288 660.402, 586.991 660.160, 580.357 657.954 C 574.636 656.052, 572.566 654.696, 567.860 649.768 C 563.540 645.245, 560.614 643.214, 555.360 641.091 C 549.126 638.572, 548.226 637.834, 545.500 632.999 C 542.841 628.283, 541.889 627.471, 537.124 625.857 C 530.387 623.575, 529.131 622.529, 526.792 617.252 C 524.984 613.176, 520.971 610, 517.626 610 C 515.313 610, 510.102 605.121, 507.986 600.973 C 506.332 597.730, 505.034 596.807, 498.780 594.426 C 492.789 592.144, 490.433 590.536, 485.476 585.343 C 481.204 580.868, 478.095 578.570, 474.790 577.444 C 470.052 575.830, 465 571.729, 465 569.498 C 465 566.868, 460.896 563.211, 456.776 562.172 C 451.060 560.729, 449.336 559.317, 446.174 553.484 C 443.915 549.318, 442.724 548.266, 438.500 546.707 C 432.549 544.510, 429.251 541.695, 427.324 537.170 C 426.130 534.365, 424.420 533.151, 416.469 529.460 C 408.039 525.548, 406.710 524.559, 404.033 520.209 C 401.336 515.824, 397.739 513, 394.854 513 C 391.399 513, 386.704 509.349, 384.457 504.915 C 382.265 500.590, 381.468 499.935, 376.496 498.367 C 370.360 496.433, 368.441 494.741, 365.500 488.672 C 363.763 485.086, 362.673 484.232, 357.204 482.167 C 351.944 480.181, 350.269 478.926, 347.030 474.541 C 343.221 469.384, 339.783 467.152, 330.635 463.892 C 327.005 462.599, 325.053 460.764, 320.690 454.545 C 319.695 453.127, 316.065 450.689, 312.624 449.129 C 307.490 446.801, 306.041 445.592, 304.555 442.396 C 301.946 436.782, 300.439 435.383, 295.520 434.006 C 290.347 432.557, 287.301 429.964, 285.385 425.378 C 283.831 421.660, 281.400 419.827, 275.567 417.974 C 272.947 417.141, 269.276 414.327, 264.567 409.541 C 258.713 403.590, 256.515 402.053, 251.764 400.590 C 245.951 398.799, 243.227 396.424, 239.834 390.191 C 238.639 387.996, 236.943 386.775, 233.834 385.872 C 227.445 384.017, 225.150 382.219, 222.701 377.153 C 220.741 373.100, 219.795 372.322, 214.060 370.051 C 208.564 367.874, 207.239 366.840, 205.021 363 C 202.964 359.438, 200.972 357.737, 195.461 354.838 C 191.081 352.533, 186.613 349.109, 183.411 345.602 C 180.193 342.080, 176.515 339.265, 173.411 337.950 C 164.648 334.240, 163.845 333.627, 161.389 328.781 C 160.056 326.151, 158.855 324, 158.719 324 C 158.583 324, 156.058 323.118, 153.108 322.040 C 146.552 319.643, 144.461 317.831, 142.104 312.501 C 140.586 309.071, 139.459 308.072, 135.390 306.556 C 129.508 304.363, 126.450 301.757, 123.882 296.750 C 122.825 294.688, 121.568 293, 121.090 293 C 120.611 293, 117.583 291.063, 114.360 288.696 C 107.326 283.529, 105.895 282.920, 103.690 284.154 M 149.200 293.200 C 148.540 293.860, 148 295.345, 148 296.500 C 148 299.504, 149.902 301, 153.721 301 C 157.795 301, 159.935 297.616, 158.068 294.126 C 156.783 291.725, 151.253 291.147, 149.200 293.200 M 209.667 306.667 C 209.300 307.033, 209 309.214, 209 311.512 C 209 317.511, 211.054 319, 219.329 319 L 226 319 226 314.573 C 226 308.577, 222.853 306, 215.532 306 C 212.673 306, 210.033 306.300, 209.667 306.667 M 169 312.500 C 169 313.664, 169.727 314.042, 171.531 313.816 C 172.923 313.642, 174.062 313.050, 174.062 312.500 C 174.062 311.950, 172.923 311.358, 171.531 311.184 C 169.727 310.958, 169 311.336, 169 312.500 M 228.071 321.414 C 226.539 323.260, 227.405 331.285, 229.299 332.792 C 229.960 333.318, 233.374 334.243, 236.886 334.848 C 244.971 336.241, 247.659 338.020, 248.957 342.839 C 249.526 344.953, 250.864 347.472, 251.930 348.436 C 254.664 350.911, 260.760 352.905, 265.750 352.956 L 270 353 270 347.655 C 270 340.786, 268.416 339.334, 259.553 338.079 C 255.789 337.546, 252.229 336.629, 251.641 336.041 C 251.054 335.454, 249.882 333.067, 249.036 330.736 C 247.735 327.149, 246.658 326.086, 242 323.799 C 234.677 320.202, 229.774 319.363, 228.071 321.414 M 195.223 324.557 C 192.360 326.561, 192.360 330.439, 195.223 332.443 C 199.675 335.562, 205 333.414, 205 328.500 C 205 323.586, 199.675 321.438, 195.223 324.557 M 211.571 340.571 C 207.516 344.627, 211.264 350.342, 217.634 349.816 C 222.529 349.412, 224.339 345.692, 221.643 341.577 C 219.661 338.553, 214.141 338.001, 211.571 340.571 M 271.750 353.579 C 270.614 354.722, 270.853 360.582, 272.152 363.434 C 273.479 366.346, 275.450 367.157, 281.419 367.248 C 287.094 367.333, 288 366.602, 288 361.941 C 288 357.433, 285.307 354.006, 281.750 353.989 C 280.512 353.983, 277.925 353.718, 276 353.401 C 274.075 353.084, 272.163 353.164, 271.750 353.579 M 229.200 356.200 C 227.246 358.154, 227.717 363.778, 229.934 364.965 C 234.362 367.334, 241 364.656, 241 360.500 C 241 356.264, 232.305 353.095, 229.200 356.200 M 290.667 369.667 C 289.392 370.941, 289.980 379.837, 291.435 381.292 C 292.224 382.081, 295.588 383.034, 298.910 383.410 C 305.939 384.206, 307.492 385.422, 308.353 390.803 C 308.699 392.968, 309.643 395.289, 310.451 395.960 C 312.229 397.435, 325.416 400.959, 329.250 400.983 C 331.871 400.999, 332 400.775, 332 396.191 C 332 393.546, 331.438 390.664, 330.750 389.785 C 330.063 388.907, 325.450 386.976, 320.500 385.495 C 315.550 384.014, 311.010 382.402, 310.412 381.913 C 309.813 381.424, 308.776 379.197, 308.107 376.964 C 306.564 371.814, 302.269 369.009, 295.917 369.004 C 293.396 369.002, 291.033 369.300, 290.667 369.667 M 274.223 388.557 C 269.431 391.913, 273.132 398, 279.965 398 C 284.144 398, 286 396.197, 286 392.137 C 286 387.437, 278.902 385.279, 274.223 388.557 M 292.250 403.505 C 289.669 405.350, 289.259 409.604, 291.383 412.509 C 293.019 414.746, 298.988 415.085, 301.407 413.078 C 303.347 411.467, 303.508 405.666, 301.655 404.128 C 299.216 402.105, 294.633 401.801, 292.250 403.505 M 333 406.045 C 333 412.765, 339.029 416.808, 347.592 415.832 C 350.086 415.547, 350.546 415.018, 350.824 412.112 C 351.567 404.325, 348.699 402, 338.351 402 L 333 402 333 406.045 M 353.080 418.403 C 351.464 420.351, 352.186 427.615, 354.197 429.626 C 354.940 430.369, 357.787 431.236, 360.524 431.553 C 369.996 432.650, 369.700 432.445, 370.447 438.420 C 370.821 441.412, 371.742 444.371, 372.495 444.996 C 373.248 445.620, 376.922 446.565, 380.660 447.094 C 384.398 447.623, 387.916 448.514, 388.478 449.072 C 389.040 449.631, 390.175 452.195, 391 454.770 C 392.846 460.531, 397.296 463.363, 407.102 465.017 L 413.756 466.139 414.268 470.682 C 415.012 477.285, 417.274 479.089, 425.093 479.315 L 431.500 479.500 431.794 475 C 432.225 468.396, 430.637 466.840, 422.465 465.856 C 418.711 465.404, 415.277 464.464, 414.835 463.767 C 414.393 463.070, 414.024 460.913, 414.015 458.973 C 413.990 453.175, 411.943 451.340, 404.006 450.001 C 395.959 448.644, 393.869 447.234, 390.746 441.058 C 388.223 436.069, 384.220 433.541, 376.579 432.114 C 371.198 431.108, 370.038 429.926, 370.015 425.424 C 369.992 420.786, 366.196 417.764, 359.718 417.227 C 355.672 416.891, 354.105 417.169, 353.080 418.403 M 309.098 422.250 C 307.697 426.013, 309.272 428.462, 313.316 428.808 C 317.718 429.184, 321 427.573, 321 425.036 C 321 421.987, 318.197 420, 313.896 420 C 310.704 420, 309.773 420.436, 309.098 422.250 M 336.250 437.220 C 331.651 439.438, 334.778 444.603, 341.368 445.672 C 343.610 446.036, 345.556 445.783, 346.492 445.007 C 348.297 443.509, 348.480 438.880, 346.800 437.200 C 345.332 435.732, 339.312 435.744, 336.250 437.220 M 355.280 451.020 C 350.106 453.102, 351.992 461.148, 357.933 462.337 C 364.366 463.623, 367.910 459.910, 365.861 454.032 C 364.556 450.287, 360.190 449.044, 355.280 451.020 M 373.693 466.700 C 370.987 467.402, 369.715 471.634, 371.249 474.834 C 373.392 479.305, 382.259 479.721, 384.209 475.442 C 386.906 469.522, 381.178 464.760, 373.693 466.700 M 434.113 480.909 C 432.118 482.172, 433.156 491.910, 435.466 493.599 C 436.416 494.293, 440.062 495.169, 443.568 495.544 C 447.075 495.920, 450.348 496.738, 450.841 497.363 C 451.335 497.989, 452.063 500.300, 452.459 502.500 C 452.855 504.700, 453.600 507.009, 454.114 507.632 C 454.628 508.254, 459.536 509.817, 465.021 511.104 L 474.993 513.444 475.560 516.972 C 476.514 522.904, 477.852 525.040, 481.592 526.603 C 483.575 527.432, 487.265 527.968, 489.840 527.801 L 494.500 527.500 494.435 522.721 C 494.348 516.264, 492.709 514.864, 484.324 514.085 C 475.935 513.305, 475 512.751, 475 508.552 C 475 503.560, 472.419 501.292, 462.512 497.576 C 453.670 494.260, 453.507 494.139, 452.512 490.122 C 451.955 487.877, 450.555 485.098, 449.401 483.948 C 446.256 480.815, 437.126 479.001, 434.113 480.909 M 390.088 485.268 C 387.959 490.869, 390.673 493.356, 398.789 493.241 C 410.115 493.079, 407.654 484.346, 395.966 483.223 C 391.429 482.787, 390.971 482.946, 390.088 485.268 M 414.571 500.571 C 413.707 501.436, 413 503.031, 413 504.117 C 413 509.439, 424.045 514.079, 428.062 510.443 C 430.399 508.329, 430.567 504.255, 428.443 501.223 C 427.163 499.395, 425.932 499, 421.515 499 C 417.965 499, 415.610 499.533, 414.571 500.571 M 434.116 515.884 C 431.329 518.671, 431.441 521.532, 434.455 524.545 C 439.102 529.193, 448 527.218, 448 521.539 C 448 515.447, 438.445 511.555, 434.116 515.884 M 454.074 529.902 C 450.835 530.774, 449.422 535.037, 451.178 538.641 C 452.942 542.259, 457.131 543.577, 462.118 542.083 C 465.773 540.988, 466 540.689, 466 536.983 C 466 533.983, 465.465 532.712, 463.750 531.642 C 460.752 529.771, 457.041 529.104, 454.074 529.902 M 496.667 529.667 C 495.196 531.138, 495.998 539.688, 497.750 541.212 C 499.847 543.036, 507.057 544.275, 510.518 543.406 C 512.638 542.874, 513 542.206, 513 538.826 C 513 533.619, 511.724 531.448, 507.872 530.105 C 504.370 528.884, 497.710 528.624, 496.667 529.667 M 515 549.929 C 515 556.009, 516.506 557.677, 522.762 558.519 C 531.520 559.699, 532.366 560.226, 534.076 565.572 C 536.066 571.793, 539.650 574.341, 549.496 576.531 L 556.853 578.168 557.542 582.334 C 557.922 584.625, 558.613 587.226, 559.078 588.113 C 560.385 590.605, 565.210 592.153, 570.604 591.811 L 575.500 591.500 575.798 587.446 C 576.263 581.122, 573.577 578.450, 565.958 577.653 C 562.587 577.301, 559.431 576.766, 558.944 576.465 C 558.457 576.164, 557.763 573.694, 557.402 570.976 C 557.042 568.259, 556.151 565.540, 555.422 564.936 C 554.694 564.331, 550.588 562.972, 546.299 561.915 C 538.250 559.933, 534 556.893, 534 553.119 C 534 549.005, 526.815 545, 519.435 545 L 515 545 515 549.929 M 474.250 548 C 471.707 549.057, 471.171 553.067, 473.333 554.861 C 474.066 555.470, 477.621 556.742, 481.232 557.690 C 486.723 559.130, 488.061 559.194, 489.399 558.084 C 491.798 556.093, 491.432 551.320, 488.750 549.618 C 485.837 547.770, 477.140 546.799, 474.250 548 M 496.250 562.978 C 492.913 564.398, 493.117 570.160, 496.601 572.901 C 499.911 575.504, 505.179 576.510, 507.895 575.056 C 509.539 574.176, 510 572.979, 510 569.587 C 510 566.947, 509.412 564.757, 508.499 564 C 506.542 562.375, 499.120 561.756, 496.250 562.978 M 514.750 579.080 C 512.063 580.645, 512.373 587.447, 515.223 589.443 C 517.850 591.283, 526.083 591.517, 527.800 589.800 C 529.818 587.782, 529.189 583.098, 526.545 580.455 C 523.908 577.817, 518.084 577.138, 514.750 579.080 M 532.200 594.200 C 531.540 594.860, 531 597.040, 531 599.045 C 531 604.554, 533.252 606, 541.829 606 L 549 606 548.968 602.750 C 548.928 598.629, 547.239 596.416, 542.680 594.511 C 538.330 592.693, 533.840 592.560, 532.200 594.200 M 577 598.345 C 577 605.068, 578.643 606.705, 586.001 607.314 C 594.665 608.030, 596.372 606.234, 593.865 599.042 C 592.502 595.134, 588.146 593, 581.532 593 L 577 593 577 598.345 M 597.250 608.630 C 595.439 609.407, 595.633 618.491, 597.501 620.358 C 598.326 621.183, 601.375 622.351, 604.276 622.953 C 611.440 624.441, 615.519 627.136, 618.018 632.036 C 620.550 636.999, 626.201 639.945, 633.250 639.978 C 638.416 640.002, 638.510 639.866, 638.063 633 C 637.752 628.234, 636.408 627.148, 629.269 625.891 C 622.412 624.683, 620.882 623.382, 619.142 617.281 C 617.988 613.235, 617.677 612.980, 611.574 611.096 C 604.020 608.762, 598.969 607.893, 597.250 608.630 M 552.667 610.667 C 552.300 611.033, 552 612.568, 552 614.078 C 552 619.142, 562.009 624.696, 569.581 623.833 C 572.205 623.534, 572.530 623.095, 572.794 619.500 C 573.181 614.247, 571.376 611.993, 565.941 610.944 C 560.544 609.903, 553.576 609.757, 552.667 610.667 M 576.750 626.635 C 575.474 627.008, 575 628.192, 575 631.002 C 575 635.333, 576.825 637.710, 580.820 638.582 C 582.294 638.904, 584.066 639.342, 584.759 639.555 C 585.451 639.769, 587.138 639.518, 588.509 638.997 C 590.643 638.185, 591 637.419, 591 633.647 C 591 631.103, 590.412 628.757, 589.606 628.088 C 588.059 626.804, 579.484 625.835, 576.750 626.635 M 594.250 642.115 C 592.236 644.186, 592.711 650.711, 595.047 653.047 C 596.750 654.750, 598.134 655.043, 603.297 654.797 L 609.500 654.500 609.799 650.421 C 610.243 644.368, 607.758 641.806, 600.916 641.261 C 597.315 640.974, 595.081 641.260, 594.250 642.115 M 640.750 641.561 C 640.337 641.986, 640 644.439, 640 647.012 C 640 653.734, 642.258 655.500, 650.854 655.500 L 657.500 655.500 657.190 650.500 C 656.774 643.796, 654.830 641.973, 647.390 641.313 C 644.151 641.025, 641.163 641.137, 640.750 641.561 M 658 660.760 C 658 667.449, 659.982 669.717, 666.965 671.014 C 673.491 672.227, 674.064 672.720, 676 678.794 C 677.268 682.772, 677.936 683.550, 680.315 683.823 C 684.264 684.275, 688 681.584, 688 678.287 C 688 676.386, 686.600 674.312, 683.122 671.060 C 680.439 668.552, 677.484 665.002, 676.556 663.171 C 674.632 659.379, 670.777 657.437, 663.168 656.428 L 658 655.742 658 660.760 M 612 661.929 C 612 667.759, 613.533 669.692, 618.782 670.479 C 628.065 671.871, 630.360 673.199, 632.895 678.647 C 635.783 684.854, 640.481 687.884, 648.499 688.712 C 653.863 689.266, 653.972 689.341, 654.548 692.888 C 655.857 700.944, 656.238 702.057, 658.016 703.008 C 662.785 705.561, 670.181 701.719, 671.509 696 C 672.486 691.789, 670.243 690.106, 662.528 689.262 L 655.556 688.500 654.528 682.781 C 653.963 679.635, 653.015 676.585, 652.422 676.003 C 651.829 675.421, 648.454 674.490, 644.922 673.934 C 635.624 672.472, 635.242 672.272, 633.935 668.202 C 633.282 666.166, 632.017 663.654, 631.124 662.620 C 628.675 659.786, 621.385 657, 616.417 657 L 612 657 612 661.929" stroke="none" fill="#444" fill-rule="evenodd"/></svg>