<svg xmlns="http://www.w3.org/2000/svg" width="800" height="800" viewBox="0 0 800 800" version="1.1"><path d="M 103.058 47.617 C 99.568 49.085, 95.002 54.582, 94.993 57.327 C 94.990 58.522, 94.987 196.075, 94.986 363 C 94.986 657.955, 95.039 666.686, 96.882 673.108 C 99.447 682.050, 100.453 683.679, 104.783 685.899 C 109.047 688.086, 111.681 690.772, 115.323 696.646 C 116.789 699.010, 119.731 701.805, 122.169 703.150 C 124.853 704.630, 127.802 707.555, 130.089 711.004 C 132.301 714.340, 135.456 717.506, 138.117 719.060 C 140.756 720.601, 143.939 723.785, 146.117 727.060 C 148.294 730.335, 151.477 733.519, 154.117 735.060 C 156.715 736.578, 159.933 739.774, 162.019 742.911 C 166.048 748.968, 168.355 750.415, 177.274 752.484 C 182.810 753.768, 213.208 753.991, 403.584 754.145 C 524.538 754.242, 625.417 754.271, 627.759 754.207 C 634.606 754.022, 646.913 747.079, 651.656 740.727 C 653.770 737.895, 657.606 733.986, 660.181 732.039 C 662.755 730.093, 666.231 726.607, 667.906 724.293 C 669.580 721.979, 673.324 718.212, 676.225 715.923 C 679.126 713.633, 682.217 710.672, 683.094 709.343 C 683.971 708.013, 691.300 700.434, 699.380 692.501 C 707.999 684.037, 714.779 676.510, 715.785 674.288 C 717.391 670.740, 717.517 651.019, 717.761 363.669 C 718.020 59.014, 718.008 56.807, 716.028 52.330 C 714.931 49.850, 713.238 47.622, 712.267 47.378 C 711.295 47.133, 574.424 46.836, 408.108 46.717 C 187.136 46.558, 105.001 46.801, 103.058 47.617 M 106.100 53.254 C 100.177 54.789, 100.201 54.507, 100.575 116.595 C 100.897 170.153, 101.004 172.934, 102.950 178.095 C 104.071 181.068, 105.778 184.788, 106.744 186.363 L 108.500 189.225 236.280 189.153 C 306.560 189.113, 364.543 188.782, 365.133 188.418 C 367.055 187.230, 426.046 186.908, 435 188.037 C 440.517 188.733, 485.617 189.197, 563.500 189.359 C 657.916 189.555, 684.380 189.882, 687.626 190.894 C 691.141 191.990, 692.193 191.952, 694.737 190.636 C 697.979 188.959, 702.275 181.094, 703.978 173.718 C 704.545 171.261, 704.961 146.400, 704.976 114.173 L 705 58.846 702.077 55.923 C 700.469 54.315, 698.332 53.018, 697.327 53.039 C 696.322 53.061, 563.614 52.929, 402.420 52.747 C 241.226 52.564, 107.882 52.792, 106.100 53.254 M 349.939 204.702 C 344.739 205.794, 323.775 206.023, 241 205.893 C 184.625 205.804, 131.750 205.365, 123.500 204.917 C 110.775 204.225, 108.146 204.333, 106.166 205.629 C 100.514 209.327, 100.842 194.639, 100.912 440.400 L 100.976 666.500 106.901 672 C 110.160 675.025, 113.651 678.987, 114.661 680.805 C 115.670 682.623, 118.695 685.521, 121.382 687.245 C 124.332 689.138, 127.613 692.482, 129.661 695.683 C 131.741 698.936, 134.492 701.724, 136.776 702.896 C 140.952 705.037, 143.809 707.920, 146.606 712.815 C 147.648 714.639, 150.642 717.450, 153.261 719.063 C 156.237 720.896, 159.316 724.018, 161.475 727.394 C 163.389 730.386, 166.617 733.789, 168.715 735.026 C 170.797 736.255, 174.814 739.789, 177.643 742.880 L 182.786 748.500 272.870 748.500 L 362.955 748.500 365.727 745.727 L 368.500 742.955 369 480.727 C 369.275 336.502, 369.133 217.006, 368.683 215.179 C 367.678 211.091, 361.785 204.383, 358.676 203.789 C 357.412 203.547, 353.480 203.958, 349.939 204.702 M 684.500 205.069 C 682.300 205.530, 627.028 205.907, 561.672 205.907 C 449.130 205.906, 442.683 206.002, 439.777 207.703 C 438.090 208.691, 435.871 210.625, 434.846 212 C 433.040 214.424, 432.982 222.558, 432.949 478.196 C 432.922 689.071, 433.169 742.298, 434.180 743.917 C 437.083 748.565, 435.969 748.516, 533.787 748.227 C 615.284 747.986, 626.537 747.769, 630.037 746.369 C 632.217 745.496, 634 744.372, 634 743.871 C 634 743.113, 667.377 709.492, 680.669 696.860 C 682.776 694.858, 686.125 691.483, 688.112 689.360 C 690.098 687.237, 693.748 683.670, 696.222 681.433 C 699.352 678.602, 701.382 675.595, 702.898 671.543 L 705.076 665.721 705.019 440.145 L 704.963 214.569 702.749 211.338 C 700.154 207.552, 694.230 203.951, 690.864 204.115 C 689.564 204.178, 686.700 204.607, 684.500 205.069 M 388.115 212.377 L 385.882 214.754 385.970 474.886 C 386.038 676.848, 386.330 735.849, 387.279 738.736 C 388.131 741.332, 389.336 742.748, 391.272 743.428 C 395.378 744.870, 398.098 741.713, 399.123 734.313 C 399.682 730.288, 400.464 279.163, 400.019 217.886 C 399.996 214.690, 395.547 210, 392.538 210 C 391.334 210, 389.344 211.070, 388.115 212.377" stroke="none" fill="#444" fill-rule="evenodd"/></svg>