<svg xmlns="http://www.w3.org/2000/svg" width="50" height="50" viewBox="0 0 50 50" version="1.1">
	<path d="M 42.750 3.662 C 43.538 3.980, 44 6.207, 44 9.690 C 44 14.543, 43.787 15.132, 42.250 14.536 C 34.240 11.431, 25.143 10.423, 18.500 11.906 C 16.743 12.299, 19.229 12.560, 24.500 12.538 C 30.751 12.512, 35.117 13.063, 38.792 14.344 L 44.084 16.189 43.941 29.594 C 43.811 41.696, 43.221 44.785, 41.553 42.085 C 41.242 41.582, 41.450 41.017, 42.015 40.828 C 42.581 40.640, 35.541 34.879, 26.373 28.025 L 9.703 15.565 12.601 14.328 C 14.196 13.647, 14.992 13.070, 14.372 13.045 C 13.752 13.020, 11.565 13.702, 9.512 14.559 C 5.972 16.038, 5.876 16.197, 7.640 17.641 C 9.436 19.111, 9.432 19.142, 7.500 18.528 C 5.741 17.969, 5.681 18.063, 7 19.312 C 7.825 20.092, 15.826 26.213, 24.780 32.912 C 35.265 40.756, 40.815 45.521, 40.369 46.296 C 39.989 46.958, 40.875 46.409, 42.339 45.076 L 45 42.651 45 22.826 C 45 4.581, 44.860 3.006, 43.250 3.079 C 42.205 3.126, 42.003 3.361, 42.750 3.662 M 8.869 17.342 C 9.481 18.080, 9.725 18.942, 9.410 19.257 C 8.849 19.818, 40.302 44, 41.591 44 C 41.951 44, 41.744 43.396, 41.131 42.658 C 40.519 41.920, 40.239 41.094, 40.510 40.824 C 41.013 40.320, 9.545 16, 8.391 16 C 8.041 16, 8.256 16.604, 8.869 17.342 M 24.321 30 C 32.371 36.050, 39.263 41, 39.636 41 C 40.010 41, 33.729 36.050, 25.679 30 C 17.629 23.950, 10.737 19, 10.364 19 C 9.990 19, 16.271 23.950, 24.321 30 M 8 44.500 C 9.292 45.875, 10.574 47, 10.849 47 C 11.124 47, 10.292 45.875, 9 44.500 C 7.708 43.125, 6.426 42, 6.151 42 C 5.876 42, 6.708 43.125, 8 44.500" stroke="none" fill="#555555" fill-rule="evenodd"/>
</svg>