<svg xmlns="http://www.w3.org/2000/svg" width="1000" height="1000" viewBox="0 0 1000 1000" version="1.1"><path d="M 503.500 62.997 C 137.274 63.488, 128.434 63.544, 125.699 65.398 C 124.158 66.443, 122.358 68.468, 121.699 69.898 C 120.771 71.912, 120.613 160.039, 121 460 C 121.441 801.803, 121.677 847.847, 123 850.446 C 123.825 852.066, 127.550 855.891, 131.278 858.946 C 135.005 862.001, 139.280 866.300, 140.778 868.500 C 144.017 873.260, 148.045 877.096, 153.500 880.616 C 155.700 882.036, 158.625 884.808, 160 886.776 C 163.200 891.356, 169.644 897.800, 174.224 901 C 176.192 902.375, 179.010 905.408, 180.487 907.741 C 183.204 912.033, 190.372 918.916, 194.983 921.660 C 196.367 922.485, 198.625 924.738, 200 926.668 C 205.890 934.936, 208.186 936.978, 213.309 938.499 C 217.840 939.845, 251.485 940.022, 505 940.041 C 758.109 940.060, 792.417 939.885, 798.824 938.537 C 808.238 936.557, 811.490 934.793, 814.794 929.876 C 819.756 922.492, 822.998 919.213, 827.769 916.752 C 830.931 915.122, 833.570 912.686, 835.725 909.406 C 841.508 900.610, 842.027 900.044, 847.553 896.509 C 851.114 894.231, 854.217 891.136, 856.469 887.615 C 859.909 882.238, 862.380 879.877, 868.958 875.682 C 870.860 874.469, 873.899 871.457, 875.711 868.989 C 880.343 862.681, 882.970 860.132, 887 858.034 C 891.365 855.762, 893.397 853.453, 894.858 849.101 C 895.706 846.577, 896 745.973, 896 458.385 C 896 101.585, 895.871 70.797, 894.361 67.631 C 892.338 63.390, 889.306 61.926, 883.203 62.247 C 880.616 62.383, 709.750 62.721, 503.500 62.997 M 862.646 80.688 C 862.421 80.913, 703.671 81.127, 509.868 81.164 C 316.066 81.201, 152.870 81.614, 147.210 82.083 C 136.627 82.958, 132.446 84.454, 130.104 88.205 C 129.150 89.733, 128.870 113.028, 128.861 191.649 C 128.848 302.764, 128.545 297.095, 134.568 298.606 C 141.549 300.358, 161.780 294.929, 167.017 289.899 C 170.200 286.841, 174.149 284.999, 185.110 281.457 C 191.374 279.433, 199.087 276.923, 202.249 275.878 C 205.412 274.834, 210.231 273.500, 212.959 272.915 C 215.688 272.330, 220.750 270.015, 224.210 267.770 C 236.197 259.992, 241.205 258.245, 256.500 256.505 C 274.488 254.460, 279.553 253.093, 287.312 248.193 C 298.279 241.267, 307.240 239.261, 346 235.056 C 373.727 232.048, 378.742 231.051, 391.500 226.013 C 395.350 224.492, 404.800 221.955, 412.500 220.374 L 426.500 217.500 523.500 217.500 C 625.263 217.500, 627.365 217.580, 641.689 221.991 C 645.093 223.040, 649.593 224.767, 651.689 225.830 C 659.306 229.692, 671.418 232.862, 681 233.500 C 686.225 233.849, 694.550 234.762, 699.500 235.530 C 704.450 236.299, 712.380 237.399, 717.122 237.976 C 728.715 239.386, 737.117 242.277, 745.382 247.701 C 753.342 252.924, 761.075 255.374, 776.295 257.497 C 788.914 259.257, 795.865 261.886, 801.606 267.068 C 807.219 272.136, 807.755 272.365, 822.403 275.942 C 837.573 279.647, 837.867 279.785, 845 286.563 C 850.890 292.159, 859.886 296.611, 867.377 297.638 C 871.176 298.159, 872.105 297.878, 874.925 295.359 L 878.140 292.485 878.101 190.722 C 878.064 94.725, 877.961 88.823, 876.281 86.575 C 875.301 85.264, 873.600 83.620, 872.500 82.922 C 870.396 81.587, 863.345 79.988, 862.646 80.688 M 498 251.576 C 493.325 252.364, 484.550 254.106, 478.500 255.448 C 467.599 257.865, 437.181 260.974, 404 263.061 C 371.883 265.082, 339.501 270.643, 329.174 275.911 C 319.176 281.012, 311.390 282.691, 284.733 285.495 C 267.088 287.350, 265.422 287.829, 259.023 292.888 C 250.486 299.636, 244.101 301.822, 226.500 304.024 C 215.441 305.407, 211.262 306.643, 210.062 308.884 C 208.764 311.310, 210.054 312.921, 216.176 316.515 C 219.098 318.231, 223.466 322.080, 225.882 325.067 C 230.738 331.073, 230.849 331.149, 243.174 336.921 C 250.244 340.232, 252.812 342.092, 257.056 346.971 C 262.548 353.285, 266.252 355.938, 272.417 357.973 C 276.604 359.354, 283 364.507, 283 366.498 C 283 369.136, 288.696 373.729, 294.879 376.077 C 300.100 378.060, 302.279 379.653, 306.879 384.851 C 310.678 389.144, 314.445 392.174, 318.500 394.199 C 327.426 398.658, 333.344 402.963, 336.596 407.363 C 339.946 411.895, 346.815 416.604, 352.189 418.051 C 356.962 419.336, 361.166 422.901, 364.384 428.392 C 366.541 432.072, 367.989 433.178, 373.718 435.519 C 380.310 438.213, 383.649 440.952, 389.176 448.199 C 390.881 450.435, 394.509 452.982, 399.176 455.220 C 404.157 457.609, 409.304 461.310, 415.263 466.789 C 420.959 472.025, 425.684 475.460, 428.763 476.604 C 435.441 479.083, 440.541 482.886, 442.985 487.210 C 445.669 491.957, 448.757 494.352, 455.160 496.654 C 459.126 498.080, 461.637 500.013, 466.207 505.154 C 471.050 510.604, 473.675 512.554, 480.699 515.925 C 487.598 519.235, 490.670 521.492, 496.389 527.450 C 502.047 533.346, 505.043 535.559, 511.052 538.283 C 515.738 540.407, 519.533 542.906, 521.052 544.869 C 522.398 546.609, 524.504 549.317, 525.730 550.887 C 527.068 552.600, 530.358 554.638, 533.957 555.984 C 540.573 558.458, 544.233 561.575, 547.085 567.166 C 548.655 570.244, 550.507 571.601, 558.234 575.331 C 565.362 578.772, 568.871 581.227, 573.442 585.970 C 580.229 593.012, 580.817 593.397, 591 597.488 C 597.650 600.159, 598.861 601.067, 601.685 605.500 C 606.321 612.779, 608.086 614.245, 615.297 616.802 C 621.110 618.864, 622.245 619.737, 626.145 625.149 C 629.957 630.440, 631.501 631.660, 638.530 634.931 C 644.478 637.699, 648.711 640.679, 654.855 646.425 C 660.725 651.915, 665.247 655.147, 670.325 657.484 C 678.261 661.136, 680.630 663.047, 684.018 668.529 C 685.807 671.424, 688.089 673.052, 694.470 675.986 C 701.737 679.328, 703.045 680.361, 706.389 685.399 C 709.621 690.268, 711.196 691.564, 717.665 694.676 C 722.955 697.221, 727.454 700.477, 732.842 705.661 C 738.711 711.307, 742.665 714.079, 749.770 717.525 C 758.031 721.533, 759.408 722.598, 762.426 727.317 C 765.773 732.549, 766.849 733.285, 777.069 737.333 C 780.594 738.729, 782.445 740.643, 787.907 748.533 C 790.175 751.811, 792.083 753.100, 798.099 755.421 C 806.805 758.780, 810.555 761.320, 818 768.900 C 821.185 772.143, 826.446 776.029, 830.500 778.134 C 836.121 781.052, 838.250 782.866, 841.308 787.339 C 844.301 791.718, 846.333 793.477, 850.808 795.565 C 857.544 798.708, 860.990 801.752, 865.145 808.226 C 867.644 812.120, 868.742 813, 871.104 813 C 872.697 813, 874.900 812.100, 876 811 C 877.987 809.013, 878.002 807.499, 878.250 585.750 C 878.387 462.962, 878.474 359.542, 878.444 355.927 C 878.377 347.968, 876.505 344.857, 868.638 339.635 C 865.686 337.676, 861.855 334.460, 860.124 332.488 C 856.755 328.652, 852.624 326.842, 841.500 324.331 C 832.801 322.367, 826.622 319.299, 819.003 313.160 C 813.488 308.715, 812.168 308.176, 799.296 305.102 C 782.378 301.062, 781.070 300.512, 773.188 294.123 C 769.717 291.309, 765.667 288.735, 764.188 288.403 C 762.710 288.071, 759.925 287.428, 758 286.974 C 756.075 286.521, 748.875 285.417, 742 284.522 C 725.146 282.328, 718.473 280.658, 708.197 276.059 C 703.414 273.918, 696.350 271.238, 692.500 270.103 C 682.553 267.172, 659.272 264.014, 640 262.982 C 630.925 262.495, 621.159 261.642, 618.299 261.084 C 615.438 260.526, 606.503 259.602, 598.443 259.029 C 590.383 258.457, 580.346 257.110, 576.138 256.035 C 562.665 252.595, 550.025 251.183, 528 250.657 C 511.942 250.274, 504.348 250.507, 498 251.576 M 170.222 328.114 C 165.219 329.964, 169.542 334.699, 175.116 333.474 C 177.434 332.965, 178.045 332.341, 177.807 330.725 C 177.446 328.270, 173.485 326.906, 170.222 328.114 M 131.597 348.304 C 129.333 349.961, 130.143 351.724, 133.808 353.117 C 136.973 354.320, 141 353.473, 141 351.603 C 141 348.382, 134.572 346.126, 131.597 348.304 M 157.158 367.826 C 153.682 370.172, 162.216 375.669, 168.054 374.845 C 170.838 374.452, 171.898 370.990, 169.773 369.227 C 167.965 367.726, 158.813 366.710, 157.158 367.826 M 225.750 368.080 C 221.843 370.356, 225.428 374.433, 230.791 373.812 C 234.066 373.432, 235.018 370.217, 232.418 368.316 C 230.285 366.757, 228.151 366.681, 225.750 368.080 M 185.750 387.080 C 182.366 389.051, 184.351 393.572, 189.391 395.371 C 191.825 396.239, 196 393.537, 196 391.092 C 196 388.998, 192.002 385.984, 189.285 386.030 C 188.303 386.047, 186.713 386.519, 185.750 387.080 M 247.407 388.513 C 246.502 392.120, 248.593 394.165, 252.813 393.801 C 257.691 393.380, 259.305 390.535, 256.139 387.937 C 252.640 385.066, 248.199 385.358, 247.407 388.513 M 132.313 401.757 C 131.659 402.188, 130.659 403.767, 130.089 405.265 C 129.387 407.112, 129.036 475.763, 128.999 618.245 C 128.970 733.885, 128.958 829.040, 128.973 829.701 C 128.988 830.361, 131.667 833.576, 134.926 836.846 C 138.186 840.115, 141.770 844.589, 142.892 846.788 C 144.994 850.908, 152.402 858, 154.603 858 C 156.657 858, 161.432 862.561, 164.560 867.508 C 166.436 870.476, 169.490 873.368, 173.002 875.501 C 179.380 879.376, 181.646 881.709, 185.360 888.223 C 187.184 891.422, 189.578 893.815, 192.777 895.637 C 198.287 898.775, 203 902.878, 203 904.537 C 203 907.563, 209.317 914.131, 214.974 916.987 C 219.060 919.050, 222.273 921.670, 225.097 925.242 C 227.372 928.121, 230.079 931.067, 231.112 931.791 C 232.653 932.870, 281.953 933.095, 506.161 933.047 C 690.965 933.007, 780.574 932.653, 783.172 931.954 C 785.564 931.309, 789.368 928.725, 793.256 925.100 C 796.690 921.900, 801.075 918.490, 803 917.524 C 807.708 915.160, 811 912.028, 811 909.915 C 811 908.281, 808.570 905.919, 802.521 901.672 C 801.089 900.666, 798.252 897.336, 796.217 894.272 C 793.085 889.555, 791.519 888.257, 786.009 885.810 C 781.168 883.660, 777.706 881.072, 772.500 875.710 C 767.425 870.482, 763.163 867.264, 757 864.005 C 751.564 861.130, 746.293 857.316, 742.378 853.423 C 738.080 849.150, 734.503 846.643, 730.378 845.012 C 724.136 842.544, 718 838.537, 718 836.929 C 718 836.396, 716.900 834.218, 715.556 832.089 C 713.560 828.927, 711.818 827.723, 706.049 825.519 C 699.240 822.917, 696.151 820.505, 690 812.987 C 688.587 811.261, 682.828 807.519, 676.759 804.385 C 667.482 799.594, 665.437 798.066, 661.753 793.169 C 658.718 789.136, 656.046 786.835, 652.493 785.195 C 641.598 780.165, 640.456 779.354, 636.740 774 C 634.641 770.975, 631.703 767.955, 630.211 767.289 C 628.720 766.622, 625.397 765.165, 622.828 764.049 C 619.809 762.739, 616.327 759.919, 612.990 756.082 C 609.276 751.812, 605.391 748.795, 599.162 745.345 C 593.639 742.286, 588.266 738.272, 584.336 734.267 C 578.799 728.627, 569.838 723.038, 566.285 723.010 C 564.635 722.997, 558 717.081, 558 715.624 C 558 714.982, 556.661 712.832, 555.025 710.846 C 552.870 708.232, 550.206 706.586, 545.361 704.876 C 539.536 702.819, 537.952 701.671, 533.086 695.979 C 528.359 690.448, 525.962 688.668, 517.503 684.401 C 509.341 680.285, 506.697 678.362, 503.102 673.930 C 497.754 667.336, 495.061 665.425, 488.305 663.427 C 482.994 661.856, 480.448 659.547, 474.892 651.261 C 472.819 648.170, 470.971 646.896, 465.892 645.055 C 460.670 643.163, 458.218 641.429, 452.500 635.585 C 447.784 630.765, 443.053 627.137, 438 624.466 C 433.466 622.069, 427.826 617.888, 423.739 613.897 C 420.021 610.265, 415.296 606.579, 413.239 605.706 C 411.183 604.833, 407.404 603.236, 404.842 602.156 C 401.312 600.669, 399.327 598.899, 396.645 594.847 C 393.621 590.277, 391.837 588.846, 384.364 585 C 377.521 581.478, 374.941 579.522, 372.492 576 C 369.212 571.282, 368.380 570.651, 355.538 563.150 C 350.056 559.949, 346.318 556.882, 343.538 553.305 C 339.766 548.454, 329.993 542, 326.417 542 C 324.321 542, 319.198 537.124, 316.787 532.835 C 314.384 528.560, 312.475 527.272, 303.636 523.965 C 299.355 522.363, 296.936 520.543, 292.909 515.894 C 290.049 512.593, 285.862 508.959, 283.604 507.818 C 276.272 504.114, 266.259 496.947, 262.228 492.517 C 258.463 488.380, 253.378 485.149, 248.019 483.488 C 243.757 482.167, 240.073 478.791, 237.054 473.442 C 234.442 468.813, 233.448 468.002, 227.322 465.499 C 220.741 462.810, 216.826 459.566, 211.295 452.221 C 209.996 450.496, 205.621 447.628, 200.649 445.242 C 194.589 442.334, 190.134 439.226, 184.854 434.222 C 177.921 427.651, 171.061 423, 168.300 423 C 166.264 423, 160.309 417.203, 157.605 412.589 C 154.879 407.937, 151.692 405.982, 142.910 403.575 C 139.934 402.759, 136.600 401.840, 135.500 401.533 C 134.400 401.225, 132.966 401.327, 132.313 401.757 M 207.571 405.571 C 205.582 407.561, 205.545 411.378, 207.501 413 C 209.818 414.924, 217.189 415.390, 219.373 413.752 C 222.171 411.653, 220.632 408.484, 215.638 406.067 C 210.514 403.586, 209.612 403.531, 207.571 405.571 M 274 409.393 C 274 411.005, 276.130 412, 279.582 412 C 282.235 412, 282.649 411.049, 280.800 409.200 C 279.112 407.512, 274 407.657, 274 409.393 M 306.250 428.040 C 303.525 429.125, 303.367 431.117, 305.829 433.345 C 308.742 435.982, 312.837 435.498, 313.608 432.427 C 314.580 428.552, 310.732 426.258, 306.250 428.040 M 241.250 428.662 C 237.238 430.281, 244.736 435.853, 249.073 434.477 C 252.095 433.518, 251.335 431.038, 247.532 429.449 C 243.884 427.925, 243.269 427.848, 241.250 428.662 M 263.750 446.080 C 259.155 448.757, 264.130 456, 270.563 456 C 273.648 456, 277 453.922, 277 452.010 C 277 446.966, 268.647 443.228, 263.750 446.080 M 327.200 447.200 C 325.579 448.821, 325.686 451.495, 327.430 452.942 C 329.524 454.679, 336.082 453.854, 337.399 451.687 C 339.647 447.987, 330.457 443.943, 327.200 447.200 M 287.011 466.487 C 285.185 468.687, 286.630 472.909, 289.593 474.035 C 297.835 477.169, 303.617 471.990, 297.365 467.073 C 294.295 464.658, 288.787 464.346, 287.011 466.487 M 315.744 487.590 C 313.061 490.272, 318.717 494, 325.468 494 C 328.312 494, 329 493.617, 329 492.035 C 329 490.955, 328.212 489.649, 327.250 489.134 C 324.752 487.797, 316.627 486.707, 315.744 487.590 M 384 490.339 C 384 491.892, 384.880 493.080, 386.615 493.870 C 390.461 495.623, 393 494.454, 393 490.933 C 393 488.124, 392.810 488, 388.500 488 C 384.449 488, 384 488.233, 384 490.339 M 408.040 507.452 C 405.283 510.774, 408.758 514.780, 413.388 513.617 C 417.179 512.666, 417.845 510.154, 414.906 507.894 C 411.994 505.656, 409.656 505.505, 408.040 507.452 M 344.200 508.200 C 342.247 510.153, 342.811 511.851, 345.950 513.474 C 350.698 515.930, 355 514.930, 355 511.371 C 355 507.726, 347.018 505.382, 344.200 508.200 M 367.667 526.667 C 366.285 528.048, 367.074 531.969, 368.934 532.965 C 371.717 534.454, 376.557 534.239, 377.947 532.564 C 379.357 530.864, 377.980 527.590, 375.446 526.618 C 373.311 525.798, 368.505 525.829, 367.667 526.667 M 432 529.021 C 432 530.735, 436.884 532.516, 438.140 531.260 C 438.737 530.663, 438.923 529.685, 438.554 529.087 C 437.702 527.710, 432 527.652, 432 529.021 M 399.750 548.763 C 396.975 549.371, 397.704 550.978, 401.468 552.551 C 406.205 554.531, 408 554.379, 408 552 C 408 550.900, 407.885 550, 407.743 550 C 407.602 550, 406.140 549.635, 404.493 549.190 C 402.847 548.744, 400.712 548.552, 399.750 548.763 M 465.056 549.433 C 464.098 550.587, 464.356 551.187, 466.384 552.516 C 470.579 555.265, 475.098 552.498, 471.800 549.200 C 470.162 547.562, 466.503 547.689, 465.056 549.433 M 421.667 567.065 C 420.872 568.200, 420.428 569.888, 420.680 570.815 C 421.383 573.393, 425.728 576.154, 429.978 576.724 C 433.269 577.165, 434.032 576.880, 435.482 574.667 C 436.493 573.124, 436.905 571.275, 436.512 570.038 C 435.009 565.301, 424.392 563.175, 421.667 567.065 M 488.105 568.373 C 486.151 570.728, 487.885 573, 491.638 573 C 495.744 573, 497.310 570.431, 494.471 568.355 C 492.098 566.620, 489.554 566.627, 488.105 568.373 M 447.200 586.200 C 445.596 587.804, 445.676 591.486, 447.345 592.872 C 451.219 596.086, 459 594.861, 459 591.037 C 459 586.797, 450.207 583.193, 447.200 586.200 M 473.161 609.103 C 473.428 610.992, 474.581 611.859, 478.605 613.194 C 484.339 615.098, 488 614.635, 488 612.006 C 488 609.172, 485.487 607.854, 478.949 607.262 C 472.930 606.716, 472.828 606.748, 473.161 609.103 M 543.053 608.436 C 540.394 611.640, 548.117 617.669, 551.868 615.318 C 553.936 614.023, 554.519 610.331, 552.954 608.445 C 551.406 606.579, 544.599 606.573, 543.053 608.436 M 568.040 627.452 C 565.130 630.958, 569.019 635.083, 573.688 633.441 C 577.887 631.964, 577.851 629.254, 573.609 627.481 C 569.287 625.675, 569.514 625.676, 568.040 627.452 M 504.750 627.689 C 502.210 628.353, 502.606 631.512, 505.465 633.385 C 511.055 637.048, 517.391 633.391, 513.023 629.023 C 511.093 627.093, 508.581 626.688, 504.750 627.689 M 527.200 646.200 C 525.291 648.109, 525.805 651.750, 528.223 653.443 C 532.978 656.774, 540.920 654.475, 539.552 650.163 C 538.270 646.125, 529.946 643.454, 527.200 646.200 M 593.595 648.738 C 592.550 649.784, 594.144 651, 596.559 651 C 598.695 651, 600.222 649.125, 598.250 648.923 C 597.837 648.881, 596.743 648.701, 595.818 648.522 C 594.893 648.343, 593.893 648.440, 593.595 648.738 M 556 669.331 C 556 671.503, 561.228 673.532, 565.750 673.115 C 567.933 672.914, 567.097 670.365, 564.453 669.161 C 560.958 667.568, 556 667.668, 556 669.331 M 624 670.339 C 624 671.876, 624.874 673.077, 626.547 673.839 C 629.872 675.354, 630.550 675.307, 632.427 673.431 C 635.055 670.802, 632.753 668, 627.965 668 C 624.475 668, 624 668.280, 624 670.339 M 582.093 686.907 C 580.512 688.488, 580.197 689.499, 580.884 690.784 C 583.648 695.948, 591.231 698.626, 594.326 695.531 C 598.292 691.565, 595.092 686.224, 588.194 685.299 C 585.030 684.875, 583.801 685.199, 582.093 686.907 M 647.571 687.571 C 646.707 688.436, 646 689.529, 646 690 C 646 691.572, 649.118 694, 651.137 694 C 653.967 694, 657 692.184, 657 690.490 C 657 689.125, 652.212 686, 650.121 686 C 649.583 686, 648.436 686.707, 647.571 687.571 M 606.200 706.200 C 604.291 708.109, 604.805 711.750, 607.223 713.443 C 610.043 715.419, 617.353 715.484, 618.960 713.548 C 619.623 712.749, 619.871 711.169, 619.512 710.037 C 618.238 706.023, 609.031 703.369, 606.200 706.200 M 632.523 727.964 C 631.413 729.758, 635.831 732.852, 640.503 733.553 C 645.474 734.298, 647.459 733.359, 646.453 730.737 C 645.319 727.783, 634.024 725.534, 632.523 727.964 M 703.200 728.200 C 700.309 731.091, 704.048 735, 709.703 735 C 712.396 735, 713.078 734.539, 713.628 732.344 C 714.119 730.388, 713.811 729.335, 712.456 728.344 C 710.174 726.676, 704.808 726.592, 703.200 728.200 M 727.250 746.662 C 725.549 747.348, 725.668 751.480, 727.430 752.942 C 728.217 753.595, 730.579 753.988, 732.680 753.815 C 735.707 753.565, 736.564 753.053, 736.807 751.347 C 737.323 747.727, 731.584 744.914, 727.250 746.662 M 663.004 748.495 C 659.898 752.237, 669.601 758.236, 673.511 754.991 C 675.616 753.244, 675.361 749.263, 673.066 748.035 C 670.219 746.511, 664.431 746.776, 663.004 748.495 M 687.200 767.200 C 684.321 770.079, 686.436 773.537, 691.723 774.595 C 697.880 775.826, 701.462 770.838, 696.777 767.557 C 694.138 765.708, 688.888 765.512, 687.200 767.200 M 751.675 768.658 C 750.470 769.863, 753.207 772, 755.956 772 C 759.323 772, 760.320 771.090, 758.869 769.342 C 757.720 767.957, 752.840 767.493, 751.675 768.658 M 712 786.984 C 710.729 787.793, 710.893 788.332, 713.077 790.524 C 715.005 792.458, 717.048 793.253, 721.190 793.680 C 730.273 794.618, 729.959 790.057, 720.751 787.302 C 715.665 785.781, 713.989 785.720, 712 786.984 M 783.649 789.471 C 782.838 791.585, 785.672 794, 788.964 794 C 792.129 794, 793.689 791.536, 791.895 789.373 C 790.357 787.520, 784.371 787.591, 783.649 789.471 M 742.200 807.200 C 740.345 809.055, 740.759 810.872, 743.646 813.548 C 747.035 816.689, 753.405 816.980, 754.965 814.066 C 756.435 811.318, 756.269 810.269, 754 808 C 751.718 805.718, 744.192 805.208, 742.200 807.200 M 807.750 807.080 C 803.313 809.664, 807.939 814.985, 813.426 813.608 C 816.658 812.797, 816.838 809.700, 813.777 807.557 C 811.206 805.756, 810.165 805.673, 807.750 807.080 M 766.750 825.080 C 764.447 826.421, 764.493 831.231, 766.829 833.345 C 769.187 835.480, 776.326 835.531, 778.429 833.429 C 780.296 831.562, 780.308 831.444, 778.920 828.850 C 777.866 826.880, 772.347 823.970, 769.782 824.030 C 769.077 824.047, 767.712 824.519, 766.750 825.080 M 829.309 827.636 C 828.964 828.536, 829.136 829.998, 829.692 830.886 C 830.874 832.774, 836.829 833.482, 839 831.993 C 840.271 831.121, 840.072 830.586, 837.694 828.482 C 834.489 825.647, 830.237 825.218, 829.309 827.636 M 794 848.943 C 794 850.781, 798.497 853, 802.223 853 C 806.503 853, 807.029 851.834, 803.777 849.557 C 801.368 847.869, 794 847.407, 794 848.943 M 823.200 868.200 C 821.203 870.197, 821.837 872.685, 825.027 875.369 C 827.985 877.858, 829.878 877.944, 832.750 875.722 C 834.722 874.196, 834.280 869.220, 832.066 868.035 C 829.454 866.637, 824.674 866.726, 823.200 868.200" stroke="none" fill="#444" fill-rule="evenodd"/></svg>