<svg xmlns="http://www.w3.org/2000/svg" width="50" height="50" viewBox="0 0 50 50" version="1.1">
	<path d="M 5 22.500 C 5 33.408, 5.238 42.095, 5.529 41.804 C 6.215 41.119, 6.207 3.874, 5.521 3.188 C 5.234 2.901, 5 11.592, 5 22.500 M 24 17.500 C 21.708 18.383, 21.190 18.862, 22.500 18.888 C 23.600 18.911, 25.625 18.286, 27 17.500 C 30.117 15.718, 28.627 15.718, 24 17.500 M 23.180 33.250 C 23.081 40.813, 23.337 47.001, 23.750 47.002 C 24.163 47.004, 24.380 42.841, 24.234 37.752 C 23.750 20.957, 23.363 19.303, 23.180 33.250 M 40.924 44.750 L 38.500 47.500 41.250 45.076 C 43.820 42.810, 44.459 42, 43.674 42 C 43.495 42, 42.258 43.237, 40.924 44.750" stroke="none" fill="#555555" fill-rule="evenodd"/>
</svg>