<svg xmlns="http://www.w3.org/2000/svg" width="1000" height="1000" viewBox="0 0 1000 1000" version="1.1"><path d="M 504.769 62.997 L 129.038 63.500 125.996 66.543 L 122.953 69.585 122.965 450.933 L 122.976 832.280 125.370 835.390 C 127.964 838.760, 162.412 873.433, 173.665 884 C 177.473 887.575, 182.171 892.300, 184.105 894.500 C 186.040 896.700, 189.866 900.525, 192.607 903 C 195.349 905.475, 199.133 909.416, 201.017 911.758 C 202.901 914.099, 207.156 918.019, 210.471 920.467 C 213.787 922.916, 218.196 926.926, 220.268 929.379 C 222.340 931.832, 225.943 934.762, 228.273 935.890 L 232.510 937.941 510.358 937.941 C 756.525 937.941, 788.620 937.768, 791.839 936.423 C 793.837 935.588, 797.728 932.501, 800.486 929.563 C 803.244 926.625, 807.802 922.484, 810.616 920.360 C 813.430 918.237, 821.078 910.875, 827.612 904 C 840.592 890.342, 844.777 886.206, 863.023 869 C 883.750 849.455, 892.057 840.800, 893.577 837.161 C 894.851 834.113, 895.038 784.459, 895.035 451.321 C 895.032 104.367, 894.885 68.754, 893.450 66.564 C 891.661 63.834, 886.974 61.879, 883.101 62.247 C 881.670 62.383, 711.421 62.721, 504.769 62.997 M 858.500 80.035 C 856.291 80.514, 696.666 80.908, 501.970 80.918 C 182.449 80.933, 149.142 81.082, 146.267 82.517 C 144.522 83.387, 141.896 85.524, 140.431 87.264 C 137.846 90.336, 137.792 90.666, 138.582 98.465 C 139.030 102.884, 139.461 131.025, 139.539 161 C 139.692 219.333, 140.074 224.557, 144.576 229.908 C 147.352 233.207, 154.961 235.006, 166.082 234.992 C 174.077 234.983, 204.457 237.673, 212.446 239.099 C 219.449 240.348, 224.488 242.759, 231.221 248.080 C 237.353 252.927, 243.040 254.637, 259.500 256.582 C 276.907 258.639, 280.477 259.917, 288.443 266.950 C 294.201 272.032, 296.119 273.083, 303.066 274.957 C 307.464 276.144, 313.455 277.504, 316.378 277.980 C 324.457 279.295, 328.289 281.292, 335.363 287.872 C 340.876 293.002, 342.918 294.206, 349.167 296.015 C 362.351 299.832, 364.886 301.080, 371.334 306.923 C 376.956 312.018, 378.889 313.075, 387.850 315.952 C 395.579 318.433, 398.596 319.919, 400.500 322.182 C 401.875 323.816, 403 325.698, 403 326.364 C 403 329.316, 408.782 333.908, 415.745 336.487 C 420.636 338.299, 423.722 340.130, 425.245 342.122 C 431.499 350.307, 433.457 351.995, 440.664 355.418 C 446.966 358.411, 449.992 360.771, 457.904 368.865 C 463.182 374.264, 469.592 380.094, 472.149 381.820 C 474.706 383.545, 478.299 386.879, 480.134 389.229 C 489.502 401.224, 498.537 411.803, 501.584 414.345 C 505.869 417.919, 511.961 418.953, 514.041 416.460 C 514.844 415.499, 517.075 411.515, 519 407.606 C 522.070 401.373, 523.114 400.185, 527.500 397.936 C 532.589 395.326, 536.572 390.671, 537.663 386.059 C 538.580 382.185, 540.945 379.958, 547 377.268 C 553.747 374.272, 555.637 372.630, 558.250 367.500 C 560.324 363.428, 564.647 359.003, 566.554 359.001 C 567.133 359.001, 569.915 357.850, 572.735 356.445 C 576.439 354.599, 578.743 352.518, 581.034 348.947 C 585.404 342.138, 588.225 340.019, 598.855 335.561 C 607.952 331.746, 609.076 330.851, 615.820 322.044 C 617.559 319.773, 619.937 318.477, 625.320 316.867 C 635.278 313.887, 637.006 312.857, 640.982 307.536 C 645.794 301.097, 649.087 299.357, 660.734 297.099 C 672.892 294.743, 675.455 293.485, 680 287.646 C 684.890 281.364, 688.846 279.440, 703.917 276.019 C 718.732 272.655, 719.281 272.423, 726.687 266.391 C 729.632 263.993, 733.364 261.346, 734.981 260.510 C 738.998 258.432, 749.681 256.345, 760.500 255.523 C 774.017 254.496, 777.426 253.375, 783.318 248.015 C 786.301 245.302, 790.834 242.436, 794 241.261 C 802.332 238.168, 839.605 234.021, 859.395 233.985 C 869.912 233.966, 871.990 232.865, 874.500 225.984 C 876.414 220.735, 876.509 217.715, 876.713 155.500 C 876.903 97.736, 876.748 90.085, 875.321 86.772 C 872.671 80.616, 866.759 78.248, 858.500 80.035 M 148.500 265.976 C 139.152 268.379, 137.510 270.490, 138.488 278.847 C 138.852 281.956, 139.509 375.850, 139.948 487.500 C 140.387 599.150, 141.096 703.586, 141.524 719.580 C 142.064 739.780, 141.944 752.453, 141.130 761.080 C 140.486 767.911, 139.871 783.850, 139.764 796.500 C 139.506 827.085, 140.811 831.652, 152.318 840.429 C 154.349 841.978, 158.234 846.075, 160.952 849.534 C 163.671 852.993, 168.409 857.492, 171.481 859.531 C 174.553 861.570, 179.092 865.870, 181.567 869.086 C 184.041 872.303, 188.795 877.034, 192.131 879.601 C 195.467 882.168, 199.685 886.570, 201.505 889.384 C 205.132 894.991, 206.328 896.137, 213 900.395 C 215.475 901.975, 219.392 905.885, 221.704 909.084 C 224.016 912.283, 227.376 915.660, 229.171 916.588 C 235.137 919.674, 286.545 921.744, 290.634 919.063 C 294.387 916.602, 296.266 912.167, 296.332 905.616 C 296.604 878.502, 294.805 311.991, 294.442 310.268 C 293.816 307.301, 289.458 305.183, 280.420 303.453 C 271.874 301.818, 266.412 299.282, 260.010 293.977 C 257.530 291.921, 254.600 289.795, 253.500 289.251 C 250.525 287.780, 236.167 285.202, 221.813 283.560 C 208.473 282.035, 201.347 279.765, 195 275.020 C 187.565 269.462, 186.206 269.017, 170.496 267 C 153.724 264.846, 153.022 264.813, 148.500 265.976 M 856.866 265.467 C 856.609 265.724, 851.021 266.419, 844.449 267.011 C 830.219 268.293, 828.439 268.802, 820 273.998 C 810.654 279.753, 800.733 282.679, 784.500 284.470 C 764.090 286.722, 761.925 287.377, 754.320 293.611 C 748.204 298.624, 738.376 303, 733.233 303 C 730 303, 723.031 308.021, 722.426 310.786 C 722.100 312.279, 721.697 313.965, 721.531 314.532 C 721.366 315.100, 721.647 318.025, 722.157 321.032 C 723.917 331.406, 722.293 887.843, 720.460 902.618 C 719.057 913.927, 727.132 921.086, 739.425 919.430 C 746.272 918.508, 751.643 918.427, 771 918.954 C 790.478 919.484, 793.731 918.357, 800.193 908.836 C 802.012 906.156, 806.115 902.124, 809.311 899.875 C 812.507 897.626, 816.869 893.472, 819.005 890.643 C 824.094 883.902, 826.722 881.259, 831.153 878.430 C 833.163 877.147, 836.763 873.588, 839.153 870.521 C 841.544 867.454, 846.067 862.949, 849.205 860.509 C 852.342 858.069, 857.180 853.244, 859.954 849.786 C 862.729 846.329, 866.754 842.150, 868.899 840.500 C 871.043 838.850, 873.576 836.208, 874.527 834.630 C 876.152 831.931, 876.276 814.956, 876.595 551.270 L 876.935 270.781 874.044 267.890 C 871.415 265.261, 870.530 265, 864.244 265 C 860.443 265, 857.123 265.210, 856.866 265.467 M 328.571 329.571 C 325.797 332.345, 327.328 345, 330.437 345 C 333.768 345, 335.379 332.522, 332.429 329.571 C 331.564 328.707, 330.696 328, 330.500 328 C 330.304 328, 329.436 328.707, 328.571 329.571 M 365.961 347.750 C 363.946 350.285, 363.843 351.085, 364.638 358 C 365.112 362.125, 365.501 381.250, 365.502 400.500 C 365.503 419.750, 365.643 542.563, 365.813 673.418 C 366.147 930.477, 365.811 915.223, 371.196 918.105 C 372.822 918.975, 406.094 919.241, 502.915 919.159 C 626.944 919.053, 632.563 918.970, 634.917 917.212 C 640.412 913.110, 641.540 910.413, 641.002 902.667 C 640.198 891.084, 640.601 788.072, 641.868 681 C 642.516 626.275, 643.272 552.700, 643.548 517.500 C 643.824 482.300, 644.436 434.375, 644.907 411 C 645.716 370.937, 645.887 368.223, 647.883 363.667 C 652.314 353.553, 649.454 348, 639.815 348 C 633.735 348, 629.816 349.944, 627.129 354.292 C 624.021 359.320, 621.544 361.207, 613.701 364.521 C 608.331 366.790, 605.998 368.409, 604.332 371.021 C 599.784 378.150, 597.587 380.197, 591.297 383.169 C 585.600 385.861, 584.339 387.011, 580.478 393.035 C 577.424 397.798, 574.741 400.654, 571.571 402.511 C 567.186 405.081, 565.221 407.084, 560.075 414.230 C 558.741 416.082, 555.420 418.926, 552.695 420.549 C 547.595 423.587, 543.607 428.504, 542.479 433.144 C 541.715 436.289, 536.667 441.713, 531.912 444.500 C 529.531 445.896, 527.442 448.590, 525 453.418 C 523.075 457.223, 520.314 461.210, 518.864 462.278 C 515.457 464.788, 508.269 465.574, 503.403 463.968 C 497.960 462.172, 479.032 443.108, 476.627 437 C 473.813 429.853, 472.342 428.202, 465.897 424.948 C 460.163 422.054, 459.656 421.495, 456.528 414.630 C 453.344 407.645, 452.994 407.271, 447.231 404.684 C 440.440 401.636, 439.658 400.870, 435.500 393.182 C 432.818 388.222, 431.854 387.363, 426.401 385.067 C 418.851 381.889, 417.484 380.772, 413.453 374.483 C 410.634 370.086, 409.262 369.042, 402.368 366.044 C 391.012 361.107, 387.406 358.592, 383.749 353.057 C 379.927 347.274, 376.518 345, 371.668 345 C 369.021 345, 367.602 345.684, 365.961 347.750 M 329.922 485.083 C 329.291 488.442, 329.221 718.345, 329.850 720.500 C 330.719 723.481, 330.729 723.471, 331.421 719 C 332.294 713.356, 331.550 486.217, 330.656 485.322 C 330.295 484.962, 329.965 484.854, 329.922 485.083 M 329.911 825.083 C 329.431 848.988, 327.852 897.793, 327.401 902.658 C 326.802 909.135, 327.960 913, 330.500 913 C 333.034 913, 334.197 909.132, 333.610 902.658 C 333.303 899.271, 332.616 879.689, 332.084 859.141 C 331.551 838.594, 330.865 821.531, 330.558 821.224 C 330.251 820.918, 329.960 822.654, 329.911 825.083" stroke="none" fill="#444" fill-rule="evenodd"/></svg>