<svg xmlns="http://www.w3.org/2000/svg" width="50" height="50" viewBox="0 0 50 50" version="1.1">
	<path d="M 44.420 22.500 C 44.419 33.500, 44.565 38.136, 44.745 32.803 C 44.924 27.470, 44.925 18.470, 44.746 12.803 C 44.568 7.136, 44.421 11.500, 44.420 22.500 M 25.500 29.500 C 25.500 39.125, 25.837 47, 26.250 47 C 26.663 47, 27 39.125, 27 29.500 C 27 19.875, 26.663 12, 26.250 12 C 25.837 12, 25.500 19.875, 25.500 29.500 M 8 44.500 C 9.292 45.875, 10.574 47, 10.849 47 C 11.124 47, 10.292 45.875, 9 44.500 C 7.708 43.125, 6.426 42, 6.151 42 C 5.876 42, 6.708 43.125, 8 44.500" stroke="none" fill="#555555" fill-rule="evenodd"/>
</svg>