<svg xmlns="http://www.w3.org/2000/svg" width="800" height="800" viewBox="0 0 800 800" version="1.1"><path d="M 85.299 47.960 C 78.381 52.177, 78.959 23.515, 78.990 361.129 C 79.016 634.612, 79.181 666.918, 80.583 672.392 C 82.630 680.384, 83.873 682.154, 90.748 686.860 C 93.946 689.050, 97.610 692.639, 99 694.946 C 100.375 697.227, 103.622 700.459, 106.215 702.128 C 108.808 703.798, 112.527 707.386, 114.478 710.103 C 116.430 712.819, 120.501 716.624, 123.524 718.559 C 126.548 720.493, 130.192 723.843, 131.622 726.005 C 133.052 728.166, 136.461 731.371, 139.198 733.127 C 141.934 734.883, 145.933 738.701, 148.083 741.613 C 151.231 745.874, 153.505 747.646, 159.747 750.703 L 167.500 754.500 398 754.767 C 546.554 754.939, 631.479 754.679, 636.880 754.037 C 647.376 752.789, 651.518 750.775, 656.071 744.702 C 658.049 742.064, 661.894 738.406, 664.614 736.574 C 667.334 734.743, 670.859 731.368, 672.448 729.075 C 674.037 726.782, 677.894 722.691, 681.018 719.984 C 684.143 717.277, 687.747 713.534, 689.027 711.666 C 690.307 709.798, 693.567 706.759, 696.272 704.914 C 698.976 703.068, 702.786 699.295, 704.738 696.529 C 706.691 693.763, 710.460 689.816, 713.114 687.758 C 715.768 685.700, 718.627 682.688, 719.467 681.063 C 720.827 678.434, 720.998 643.900, 721.032 366.024 C 721.065 92.109, 720.888 53.679, 719.590 51.825 C 718.776 50.663, 716.848 48.880, 715.305 47.863 C 712.591 46.073, 702.358 46.013, 400.500 46.010 C 92.813 46.008, 88.456 46.034, 85.299 47.960 M 99.500 54.529 C 97.300 55.321, 95.399 55.977, 95.276 55.985 C 95.152 55.993, 94.350 57.356, 93.493 59.013 C 92.137 61.637, 91.922 69.896, 91.827 123.028 C 91.702 193.158, 90.493 185.585, 102.804 191.747 C 107.417 194.055, 111.455 196.933, 113.296 199.222 C 115.725 202.241, 117.813 203.437, 124.358 205.556 C 133.225 208.426, 136.733 210.516, 142 216.062 C 144.767 218.976, 147.310 220.298, 154.140 222.373 C 161.500 224.608, 163.500 225.714, 167.642 229.834 C 172.379 234.546, 178.728 237.727, 186.931 239.498 C 189.137 239.974, 192.106 242.029, 195.247 245.254 C 199.296 249.410, 201.872 250.944, 210.292 254.209 C 217.730 257.093, 221.677 259.295, 225.026 262.428 C 227.888 265.104, 231.641 267.375, 235.050 268.492 C 243.751 271.341, 249.190 274.494, 253.781 279.349 C 257.059 282.815, 259.403 284.256, 263.781 285.495 C 266.927 286.385, 270.314 287.351, 271.309 287.643 C 272.303 287.934, 275.756 290.526, 278.981 293.404 C 283.409 297.355, 286.395 299.091, 291.172 300.492 C 300.216 303.144, 302.866 304.602, 308.500 310.028 C 312.615 313.991, 315.182 315.420, 323 318.097 C 331.204 320.907, 333.119 322.014, 337.039 326.214 C 340.611 330.043, 342.897 331.489, 347.779 333.008 C 356.424 335.699, 359.606 337.515, 365.579 343.163 C 369.615 346.980, 372.206 348.486, 377.193 349.912 C 380.723 350.922, 385.027 352.479, 386.756 353.374 C 391.200 355.672, 393.075 355.447, 405.801 351.090 C 415.255 347.854, 417.707 346.571, 420.801 343.243 C 425.142 338.574, 430.378 335.761, 438 334.004 C 445.214 332.341, 446.569 331.596, 452.503 326.039 C 457.394 321.459, 461.918 319.231, 471 316.930 C 474.272 316.102, 476.728 314.484, 480 311.003 C 485.403 305.254, 486.172 304.843, 496.924 301.952 C 504.542 299.904, 505.833 299.186, 510.424 294.448 C 514.759 289.973, 516.595 288.880, 523 286.963 C 533.105 283.938, 535.708 282.552, 541.101 277.326 C 545.024 273.526, 547.107 272.457, 555.222 270.081 C 565.567 267.053, 567.401 266.066, 571.296 261.430 C 574.089 258.105, 578.368 255.976, 587.065 253.583 C 591.072 252.480, 594.290 250.598, 598.562 246.860 C 604.846 241.362, 609.505 238.892, 617.260 236.950 C 620.610 236.111, 623.796 234.172, 628.019 230.404 C 634.006 225.062, 634.751 224.731, 649.301 220.957 C 653.006 219.996, 654.931 218.700, 657.730 215.285 C 661.762 210.365, 665.219 208.355, 675.423 204.999 C 680.041 203.480, 683.752 201.427, 686.566 198.833 C 688.886 196.694, 693.870 193.437, 697.642 191.596 C 709.165 185.970, 708.055 193.129, 708.221 123.379 C 708.385 54.757, 708.693 57.695, 701.018 54.624 C 697.304 53.138, 671.787 53.004, 400.230 53.044 C 144.460 53.082, 102.948 53.287, 99.500 54.529 M 696.500 222.479 C 682.251 227.271, 676.631 230.058, 671.568 234.847 C 667.010 239.158, 664.946 240.259, 656.437 242.919 C 647.646 245.666, 646.077 246.530, 641.880 250.931 C 637.897 255.107, 636.051 256.190, 629.838 257.993 C 625.802 259.164, 621.028 260.583, 619.229 261.146 C 617.426 261.710, 614.510 263.971, 612.729 266.188 C 608.942 270.901, 606.740 272.154, 596.566 275.385 C 590.468 277.321, 587.867 278.833, 583.198 283.156 C 578.141 287.838, 576.225 288.876, 568.190 291.281 C 560.457 293.596, 558.118 294.818, 553.613 298.898 C 548.490 303.537, 545.881 304.757, 534.415 307.872 C 531.744 308.597, 528.403 310.848, 524.760 314.377 C 519.923 319.062, 517.918 320.195, 509.531 322.990 C 501.917 325.526, 499.054 327.033, 496.011 330.107 C 491.724 334.437, 485.945 337.238, 476.297 339.661 C 470.789 341.045, 469.341 341.912, 466.184 345.722 C 461.834 350.971, 459.750 352.164, 448.989 355.563 C 442.575 357.589, 439.761 359.141, 435.496 363.003 C 431.232 366.865, 428.583 368.326, 422.804 370.003 C 409.286 373.926, 409.026 374.049, 407.327 377.333 C 403.070 385.561, 403.146 382.271, 403.066 561.823 C 403.023 656.246, 403.380 735.901, 403.859 738.837 C 404.380 742.032, 405.581 745.025, 406.853 746.297 L 408.977 748.421 521.036 748.310 L 633.095 748.199 640.040 741.349 C 649.763 731.760, 653.610 727.911, 658.501 722.875 C 660.838 720.469, 664.190 717.426, 665.950 716.112 C 667.709 714.799, 670.200 712.059, 671.485 710.024 C 672.770 707.989, 676.095 704.864, 678.875 703.080 C 681.978 701.089, 685.098 697.936, 686.959 694.913 C 688.862 691.819, 691.813 688.866, 694.896 686.969 C 700.514 683.512, 701.866 681.717, 705.509 672.875 L 708.136 666.500 708.031 445.616 C 707.962 300.708, 707.583 224.089, 706.928 222.866 C 705.752 220.669, 702.268 220.539, 696.500 222.479 M 94 222.965 C 92.677 223.814, 92.441 249.808, 92 443.713 L 91.500 663.500 94.265 667.500 C 95.786 669.700, 98.164 673.653, 99.549 676.284 C 101.374 679.750, 103.644 682.067, 107.784 684.691 C 110.928 686.684, 116.017 690.831, 119.092 693.907 C 122.168 696.983, 130.569 705.350, 137.760 712.500 C 144.952 719.650, 151.661 726.322, 152.668 727.326 C 153.676 728.330, 158.578 732.869, 163.562 737.414 C 177.504 750.125, 167.682 749.166, 280.228 748.804 L 374.955 748.500 377.728 745.727 L 380.500 742.955 380.500 564.227 C 380.500 375.946, 380.583 379.583, 376.163 375.163 C 375.210 374.210, 370.396 372.157, 365.465 370.600 C 357.592 368.114, 355.937 367.167, 351.880 362.820 C 348.248 358.929, 345.958 357.466, 341.167 355.975 C 332.146 353.167, 327.480 350.479, 323.907 346.033 C 320.682 342.021, 317.483 340.434, 307.500 337.895 C 303.830 336.962, 301.037 335.249, 297 331.455 C 291.702 326.478, 287.409 324.310, 278.282 322.005 C 275.064 321.193, 272.936 319.634, 269.309 315.433 C 265.344 310.841, 263.637 309.671, 259.028 308.389 C 245.067 304.507, 243.573 303.785, 238.500 298.476 C 234.025 293.793, 232.557 292.957, 224.522 290.518 C 216.465 288.073, 215.018 287.246, 210.429 282.470 C 206.313 278.187, 204.161 276.815, 199.407 275.448 C 191.389 273.143, 188.798 271.703, 182.667 266.151 C 178.328 262.222, 175.962 260.982, 169.038 259.011 C 161.715 256.926, 159.973 255.961, 155.222 251.359 C 150.586 246.869, 148.423 245.640, 140.536 243.012 C 132.283 240.262, 130.760 239.359, 126.394 234.617 C 122.201 230.064, 120.282 228.870, 113 226.283 C 103.239 222.815, 96.163 221.579, 94 222.965" stroke="none" fill="#444" fill-rule="evenodd"/></svg>