<svg xmlns="http://www.w3.org/2000/svg" width="1000" height="1000" viewBox="0 0 1000 1000" version="1.1"><path d="M 116.110 62.077 C 111.682 62.951, 108.604 65.003, 106.875 68.234 C 105.516 70.773, 105.710 776.943, 107.073 790.300 C 108.486 804.145, 113.143 821.522, 118.533 833.063 C 120.990 838.323, 123 843.079, 123 843.632 C 123 844.185, 123.700 846.993, 124.555 849.873 C 125.739 853.859, 127.723 856.828, 132.861 862.305 C 136.574 866.262, 141.553 872.425, 143.926 876 C 149.491 884.386, 153.762 888.864, 163 895.997 C 167.125 899.183, 173.427 904.649, 177.005 908.144 C 183.262 914.258, 185.928 915.830, 196.206 919.467 C 198.795 920.383, 204 923.718, 207.773 926.878 C 214.099 932.176, 215.366 932.792, 224.066 934.800 C 244.925 939.612, 265.764 940.004, 500.500 940.004 C 735.236 940.004, 756.075 939.612, 776.934 934.800 C 785.634 932.792, 786.901 932.176, 793.227 926.878 C 797 923.718, 802.205 920.383, 804.794 919.467 C 815.072 915.830, 817.738 914.258, 823.995 908.144 C 827.573 904.649, 833.875 899.183, 838 895.997 C 847.238 888.864, 851.509 884.386, 857.074 876 C 859.447 872.425, 864.426 866.262, 868.139 862.305 C 873.277 856.828, 875.261 853.859, 876.445 849.873 C 877.300 846.993, 878 844.185, 878 843.632 C 878 843.079, 880.010 838.323, 882.467 833.063 C 887.857 821.522, 892.514 804.145, 893.927 790.300 C 894.626 783.450, 894.984 663.452, 895.017 424.833 C 895.064 79.142, 895.015 69.496, 893.193 67.032 C 892.163 65.640, 890.011 63.825, 888.410 63 C 885.840 61.675, 840.850 61.483, 503 61.356 C 290.794 61.276, 118.545 61.597, 116.110 62.077 M 130.588 71.708 C 129.320 72.372, 127.206 75.297, 125.891 78.208 L 123.500 83.500 123.500 442.500 C 123.500 786.109, 123.578 801.864, 125.323 810 C 127.468 820.003, 129.370 824.301, 135.379 832.731 C 137.821 836.158, 140.577 841.108, 141.503 843.731 C 145.798 855.900, 147.595 858.578, 162.341 874.781 C 177.384 891.312, 179.558 893.146, 191.701 899.548 C 195.441 901.519, 200.750 905.301, 203.500 907.952 C 209.004 913.259, 210.863 914.023, 225.500 916.998 C 231 918.116, 240.900 920.819, 247.500 923.004 C 254.100 925.190, 262.425 927.503, 266 928.144 C 270.780 929.002, 331.524 929.410, 495.500 929.687 C 746.251 930.110, 734.074 930.420, 754.604 923.099 C 760.597 920.961, 769.498 918.464, 774.384 917.549 C 787.681 915.059, 791.931 913.311, 797.542 908.028 C 800.315 905.416, 806.120 901.339, 810.441 898.968 C 818.776 894.393, 830.776 883.242, 846.321 865.624 C 853.960 856.967, 856.129 853.371, 859.478 843.808 C 860.382 841.227, 862.187 837.627, 863.490 835.808 C 874.175 820.891, 875.572 816.894, 877.056 797 C 877.713 788.199, 877.965 661.491, 877.782 433 L 877.500 82.500 875.413 78 C 874.264 75.525, 872.631 72.927, 871.783 72.227 C 869.575 70.405, 134.058 69.890, 130.588 71.708" stroke="none" fill="#444" fill-rule="evenodd"/></svg>