<svg xmlns="http://www.w3.org/2000/svg" width="1000" height="1000" viewBox="0 0 1000 1000" version="1.1"><path d="M 859.021 63.116 C 855.777 64.410, 853 66.967, 853 68.659 C 853 70.574, 868.728 82, 871.364 82 C 879.897 82, 881.259 67.771, 873.128 63.566 C 869.757 61.823, 862.817 61.601, 859.021 63.116 M 126.104 66.535 C 122.316 70.849, 122.237 72.255, 125.635 74.927 C 129.178 77.714, 132.361 77.537, 139.500 74.158 C 145.806 71.172, 148.580 68.747, 147.566 67.107 C 146.201 64.899, 140.369 63, 134.950 63 C 129.628 63, 128.980 63.259, 126.104 66.535 M 862.500 221.055 L 854.500 225.031 613 225.368 C 407.877 225.655, 369.768 225.927, 360 227.175 C 349.256 228.548, 341 231.113, 341 233.079 C 341 236.501, 340.264 236.490, 600.500 237 C 853.329 237.496, 855.527 237.517, 858.694 239.500 C 860.451 240.600, 863.990 242.787, 866.559 244.359 L 871.230 247.219 873.865 245.266 C 877.149 242.832, 878.870 238.070, 878.944 231.218 C 879.009 225.067, 877.021 219.617, 874.150 218.080 C 871.393 216.605, 871.519 216.573, 862.500 221.055 M 276 244.848 C 267.389 246.861, 264.726 248.125, 262.551 251.230 C 260.046 254.807, 260.556 257.744, 263.806 258.457 C 266.979 259.154, 286.986 257.460, 293.910 255.908 C 301.256 254.262, 306.883 251.350, 308.168 248.531 C 310.116 244.255, 308.306 243.524, 295.203 243.297 C 286.944 243.154, 281.293 243.610, 276 244.848 M 233.500 264.110 C 226.874 265.617, 223.373 268.064, 220.357 273.299 C 217.647 278.003, 217.085 278.398, 209.422 280.986 C 199.673 284.278, 192.769 288.183, 189.745 292.114 C 188.510 293.720, 186.441 296.383, 185.146 298.034 C 183.819 299.726, 179.666 302.480, 175.625 304.347 C 167.950 307.893, 167.651 308.282, 163.270 320.391 C 161.625 324.937, 160.977 325.550, 154.082 329.094 C 150.001 331.190, 145.127 334.486, 143.250 336.419 C 141.373 338.351, 137.287 341.120, 134.169 342.571 C 131.051 344.022, 127.414 345.725, 126.086 346.355 C 121.918 348.333, 119.631 355.218, 119.561 366 C 119.495 376.239, 120.996 380.857, 125.103 383.055 C 129.875 385.609, 134.001 381.691, 137.514 371.274 C 139.811 364.464, 142.652 359.992, 147.104 356.180 C 149.711 353.948, 152.428 349.850, 155.391 343.680 C 159.367 335.401, 160.473 333.984, 166.650 329.242 C 176.371 321.780, 189.105 310.377, 194.432 304.363 C 198.075 300.251, 200.298 298.761, 205.578 296.897 C 213.580 294.072, 216.514 291.518, 217.971 286.109 C 219.346 281.002, 221.835 279.353, 229.500 278.471 C 236.503 277.665, 247.523 273.634, 250.750 270.698 C 252.070 269.498, 253 267.483, 253 265.826 L 253 263 245.250 263.100 C 240.988 263.156, 235.700 263.610, 233.500 264.110 M 866.252 841.366 C 864.626 843.217, 862.466 847.502, 861.452 850.888 C 859.290 858.106, 858.261 859.170, 851.219 861.462 C 844.824 863.544, 840.575 866.954, 837.940 872.117 C 836.557 874.828, 834.528 876.712, 831.146 878.426 C 825.348 881.364, 817.054 887.541, 815.046 890.417 C 811.952 894.847, 803.234 902.130, 797.500 905.074 C 791.133 908.343, 788.927 910.429, 785.147 916.754 C 781.857 922.257, 779.181 923.512, 765.539 925.953 L 753.577 928.093 492.391 928.038 C 270.412 927.991, 230.626 927.772, 227.352 926.575 C 225.233 925.801, 221.025 923.946, 218 922.452 C 214.975 920.959, 210.925 919.197, 209 918.537 C 206.439 917.658, 204.818 916.094, 202.958 912.704 C 199.422 906.260, 196.760 903.684, 189.814 899.982 C 185.291 897.571, 183.394 895.873, 182.151 893.126 C 178.972 886.095, 176.213 883.311, 169.548 880.407 C 163.749 877.881, 162.861 877.103, 161.099 873.009 C 158.273 866.440, 155.132 863.520, 148.150 860.974 C 142.403 858.879, 141.934 858.468, 140.898 854.623 C 138.404 845.358, 133.930 840, 128.690 840 C 125.246 840, 123 843.013, 123 847.633 C 123 852.690, 127.589 857.497, 133.443 858.571 C 138.454 859.491, 141.508 862.544, 142.431 867.557 C 143.376 872.690, 147.144 876.555, 153.149 878.549 C 158.501 880.327, 161.518 883.460, 162.536 888.297 C 163.464 892.703, 167.616 896.820, 172.443 898.119 C 178.483 899.746, 181.824 902.543, 182.587 906.613 C 183.581 911.911, 187.378 915.761, 193.337 917.512 C 200.617 919.652, 201.201 920.181, 204 927.162 C 207.295 935.378, 210.741 937.547, 219.978 937.217 C 223.565 937.089, 344.175 936.733, 488 936.425 C 689.733 935.994, 750.757 936.141, 755 937.069 C 769.956 940.339, 780.996 936.855, 792.131 925.351 C 796.207 921.139, 801.215 917.215, 805.131 915.163 C 810.286 912.463, 812.080 910.841, 814.535 906.663 C 817.572 901.493, 818.812 900.590, 829.500 895.760 C 833.761 893.834, 834.894 892.692, 837.166 888.028 C 840.304 881.584, 842.699 879.421, 848.345 877.926 C 853.799 876.483, 857.502 872.850, 859.010 867.465 C 860.499 862.146, 862.023 860.737, 868.606 858.596 C 875.737 856.276, 878.336 853.235, 878.427 847.104 C 878.563 838.012, 871.938 834.890, 866.252 841.366" stroke="none" fill="#444" fill-rule="evenodd"/></svg>