<svg xmlns="http://www.w3.org/2000/svg" width="800" height="800" viewBox="0 0 800 800" version="1.1"><path d="M 103.816 49.172 C 101.946 49.554, 99.165 51.335, 97.357 53.307 L 94.182 56.772 94.341 366.136 C 94.496 667.678, 94.548 675.610, 96.400 679.853 C 97.618 682.644, 100.193 685.693, 103.580 688.353 C 106.484 690.634, 110.225 694.386, 111.894 696.692 C 113.563 698.998, 117.314 702.647, 120.230 704.801 C 123.146 706.955, 126.779 710.517, 128.303 712.716 C 129.827 714.915, 133.096 718.166, 135.567 719.941 C 138.039 721.716, 141.866 725.611, 144.072 728.597 C 146.278 731.583, 149.799 735.162, 151.896 736.550 C 153.994 737.938, 158.199 741.891, 161.240 745.334 C 164.740 749.296, 168.189 752.120, 170.635 753.028 C 173.940 754.254, 207.400 754.508, 401.500 754.781 C 568.571 755.016, 630.072 754.800, 634.455 753.960 C 646.151 751.719, 650.388 749.495, 654.357 743.517 C 656.636 740.086, 659.983 736.793, 663.443 734.580 C 667.036 732.281, 669.625 729.696, 670.967 727.064 C 672.135 724.775, 675.334 721.339, 678.418 719.061 C 681.390 716.865, 685.111 713.141, 686.687 710.784 C 688.263 708.428, 691.862 704.925, 694.684 703 C 697.506 701.075, 701.339 697.479, 703.202 695.008 C 705.065 692.538, 708.531 689.213, 710.904 687.619 C 713.335 685.986, 715.826 683.268, 716.609 681.393 C 717.787 678.575, 718 630.445, 718 367.500 C 718 38.110, 718.174 51.155, 713.749 49.457 C 711.724 48.680, 107.603 48.397, 103.816 49.172 M 112.244 63.919 C 108.384 64.387, 106.260 65.285, 104.244 67.301 L 101.500 70.045 101.242 152.272 C 101.002 229.032, 101.101 234.733, 102.742 238 C 104.021 240.546, 105.261 241.587, 107.292 241.821 C 112.593 242.429, 124.535 238.906, 135.647 233.456 C 148.827 226.991, 163.124 221.666, 171.982 219.924 C 176.598 219.016, 180.169 217.427, 184.928 214.165 C 192.817 208.758, 196.455 207.572, 209.519 206.143 C 220.958 204.893, 228.766 202.826, 234.500 199.530 C 243.725 194.227, 254.910 191.752, 279.500 189.569 C 303.236 187.463, 308.515 186.534, 317.724 182.847 C 335.265 175.823, 336.371 175.730, 408.500 175.265 C 493.129 174.718, 504.390 175.513, 519 183.065 C 526.082 186.726, 530.528 187.656, 547 188.923 C 571.860 190.836, 583.268 193.397, 592.061 199.039 C 597.446 202.494, 602.958 204.249, 615.500 206.499 C 628.387 208.811, 633.335 210.630, 638.625 215.001 C 642.091 217.866, 645.112 219.286, 650.394 220.535 C 666.202 224.273, 668.230 225.105, 673.445 230.001 C 679.502 235.689, 691.981 240.601, 697.663 239.535 C 704.496 238.254, 704.144 242.995, 704.125 152.603 C 704.114 97.712, 703.766 70.431, 703.060 69.113 C 702.484 68.036, 700.824 66.220, 699.371 65.078 L 696.730 63 407.115 63.141 C 247.827 63.218, 115.135 63.568, 112.244 63.919 M 394.500 198.613 C 392.850 198.851, 387.900 199.914, 383.500 200.977 C 374.387 203.176, 351.394 206.201, 326.500 208.474 C 317.150 209.328, 307.700 210.249, 305.500 210.521 C 303.300 210.793, 293.914 211.931, 284.642 213.050 C 268.959 214.944, 267.233 215.363, 259.880 219.060 C 250.502 223.775, 243.489 225.526, 228 227.019 C 212.862 228.478, 210.035 229.305, 202.477 234.479 C 196.018 238.901, 192.222 240.063, 175 242.885 C 170.486 243.625, 167.970 244.598, 166.765 246.068 C 164.380 248.978, 165.708 251.080, 172.274 254.786 C 175.466 256.587, 178.693 259.449, 180.341 261.939 C 182.502 265.204, 184.685 266.818, 190.563 269.497 C 195.860 271.911, 199.562 274.496, 203.269 278.368 C 206.674 281.924, 210.877 284.962, 215.308 287.070 C 220.469 289.525, 222.854 291.381, 225.169 294.746 C 227.497 298.130, 229.732 299.861, 234.581 302.036 C 239.289 304.149, 241.662 305.952, 243.720 308.980 C 245.691 311.880, 248.537 314.115, 253.500 316.662 C 257.459 318.694, 263.559 323.132, 267.542 326.877 C 272.367 331.415, 276.295 334.138, 280.020 335.527 C 284.236 337.099, 286.294 338.662, 289.189 342.492 C 291.897 346.075, 294.649 348.264, 299.211 350.465 C 303.831 352.695, 306.252 354.635, 308.335 357.779 C 310.360 360.834, 312.934 362.941, 317.335 365.146 C 320.726 366.845, 326.288 370.896, 329.696 374.148 C 333.390 377.674, 338.235 381.093, 341.696 382.614 C 348.154 385.455, 351.486 388.146, 353.620 392.248 C 354.574 394.082, 357.455 396.153, 362.275 398.471 C 367.564 401.015, 370.264 403.038, 372.350 406.021 C 374.375 408.917, 377.061 410.976, 381.633 413.136 C 385.568 414.996, 390.419 418.485, 394.123 422.121 C 397.586 425.520, 403.031 429.502, 406.840 431.420 C 411.315 433.674, 414.914 436.452, 417.810 439.888 C 420.180 442.699, 422.625 445, 423.244 445 C 426.762 445, 433.225 449.528, 435.676 453.711 C 437.819 457.367, 439.493 458.754, 444.452 460.979 C 448.472 462.782, 452.395 465.630, 455.858 469.258 C 459.446 473.017, 463.115 475.644, 467.318 477.464 C 477.632 481.929, 478.222 482.339, 481.151 487.096 C 483.497 490.904, 485.095 492.165, 490.472 494.451 C 495.622 496.639, 497.673 498.198, 500.400 501.994 C 502.929 505.514, 505.368 507.480, 509.624 509.428 C 512.937 510.945, 518.067 514.628, 521.625 518.044 C 525.550 521.813, 530.204 525.072, 534.259 526.892 C 538.844 528.949, 541.796 531.135, 544.585 534.538 C 547.345 537.907, 550.327 540.128, 554.762 542.118 C 559.801 544.378, 561.572 545.817, 563.767 549.430 C 565.823 552.814, 567.862 554.575, 572 556.539 C 575.025 557.976, 580.200 561.774, 583.500 564.981 C 587.376 568.748, 592.418 572.264, 597.742 574.913 C 604.203 578.128, 606.540 579.895, 608.558 583.091 C 610.468 586.117, 612.597 587.814, 616.816 589.671 C 623.647 592.680, 625.624 594.346, 628.086 599.171 C 629.603 602.142, 631.059 603.252, 635.730 604.997 C 641.956 607.323, 645.363 609.624, 651.934 615.937 C 654.251 618.163, 659.069 621.619, 662.641 623.616 C 666.842 625.965, 670.064 628.650, 671.762 631.217 C 673.634 634.046, 676.165 636.025, 680.568 638.106 C 685.564 640.466, 687.393 642.027, 690.123 646.263 C 693.031 650.772, 693.994 651.541, 697.051 651.799 C 699.540 652.008, 701.114 651.531, 702.313 650.206 C 703.914 648.437, 704.026 636.499, 704.053 463.848 C 704.070 362.390, 703.816 278.684, 703.490 277.834 C 703.163 276.984, 699.280 273.007, 694.861 268.997 C 687.412 262.238, 686.196 261.528, 678.233 259.285 C 668.265 256.478, 665.011 254.939, 659.468 250.410 C 654.672 246.492, 652.876 245.758, 641.452 243.045 C 631.042 240.573, 625.487 238.208, 621.696 234.637 C 617.159 230.363, 613.968 229.209, 601.913 227.482 C 584.786 225.029, 578.259 223.307, 570 219.063 C 561.288 214.586, 548.094 212.083, 519.500 209.482 C 510.150 208.631, 498.900 207.299, 494.500 206.521 C 490.100 205.743, 482.910 204.829, 478.523 204.491 C 474.135 204.152, 466.260 202.722, 461.023 201.312 C 452.083 198.905, 449.847 198.730, 424.500 198.464 C 409.650 198.308, 396.150 198.375, 394.500 198.613 M 133.738 261.737 C 131.520 264.188, 131.550 265.283, 133.894 267.404 C 135.264 268.644, 137.133 269.033, 140.644 268.809 C 144.659 268.554, 145.551 268.144, 145.794 266.445 C 146.466 261.747, 137.055 258.072, 133.738 261.737 M 103.250 277.116 C 99.948 280.509, 103.081 284.124, 110.822 285.854 C 115.910 286.991, 118.568 289.129, 119.484 292.824 C 120.474 296.813, 123.712 299.743, 129.111 301.537 C 137.691 304.387, 141.148 302.710, 139.579 296.461 C 139.092 294.519, 137.653 293.684, 131.788 291.937 C 124.536 289.777, 122.719 288.402, 115.970 279.966 C 113.989 277.489, 112.471 276.699, 108.970 276.318 C 106.069 276.002, 104.061 276.282, 103.250 277.116 M 156 278.847 C 156 281.377, 160.555 284, 164.950 284 C 167.315 284, 168 283.559, 168 282.035 C 168 279.668, 165.652 278.288, 160.125 277.404 C 156.391 276.807, 156 276.943, 156 278.847 M 177.040 293.452 C 175.178 295.695, 176.824 299.029, 180.564 300.591 C 184.892 302.400, 186.491 302.367, 188.429 300.429 C 190.535 298.322, 190.408 296.408, 188 294 C 185.605 291.605, 178.853 291.267, 177.040 293.452 M 146.250 307.612 C 144.260 308.495, 144.786 313.723, 147.079 315.859 C 149.262 317.893, 154.135 319.039, 157.195 318.239 C 159.698 317.584, 159.620 311.871, 157.078 309.570 C 155.121 307.799, 148.518 306.605, 146.250 307.612 M 196.035 308.935 C 194.575 311.662, 196.366 315.803, 199.326 316.546 C 200.645 316.877, 203.248 317.002, 205.112 316.824 C 207.927 316.555, 208.552 316.055, 208.805 313.866 C 209.434 308.437, 198.551 304.234, 196.035 308.935 M 102.992 318.015 C 102.233 319.434, 101.912 371.276, 101.909 493.209 L 101.904 666.388 106.418 670.944 C 108.901 673.450, 112.429 677.525, 114.258 680 C 116.087 682.475, 119.693 685.887, 122.273 687.582 C 124.852 689.277, 128.544 692.734, 130.476 695.265 C 132.408 697.795, 135.851 700.909, 138.127 702.183 C 140.626 703.582, 143.698 706.661, 145.883 709.954 C 147.896 712.990, 151.732 716.929, 154.533 718.838 C 157.301 720.723, 160.901 724.339, 162.533 726.871 C 164.165 729.404, 167.055 732.381, 168.955 733.488 C 170.856 734.595, 175.211 738.313, 178.634 741.750 C 182.057 745.188, 185.677 748.041, 186.679 748.092 C 195.667 748.546, 625.329 747.818, 627.907 747.344 C 630.157 746.931, 632.873 745.114, 635.907 741.991 C 638.433 739.391, 642.617 736.049, 645.204 734.564 C 652.611 730.312, 652.831 726.174, 645.873 721.992 C 643.593 720.621, 640.429 717.475, 638.843 715 C 636.651 711.580, 634.467 709.780, 629.748 707.500 C 625.436 705.417, 622.505 703.124, 620.162 700 C 618.016 697.139, 614.732 694.451, 611.143 692.620 C 604.800 689.383, 598.456 684.697, 595.567 681.116 C 594.504 679.798, 590.422 677.256, 586.496 675.466 C 579.865 672.445, 577.485 670.398, 572.790 663.677 C 571.849 662.331, 568.742 660.390, 565.884 659.365 C 562.020 657.978, 559.510 656.129, 556.094 652.152 C 552.931 648.470, 549.320 645.702, 544.500 643.265 C 540.087 641.034, 535.277 637.467, 531.484 633.613 C 527.113 629.172, 524.009 626.984, 520.134 625.614 C 515.853 624.100, 514.094 622.744, 511.218 618.740 C 508.427 614.856, 506.243 613.128, 501.347 610.931 C 496.740 608.864, 494.317 607.025, 492.280 604.047 C 490.411 601.314, 487.295 598.802, 482.771 596.379 C 479.070 594.396, 473.724 590.463, 470.891 587.637 C 467.668 584.424, 462.699 581.002, 457.620 578.500 C 450.849 575.165, 449.120 573.805, 447.212 570.317 C 445.814 567.762, 443.707 565.622, 441.795 564.817 C 433.311 561.246, 430.327 559.218, 427.673 555.224 C 425.458 551.889, 423.195 550.170, 417.395 547.418 C 412.325 545.012, 407.963 541.917, 403.694 537.694 C 399.233 533.283, 395.951 530.992, 392.292 529.736 C 389.188 528.671, 386.234 526.797, 384.827 525.003 C 383.547 523.369, 381.453 520.676, 380.174 519.016 C 378.895 517.357, 377.427 516, 376.913 516 C 373.974 516, 366.618 511.275, 364.228 507.852 C 362.457 505.315, 359.139 502.686, 354.772 500.360 C 351.072 498.388, 345.154 494.127, 341.622 490.891 C 337.805 487.393, 332.545 483.815, 328.654 482.069 C 323.781 479.883, 321.315 478.029, 319.004 474.816 C 316.844 471.812, 314.022 469.588, 309.719 467.500 C 305.464 465.435, 302.480 463.097, 300.146 460 C 297.889 457.006, 294.536 454.331, 290.127 452.007 C 286.379 450.030, 280.644 445.687, 276.925 442.007 C 272.277 437.407, 268.766 434.906, 264.947 433.473 C 260.766 431.905, 258.693 430.321, 255.785 426.473 C 252.882 422.631, 250.488 420.800, 245.260 418.421 C 240.351 416.188, 237.807 414.314, 235.996 411.601 C 234.526 409.397, 231.445 406.812, 228.500 405.312 C 223.397 402.711, 218.066 398.707, 212.230 393.092 C 210.432 391.361, 205.707 388.395, 201.730 386.501 C 195.851 383.699, 193.962 382.199, 191.620 378.467 C 189.345 374.844, 187.348 373.208, 182.120 370.689 C 177.130 368.285, 174.790 366.429, 172.615 363.148 C 170.413 359.825, 168.261 358.136, 163.521 356.010 C 159.803 354.341, 154.725 350.803, 150.860 347.188 C 147.126 343.695, 141.587 339.805, 137.715 337.955 C 132.270 335.354, 130.475 333.867, 128.081 329.977 C 125.592 325.932, 124.243 324.864, 119.319 323.039 C 116.119 321.853, 111.822 319.784, 109.771 318.441 C 105.245 315.478, 104.379 315.423, 102.992 318.015 M 163.667 322.667 C 163.300 323.033, 163 324.764, 163 326.512 C 163 331.470, 165.990 333.487, 173.349 333.494 C 179.033 333.500, 179.525 333.323, 179.830 331.168 C 180.434 326.906, 173.950 322, 167.716 322 C 165.856 322, 164.033 322.300, 163.667 322.667 M 215 326.326 C 215 330.922, 217.386 332.306, 225.498 332.418 C 231.219 332.496, 231.500 332.386, 231.500 330.056 C 231.500 326.866, 226.858 324.126, 220.097 323.325 L 215 322.721 215 326.326 M 185.398 340.406 C 185.094 341.197, 185.306 342.703, 185.868 343.753 C 187.201 346.244, 198.035 352, 201.390 352 C 203.636 352, 204 351.572, 204 348.934 C 204 342.781, 201.731 341.241, 190.225 339.584 C 187.007 339.121, 185.813 339.324, 185.398 340.406 M 241.750 341.080 C 237.238 343.708, 242.372 350, 249.028 350 C 252.736 350, 254 348.835, 254 345.418 C 254 341.222, 246.230 338.471, 241.750 341.080 M 207.737 355.223 C 206.417 356.204, 206.203 357.180, 206.813 359.432 C 207.978 363.733, 212.077 366.361, 217.738 366.436 L 222.500 366.500 222.805 362.309 C 223.057 358.834, 222.715 357.870, 220.805 356.667 C 217.389 354.518, 209.814 353.680, 207.737 355.223 M 259.667 355.667 C 259.300 356.033, 259 357.818, 259 359.631 C 259 363.793, 261.412 365.213, 267.784 364.803 C 272.043 364.529, 272.530 364.244, 272.805 361.866 C 273.218 358.302, 268.999 355, 264.032 355 C 261.998 355, 260.033 355.300, 259.667 355.667 M 227.667 370.667 C 227.300 371.033, 227 372.764, 227 374.512 C 227 379.316, 229.917 381.336, 237.557 381.823 L 244 382.233 244 379.291 C 244 376.304, 241.543 373.302, 237.316 371.125 C 234.930 369.896, 228.732 369.602, 227.667 370.667 M 280.117 372.781 C 278.413 375.966, 281.228 378.698, 287.569 380.014 C 294.019 381.353, 296 380.874, 296 377.975 C 296 376.475, 294.804 375.369, 291.750 374.045 C 284.582 370.938, 281.295 370.581, 280.117 372.781 M 246.639 385.775 C 246.376 386.201, 246.472 388.075, 246.854 389.939 C 247.625 393.709, 251.034 395.986, 259.096 398.117 C 264.946 399.664, 267 398.894, 267 395.154 C 267 391.361, 265.291 390.066, 256.651 387.309 C 248.876 384.828, 247.367 384.597, 246.639 385.775 M 305.250 388.662 C 303.044 389.552, 303.876 393.757, 306.697 395.976 C 308.553 397.436, 310.501 398.004, 312.947 397.799 C 316.021 397.540, 316.544 397.117, 316.825 394.662 C 317.284 390.652, 314.553 387.981, 310.095 388.079 C 308.118 388.122, 305.938 388.385, 305.250 388.662 M 324.200 404.200 C 322.433 405.967, 322.740 409.454, 324.829 411.345 C 327.312 413.593, 334.580 413.572, 335.844 411.314 C 338.592 406.404, 328.290 400.110, 324.200 404.200 M 272.667 404.667 C 271.142 406.191, 272.172 409.990, 274.635 411.927 C 277.949 414.535, 284.479 414.753, 285.851 412.303 C 286.908 410.414, 285.647 406.031, 283.687 404.786 C 282.216 403.850, 273.577 403.757, 272.667 404.667 M 292.750 419.080 C 290.604 420.330, 290.430 425.282, 292.472 426.976 C 294.473 428.638, 301.010 430.030, 303.678 429.363 C 308.632 428.126, 306.649 422.005, 300.454 419.416 C 296.481 417.756, 295.124 417.697, 292.750 419.080 M 343.200 419.200 C 341.846 420.554, 341.642 423.889, 342.803 425.715 C 343.227 426.383, 345.892 427.427, 348.724 428.034 C 357.062 429.822, 361.056 426.265, 355.250 422.221 C 352.783 420.503, 346.735 418, 345.051 418 C 344.693 418, 343.860 418.540, 343.200 419.200 M 312 437.345 C 312 440.380, 314.239 442.331, 321.312 445.459 C 329.556 449.105, 331 448.906, 331 444.122 C 331 439.493, 330.156 438.693, 323.068 436.602 C 315.054 434.238, 312 434.443, 312 437.345 M 369.641 437.245 C 366.948 439.255, 367.981 442.208, 372.164 444.455 C 375.205 446.089, 376.231 446.216, 378.402 445.227 C 381.313 443.900, 381.954 440.037, 379.589 438.074 C 377.295 436.170, 371.705 435.704, 369.641 437.245 M 334.389 450.989 C 332.373 453.045, 334.311 458.293, 338.004 460.782 C 342.798 464.012, 350.339 463.640, 350.833 460.148 C 351.328 456.653, 350.203 453.179, 348.238 452.130 C 345.241 450.531, 335.615 449.737, 334.389 450.989 M 388.664 452.479 C 386.467 454.676, 386.564 456.564, 389 459 C 392.589 462.589, 400 461.211, 400 456.955 C 400 452.795, 391.646 449.496, 388.664 452.479 M 354.951 468.091 C 353.123 471.507, 355.474 475.760, 359.865 476.979 C 367.978 479.233, 372.373 477.309, 370.167 472.468 C 367.592 466.816, 357.229 463.835, 354.951 468.091 M 407.667 467.667 C 406.529 468.804, 406.933 472.700, 408.307 473.840 C 410.257 475.458, 421.155 478.086, 423.211 477.433 C 425.410 476.735, 425.537 473.679, 423.454 471.596 C 420.774 468.917, 409.278 466.055, 407.667 467.667 M 374.983 482.520 C 374.089 483.598, 373.986 484.979, 374.629 487.270 C 375.459 490.227, 376.238 490.736, 383.859 493.297 C 392.693 496.265, 395 495.957, 395 491.812 C 395 487.739, 392.983 486.082, 384.934 483.539 C 375.433 480.538, 376.535 480.650, 374.983 482.520 M 431.384 485.442 C 429.935 489.219, 433.716 493.432, 439.586 494.581 C 445.200 495.679, 448.080 490.080, 444 486 C 441.518 483.518, 432.279 483.109, 431.384 485.442 M 452.200 500.200 C 450.433 501.967, 450.740 505.454, 452.829 507.345 C 455.174 509.467, 462.303 509.544, 464.028 507.466 C 467.596 503.167, 456.221 496.179, 452.200 500.200 M 399.667 500.667 C 398.163 502.170, 399.183 504.977, 402.137 507.462 C 404.620 509.552, 406.131 510.039, 409.387 509.801 C 413.195 509.522, 413.523 509.266, 413.806 506.346 C 414.036 503.982, 413.541 502.792, 411.834 501.596 C 409.578 500.016, 400.974 499.359, 399.667 500.667 M 419.679 515.464 C 417.811 517.332, 417.770 517.541, 418.641 520.790 C 419.487 523.948, 423.942 526, 429.950 526 L 435 526 435 522.568 C 435 519.885, 434.336 518.663, 431.953 516.967 C 427.793 514.004, 421.864 513.278, 419.679 515.464 M 470.667 515.667 C 469.202 517.131, 470.117 521.030, 472.250 522.417 C 475.759 524.699, 484.318 525.527, 485.811 523.728 C 487.681 521.474, 486.287 519.355, 481.432 517.073 C 477.088 515.031, 471.971 514.362, 470.667 515.667 M 438.671 530.415 C 438.372 531.194, 438.464 533.106, 438.876 534.665 C 439.508 537.061, 440.852 537.996, 447.562 540.702 C 457.934 544.887, 459 544.885, 459 540.691 C 459 535.890, 457.428 534.531, 448.497 531.614 C 439.145 528.560, 439.372 528.587, 438.671 530.415 M 497.200 533.200 C 493.763 536.637, 498.874 542.309, 504.947 541.799 C 508.126 541.531, 508.532 541.168, 508.806 538.346 C 509.036 535.982, 508.541 534.792, 506.834 533.596 C 504.146 531.713, 498.902 531.498, 497.200 533.200 M 461.374 547.467 C 460.376 550.068, 462.564 554.439, 466.043 556.796 C 468.597 558.526, 470.549 559.019, 473.966 558.796 C 478.222 558.518, 478.518 558.311, 478.800 555.423 C 478.982 553.567, 478.386 551.464, 477.300 550.124 C 474.393 546.534, 462.494 544.549, 461.374 547.467 M 516.200 548.200 C 514.517 549.883, 514.706 553.564, 516.571 555.429 C 517.530 556.387, 519.882 557, 522.603 557 C 527.451 557, 528.651 555.728, 527.632 551.669 C 526.664 547.812, 518.934 545.466, 516.200 548.200 M 483.200 563.200 C 481.080 565.320, 481.800 569.698, 484.635 571.927 C 486.620 573.489, 488.715 574, 493.135 574 C 498.985 574, 499 573.992, 499 571 C 499 566.155, 493.522 562, 487.135 562 C 485.631 562, 483.860 562.540, 483.200 563.200 M 535.121 564.354 C 531.956 568.168, 536.119 571.284, 546.161 572.616 L 551.160 573.279 550.830 570.389 C 550.580 568.204, 549.601 567.061, 546.812 565.697 C 541.350 563.027, 536.669 562.489, 535.121 564.354 M 502 580.977 C 502 585.750, 503.662 587.090, 512.664 589.577 C 520.080 591.626, 522 591.107, 522 587.054 C 522 583.486, 519.944 581.905, 511.540 579.014 C 502.896 576.040, 502 576.224, 502 580.977 M 558.439 582.191 C 557.903 583.882, 558.462 585.023, 560.888 587.191 C 566.944 592.602, 575.527 590.145, 573.077 583.702 C 571.938 580.707, 570.201 580, 563.986 580 C 559.872 580, 559.029 580.333, 558.439 582.191 M 579.035 596.934 C 577.565 599.682, 577.731 600.731, 580 603 C 581.412 604.412, 583.333 605, 586.531 605 C 591.454 605, 592.655 603.745, 591.632 599.669 C 590.522 595.249, 581.039 593.190, 579.035 596.934 M 527.384 597.442 C 525.693 601.849, 531.872 607.311, 537.968 606.797 C 541.171 606.528, 541.530 606.189, 541.820 603.156 C 542.308 598.063, 539.856 596, 533.314 596 C 529.554 596, 527.771 596.433, 527.384 597.442 M 547.079 612.404 C 545.291 614.560, 546.881 618.887, 550.068 620.535 C 551.626 621.341, 555.173 622, 557.950 622 C 562.860 622, 563 621.919, 563 619.089 C 563 614.785, 558.108 611, 552.546 611 C 550.073 611, 547.750 611.597, 547.079 612.404 M 598.667 611.667 C 598.300 612.033, 598 613.631, 598 615.218 C 598 617.583, 598.646 618.372, 601.594 619.604 C 603.571 620.430, 607.059 620.969, 609.344 620.803 C 613.014 620.535, 613.500 620.212, 613.500 618.032 C 613.500 616.196, 612.474 614.983, 609.500 613.298 C 605.653 611.120, 600.057 610.277, 598.667 611.667 M 565.460 625.065 C 564.507 626.606, 565.821 632.607, 567.398 633.915 C 569.103 635.330, 582.746 640, 585.175 640 C 586.570 640, 586.996 639.235, 586.985 636.750 C 586.976 634.962, 586.612 632.937, 586.175 632.248 C 585.418 631.056, 569.078 624, 567.073 624 C 566.548 624, 565.822 624.479, 565.460 625.065 M 624.250 628.662 C 621.719 629.684, 622.882 633.957, 626.250 636.011 C 633.758 640.588, 640.771 635.771, 635 630 C 633.084 628.084, 627.428 627.380, 624.250 628.662 M 589.667 643.750 C 588.487 645.714, 591.704 651.397, 594.984 653.145 C 599.346 655.467, 605.550 655.616, 606.393 653.418 C 607.559 650.380, 606.982 647.891, 604.545 645.455 C 602.486 643.395, 601.127 643, 596.104 643 C 592.812 643, 589.915 643.337, 589.667 643.750 M 644.125 643.902 C 642.148 645.154, 642.430 650.110, 644.566 651.672 C 646.830 653.327, 653.193 653.407, 654.800 651.800 C 659.125 647.475, 649.604 640.431, 644.125 643.902 M 610.667 658.667 C 609.207 660.126, 610.065 665.749, 612.015 667.514 C 614.749 669.988, 624.098 670.792, 625.832 668.702 C 627.743 666.400, 626.159 662.068, 622.618 659.909 C 619.615 658.078, 612.042 657.291, 610.667 658.667 M 661.667 658.667 C 660.442 659.892, 660.982 665.740, 662.431 666.943 C 663.218 667.596, 666.269 668.379, 669.211 668.682 C 675.313 669.312, 677.335 667.992, 675.934 664.295 C 674.497 660.505, 663.978 656.355, 661.667 658.667 M 630.351 675.529 C 628.903 679.302, 632.121 682.362, 640.515 685.192 C 644.907 686.673, 648.870 687.517, 649.323 687.069 C 649.775 686.621, 650 684.735, 649.823 682.877 C 649.526 679.775, 649.018 679.309, 643.593 677.162 C 635.068 673.787, 631.202 673.310, 630.351 675.529 M 688 679.500 C 688 680.333, 688.889 681, 690 681 C 692.384 681, 692.653 679.464, 690.418 678.607 C 688.183 677.749, 688 677.817, 688 679.500 M 654.667 692.667 C 653.216 694.117, 654.147 697.098, 657.104 700.465 C 659.470 703.160, 660.985 704, 663.481 704 C 667.225 704, 668.732 702.590, 669.594 698.281 C 670.080 695.848, 669.743 694.933, 667.877 693.627 C 665.564 692.006, 656.021 691.313, 654.667 692.667" stroke="none" fill="#444" fill-rule="evenodd"/></svg>