<svg xmlns="http://www.w3.org/2000/svg" width="800" height="800" viewBox="0 0 800 800" version="1.1"><path d="M 95.500 47.929 C 91.207 48.965, 88.203 50.752, 87.011 52.979 C 86.305 54.299, 85.972 152.113, 85.963 361.183 C 85.949 666.988, 85.952 667.458, 87.969 669.977 C 89.080 671.365, 91.418 674.525, 93.163 677 C 94.909 679.475, 106.949 692.125, 119.919 705.111 C 132.888 718.097, 144.921 730.247, 146.659 732.111 C 153.491 739.442, 165.630 750.827, 168 752.128 C 170.095 753.278, 207.710 753.539, 400 753.741 L 629.500 753.983 634.500 751.534 C 638.298 749.674, 647.941 740.600, 674.613 713.792 C 696.560 691.734, 710.809 676.625, 712.613 673.500 L 715.500 668.500 715.500 361.331 L 715.500 54.161 713.074 51.579 C 711.740 50.159, 709.040 48.550, 707.074 48.004 C 702.905 46.846, 100.295 46.771, 95.500 47.929 M 102.225 53.313 C 101.222 53.760, 99.872 54.975, 99.224 56.012 C 97.505 58.765, 97.383 328.040, 99.100 330.788 C 101.934 335.327, 108.929 336.412, 120.209 334.064 C 125.166 333.032, 126.443 332.249, 129.895 328.125 C 134.695 322.393, 136.782 321.652, 155.704 318.962 C 172.792 316.534, 176.627 315.276, 182.783 310.086 C 190.217 303.817, 193.761 302.754, 206.770 302.891 C 218.885 303.018, 223.155 301.805, 227.499 297.003 C 230.443 293.748, 236.872 290.253, 242.039 289.099 C 244.536 288.542, 251.982 287.648, 258.587 287.113 C 272.432 285.992, 274.625 285.221, 278.011 280.278 C 279.596 277.966, 282.443 275.771, 285.926 274.177 C 290.707 271.987, 293.248 271.611, 306.932 271.066 C 315.495 270.725, 323.366 269.946, 324.425 269.335 C 325.484 268.724, 327.517 266.507, 328.942 264.408 C 333.471 257.740, 336.292 256.765, 353.652 255.868 C 371.115 254.967, 374.039 254.030, 378.206 248.008 C 382.444 241.882, 385.369 240.901, 403.517 239.513 C 420.826 238.190, 422.863 237.531, 426.466 232.093 C 430.059 226.669, 434.905 224.846, 448.359 223.855 C 468.809 222.348, 470.797 221.783, 476 215.998 C 481.429 209.961, 485.915 208.579, 505.011 207.058 C 520.187 205.850, 523.304 204.863, 526.070 200.387 C 529.750 194.432, 535.107 192.733, 555.555 191.034 C 570.353 189.804, 572.755 188.976, 576.288 183.884 C 577.822 181.674, 580.617 179.222, 582.501 178.435 C 584.384 177.648, 593.201 176.310, 602.092 175.461 C 619.567 173.792, 623.084 172.671, 625.500 168 C 628.273 162.637, 634.041 160.807, 653.845 159.003 C 660.634 158.385, 667.267 157.469, 668.584 156.968 C 669.901 156.467, 672.896 154.069, 675.239 151.638 C 678.850 147.892, 680.415 147.046, 685.500 146.087 C 695.664 144.171, 698.529 143.131, 701.060 140.437 C 703.105 138.260, 703.499 136.842, 703.491 131.670 C 703.486 128.276, 703.374 110.278, 703.241 91.673 L 703 57.846 700.001 54.848 L 697.003 51.849 400.525 52.174 C 237.462 52.354, 103.227 52.866, 102.225 53.313 M 685.380 162.381 C 683.664 163.158, 680.739 165.687, 678.880 168.001 C 673.398 174.823, 669.264 176.227, 649.390 178.017 C 634.745 179.336, 632.165 180.150, 629 184.447 C 624.282 190.852, 619.790 192.314, 599.840 193.934 C 592.912 194.496, 586.154 195.371, 584.822 195.878 C 583.489 196.384, 581.224 198.574, 579.789 200.743 C 576.240 206.105, 571.695 207.998, 559.668 209.123 C 534.338 211.493, 535.086 211.299, 529.968 216.836 C 524.187 223.091, 519.261 224.688, 501.500 226.065 C 494.350 226.619, 487.212 227.501, 485.637 228.024 C 484.063 228.547, 480.994 230.997, 478.818 233.469 C 473.958 238.991, 468.495 240.850, 455 241.575 C 434.936 242.652, 435.126 242.600, 429.448 248.510 C 423.155 255.059, 418.358 256.687, 401.500 257.993 C 386.791 259.132, 383.694 260.141, 380.867 264.715 C 379.518 266.897, 377.019 268.989, 374.349 270.170 C 369.577 272.281, 357.260 273.981, 346.651 273.992 C 339.120 274.001, 333.443 276.028, 332.483 279.053 C 331.512 282.113, 326.203 285.888, 320.683 287.443 C 317.833 288.246, 309.469 289.396, 302.098 289.998 C 294.728 290.599, 287.753 291.592, 286.598 292.203 C 285.444 292.814, 282.863 294.991, 280.862 297.042 C 277.338 300.654, 275.172 301.685, 266.295 303.970 C 260.468 305.471, 256 309.418, 256 313.066 C 256 316.374, 258.241 318.166, 264.772 320.079 C 269.401 321.434, 271.941 323.571, 275.355 328.978 C 276.903 331.431, 279.016 332.999, 282.525 334.298 C 288.528 336.520, 291.182 338.860, 293.481 343.957 C 295.045 347.425, 296.114 348.177, 304.336 351.585 C 313.215 355.265, 315.063 356.615, 319.763 362.847 C 321.226 364.787, 323.878 366.452, 327.263 367.556 C 333.916 369.726, 334.901 370.544, 337.248 375.837 C 338.704 379.121, 340.060 380.520, 342.835 381.604 C 350.731 384.687, 352.917 386.292, 354.866 390.438 C 357.300 395.617, 358.304 396.457, 364.525 398.523 C 369.750 400.259, 375.872 404.550, 379.883 409.290 C 381.194 410.839, 385.019 413.481, 388.383 415.162 C 394.969 418.451, 399 421.632, 399 423.539 C 399 426.370, 403.280 429.939, 408.489 431.454 C 413.846 433.011, 414.507 433.588, 419.287 440.874 C 420.774 443.142, 423.094 444.846, 426.361 446.070 C 432.211 448.262, 434.597 450.293, 437.114 455.225 C 438.683 458.299, 440.482 459.651, 447.399 462.952 C 452.488 465.380, 456.827 468.240, 458.440 470.227 C 463.866 476.910, 465.338 478.042, 470.586 479.568 C 475.969 481.133, 477.588 482.563, 482.306 489.921 C 483.848 492.324, 485.893 493.811, 489.182 494.921 C 493.994 496.544, 499 500.428, 499 502.539 C 499 505.160, 503.143 508.780, 507.557 510.016 C 512.021 511.266, 514.665 513.366, 521.676 521.228 C 523.735 523.538, 526.723 525.402, 530.176 526.530 C 538.770 529.340, 540.714 530.704, 543.553 535.919 C 545.202 538.951, 547.255 541.229, 548.870 541.820 C 550.316 542.350, 553.300 543.411, 555.500 544.177 C 558.681 545.284, 560.047 546.586, 562.171 550.535 C 564.536 554.930, 565.568 555.794, 571.171 558.060 C 576.611 560.260, 578.024 561.399, 581.230 566.166 C 584.212 570.602, 585.914 572.071, 589.730 573.502 C 599.920 577.324, 603.903 579.890, 605.987 583.975 C 608.135 588.184, 609.580 589.251, 617.500 592.474 C 621.732 594.197, 622.884 595.277, 625 599.505 C 627.259 604.018, 628.031 604.674, 633 606.307 C 639.379 608.403, 641.610 610.330, 644.447 616.193 C 646.226 619.871, 647.302 620.742, 652.500 622.711 C 656.919 624.384, 659.903 626.455, 663.825 630.572 C 668.502 635.481, 677.312 640.961, 680.576 640.990 C 682.349 641.006, 685.881 645.352, 687.121 649.043 C 687.760 650.944, 688.964 653.288, 689.797 654.250 C 691.944 656.734, 697.332 656.482, 700.488 653.750 L 703.087 651.500 703.068 409.048 L 703.050 166.596 700.614 164.160 C 697.611 161.157, 690.035 160.272, 685.380 162.381 M 228.073 323.635 C 225.288 327.175, 225.368 331.558, 228.250 333.362 C 229.488 334.137, 232.975 335.076, 236 335.450 C 241.788 336.166, 246 338.941, 246 342.039 C 246 346.733, 256.405 352.978, 264.288 353.015 C 268.963 353.038, 270.156 354.208, 270.734 359.335 C 271.458 365.757, 273.590 367.355, 282.073 367.834 L 289 368.226 289 363.567 C 289 356.932, 286.337 354.523, 277.959 353.575 C 274.419 353.174, 271.187 352.319, 270.777 351.673 C 270.366 351.028, 270.024 348.620, 270.015 346.323 C 269.996 341.155, 267.164 338.568, 260.529 337.659 C 253.815 336.739, 250.845 334.783, 247.551 329.115 C 244.217 323.375, 240.300 321, 234.171 321 C 231.013 321, 229.699 321.568, 228.073 323.635 M 196.200 326.200 C 193.126 329.274, 196.785 334.383, 201.662 333.825 C 203.933 333.565, 204.564 332.938, 204.822 330.690 C 204.999 329.144, 204.607 327.231, 203.950 326.440 C 202.499 324.692, 197.852 324.548, 196.200 326.200 M 141.709 339.212 C 139.170 339.886, 136.715 341.657, 134.277 344.573 C 129.605 350.163, 124.900 351.985, 112.697 352.930 C 104.113 353.595, 102.536 354.009, 100.377 356.168 L 97.901 358.644 97.974 511.319 C 98.024 614.680, 98.384 664.880, 99.090 666.737 C 100.034 669.221, 109.895 679.969, 117.500 686.804 C 119.150 688.287, 122.075 691.246, 124 693.381 C 125.925 695.515, 129.750 699.416, 132.500 702.049 C 135.250 704.681, 138.305 707.660, 139.289 708.668 C 169.440 739.543, 176.331 745.910, 181.500 747.673 C 183.521 748.362, 255.750 748.588, 402.739 748.366 C 594.769 748.075, 621.413 747.854, 624.599 746.523 C 629.048 744.664, 642.966 731.286, 647.015 724.977 C 650.701 719.232, 651.931 712.074, 649.627 709.770 C 648.750 708.893, 644.442 706.979, 640.054 705.518 C 631.960 702.822, 629.848 701.272, 625.726 695 C 624.123 692.560, 621.774 690.839, 617.971 689.320 C 612.455 687.115, 609.839 684.744, 606.864 679.255 C 605.683 677.075, 603.849 675.778, 600.258 674.586 C 594.634 672.718, 591.781 670.113, 589.575 664.834 C 588.248 661.658, 587.156 660.852, 580.981 658.493 C 574.885 656.163, 573.369 655.061, 570.007 650.510 C 566.256 645.432, 563.529 643.601, 553.874 639.679 C 551.880 638.869, 549.405 636.993, 548.374 635.511 C 544.009 629.233, 541.299 626.992, 536 625.279 C 530.914 623.634, 530.276 623.071, 527.517 617.799 C 524.778 612.564, 524.063 611.926, 518.775 609.998 C 515.608 608.844, 512.322 606.909, 511.472 605.699 C 510.622 604.490, 508.931 601.998, 507.713 600.161 C 506.177 597.843, 503.716 596.109, 499.665 594.488 C 492.305 591.544, 487.064 587.910, 484.500 583.972 C 483.201 581.977, 479.933 579.674, 475.175 577.402 C 470.018 574.938, 467.355 573, 466.175 570.853 C 463.046 565.156, 461.143 563.359, 456.890 562.085 C 450.795 560.259, 448.370 558.382, 446.692 554.191 C 444.848 549.585, 442.795 547.817, 436.668 545.555 C 432.830 544.139, 431.184 542.756, 428.668 538.836 C 426.019 534.710, 424.039 533.131, 416.581 529.201 C 409.754 525.603, 406.932 523.462, 404.549 520.075 C 401.943 516.369, 400.402 515.304, 395.080 513.527 C 388.745 511.411, 387.132 510.047, 382.666 503.027 C 381.024 500.445, 379.280 499.222, 375.866 498.258 C 370.724 496.806, 368.426 494.690, 365.500 488.715 C 363.352 484.329, 362.966 484.043, 355.761 481.509 C 352.081 480.216, 350.068 478.588, 346.753 474.227 C 342.875 469.124, 341.665 468.286, 333.521 465.055 C 325.586 461.908, 324.301 461.041, 322.321 457.500 C 319.840 453.062, 316.561 450, 314.290 450 C 310.226 450, 305.982 446.655, 303.565 441.547 C 301.266 436.686, 300.639 436.136, 295.082 434.110 C 289.567 432.099, 285 428.095, 285 425.270 C 285 423.516, 280.478 420.259, 275.500 418.429 C 271.917 417.112, 268.658 414.684, 264 409.862 C 258.873 404.555, 256.101 402.580, 250.879 400.512 C 244.993 398.181, 243.967 397.356, 241.634 393.069 C 239.786 389.673, 238.047 387.897, 235.755 387.065 C 227.738 384.153, 225.489 382.479, 222.949 377.530 C 220.804 373.351, 219.601 372.237, 215.390 370.530 C 208.278 367.647, 207.546 367.061, 204.356 361.699 C 201.826 357.446, 200.593 356.506, 193.548 353.465 C 188.073 351.102, 184.024 348.488, 180.548 345.072 C 177.772 342.344, 174.233 339.637, 172.685 339.056 C 169.178 337.741, 146.831 337.854, 141.709 339.212 M 211.200 339.200 C 209.488 340.912, 209.716 346.573, 211.571 348.429 C 212.436 349.293, 214.429 350, 216 350 C 219.758 350, 222 347.619, 222 343.629 C 222 339.454, 220.450 338, 216 338 C 214.020 338, 211.860 338.540, 211.200 339.200 M 228.655 356.829 C 226.589 359.111, 226.564 360.932, 228.557 363.777 C 231.558 368.062, 240 365.317, 240 360.057 C 240 355.670, 231.812 353.340, 228.655 356.829 M 289.560 369.704 C 289.277 370.443, 289.323 373.081, 289.664 375.566 C 290.394 380.891, 292.780 383, 298.073 383 C 300.069 383, 303.063 383.475, 304.727 384.055 C 307.352 384.970, 307.819 385.698, 308.253 389.554 C 308.529 391.999, 309.257 394.604, 309.871 395.345 C 310.485 396.085, 315.706 397.941, 321.472 399.469 L 331.956 402.248 332.610 405.874 C 332.969 407.868, 333.690 410.326, 334.212 411.335 C 336.166 415.113, 347.064 417.536, 349.800 414.800 C 351.569 413.031, 351.258 407.537, 349.250 405.084 C 347.987 403.541, 345.969 402.797, 342 402.409 C 331.934 401.426, 332 401.464, 332 396.672 C 332 394.313, 331.438 391.623, 330.750 390.695 C 330.063 389.767, 325 387.509, 319.500 385.676 L 309.500 382.344 307.921 377.432 C 306.025 371.530, 302.825 369.334, 295.288 368.759 C 291.557 368.474, 289.929 368.743, 289.560 369.704 M 249.937 375.576 C 248.254 377.604, 250.124 378.963, 254.628 378.985 C 258.761 379.005, 260.938 376.572, 258.130 375.070 C 255.238 373.522, 251.447 373.756, 249.937 375.576 M 273.655 388.829 C 270.113 392.743, 273.422 398, 279.429 398 C 283.421 398, 286 395.842, 286 392.500 C 286 391.204, 285.293 389.436, 284.429 388.571 C 282.239 386.382, 275.729 386.537, 273.655 388.829 M 293.009 403.266 C 285.770 406.999, 292.300 417.351, 299.675 413.833 C 301.879 412.782, 302.566 411.699, 302.801 408.907 C 303.247 403.592, 298.113 400.634, 293.009 403.266 M 352.915 419.288 C 351.343 422.738, 352.552 428.690, 355.103 430.055 C 356.212 430.649, 359.905 431.442, 363.310 431.817 L 369.500 432.500 370.526 438.483 C 371.651 445.043, 373.664 446.951, 379.500 446.991 C 381.150 447.002, 384.135 447.465, 386.133 448.020 C 389.179 448.866, 390.108 449.824, 391.878 453.938 C 393.039 456.638, 395.135 459.748, 396.535 460.849 C 399.068 462.842, 406.875 465, 411.549 465 C 413.816 465, 414 464.633, 414 460.111 C 414 453.226, 412.050 451.226, 404 449.855 C 396.360 448.554, 395.295 447.844, 392.993 442.514 C 392.039 440.306, 390.391 437.724, 389.330 436.776 C 386.753 434.474, 379.542 432, 375.409 432 C 371.744 432, 370 429.943, 370 425.622 C 370 421.069, 366.191 417.970, 359.790 417.314 C 354.380 416.759, 354.020 416.863, 352.915 419.288 M 309.960 420.831 C 306.992 423.235, 307.906 427.634, 311.672 429.065 C 314.810 430.258, 320.524 428.682, 321.408 426.379 C 322.249 424.188, 320.285 421.059, 317.374 419.952 C 313.818 418.600, 312.526 418.753, 309.960 420.831 M 335.070 437.262 C 332.532 437.919, 331.937 438.545, 332.186 440.295 C 332.814 444.706, 344.821 446.516, 346.386 442.436 C 348.029 438.154, 342.097 435.441, 335.070 437.262 M 356.500 450.665 C 351.711 451.871, 350.694 456.785, 354.455 460.545 C 359.241 465.332, 367 462.811, 367 456.469 C 367 452.037, 362.009 449.278, 356.500 450.665 M 414.877 465.431 C 413.674 466.683, 415.248 475.521, 417.002 477.360 C 418.085 478.496, 420.670 479.395, 423.638 479.669 C 432.885 480.522, 432.702 480.391, 433.210 486.523 C 433.463 489.574, 434.176 492.576, 434.795 493.195 C 435.414 493.814, 439.421 494.810, 443.700 495.410 L 451.481 496.500 452.256 502 C 453.147 508.318, 454.201 509.372, 461.331 511.071 C 464.174 511.749, 468.388 513.109, 470.696 514.093 C 474.224 515.598, 475.065 516.528, 475.985 519.944 C 477.282 524.763, 480.344 527.066, 486.744 528.037 C 494.037 529.144, 495 528.543, 495 522.883 C 495 517.179, 492.588 514.003, 488.250 513.994 C 486.738 513.991, 483.829 513.525, 481.787 512.958 C 478.682 512.095, 477.905 511.318, 477.042 508.213 C 476.475 506.171, 476.009 503.993, 476.006 503.372 C 475.995 501.247, 473.212 499.939, 463.410 497.452 C 458.012 496.083, 453.243 494.408, 452.813 493.731 C 452.383 493.054, 452.024 491.228, 452.015 489.673 C 451.995 485.894, 447.102 481.004, 443.327 480.989 C 441.772 480.983, 438.865 480.708, 436.866 480.377 C 433.341 479.794, 433.219 479.628, 432.755 474.805 C 432.096 467.939, 429.999 466.108, 421.954 465.373 C 418.404 465.048, 415.220 465.074, 414.877 465.431 M 371.357 468.577 C 367.712 474.141, 373.445 480.230, 380.652 478.450 C 384.278 477.555, 384.518 477.258, 384.805 473.304 C 385.080 469.516, 384.817 468.957, 382.105 467.554 C 377.460 465.152, 373.345 465.544, 371.357 468.577 M 389.607 484.582 C 388.541 487.359, 388.953 490.716, 390.519 492.016 C 392.200 493.411, 401.780 493.873, 403.750 492.655 C 406.218 491.129, 405.158 487.067, 401.750 484.989 C 397.722 482.533, 390.486 482.291, 389.607 484.582 M 414.571 500.571 C 412.421 502.722, 412.598 506.327, 414.959 508.463 C 417.459 510.726, 425.441 511.709, 427.492 510.007 C 429.763 508.122, 429.473 501.323, 427.066 500.035 C 424.076 498.435, 416.377 498.766, 414.571 500.571 M 434.750 515.080 C 432.298 516.508, 432.388 523.136, 434.891 525.401 C 436.293 526.670, 438.167 527.033, 442.141 526.806 L 447.500 526.500 447.801 521.842 C 448.053 517.939, 447.734 516.927, 445.829 515.592 C 443.276 513.805, 437.405 513.533, 434.750 515.080 M 452.816 529.677 C 450.484 530.292, 449.565 535.328, 451.178 538.650 C 453.602 543.639, 464.067 544.142, 466.239 539.374 C 468.936 533.457, 460.789 527.571, 452.816 529.677 M 496.750 529.561 C 495.524 530.823, 495.898 538.478, 497.277 540.364 C 498.691 542.297, 504.539 543.939, 510.143 543.976 C 514.162 544.002, 515 545.123, 515 550.471 C 515 555.405, 517.585 557.729, 524.422 558.944 C 531.987 560.288, 534.518 561.996, 537.109 567.509 C 539.653 572.920, 543.802 575.662, 551.640 577.110 C 558.154 578.314, 558.963 579.045, 558.985 583.750 C 558.993 585.587, 559.822 587.822, 560.891 588.891 C 562.987 590.987, 571.636 592.568, 575.060 591.481 C 576.990 590.868, 577.178 590.269, 576.717 586.185 C 576.031 580.097, 573.460 578.005, 566.639 577.985 C 563.813 577.976, 560.926 577.605, 560.224 577.159 C 559.522 576.714, 558.673 574.035, 558.338 571.207 C 557.599 564.963, 555.954 563.319, 549.154 562.029 C 541.865 560.647, 540.241 559.535, 538.882 555 C 538.228 552.818, 536.927 550.339, 535.990 549.491 C 533.894 547.594, 523.896 544, 520.716 544 C 517.233 544, 515.312 541.959, 514.653 537.560 C 513.781 531.726, 511.371 529.878, 503.866 529.289 C 500.365 529.014, 497.163 529.136, 496.750 529.561 M 471.980 549.038 C 471.380 550.159, 471.144 551.877, 471.455 552.857 C 472.239 555.328, 478.462 558.089, 484.696 558.732 C 489.640 559.243, 489.986 559.126, 491.163 556.543 C 492.184 554.300, 492.144 553.348, 490.938 551.198 C 489.213 548.125, 486.575 547.236, 478.785 547.100 C 473.999 547.016, 472.893 547.331, 471.980 549.038 M 495.709 563.624 C 495.319 564.014, 495 565.801, 495 567.594 C 495 572.307, 498.948 575.189, 504.866 574.797 C 508.730 574.541, 509.467 574.128, 510.243 571.785 C 510.862 569.920, 510.727 568.199, 509.812 566.285 C 508.602 563.753, 507.934 563.473, 502.450 563.208 C 499.132 563.047, 496.099 563.234, 495.709 563.624 M 514.477 580.394 C 512.547 583.341, 513.385 587.456, 516.337 589.523 C 517.496 590.335, 520.579 591, 523.187 591 C 528.671 591, 530.570 588.872, 529.487 583.943 C 528.629 580.032, 525.487 578, 520.301 578 C 516.916 578, 515.725 578.490, 514.477 580.394 M 532.750 593.570 C 532.337 593.990, 532 596.258, 532 598.610 C 532 604.352, 534.386 606, 542.703 606 C 548.642 606, 548.996 605.864, 549.628 603.345 C 550.391 600.305, 549.437 598.415, 545.747 595.661 C 543.070 593.661, 534.081 592.216, 532.750 593.570 M 578 598.443 C 578 605.032, 580.053 606.993, 586.973 607.014 C 594.913 607.038, 595.669 607.547, 596.344 613.333 C 597.123 620.014, 598.664 621.203, 610.211 624.034 C 615.320 625.287, 619.831 626.804, 620.235 627.406 C 620.639 628.008, 620.976 629.712, 620.985 631.194 C 620.993 632.676, 622.086 635.151, 623.413 636.694 C 625.619 639.258, 626.415 639.500, 632.640 639.500 C 640.375 639.500, 640.868 638.936, 639.045 632.168 C 637.833 627.666, 634.772 626.011, 627.601 625.985 C 621.980 625.964, 621.235 625.256, 620.427 619.164 C 619.571 612.706, 618.388 611.823, 607.500 609.503 C 597.586 607.392, 596.573 606.889, 596.203 603.898 C 595.278 596.411, 591.175 593, 583.096 593 L 578 593 578 598.443 M 557.250 610.987 C 554.478 612.156, 554.172 617.029, 556.710 619.567 C 560.887 623.744, 572.146 625.668, 573.393 622.418 C 574.528 619.460, 574.005 615.228, 572.250 613.170 C 570.226 610.797, 560.916 609.443, 557.250 610.987 M 576.667 626.667 C 575.771 627.563, 575.844 634.221, 576.765 635.600 C 578.903 638.801, 588.322 640.278, 590.800 637.800 C 592.701 635.899, 592.239 630.239, 590 628 C 588.500 626.500, 586.667 626, 582.667 626 C 579.733 626, 577.033 626.300, 576.667 626.667 M 595.200 642.200 C 594.540 642.860, 594 645.110, 594 647.200 C 594 652.537, 596.698 654.973, 602.750 655.100 C 611.185 655.277, 612.403 655.996, 613.154 661.243 C 613.520 663.804, 614.104 666.360, 614.452 666.923 C 615.126 668.013, 625.396 671.421, 631.404 672.548 C 634.244 673.081, 635.143 673.791, 635.597 675.863 C 637.608 685.037, 640.341 687.442, 648.792 687.477 C 654.051 687.498, 654.526 687.313, 654.837 685.119 C 655.913 677.506, 652.734 674.012, 644.703 673.986 C 637.270 673.962, 636.437 673.396, 635.421 667.678 C 634.602 663.074, 634.093 662.301, 630.830 660.706 C 628.812 659.719, 623.977 658.144, 620.087 657.206 C 614.259 655.800, 613.012 655.148, 613.001 653.500 C 612.971 648.646, 610.847 643.972, 608.003 642.502 C 604.524 640.702, 596.878 640.522, 595.200 642.200 M 640.391 642.425 C 639.400 645.006, 640.742 651.188, 642.718 653.145 C 643.875 654.291, 646.869 655.150, 651.250 655.593 L 658 656.276 658 651.694 C 658 644.664, 655.014 641.773, 647.165 641.206 C 642.101 640.839, 640.917 641.052, 640.391 642.425 M 659 661.066 C 659 668.180, 660.113 669.747, 665.753 670.575 C 672.865 671.620, 675.193 672.735, 678.582 676.719 C 681.813 680.517, 685.005 680.796, 684.995 677.281 C 684.989 674.670, 680.591 664.310, 678.515 662.017 C 676.219 659.480, 666.936 656, 662.462 656 L 659 656 659 661.066 M 656.667 689.667 C 655.687 690.646, 655.855 697.488, 656.927 700.308 C 658.138 703.494, 662.057 704.421, 666.489 702.569 C 673.002 699.848, 673.842 692.186, 667.857 690.100 C 664.368 688.884, 657.708 688.626, 656.667 689.667" stroke="none" fill="#444" fill-rule="evenodd"/></svg>