<svg xmlns="http://www.w3.org/2000/svg" width="800" height="800" viewBox="0 0 800 800" version="1.1"><path d="M 104.604 48.039 C 97.099 50.283, 93.253 58.963, 98.223 62.443 C 101.365 64.645, 105.152 64.382, 112.030 61.487 L 117.999 58.975 400.123 58.965 L 682.247 58.955 686.453 61.420 C 688.767 62.775, 691.266 64.615, 692.007 65.508 C 693.868 67.750, 698.160 69.725, 700.173 69.265 C 702.392 68.758, 704.710 65.094, 705.467 60.896 C 706.269 56.443, 703.463 51.254, 698.938 48.827 C 695.042 46.738, 692.744 46.654, 684.897 48.314 C 680.619 49.219, 612.012 49.382, 394.897 49 C 238.479 48.725, 109.825 48.202, 109 47.837 C 108.175 47.472, 106.197 47.563, 104.604 48.039 M 694 172.099 C 692.075 173.774, 689.150 175.900, 687.500 176.823 C 684.730 178.371, 669.167 178.544, 484.500 179.069 C 261.809 179.702, 275.573 179.246, 260.212 186.497 C 252.541 190.118, 248.652 191.013, 230 193.446 C 214.440 195.476, 211.227 196.538, 206.582 201.183 C 201.640 206.125, 199.065 207.456, 191.500 208.981 C 182.953 210.704, 177.572 213.302, 174.856 217.016 C 173.230 219.241, 169.305 221.770, 162.187 225.180 C 153.657 229.267, 151.340 230.878, 148.786 234.502 C 146.772 237.358, 143.639 239.980, 139.779 242.037 C 134.430 244.888, 133.555 245.831, 130.680 251.846 C 127.840 257.788, 126.941 258.773, 122.276 261.048 C 119.403 262.450, 115.268 265.370, 113.086 267.539 C 110.773 269.838, 106.491 272.532, 102.811 274.002 C 97.127 276.273, 96.369 276.919, 95.169 280.511 C 94.291 283.142, 93.958 287.976, 94.192 294.708 C 94.485 303.119, 94.913 305.408, 96.623 307.708 C 101.378 314.106, 107.021 310.457, 111.038 298.387 C 112.748 293.247, 114.360 290.645, 118.026 287.103 C 120.647 284.571, 124.178 279.720, 125.874 276.322 C 127.569 272.924, 129.978 269.447, 131.228 268.595 C 134.101 266.636, 147.528 254.273, 154.888 246.809 C 158.686 242.957, 162.664 240.150, 167.196 238.125 C 172.727 235.653, 174.247 234.437, 175.932 231.134 C 178.430 226.236, 177.949 226.529, 188.491 223.474 C 199.363 220.324, 203.904 218.010, 206.714 214.190 C 209.378 210.566, 212.169 209.624, 226.500 207.514 C 239.440 205.608, 247.923 203.050, 257.375 198.204 C 270.913 191.263, 254.569 191.776, 477.738 191.284 C 630.254 190.947, 680.846 191.124, 683.513 192.004 C 688.179 193.544, 692.435 197.222, 695.158 202.067 C 697.894 206.936, 699.666 207.043, 701.583 202.455 C 706.536 190.601, 706.947 179.185, 702.649 172.807 C 699.764 168.526, 698.247 168.402, 694 172.099 M 693.528 670.149 C 692.071 671.881, 689.565 675.900, 687.960 679.079 C 685.428 684.096, 684.230 685.293, 678.907 688.130 C 675.534 689.928, 671.371 693.145, 669.657 695.278 C 667.943 697.411, 663.156 701.550, 659.020 704.475 C 654.884 707.401, 649.039 712.359, 646.030 715.492 C 643.022 718.626, 638.467 722.250, 635.908 723.546 C 632.943 725.049, 629.924 727.759, 627.578 731.024 C 625.494 733.925, 622.513 736.711, 620.700 737.452 C 612.022 741, 601.813 741.150, 390 740.821 L 182.500 740.500 175.131 736.500 C 170.356 733.908, 166.196 730.673, 163.310 727.308 C 160.860 724.453, 156.620 720.681, 153.886 718.927 C 151.152 717.173, 148.289 714.525, 147.522 713.043 C 145.875 709.858, 138.916 703.374, 135.448 701.794 C 134.104 701.182, 131.583 698.467, 129.847 695.761 C 127.711 692.433, 124.979 689.877, 121.399 687.856 C 117.162 685.465, 115.447 683.666, 112.790 678.824 C 110.609 674.847, 108.239 672.062, 105.868 670.687 C 102.417 668.685, 102.153 668.670, 99.632 670.321 C 97.400 671.784, 97 672.769, 97 676.801 C 97 682.743, 98.782 685.349, 104.996 688.498 C 108.739 690.395, 110.494 692.137, 112.649 696.097 C 114.769 699.991, 116.719 701.953, 120.708 704.204 C 124.607 706.405, 126.654 708.432, 128.614 712.032 C 130.669 715.808, 132.462 717.515, 136.662 719.695 C 140.864 721.876, 142.707 723.633, 144.953 727.594 C 147.288 731.712, 148.953 733.243, 153.655 735.594 C 158.378 737.955, 159.942 739.399, 161.994 743.292 C 164.800 748.617, 165.905 749.558, 171.021 750.977 C 173.260 751.598, 255.460 751.979, 396.791 752.024 L 619.039 752.095 625.012 749.414 C 629.127 747.568, 632.350 745.142, 635.376 741.617 C 637.791 738.803, 642.199 735.197, 645.170 733.605 C 648.646 731.743, 651.630 729.146, 653.536 726.325 C 655.726 723.085, 658.125 721.167, 662.722 718.984 C 667.630 716.653, 669.367 715.200, 670.944 712.109 C 673.017 708.046, 677.315 704, 679.558 704 C 681.537 704, 686.911 699.101, 689.593 694.853 C 690.916 692.757, 693.687 690.176, 695.750 689.118 C 702.285 685.767, 704.500 682.579, 704.500 676.524 C 704.500 667.325, 698.727 663.971, 693.528 670.149" stroke="none" fill="#444" fill-rule="evenodd"/></svg>