<svg xmlns="http://www.w3.org/2000/svg" width="1000" height="1000" viewBox="0 0 1000 1000" version="1.1"><path d="M 112.390 59.959 C 105.077 61.679, 100.565 67.772, 100.881 75.500 C 100.994 78.250, 101.267 249.925, 101.489 457 C 101.711 664.075, 102.174 835.525, 102.519 838 C 102.863 840.475, 104.183 844.798, 105.452 847.608 C 107.331 851.768, 108.759 853.287, 113.152 855.801 C 119.026 859.162, 121.346 861.393, 125.315 867.500 C 126.745 869.700, 130.746 873.555, 134.207 876.066 C 137.736 878.626, 142.283 883.173, 144.559 886.415 C 147.353 890.397, 150.675 893.495, 155.223 896.361 C 158.859 898.652, 163.691 902.862, 165.973 905.728 C 168.252 908.591, 172.870 912.861, 176.236 915.217 C 179.601 917.572, 184.441 922.200, 186.991 925.500 C 191.828 931.759, 197.558 935.618, 206.276 938.486 C 210.574 939.900, 240.353 940.056, 504.146 940.037 C 714.342 940.023, 799.042 939.703, 803.614 938.907 C 810.909 937.636, 813.575 935.844, 818.912 928.619 C 821.006 925.785, 825.369 921.654, 828.609 919.438 C 831.917 917.176, 836.552 912.665, 839.180 909.151 C 841.754 905.709, 845.579 901.560, 847.680 899.933 C 853.918 895.099, 856.337 892.672, 859.458 888.113 C 861.085 885.736, 864.910 882.089, 867.958 880.007 C 874.140 875.786, 876.298 873.585, 880.763 866.946 C 882.448 864.442, 885.767 861.067, 888.140 859.446 C 893.970 855.465, 896.776 852.186, 897.965 847.966 C 898.618 845.650, 898.981 710.743, 899.020 456.509 C 899.079 77.286, 899.038 68.527, 897.186 66.042 C 893.585 61.211, 889.542 59.662, 881.653 60.091 C 869.393 60.759, 126.812 60.536, 121 59.864 C 117.975 59.513, 114.101 59.556, 112.390 59.959 M 128.355 69.446 C 123.556 70.929, 120.543 73.442, 119.139 77.134 C 118.525 78.750, 118.058 108.325, 117.911 155.034 L 117.674 230.328 120.549 232.621 C 123.563 235.024, 126.640 236.641, 133.814 239.589 C 136.188 240.564, 140.567 243.884, 143.554 246.971 C 148.364 251.944, 149.977 252.904, 157.740 255.417 C 169.977 259.379, 173.239 261.235, 178.182 267.052 C 183.450 273.251, 185.652 274.469, 196.098 276.964 C 204.938 279.076, 209.913 281.950, 214.295 287.479 C 217.677 291.747, 222.431 294.281, 232.057 296.949 C 238.668 298.781, 245.976 302.550, 245.993 304.136 C 245.997 304.486, 247.630 306.355, 249.622 308.290 C 252.011 310.610, 256.182 312.898, 261.872 315.008 C 276.986 320.612, 278.392 321.353, 284.043 326.682 C 288.568 330.949, 291.234 332.486, 298.543 335.042 C 310.458 339.208, 314.727 341.812, 319.504 347.829 C 323.169 352.444, 324.205 353.079, 332 355.488 C 343.881 359.160, 345.647 360.077, 353 366.390 C 358.498 371.111, 361.118 372.514, 370 375.494 C 379.787 378.777, 380.976 379.475, 387.500 385.758 C 393.953 391.973, 395.282 392.763, 404.500 395.859 C 417.718 400.300, 418.869 400.961, 424.190 407.183 C 428.094 411.747, 429.641 412.765, 435.119 414.369 C 446.918 417.826, 453.840 421.581, 459.201 427.434 C 464.469 433.186, 463.451 432.702, 483.632 439.046 L 490.765 441.288 500.632 438.563 C 506.060 437.064, 512.037 435.365, 513.915 434.787 C 515.949 434.161, 519.588 431.328, 522.915 427.782 C 529.488 420.774, 532.962 418.819, 542.772 416.606 C 553.543 414.177, 557.124 412.383, 560.959 407.497 C 565.325 401.936, 570.983 398.860, 583 395.518 C 592.311 392.928, 592.630 392.738, 599 385.998 C 603.199 381.554, 606.562 378.896, 608.500 378.485 C 610.150 378.136, 615.550 376.733, 620.500 375.367 C 629.121 372.989, 629.753 372.617, 635.500 366.526 C 640.977 360.721, 642.154 359.980, 649 358.030 C 661.806 354.382, 666.610 352.070, 671.171 347.362 C 677.029 341.314, 681.718 338.795, 693.367 335.441 C 702.617 332.777, 703.695 332.181, 710.596 325.913 C 717.224 319.893, 718.684 319.049, 725.229 317.450 C 736.089 314.799, 738.921 313.345, 745.504 307.049 C 752.696 300.170, 754.751 299.049, 766.745 295.460 C 775.187 292.934, 776.418 292.234, 780.906 287.413 C 786.699 281.188, 791.197 278.735, 799.855 277.076 C 812.558 274.642, 815.643 273.155, 820.021 267.357 C 824.547 261.362, 827.380 259.696, 840.989 255.027 C 848.880 252.321, 851.439 250.883, 856.176 246.498 C 860.117 242.849, 863.988 240.415, 868.738 238.600 C 872.514 237.157, 877.084 234.741, 878.893 233.230 L 882.183 230.484 882.199 154.767 C 882.216 68.925, 882.776 74.690, 873.994 70.240 L 869.534 67.979 501.017 68.072 C 204.516 68.147, 131.690 68.416, 128.355 69.446 M 868.816 281.096 C 866.790 281.561, 860.882 283.568, 855.688 285.556 C 847.558 288.668, 845.793 289.772, 843.009 293.488 C 839.028 298.801, 833.388 301.842, 820.806 305.459 C 811.085 308.254, 809.634 309.091, 805 314.571 C 800.750 319.597, 796.917 321.604, 785 325.041 C 773.740 328.289, 773.375 328.486, 767.500 334.501 C 761.242 340.907, 760.847 341.118, 746.941 345.447 C 739.124 347.881, 737.832 348.669, 732.049 354.527 C 725.527 361.135, 723.533 362.188, 710.389 365.961 C 704.577 367.629, 701.843 369.195, 695.417 374.538 C 689.572 379.397, 686.138 381.462, 682.028 382.587 C 664.802 387.303, 663.061 388.088, 659.821 392.600 C 655.403 398.752, 651.026 401.378, 638.468 405.414 C 628.701 408.553, 626.937 409.483, 623.080 413.530 C 617.657 419.220, 614.330 420.898, 600.500 424.916 C 589.573 428.091, 589.457 428.157, 583 434.901 C 576.602 441.583, 576.320 441.747, 565 445.342 C 554.284 448.745, 553.062 449.405, 547.077 455.019 C 542.046 459.740, 539.447 461.378, 535.077 462.584 C 511.722 469.029, 510.495 469.864, 507.336 481.454 C 506.188 485.666, 505.969 522.424, 506.010 703.924 C 506.045 859.284, 506.374 922.601, 507.165 925.739 C 507.806 928.287, 509.198 930.739, 510.480 931.579 C 512.381 932.824, 531.963 933.033, 650.604 933.075 C 726.456 933.101, 789.251 932.841, 790.148 932.497 C 791.046 932.152, 793.794 929.277, 796.256 926.106 C 799.120 922.418, 802.777 919.188, 806.409 917.138 C 810.434 914.867, 812.921 912.562, 814.955 909.217 C 818.572 903.273, 822.902 898, 824.168 898 C 826.361 898, 833.972 891.772, 836.067 888.264 C 838.716 883.826, 843.987 878, 845.352 878 C 847.441 878, 853.350 872.493, 856.478 867.632 C 860.256 861.760, 862.614 859.499, 869.146 855.480 C 874.504 852.183, 875.945 850.045, 879.562 840.016 L 882.191 832.728 882.078 559.765 C 882.009 394.109, 881.600 286.121, 881.037 285.069 C 878.937 281.144, 874.661 279.754, 868.816 281.096 M 120.567 284.342 L 118 286.909 117.757 551.705 C 117.623 697.342, 117.518 819.425, 117.523 823 C 117.531 829.078, 117.882 830.084, 122.929 838.500 C 129.573 849.581, 131.144 851.361, 137.478 854.996 C 142.802 858.052, 146.537 861.504, 179 893.380 C 214.104 927.849, 218.091 931.048, 228.052 932.743 C 230.498 933.159, 285.477 933.275, 350.228 933 L 467.956 932.500 470.728 929.727 L 473.500 926.955 473.781 708.227 C 473.964 565.963, 473.713 487.236, 473.062 483.025 C 472.400 478.733, 471.111 475.193, 469.242 472.525 C 466.666 468.850, 465.406 468.152, 454.739 464.500 C 442.903 460.448, 441.415 459.523, 435.695 452.672 C 432.963 449.399, 431.003 448.360, 422.163 445.498 C 410.602 441.755, 405.019 438.392, 402.070 433.395 C 399.374 428.824, 394.953 426.344, 386.010 424.382 C 376.406 422.276, 374.730 421.385, 366.710 414.117 C 360.758 408.723, 359.075 407.801, 350.191 405.059 C 340.067 401.935, 337.686 400.387, 332.618 393.630 C 329.306 389.215, 326.560 387.900, 313.239 384.354 C 301.783 381.305, 300.327 380.440, 295.171 373.610 C 291.238 368.401, 291.127 368.340, 279.855 365.099 C 267.720 361.610, 263.829 359.349, 259.947 353.531 C 257.063 349.209, 252.750 346.767, 243.984 344.496 C 235.457 342.286, 233.493 341.170, 225.692 334.101 C 219.819 328.779, 218.027 327.778, 210.273 325.490 C 198.034 321.878, 197.982 321.850, 190.772 315.106 C 184.104 308.868, 178.957 306.096, 169.423 303.606 C 162.238 301.730, 159.877 300.097, 155.164 293.745 C 151.721 289.104, 150.367 288.158, 143.415 285.533 C 138.899 283.828, 132.918 282.399, 129.346 282.171 C 123.737 281.814, 122.884 282.025, 120.567 284.342" stroke="none" fill="#444" fill-rule="evenodd"/></svg>