<svg xmlns="http://www.w3.org/2000/svg" width="50" height="50" viewBox="0 0 50 50" version="1.1">
	<path d="M 5.199 22.191 C 5.089 33.021, 5.338 42.092, 5.750 42.348 C 6.162 42.604, 6.383 36.893, 6.240 29.657 C 5.753 5.013, 5.398 2.468, 5.199 22.191 M 43.998 22.702 C 43.724 33.813, 43.847 42.556, 44.272 42.130 C 44.697 41.704, 44.921 32.613, 44.770 21.928 L 44.496 2.500 43.998 22.702 M 40 45.500 C 38.625 46.286, 37.976 46.945, 38.559 46.965 C 39.141 46.984, 40.491 46.339, 41.559 45.532 C 44.028 43.664, 43.239 43.648, 40 45.500 M 9.733 46.124 C 10.412 46.808, 11.219 47.115, 11.526 46.807 C 11.834 46.499, 11.279 45.940, 10.293 45.564 C 8.868 45.022, 8.753 45.136, 9.733 46.124" stroke="none" fill="#555555" fill-rule="evenodd"/>
</svg>