<svg xmlns="http://www.w3.org/2000/svg" width="800" height="800" viewBox="0 0 800 800" version="1.1"><path d="M 87.710 49.290 C 86.726 50.274, 85.488 52.216, 84.960 53.605 C 84.354 55.199, 84.001 168.732, 84.004 361.315 C 84.007 659.244, 84.053 666.574, 85.905 669.612 C 86.949 671.323, 105.127 690.115, 126.300 711.371 C 152.734 737.906, 165.979 750.511, 168.567 751.593 C 171.921 752.994, 184.389 753.163, 281.730 753.129 C 360.431 753.102, 393.389 752.760, 399.200 751.910 C 405.576 750.978, 408.776 750.999, 414.389 752.009 C 419.875 752.996, 444.047 753.267, 520.165 753.193 C 637.021 753.081, 631.360 753.593, 638.465 742.487 C 640.580 739.181, 643.753 735.912, 646.519 734.191 C 649.050 732.616, 652.516 729.160, 654.300 726.434 C 656.069 723.730, 659.670 720.108, 662.302 718.387 C 664.933 716.665, 668.381 713.214, 669.964 710.718 C 671.547 708.222, 675.292 704.370, 678.286 702.158 C 681.280 699.946, 684.912 696.120, 686.356 693.655 C 687.801 691.191, 690.674 688.162, 692.741 686.925 C 699.162 683.084, 700.971 680.834, 703.049 674.105 C 705.045 667.643, 705.060 665.344, 705.042 361.781 C 705.026 84.642, 704.876 55.740, 703.443 53.553 C 702.573 52.225, 700.776 50.428, 699.451 49.560 C 697.270 48.131, 668.128 47.957, 393.270 47.740 C 102.537 47.510, 89.423 47.577, 87.710 49.290 M 103.308 55.196 C 98.023 57.747, 98.056 57.163, 97.972 147.423 C 97.915 207.033, 98.212 231.527, 99.007 233.014 C 99.620 234.159, 101.250 235.525, 102.630 236.050 C 106.831 237.647, 109.936 236.135, 113.135 230.934 C 116.607 225.293, 120.236 223.616, 132.453 222.009 C 141.422 220.830, 143.852 219.593, 146.906 214.652 C 149.602 210.289, 154.293 208.381, 165.677 207.017 C 182.206 205.035, 184.871 204.201, 189.994 199.409 C 196.285 193.524, 200.529 192.231, 219.428 190.440 C 238.665 188.618, 241.982 187.840, 248.500 183.623 C 258.294 177.286, 262.825 176.298, 289 174.796 C 311.431 173.508, 319.252 173.383, 344 173.912 C 354.170 174.130, 363.743 173.775, 368.952 172.988 C 374.827 172.100, 381.841 171.928, 391.952 172.424 C 408.274 173.224, 414.011 173.399, 470.500 174.814 C 517.457 175.991, 521.696 176.615, 533.197 184.049 C 539.484 188.112, 544.850 189.356, 561 190.494 C 578.309 191.714, 585.309 193.820, 592.224 199.892 C 596.127 203.319, 600.093 204.533, 613.755 206.484 C 625.556 208.170, 632.682 210.892, 636.495 215.171 C 639.974 219.076, 643.754 220.581, 653.480 221.934 C 666.637 223.764, 668.854 224.668, 674.441 230.483 C 679.063 235.293, 680.077 235.866, 685.087 236.492 C 692.926 237.471, 697.643 235.419, 698.540 230.641 C 698.902 228.710, 698.816 226.538, 698.349 225.815 C 697.882 225.092, 697.275 188.050, 697 143.500 C 696.610 80.277, 696.219 62.008, 695.220 60.260 C 694.517 59.029, 692.492 57.229, 690.720 56.260 C 687.669 54.592, 672.212 54.490, 396.500 54.319 C 193.527 54.193, 104.837 54.458, 103.308 55.196 M 347.500 192.034 C 344.750 192.509, 333.050 193.361, 321.500 193.926 C 270.753 196.408, 272.354 196.195, 264.480 201.527 C 256.014 207.260, 248.619 209.055, 225.500 210.987 C 210.049 212.278, 207.151 213.157, 200.986 218.419 C 195.266 223.302, 189.875 225.125, 175.500 227.036 C 164.649 228.479, 160.973 229.888, 155.755 234.602 C 150.899 238.989, 147.202 240.592, 137.209 242.644 C 127.903 244.554, 126.682 245.160, 121.307 250.535 C 118.113 253.729, 115.113 255.429, 108.802 257.619 C 101.949 259.997, 100.238 261.024, 99 263.500 C 97.682 266.137, 97.500 290.612, 97.500 465.500 C 97.500 649.436, 97.626 664.730, 99.168 667.543 C 101.066 671.003, 166.382 737.032, 172.500 741.675 C 174.700 743.345, 177.575 745.275, 178.888 745.965 C 180.758 746.946, 200.636 747.184, 270.388 747.059 C 366.454 746.888, 362.259 747.122, 365.121 741.774 C 365.777 740.549, 366.684 737.961, 367.138 736.024 C 367.592 734.086, 367.987 612.447, 368.015 465.716 C 368.070 178.084, 368.409 197.076, 363.158 193.398 C 360.507 191.542, 353.748 190.952, 347.500 192.034 M 440.119 193.006 C 434.846 194.246, 430.976 198.732, 431.044 203.525 C 431.075 205.711, 431.291 326.075, 431.524 471 C 431.757 615.925, 432.202 735.949, 432.513 737.721 C 432.825 739.492, 434.227 742.304, 435.629 743.971 L 438.178 747 527.499 747 L 616.820 747 621.160 742.434 C 623.547 739.923, 627.686 736.674, 630.359 735.216 C 633.702 733.391, 636.272 730.915, 638.598 727.279 C 640.740 723.931, 643.795 720.877, 646.936 718.944 C 650.068 717.017, 653.009 714.081, 654.923 710.970 C 656.676 708.121, 659.993 704.697, 662.795 702.842 C 665.459 701.080, 669.071 697.471, 670.824 694.824 C 672.576 692.176, 676.240 688.545, 678.966 686.755 C 682.259 684.593, 684.842 681.821, 686.658 678.500 C 688.162 675.750, 691.345 671.412, 693.731 668.860 L 698.069 664.219 697.982 468.860 C 697.935 361.412, 697.512 271.488, 697.042 269.029 C 695.938 263.250, 692.680 260.474, 685.285 259.014 C 673.866 256.758, 670.212 255.096, 666.373 250.411 C 662.466 245.642, 658.047 243.826, 647 242.448 C 636.793 241.174, 629.801 238.409, 625.484 233.938 C 620.471 228.746, 619.454 228.367, 606.844 226.997 C 589.968 225.163, 585.634 223.761, 577.382 217.462 C 571.755 213.167, 569.052 212.478, 550 210.480 C 530.497 208.435, 523.560 206.864, 514.950 202.543 C 511.179 200.651, 506.385 198.650, 504.297 198.097 C 499.245 196.759, 483.992 195.171, 465 194.005 C 456.475 193.481, 448.150 192.863, 446.500 192.631 C 444.850 192.400, 441.978 192.568, 440.119 193.006 M 403.259 197.541 L 399.718 201.082 400.560 207.791 C 401.023 211.481, 401.452 330.600, 401.513 472.500 C 401.593 657.323, 401.936 731.070, 402.720 732.511 C 404.722 736.188, 407.709 738.227, 410.020 737.494 C 415.289 735.821, 415.014 750.759, 415.050 464.263 L 415.085 198.500 412.487 196.250 C 408.951 193.188, 407.395 193.405, 403.259 197.541" stroke="none" fill="#444" fill-rule="evenodd"/></svg>