<svg xmlns="http://www.w3.org/2000/svg" width="1000" height="1000" viewBox="0 0 1000 1000" version="1.1"><path d="M 112.476 62.352 C 110.812 63.101, 108.886 64.954, 108.195 66.470 C 107.194 68.668, 106.942 146.482, 106.953 449.864 C 106.960 659.214, 106.974 831.316, 106.983 832.313 C 106.998 833.902, 112.437 840.264, 125.950 854.500 C 128.038 856.700, 131.381 859.625, 133.379 861 C 135.377 862.375, 138.754 865.750, 140.882 868.500 C 143.010 871.250, 146.240 874.850, 148.060 876.500 C 149.879 878.150, 154.003 882.200, 157.224 885.500 C 160.445 888.800, 164.680 893.075, 166.635 895 C 168.590 896.925, 173.011 901.373, 176.459 904.885 C 187.433 916.060, 189.382 917.999, 195 923.326 C 198.025 926.194, 201.791 930.011, 203.368 931.806 C 209.761 939.083, 196.992 938.500, 350 938.496 C 479.819 938.493, 488.127 938.388, 498.721 936.616 C 509.932 934.741, 509.948 934.741, 518.434 936.870 C 526.869 938.985, 527.762 939, 648.714 938.994 C 718.132 938.991, 772.916 938.593, 776.120 938.068 C 789.484 935.879, 791.668 934.587, 797.365 925.500 C 799.432 922.203, 802.579 919.142, 806.606 916.513 C 811.247 913.483, 813.526 911.109, 816.106 906.617 C 818.785 901.951, 820.905 899.802, 826.173 896.410 C 831.367 893.064, 833.594 890.826, 836.225 886.306 C 838.775 881.925, 841.156 879.480, 845.923 876.346 C 850.535 873.313, 853.287 870.536, 856.116 866.062 C 859.032 861.450, 861.543 858.960, 866.258 856.004 C 873.777 851.289, 875.322 848.895, 877.428 838.695 C 878.878 831.673, 879.035 811.880, 878.992 641.195 C 878.966 536.863, 878.705 365.550, 878.413 260.500 L 877.882 69.500 874.631 66.207 L 871.381 62.914 497.440 62.613 C 291.773 62.448, 121.700 62.015, 119.500 61.652 C 116.935 61.228, 114.415 61.479, 112.476 62.352 M 133.643 70.005 C 132.071 70.489, 129.986 71.608, 129.008 72.492 C 124.546 76.531, 124.500 77.697, 124.500 186.145 C 124.500 286.488, 124.544 288.838, 126.449 290.943 C 129.525 294.343, 134.810 293.436, 137.776 289 C 144.627 278.758, 145.515 278.229, 158.800 276.481 C 173.362 274.566, 175.157 273.798, 179.965 267.430 C 185.425 260.199, 189.085 258.558, 203 257.107 C 222.354 255.089, 227.062 253.566, 234.643 246.874 C 242.646 239.809, 246.621 238.425, 263 237.005 C 269.875 236.409, 280.203 235.222, 285.951 234.367 C 295.483 232.950, 297.064 232.391, 303.951 228.001 C 316.664 219.896, 330.730 217.021, 357.856 216.982 C 364.810 216.972, 375.151 216.302, 380.835 215.494 C 387.531 214.543, 399.325 214.025, 414.335 214.024 C 427.076 214.023, 443.350 213.584, 450.500 213.049 C 479.261 210.896, 523.647 211.817, 546.202 215.035 C 550.216 215.608, 570.150 216.274, 590.500 216.515 C 631.118 216.996, 641.259 217.502, 651 219.533 C 660.662 221.548, 665.471 223.501, 671.932 228.033 C 679.482 233.329, 684.713 234.617, 706.500 236.539 C 730.475 238.655, 735.739 240.164, 743.161 247.046 C 744.997 248.749, 747.625 250.731, 749 251.450 C 752.182 253.113, 762.954 255.471, 774.500 257.031 C 787.151 258.742, 793.182 261.220, 798.850 267.039 C 804.634 272.977, 806.002 273.514, 821.830 276.053 C 835.905 278.311, 841.076 280.611, 845.697 286.670 C 849.140 291.183, 853.359 293, 860.396 293 C 869.295 293, 871.286 289.279, 868.604 277.666 C 867.122 271.249, 866.966 261.042, 867.114 180 C 867.205 130.225, 866.933 87.250, 866.510 84.500 C 865.420 77.421, 863.505 74.238, 859.270 72.469 C 855.984 71.095, 817.230 70.907, 498.044 70.710 C 301.395 70.589, 139.600 70.183, 138.500 69.808 C 137.400 69.433, 135.214 69.522, 133.643 70.005 M 437 242.530 C 436.175 242.758, 420.650 243.656, 402.500 244.524 C 348.091 247.127, 346.649 247.281, 340.633 251.131 C 326.327 260.286, 319.400 262.253, 293.500 264.514 C 267.130 266.817, 264.859 267.372, 257.813 273.236 C 249.639 280.037, 244.800 281.904, 229.629 284.107 C 208.599 287.160, 206.633 287.754, 201.262 292.681 C 193.688 299.628, 190.114 301.168, 172.524 305.060 C 162.846 307.201, 162.370 307.438, 156.524 313.008 C 149.393 319.804, 146.568 321.361, 137.598 323.441 C 129.568 325.303, 127.491 326.320, 125.494 329.369 C 124.163 331.400, 123.988 360.560, 123.988 580.516 C 123.988 822.516, 124.040 829.463, 125.876 832.932 C 127.757 836.486, 153.297 863, 154.840 863 C 155.286 863, 157.936 865.816, 160.728 869.258 C 163.520 872.699, 168.038 877.312, 170.768 879.508 C 173.497 881.703, 177.904 886.352, 180.561 889.837 C 183.218 893.323, 187.895 898.141, 190.954 900.545 C 194.013 902.948, 199.256 907.975, 202.604 911.715 C 205.953 915.455, 210.673 919.862, 213.093 921.507 C 215.513 923.153, 219.397 925.929, 221.724 927.674 C 227.284 931.846, 234.663 933.405, 242.006 931.959 C 245.778 931.216, 278.688 930.960, 347 931.141 C 437.455 931.381, 446.779 931.256, 449.567 929.771 C 452.754 928.074, 455.385 923.213, 456.432 917.086 C 456.753 915.208, 457.027 764.032, 457.042 581.139 L 457.068 248.606 454.160 245.698 C 451.665 243.204, 450.344 242.742, 444.876 242.452 C 441.369 242.266, 437.825 242.301, 437 242.530 M 545.235 246.422 C 541.551 249.797, 541.503 249.937, 541.754 256.672 C 541.894 260.427, 542.234 411.325, 542.510 592 C 542.845 812.024, 543.349 921.525, 544.034 923.603 C 544.597 925.310, 546.206 927.785, 547.608 929.103 C 549.781 931.145, 551.071 931.477, 556.329 931.345 C 577.006 930.827, 702.416 930.582, 732.718 931 L 768.937 931.500 774.718 925.812 C 777.898 922.684, 782.963 918.859, 785.972 917.312 C 789.507 915.496, 792.590 912.907, 794.678 910 C 800.815 901.458, 802.922 899.326, 808.591 895.919 C 812.462 893.594, 814.957 891.221, 816.394 888.500 C 819.802 882.048, 821.182 880.548, 827.279 876.666 C 831.415 874.034, 834.144 871.271, 836.874 866.953 C 839.657 862.551, 842.423 859.780, 847.095 856.709 C 852.441 853.196, 854.079 851.404, 857 845.870 C 858.925 842.223, 862.397 837.188, 864.716 834.679 C 869.579 829.418, 870.508 826.690, 869.457 820.760 C 869.041 818.417, 868.554 708.161, 868.375 575.747 C 868.080 358.011, 867.896 334.700, 866.458 331.918 C 864.548 328.225, 860.784 326.519, 848.746 323.892 C 837.620 321.463, 833.760 319.500, 827.790 313.232 C 822.399 307.571, 818.293 306.071, 801.196 303.520 C 788.084 301.563, 784.763 300.138, 778 293.570 C 771.685 287.437, 770.350 287.019, 749 284.496 C 730.396 282.298, 724.817 280.337, 715.993 272.897 C 710.182 267.997, 704.535 266.675, 678.161 264.041 C 652.913 261.518, 644.419 259.485, 629.453 252.382 C 620.560 248.160, 604.451 245.601, 577 244.048 C 549.026 242.465, 549.601 242.422, 545.235 246.422 M 508.895 247.661 C 505.934 248.454, 504.768 252.318, 505.440 259.113 C 507.044 275.333, 507.754 368.409, 507.790 567 C 507.811 685.525, 507.495 810.850, 507.087 845.500 C 506.679 880.150, 506.683 909.451, 507.096 910.614 C 508.125 913.511, 510.989 914.439, 512.928 912.503 C 514.079 911.352, 514.463 909.133, 514.361 904.216 C 514.285 900.522, 513.923 779.150, 513.557 634.500 C 512.940 390.878, 513.564 274.920, 515.574 259.727 C 516.304 254.206, 515.647 250.789, 513.427 248.570 C 511.817 246.960, 511.645 246.926, 508.895 247.661" stroke="none" fill="#444" fill-rule="evenodd"/></svg>