<svg xmlns="http://www.w3.org/2000/svg" width="50" height="50" viewBox="0 0 50 50" version="1.1">
	<path d="M 6.622 13 C 7.238 13.825, 7.619 15.268, 7.466 16.206 C 7.145 18.187, 9.522 20.582, 10.400 19.162 C 10.718 18.647, 10.313 17.675, 9.500 17 C 8.687 16.325, 8.237 15.425, 8.500 15 C 8.763 14.575, 8.195 13.613, 7.239 12.863 C 5.730 11.681, 5.649 11.699, 6.622 13 M 11.670 17 C 12.260 17.825, 12.619 19.268, 12.466 20.206 C 12.314 21.145, 12.786 22.407, 13.515 23.012 C 14.541 23.864, 14.762 23.705, 14.496 22.306 C 14.307 21.313, 14.062 20.387, 13.952 20.250 C 13.841 20.113, 13.694 19.573, 13.625 19.050 C 13.556 18.527, 12.847 17.515, 12.048 16.800 C 10.828 15.707, 10.768 15.739, 11.670 17 M 16.125 20.500 C 17.019 21.600, 17.624 23.268, 17.470 24.206 C 17.316 25.145, 17.786 26.407, 18.515 27.012 C 19.541 27.864, 19.762 27.705, 19.496 26.306 C 19.307 25.313, 19.065 24.275, 18.958 24 C 18.851 23.725, 18.799 23.216, 18.842 22.869 C 18.885 22.522, 17.926 21.397, 16.710 20.369 C 14.526 18.522, 14.519 18.524, 16.125 20.500 M 20.872 24.250 C 21.627 25.212, 21.910 26, 21.500 26 C 21.090 26, 21.256 26.604, 21.869 27.342 C 22.481 28.080, 22.751 28.916, 22.467 29.200 C 22.184 29.483, 22.750 30.342, 23.726 31.107 C 25.339 32.374, 25.376 32.341, 24.128 30.750 C 23.373 29.788, 23.090 29, 23.500 29 C 23.910 29, 23.744 28.396, 23.131 27.658 C 22.519 26.920, 22.249 26.084, 22.533 25.800 C 22.816 25.517, 22.250 24.658, 21.274 23.893 C 19.661 22.626, 19.624 22.659, 20.872 24.250 M 25.622 28 C 26.238 28.825, 26.620 30.258, 26.470 31.184 C 26.319 32.110, 27.157 33.685, 28.331 34.684 C 30.233 36.302, 30.318 36.309, 29.110 34.750 C 28.365 33.788, 28.090 33, 28.500 33 C 28.910 33, 28.744 32.396, 28.131 31.658 C 27.519 30.920, 27.249 30.084, 27.533 29.800 C 27.816 29.517, 27.250 28.658, 26.274 27.893 C 24.726 26.678, 24.643 26.691, 25.622 28 M 29.890 31.250 C 30.635 32.212, 30.910 33, 30.500 33 C 30.090 33, 30.256 33.604, 30.869 34.342 C 31.481 35.080, 31.759 35.908, 31.485 36.181 C 31.212 36.455, 31.995 37.539, 33.227 38.589 C 35.039 40.136, 35.207 40.167, 34.110 38.750 C 33.365 37.788, 33.090 37, 33.500 37 C 33.910 37, 33.744 36.396, 33.131 35.658 C 32.519 34.920, 32.241 34.092, 32.515 33.819 C 32.788 33.545, 32.005 32.461, 30.773 31.411 C 28.961 29.864, 28.793 29.833, 29.890 31.250 M 34.872 35.250 C 35.627 36.212, 35.910 37, 35.500 37 C 35.090 37, 35.256 37.604, 35.869 38.342 C 36.481 39.080, 36.751 39.916, 36.467 40.200 C 36.184 40.483, 36.750 41.342, 37.726 42.107 C 39.339 43.374, 39.376 43.341, 38.128 41.750 C 37.373 40.788, 37.090 40, 37.500 40 C 37.910 40, 37.744 39.396, 37.131 38.658 C 36.519 37.920, 36.249 37.084, 36.533 36.800 C 36.816 36.517, 36.250 35.658, 35.274 34.893 C 33.661 33.626, 33.624 33.659, 34.872 35.250 M 38.890 38.250 C 39.635 39.212, 39.895 40, 39.467 40 C 39.040 40, 39.436 40.824, 40.347 41.831 C 41.259 42.838, 41.666 44.061, 41.252 44.548 C 40.838 45.035, 41.288 44.831, 42.250 44.095 C 43.212 43.358, 43.993 42.248, 43.985 41.628 C 43.976 41.007, 43.533 41.175, 43 42 C 42.151 43.314, 41.604 42.779, 41.842 40.869 C 41.885 40.522, 40.934 39.397, 39.728 38.369 C 37.876 36.791, 37.745 36.772, 38.890 38.250" stroke="none" fill="#555555" fill-rule="evenodd"/>
</svg>