<svg xmlns="http://www.w3.org/2000/svg" width="800" height="800" viewBox="0 0 800 800" version="1.1"><path d="M 89.084 47.607 C 87.636 48.216, 85.890 49.945, 85.205 51.450 C 84.217 53.617, 83.958 118.111, 83.958 361.103 C 83.958 646.094, 84.078 668.250, 85.632 671.259 C 88.007 675.860, 160.669 748.704, 165.500 751.328 L 169.500 753.500 396.500 753.500 C 621.010 753.500, 623.560 753.478, 628.969 751.500 C 633.457 749.859, 635.227 748.457, 638.837 743.688 C 641.256 740.492, 644.963 736.786, 647.076 735.452 C 649.188 734.119, 652.732 730.571, 654.950 727.567 C 657.169 724.564, 660.985 720.730, 663.431 719.047 C 665.878 717.364, 669.394 713.727, 671.245 710.964 C 673.097 708.202, 676.813 704.492, 679.503 702.721 C 682.373 700.831, 685.473 697.641, 687.006 695 C 688.650 692.167, 691.714 689.108, 695.277 686.743 C 701.793 682.419, 702.456 681.415, 704.473 672.828 C 705.770 667.304, 705.965 627.693, 706.002 361.018 C 706.043 66.275, 705.980 55.450, 704.210 53.080 C 703.202 51.729, 701.279 49.804, 699.937 48.802 C 697.591 47.051, 685.836 46.971, 394.607 46.740 C 174.955 46.566, 90.993 46.804, 89.084 47.607 M 102.750 52.880 C 100.649 53.520, 97.818 56.376, 96.897 58.783 C 96.415 60.045, 96.003 128.238, 95.976 211.283 L 95.927 361.500 98.900 364.179 C 102.960 367.837, 108.734 368.548, 117.736 366.496 C 124.348 364.988, 125.209 364.494, 127.736 360.760 C 129.256 358.512, 132.075 355.868, 134 354.885 C 138.307 352.685, 148.282 351.018, 157.201 351.008 C 160.886 351.003, 166.195 350.508, 168.998 349.907 C 173.256 348.994, 174.515 348.179, 176.648 344.956 C 178.052 342.835, 180.271 340.397, 181.580 339.540 C 185.147 337.203, 195.179 335.235, 207.500 334.456 C 213.550 334.073, 219.482 333.252, 220.682 332.630 C 221.883 332.009, 224.233 329.609, 225.905 327.297 C 229.879 321.802, 235.057 320.252, 253.635 318.995 C 269.462 317.924, 271.928 317.285, 274.319 313.636 C 278.887 306.664, 284.065 304.667, 302 302.964 C 317.356 301.506, 319.880 300.732, 324.418 296.084 C 330.452 289.904, 336.133 287.975, 350.938 287.077 C 364.882 286.231, 369.495 284.682, 379.337 277.540 C 385.077 273.376, 388.505 272.350, 401.062 271.039 C 413.983 269.691, 419.608 267.809, 426.333 262.587 C 433.788 256.799, 435.926 256.175, 452.013 255.099 C 459.431 254.602, 466.625 253.673, 468 253.034 C 469.375 252.395, 471.625 250.331, 473 248.446 C 476.665 243.423, 481.973 241.288, 494 240 C 514.736 237.780, 515.756 237.502, 520.926 232.666 C 528.295 225.773, 530.574 224.988, 549 222.994 C 561.033 221.691, 566.057 219.770, 570.985 214.586 C 575.364 209.979, 580.566 208.450, 597 206.935 C 611.437 205.605, 615.313 204.290, 619.398 199.334 C 623.623 194.208, 627.624 192.932, 644.231 191.416 C 659.752 189.999, 663.811 188.744, 666.589 184.505 C 668.820 181.100, 677.173 177.306, 685.500 175.915 C 693.464 174.585, 697.482 172.837, 698.970 170.055 C 700.472 167.249, 700.377 60.922, 698.870 57.615 C 698.249 56.251, 696.561 54.649, 695.120 54.055 C 693.269 53.292, 606.160 52.905, 398.250 52.738 C 236.412 52.607, 103.437 52.671, 102.750 52.880 M 677.272 196.023 C 676.046 196.516, 673.121 198.917, 670.772 201.357 C 665.534 206.799, 660.116 208.588, 644.576 210.007 C 629.301 211.403, 628.457 211.654, 624.762 215.918 C 618.665 222.954, 615.383 224.109, 596 226.042 C 582.638 227.374, 578.625 228.786, 574.712 233.533 C 570.958 238.087, 562.410 240.629, 546.331 241.971 C 539.639 242.530, 532.932 243.455, 531.428 244.027 C 529.924 244.599, 526.931 247.069, 524.778 249.515 C 519.739 255.240, 514.588 256.842, 497.377 258.040 C 482.198 259.096, 480.260 259.668, 475.992 264.359 C 471.659 269.121, 465.035 271.714, 453.919 272.999 C 441.880 274.391, 437.265 275.637, 436.102 277.809 C 435.591 278.765, 434.434 282.396, 433.532 285.877 C 432.035 291.656, 431.893 311.840, 431.910 517.104 C 431.924 680.665, 432.233 742.568, 433.045 744.084 C 435.492 748.656, 435.600 748.662, 527.100 748.914 C 622.296 749.176, 618.419 749.410, 623.066 743.125 C 624.310 741.442, 627.708 738.485, 630.617 736.554 C 633.526 734.622, 637.746 730.551, 639.995 727.507 C 642.244 724.463, 645.880 720.838, 648.076 719.452 C 650.272 718.066, 653.628 714.494, 655.534 711.514 C 657.440 708.534, 660.972 704.739, 663.383 703.081 C 665.793 701.422, 669.397 697.794, 671.392 695.018 C 673.386 692.242, 677.249 688.598, 679.977 686.919 C 683.363 684.836, 686.035 682.067, 688.406 678.184 C 690.315 675.058, 692.819 671.925, 693.970 671.222 C 695.122 670.518, 696.932 668.516, 697.992 666.772 C 699.882 663.665, 699.922 658.911, 699.979 431.388 L 700.037 199.174 697.384 197.087 C 695.200 195.369, 693.383 195.011, 687.115 195.063 C 682.927 195.098, 678.497 195.530, 677.272 196.023 M 404.081 294.750 L 401.940 296.500 401.981 516.696 C 402.003 637.804, 402.310 737.704, 402.663 738.696 C 404.567 744.053, 409.272 745.568, 412.595 741.894 C 414.456 739.836, 414.501 734.783, 414.532 524.644 C 414.550 406.315, 414.926 307.022, 415.367 303.993 C 416.072 299.154, 415.908 298.153, 414.012 295.743 C 411.476 292.518, 407.319 292.103, 404.081 294.750 M 349.500 305.530 C 348.400 305.728, 344.808 306.185, 341.517 306.546 C 336.010 307.150, 335.140 307.602, 330.588 312.227 C 327.867 314.991, 324.060 317.913, 322.127 318.720 C 320.129 319.555, 311.354 320.749, 301.794 321.488 C 283.512 322.899, 281.714 323.490, 278.147 329.262 C 274.512 335.143, 269.989 336.650, 253.393 337.510 C 238.723 338.270, 233.560 339.310, 231.347 341.953 C 222.907 352.030, 221.815 352.481, 202.042 354.067 C 189.359 355.085, 182 356.808, 182 358.759 C 182 359.233, 180.593 361.060, 178.872 362.819 C 174.701 367.086, 168.505 368.712, 151.753 369.939 C 136.567 371.051, 132.947 372.268, 130.446 377.105 C 128.428 381.008, 122.526 383.659, 114 384.493 C 104.749 385.399, 99.269 387.579, 97.461 391.075 C 96.151 393.610, 95.998 410.749, 96.232 529.234 L 96.500 664.500 99.180 669 C 100.654 671.475, 106.211 677.775, 111.529 683 C 116.847 688.225, 125.991 697.430, 131.849 703.456 C 159.424 731.821, 172.043 743.842, 176.510 746.005 L 181.154 748.253 270.662 748.069 C 319.891 747.968, 361.144 747.513, 362.335 747.058 C 363.526 746.602, 365.307 745.334, 366.293 744.239 C 368.005 742.338, 368.085 732.533, 368.078 526.431 L 368.070 310.615 365.579 308.125 C 363.578 306.123, 361.951 305.589, 357.294 305.402 C 354.107 305.275, 350.600 305.332, 349.500 305.530" stroke="none" fill="#444" fill-rule="evenodd"/></svg>