<svg xmlns="http://www.w3.org/2000/svg" width="50" height="50" viewBox="0 0 50 50" version="1.1">
	<path d="M 5 22.812 L 5 42.624 7.960 44.812 C 10.675 46.820, 12.082 47, 25.055 47 C 37.743 47, 39.489 46.788, 42.096 44.932 L 45 42.864 45 22.932 L 45 3 25 3 L 5 3 5 22.812 M 6 7.500 L 6 11 25 11 L 44 11 44 7.500 L 44 4 25 4 L 6 4 6 7.500 M 6 26.826 C 6 46.632, 5.384 46, 24.680 46 C 37.380 46, 38.983 45.801, 41.365 43.927 L 44 41.855 44 26.927 L 44 12 25 12 L 6 12 6 26.826" stroke="none" fill="#555555" fill-rule="evenodd"/>
</svg>