<svg xmlns="http://www.w3.org/2000/svg" width="50" height="50" viewBox="0 0 50 50" version="1.1">
	<path d="M 5 22.500 C 5 33.408, 5.224 42.109, 5.498 41.836 C 6.184 41.150, 6.235 3.902, 5.551 3.218 C 5.248 2.915, 5 11.592, 5 22.500 M 18.269 11.693 C 19.242 11.947, 20.592 11.930, 21.269 11.656 C 21.946 11.382, 21.150 11.175, 19.500 11.195 C 17.850 11.215, 17.296 11.439, 18.269 11.693 M 27.250 11.689 C 28.212 11.941, 29.788 11.941, 30.750 11.689 C 31.712 11.438, 30.925 11.232, 29 11.232 C 27.075 11.232, 26.288 11.438, 27.250 11.689 M 23.189 29.750 C 23.085 39.237, 23.337 47.001, 23.750 47.002 C 24.163 47.003, 24.382 41.716, 24.239 35.252 C 23.771 14.196, 23.382 12.157, 23.189 29.750 M 40.924 44.750 L 38.500 47.500 41.250 45.076 C 43.820 42.810, 44.459 42, 43.674 42 C 43.495 42, 42.258 43.237, 40.924 44.750" stroke="none" fill="#555555" fill-rule="evenodd"/>
</svg>