<svg xmlns="http://www.w3.org/2000/svg" width="800" height="800" viewBox="0 0 800 800" version="1.1"><path d="M 516.707 210.126 C 508.414 218.042, 500.662 227.789, 498.015 233.628 C 495.953 238.175, 494.056 240.666, 491.107 242.698 C 488.047 244.807, 486.072 247.480, 483.126 253.500 C 480.973 257.900, 476.953 264.003, 474.193 267.062 C 471.433 270.121, 467.774 275.589, 466.062 279.212 C 463.934 283.717, 461.499 286.989, 458.361 289.560 C 455.248 292.112, 452.882 295.278, 451.001 299.410 C 449.477 302.760, 446.338 307.300, 444.025 309.500 C 441.591 311.815, 438.010 317.080, 435.523 322 C 432.489 328.003, 429.631 331.969, 425.794 335.500 C 422.806 338.250, 419.141 342.756, 417.650 345.514 C 415.901 348.749, 413.392 351.507, 410.582 353.285 C 406.167 356.078, 405.516 357.181, 402.497 366.980 C 400.548 373.306, 398.243 376.942, 392.730 382.386 C 390.565 384.523, 387.515 389.122, 385.952 392.606 C 383.865 397.259, 382.032 399.678, 379.047 401.720 C 376.047 403.773, 374.066 406.399, 371.474 411.759 C 369.544 415.752, 365.728 421.487, 362.995 424.505 C 360.262 427.523, 356.261 433.481, 354.104 437.746 C 351.448 442.998, 348.738 446.695, 345.708 449.202 C 342.727 451.668, 340.232 455.044, 338.235 459.311 C 336.354 463.331, 333.890 466.745, 331.619 468.477 C 327.493 471.624, 321.305 481.225, 320.361 485.943 C 319.548 490.008, 321.379 493.453, 325.806 496.189 C 327.694 497.356, 331.736 500.496, 334.789 503.167 C 338.779 506.659, 342.182 508.594, 346.895 510.049 C 354.248 512.320, 360.515 515.700, 363.501 519.004 C 365.987 521.755, 372.948 525.262, 379.397 527.013 C 382.400 527.828, 386.654 530.244, 390.397 533.260 C 397.591 539.056, 399.380 540.031, 408.035 542.874 C 412.911 544.475, 415.853 546.263, 419.622 549.915 C 423.783 553.947, 426.127 555.269, 432.923 557.416 C 443.403 560.726, 444.451 561.295, 450.500 566.948 C 454.591 570.771, 457.102 572.119, 464.316 574.363 C 471.818 576.697, 474.012 577.914, 479.026 582.524 C 482.267 585.504, 486.099 588.238, 487.540 588.599 C 492.128 589.751, 515.445 586.963, 517.353 585.035 C 518.218 584.161, 517.710 583.215, 515.288 581.188 C 507.572 574.730, 508.257 564.071, 516.969 555.032 C 520.574 551.292, 522.691 547.831, 524.939 542.002 C 526.623 537.636, 528 533.573, 528 532.972 C 528 532.372, 530.192 529.545, 532.871 526.690 C 538.429 520.767, 539.818 518.277, 543.020 508.500 C 544.853 502.903, 546.370 500.439, 550.590 496.208 C 554.296 492.491, 556.375 489.365, 557.571 485.708 C 560.120 477.914, 562.422 473.880, 566.534 470 C 569.918 466.807, 575.997 456.117, 575.999 453.356 C 576 452.194, 579.189 448.683, 584.665 443.814 C 586.407 442.264, 588.611 438.590, 589.871 435.133 C 591.372 431.018, 593.925 427.077, 598.019 422.560 C 601.298 418.942, 605.309 413.349, 606.934 410.131 C 608.796 406.442, 611.774 402.701, 614.996 400.003 C 617.806 397.650, 621.162 393.650, 622.454 391.113 C 624.842 386.422, 627.419 383.658, 632.119 380.747 C 633.560 379.855, 636.120 376.678, 637.808 373.686 C 639.970 369.856, 642.328 367.354, 645.782 365.229 C 648.862 363.334, 651.683 360.510, 653.367 357.636 C 655.240 354.441, 657.757 352.062, 661.709 349.753 C 665.039 347.807, 668.658 344.617, 670.496 342.005 C 672.674 338.912, 675.463 336.645, 679.687 334.532 C 683.023 332.865, 687.377 330.056, 689.363 328.292 C 693.653 324.481, 699.723 322.564, 703.253 323.906 C 705.376 324.713, 706.052 326.282, 708.350 335.749 C 709.808 341.751, 711 348.286, 711 350.272 C 711 353.811, 712.317 355.914, 713.418 354.132 C 713.724 353.637, 714.268 348.762, 714.626 343.300 C 715.406 331.389, 714.235 326.690, 709.931 324.464 C 708.202 323.570, 706.781 321.860, 706.414 320.232 C 704.068 309.807, 703.950 309.608, 695.168 301.280 C 689.441 295.850, 684.298 292.001, 680.012 289.938 C 676.292 288.148, 671.582 284.790, 668.973 282.069 C 666.470 279.459, 663.184 277.012, 661.670 276.632 C 653.632 274.615, 647.287 271.360, 642.104 266.597 C 639.022 263.765, 635.150 260.945, 633.500 260.332 C 631.850 259.718, 628.331 258.444, 625.681 257.499 C 623.031 256.555, 617.856 253.361, 614.181 250.403 C 610.506 247.444, 605.250 244.282, 602.500 243.375 C 595.109 240.937, 590.860 238.565, 587.500 235 C 583.944 231.227, 579.887 229.060, 570.758 226.059 C 565.529 224.340, 562.816 222.671, 558.672 218.625 C 553.946 214.011, 552.240 213.079, 543.914 210.559 C 538.736 208.992, 531.292 207.495, 527.370 207.232 C 520.367 206.761, 520.178 206.812, 516.707 210.126 M 523 214.306 C 519.935 215.352, 518.928 216.659, 514.896 224.818 C 512.172 230.329, 508.434 236.048, 505.745 238.818 C 503.244 241.393, 499.816 246.274, 498.128 249.664 C 496.078 253.780, 493.719 256.771, 491.030 258.664 C 488.039 260.771, 486 263.558, 483.107 269.500 C 480.964 273.900, 476.978 279.975, 474.249 283 C 471.520 286.025, 468.053 290.975, 466.544 294 C 465.036 297.025, 461.392 301.975, 458.446 305 C 455.500 308.025, 452.102 312.741, 450.896 315.480 C 449.690 318.219, 446.367 322.944, 443.513 325.980 C 437.311 332.576, 431 342.621, 431 345.897 C 431 349.667, 438.571 362.484, 441.619 363.872 C 443.086 364.541, 447.429 365.749, 451.269 366.557 C 460.974 368.598, 464.067 370.312, 467.304 375.439 C 470.295 380.176, 471.890 380.974, 482.500 383.034 C 491.265 384.735, 494.734 386.690, 497.566 391.522 C 500.345 396.264, 502.019 397.115, 513.256 399.496 C 521.544 401.252, 525.910 403.991, 528.546 409.089 C 529.357 410.658, 530.848 412.383, 531.858 412.924 C 534.585 414.383, 564.270 417.996, 573.554 417.998 C 580.159 418, 582.517 417.547, 586.664 415.480 C 592.885 412.380, 602.616 402.422, 606.979 394.692 C 608.770 391.517, 612.427 387.073, 615.104 384.815 C 617.782 382.557, 621.336 378.294, 623.002 375.342 C 624.829 372.105, 627.912 368.621, 630.766 366.568 C 633.447 364.639, 636.801 360.929, 638.500 358.013 C 640.449 354.667, 643.110 351.873, 646.099 350.034 C 648.629 348.477, 652.424 345.099, 654.532 342.526 C 656.687 339.897, 660.583 336.734, 663.432 335.302 C 666.220 333.901, 670.787 330.606, 673.583 327.979 C 676.378 325.352, 681.047 321.996, 683.959 320.521 C 686.870 319.045, 690.338 316.753, 691.665 315.426 C 694.855 312.236, 693.736 310.170, 686.222 305.372 C 683.075 303.362, 678.377 299.814, 675.782 297.485 C 673.187 295.157, 668.012 291.992, 664.282 290.451 C 660.552 288.910, 655.925 286.224, 654 284.482 C 648.636 279.627, 645.160 277.562, 637.053 274.418 C 631.827 272.391, 627.949 269.998, 624.053 266.396 C 619.991 262.641, 616.547 260.560, 611.223 258.644 C 601.794 255.249, 599.045 253.777, 596 250.496 C 593.158 247.434, 586.505 243.825, 580.256 241.956 C 577.921 241.258, 573.342 238.536, 570.080 235.908 C 563.281 230.429, 560.649 228.974, 553.027 226.481 C 549.324 225.270, 545.864 223.093, 542.332 219.753 C 535.604 213.389, 530.174 211.860, 523 214.306 M 539.645 330.563 C 529.010 333.759, 526.336 336.064, 520.731 346.869 C 514.954 358.005, 514.762 360.976, 519.390 367.703 C 521.254 370.413, 523.938 374.917, 525.354 377.712 C 528.689 384.293, 532.747 386.749, 542.657 388.183 C 552.425 389.597, 557.709 388.811, 566 384.713 C 572.047 381.724, 572.734 381.034, 575.860 374.809 C 580.144 366.281, 580.938 358.314, 578.568 347.659 C 576.696 339.246, 574.204 336.212, 567.289 333.930 C 565.220 333.247, 561.271 331.638, 558.513 330.354 C 552.396 327.505, 549.723 327.535, 539.645 330.563 M 544.500 336.355 C 534.402 339.660, 529.173 344.943, 526.989 354.045 C 524.791 363.208, 527.253 369.341, 534.892 373.730 C 537.426 375.186, 540.758 377.405, 542.295 378.662 C 546.878 382.409, 552.075 383.530, 555.838 381.584 C 557.577 380.685, 559 379.512, 559 378.977 C 559 378.443, 562.074 374.742, 565.832 370.753 C 569.589 366.764, 572.952 362.709, 573.304 361.741 C 574.196 359.289, 572.704 355.869, 568.817 351.459 C 566.993 349.389, 564.582 345.887, 563.460 343.676 C 562.338 341.465, 560.313 338.846, 558.960 337.856 C 555.629 335.418, 549.352 334.766, 544.500 336.355 M 415.749 371.413 C 409.484 373.099, 407.674 374.900, 402.767 384.332 C 400.501 388.687, 396.430 394.557, 393.720 397.376 C 391.011 400.194, 387.527 404.975, 385.979 408 C 384.430 411.025, 380.764 415.750, 377.832 418.500 C 374.038 422.058, 371.969 425.007, 370.658 428.727 C 369.545 431.884, 366.725 436.297, 363.537 439.870 C 360.633 443.124, 356.364 449.217, 354.050 453.410 C 351.654 457.750, 348.175 462.372, 345.971 464.143 C 343.843 465.854, 341.129 469.334, 339.942 471.877 C 338.754 474.420, 336.241 479.009, 334.356 482.077 C 332.243 485.516, 331.176 488.296, 331.573 489.331 C 331.927 490.253, 336.082 492.844, 340.805 495.088 C 345.529 497.333, 351.489 501.053, 354.051 503.356 C 357.056 506.058, 360.799 508.198, 364.604 509.392 C 372.576 511.892, 378.986 515.248, 382 518.498 C 384.956 521.687, 389.070 523.847, 398.237 527.025 C 402.542 528.518, 407.053 531.091, 410.737 534.157 C 414.771 537.515, 419.101 539.893, 425.172 542.086 C 431.374 544.326, 435.485 546.605, 439.604 550.088 C 443.485 553.369, 447.507 555.662, 451.932 557.115 C 460.898 560.060, 463.787 561.616, 468.799 566.199 C 473.801 570.774, 484.232 575.998, 488.368 575.999 C 491.472 576, 494.719 573.079, 503.256 562.605 C 506.333 558.829, 508.583 554.781, 509.632 551.135 C 511.798 543.609, 514.554 538.291, 518.663 533.713 C 522.128 529.852, 524.509 525.277, 527.526 516.681 C 528.457 514.031, 531.541 508.965, 534.381 505.424 C 537.595 501.416, 540.656 496.071, 542.493 491.259 C 544.737 485.382, 546.575 482.451, 550.168 479.016 C 553.458 475.871, 555.769 472.375, 557.781 467.500 C 559.370 463.650, 562.994 456.713, 565.835 452.085 C 571.511 442.837, 572.345 438.527, 569.035 435.532 C 567.308 433.969, 565.150 433.774, 551.162 433.920 C 531.798 434.121, 528.804 433.250, 523.500 425.867 C 519.540 420.355, 518.422 419.771, 508.590 418.077 C 499.524 416.514, 496.955 415.068, 492.682 409.120 C 489.414 404.572, 488.649 404.076, 483.312 403.049 C 468.101 400.123, 465.567 398.877, 462.384 392.759 C 460.280 388.716, 457.350 387.225, 448.998 385.952 C 438.437 384.342, 435.370 382.663, 432.448 376.896 C 428.828 369.754, 425.715 368.732, 415.749 371.413 M 695.400 391.400 C 695.034 392.354, 695.229 393.629, 695.834 394.234 C 696.634 395.034, 697.116 394.861, 697.600 393.600 C 697.966 392.646, 697.771 391.371, 697.166 390.766 C 696.366 389.966, 695.884 390.139, 695.400 391.400 M 663.036 439.456 C 661.669 441.104, 662.439 443, 664.476 443 C 666.026 443, 666.925 441.096, 666.246 439.250 C 665.638 437.598, 664.519 437.670, 663.036 439.456" stroke="none" fill="#444" fill-rule="evenodd"/></svg>