<svg xmlns="http://www.w3.org/2000/svg" width="1000" height="1000" viewBox="0 0 1000 1000" version="1.1"><path d="M 619.734 244.088 C 613.846 245.475, 608.515 248.587, 604.857 252.773 C 601.677 256.412, 594.761 261.132, 588.790 263.738 C 587.300 264.388, 584.100 267.643, 581.678 270.972 C 578.927 274.752, 575.046 278.463, 571.338 280.860 C 566.836 283.769, 564.469 286.245, 561.547 291.099 C 558.899 295.498, 555.797 298.907, 551.628 302 C 548.293 304.475, 544.889 307.850, 544.066 309.500 C 539.822 318.001, 536.402 322.837, 532.397 326 C 528.838 328.811, 526.870 331.762, 522.393 341 C 517.989 350.087, 515.602 353.692, 511.019 358.179 C 507.157 361.961, 504.636 365.468, 503.471 368.679 C 499.732 378.988, 496.894 384.282, 492.159 389.782 C 486.385 396.489, 484.646 399.693, 481.845 408.783 C 479.014 417.969, 476.883 421.812, 472.022 426.500 C 465.897 432.406, 464.222 435.708, 462.071 446.107 C 459.620 457.962, 458.047 461.669, 452.989 467.512 C 447.294 474.093, 444.358 480.401, 441.975 491.182 C 438.243 508.061, 436.141 512.124, 429.599 515.095 C 425.158 517.111, 413.888 517.684, 409.815 516.099 C 408.542 515.604, 404.949 512.792, 401.831 509.849 C 397.509 505.771, 394.308 503.813, 388.359 501.609 C 382.439 499.416, 379.221 497.453, 375.028 493.480 C 369.469 488.212, 362.912 484.358, 355.500 482.001 C 348.392 479.741, 344.159 477.098, 338.271 471.240 C 333.605 466.598, 331.160 465.045, 325.500 463.130 C 315.300 459.680, 310.161 456.806, 304.222 451.233 C 301.320 448.508, 297.045 445.476, 294.722 444.495 C 281.955 439.101, 277.777 436.781, 272.889 432.369 C 267.227 427.259, 263.051 424.928, 251.500 420.430 C 246.572 418.511, 242.872 416.154, 239 412.466 C 232.741 406.505, 232.478 406.351, 219.283 400.962 C 212.231 398.081, 208.313 395.780, 205.029 392.589 C 199.613 387.327, 193.333 383, 191.110 382.999 C 187.887 382.998, 177.364 377.137, 171.869 372.284 C 164.650 365.908, 160.560 363.410, 154.832 361.878 C 150.855 360.814, 149.587 360.886, 145.615 362.403 C 139.209 364.850, 125.262 380.427, 122.115 388.651 C 119.423 395.687, 116.169 400.115, 111.628 402.921 C 105.618 406.635, 103.376 415.613, 106.052 425.248 C 107.692 431.153, 110.746 433.708, 121.954 438.550 C 130.519 442.250, 133.590 444.199, 138.954 449.341 C 143.499 453.699, 147.334 456.343, 151.500 457.992 C 159.457 461.141, 161.474 462.434, 168.144 468.666 C 172.101 472.363, 176.965 475.427, 184.418 478.916 C 193.181 483.018, 196.141 485.014, 201.274 490.285 C 204.967 494.077, 208.721 496.970, 210.500 497.395 C 215.780 498.658, 223.168 503.043, 230.432 509.225 C 234.319 512.533, 239.975 516.349, 243 517.705 C 246.025 519.061, 250.075 520.882, 252 521.753 C 253.925 522.623, 258.425 526.321, 262 529.971 C 266.802 534.873, 269.669 536.947, 272.973 537.910 C 279.837 539.911, 285.829 543.429, 293.493 549.959 C 298.363 554.108, 303.092 556.997, 309.071 559.475 C 316.097 562.387, 318.675 564.103, 323.261 568.920 C 327.339 573.203, 330.378 575.372, 334.421 576.885 C 344.882 580.799, 353.463 585.833, 358.250 590.864 C 361.500 594.280, 364.751 596.511, 368.546 597.931 C 377.279 601.199, 381.197 603.518, 385.500 607.965 C 390.270 612.896, 394.796 615.640, 405.451 620.057 C 411.555 622.588, 415.108 624.936, 420.754 630.171 C 424.798 633.921, 429.320 637.278, 430.803 637.631 C 436.118 638.897, 445.264 644.068, 451.824 649.516 C 458.211 654.820, 460.928 656.386, 471 660.570 C 473.475 661.598, 478.425 665.229, 482 668.638 C 486.127 672.574, 490.416 675.591, 493.748 676.903 C 503.584 680.776, 511.493 685.240, 516.093 689.516 C 521.373 694.425, 525.164 696.564, 532.378 698.702 C 539.472 700.805, 544.020 703.265, 550.358 708.428 C 556.677 713.574, 560.442 715.605, 571.748 719.964 C 577.392 722.140, 581.654 724.623, 585.248 727.829 C 590.955 732.921, 596.255 736.050, 602.500 738.015 C 609.681 740.274, 615.781 743.881, 618.071 747.222 C 627.277 760.655, 633.989 761.167, 647.073 749.434 C 651.092 745.831, 657.747 740.772, 661.862 738.191 C 665.978 735.611, 671.855 730.918, 674.923 727.761 C 678.030 724.564, 683.579 720.357, 687.453 718.261 C 692.573 715.491, 695.530 713.019, 698.673 708.881 C 701.551 705.093, 705.157 701.946, 709.742 699.223 C 714.671 696.295, 717.580 693.675, 720.315 689.703 C 722.464 686.584, 726.374 682.707, 729.395 680.701 C 734.675 677.195, 736.532 675.228, 741.972 667.377 C 743.543 665.109, 747.187 661.734, 750.069 659.877 C 753.737 657.513, 756.614 654.470, 759.657 649.736 C 762.779 644.878, 765.543 641.988, 769.464 639.480 C 773.093 637.159, 775.837 634.398, 777.650 631.244 C 781.816 623.996, 783.703 621.850, 789.324 617.969 C 792.576 615.724, 795.450 612.654, 797.054 609.711 C 800.187 603.966, 804.352 599.400, 809.870 595.664 C 812.706 593.744, 815.005 590.952, 816.993 587.015 C 818.931 583.174, 822.016 579.384, 826.079 575.850 C 830.928 571.633, 833.150 568.669, 836.572 561.856 C 839.482 556.062, 843.213 550.732, 847.888 545.690 C 852.827 540.364, 856.054 535.673, 858.940 529.626 C 862.247 522.698, 863.866 520.500, 867.515 517.990 C 873.069 514.168, 875.338 509.852, 877.319 499.339 C 879.203 489.340, 880.817 486.091, 887.497 478.850 C 890.559 475.531, 892.976 471.868, 893.355 469.975 C 894.460 464.448, 894.057 449.897, 892.539 440.545 C 891.096 431.655, 891.105 431.534, 893.725 424.045 C 897.030 414.598, 897.209 407.692, 894.271 402.939 C 889.674 395.501, 875.822 380.618, 871.655 378.641 C 869.890 377.803, 865.839 374.836, 862.652 372.048 C 855.889 366.129, 853.591 364.852, 845.552 362.540 C 837.595 360.251, 829.574 356.040, 823.530 350.978 C 817.815 346.193, 812.993 343.561, 808 342.502 C 801.597 341.145, 792.490 336.376, 787.015 331.513 C 782.016 327.074, 779.494 325.675, 767 320.410 C 764.525 319.368, 759.800 316.021, 756.500 312.974 C 751.849 308.679, 747.938 306.317, 739.105 302.467 C 730.005 298.500, 726.355 296.265, 720.981 291.369 C 716.529 287.314, 712.330 284.519, 708.579 283.115 C 699.856 279.852, 695.483 277.369, 690.217 272.693 C 684.043 267.210, 680.287 264.948, 670.960 261.100 C 665.309 258.768, 662.052 256.603, 657.960 252.458 C 653.558 247.999, 651.269 246.547, 646.145 244.964 C 639.352 242.865, 626.706 242.446, 619.734 244.088 M 865.783 426.062 C 864.839 426.612, 863.207 428.961, 862.157 431.281 C 859.578 436.982, 856.656 439.819, 850.597 442.506 C 844.930 445.019, 843.391 446.508, 839.911 452.844 C 838.140 456.069, 835.845 458.170, 831.005 460.997 C 825.515 464.203, 823.933 465.786, 820.995 471.008 C 818.546 475.363, 816.428 477.761, 813.887 479.058 C 807.755 482.186, 804.273 485.800, 802.416 490.963 C 800.222 497.065, 797.013 500.633, 791.628 502.958 C 786.468 505.187, 784.480 507.412, 783.105 512.500 C 781.404 518.796, 778.542 522.592, 772.655 526.358 C 767.984 529.346, 766.900 530.652, 765.101 535.461 C 763.945 538.549, 763 541.564, 763 542.162 C 763 542.761, 761.813 545.895, 760.362 549.129 C 758.461 553.364, 756.714 555.611, 754.112 557.166 C 746.413 561.765, 743.993 565.285, 742.633 573.855 C 741.612 580.293, 739.492 583.650, 733.914 587.657 C 727.963 591.932, 725.701 595.998, 723.592 606.207 C 721.112 618.216, 719.583 620.706, 712.498 624.281 C 707.477 626.813, 705.979 629.353, 704.323 638.134 C 701.744 651.814, 700.492 654.454, 693.826 660.271 C 690.131 663.495, 686.750 667.609, 685.007 671 C 681.918 677.012, 677.775 681.356, 671.320 685.350 C 669.020 686.773, 665.797 689.888, 664.157 692.272 C 662.516 694.657, 659.447 697.803, 657.337 699.264 C 651.878 703.043, 636.167 705.944, 617.500 706.618 C 601.560 707.194, 594.628 708.343, 595.247 710.306 C 595.454 710.963, 598.296 713.252, 601.562 715.393 C 604.828 717.534, 609.525 721.778, 612 724.824 C 621.123 736.053, 625.310 738.557, 633.533 737.709 C 640.519 736.988, 646.285 733.912, 653.500 727.056 C 657.057 723.676, 662.261 720.056, 666.280 718.165 C 671.578 715.671, 673.762 713.947, 676.280 710.270 C 680.579 703.988, 682.772 702.055, 689.641 698.490 C 693.977 696.239, 696.387 694.094, 699.191 689.990 C 703.431 683.782, 708.940 678.013, 710.634 678.005 C 711.835 678, 716.837 672.544, 721 666.700 C 722.375 664.769, 726.058 661.589, 729.184 659.633 C 733.670 656.825, 735.704 654.643, 738.839 649.275 C 741.829 644.156, 743.885 641.886, 747.156 640.095 C 753.467 636.637, 756.736 633.256, 759.405 627.427 C 761.705 622.404, 762.755 621.337, 769.976 616.690 C 773.324 614.535, 774.598 612.921, 779.969 604.031 C 781.559 601.398, 784.349 598.865, 787.812 596.911 C 792.631 594.191, 793.539 593.115, 796.591 586.510 C 799.221 580.816, 801.329 577.982, 805.861 574.039 C 809.966 570.469, 812.860 566.769, 815.499 561.719 C 819.890 553.313, 822.654 549.746, 828.285 545.216 C 833.021 541.406, 836.028 536.814, 839.080 528.731 C 841.236 523.020, 841.904 522.183, 849.297 515.924 C 853.621 512.264, 855.113 509.195, 857.350 499.359 C 859.524 489.802, 862.257 484.034, 867.549 477.834 C 872.676 471.827, 874.143 467.679, 876.537 452.412 C 878.738 438.376, 878.228 429.413, 875.083 426.866 C 872.574 424.834, 868.494 424.481, 865.783 426.062 M 551.275 559.971 C 542.882 561.965, 540 566.791, 540 578.853 C 540 588.095, 542.307 596.316, 545.486 598.399 C 551.646 602.435, 569.596 603.561, 575.333 600.271 C 580.313 597.414, 583.001 591.018, 582.994 582.038 C 582.985 569.314, 580.320 563.370, 573.282 560.371 C 569.835 558.902, 556.773 558.665, 551.275 559.971" stroke="none" fill="#444" fill-rule="evenodd"/></svg>