<svg xmlns="http://www.w3.org/2000/svg" width="800" height="800" viewBox="0 0 800 800" version="1.1"><path d="M 512.500 213.690 C 510.850 214.576, 507.268 217.299, 504.540 219.742 C 501.812 222.185, 497.087 225.447, 494.040 226.991 C 488.450 229.825, 485.776 232.234, 482.675 237.230 C 481.742 238.732, 478.720 241.482, 475.958 243.343 C 472.655 245.567, 469.723 248.740, 467.395 252.612 C 465.448 255.851, 461.668 260.525, 458.996 263 C 455.759 265.998, 453.133 269.740, 451.127 274.212 C 449.259 278.378, 445.872 283.338, 442.195 287.291 C 438.131 291.659, 435.580 295.516, 434.067 299.579 C 432.854 302.835, 430.104 307.592, 427.957 310.148 C 422.735 316.365, 420.657 320.172, 417.964 328.452 C 416.372 333.347, 414.454 336.749, 411.483 339.952 C 406.227 345.617, 404.543 348.890, 402.397 357.611 C 400.509 365.285, 397.975 370.946, 395.515 372.987 C 392.312 375.646, 389.030 382.709, 386.437 392.527 C 384.988 398.012, 382.875 404.020, 381.741 405.877 C 378.650 410.941, 371.211 413.674, 361.957 413.145 C 360.533 413.064, 356.937 410.910, 353.786 408.250 C 350.691 405.637, 345.768 402.657, 342.847 401.626 C 339.423 400.418, 335.956 398.150, 333.087 395.240 C 328.775 390.866, 325.921 389.279, 315.581 385.502 C 312.754 384.470, 308.246 381.485, 304.982 378.483 C 301.175 374.984, 297.519 372.678, 293.900 371.493 C 285.925 368.883, 281.619 366.490, 276.139 361.623 C 273.076 358.903, 268.465 356.206, 263.884 354.456 C 259.191 352.662, 254.907 350.135, 252.020 347.456 C 247.054 342.850, 244.032 341.106, 235.435 337.890 C 231.831 336.541, 227.591 333.801, 224 330.500 C 220.324 327.121, 216.194 324.473, 212.396 323.060 C 204.776 320.225, 199.225 316.942, 195.588 313.115 C 193.986 311.430, 189.261 308.637, 185.088 306.909 C 180.132 304.856, 175.757 302.126, 172.475 299.039 C 166.299 293.230, 159.884 290.711, 144.249 287.959 C 129.527 285.367, 126.093 284.598, 115.368 281.490 C 104.049 278.210, 90.323 277.610, 88.634 280.321 C 87.677 281.859, 88.067 282.637, 91.140 285.321 C 95.278 288.935, 96.543 291.098, 98.630 298.126 C 99.603 301.404, 101.832 305.002, 105.175 308.693 C 107.962 311.771, 111.341 316.812, 112.683 319.895 C 114.026 322.978, 115.756 326.948, 116.530 328.717 C 117.475 330.880, 119.503 332.734, 122.718 334.376 C 125.348 335.720, 129.788 339.222, 132.584 342.160 C 136.486 346.259, 139.391 348.189, 145.084 350.467 C 150.386 352.589, 154.232 355.043, 158.576 359.079 C 162.752 362.958, 166.333 365.282, 170.022 366.507 C 173.812 367.766, 176.749 369.707, 180.007 373.104 C 183.281 376.519, 187.209 379.107, 193.526 382.012 C 199.597 384.803, 204.195 387.789, 207.972 391.392 C 211.760 395.005, 215.205 397.240, 218.858 398.453 C 222.547 399.678, 225.755 401.772, 229.212 405.210 C 232.642 408.622, 236.943 411.440, 242.860 414.151 C 248.580 416.771, 253.190 419.757, 256.500 422.983 C 259.872 426.270, 263.703 428.730, 268.268 430.542 C 272.168 432.089, 277.079 435.063, 279.854 437.559 C 282.504 439.941, 288.930 443.921, 294.134 446.402 C 300.942 449.648, 304.478 452.011, 306.741 454.828 C 309.023 457.667, 311.757 459.483, 316.693 461.439 C 324.366 464.478, 328.687 467.138, 334.500 472.397 C 336.700 474.388, 341.164 477.026, 344.419 478.258 C 348.175 479.681, 352.421 482.414, 356.039 485.737 C 360.059 489.431, 364.284 492.040, 370.368 494.587 C 376.901 497.321, 380.133 499.384, 383.674 503.080 C 386.247 505.765, 389.961 508.481, 391.926 509.117 C 397.900 511.049, 404.362 514.652, 407 517.521 C 410.272 521.078, 414.995 523.961, 423.082 527.336 C 427.618 529.228, 431.096 531.599, 434.269 534.961 C 438.277 539.208, 439.984 540.179, 447.434 542.452 C 454.603 544.638, 456.978 545.940, 462.043 550.459 C 466.580 554.508, 469.765 556.392, 474.795 558.002 C 482.686 560.527, 486.732 562.757, 492.458 567.739 C 494.769 569.749, 499.537 572.543, 503.055 573.948 C 508.312 576.049, 510.152 577.443, 513.381 581.772 C 519.696 590.237, 525.056 590.139, 535.093 581.372 C 538.617 578.294, 543.300 574.618, 545.500 573.203 C 547.700 571.788, 551.975 568.284, 555 565.416 C 558.025 562.548, 562.657 559.126, 565.293 557.811 C 568.245 556.339, 571.516 553.528, 573.810 550.493 C 575.859 547.782, 579.777 544.283, 582.517 542.717 C 585.699 540.898, 588.688 538.068, 590.788 534.888 C 592.597 532.149, 596.182 528.572, 598.754 526.941 C 601.553 525.166, 604.675 521.958, 606.528 518.954 C 608.351 515.999, 611.705 512.533, 614.681 510.529 C 617.633 508.541, 620.850 505.225, 622.410 502.563 C 623.881 500.054, 627.537 496.189, 630.535 493.974 C 633.533 491.759, 636.863 488.229, 637.934 486.129 C 639.723 482.623, 644.791 477.362, 648.335 475.333 C 649.136 474.875, 651.377 471.800, 653.316 468.500 C 655.254 465.200, 658.810 460.867, 661.217 458.870 C 663.708 456.804, 667.046 452.515, 668.965 448.914 C 670.820 445.434, 674.963 439.765, 678.172 436.316 C 681.430 432.813, 685.123 427.518, 686.537 424.321 C 688.146 420.683, 691.016 416.757, 694.414 413.549 C 698.561 409.632, 699.909 407.603, 700.428 404.500 C 702.076 394.634, 704.097 389.914, 708.982 384.520 C 712.037 381.146, 714.138 377.783, 714.545 375.613 C 714.904 373.696, 714.700 365.911, 714.090 358.313 C 713.150 346.594, 713.210 343.756, 714.491 339.591 C 717.273 330.540, 716.728 328.324, 710.173 322.065 C 706.968 319.004, 703.151 314.853, 701.690 312.839 C 699.905 310.378, 697.473 308.618, 694.267 307.467 C 691.645 306.526, 687.588 305.075, 685.251 304.242 C 682.913 303.410, 678.508 300.547, 675.462 297.881 C 671.248 294.194, 668.197 292.518, 662.711 290.876 C 653.339 288.071, 651.025 286.851, 645.102 281.591 C 642.187 279.002, 638.006 276.509, 634.841 275.474 C 626.862 272.863, 622.917 270.601, 618.648 266.189 C 615.868 263.315, 612.392 261.282, 606.148 258.877 C 599.378 256.271, 596.508 254.518, 592.933 250.808 C 589.549 247.297, 586.161 245.147, 579.858 242.508 C 574.610 240.311, 569.103 237.047, 565.487 233.989 C 562.007 231.047, 556.930 228.002, 552.999 226.500 C 548.578 224.810, 545.065 222.604, 542.438 219.865 C 536.759 213.947, 532.008 212.040, 523 212.062 C 518.044 212.074, 514.482 212.626, 512.500 213.690 M 687.859 355.875 C 685.156 357.588, 682.049 360.825, 680.163 363.889 C 676.934 369.137, 672.689 372.470, 667.894 373.523 C 664.294 374.314, 662.594 376.464, 660.510 382.864 C 659.221 386.823, 657.982 388.658, 655.783 389.864 C 649.749 393.176, 647.818 395.403, 643.467 404.066 C 640.879 409.219, 638.076 413.404, 636.760 414.081 C 632.377 416.337, 629.035 420.379, 627.394 425.411 C 625.289 431.870, 624.643 432.640, 618.899 435.551 C 613.711 438.180, 612.689 440.158, 611.444 449.975 C 610.725 455.648, 609.067 457.876, 601.179 463.766 C 598.048 466.104, 597.066 468.420, 595.047 478.223 C 593.934 483.629, 593.599 484.094, 589.006 486.593 C 583.626 489.521, 582.857 490.886, 580.433 501.815 C 578.975 508.387, 578.227 509.758, 573.065 515.315 C 564.431 524.609, 559.015 535.321, 560.532 540.102 C 561.116 541.940, 561.759 542.162, 565.182 541.702 C 570.022 541.053, 572.480 538.953, 575.602 532.796 C 577.251 529.544, 579.357 527.289, 582.424 525.492 C 585.046 523.955, 588.143 520.894, 589.994 518.009 C 591.773 515.237, 595.219 511.785, 597.966 510.022 C 601.589 507.697, 603.444 505.568, 605.345 501.552 C 607.452 497.103, 608.790 495.704, 613.192 493.344 C 617.163 491.216, 619.047 489.416, 620.672 486.197 C 623.712 480.172, 624.877 478.982, 629.786 476.877 C 633.326 475.360, 634.461 474.174, 636.115 470.264 C 639.540 462.163, 639.963 461.586, 644.728 458.500 C 648.576 456.008, 649.670 454.576, 651.189 450.045 C 652.619 445.779, 654.490 443.165, 659.777 438.045 C 665.067 432.923, 666.942 430.304, 668.397 426 C 670.919 418.537, 672.377 416.418, 676.997 413.502 C 681.509 410.654, 683.451 407.418, 684.498 401 C 685.392 395.521, 686.174 393.915, 691.104 387.435 C 696.241 380.683, 701.062 369.822, 701.696 363.572 C 702.121 359.383, 701.831 358.021, 700.032 355.750 C 697.189 352.160, 693.660 352.196, 687.859 355.875 M 443.895 454.365 C 441.053 455.782, 440.667 459.756, 443.214 461.363 C 444.544 462.202, 445.552 461.978, 447.714 460.364 C 449.246 459.220, 450.500 457.484, 450.500 456.507 C 450.500 454.073, 446.853 452.890, 443.895 454.365 M 434.390 514.427 C 433.279 517.322, 434.529 520.495, 437.303 521.821 C 439.715 522.973, 440.448 522.936, 442.553 521.557 C 445.197 519.825, 445.592 517.974, 443.965 514.934 C 442.686 512.545, 435.263 512.152, 434.390 514.427 M 552.017 545.286 C 547.230 547.708, 546.829 554.933, 551.432 555.838 C 555.339 556.606, 559.594 548.626, 556.966 545.459 C 555.503 543.696, 555.181 543.685, 552.017 545.286" stroke="none" fill="#444" fill-rule="evenodd"/></svg>