<svg xmlns="http://www.w3.org/2000/svg" width="50" height="50" viewBox="0 0 50 50" version="1.1">
	<path d="M 28.306 16.304 C 26.710 18.122, 24.809 21.047, 24.081 22.804 C 23.353 24.562, 22.474 25.995, 22.129 25.989 C 21.783 25.983, 18.357 23.990, 14.516 21.561 C 9.388 18.318, 7.195 17.423, 6.266 18.195 C 5.569 18.772, 5 19.595, 5 20.024 C 5 20.452, 10.062 24.078, 16.250 28.082 C 25.171 33.855, 28.190 35.317, 30.832 35.144 C 33.193 34.990, 33.949 35.273, 33.427 36.118 C 32.959 36.875, 33.118 37.045, 33.862 36.585 C 34.506 36.187, 34.764 35.427, 34.435 34.895 C 34.106 34.363, 35.280 31.680, 37.043 28.933 C 40.532 23.496, 43.503 21.185, 44.340 23.258 C 44.616 23.941, 44.878 23.526, 44.921 22.336 C 44.981 20.682, 43.489 19.327, 38.588 16.586 C 35.061 14.614, 31.957 13, 31.691 13 C 31.425 13, 29.902 14.487, 28.306 16.304 M 40.405 29.250 L 38.500 31.500 40.750 29.595 C 42.864 27.805, 43.455 27, 42.655 27 C 42.465 27, 41.453 28.012, 40.405 29.250 M 27.543 28.931 C 26.860 30.036, 28.437 31.230, 29.361 30.306 C 30.311 29.355, 30.134 28, 29.059 28 C 28.541 28, 27.859 28.419, 27.543 28.931" stroke="none" fill="#555555" fill-rule="evenodd"/>
</svg>