<svg xmlns="http://www.w3.org/2000/svg" width="50" height="50" viewBox="0 0 50 50" version="1.1">
	<path d="M 28.041 17.101 C 26.407 19.357, 24.799 22.057, 24.468 23.101 C 23.641 25.707, 22.619 25.521, 16.131 21.581 C 3.637 13.994, 1.296 16.796, 13.379 24.874 C 17.295 27.492, 23.359 31.353, 26.852 33.452 L 33.205 37.269 37.852 32.402 L 42.500 27.535 38.110 31.517 L 33.720 35.500 36.507 30.272 C 40.105 23.523, 42.748 20.988, 44.046 23.040 C 44.776 24.194, 44.973 24.044, 44.985 22.322 C 44.996 20.730, 43.419 19.185, 39.119 16.572 C 35.885 14.608, 32.738 13, 32.125 13 C 31.513 13, 29.676 14.846, 28.041 17.101 M 27.313 28.208 C 25.237 30.886, 25.054 31.807, 26.490 32.358 C 28.300 33.052, 30.636 29.236, 29.250 27.850 C 28.670 27.270, 27.935 27.406, 27.313 28.208" stroke="none" fill="#555555" fill-rule="evenodd"/>
</svg>