<svg xmlns="http://www.w3.org/2000/svg" width="800" height="800" viewBox="0 0 800 800" version="1.1"><path d="M 506.500 213.218 C 504.850 213.801, 501.142 216.486, 498.261 219.185 C 495.379 221.885, 491.509 224.725, 489.660 225.498 C 485.644 227.175, 467.319 244.928, 464.094 250.264 C 462.843 252.334, 459.916 255.338, 457.589 256.939 C 454.800 258.858, 452.256 261.919, 450.121 265.924 C 448.319 269.305, 445.071 273.442, 442.799 275.250 C 439.855 277.593, 437.676 280.751, 434.988 286.566 C 432.712 291.492, 429.068 297.089, 425.630 300.942 C 422.534 304.413, 420 307.629, 420 308.089 C 420 311.337, 415.027 320.996, 410.962 325.641 C 407.062 330.098, 405.467 333.109, 402.906 340.849 C 400.455 348.260, 398.877 351.319, 396.107 354.026 C 390.343 359.662, 390.033 360.272, 386.916 372.153 C 384.495 381.384, 383.041 384.805, 378.997 390.790 C 376.273 394.823, 373.568 400.007, 372.985 402.311 C 368.396 420.460, 364.356 423.037, 348.192 418.127 C 343.188 416.607, 340.345 415.076, 338.331 412.818 C 332.389 406.156, 330.052 404.332, 325.844 403.075 C 319.465 401.169, 315.136 398.714, 309.288 393.685 C 306.246 391.070, 301.229 388.116, 297.240 386.592 C 292.291 384.700, 289.061 382.616, 285.534 379.034 C 281.939 375.384, 278.621 373.266, 272.870 370.948 C 267.471 368.771, 263.110 366.070, 258.672 362.153 C 254.322 358.314, 250.401 355.867, 246.453 354.526 C 242.988 353.350, 238.591 350.772, 235.569 348.147 C 232.781 345.723, 226.298 341.752, 221.162 339.322 C 214.293 336.071, 210.628 333.604, 207.300 329.992 C 204.696 327.164, 201.234 324.582, 199.139 323.904 C 192.776 321.846, 186.464 318.257, 180.993 313.587 C 177.876 310.926, 172.821 307.960, 168.756 306.407 C 164.099 304.627, 160.321 302.293, 157.224 299.283 C 154.393 296.532, 149.346 293.295, 144.131 290.886 C 138.389 288.233, 133.784 285.191, 129.896 281.482 C 122.050 273.999, 117.434 274.365, 113.071 282.816 C 112.025 284.842, 109.288 288.300, 106.987 290.500 C 104.174 293.191, 100.874 298.401, 96.903 306.422 C 87.727 324.955, 88.539 328.650, 103.261 335.359 C 108.384 337.694, 111.550 339.907, 113.760 342.697 C 115.908 345.409, 119.356 347.863, 124.494 350.336 C 128.658 352.340, 134.187 355.955, 136.782 358.368 C 139.377 360.782, 144.821 364.421, 148.879 366.456 C 153.417 368.731, 157.845 371.907, 160.379 374.705 C 163.061 377.666, 166.944 380.387, 171.500 382.499 C 175.350 384.283, 180.075 387.418, 182 389.465 C 183.978 391.569, 189.684 395.296, 195.123 398.039 C 202.091 401.552, 205.651 404.035, 208.030 407.038 C 210.308 409.914, 213.571 412.257, 218.671 414.677 C 223.494 416.967, 226.969 419.407, 228.764 421.766 C 230.714 424.329, 234.141 426.597, 240.689 429.660 C 246.381 432.323, 252.125 435.963, 255.786 439.229 C 259.335 442.394, 263.820 445.263, 267.014 446.410 C 270.165 447.542, 274.557 450.335, 277.791 453.263 C 281.099 456.259, 286.646 459.762, 291.874 462.158 C 297.600 464.781, 302.181 467.751, 305.500 470.993 C 308.869 474.284, 312.457 476.595, 316.500 478.080 C 323.078 480.495, 326.287 482.473, 332.836 488.147 C 335.221 490.213, 339.895 492.938, 343.225 494.202 C 347.131 495.685, 351.464 498.470, 355.443 502.054 C 359.176 505.417, 363.954 508.547, 367.554 509.987 C 375.208 513.050, 377.358 514.400, 383.831 520.213 C 386.762 522.846, 389.687 525.004, 390.331 525.010 C 393.066 525.033, 402.231 530.172, 406.415 534.029 C 409.233 536.626, 414.443 539.710, 420.221 542.200 C 426.173 544.765, 431.132 547.724, 434.051 550.453 C 436.796 553.020, 440.961 555.566, 444.551 556.873 C 447.823 558.065, 452.360 559.723, 454.634 560.558 C 456.908 561.393, 461.052 564.267, 463.844 566.943 C 467.538 570.485, 470.662 572.390, 475.318 573.940 C 481.797 576.096, 487.063 579.210, 494.711 585.409 C 500.612 590.191, 516.590 593.630, 522.455 591.379 C 524.901 590.440, 526.863 585.890, 528.491 577.383 C 530.054 569.214, 531.388 566.545, 536.427 561.507 C 538.640 559.293, 540.247 556.089, 541.766 550.861 C 542.962 546.747, 545.293 541.608, 546.948 539.440 C 554.248 529.879, 555.917 527.049, 558.428 519.976 C 560.212 514.950, 562.845 510.283, 566.391 505.861 C 570.163 501.157, 572.513 496.885, 574.555 491.017 C 576.757 484.691, 578.628 481.428, 582.609 476.967 C 585.460 473.771, 588.352 469.433, 589.034 467.328 C 591.358 460.157, 595.991 452.067, 599.081 449.782 C 600.917 448.425, 603.617 444.481, 605.756 440.034 C 608.015 435.338, 610.972 431.088, 613.724 428.583 C 616.131 426.393, 619.758 421.447, 621.784 417.592 C 623.810 413.737, 627.781 408.305, 630.609 405.522 C 633.438 402.738, 637.172 398.220, 638.907 395.480 C 641.722 391.036, 646.610 385.739, 660.807 371.745 C 663.175 369.410, 668.125 364.538, 671.807 360.919 C 675.488 357.299, 682.525 351.899, 687.443 348.919 C 696.087 343.681, 696.604 343.509, 702.874 343.755 C 710.616 344.059, 713.075 342.376, 715.016 335.442 C 716.664 329.558, 715.264 326.310, 709.513 322.672 C 707.069 321.125, 703.238 317.673, 701.001 315.001 C 697.439 310.747, 695.909 309.804, 688.716 307.433 C 677.932 303.877, 674.213 301.917, 670.077 297.612 C 667.761 295.200, 664.528 293.344, 660.077 291.870 C 649.118 288.241, 645.508 286.392, 640.233 281.707 C 637.198 279.012, 633.051 276.524, 629.841 275.474 C 621.972 272.898, 617.314 270.330, 612.552 265.941 C 610.215 263.787, 604.972 260.490, 600.901 258.615 C 596.250 256.473, 591.857 253.509, 589.078 250.640 C 585.613 247.062, 582.640 245.292, 575.350 242.468 C 568.231 239.709, 564.881 237.741, 561.095 234.091 C 557.715 230.834, 554.141 228.593, 549.823 227.025 C 543.363 224.679, 536.524 220.545, 533.942 217.426 C 531.104 213.997, 524.882 212.041, 517 212.101 C 512.875 212.132, 508.150 212.635, 506.500 213.218 M 455.384 452.434 C 451.575 454.092, 450 458.091, 450 466.102 C 450 476.807, 453.331 480, 464.500 480 C 475.483 480, 479.007 476.620, 478.994 466.101 C 478.985 458.162, 477.314 454.029, 473.463 452.420 C 469.199 450.638, 459.493 450.646, 455.384 452.434" stroke="none" fill="#444" fill-rule="evenodd"/></svg>