<svg xmlns="http://www.w3.org/2000/svg" width="1000" height="1000" viewBox="0 0 1000 1000" version="1.1"><path d="M 626.229 244.993 C 624.981 245.520, 621.627 248.428, 618.777 251.455 C 614.919 255.554, 611.156 258.160, 604.048 261.656 C 596.396 265.419, 593.110 267.776, 587.500 273.525 C 583.650 277.470, 577.800 282.510, 574.500 284.724 C 570.334 287.520, 567.048 290.881, 563.751 295.718 C 561.140 299.550, 556.784 304.555, 554.073 306.842 C 549.937 310.329, 543 318.931, 543 320.572 C 543 322.056, 536.740 330.400, 531.366 336.080 C 526.979 340.717, 523.984 345.147, 521.225 351.080 C 518.326 357.314, 515.973 360.720, 512.163 364.200 C 506.711 369.177, 505.873 370.641, 500.914 383.848 C 498.618 389.962, 496.579 393.440, 493.291 396.848 C 486.153 404.247, 485.126 405.860, 482.990 413.034 C 479.911 423.373, 477.395 428.382, 471.839 435.232 C 466.506 441.808, 463.073 448.129, 463.002 451.500 C 462.979 452.600, 461.633 457.265, 460.010 461.866 C 457.382 469.320, 454.278 474.723, 450.247 478.861 C 447.311 481.875, 444.122 489.998, 442.534 498.508 C 439.304 515.819, 435.696 519.999, 424 519.984 C 413.562 519.971, 407.176 517.828, 402.500 512.767 C 397.119 506.944, 393.471 504.512, 387.427 502.718 C 379.705 500.427, 373.102 496.726, 366.679 491.088 C 360.770 485.900, 356.153 483.001, 353.800 482.999 C 350.604 482.997, 339.150 476.540, 335.500 472.683 C 331.248 468.191, 327.283 465.948, 314.571 460.847 C 308.557 458.433, 304.979 456.138, 299.751 451.340 C 294.396 446.425, 291.592 444.649, 287.179 443.373 C 277.252 440.505, 271.368 437.355, 264.997 431.498 C 259.011 425.994, 256.093 424.341, 245.597 420.508 C 242.901 419.524, 237.899 416.347, 234.483 413.448 C 227.491 407.517, 224.009 405.569, 212.403 401.094 C 206.003 398.627, 203.311 396.923, 199.566 392.967 C 194.037 387.128, 192.787 386.417, 179.500 381.555 C 170.797 378.371, 168.887 377.233, 164.773 372.783 C 158.768 366.288, 155.301 364.015, 151.385 364.007 C 147.189 363.998, 143.840 366.849, 139.950 373.743 C 138.164 376.907, 134.328 381.671, 131.425 384.330 C 127.476 387.947, 125.482 390.825, 123.507 395.759 C 120.017 404.476, 116.623 410.517, 112.132 416 C 107.921 421.142, 106 425.049, 106 428.470 C 106 432.249, 110.415 436.578, 116.196 438.469 C 124.647 441.233, 130.606 444.680, 136.043 449.948 C 138.849 452.667, 143.026 455.744, 145.323 456.785 C 147.620 457.827, 151.877 459.735, 154.782 461.025 C 158.089 462.495, 161.404 465.007, 163.649 467.747 C 167.702 472.693, 172.630 476.090, 178.500 477.983 C 186.381 480.525, 192.590 484.308, 198.122 489.940 C 202.063 493.952, 205.503 496.358, 209.622 497.984 C 217.782 501.203, 220.670 503.069, 227 509.209 C 230.323 512.433, 234.479 515.297, 237.500 516.446 C 249.702 521.087, 255.040 524.227, 259.427 529.347 C 263.978 534.656, 266.464 536.237, 276.131 539.964 C 279.394 541.222, 284.754 544.673, 288.877 548.170 C 294.011 552.523, 298.849 555.439, 306.247 558.637 C 314.993 562.419, 317.382 563.987, 322.500 569.309 C 326.802 573.783, 329.773 575.947, 333 576.956 C 340.832 579.406, 350.902 584.907, 355.214 589.092 C 360.950 594.658, 363.603 596.385, 370.127 598.799 C 377.678 601.592, 381.008 603.728, 385.349 608.565 C 388.903 612.526, 393.194 614.871, 407.065 620.435 C 412.089 622.450, 415.061 624.549, 419.730 629.377 C 423.086 632.848, 427.331 636.260, 429.165 636.960 C 440.890 641.435, 443.783 643.007, 450.749 648.688 C 456.176 653.113, 461.199 656.118, 467.500 658.710 C 475.065 661.822, 477.537 663.456, 483 668.956 C 487.915 673.905, 490.841 675.964, 495 677.403 C 504.059 680.538, 511.227 684.538, 516.154 689.208 C 521.188 693.981, 526.380 696.824, 535 699.528 C 541.619 701.605, 547.443 704.809, 551.500 708.606 C 555.932 712.754, 564.509 717.685, 568.638 718.460 C 574.655 719.589, 582.226 723.594, 587.300 728.332 C 592.286 732.988, 598.599 736.431, 608 739.620 C 612.221 741.052, 615.058 743.050, 620.197 748.211 C 623.881 751.909, 628.019 755.218, 629.394 755.563 C 633.337 756.552, 639.005 754.100, 644.468 749.041 C 649.383 744.490, 653.841 741.477, 665 735.168 C 668.025 733.457, 672.572 729.676, 675.105 726.765 C 677.637 723.853, 681.462 720.578, 683.605 719.486 C 691.989 715.211, 695.013 712.860, 698.028 708.271 C 701.152 703.516, 703.373 701.575, 712.103 695.964 C 714.635 694.337, 717.964 691.016, 719.502 688.583 C 721.040 686.150, 724.074 682.886, 726.245 681.330 C 733.289 676.280, 737.073 672.760, 738.570 669.865 C 740.773 665.605, 745.941 660.062, 750.242 657.347 C 752.347 656.019, 755.592 652.551, 757.453 649.641 C 760.612 644.702, 763.176 642.151, 771.093 636.066 C 772.835 634.728, 775.799 631.227, 777.680 628.287 C 779.561 625.346, 782.990 621.630, 785.300 620.028 C 793.249 614.515, 794.532 613.227, 796.907 608.371 C 800.018 602.010, 801.445 600.437, 807.802 596.359 C 812.071 593.621, 813.657 591.791, 815.936 586.972 C 819.418 579.610, 820.200 578.654, 826.644 573.894 C 831.085 570.613, 832.171 569.093, 834.571 562.796 C 836.812 556.918, 838.577 554.285, 843.655 549.248 C 848.661 544.282, 850.957 540.887, 854.816 532.748 C 858.981 523.964, 860.552 521.743, 865.811 517.204 C 872.351 511.560, 873.169 509.848, 875.122 497.722 C 876.273 490.575, 878.571 485.865, 883.512 480.519 C 888.686 474.923, 890.991 471.499, 892.110 467.746 C 892.642 465.961, 893.528 455.500, 894.078 444.500 C 894.628 433.500, 895.332 422.345, 895.643 419.710 C 896.611 411.500, 895.449 408.333, 889.380 402.645 C 886.361 399.815, 882.539 395.150, 880.887 392.277 C 877.349 386.124, 874.990 384.342, 865.191 380.423 C 860.867 378.694, 855.557 375.528, 852.191 372.673 C 845.391 366.904, 841.110 364.585, 832.189 361.836 C 823.350 359.112, 819.449 357.042, 813.843 352.100 C 809.583 348.343, 800 343.033, 797.440 343.010 C 796.856 343.004, 793.532 341.884, 790.051 340.520 C 785.735 338.828, 781.880 336.283, 777.929 332.513 C 772.994 327.806, 764.940 323, 761.987 323 C 759.122 323, 747.171 316.175, 743.649 312.528 C 738.878 307.587, 732.410 303, 730.215 303 C 727.141 303, 714.337 295.914, 709.534 291.556 C 704.345 286.847, 700.871 284.895, 689.911 280.534 C 684.919 278.547, 682.011 276.524, 677.911 272.181 C 673.401 267.404, 671.085 265.894, 664 263.112 C 652.998 258.792, 647.858 255.809, 644.460 251.771 C 639.378 245.730, 631.461 242.788, 626.229 244.993 M 864.660 438.159 C 863.097 439.336, 858.426 442.144, 854.278 444.399 C 848.166 447.723, 846.303 449.320, 844.451 452.830 C 841.208 458.973, 839.189 460.928, 833.465 463.467 C 828.498 465.670, 823 470.919, 823 473.458 C 823 475.608, 816.943 480.856, 812.507 482.550 C 808.244 484.178, 803 490.562, 803 494.123 C 803 496.882, 798.141 501.895, 792.888 504.557 C 787.293 507.392, 785.868 509.303, 783.401 517.285 C 781.698 522.794, 779.020 526.193, 770.462 533.710 C 769.341 534.694, 767.145 538.200, 765.582 541.500 C 764.018 544.800, 761.786 549.496, 760.620 551.935 C 759.162 554.984, 756.811 557.521, 753.095 560.057 C 746.783 564.362, 745.374 566.692, 743.425 576.037 C 741.448 585.519, 740.644 586.964, 733.957 593.039 C 728.512 597.986, 727.893 599.017, 724.928 608.070 C 721.395 618.858, 719.644 621.356, 712.870 625.269 C 707.477 628.384, 705.847 631.665, 704.059 643 C 702.374 653.679, 701.492 655.384, 694.347 661.784 C 688.509 667.012, 687.582 668.426, 683.482 678.362 C 680.824 684.805, 679 690.794, 679 693.082 L 679 696.941 683.250 696.370 C 690.115 695.449, 693.820 693.176, 696.700 688.120 C 700.195 681.986, 702.470 679.549, 708.034 675.978 C 710.591 674.337, 714.751 670.331, 717.280 667.076 C 719.902 663.699, 723.943 659.972, 726.688 658.399 C 732.657 654.978, 734.648 652.981, 736.825 648.229 C 739.815 641.703, 742.103 639.069, 747.187 636.302 C 751.136 634.153, 752.942 632.236, 756.075 626.872 C 760.186 619.832, 762.193 617.813, 768.372 614.500 C 770.983 613.100, 773.147 610.632, 775.585 606.276 C 778.240 601.533, 780.619 598.946, 785.584 595.403 C 791.071 591.487, 792.663 589.633, 795.678 583.647 C 797.756 579.521, 801.858 573.804, 805.456 570.020 C 808.866 566.434, 813.827 560.125, 816.480 556 C 819.134 551.875, 823.824 545.901, 826.903 542.724 C 830.470 539.043, 833.951 533.992, 836.500 528.795 C 839.825 522.017, 841.511 519.857, 846.494 515.991 C 852.972 510.965, 853.333 510.192, 857.388 492.646 C 858.935 485.952, 861.629 480.627, 868.593 470.500 C 872.879 464.268, 874.048 460.502, 874.649 451 C 875.425 438.716, 871.175 433.252, 864.660 438.159 M 536.315 565.007 C 533.385 566.187, 532 569.037, 532 573.883 C 532 577.261, 532.531 578.303, 535.344 580.449 C 538.212 582.636, 539.713 583, 545.869 583 C 550.419 583, 555.078 583.713, 558.585 584.945 C 561.630 586.016, 564.711 586.664, 565.433 586.387 C 569.223 584.933, 568.903 577.497, 564.803 571.729 C 562.268 568.162, 557.861 566.365, 548.436 565.054 C 539.665 563.835, 539.230 563.833, 536.315 565.007 M 510.077 586.589 C 505.307 590.603, 505.915 597.153, 511.925 606.500 C 513.205 608.490, 513.873 611.351, 513.912 615 C 513.953 618.900, 513.687 620.064, 513 619 C 512.141 617.670, 512.029 617.672, 512.015 619.015 C 512.004 620.155, 510.582 620.601, 506.250 620.822 C 503.087 620.983, 497.815 621.652, 494.534 622.308 C 489.489 623.316, 488.215 624.025, 486.284 626.898 C 481.575 633.904, 484.434 648.105, 491.266 651.638 C 494.261 653.186, 499.145 653.128, 507.546 651.444 C 510.384 650.874, 510.775 651.171, 513.301 655.812 C 516.286 661.295, 517.382 662, 522.933 662 C 531.768 662, 537.005 656.736, 536.995 647.864 C 536.988 641.635, 534.053 638.438, 526.594 636.535 C 518.851 634.559, 517 632.806, 517 627.443 C 517 623.578, 517.284 623.097, 520.149 622.098 C 524.563 620.559, 531.174 620.731, 538.265 622.569 C 548.285 625.165, 552.218 623.086, 554.059 614.216 C 555.429 607.618, 554.105 601.662, 550.886 599.939 C 549.178 599.025, 539.658 595.791, 538 595.562 C 535.660 595.238, 529 592.510, 529 591.875 C 529 591.432, 527.603 589.479, 525.896 587.535 C 523.150 584.407, 522.238 584, 517.973 584 C 514.247 584, 512.455 584.587, 510.077 586.589 M 670.838 699.133 C 667.289 700.433, 664.409 706.417, 665.643 709.927 C 666.380 712.021, 667.192 712.500, 670.011 712.500 C 672.855 712.500, 673.724 711.976, 674.880 709.564 C 675.654 707.949, 676.506 704.686, 676.774 702.314 C 677.308 697.572, 676.411 697.092, 670.838 699.133" stroke="none" fill="#444" fill-rule="evenodd"/></svg>