<svg xmlns="http://www.w3.org/2000/svg" width="1000" height="1000" viewBox="0 0 1000 1000" version="1.1"><path d="M 623.757 244.025 C 619.225 245.164, 613.328 248.788, 607.872 253.786 C 605.642 255.829, 599.945 259.525, 595.212 262 C 588.025 265.759, 585.990 267.394, 582.860 271.925 C 580.799 274.908, 577.175 278.583, 574.806 280.092 C 568.766 283.938, 563 289.004, 563 290.466 C 563 292.820, 557.044 299.904, 551.786 303.805 C 547.777 306.778, 545.656 309.390, 543.007 314.613 C 541.086 318.401, 537.254 323.975, 534.492 327 C 527.710 334.428, 525.480 337.711, 521.028 346.821 C 518.515 351.963, 515.481 356.252, 512.030 359.540 C 506.795 364.527, 503.853 369.132, 502.616 374.277 C 501.228 380.049, 496.992 387.702, 492.073 393.321 C 486.155 400.081, 485.074 402.033, 481.998 411.500 C 478.899 421.040, 476.424 425.753, 471.941 430.651 C 467.012 436.035, 464.483 441.104, 462.536 449.502 C 460.425 458.603, 457.960 463.926, 452.579 471.001 C 446.489 479.009, 444.574 483.101, 442.517 492.500 C 439.682 505.453, 437.201 512.462, 434.580 514.925 C 430.218 519.022, 417.397 521.071, 409.622 518.912 C 405.856 517.866, 404.941 517.133, 398.404 509.918 C 394.934 506.089, 393.015 504.969, 384.767 501.960 C 378.659 499.732, 371.594 495.256, 366.193 490.192 C 362.799 487.009, 356.270 483.602, 347.556 480.466 C 344.553 479.385, 340.236 476.491, 336.556 473.093 C 330.671 467.657, 328.174 466.276, 313.500 460.335 C 308.884 458.466, 304.807 455.873, 301.527 452.720 C 295.141 446.579, 293.396 445.474, 285.653 442.663 C 277.496 439.702, 271.996 436.423, 264.561 430.090 C 260.787 426.875, 256.049 424.054, 251.561 422.351 C 242.885 419.059, 240.837 417.822, 234.500 412.047 C 229.532 407.520, 226.552 405.934, 211.801 399.969 C 206.579 397.858, 203.018 395.656, 200.731 393.124 C 196.169 388.074, 192.567 385.678, 185.747 383.155 C 176.203 379.623, 168.643 375.339, 166 371.965 C 164.625 370.210, 161.745 367.475, 159.600 365.887 C 152.735 360.805, 142.831 362.583, 138.346 369.702 C 137.377 371.241, 133.761 375.537, 130.311 379.248 C 126.862 382.959, 123.741 387.234, 123.378 388.748 C 122.086 394.120, 118.818 399.203, 113.044 404.815 C 106.595 411.084, 104.716 415.526, 104.624 424.725 C 104.547 432.345, 106.701 434.656, 118.505 439.618 C 126.058 442.794, 130.013 445.231, 135.783 450.262 C 141.099 454.899, 145.326 457.595, 150.383 459.575 C 155.764 461.682, 158.739 463.648, 162.581 467.639 C 166.598 471.812, 170.118 474.071, 179.394 478.429 C 188.741 482.821, 192.324 485.128, 197.015 489.776 C 203.087 495.792, 203.612 496.134, 213.183 500.334 C 216.782 501.913, 221.039 505.014, 224.790 508.789 C 229.026 513.051, 232.327 515.353, 236.378 516.868 C 246.766 520.755, 252.448 524.146, 258.500 530.068 C 262.695 534.174, 266.418 536.719, 270.875 538.529 C 278.639 541.682, 281.415 543.438, 285.980 548.082 C 290.232 552.408, 295.892 555.745, 306.382 560.109 C 312.562 562.680, 315.584 564.716, 320.382 569.542 C 324.885 574.072, 328.040 576.269, 332.331 577.865 C 340.812 581.018, 342.896 582.244, 350.918 588.798 C 355.559 592.590, 361.617 596.246, 367.825 599 C 375.443 602.380, 378.580 604.426, 382.582 608.625 C 385.891 612.096, 389.728 614.855, 393.582 616.531 C 405.013 621.502, 411.549 625.363, 416.749 630.215 C 419.636 632.908, 424.136 636.030, 426.749 637.151 C 438.122 642.034, 440.805 643.607, 446 648.432 C 451.396 653.443, 453.935 654.922, 466.989 660.652 C 471.229 662.513, 476.015 665.840, 480.798 670.250 C 484.825 673.962, 488.667 677, 489.338 677 C 492.087 677, 504.806 684.068, 509 687.926 C 513.743 692.290, 521.808 696.869, 528.500 698.998 C 535.311 701.165, 540.299 704.065, 545.500 708.880 C 550.612 713.612, 554.585 715.664, 568.306 720.659 C 574.118 722.774, 577.316 724.678, 580.822 728.110 C 585.721 732.906, 590.168 735.552, 598.906 738.872 C 606.686 741.828, 613.447 746.576, 616.579 751.281 C 624.276 762.844, 629.462 765.623, 637.570 762.526 C 642.140 760.781, 650.597 753.174, 656.830 745.203 C 659.029 742.391, 662.497 739.768, 667.044 737.478 C 672.286 734.838, 674.856 732.756, 677.813 728.755 C 680.687 724.866, 683.602 722.460, 689.029 719.500 C 694.720 716.396, 697.274 714.233, 700.431 709.846 C 702.669 706.737, 706.516 702.912, 708.981 701.346 C 713.857 698.248, 737.880 674.779, 742.296 668.797 C 743.800 666.760, 747.517 663.160, 750.558 660.797 C 753.598 658.434, 757.510 654.289, 759.252 651.586 C 763.016 645.745, 765.156 643.563, 771.293 639.307 C 774.028 637.410, 777.516 633.553, 779.883 629.807 C 782.075 626.338, 785.289 622.663, 787.025 621.640 C 792.766 618.257, 796.732 614.068, 799.445 608.523 C 801.368 604.592, 803.729 601.836, 807.812 598.754 C 812.196 595.445, 814.321 592.860, 817.079 587.480 C 819.819 582.135, 821.751 579.776, 825.324 577.409 C 832.600 572.590, 833.681 571.283, 836.134 564.333 C 837.711 559.866, 839.456 556.995, 841.709 555.165 C 843.512 553.699, 846.484 551.289, 848.313 549.809 C 850.760 547.829, 852.677 544.528, 855.569 537.309 C 858.712 529.465, 860.387 526.699, 863.925 523.500 C 875.445 513.088, 876.040 511.942, 877.548 497.291 C 878.243 490.534, 880.847 486.148, 886.328 482.500 C 893.137 477.968, 895.433 470.600, 893.963 458 C 892.339 444.086, 892.782 429.052, 895 422.740 C 897.172 416.561, 897.555 410.589, 896.036 406.594 C 895.505 405.199, 892.468 401.359, 889.286 398.061 C 886.104 394.763, 881.769 390.041, 879.654 387.568 C 877.291 384.806, 873.407 381.903, 869.584 380.041 C 866.161 378.373, 861.592 375.186, 859.430 372.958 C 854.525 367.902, 850.882 365.977, 836.892 361.049 C 826.451 357.372, 822.989 355.342, 818.895 350.500 C 816.670 347.868, 812.598 345.863, 800.500 341.439 C 790.623 337.827, 785.122 334.589, 781.791 330.424 C 780.087 328.295, 775.330 325.702, 763 320.183 C 759.425 318.583, 753.364 314.755, 749.532 311.677 C 742.437 305.978, 741.416 305.376, 730 300.154 C 725.961 298.306, 721.213 294.969, 717.459 291.340 C 713.206 287.229, 709.802 284.937, 705.959 283.597 C 696.749 280.386, 688.739 275.947, 683.436 271.114 C 678.353 266.483, 676.180 265.205, 666 260.857 C 662.975 259.566, 658.220 256.382, 655.434 253.783 C 646.422 245.377, 633.819 241.495, 623.757 244.025 M 864.220 433.428 C 861.019 437.540, 858.357 439.682, 853.661 441.923 C 846.597 445.295, 844.613 447.164, 841.012 453.842 C 839.063 457.456, 837.287 459.115, 833.088 461.241 C 825.983 464.841, 824.272 466.496, 821.856 472.114 C 819.507 477.573, 816.849 480.329, 811.966 482.370 C 807.431 484.265, 805.444 486.539, 801.616 494.218 C 799.062 499.342, 797.627 500.963, 793.834 503.012 C 787.107 506.645, 785.489 508.426, 783.601 514.275 C 781.539 520.661, 778.472 525.290, 774.908 527.395 C 770.711 529.875, 766.411 535.337, 764.477 540.645 C 759.595 554.045, 757.878 556.903, 752.850 559.997 C 747.329 563.395, 744.429 567.501, 743.447 573.314 C 742.297 580.120, 740.052 584.106, 734.104 589.904 C 727.602 596.243, 725.773 599.653, 723.067 610.484 C 720.764 619.699, 719.371 621.961, 713.517 625.989 C 708.096 629.718, 706.787 632.067, 703.997 643.071 C 701.327 653.598, 698.177 659.094, 692.620 662.918 C 688.866 665.500, 687.606 667.412, 683.203 677.200 C 680.407 683.415, 677.828 689.704, 677.470 691.176 C 676.777 694.030, 674.375 696.630, 670.773 698.426 C 667.739 699.939, 664 705.734, 664 708.925 C 664 716.009, 670.808 718.394, 675.411 712.923 C 676.835 711.231, 678 709.016, 678 708 C 678 704.634, 682.677 700.375, 688.324 698.599 C 693.931 696.836, 697.142 694.079, 700.879 687.820 C 702.998 684.272, 705.474 681.908, 713.772 675.511 C 715.904 673.867, 718.741 670.787, 720.075 668.667 C 721.409 666.546, 724.525 663.029, 727 660.850 C 734.827 653.959, 736.100 652.584, 737.975 649 C 740.518 644.137, 742.781 641.765, 748 638.493 C 753.461 635.070, 754.463 633.903, 757.441 627.500 C 760.071 621.845, 761.662 620.261, 767.866 617.121 C 773.522 614.258, 774.206 613.515, 777.874 606.250 C 780.254 601.534, 782.209 599.288, 786.509 596.327 C 790.777 593.388, 792.974 590.876, 795.978 585.500 C 799.910 578.464, 800.528 577.760, 807.146 572.793 C 809.519 571.013, 812.310 567.078, 815.302 561.293 C 818.586 554.947, 821.915 550.401, 827.263 544.957 C 833.247 538.865, 835.233 536.016, 837.586 530.147 C 839.861 524.473, 841.941 521.414, 847.075 516.190 C 853.349 509.807, 853.819 508.982, 857.332 498.203 C 862.338 482.840, 863.105 481.170, 868.278 474.395 C 875.033 465.548, 877.312 458.591, 877.415 446.500 C 877.486 438.188, 877.147 435.825, 875.409 432.500 C 872.222 426.402, 869.514 426.626, 864.220 433.428 M 527.449 552.468 C 526.472 554.806, 526 559.638, 526 567.299 C 526 580.322, 526.311 579.875, 515.695 582.117 C 507.709 583.804, 504.994 587.035, 505.016 594.827 C 505.029 599.097, 505.644 601.489, 507.506 604.500 C 508.867 606.700, 510.262 609.288, 510.607 610.250 C 510.951 611.212, 511.631 612, 512.117 612 C 512.602 612, 513 612.675, 513 613.500 C 513 614.325, 513.450 615, 514 615 C 514.550 615, 515 615.633, 515 616.406 C 515 617.320, 515.700 617.630, 517 617.290 C 518.100 617.002, 519 617.210, 519 617.753 C 519 618.295, 520.558 618.991, 522.463 619.300 C 524.367 619.609, 528.819 621.243, 532.356 622.931 C 546.709 629.781, 555.467 624.881, 556.755 609.280 C 557.670 598.200, 552.734 595.273, 538.090 598.215 C 534.205 598.996, 530.598 599.370, 530.076 599.047 C 528.566 598.114, 527 593.183, 527 589.363 C 527 583.533, 528.298 583, 542.494 583 C 556.002 583, 557.857 583.492, 561.951 588.157 C 564.860 591.472, 568.475 591.850, 570 589 C 571.252 586.661, 570.234 584.258, 565.853 579.215 C 564.284 577.409, 563 575.286, 563 574.499 C 563 571.546, 556.197 566.228, 549.617 564.039 C 543.124 561.878, 541.991 560.937, 535.174 552.037 C 532.032 547.935, 529.279 548.089, 527.449 552.468 M 489.986 619.449 C 485.670 621.798, 483.219 627.587, 482.431 637.295 C 481.757 645.604, 481.843 646.204, 484.046 648.549 C 485.435 650.027, 489.223 651.870, 493.437 653.118 C 501.967 655.643, 502.473 656.027, 505.717 662.429 C 507.126 665.209, 509.003 668.035, 509.889 668.710 C 513.882 671.750, 525.801 668.939, 531.432 663.629 C 535.314 659.967, 536.987 654.864, 536.994 646.651 C 537.005 635.227, 532.316 630.447, 521.840 631.205 C 516.711 631.576, 516 631.407, 516 629.814 C 516 628.816, 515.325 628, 514.500 628 C 513.675 628, 513 627.157, 513 626.127 C 513 625.097, 511.352 622.847, 509.339 621.127 C 506.026 618.298, 505.051 618.004, 499.089 618.040 C 495.465 618.062, 491.369 618.696, 489.986 619.449" stroke="none" fill="#444" fill-rule="evenodd"/></svg>