<svg xmlns="http://www.w3.org/2000/svg" width="50" height="50" viewBox="0 0 50 50" version="1.1">
	<path d="M 29.866 14.891 C 28.545 15.930, 26.428 18.854, 25.162 21.390 C 23.896 23.925, 22.613 26, 22.311 26 C 22.009 26, 19.228 24.461, 16.131 22.581 C 13.034 20.700, 9.222 18.841, 7.660 18.450 C 4.944 17.769, 4.878 17.834, 6.160 19.926 C 6.897 21.130, 12.178 25.105, 17.896 28.759 C 25.469 33.599, 29.087 35.343, 31.218 35.180 C 33.334 35.019, 33.947 35.309, 33.430 36.229 C 33.037 36.928, 35.029 35.267, 37.857 32.538 C 40.686 29.808, 43 27.354, 43 27.085 C 43 26.815, 41.200 28.352, 39 30.500 C 34.421 34.971, 33.813 34.064, 37.586 28.390 C 41.029 23.212, 43.117 21.583, 44.176 23.250 C 44.749 24.153, 44.974 24.033, 44.985 22.818 C 45 21.155, 42.917 19.406, 35.884 15.177 C 32.323 13.035, 32.230 13.031, 29.866 14.891 M 28 29 C 28 29.550, 28.450 30, 29 30 C 29.550 30, 30 29.550, 30 29 C 30 28.450, 29.550 28, 29 28 C 28.450 28, 28 28.450, 28 29" stroke="none" fill="#555555" fill-rule="evenodd"/>
</svg>