<svg xmlns="http://www.w3.org/2000/svg" width="50" height="50" viewBox="0 0 50 50" version="1.1">
	<path d="M 28.607 14.302 C 27.271 15.638, 25.182 18.704, 23.966 21.116 C 22.749 23.527, 21.644 25.628, 21.510 25.784 C 21.375 25.940, 18.168 24.263, 14.383 22.057 C 8.095 18.392, 7.391 18.190, 6.240 19.727 C 5.131 21.209, 6.023 22.078, 13.740 27.030 C 18.558 30.122, 24.630 33.893, 27.234 35.411 L 31.969 38.172 36.774 33.336 C 41.231 28.851, 41.260 28.790, 37.182 32.500 L 32.785 36.500 34.899 32.278 C 36.061 29.956, 38.449 26.419, 40.205 24.419 C 43.049 21.180, 43.477 20.986, 44.129 22.642 C 44.794 24.333, 44.866 24.309, 44.930 22.372 C 45.011 19.908, 44.467 19.423, 36.768 15.095 L 31.036 11.874 28.607 14.302 M 25.124 29.626 C 23.684 32.789, 23.705 33, 25.465 33 C 26.270 33, 27.395 32.130, 27.965 31.066 C 29.299 28.573, 29.273 28.319, 27.624 27.686 C 26.811 27.374, 25.789 28.167, 25.124 29.626" stroke="none" fill="#555555" fill-rule="evenodd"/>
</svg>