<svg xmlns="http://www.w3.org/2000/svg" width="50" height="50" viewBox="0 0 50 50" version="1.1">
	<path d="M 29.249 15.250 C 28.094 16.488, 26.077 19.394, 24.768 21.709 L 22.387 25.918 15.943 21.994 C 8.808 17.650, 4.128 16.631, 6.146 19.862 C 6.786 20.887, 10.952 24.002, 15.405 26.785 C 27.632 34.429, 31.454 36.544, 30.630 35.210 C 30.139 34.415, 30.578 34, 31.910 34 C 33.271 34, 35.074 32.225, 37.386 28.610 C 41.344 22.423, 42.866 21.179, 44.096 23.122 C 44.750 24.154, 44.973 23.957, 44.985 22.336 C 44.996 20.709, 43.410 19.283, 38.588 16.586 C 35.061 14.614, 31.989 13, 31.762 13 C 31.535 13, 30.404 14.012, 29.249 15.250 M 28 29 C 28 29.550, 28.450 30, 29 30 C 29.550 30, 30 29.550, 30 29 C 30 28.450, 29.550 28, 29 28 C 28.450 28, 28 28.450, 28 29 M 37.453 32.250 L 33.500 36.500 37.750 32.547 C 41.702 28.871, 42.460 28, 41.703 28 C 41.540 28, 39.627 29.913, 37.453 32.250" stroke="none" fill="#555555" fill-rule="evenodd"/>
</svg>