<svg xmlns="http://www.w3.org/2000/svg" width="1000" height="1000" viewBox="0 0 1000 1000" version="1.1"><path d="M 626.263 244.981 C 625.032 245.501, 621.657 248.398, 618.763 251.419 C 614.959 255.388, 610.866 258.223, 604 261.642 C 596.459 265.397, 593.056 267.853, 587.500 273.553 C 583.650 277.503, 577.763 282.560, 574.417 284.791 C 570.084 287.680, 567.110 290.726, 564.081 295.376 C 561.741 298.967, 557.422 303.959, 554.483 306.471 C 551.053 309.401, 546.775 314.801, 542.540 321.547 C 538.911 327.328, 533.547 334.407, 530.621 337.279 C 526.841 340.987, 524.139 344.986, 521.295 351.079 C 518.289 357.518, 516.143 360.617, 512.693 363.501 C 507.651 367.715, 505.572 371.300, 500.896 383.839 C 498.427 390.460, 496.663 393.343, 492.329 397.839 C 486.068 404.335, 484.366 407.191, 482.483 414.363 C 480.336 422.538, 477.297 428.501, 471.849 435.232 C 466.847 441.413, 463.019 448.578, 462.980 451.833 C 462.969 452.750, 461.633 457.265, 460.010 461.866 C 457.316 469.505, 454.243 474.757, 449.958 479.042 C 446.896 482.104, 444.068 489.535, 442.109 499.660 C 438.820 516.667, 435.768 519.990, 423.432 519.996 C 412.785 520.002, 406.960 517.897, 401.987 512.248 C 396.756 506.305, 393.882 504.416, 387.030 502.414 C 379.251 500.142, 374.302 497.455, 368 492.083 C 361.380 486.441, 356.844 483.665, 351.500 481.986 C 344.915 479.917, 340.502 477.329, 335.879 472.824 C 331.475 468.532, 325.639 464.885, 321 463.526 C 313.251 461.255, 305.926 457.072, 299.940 451.500 C 294.888 446.797, 292.013 444.970, 287.440 443.553 C 278.111 440.662, 269.954 436.184, 264.251 430.823 C 259.181 426.057, 256.050 424.325, 245.597 420.508 C 242.901 419.524, 237.894 416.342, 234.471 413.439 C 228.510 408.382, 221.334 404.129, 216 402.492 C 209.392 400.464, 203.078 396.708, 198.871 392.303 C 194.116 387.323, 190.296 385.270, 176.612 380.341 C 169.900 377.924, 168.049 376.723, 164.205 372.290 C 154.449 361.039, 146.404 361.349, 140.396 373.206 C 138.999 375.961, 135.214 380.710, 131.984 383.759 C 127.827 387.682, 125.457 390.939, 123.877 394.901 C 120.711 402.842, 116.273 410.770, 112.066 416 C 107.900 421.181, 106 425.085, 106 428.470 C 106 432.249, 110.415 436.578, 116.196 438.469 C 124.275 441.112, 130.677 444.689, 135.223 449.101 C 140.919 454.628, 143.457 456.231, 151 459.061 C 156.009 460.940, 158.877 462.896, 163.500 467.582 C 170.218 474.393, 172.708 476.120, 178.500 477.985 C 186.375 480.521, 192.589 484.307, 198.122 489.940 C 202.063 493.952, 205.503 496.358, 209.622 497.984 C 217.782 501.203, 220.670 503.069, 227 509.209 C 230.323 512.433, 234.479 515.297, 237.500 516.446 C 249.702 521.087, 255.040 524.227, 259.427 529.347 C 263.978 534.656, 266.464 536.237, 276.131 539.964 C 279.394 541.222, 284.754 544.673, 288.877 548.170 C 294.011 552.523, 298.849 555.439, 306.247 558.637 C 314.993 562.419, 317.382 563.987, 322.500 569.309 C 326.802 573.783, 329.773 575.947, 333 576.956 C 340.832 579.406, 350.902 584.907, 355.214 589.092 C 360.761 594.475, 363.537 596.294, 369.500 598.452 C 376.594 601.019, 380.905 603.757, 385.500 608.614 C 389.870 613.234, 393.329 615.176, 405.633 619.919 C 412.512 622.572, 414.609 623.967, 419.234 628.973 C 424.659 634.843, 426.144 635.761, 437.258 640.118 C 440.424 641.359, 446.274 645.051, 450.258 648.323 C 456.989 653.853, 460.192 655.656, 472 660.564 C 474.623 661.655, 479.211 665.159, 483 668.967 C 487.908 673.900, 490.847 675.966, 495 677.403 C 504.195 680.585, 512.314 685.028, 516 688.896 C 520.854 693.990, 525.256 696.482, 534.624 699.441 C 542.130 701.812, 549.112 705.808, 553.249 710.100 C 556.179 713.140, 563.195 716.816, 570.183 718.975 C 578.808 721.639, 581.120 722.892, 586.576 727.857 C 592.338 733.101, 597.708 736.132, 606.500 739.103 C 612.434 741.108, 614.520 742.494, 620.197 748.202 C 623.881 751.905, 628.019 755.218, 629.394 755.563 C 633.313 756.546, 638.777 754.183, 644.441 749.053 C 647.304 746.461, 654.086 741.901, 659.512 738.920 C 666.231 735.229, 671.152 731.645, 674.939 727.683 C 678.452 724.008, 682.764 720.785, 686.649 718.930 C 692.458 716.156, 694.920 713.931, 701.131 705.835 C 702.578 703.949, 706.499 700.947, 709.844 699.164 C 714.472 696.697, 716.924 694.500, 720.094 689.981 C 722.403 686.690, 726.332 682.712, 728.904 681.062 C 734.572 677.424, 737.919 673.909, 741.340 668 C 742.773 665.525, 745.645 662.401, 747.722 661.057 C 753.557 657.285, 756.686 654.116, 760.040 648.583 C 762.147 645.108, 765.056 642.235, 769.237 639.500 C 773.769 636.536, 776.278 633.959, 778.927 629.548 C 780.937 626.199, 784.468 622.152, 787 620.294 C 793.644 615.420, 795.887 613.007, 798.510 607.910 C 800.745 603.566, 803.288 600.939, 811.118 594.885 C 812.978 593.447, 815.839 589.684, 817.476 586.522 C 819.325 582.949, 822.732 578.758, 826.476 575.450 C 830.260 572.107, 833.616 567.966, 835.500 564.314 C 838.529 558.444, 844.281 550.411, 850.031 544.023 C 851.752 542.111, 854.967 536.759, 857.176 532.131 C 859.906 526.412, 863.190 521.589, 867.428 517.077 C 873.185 510.947, 873.830 509.790, 875.852 501.969 C 878.380 492.187, 882.294 483.809, 887.986 476 C 893.032 469.076, 894 464.135, 894 445.305 C 894 437.373, 894.493 427.706, 895.096 423.822 C 896.854 412.489, 895.826 408.685, 889.366 402.632 C 886.355 399.809, 882.539 395.150, 880.887 392.277 C 877.350 386.126, 874.991 384.343, 865.195 380.423 C 860.938 378.719, 855.724 375.622, 852.695 372.998 C 845.972 367.171, 841.628 364.888, 829.892 361.014 C 822.574 358.598, 819.119 356.822, 815.391 353.561 C 810.888 349.622, 799.398 343, 797.066 343 C 793.048 343, 783.979 338.059, 778.034 332.631 C 773.320 328.327, 769.408 325.773, 764.909 324.060 C 751.807 319.071, 747.976 316.890, 742.275 311.174 C 739.099 307.989, 734.925 304.807, 733 304.101 C 721.297 299.811, 716.565 297.319, 711.051 292.544 C 704.690 287.036, 701.043 284.964, 689.911 280.534 C 684.919 278.547, 682.011 276.524, 677.911 272.181 C 673.401 267.404, 671.085 265.894, 664 263.112 C 652.998 258.792, 647.858 255.809, 644.460 251.771 C 639.391 245.745, 631.459 242.786, 626.263 244.981 M 864 438.759 C 861.525 440.267, 856.800 442.850, 853.500 444.500 C 849.773 446.363, 846.742 448.719, 845.500 450.718 C 844.400 452.488, 842.592 455.411, 841.483 457.213 C 840.247 459.220, 836.953 461.853, 832.983 464.008 C 827.800 466.820, 825.990 468.469, 823.958 472.227 C 820.643 478.357, 817.312 481.834, 813.040 483.624 C 808.575 485.494, 806.424 487.867, 804.363 493.192 C 802.109 499.017, 799.492 501.702, 793.138 504.711 C 788.761 506.785, 787.429 508.038, 785.881 511.536 C 784.839 513.892, 783.696 517.323, 783.341 519.160 C 782.880 521.547, 780.619 524.517, 775.421 529.564 C 769.269 535.537, 767.376 538.239, 763.157 547.064 C 758.570 556.659, 757.767 557.734, 753.183 560.403 C 747.519 563.700, 744.761 567.915, 743.110 575.800 C 741.576 583.124, 739.834 586.106, 734.145 591.149 C 728.440 596.207, 726.814 599.089, 724.063 609.014 C 721.492 618.294, 720.206 620.167, 713.432 624.500 C 706.932 628.658, 705.750 630.982, 704.037 642.967 C 702.535 653.479, 701.430 655.636, 694.455 661.677 C 691.199 664.496, 687.686 668.785, 686 672 C 684.413 675.025, 682.077 678.661, 680.808 680.079 C 678.015 683.201, 671.528 688, 670.102 688 C 669.535 688, 668.560 688.954, 667.935 690.121 C 664.652 696.256, 654.810 702.978, 649.054 703.017 C 647.649 703.027, 643.350 703.728, 639.500 704.575 C 635.650 705.422, 626.650 706.516, 619.500 707.006 C 605.316 707.977, 600 708.810, 600 710.061 C 600 710.507, 602.630 712.717, 605.844 714.972 C 609.238 717.352, 613.625 721.763, 616.306 725.490 C 621.497 732.705, 625.573 735.321, 631.641 735.328 C 637.493 735.335, 641.358 733.524, 650.500 726.489 C 654.900 723.102, 661.670 718.675, 665.543 716.651 C 670.037 714.302, 673.245 711.856, 674.403 709.894 C 677.736 704.253, 681.953 700.257, 687.251 697.718 C 693.467 694.741, 695.355 693.036, 699.960 686.239 C 701.863 683.431, 705.374 679.898, 707.763 678.388 C 711.900 675.773, 717.982 669.739, 718.016 668.215 C 718.049 666.750, 723.648 661.241, 727.972 658.419 C 733.820 654.603, 735.515 652.866, 737.861 648.291 C 740.166 643.797, 742.985 641.121, 748.736 637.969 C 752.541 635.884, 758 629.739, 758 627.541 C 758 625.527, 763.602 619.611, 768.170 616.800 C 771.603 614.688, 774.022 612.159, 776.055 608.557 C 779.586 602.300, 782.121 599.805, 788.028 596.773 C 791.910 594.781, 793.016 593.424, 796.411 586.489 C 799.489 580.200, 801.546 577.487, 806.075 573.742 C 810.078 570.431, 813.039 566.780, 815.809 561.742 C 817.998 557.759, 822.509 551.536, 825.833 547.914 C 829.631 543.775, 833.561 537.969, 836.409 532.288 C 840.019 525.089, 842.169 522.185, 846.968 518.028 C 852.675 513.084, 853.131 512.347, 855.560 504.153 C 859.362 491.325, 859.880 490.137, 865.061 482.354 C 871.437 472.777, 872.050 471.536, 873.597 465.068 C 876.490 452.973, 874.470 435.985, 870.141 436.009 C 869.239 436.015, 866.475 437.252, 864 438.759 M 554.948 560.073 C 544.908 561.196, 541.754 564.851, 539.865 577.548 C 537.858 591.041, 541.399 599.533, 550.069 602.020 C 555.443 603.561, 571.623 603.246, 574.931 601.536 C 579.296 599.278, 582.686 594.584, 583.391 589.821 C 584.265 583.919, 582.410 570.389, 580.207 566.602 C 576.950 561.002, 567.797 558.636, 554.948 560.073" stroke="none" fill="#444" fill-rule="evenodd"/></svg>