<svg xmlns="http://www.w3.org/2000/svg" width="800" height="800" viewBox="0 0 800 800" version="1.1"><path d="M 517.943 193.282 C 517.087 193.952, 514.490 197.081, 512.173 200.235 C 509.855 203.390, 506.588 206.984, 504.912 208.223 C 503.141 209.533, 500.472 213.411, 498.537 217.488 C 496.294 222.213, 493.853 225.589, 491.053 227.838 C 488.064 230.240, 485.777 233.536, 482.901 239.588 C 480.292 245.080, 477.187 249.718, 473.955 252.950 C 471.123 255.782, 467.633 260.773, 465.797 264.615 C 463.457 269.515, 461.437 272.143, 458.329 274.334 C 454.284 277.185, 453.179 278.808, 449.707 287 C 448.891 288.925, 445.983 292.980, 443.245 296.011 C 440.506 299.042, 436.644 304.742, 434.663 308.676 C 432.203 313.561, 429.491 317.154, 426.110 320.004 C 422.640 322.930, 420.502 325.800, 418.958 329.603 C 416.149 336.524, 412.927 339.181, 404.619 341.431 C 396.468 343.637, 395.147 345.411, 397.423 351.099 C 398.290 353.267, 399 356.664, 399 358.648 C 399 361.747, 398.165 363.055, 393.070 367.933 C 389.669 371.189, 386.424 375.399, 385.462 377.802 C 384.440 380.359, 381.857 383.608, 378.841 386.133 C 375.344 389.061, 373.051 392.137, 371.011 396.636 C 369.424 400.136, 365.605 405.971, 362.523 409.603 C 359.442 413.235, 355.413 419.198, 353.570 422.854 C 351.450 427.060, 348.662 430.749, 345.978 432.903 C 343.176 435.151, 340.789 438.377, 338.949 442.403 C 337.339 445.924, 334.189 450.402, 331.493 453 C 328.608 455.781, 325.160 460.794, 322.466 466.124 C 319.491 472.009, 316.841 475.750, 314.121 477.904 C 311.892 479.670, 309.637 482.569, 309.006 484.482 C 306.984 490.610, 309.867 493.195, 321.851 495.997 C 325.964 496.958, 328.601 498.496, 333.244 502.638 C 337.911 506.803, 340.826 508.497, 346.061 510.087 C 352.603 512.074, 357.252 514.692, 365.316 520.928 C 367.414 522.551, 372.690 525.064, 377.039 526.513 C 382.726 528.407, 386.288 530.349, 389.723 533.428 C 395.321 538.445, 398.061 539.926, 407.452 543.013 C 412.316 544.611, 415.769 546.565, 418.952 549.517 C 424.304 554.483, 426.947 555.879, 436.982 559.042 C 442.786 560.871, 445.368 562.331, 448.502 565.555 C 453.284 570.476, 456.018 571.968, 465.941 575.072 C 471.660 576.860, 474.436 578.416, 477.941 581.796 C 480.448 584.214, 483.388 586.824, 484.473 587.596 C 487.369 589.658, 496.684 589.327, 501.859 586.978 C 504.257 585.890, 508.119 585, 510.443 585 C 512.766 585, 514.970 584.697, 515.340 584.327 C 515.710 583.957, 514.377 582.156, 512.378 580.324 L 508.743 576.995 509.208 569.248 C 509.756 560.115, 512.860 553.072, 519.475 545.953 C 522.579 542.612, 524.404 539.293, 526.352 533.443 C 528.208 527.871, 530.373 523.833, 533.564 519.990 C 538.877 513.592, 540.528 510.685, 543.108 503.186 C 544.332 499.628, 546.693 495.903, 549.816 492.598 C 553.388 488.820, 555.473 485.307, 557.869 479.032 C 560.461 472.241, 562.247 469.371, 566.889 464.532 C 570.980 460.269, 573.194 456.944, 574.437 453.196 C 575.522 449.926, 578.116 445.707, 581.200 442.196 C 583.952 439.063, 588.167 432.603, 590.567 427.840 C 593.802 421.419, 595.968 418.446, 598.946 416.340 C 601.652 414.427, 604.031 411.381, 606.232 407.010 C 608.440 402.625, 610.849 399.545, 613.661 397.510 C 615.950 395.855, 619.055 392.250, 620.561 389.500 C 622.067 386.750, 626.045 381.529, 629.400 377.898 C 632.755 374.267, 638.200 368.054, 641.500 364.091 C 650.561 353.212, 669.614 335.924, 676.215 332.593 C 679.791 330.788, 682.921 328.279, 684.577 325.889 C 686.032 323.789, 689.146 321.140, 691.496 320.002 C 695.185 318.216, 696.861 318.025, 703.773 318.601 C 711.606 319.255, 711.814 319.213, 713.472 316.683 C 715.503 313.583, 714.837 310.634, 711.236 306.786 C 709.839 305.294, 707.056 301.694, 705.052 298.786 C 703.022 295.841, 699.215 292.097, 696.454 290.331 C 693.730 288.589, 689.250 284.891, 686.500 282.114 C 682.973 278.553, 679.732 276.421, 675.500 274.878 C 668.256 272.238, 665.934 270.836, 659.720 265.356 C 656.976 262.936, 652.717 260.424, 649.720 259.458 C 642.950 257.275, 637.289 253.928, 633.312 249.757 C 631.250 247.595, 627.715 245.578, 623.312 244.051 C 613.401 240.615, 609.548 238.481, 606.347 234.657 C 603.065 230.736, 600.189 229.156, 590.597 226.004 C 585.380 224.289, 582.306 222.459, 578.009 218.508 C 573.298 214.177, 570.848 212.811, 563.724 210.543 C 556.730 208.316, 553.954 206.790, 548.849 202.369 C 543.752 197.955, 541.053 196.470, 534.485 194.467 C 525.652 191.773, 520.356 191.393, 517.943 193.282 M 519.029 204.971 C 517.945 206.055, 515.733 209.542, 514.114 212.721 C 512.495 215.899, 509.069 220.525, 506.499 223 C 503.930 225.475, 500.300 230.510, 498.432 234.188 C 496.323 238.343, 493.472 242.130, 490.902 244.188 C 487.873 246.613, 485.722 249.756, 482.865 255.928 C 480.320 261.428, 477.133 266.292, 473.694 269.928 C 470.795 272.993, 467.224 277.975, 465.760 281 C 463.927 284.787, 461.557 287.650, 458.153 290.192 C 454.155 293.176, 452.758 295.063, 450.854 300.048 C 449.363 303.955, 446.449 308.548, 442.902 312.583 C 439.823 316.086, 435.800 321.773, 433.963 325.221 C 432.125 328.669, 428.716 333.528, 426.387 336.018 C 417.949 345.039, 419.696 349.196, 432.892 351.495 C 442.635 353.192, 444.778 354.374, 448.692 360.214 C 451.183 363.932, 452.288 364.665, 457.032 365.747 C 472.099 369.183, 473.995 370.190, 479.717 377.792 C 481.542 380.216, 483.468 381.112, 490.607 382.856 C 499.598 385.054, 504.264 387.754, 507.904 392.866 C 510.319 396.257, 513 397.440, 522.778 399.426 C 530.396 400.973, 534.456 403.190, 539.550 408.585 C 543.090 412.333, 546.901 413.508, 560 414.888 C 570.971 416.043, 582.796 415.019, 586.500 412.592 C 587.877 411.690, 590.189 409.161, 591.637 406.973 C 593.085 404.784, 596.416 401.452, 599.039 399.568 C 602.267 397.248, 604.841 394.201, 607.010 390.134 C 608.984 386.429, 611.695 383.097, 614.080 381.444 C 616.208 379.970, 619.143 376.679, 620.604 374.132 C 622.065 371.584, 626.108 366.575, 629.590 363 C 650.672 341.351, 660.192 332, 661.150 332 C 661.748 332, 665.016 329.188, 668.414 325.750 C 673.057 321.052, 676.094 318.936, 680.642 317.228 C 689.086 314.057, 691.513 311.222, 691.451 304.604 C 691.383 297.484, 688.799 294.112, 680.295 290.050 C 676.388 288.184, 671.610 284.845, 669.001 282.158 C 665.326 278.372, 662.890 276.955, 655.997 274.590 C 649.033 272.200, 646.509 270.720, 641.893 266.316 C 637.401 262.032, 634.744 260.440, 628.682 258.402 C 624.509 256.999, 619.235 254.422, 616.962 252.676 C 608.259 245.989, 606.714 245.066, 599.809 242.427 C 595.202 240.667, 590.901 238.080, 587.579 235.071 C 582.435 230.413, 581.415 229.862, 570.676 225.932 C 567.031 224.598, 562.665 221.849, 559.004 218.582 C 555.485 215.443, 551.430 212.858, 548.827 212.097 C 546.447 211.400, 540.342 209.069, 535.259 206.915 C 524.834 202.498, 521.858 202.142, 519.029 204.971 M 546.995 321.197 C 543.901 322.342, 540 325.921, 540 327.615 C 540 329.671, 541.676 330.176, 551.094 330.956 C 556.009 331.363, 560.313 331.980, 560.660 332.326 C 561.846 333.513, 562.176 342.498, 561.132 345.198 C 559.325 349.872, 556.285 351.004, 543.732 351.677 L 532.204 352.295 529.484 349.575 C 526.617 346.708, 526.540 345.244, 528.600 332.750 C 529.206 329.078, 529.153 329, 526.064 329 C 519.052 329, 513.871 340.270, 517.045 348.618 C 519.316 354.591, 526.899 364.575, 530.852 366.797 C 537.410 370.482, 549.581 373.190, 554.111 371.970 C 557.977 370.929, 566.013 365.392, 569.180 361.588 C 573.649 356.220, 575.410 343.627, 572.483 337.967 C 570.983 335.066, 566.448 332, 563.657 332 C 562.864 332, 560.511 329.766, 558.429 327.036 C 554.229 321.528, 550.814 319.785, 546.995 321.197 M 711.200 356.200 C 709.789 357.611, 709.644 361.890, 710.939 363.936 C 711.692 365.126, 712.117 365.147, 713.424 364.063 C 715.040 362.722, 715.471 359.392, 714.393 356.582 C 713.667 354.689, 712.813 354.587, 711.200 356.200 M 407.383 363.765 C 406.769 364.169, 404.564 367.200, 402.485 370.500 C 400.405 373.800, 396.563 378.790, 393.947 381.589 C 391.332 384.388, 387.813 389.408, 386.129 392.745 C 384.295 396.378, 381.322 400.241, 378.719 402.374 C 374.252 406.035, 373.859 406.631, 369.744 416 C 368.415 419.025, 365.051 423.987, 362.268 427.026 C 359.485 430.066, 355.550 435.570, 353.523 439.256 C 351.441 443.045, 348.081 447.352, 345.796 449.162 C 343.120 451.281, 340.819 454.446, 338.990 458.522 C 337.080 462.780, 334.801 465.849, 331.604 468.468 C 327.936 471.474, 326.658 473.369, 325.415 477.645 C 323.584 483.942, 324.237 488.352, 327.320 490.512 C 328.509 491.345, 333.228 493.169, 337.806 494.565 C 344.777 496.691, 347.068 497.966, 351.894 502.403 C 356.553 506.686, 359.080 508.133, 365.079 509.955 C 374.728 512.885, 377.549 514.380, 383.047 519.482 C 386.433 522.623, 389.716 524.407, 395.902 526.467 C 401.557 528.351, 405.892 530.605, 409.480 533.527 C 415.743 538.628, 418.375 540.030, 427.025 542.870 C 431.300 544.274, 435.265 546.511, 438.525 549.357 C 444.352 554.445, 447.130 555.949, 456.222 558.936 C 460.841 560.454, 464.481 562.526, 467.854 565.559 C 472.380 569.628, 483.880 575.997, 486.703 575.999 C 490.143 576.001, 493.156 573.231, 496.375 567.106 C 498.288 563.465, 501.055 559.364, 502.524 557.993 C 505.849 554.889, 508.032 550.557, 510.973 541.228 C 512.749 535.593, 514.449 532.628, 518.522 528.064 C 522.651 523.436, 524.357 520.433, 526.481 514.057 C 528.496 508.006, 530.541 504.286, 534.519 499.432 C 537.776 495.459, 540.888 490.219, 542.507 485.981 C 544.130 481.734, 546.847 477.162, 549.504 474.207 C 551.893 471.550, 555.695 465.579, 557.954 460.938 C 560.805 455.078, 563.559 451.125, 566.964 448 C 573.079 442.390, 573.833 440.079, 570.727 436.469 C 568.472 433.847, 567.962 433.732, 557.441 433.474 C 542.696 433.112, 537.750 431.472, 532 425.036 C 527.740 420.268, 527.074 419.914, 519.500 418.385 C 509.255 416.316, 506.608 414.948, 500.500 408.564 C 495.875 403.731, 494.982 403.247, 488.598 402.116 C 479.733 400.547, 476.526 398.890, 471 393.027 C 466.982 388.763, 465.710 388.073, 459.120 386.584 C 449.399 384.388, 446.697 382.874, 443.054 377.579 C 439.941 373.054, 437.395 371.718, 429.500 370.466 C 423.244 369.474, 418.798 367.904, 415.018 365.351 C 411.428 362.927, 409.322 362.490, 407.383 363.765 M 694.570 391.678 C 694.215 392.605, 694.570 393.999, 695.366 394.794 C 696.618 396.046, 696.953 395.956, 697.949 394.096 C 698.578 392.920, 698.820 391.518, 698.487 390.979 C 697.532 389.434, 695.277 389.836, 694.570 391.678 M 662.667 438.667 C 661.290 440.043, 662.073 442, 664 442 C 665.333 442, 666 441.333, 666 440 C 666 438.073, 664.043 437.290, 662.667 438.667" stroke="none" fill="#444" fill-rule="evenodd"/></svg>