<svg xmlns="http://www.w3.org/2000/svg" width="50" height="50" viewBox="0 0 50 50" version="1.1">
	<path d="M 28.202 15.750 C 27.139 17.262, 25.476 20.075, 24.507 22 C 23.538 23.925, 22.625 25.640, 22.478 25.811 C 22.331 25.982, 18.974 24.047, 15.018 21.511 C 9.259 17.820, 7.540 17.136, 6.400 18.083 C 4.355 19.780, 5.580 20.924, 17.756 28.687 C 25.434 33.581, 29.086 35.343, 31.218 35.180 C 33.335 35.019, 33.946 35.309, 33.428 36.229 C 33.034 36.928, 34.836 35.475, 37.432 33 C 40.029 30.525, 42.638 27.600, 43.229 26.500 C 43.820 25.400, 42.153 26.880, 39.524 29.789 C 36.895 32.698, 34.537 34.871, 34.284 34.617 C 33.611 33.945, 38.672 25.607, 41.070 23.437 C 42.827 21.847, 43.255 21.790, 44.046 23.040 C 44.776 24.194, 44.973 24.044, 44.985 22.322 C 44.996 20.730, 43.419 19.185, 39.119 16.572 C 35.885 14.608, 32.540 13, 31.687 13 C 30.834 13, 29.266 14.238, 28.202 15.750 M 28 29 C 28 29.550, 28.450 30, 29 30 C 29.550 30, 30 29.550, 30 29 C 30 28.450, 29.550 28, 29 28 C 28.450 28, 28 28.450, 28 29" stroke="none" fill="#555555" fill-rule="evenodd"/>
</svg>