<svg xmlns="http://www.w3.org/2000/svg" width="800" height="800" viewBox="0 0 800 800" version="1.1"><path d="M 510.716 209.143 C 502.590 210.258, 497.121 212.953, 490.342 219.186 C 487.118 222.149, 481.897 226.289, 478.738 228.386 C 475.580 230.482, 471.994 233.615, 470.771 235.349 C 469.547 237.082, 465.114 242.154, 460.920 246.620 C 456.727 251.086, 451.814 257.329, 450.004 260.494 C 448.193 263.658, 444.549 268.288, 441.906 270.783 C 439.120 273.413, 435.855 277.926, 434.137 281.523 C 432.464 285.025, 429.191 289.585, 426.623 291.992 C 422.894 295.487, 421.489 297.891, 418.833 305.316 C 416.155 312.803, 414.669 315.329, 410.271 319.869 C 406.195 324.078, 404.587 326.664, 403.395 330.931 C 400.581 341.010, 398.757 344.994, 395.002 349.274 C 390.206 354.739, 388.701 357.793, 386.095 367.343 C 383.553 376.658, 382.284 379.274, 377.562 384.926 C 374.022 389.162, 372.197 394.083, 369.954 405.437 C 369.133 409.591, 367.936 412.218, 365.967 414.187 C 363.464 416.690, 362.442 417, 356.703 417 C 347.813 417, 342.394 414.850, 336.980 409.174 C 333.715 405.751, 330.709 403.797, 326.149 402.135 C 322.088 400.654, 317.951 398.125, 314.549 395.044 C 310.954 391.788, 306.577 389.173, 300.880 386.877 C 294.557 384.329, 291.367 382.330, 287.885 378.735 C 284.793 375.542, 281.163 373.114, 276.886 371.376 C 269.668 368.442, 266.084 366.182, 260.915 361.301 C 258.943 359.439, 253.993 356.563, 249.915 354.909 C 244.775 352.824, 240.966 350.405, 237.500 347.023 C 234.027 343.634, 230.362 341.308, 225.500 339.407 C 217.317 336.209, 213.800 333.983, 209 328.965 C 206.843 326.709, 203.068 324.384, 199.160 322.903 C 195.257 321.423, 190.484 318.484, 186.740 315.255 C 182.746 311.809, 177.908 308.892, 172.641 306.755 C 166.741 304.360, 163.286 302.172, 159.562 298.473 C 155.853 294.789, 152.536 292.684, 147.150 290.595 C 141.651 288.463, 138.193 286.241, 133.413 281.770 C 123.065 272.089, 117.737 272.296, 109.740 282.688 C 107.242 285.934, 104.406 289.245, 103.437 290.045 C 102.469 290.845, 100.581 293.975, 99.243 297 C 97.904 300.025, 94.602 304.836, 91.905 307.690 C 89.207 310.545, 87 313.328, 87 313.875 C 87 316.143, 89.208 320.362, 93.078 325.488 C 96.351 329.823, 98.651 331.630, 104.345 334.342 C 108.894 336.508, 112.983 339.386, 115.572 342.243 C 118.407 345.371, 122.239 347.953, 128.185 350.740 C 133.423 353.194, 138.468 356.459, 141.229 359.181 C 143.705 361.622, 148.670 365.023, 152.261 366.738 C 156.540 368.782, 159.948 371.302, 162.146 374.048 C 164.515 377.009, 167.850 379.370, 173.500 382.088 C 177.900 384.205, 184.200 388.268, 187.500 391.118 C 190.800 393.968, 196.240 397.531, 199.590 399.036 C 203.721 400.892, 206.866 403.221, 209.368 406.273 C 211.852 409.305, 215.224 411.810, 219.697 413.946 C 223.349 415.691, 228.610 419.161, 231.386 421.657 C 234.163 424.154, 240.049 428.005, 244.467 430.215 C 249.121 432.543, 254.888 436.498, 258.176 439.617 C 261.297 442.578, 264.447 445, 265.176 445.001 C 268.073 445.003, 278.824 451.060, 284.362 455.811 C 287.732 458.702, 292.722 461.774, 296.100 463.037 C 300.150 464.552, 303.453 466.758, 306.731 470.136 C 309.819 473.319, 313.337 475.731, 316.764 477.013 C 325.531 480.293, 331.314 483.624, 335 487.519 C 336.970 489.600, 341.779 492.721, 346 494.657 C 350.309 496.633, 355.415 499.963, 358 502.483 C 360.499 504.918, 364.857 507.790, 367.799 508.939 C 376.904 512.496, 380.723 514.822, 385.061 519.451 C 387.371 521.915, 390.889 524.457, 392.880 525.101 C 399.115 527.116, 403.639 529.786, 409.484 534.901 C 413.430 538.354, 417.448 540.690, 422.798 542.641 C 428.132 544.587, 432.006 546.835, 435.548 550.044 C 439.567 553.683, 442.712 555.367, 450.508 558.054 C 458.871 560.937, 461.168 562.227, 465.544 566.500 C 469.368 570.233, 472.241 572.023, 476.605 573.392 C 484.857 575.980, 490.991 579.273, 494.500 582.998 C 496.150 584.750, 499.075 586.984, 501 587.963 C 505.465 590.233, 517.113 592.252, 520.726 591.382 C 526.238 590.054, 533.106 585.862, 537.642 581.056 C 540.421 578.112, 544.566 575.122, 548.016 573.573 C 552.042 571.766, 555.173 569.342, 558.480 565.472 C 561.075 562.434, 564.616 559.230, 566.349 558.351 C 569.101 556.956, 575.778 550.823, 587.229 539.173 C 589.028 537.343, 593.682 532.618, 597.572 528.673 C 601.461 524.728, 605.636 519.851, 606.850 517.836 C 608.064 515.821, 611.308 512.728, 614.059 510.962 C 617.030 509.056, 620.103 505.975, 621.627 503.374 C 623.038 500.965, 626.708 497.083, 629.781 494.747 C 632.854 492.411, 636.551 488.475, 637.997 486 C 639.442 483.525, 642.831 479.830, 645.527 477.789 C 648.739 475.358, 651.385 472.190, 653.199 468.602 C 654.764 465.508, 657.952 461.468, 660.530 459.313 C 663.218 457.066, 666.105 453.357, 667.560 450.282 C 668.918 447.412, 672.765 442.012, 676.109 438.282 C 679.509 434.490, 683.706 428.344, 685.629 424.342 C 687.995 419.418, 690.457 416.047, 693.519 413.538 C 697.469 410.301, 698.265 408.916, 700.607 401.196 C 703.782 390.732, 705.749 386.686, 710.320 381.215 C 715.098 375.497, 716.358 369.373, 716.435 351.500 C 716.520 331.925, 716.118 330.258, 709.878 324.315 C 707.098 321.667, 704.007 317.925, 703.009 316 C 700.291 310.756, 697.144 308.356, 690.500 306.459 C 682.778 304.255, 678.122 301.865, 675 298.502 C 671.924 295.189, 668.599 293.425, 659.786 290.427 C 652.679 288.010, 648.991 285.831, 642.886 280.441 C 640.898 278.687, 636.848 276.459, 633.886 275.490 C 626.038 272.924, 623.037 271.235, 617.967 266.531 C 615.048 263.823, 610.441 261.111, 605.029 258.913 C 598.650 256.323, 595.401 254.272, 591.555 250.408 C 588.587 247.426, 584.832 244.780, 582.493 244.021 C 575.685 241.814, 569.273 238.183, 564.148 233.631 C 561.176 230.992, 556.486 228.214, 552.302 226.615 C 547.567 224.806, 544.129 222.666, 541.438 219.853 C 537.207 215.431, 525.828 209.568, 520 208.807 C 518.075 208.556, 513.897 208.707, 510.716 209.143 M 688.500 355.659 C 683.775 358.145, 680.146 362.020, 678.893 365.915 C 677.252 371.016, 676.469 371.722, 670.547 373.443 C 664.432 375.221, 663.455 376.179, 661.127 382.688 C 659.933 386.023, 658.362 388.155, 655.956 389.703 C 649.032 394.158, 647.769 395.306, 646.414 398.374 C 644.371 402.999, 642.949 404.475, 638.207 406.894 C 634.039 409.021, 630.021 413.964, 629.994 417 C 629.987 417.825, 628.886 420.851, 627.549 423.723 C 625.676 427.746, 623.969 429.653, 620.124 432.019 C 615.035 435.150, 614.279 436.412, 610.960 447.321 C 610.070 450.247, 608.663 451.841, 604.961 454.119 C 599.854 457.261, 599.514 457.893, 596.497 469.848 C 594.448 477.965, 593.432 479.535, 588.256 482.580 C 583.182 485.566, 581.493 488.587, 580.635 496.212 C 579.803 503.594, 578.372 506.606, 574.578 508.955 C 569.375 512.175, 566.247 516.237, 564.146 522.500 C 560.041 534.738, 557.094 539.911, 553.054 541.972 C 546.387 545.374, 544.058 554.224, 549.474 555.583 C 553.144 556.504, 555.605 554.492, 558.064 548.558 C 560.073 543.712, 560.939 542.790, 565.512 540.624 C 569.163 538.896, 571.765 536.674, 574.344 533.084 C 576.356 530.284, 579.865 526.310, 582.142 524.252 C 584.420 522.195, 587.341 518.836, 588.634 516.789 C 589.926 514.741, 593.574 511.352, 596.739 509.257 C 601.015 506.427, 603.072 504.232, 604.742 500.715 C 606.402 497.219, 608.392 495.085, 612.358 492.548 C 616.191 490.096, 618.313 487.866, 619.777 484.751 C 622.128 479.749, 623.646 478.288, 629.384 475.500 C 632.918 473.783, 633.856 472.606, 636.015 467.177 C 638.027 462.117, 639.473 460.169, 643.250 457.428 C 646.516 455.057, 648.893 452.175, 650.966 448.068 C 652.613 444.805, 656.118 439.966, 658.753 437.317 C 664.848 431.191, 667.253 427.696, 669.512 421.685 C 670.721 418.468, 672.781 415.674, 675.724 413.263 C 680.803 409.101, 682.242 406.623, 684.002 399 C 685.721 391.551, 688.056 387.250, 692.947 382.516 C 695.983 379.578, 697.581 376.858, 699.032 372.160 C 701.398 364.501, 701.503 360.874, 699.474 356.950 C 698.254 354.590, 697.304 354.008, 694.724 354.040 C 692.951 354.062, 690.150 354.791, 688.500 355.659 M 457.129 449.990 C 450.346 451.614, 447.829 457.706, 449.457 468.563 C 450.534 475.741, 453.376 478, 461.332 478 C 472.771 478, 476.499 475.023, 477.694 464.934 C 478.473 458.359, 476.649 453.526, 472.703 451.706 C 468.501 449.769, 461.346 448.981, 457.129 449.990 M 490.009 564.290 C 483.615 567.525, 488.098 571.061, 503.628 575.033 C 514.993 577.939, 519.217 577.618, 527.500 573.218 C 533.256 570.161, 534.500 569.064, 534.500 567.045 C 534.500 565.279, 533.799 564.395, 532 563.895 C 527.332 562.596, 492.712 562.922, 490.009 564.290" stroke="none" fill="#444" fill-rule="evenodd"/></svg>