<svg xmlns="http://www.w3.org/2000/svg" width="1000" height="1000" viewBox="0 0 1000 1000" version="1.1"><path d="M 654 264.652 C 649.549 266.118, 647.310 268.111, 643.335 274.145 C 640.923 277.807, 637.864 281.514, 636.539 282.382 C 631.845 285.458, 628.766 289.367, 627.004 294.489 C 624.127 302.851, 622.440 305.385, 618.138 307.802 C 612.780 310.814, 610.305 314.130, 608.357 320.908 C 605.891 329.488, 604.349 331.899, 596.121 340.045 C 589.767 346.336, 588.028 348.792, 585.662 354.818 C 583.088 361.374, 582.277 362.416, 576.936 366.043 C 570.319 370.537, 569.751 371.357, 566.931 380.489 C 565.236 385.975, 563.743 388.259, 557.463 394.974 C 551.848 400.979, 549.042 405.038, 546.094 411.419 C 542.959 418.204, 541.352 420.450, 538.025 422.696 C 530.025 428.096, 528.665 429.672, 526.038 436.583 C 523.619 442.943, 523.005 443.706, 518.055 446.487 C 511.126 450.380, 509.397 452.909, 507.578 461.806 C 505.667 471.154, 502.773 476.854, 498.343 480 C 490.172 485.802, 488.289 487.953, 486.557 493.459 C 484.262 500.755, 481.311 504.908, 476.747 507.262 C 471.965 509.730, 469.692 512.996, 467.533 520.500 C 465.124 528.876, 463.444 531.508, 455.895 538.735 C 450.562 543.841, 448.571 546.673, 445.554 553.444 C 442.085 561.229, 441.400 562.086, 435.973 565.436 C 430.762 568.652, 429.903 569.666, 428.059 574.772 C 424.407 584.885, 422.629 587.596, 416 593.158 C 403.014 604.055, 402.732 612.702, 415.175 618.457 C 417.196 619.391, 421.471 622.811, 424.675 626.056 C 430.456 631.911, 430.573 631.970, 440.111 633.880 C 452.148 636.291, 454.639 637.589, 460.579 644.541 C 466.182 651.099, 468.123 652.221, 477.545 654.343 C 487.983 656.695, 490.889 658.241, 497.484 664.947 C 503.562 671.126, 508.795 673.878, 517.465 675.452 C 523.045 676.465, 526.537 678.482, 530.715 683.106 C 535.474 688.374, 541.502 691.809, 549.764 693.961 C 553.469 694.926, 558.096 696.394, 560.047 697.222 C 563.416 698.653, 569 704.149, 569 706.035 C 569 707.733, 577.564 711.880, 584.245 713.417 C 594.867 715.861, 598.082 717.622, 604.537 724.535 C 609.136 729.461, 611.229 731, 613.327 731 C 618.429 731, 625.357 726.215, 630.734 718.979 C 631.356 718.143, 632.391 713.418, 633.035 708.479 C 634.505 697.208, 637.402 691.199, 644.893 683.888 C 651.080 677.849, 651.561 676.936, 655.420 663.914 C 657.735 656.100, 658.461 654.866, 663.481 650.193 C 669.351 644.730, 671.485 640.832, 674.944 629.263 C 677.254 621.534, 680.137 617.317, 685.292 614.125 C 689.485 611.528, 691.507 607.936, 693.421 599.685 C 695.671 589.984, 697.844 586.425, 705.083 580.586 C 710.469 576.241, 711.795 574.534, 713.338 569.955 C 718.080 555.884, 717.964 556.085, 723.422 552.593 C 729.049 548.993, 731.176 545.637, 733.007 537.469 C 734.423 531.149, 738.328 524.991, 742.868 521.917 C 750.163 516.977, 752.556 514.144, 755.516 506.943 C 758.261 500.264, 758.993 499.364, 764.643 495.726 C 768.021 493.550, 771.236 490.809, 771.788 489.635 C 772.339 488.461, 773.960 484.985, 775.389 481.912 C 777.529 477.312, 778.866 475.846, 782.953 473.622 C 788.397 470.659, 791.041 467.814, 793.019 462.791 C 794.463 459.124, 799.778 453, 801.516 453 C 803.778 453, 810.808 445.938, 812.328 442.138 C 814.160 437.560, 817.763 434.451, 823.086 432.856 C 827.317 431.588, 831.163 428.046, 833.899 422.896 C 836.048 418.850, 840.788 415.416, 846.409 413.832 C 848.977 413.108, 852.548 410.727, 856 407.437 C 859.025 404.553, 864.259 400.821, 867.630 399.143 C 872.113 396.912, 873.932 395.406, 874.401 393.538 C 875.355 389.736, 872.587 385.343, 867.118 381.977 C 864.482 380.355, 860.107 376.607, 857.396 373.647 C 853.177 369.041, 851.402 367.923, 845.074 365.885 C 838.637 363.812, 836.811 362.639, 830.960 356.822 C 825.898 351.790, 823.160 349.866, 819.869 349.027 C 813.174 347.319, 803.588 343.908, 801.917 342.638 C 801.093 342.012, 799.092 339.700, 797.470 337.500 C 793.694 332.378, 790.033 329.070, 787.500 328.492 C 786.400 328.240, 782.445 327.354, 778.710 326.523 C 769.617 324.497, 766.820 322.904, 760.448 316.117 C 754.065 309.318, 753.079 308.770, 742.022 305.876 C 734.337 303.865, 733.074 303.175, 728.522 298.497 C 721.854 291.646, 718.666 289.593, 711.500 287.539 C 700.807 284.473, 696.322 282.072, 693.392 277.845 C 689.508 272.240, 684.170 269.511, 671.322 266.564 C 660.329 264.042, 656.975 263.672, 654 264.652 M 655.500 275.143 C 652.022 277.225, 649.210 281.161, 647.087 286.920 C 644.108 295, 641.202 299.165, 635.090 304.117 C 630.644 307.719, 629.179 309.747, 626.869 315.500 C 624.922 320.349, 622.897 323.482, 620.279 325.696 C 611.128 333.436, 610.153 334.665, 608.463 340.588 C 605.773 350.019, 602.337 355.418, 595.791 360.501 C 591.166 364.092, 589.275 366.405, 587.353 370.815 C 585.991 373.942, 584.236 377.964, 583.453 379.753 C 582.577 381.755, 579.992 384.309, 576.730 386.396 C 571.312 389.862, 569.622 392.328, 566.427 401.432 C 565.194 404.943, 562.473 408.689, 556.982 414.432 C 545.615 426.321, 543.874 430.946, 548.109 438 C 552.686 445.624, 562.155 452.381, 570.500 453.980 C 582.825 456.341, 585.583 457.717, 591.505 464.463 C 597.320 471.087, 599.041 472.088, 608 474.059 C 618.926 476.463, 623.802 478.854, 626.896 483.323 C 631.985 490.675, 633.836 491.806, 644.303 493.959 C 657.817 496.740, 660.827 498.528, 666.930 507.399 C 669.546 511.200, 670.698 511.984, 675.034 512.914 C 681.994 514.406, 722.619 516.494, 727.338 515.602 C 733.159 514.501, 751.640 495.883, 755.935 486.793 C 758.681 480.982, 759.817 479.711, 765.394 476.214 C 771.117 472.626, 772.051 471.549, 775.015 465.119 C 777.840 458.990, 779.078 457.483, 783.899 454.306 C 790.130 450.201, 791.508 448.604, 794.654 441.845 C 796.285 438.340, 798.016 436.509, 801.660 434.433 C 806.821 431.494, 813 426.195, 813 424.708 C 813 421.683, 817.680 417.870, 825.134 414.823 C 831.750 412.117, 833.776 410.746, 836.255 407.294 C 839.213 403.176, 845.561 398, 847.654 398 C 849.611 398, 857 391.994, 857 390.404 C 857 388.489, 854.165 386.007, 847.500 382.087 C 844.750 380.470, 840.137 376.719, 837.250 373.751 C 832.537 368.909, 831.091 368.084, 823.124 365.700 C 815.302 363.358, 813.465 362.332, 807.644 357.057 C 800.096 350.217, 798.606 349.373, 787.148 345.446 C 779.394 342.788, 778.482 342.174, 774.405 336.877 C 769.738 330.811, 770.235 331.073, 752.787 325.506 C 744.965 323.011, 743.482 322.121, 738.287 316.805 C 731.283 309.637, 730.871 309.397, 721.538 307.010 C 711.825 304.526, 709.312 303.139, 702.875 296.710 C 696.795 290.637, 693.849 288.842, 686 286.423 C 678.784 284.200, 675.400 282.440, 670.247 278.229 C 665.563 274.402, 659.025 273.034, 655.500 275.143 M 677.500 403.133 C 674.200 404.812, 669.700 406.896, 667.500 407.764 C 657.198 411.829, 646.479 421.818, 641.254 432.224 C 634.409 445.852, 634.872 455.742, 642.748 464.162 C 645.197 466.780, 649.293 471.960, 651.850 475.672 C 658.504 485.332, 662.020 487.401, 677.056 490.505 C 687.075 492.574, 690.408 492.899, 693.556 492.116 C 701.529 490.131, 716.581 484.644, 719.343 482.716 C 722.871 480.253, 725.073 475.217, 727.965 462.996 C 730.304 453.118, 730.308 450.054, 728.014 433.070 C 726.360 420.835, 722.087 415.310, 712.391 412.868 C 709.793 412.214, 706.143 409.995, 702.843 407.063 C 699.904 404.452, 696.517 401.795, 695.316 401.158 C 691.304 399.031, 683.962 399.845, 677.500 403.133 M 679.500 414.600 C 671.336 415.729, 663.753 418.401, 661.053 421.101 C 656.837 425.316, 653.903 434.795, 653.271 446.239 C 652.505 460.127, 653.757 463.923, 661.686 471.750 C 665.168 475.188, 668.493 478, 669.075 478 C 669.657 478, 671.566 479.063, 673.317 480.362 C 677.742 483.645, 682.330 485, 689.027 485 C 698.034 485, 701.276 483.120, 705.598 475.390 C 708.341 470.486, 710.500 468.026, 713.902 465.928 C 723.483 460.020, 726.130 454.626, 724.037 445.274 C 723.050 440.866, 722.044 439.321, 717.682 435.517 C 714.832 433.031, 710.925 428.228, 709 424.844 C 704.470 416.881, 700.591 414.741, 690.104 414.419 C 685.922 414.291, 681.150 414.372, 679.500 414.600 M 519.500 470.573 C 514.300 473.277, 512.029 476.168, 506.766 486.784 C 503.458 493.456, 500.457 498.067, 498.291 499.807 C 490.252 506.263, 488.179 508.772, 485.533 515.250 C 483.727 519.669, 481.600 522.949, 479.372 524.750 C 469.764 532.514, 469.933 532.292, 467.920 539.800 C 465.451 549.006, 462.770 553.245, 455.473 559.479 C 450.779 563.489, 448.938 566.018, 445.853 572.696 C 442.451 580.060, 441.424 581.362, 436.365 584.721 C 431.424 588.002, 430.196 589.513, 426.846 596.441 C 424.722 600.834, 423 605.901, 423 607.760 C 423 610.923, 423.377 611.295, 429.250 613.930 C 432.688 615.472, 437.197 617.282, 439.271 617.952 C 441.561 618.691, 444.450 620.854, 446.630 623.462 C 450.721 628.355, 455.500 631.308, 462 632.955 C 472.366 635.583, 477.485 638.278, 484 644.538 C 490.641 650.919, 492.305 651.732, 504.179 654.390 C 512.144 656.173, 517.658 659.446, 522.175 665.071 C 526.036 669.879, 530.344 672.296, 537.909 673.900 C 546.347 675.689, 551.156 678.263, 557.341 684.302 C 562.802 689.634, 567.905 693, 570.526 693 C 571.196 693, 575.290 694.136, 579.622 695.524 C 586.746 697.807, 588.074 698.663, 593.500 704.473 C 604.517 716.271, 612.862 717.070, 618.087 706.830 C 619.220 704.609, 622.798 699.942, 626.039 696.458 C 629.279 692.975, 632.163 689.085, 632.448 687.813 C 632.732 686.541, 633.646 682.445, 634.477 678.710 C 636.536 669.465, 638.142 666.717, 645.951 659.075 L 652.669 652.500 654.411 643.624 C 656.577 632.582, 658.111 629.424, 663.454 625 C 669.548 619.954, 672.419 615.503, 675.064 607 C 677.125 600.370, 678.165 598.732, 684.021 592.878 C 689.470 587.432, 690.959 585.213, 692.410 580.378 C 693.380 577.145, 695.260 571.123, 696.587 566.997 C 697.914 562.870, 699 558.081, 699 556.355 C 699 553.658, 698.473 553.010, 695.250 551.742 C 689.601 549.519, 682.635 548.184, 670.921 547.076 C 657.971 545.852, 652.321 543.586, 646.425 537.255 C 643.991 534.642, 642 532.177, 642 531.778 C 642 530.355, 636.356 528.259, 626.500 526.022 L 616.500 523.751 609.241 516.456 L 601.983 509.160 592.241 506.964 C 578.347 503.831, 576.679 502.964, 572.752 496.837 C 570.871 493.902, 568.610 490.906, 567.729 490.180 C 566.847 489.454, 562.385 488.211, 557.813 487.418 C 543.033 484.853, 540.324 483.560, 536.297 477.143 C 534.350 474.039, 532.050 470.938, 531.187 470.250 C 529.027 468.530, 523.114 468.693, 519.500 470.573" stroke="none" fill="#444" fill-rule="evenodd"/></svg>