<svg xmlns="http://www.w3.org/2000/svg" width="50" height="50" viewBox="0 0 50 50" version="1.1">
	<path d="M 44.079 21.583 C 44.127 22.748, 44.364 22.985, 44.683 22.188 C 44.972 21.466, 44.936 20.603, 44.604 20.271 C 44.272 19.939, 44.036 20.529, 44.079 21.583 M 24 21.459 C 24 21.734, 25.800 22.878, 28 24 C 30.200 25.122, 32 25.816, 32 25.541 C 32 25.266, 30.200 24.122, 28 23 C 25.800 21.878, 24 21.184, 24 21.459 M 39.405 23.250 L 37.500 25.500 39.750 23.595 C 41.864 21.805, 42.455 21, 41.655 21 C 41.465 21, 40.453 22.012, 39.405 23.250 M 36 27.059 C 36 27.641, 36.450 27.840, 37 27.500 C 37.550 27.160, 38 26.684, 38 26.441 C 38 26.198, 37.550 26, 37 26 C 36.450 26, 36 26.477, 36 27.059 M 40.872 27.750 C 39.629 29.336, 39.664 29.371, 41.250 28.128 C 42.212 27.373, 43 26.585, 43 26.378 C 43 25.555, 42.179 26.084, 40.872 27.750 M 32.556 35.091 C 32.814 35.508, 32.231 36.055, 31.262 36.308 C 29.789 36.693, 29.767 36.787, 31.128 36.884 C 32.023 36.948, 33.253 36.400, 33.862 35.667 C 34.697 34.661, 34.615 34.333, 33.528 34.333 C 32.736 34.333, 32.299 34.674, 32.556 35.091" stroke="none" fill="#555555" fill-rule="evenodd"/>
</svg>