<svg xmlns="http://www.w3.org/2000/svg" width="1000" height="1000" viewBox="0 0 1000 1000" version="1.1"><path d="M 642.500 265.868 C 640.300 266.871, 635.809 269.993, 632.519 272.806 C 629.229 275.618, 622.353 280.052, 617.238 282.659 C 609.645 286.530, 607.213 288.361, 603.983 292.638 C 600.229 297.611, 594.256 303, 592.500 303 C 590.439 303, 585.201 308.220, 583.034 312.434 C 580.751 316.873, 577.464 320.295, 569.897 326.111 C 567.998 327.570, 564.990 331.688, 563.075 335.450 C 561.192 339.150, 556.663 345.467, 553.013 349.486 C 548.397 354.567, 544.794 359.949, 541.187 367.147 C 537.399 374.706, 534.947 378.310, 532.101 380.500 C 527.355 384.152, 525.158 387.586, 522.363 395.719 C 519.722 403.406, 515.847 410.117, 510.978 415.437 C 506.644 420.173, 503.841 425.499, 501.999 432.500 C 500.177 439.424, 496.475 446.675, 492.037 452.010 C 487.233 457.786, 484.667 462.881, 482.476 471 C 480.186 479.484, 475.970 488.441, 471.534 494.252 C 469.576 496.816, 466.583 502.421, 464.884 506.707 C 463.185 510.993, 460.624 515.745, 459.195 517.266 C 452.805 524.065, 442.111 522.345, 433.912 513.200 C 430.093 508.940, 425.349 506.230, 412.500 500.967 C 406.824 498.642, 402.894 496.178, 398.971 492.485 C 393.128 486.984, 390.005 485.067, 383.500 482.990 C 374.853 480.229, 367.337 476.020, 363 471.512 C 358.655 466.996, 352.456 463.001, 349.790 462.999 C 346.865 462.997, 335.349 456.629, 329.632 451.852 C 323.247 446.517, 320.379 444.997, 308.124 440.457 C 302.986 438.553, 299.344 436.379, 296.124 433.291 C 290.129 427.544, 287.550 426.066, 275.500 421.474 C 266.770 418.148, 264.725 416.890, 259.398 411.573 C 254.423 406.606, 252.023 405.046, 246.398 403.121 C 236.368 399.689, 228.985 395.688, 225 391.525 C 220.234 386.546, 216.539 384.407, 208.409 381.920 C 204.609 380.758, 198.350 378.430, 194.500 376.746 C 184.550 372.394, 172.196 369.420, 151.500 366.394 C 126.534 362.743, 113.849 363.770, 112.396 369.560 C 111.995 371.155, 113.074 373.453, 116.246 377.763 C 118.670 381.055, 121.224 385.268, 121.921 387.125 C 125.324 396.183, 126.766 398.527, 131.276 402.330 C 135.170 405.613, 137.157 408.549, 141.165 416.942 C 143.924 422.719, 147.054 428.671, 148.120 430.169 C 149.187 431.667, 154.268 435.404, 159.412 438.473 C 164.556 441.543, 171.760 446.698, 175.421 449.930 C 180.227 454.173, 184.360 456.726, 190.289 459.115 C 196.312 461.542, 200.099 463.899, 204.500 467.962 C 210.713 473.696, 212.413 474.704, 225 480.113 C 230.659 482.545, 234.040 484.875, 238.775 489.605 C 243.267 494.094, 246.627 496.465, 250.606 497.954 C 259.361 501.229, 262.120 502.896, 268 508.458 C 271.180 511.467, 276.452 515.035, 280.500 516.919 C 295.502 523.900, 297.587 525.157, 300.500 528.972 C 303.567 532.989, 308.421 535.838, 320.110 540.481 C 323.969 542.013, 328.963 545.082, 332.110 547.854 C 339.590 554.443, 342.389 556.176, 351 559.549 C 356.704 561.784, 359.697 563.721, 363.500 567.642 C 368.823 573.129, 371.842 574.924, 384.452 580.094 C 390.428 582.544, 393.781 584.716, 397.952 588.835 C 401.172 592.016, 405.807 595.326, 409 596.725 C 412.025 598.050, 416.728 600.117, 419.452 601.317 C 422.175 602.518, 427.574 606.085, 431.449 609.244 C 436.168 613.092, 441.654 616.322, 448.063 619.027 C 455.636 622.222, 458.731 624.178, 462.903 628.402 C 468.077 633.640, 470.421 634.971, 484.500 640.659 C 489.644 642.737, 493.436 645.276, 498.803 650.238 C 502.820 653.951, 507.320 657.283, 508.803 657.643 C 514.736 659.082, 522.572 663.260, 526.916 667.300 C 533.077 673.030, 537.179 675.408, 545.500 678.071 C 556.716 681.660, 560.716 683.664, 565.759 688.218 C 571.558 693.456, 575.051 695.443, 583.762 698.464 C 594.726 702.265, 597.214 703.648, 603.087 709.210 C 606.891 712.811, 610.722 715.286, 615.087 716.961 C 627.635 721.775, 632.445 724.381, 636.512 728.566 C 643.058 735.302, 646.542 736.992, 653.884 736.996 C 664.702 737.003, 672 733.648, 672 728.669 C 672 727.318, 670.187 724.637, 667.468 721.969 C 658.909 713.569, 659.377 705.211, 668.853 697.221 C 673.158 693.591, 673.969 692.200, 676.940 683.343 C 681.218 670.592, 683.944 665.294, 688.442 660.996 C 693.017 656.624, 696.485 650.834, 698.023 645 C 700.100 637.122, 704.537 628.588, 709.405 623.106 C 714.156 617.758, 715.946 614.493, 720.113 603.574 C 721.463 600.037, 724.818 594.718, 728.438 590.379 C 734.532 583.070, 735.369 581.679, 740.514 570.303 C 742.417 566.095, 745.190 562.339, 749.153 558.599 C 752.363 555.569, 755.709 551.383, 756.590 549.295 C 760.560 539.882, 763.684 534.862, 769.519 528.518 C 772.968 524.769, 777.856 517.990, 780.382 513.454 C 783.832 507.258, 786.202 504.324, 789.909 501.661 C 793.299 499.226, 796.144 495.890, 798.992 491.013 C 801.654 486.456, 804.638 482.873, 807.320 481.013 C 815.063 475.645, 816.958 473.890, 818.482 470.678 C 820.724 465.955, 824.454 462.325, 830.673 458.816 C 834.187 456.832, 837.970 453.465, 841.030 449.596 C 844.457 445.262, 847.535 442.638, 851.675 440.517 C 854.879 438.877, 860.263 435.614, 863.639 433.267 C 872.809 426.894, 876.059 427.355, 885.820 436.418 C 888.928 439.304, 889.224 439.387, 890.453 437.718 C 891.176 436.738, 892.081 431.749, 892.465 426.630 C 893.402 414.131, 892.429 412.037, 879.710 399.176 C 868.943 388.288, 864.315 385.263, 853.171 381.832 C 844.573 379.185, 841.577 377.620, 835.641 372.677 C 829.305 367.401, 826.127 365.759, 816.160 362.610 C 805.374 359.203, 802.508 357.673, 796.500 352.116 C 791.635 347.616, 789.081 346.256, 774.500 340.393 C 769.479 338.374, 765.663 335.862, 761 331.504 C 757.425 328.163, 752.925 324.841, 751 324.123 C 739.384 319.790, 734.222 317.224, 729.809 313.589 C 721.348 306.618, 717.656 304.213, 713.504 302.971 C 706.509 300.878, 698.620 296.342, 694.826 292.232 C 691.033 288.123, 687.985 286.416, 674.746 280.989 C 668.360 278.371, 666.168 276.845, 662.318 272.339 C 655.013 263.788, 650.379 262.275, 642.500 265.868 M 889.070 463.870 C 886.744 468.216, 888.729 474.299, 891.676 471.854 C 893.439 470.391, 893.368 464.550, 891.570 463.058 C 890.428 462.110, 889.924 462.274, 889.070 463.870 M 869.050 507.440 C 867.602 509.185, 868.038 514.194, 869.686 514.735 C 870.339 514.949, 871.608 514.001, 872.507 512.629 C 873.783 510.682, 873.899 509.680, 873.036 508.067 C 871.733 505.632, 870.687 505.468, 869.050 507.440 M 570.914 558.956 C 562.919 561.379, 559.434 567.129, 560.328 576.422 C 561.072 584.157, 563.483 591.165, 566.313 593.824 C 569.041 596.387, 578.713 599.001, 585.460 598.998 C 595.766 598.995, 600.074 594.311, 602.061 580.947 C 603.680 570.063, 601.817 564.440, 595.027 559.719 C 593.085 558.369, 590.512 558.018, 583.027 558.086 C 577.787 558.133, 572.336 558.525, 570.914 558.956 M 807.975 589.047 C 806.606 591.605, 807.850 593.368, 810.644 592.830 C 811.855 592.597, 812.500 591.614, 812.500 590 C 812.500 586.785, 809.521 586.158, 807.975 589.047 M 787.389 609.585 C 786.508 613.097, 788.951 615.632, 791.766 614.125 C 796.071 611.822, 795.493 607, 790.912 607 C 788.655 607, 787.899 607.555, 787.389 609.585 M 769.750 627.758 C 767.252 628.313, 767.298 634, 769.800 634 C 772.065 634, 774 632.114, 774 629.907 C 774 628.006, 772.362 627.178, 769.750 627.758 M 748.362 649.500 C 747.554 651.606, 748.656 654, 750.433 654 C 752.183 654, 754.369 650.406, 753.487 648.979 C 752.550 647.463, 749.005 647.824, 748.362 649.500 M 728.667 668.667 C 728.300 669.033, 728 670.158, 728 671.167 C 728 672.456, 728.742 673, 730.500 673 C 732.500 673, 733 672.500, 733 670.500 C 733 668.742, 732.456 668, 731.167 668 C 730.158 668, 729.033 668.300, 728.667 668.667 M 708.667 688.667 C 708.300 689.033, 708 690.158, 708 691.167 C 708 692.456, 708.742 693, 710.500 693 C 712.500 693, 713 692.500, 713 690.500 C 713 688.742, 712.456 688, 711.167 688 C 710.158 688, 709.033 688.300, 708.667 688.667 M 686.754 709.250 C 686.012 711.269, 687.030 713, 688.961 713 C 691.145 713, 693.415 710.481, 692.527 709.044 C 691.624 707.583, 687.311 707.737, 686.754 709.250" stroke="none" fill="#444" fill-rule="evenodd"/></svg>