<svg xmlns="http://www.w3.org/2000/svg" width="50" height="50" viewBox="0 0 50 50" version="1.1">
	<path d="M 27.839 14.797 C 26.035 16.954, 22.656 22.703, 21.383 25.784 C 21.318 25.940, 18.168 24.271, 14.383 22.073 C 8.397 18.599, 7.312 18.265, 6.060 19.515 C 5.267 20.306, 4.817 21.138, 5.060 21.364 C 6.217 22.446, 25.906 34.911, 28.874 36.440 L 32.249 38.180 37.199 33.340 C 39.922 30.678, 42.630 27.623, 43.217 26.551 C 43.803 25.480, 41.724 27.280, 38.595 30.551 L 32.908 36.500 34.960 32.278 C 36.089 29.956, 38.449 26.419, 40.205 24.419 C 43.068 21.159, 43.479 20.975, 44.182 22.642 C 44.829 24.177, 44.925 24.079, 44.733 22.077 C 44.563 20.313, 42.867 18.631, 38.500 15.897 C 35.200 13.831, 31.978 12.109, 31.339 12.070 C 30.700 12.032, 29.125 13.259, 27.839 14.797 M 25.008 29.484 C 23.813 31.717, 24.264 34, 25.899 34 C 26.548 34, 29 29.700, 29 28.560 C 29 28.370, 28.382 27.977, 27.626 27.687 C 26.845 27.387, 25.716 28.162, 25.008 29.484" stroke="none" fill="#555555" fill-rule="evenodd"/>
</svg>