<svg xmlns="http://www.w3.org/2000/svg" width="800" height="800" viewBox="0 0 800 800" version="1.1"><path d="M 486.509 181.990 C 485.490 183.116, 484.499 186.154, 484.227 188.990 C 483.763 193.822, 483.837 194, 486.300 194 C 490.888 194, 495.278 186.256, 493.050 182.093 C 491.638 179.455, 488.844 179.410, 486.509 181.990 M 181.473 199.044 C 180.495 200.627, 182.949 203, 185.563 203 C 188.453 203, 189.555 201.374, 187.964 199.456 C 186.567 197.773, 182.421 197.510, 181.473 199.044 M 472.730 205.750 C 469.013 209.867, 467.797 224.161, 471.110 224.788 C 473.115 225.167, 474.499 221.726, 475.966 212.712 C 477.361 204.146, 476.279 201.819, 472.730 205.750 M 208 215.021 C 206.701 215.902, 206.759 216.236, 208.441 217.519 C 211.001 219.472, 217 219.500, 217 217.559 C 217 215.818, 216.387 215.417, 212.500 214.619 C 210.850 214.281, 208.825 214.461, 208 215.021 M 229.750 227.680 C 227.488 228.283, 227.408 233.264, 229.631 235.109 C 230.567 235.886, 233.653 236.470, 236.881 236.481 C 241.870 236.498, 242.534 236.260, 242.805 234.358 C 243.336 230.637, 234.880 226.312, 229.750 227.680 M 598.068 230.958 C 597.340 231.408, 597.053 232.277, 597.431 232.888 C 598.273 234.251, 603 234.375, 603 233.035 C 603 231.515, 599.531 230.054, 598.068 230.958 M 252.667 243.667 C 251.229 245.104, 252.125 248.212, 254.652 250.553 C 257.175 252.891, 259.129 253.652, 268.621 255.992 C 272.389 256.921, 272.851 257.397, 274.013 261.547 C 275.505 266.875, 277.185 268.233, 285.855 271.118 C 290.974 272.822, 293.813 274.662, 299.608 280.036 C 305.473 285.474, 308.218 287.242, 313.549 289.016 C 317.200 290.231, 321.607 292.459, 323.343 293.966 C 327.920 297.940, 330.361 299, 334.934 299 C 340.178 299, 340.159 297.639, 334.825 291.391 C 323.783 278.458, 320.960 276.151, 312.881 273.460 C 305.859 271.122, 300 267.188, 300 264.811 C 300 263.263, 287.853 258.111, 280.992 256.749 C 274.620 255.484, 274.458 255.372, 272.196 250.657 C 270.524 247.169, 268.957 245.462, 266.479 244.427 C 262.988 242.968, 253.867 242.466, 252.667 243.667 M 419.635 293.073 C 416.407 295.611, 416.286 298.009, 419.250 300.677 C 424.304 305.226, 428 303.727, 428 297.129 C 428 290.937, 424.505 289.242, 419.635 293.073 M 707.035 304.934 C 705.729 307.376, 705.691 314.554, 706.972 316.948 C 710.647 323.815, 718.151 316.753, 715.888 308.558 C 714.428 303.269, 709.095 301.086, 707.035 304.934 M 513.275 338.303 C 506.718 345.236, 506.322 346.728, 509.419 352.840 C 512.570 359.059, 516.297 362.179, 519.314 361.124 C 523.103 359.800, 526.417 351.599, 526.461 343.436 C 526.505 335.390, 525.259 333, 521.023 333 C 519.020 333, 516.951 334.416, 513.275 338.303 M 515.923 338.923 C 512.800 342.046, 512.367 343.949, 514.061 347.114 C 516.233 351.172, 522.663 351.452, 525.235 347.600 C 526.955 345.024, 525.997 340.143, 523.365 338.073 C 519.944 335.381, 519.403 335.443, 515.923 338.923 M 663.345 344.543 C 663.019 345.392, 663.014 346.347, 663.333 346.667 C 664.342 347.676, 667 346.128, 667 344.531 C 667 342.535, 664.112 342.545, 663.345 344.543 M 373.595 359.168 C 371.292 362.455, 371.523 366.714, 374.048 367.515 C 377.293 368.545, 379.141 366.242, 378.800 361.595 C 378.446 356.776, 376.052 355.660, 373.595 359.168 M 647.011 359.487 C 645.723 361.039, 646.272 364, 647.846 364 C 649.430 364, 651.247 361.085, 650.643 359.513 C 649.907 357.595, 648.589 357.586, 647.011 359.487 M 711.682 364.652 C 710.668 365.666, 710.856 374, 711.893 374 C 713.813 374, 714.729 367.697, 713.166 365.235 C 712.725 364.539, 712.057 364.277, 711.682 364.652 M 359.186 375.490 C 356.857 378.452, 353.666 389.590, 354.155 393.054 C 354.427 394.983, 355.175 395.565, 357.694 395.809 C 360.410 396.072, 361.132 395.645, 362.522 392.957 C 364.981 388.202, 366.977 380.961, 366.989 376.750 C 366.999 373.268, 366.791 373, 364.073 373 C 362.144 373, 360.477 373.850, 359.186 375.490 M 438.496 376.007 C 438.153 376.561, 438.596 377.292, 439.480 377.631 C 441.394 378.365, 442.461 377.556, 441.541 376.067 C 440.711 374.723, 439.306 374.696, 438.496 376.007 M 631.336 376.567 C 630.614 378.448, 632.384 380.499, 633.913 379.554 C 635.561 378.535, 635.216 375, 633.469 375 C 632.626 375, 631.667 375.705, 631.336 376.567 M 559.750 402.080 C 557.246 403.539, 557.591 406.686, 560.462 408.567 C 563.245 410.390, 570.089 411.564, 572.514 410.633 C 573.982 410.070, 573.974 409.765, 572.426 407.143 C 569.428 402.068, 563.699 399.780, 559.750 402.080 M 343.109 406.588 C 341.019 409.245, 340.143 416, 341.889 416 C 344.433 416, 347.245 412.177, 347.369 408.548 C 347.531 403.806, 345.891 403.052, 343.109 406.588 M 579.215 421.766 C 579.684 428.315, 582.988 438, 584.753 438 C 586.460 438, 601 424.766, 601 423.212 C 601 422.694, 600.096 421.120, 598.991 419.716 C 596.823 416.959, 590.102 415, 582.816 415 L 578.731 415 579.215 421.766 M 331.032 420.582 C 329.125 421.410, 327.219 422.630, 326.798 423.293 C 325.455 425.405, 325.905 431.026, 327.465 431.625 C 330.812 432.909, 338.947 423.911, 337.604 420.410 C 336.924 418.640, 335.420 418.679, 331.032 420.582 M 526.203 450.241 C 522.876 451.844, 523.730 455.135, 528 457.162 C 532.523 459.310, 539.099 460.282, 540.954 459.076 C 542.226 458.248, 542.226 457.788, 540.954 455.402 C 538.099 450.044, 531.446 447.717, 526.203 450.241 M 294.110 464.368 C 293.446 465.167, 292.648 467.393, 292.336 469.314 C 291.867 472.205, 292.145 473.007, 293.949 473.973 C 297.381 475.809, 299.160 473.653, 298.798 468.097 C 298.480 463.216, 296.423 461.580, 294.110 464.368 M 551.750 465.080 C 549.206 466.562, 549.439 473.017, 552.161 476.477 C 554.114 478.960, 554.793 479.178, 559.235 478.751 C 564.440 478.251, 569.276 475.430, 569.839 472.565 C 570.460 469.402, 569.074 466.355, 566.477 465.171 C 563.337 463.741, 554.148 463.684, 551.750 465.080 M 630.651 487.468 C 630.009 489.139, 631.499 490.427, 633 489.500 C 634.495 488.576, 634.206 486, 632.607 486 C 631.841 486, 630.960 486.661, 630.651 487.468 M 342.667 502.667 C 340.402 504.931, 344.978 507.617, 348.180 505.904 C 350.287 504.776, 350.298 504.691, 348.489 503.368 C 346.488 501.905, 343.757 501.576, 342.667 502.667 M 614.543 503.931 C 614.226 504.443, 614.425 505.144, 614.984 505.490 C 616.177 506.227, 618 505.291, 618 503.941 C 618 502.724, 615.293 502.716, 614.543 503.931 M 374.058 519.430 C 372.261 521.596, 376.201 523.498, 379.180 521.904 C 381.287 520.776, 381.298 520.691, 379.489 519.368 C 377.096 517.619, 375.547 517.637, 374.058 519.430 M 598.543 519.931 C 598.226 520.443, 598.425 521.144, 598.984 521.490 C 600.177 522.227, 602 521.291, 602 519.941 C 602 518.724, 599.293 518.716, 598.543 519.931 M 406.250 534.746 C 404.306 535.400, 404.779 537.795, 406.991 538.497 C 409.324 539.237, 411 538.426, 411 536.558 C 411 535.118, 408.255 534.072, 406.250 534.746 M 436.218 552.173 C 436.458 552.903, 437.906 553.647, 439.436 553.827 C 441.397 554.057, 442.089 553.762, 441.782 552.827 C 441.542 552.097, 440.094 551.353, 438.564 551.173 C 436.603 550.943, 435.911 551.238, 436.218 552.173 M 508.585 578.501 C 502.582 580.387, 497.216 582.384, 496.659 582.941 C 495.036 584.564, 498.596 587.661, 503.504 588.897 C 505.914 589.504, 510.871 590, 514.520 590 C 520.519 590, 521.434 589.720, 524.077 587.077 C 528.608 582.546, 527.558 576.743, 522 575.592 C 520.580 575.297, 514.786 576.554, 508.585 578.501" stroke="none" fill="#444" fill-rule="evenodd"/></svg>