<svg xmlns="http://www.w3.org/2000/svg" width="1000" height="1000" viewBox="0 0 1000 1000" version="1.1"><path d="M 651.500 245.888 C 648.784 247.078, 646.480 249.778, 643.707 255.022 C 642.340 257.607, 638.925 261.328, 635.439 264.030 C 630.191 268.099, 629.208 269.441, 626.993 275.567 C 623.580 285.002, 622.677 286.389, 617.551 290.071 C 613.114 293.257, 612.342 294.510, 605.159 310.167 C 603.159 314.527, 600.823 317.815, 598.409 319.667 C 589.965 326.148, 588.717 327.698, 585.625 335.540 C 583.116 341.905, 581.828 343.866, 579.094 345.484 C 572.576 349.342, 569.363 353.240, 567.544 359.496 C 564.937 368.464, 563.428 370.923, 556.378 377.687 C 551.307 382.552, 549.088 385.694, 545.996 392.386 C 542.502 399.949, 541.475 401.275, 536.782 404.283 C 530.132 408.546, 529.437 409.416, 526.981 416.555 C 524.048 425.081, 522.663 426.679, 515.336 430.002 C 506.521 433.999, 505.814 435.025, 506.557 442.745 C 507.573 453.297, 504.620 459.099, 496 463.491 C 490.032 466.532, 488.574 468.307, 485.271 476.547 C 482.918 482.417, 481.767 483.967, 477.881 486.500 C 472.075 490.285, 469.374 494.143, 467.504 501.325 C 465.553 508.814, 462.353 513.690, 455.604 519.455 C 451.795 522.709, 449.237 525.974, 447.461 529.850 C 442.419 540.849, 441.588 541.970, 435.852 545.511 C 431.156 548.409, 429.878 549.815, 428.578 553.513 C 427.710 555.981, 426.298 559.998, 425.440 562.441 C 424.395 565.415, 421.775 568.925, 417.507 573.069 C 412.746 577.691, 409.980 581.561, 406.565 588.378 C 402.912 595.672, 400.994 598.266, 396.999 601.322 C 391.601 605.452, 389.821 609.249, 392.178 611.606 C 392.992 612.421, 397.170 613.449, 401.817 613.979 C 412.850 615.237, 417.941 617.616, 421.588 623.213 C 425.799 629.676, 430.001 632.551, 437.242 633.921 C 449.036 636.153, 453.179 638.007, 458.494 643.430 C 465.736 650.818, 468.576 652.465, 477.315 654.340 C 487.274 656.476, 489.311 657.586, 495.908 664.469 C 502.212 671.047, 504.163 672.167, 513.224 674.413 C 523.249 676.899, 526.373 678.487, 530.634 683.264 C 535.745 688.993, 539.891 691.355, 549.343 693.918 C 559.519 696.678, 561.957 698.008, 566.689 703.385 C 571.710 709.088, 575.814 711.426, 584.500 713.531 C 593.591 715.734, 600.538 719.516, 603.097 723.656 C 607.807 731.278, 613.783 733.008, 618.961 728.250 C 622.181 725.291, 627.652 712.970, 633.725 695 C 637.147 684.875, 637.533 684.250, 644.505 677.500 C 652.079 670.168, 652.165 670.017, 654.022 660.655 C 655.900 651.186, 657.765 647.891, 665.426 640.500 C 670.554 635.553, 672.871 632.537, 673.323 630.218 C 675.374 619.700, 677.265 615.720, 683.373 609.063 C 689.566 602.316, 690.479 600.669, 695.490 587.216 C 697.936 580.650, 698.712 579.604, 703.352 576.612 C 710.474 572.019, 711.831 570.213, 713.656 562.885 C 716.208 552.641, 719.537 546.574, 725.213 541.822 C 729.328 538.377, 731.169 535.731, 734.607 528.324 C 738.034 520.940, 739.539 518.774, 742.191 517.408 C 749.486 513.651, 751.815 511.065, 754.104 504.187 C 756.317 497.536, 757.875 495.539, 765.704 489.315 C 767.907 487.563, 770.481 484.413, 771.423 482.315 C 772.365 480.217, 773.667 477.375, 774.318 476 C 774.968 474.625, 779.349 469.450, 784.053 464.500 C 788.758 459.550, 794.141 453.475, 796.015 451 C 797.890 448.525, 806.201 439.750, 814.484 431.500 C 827.762 418.275, 830.554 415.991, 838.079 412.202 C 844.541 408.949, 847.549 406.725, 850.460 403.051 C 855.989 396.070, 860.106 394.112, 872.228 392.698 C 881.781 391.584, 882.523 391.338, 882.827 389.192 C 883.007 387.923, 882.332 385.673, 881.328 384.192 C 880.323 382.711, 877.893 378.576, 875.927 375.001 C 872.485 368.743, 872.080 368.389, 864.972 365.424 C 858.696 362.806, 857.083 361.608, 854.203 357.422 C 850.038 351.370, 846.804 349.243, 838.992 347.421 C 829.917 345.304, 825.178 342.508, 818 335.034 C 811.888 328.670, 811.112 328.190, 805 326.990 C 795.221 325.070, 792.687 323.727, 785.608 316.717 C 778.703 309.880, 777.662 309.307, 766.031 305.945 C 759.193 303.967, 758.012 303.212, 752.031 296.992 C 746.990 291.748, 744.474 289.921, 741 288.981 C 724.956 284.638, 723.804 284.051, 716.500 276.484 C 710.004 269.755, 709.068 269.148, 703.500 268.053 C 690.036 265.405, 686.755 264.033, 682.221 259.157 C 673.530 249.810, 672.412 248.919, 667.500 247.423 C 661.027 245.452, 654.027 244.781, 651.500 245.888 M 652.149 263.230 C 650.848 263.933, 647.947 268.056, 645.649 272.467 C 642.262 278.970, 640.524 281.104, 636.189 284.082 C 629.802 288.469, 628.826 289.800, 626.492 297.315 C 625.010 302.084, 623.402 304.422, 617.552 310.315 C 611.762 316.147, 609.978 318.724, 608.083 324 C 605.057 332.422, 601.612 338.287, 598.317 340.627 C 592.038 345.088, 588.373 349.159, 586.575 353.670 C 583.724 360.825, 582.350 362.573, 576.551 366.423 C 570.454 370.469, 568.426 373.178, 567.431 378.604 C 566.047 386.150, 562.441 392.346, 555.563 399 C 551.207 403.214, 547.762 407.695, 545.768 411.741 C 544.075 415.173, 540.735 420.273, 538.345 423.072 C 535.955 425.872, 534 428.746, 534 429.459 C 534 431.841, 536.861 433.170, 543.892 434.053 C 558.009 435.825, 560.650 437.122, 565.907 444.863 C 570.352 451.409, 572.207 452.410, 582.754 453.956 C 590.185 455.045, 597.596 457.430, 599.660 459.395 C 600.298 460.003, 601.941 462.525, 603.310 465 C 606.771 471.257, 609.277 472.796, 618.697 474.449 C 632.109 476.803, 634.805 477.916, 638.842 482.766 C 647.919 493.671, 646.405 492.770, 659.453 495.029 C 673.426 497.449, 675.809 498.436, 682.503 504.579 C 691.190 512.551, 694.099 513.423, 712.166 513.464 C 727.499 513.499, 727.887 513.447, 730.482 511.013 C 731.940 509.646, 734.318 506.349, 735.766 503.688 C 737.587 500.342, 739.803 498.050, 742.950 496.256 C 749.874 492.308, 750.995 491.065, 754.460 483.500 C 756.851 478.281, 758.918 475.488, 762.583 472.523 C 768.810 467.486, 769.664 466.469, 772.160 461.126 C 773.284 458.720, 778.320 452.487, 783.352 447.274 C 805.895 423.919, 817.890 412, 818.854 412 C 819.427 412, 823.927 408.236, 828.854 403.636 C 836.418 396.574, 838.754 394.990, 843.855 393.462 C 853.156 390.676, 857 386.510, 857 379.214 C 857 372.715, 853.761 369.179, 844.645 365.726 C 838.428 363.372, 835.821 361.716, 832.145 357.791 C 826.911 352.202, 823.164 350.021, 814.530 347.535 C 805.404 344.908, 801.499 342.506, 796.803 336.631 C 791.281 329.724, 790.171 329.062, 780.527 326.929 C 768.976 324.375, 765.721 322.702, 760.470 316.619 C 755.099 310.398, 752.547 308.944, 741.527 305.830 C 734.766 303.919, 732.789 302.832, 728.527 298.686 C 720.544 290.919, 718.059 289.398, 708.500 286.430 C 700.520 283.953, 698.882 283.017, 694.049 278.179 C 688.864 272.988, 680.460 268.031, 676.810 268.010 C 675.880 268.004, 672.055 266.906, 668.310 265.569 C 659.131 262.292, 654.993 261.693, 652.149 263.230 M 679.500 380.681 C 673.186 382.099, 670.035 383.850, 664.451 389.046 C 658.064 394.987, 654.530 397.233, 649.768 398.374 C 645.906 399.300, 640.304 404.521, 639.118 408.300 C 637.021 414.981, 635.952 429.608, 637.009 437.159 C 639.517 455.089, 644.463 461.368, 662 468.894 C 668.074 471.500, 682.787 476.800, 685.747 477.447 C 690.089 478.397, 695.029 476.633, 698.585 472.864 C 701.884 469.366, 707.719 465.370, 713.229 462.833 C 720.995 459.258, 723.304 455.071, 725.058 441.377 C 726.009 433.949, 725.928 430.952, 724.558 423.020 C 722.508 411.149, 719.657 406.035, 712.557 401.494 C 706.769 397.791, 703.322 394.112, 699.450 387.504 C 695.830 381.327, 688.217 378.723, 679.500 380.681 M 677.750 426.572 C 676.237 427.393, 675 428.484, 675 428.997 C 675 432.239, 686.982 433.469, 689.876 430.524 C 691.377 428.996, 691.321 428.724, 689.139 426.935 C 686.346 424.646, 681.581 424.494, 677.750 426.572 M 688.289 437.999 C 678.370 440.080, 674.464 446.708, 675.193 460.226 C 675.709 469.803, 676.982 472.376, 682.251 474.484 C 689.122 477.233, 692.788 476.171, 699.565 469.469 C 701.250 467.801, 705.750 464.835, 709.565 462.877 C 718.353 458.364, 721.380 454.355, 720.697 448.128 C 720.351 444.964, 719.359 442.897, 717.106 440.644 C 714.042 437.581, 713.823 437.528, 703.247 437.324 C 697.336 437.209, 690.605 437.513, 688.289 437.999 M 508.694 466.250 C 507.370 468.038, 505.440 471.075, 504.404 473 C 501.675 478.076, 500.094 479.826, 494.455 484.013 C 490.209 487.167, 488.971 488.879, 486.639 494.823 C 484.019 501.500, 477.849 509, 474.975 509 C 473.461 509, 468 518.052, 468 520.561 C 468 521.755, 466.445 525.829, 464.543 529.616 C 461.928 534.823, 459.729 537.555, 455.511 540.834 C 450.990 544.348, 449.106 546.806, 445.548 553.834 C 441.919 561.002, 440.318 563.065, 436.287 565.766 C 430.979 569.322, 428.633 572.587, 427.495 578 C 426.335 583.516, 424.109 587.117, 418.529 592.500 C 413.383 597.466, 411.544 601.541, 412.611 605.621 C 413.386 608.584, 418.835 611.719, 426.116 613.390 C 437.101 615.912, 440.650 617.774, 445.084 623.343 C 450.182 629.746, 453.250 631.781, 458.985 632.565 C 471.606 634.291, 478.103 637.375, 483.364 644.137 C 488.501 650.740, 489.930 651.544, 500.688 653.885 C 512.062 656.360, 514.600 657.652, 520.120 663.778 C 526.054 670.364, 528.498 671.787, 537.652 673.988 C 547.494 676.354, 550.720 677.978, 556.109 683.277 C 561.081 688.165, 567.899 692.990, 569.845 692.996 C 570.584 692.998, 574.286 693.941, 578.071 695.090 C 585.552 697.363, 590.200 700.540, 595.247 706.832 C 599.082 711.613, 603.444 714, 608.344 714 C 612.696 714, 614.288 711.992, 617.069 703 C 618.597 698.060, 620.238 695.300, 623.906 691.500 C 629.882 685.308, 631.039 683.083, 634.939 670.283 C 637.851 660.723, 638.374 659.792, 643.071 655.783 C 649.631 650.185, 651.588 646.879, 653.003 639 C 654.858 628.670, 657.535 623.601, 664.175 617.849 C 670.647 612.242, 672.108 609.955, 673.899 602.627 C 675.729 595.145, 679.285 588.990, 684.950 583.500 C 688.418 580.139, 691.397 575.829, 694.034 570.353 C 696.811 564.588, 699.353 560.981, 702.729 558.014 C 712.694 549.255, 710.991 547.492, 691.828 546.729 C 677.200 546.146, 668.568 544.812, 663.853 542.406 C 662.397 541.663, 659.827 538.814, 658.142 536.076 C 656.457 533.338, 654.042 530.418, 652.775 529.589 C 651.509 528.759, 646.133 527.381, 640.830 526.528 C 626.521 524.225, 622.532 522.055, 618.719 514.498 C 616.286 509.674, 613.672 507.994, 606.881 506.891 C 603.372 506.321, 597.575 505.215, 594 504.432 C 587.211 502.946, 587.687 503.311, 577.068 491.457 C 574.840 488.970, 572.809 488.085, 565.937 486.608 C 561.314 485.615, 555.860 483.949, 553.817 482.907 C 550.171 481.047, 548.837 479.869, 542.190 472.643 C 540.100 470.371, 537.335 468.652, 534.690 467.980 C 532.385 467.394, 527.505 466.034, 523.845 464.957 C 514.193 462.119, 511.590 462.341, 508.694 466.250" stroke="none" fill="#444" fill-rule="evenodd"/></svg>