<svg xmlns="http://www.w3.org/2000/svg" width="800" height="800" viewBox="0 0 800 800" version="1.1"><path d="M 510.363 213.922 C 508.088 214.956, 504.332 217.533, 502.017 219.651 C 499.702 221.768, 495.059 224.850, 491.700 226.500 C 487.300 228.661, 484.725 230.758, 482.489 234 C 480.783 236.475, 477.162 240.001, 474.443 241.835 C 471.569 243.774, 468.184 247.297, 466.354 250.253 C 464.624 253.050, 461.172 256.815, 458.684 258.620 C 455.496 260.934, 453.072 263.974, 450.477 268.911 C 448.452 272.766, 445.282 277.073, 443.433 278.483 C 441.138 280.234, 438.445 284.368, 434.950 291.508 C 431.239 299.087, 428.770 302.806, 425.987 305.010 C 423.501 306.979, 421.541 309.720, 420.434 312.777 C 416.862 322.634, 413.965 328.178, 409.557 333.589 C 406.347 337.530, 404.371 341.293, 402.860 346.340 C 400.137 355.441, 398.804 358.041, 393.558 364.482 C 390.229 368.569, 388.815 371.550, 387.096 378.107 C 384.022 389.832, 383.167 391.717, 378.116 397.919 C 375.665 400.927, 372.799 405.664, 371.747 408.445 C 369.391 414.669, 367.706 416.612, 363.444 418.018 C 358.643 419.603, 352.729 417.729, 348.184 413.184 C 342.720 407.720, 339.343 405.619, 331 402.492 C 325.425 400.402, 322.291 398.464, 318.792 394.939 C 315.963 392.091, 312.170 389.504, 309.292 388.460 C 298.904 384.693, 294.042 382.030, 289.650 377.700 C 286.625 374.718, 283.273 372.596, 279.784 371.456 C 272.158 368.963, 269.155 367.298, 263.225 362.273 C 260.213 359.721, 254.438 356.344, 249.763 354.402 C 244.585 352.250, 240.092 349.548, 237.538 347.048 C 233.632 343.225, 230.044 341.321, 219.500 337.475 C 216.448 336.362, 212.348 333.601, 208.975 330.388 C 204.955 326.559, 201.548 324.418, 196.475 322.533 C 191.845 320.813, 187.339 318.110, 183.074 314.495 C 178.098 310.276, 174.827 308.449, 168.574 306.397 C 164.133 304.939, 157.933 302.208, 154.797 300.329 C 147.222 295.790, 136.610 293.705, 108.997 291.327 C 101.943 290.719, 95.494 292.550, 94.370 295.478 C 94.039 296.341, 95.733 301.356, 98.134 306.621 C 101.385 313.750, 103.492 316.986, 106.383 319.287 C 109.122 321.468, 111.366 324.772, 114.003 330.507 C 118.829 341.002, 122.307 344.843, 132.631 351.079 C 137.273 353.883, 142.068 357.553, 143.286 359.236 C 144.733 361.234, 148.619 363.762, 154.500 366.529 C 159.460 368.863, 164.847 372.226, 166.500 374.021 C 168.230 375.899, 173.796 379.308, 179.648 382.072 C 187.158 385.619, 190.534 387.833, 192.634 390.587 C 194.636 393.212, 197.841 395.398, 203.504 398.002 C 207.974 400.057, 214.120 403.957, 217.366 406.798 C 221.010 409.986, 225.763 412.907, 230.033 414.583 C 235.120 416.578, 238.174 418.621, 241.977 422.569 C 244.933 425.638, 248.648 428.379, 250.793 429.073 C 257.182 431.141, 263.317 434.740, 268.500 439.461 C 271.655 442.334, 276.015 444.976, 280.314 446.619 C 285.100 448.448, 288.542 450.637, 291.874 453.969 C 294.966 457.062, 298.607 459.457, 302.330 460.851 C 311.784 464.388, 317.330 467.688, 320.636 471.746 C 322.939 474.571, 325.706 476.353, 331.040 478.446 C 335.715 480.280, 340.153 482.969, 343.482 485.984 C 346.799 488.988, 351.502 491.841, 356.579 493.930 C 362.288 496.278, 366.036 498.663, 370 502.468 C 374.045 506.351, 377.382 508.452, 382.617 510.410 C 387.461 512.223, 391.734 514.806, 396 518.500 C 400.061 522.017, 404.639 524.834, 409.008 526.503 C 413.816 528.340, 416.948 530.359, 419.934 533.545 C 424.714 538.645, 426.794 539.838, 436.403 542.996 C 441.645 544.719, 444.692 546.540, 449.072 550.566 C 453.754 554.870, 456.217 556.277, 462.169 558.044 C 471.928 560.942, 474.665 562.406, 480.013 567.587 C 483.339 570.808, 486.478 572.622, 491.945 574.481 C 496.025 575.869, 502.204 578.785, 505.675 580.962 C 513.477 585.854, 518.442 587.307, 522.943 586.016 C 527.875 584.602, 529.795 582.361, 531.607 575.903 C 533.791 568.120, 535.620 566.610, 542.643 566.795 C 549.654 566.980, 551.528 565.982, 553.050 561.258 C 554.756 555.962, 555.494 555.289, 561.518 553.538 C 567.017 551.939, 569.719 549.507, 571.933 544.161 C 572.695 542.323, 574.956 540.253, 578.033 538.579 C 582.532 536.130, 587 531.492, 587 529.270 C 587 527.817, 591.121 524.416, 595.608 522.165 C 598.836 520.546, 600.286 518.902, 602.371 514.498 C 604.106 510.833, 606.093 508.306, 608.111 507.196 C 613.563 504.200, 616.010 501.901, 618.090 497.823 C 619.209 495.630, 621.503 493.085, 623.188 492.168 C 630.324 488.284, 632 486.158, 632 480.993 C 632 473.365, 632.342 473, 639.485 473 C 647.285 473, 649.073 471.505, 647.054 466.670 C 644.697 461.026, 644.611 456.662, 646.816 454.666 C 649.010 452.681, 653.945 452.165, 658.405 453.455 C 661.147 454.247, 661.267 454.160, 660.542 451.897 C 657.475 442.334, 659.471 437.093, 667.537 433.526 C 671.383 431.825, 673.329 430.287, 674.137 428.307 C 678.957 416.501, 680.155 414.818, 685.478 412.381 C 693.380 408.764, 693.886 407.876, 693.688 397.999 C 693.465 386.922, 695.050 383.782, 702.607 380.322 C 705.612 378.947, 708.734 376.810, 709.543 375.574 C 710.353 374.339, 711.480 369.617, 712.049 365.082 C 712.618 360.546, 713.514 354.561, 714.041 351.781 C 715.270 345.305, 715.266 337.413, 714.032 333.112 C 713.500 331.255, 710.462 326.957, 707.282 323.560 C 704.102 320.163, 700.258 315.740, 698.739 313.731 C 696.345 310.565, 694.666 309.674, 686.108 307.033 C 677.604 304.409, 675.420 303.258, 670.324 298.710 C 665.266 294.197, 663.070 293.030, 655.183 290.663 C 647.318 288.303, 645.094 287.124, 640.100 282.668 C 635.977 278.989, 632.504 276.897, 628.371 275.602 C 619.863 272.935, 615.799 270.640, 610.870 265.719 C 607.895 262.750, 604.266 260.501, 599.500 258.675 C 594.715 256.841, 590.840 254.435, 587.254 251.073 C 583.287 247.352, 579.885 245.353, 573.293 242.865 C 566.282 240.218, 563.580 238.569, 559.473 234.429 C 555.812 230.739, 552.831 228.780, 548.934 227.506 C 540.983 224.906, 538.042 223.240, 532.778 218.354 C 530.180 215.944, 526.888 213.528, 525.462 212.986 C 521.433 211.454, 514.909 211.858, 510.363 213.922 M 690.256 356.641 C 688.472 357.522, 685.497 360.353, 683.645 362.931 C 680.007 367.995, 677.036 370.597, 669.951 374.923 C 666.687 376.916, 664.590 379.252, 662.530 383.187 C 660.511 387.041, 658.096 389.763, 654.407 392.342 C 650.240 395.253, 648.226 397.714, 644.651 404.255 C 641.285 410.414, 638.888 413.435, 635.173 416.195 C 630.889 419.378, 629.896 420.802, 628.010 426.470 C 626.052 432.354, 625.379 433.273, 621.660 435.142 C 615.273 438.353, 614.143 439.786, 612.860 446.308 C 611.822 451.584, 610.898 453.192, 605.576 458.992 C 600.955 464.027, 599.030 467.069, 597.619 471.567 C 595.345 478.813, 593.046 482.190, 588.458 485.026 C 584.141 487.694, 582.715 490.397, 580.562 500 C 578.503 509.180, 577.261 511.177, 571.523 514.540 C 567.952 516.632, 566.811 517.990, 565.956 521.162 C 564.448 526.765, 565.037 530.435, 567.500 530.779 C 568.844 530.966, 571.967 528.671, 577.021 523.779 C 588.764 512.415, 602 498.180, 602 496.916 C 602 496.285, 605.038 492.783, 608.750 489.134 C 612.462 485.485, 616.698 480.410, 618.161 477.856 C 619.625 475.302, 623.502 471.027, 626.777 468.356 C 630.051 465.685, 634.681 460.665, 637.065 457.201 C 639.448 453.736, 643.495 449.395, 646.057 447.555 C 649.458 445.111, 651.451 442.614, 653.441 438.303 C 655.451 433.950, 657.320 431.623, 660.553 429.449 C 665.179 426.338, 667.237 422.645, 668.470 415.236 C 669.055 411.724, 669.914 410.466, 673.340 408.102 C 679.584 403.795, 680.546 402.358, 684.386 391.613 C 687.953 381.627, 691.043 376.187, 695.555 371.949 C 698.917 368.790, 700.512 362.650, 698.950 358.879 C 698.294 357.296, 697.399 356, 696.960 356 C 696.522 356, 695.564 355.783, 694.832 355.519 C 694.099 355.254, 692.040 355.759, 690.256 356.641 M 460.635 449.030 C 453.515 450.255, 451 453.041, 451 459.706 C 451 469.760, 455.160 475.300, 464.121 477.180 C 472.978 479.038, 477.036 477.133, 478.957 470.216 C 481.188 462.184, 479.406 452.337, 475.335 450.197 C 472.382 448.645, 465.877 448.128, 460.635 449.030 M 512.872 562.017 C 508.052 562.832, 503.969 564.579, 502.843 566.309 C 500.569 569.801, 508.217 572.701, 518.250 572.151 C 524.313 571.818, 527.560 563.924, 522.435 561.975 C 519.605 560.899, 519.485 560.900, 512.872 562.017" stroke="none" fill="#444" fill-rule="evenodd"/></svg>