<svg xmlns="http://www.w3.org/2000/svg" width="800" height="800" viewBox="0 0 800 800" version="1.1"><path d="M 547.331 274.937 C 542.444 277.156, 541 279.408, 541 284.812 C 541 293.364, 545.730 300, 551.826 300 C 556.436 300, 559.238 297.413, 561.466 291.096 C 564.556 282.340, 563.127 277.633, 556.316 274.125 C 553.381 272.613, 552.216 272.719, 547.331 274.937 M 695 288.953 C 695 293.944, 696.954 296.615, 704.248 301.599 L 711.264 306.393 713.132 304.086 C 717.063 299.231, 714.886 295.731, 704.430 290.090 C 700.259 287.841, 696.431 286, 695.923 286 C 695.415 286, 695 287.329, 695 288.953 M 470.724 358.250 C 468.061 360.257, 466 366.495, 466 372.545 C 466 377.466, 466.374 378.528, 469.056 381.210 C 471.858 384.011, 472.517 384.217, 476.987 383.688 C 483.543 382.911, 489.826 379.585, 491.114 376.209 C 492.515 372.535, 491.361 365.729, 488.781 362.449 C 484.975 357.610, 474.733 355.229, 470.724 358.250 M 596.887 389.113 C 595.248 390.752, 594.901 392.004, 595.339 394.702 C 596.417 401.342, 600.287 402.993, 603.927 398.365 C 609.301 391.534, 602.891 383.109, 596.887 389.113 M 261.994 449.021 C 261.163 452.107, 261.216 453.678, 262.219 455.771 C 265.142 461.870, 269.012 456.472, 267.020 449.074 C 265.607 443.826, 263.400 443.802, 261.994 449.021 M 599 504.500 C 599 505.325, 599.675 506, 600.500 506 C 601.325 506, 602 505.325, 602 504.500 C 602 503.675, 601.325 503, 600.500 503 C 599.675 503, 599 503.675, 599 504.500 M 500.823 577.534 C 499.350 578.333, 495.234 579.400, 491.675 579.904 C 481.462 581.350, 477.994 584.309, 483.547 586.839 C 489.051 589.347, 496.859 587.633, 503.702 582.414 C 506.474 580.299, 506.842 579.574, 505.970 577.945 C 504.743 575.652, 504.346 575.620, 500.823 577.534" stroke="none" fill="#444" fill-rule="evenodd"/></svg>