<svg xmlns="http://www.w3.org/2000/svg" width="50" height="50" viewBox="0 0 50 50" version="1.1">
	<path d="M 27.500 12.861 C 25.850 13.880, 23.600 15.791, 22.500 17.107 L 20.500 19.500 22.687 17.652 C 23.890 16.636, 25.347 16.097, 25.926 16.454 C 26.563 16.848, 26.742 16.493, 26.382 15.552 C 25.846 14.156, 26.942 13.517, 29.250 13.882 C 29.663 13.947, 30 13.498, 30 12.883 C 30 12.235, 31.036 11.965, 32.470 12.239 C 33.828 12.499, 34.702 12.326, 34.411 11.856 C 33.551 10.465, 30.709 10.878, 27.500 12.861 M 30 15.378 C 30 15.585, 30.788 16.373, 31.750 17.128 C 33.336 18.371, 33.371 18.336, 32.128 16.750 C 30.821 15.084, 30 14.555, 30 15.378 M 40.792 16.703 L 43.084 18.572 40.542 20.960 L 38 23.349 35.676 21.165 C 34.398 19.964, 33.050 19.283, 32.682 19.651 C 32.314 20.020, 31.199 19.686, 30.204 18.911 C 29.210 18.135, 29.995 18.956, 31.948 20.735 C 33.902 22.514, 35.837 23.977, 36.250 23.985 C 36.663 23.993, 37 24.450, 37 25 C 37 25.550, 35.313 26.072, 33.250 26.160 L 29.500 26.320 32.804 26.727 C 35.665 27.080, 36.632 26.556, 40.013 22.817 C 42.910 19.615, 43.929 18.969, 43.959 20.316 C 43.982 21.314, 43.525 23.114, 42.945 24.316 C 41.926 26.426, 41.943 26.434, 43.445 24.559 C 45.957 21.423, 45.360 18.630, 41.750 16.632 C 38.558 14.865, 38.541 14.867, 40.792 16.703 M 19.012 21.977 C 18.182 23.529, 18.246 23.843, 19.310 23.434 C 20.056 23.148, 20.667 22.258, 20.667 21.457 C 20.667 19.498, 20.273 19.622, 19.012 21.977 M 33 20.378 C 33 20.585, 33.788 21.373, 34.750 22.128 C 36.336 23.371, 36.371 23.336, 35.128 21.750 C 33.821 20.084, 33 19.555, 33 20.378 M 27 22.059 C 27 22.641, 27.450 22.840, 28 22.500 C 28.550 22.160, 29 21.684, 29 21.441 C 29 21.198, 28.550 21, 28 21 C 27.450 21, 27 21.477, 27 22.059 M 30.500 24 C 30.840 24.550, 31.316 25, 31.559 25 C 31.802 25, 32 24.550, 32 24 C 32 23.450, 31.523 23, 30.941 23 C 30.359 23, 30.160 23.450, 30.500 24 M 37.043 31.457 C 34.637 33.908, 32.324 35.700, 31.903 35.440 C 31.483 35.180, 30.856 35.425, 30.510 35.984 C 30.165 36.543, 30.488 37, 31.229 37 C 31.969 37, 34.791 34.750, 37.500 32 C 40.209 29.250, 42.198 27, 41.921 27 C 41.643 27, 39.448 29.005, 37.043 31.457 M 34 30 C 33.411 31.100, 33.155 32, 33.430 32 C 33.705 32, 34.411 31.100, 35 30 C 35.589 28.900, 35.845 28, 35.570 28 C 35.295 28, 34.589 28.900, 34 30 M 21 31.430 C 21 31.705, 21.900 32.411, 23 33 C 24.100 33.589, 25 33.845, 25 33.570 C 25 33.295, 24.100 32.589, 23 32 C 21.900 31.411, 21 31.155, 21 31.430" stroke="none" fill="#555555" fill-rule="evenodd"/>
</svg>