<svg xmlns="http://www.w3.org/2000/svg" width="50" height="50" viewBox="0 0 50 50" version="1.1">
	<path d="M 30.212 14.564 C 29.042 15.383, 26.849 18.253, 25.338 20.941 L 22.591 25.827 15.460 21.914 C 7.434 17.508, 4.242 16.813, 6.161 19.887 C 7.272 21.666, 22.488 31.648, 29.890 35.453 L 33.280 37.196 38.390 31.861 L 43.500 26.526 38.111 31.513 L 32.722 36.500 35.059 32.224 C 36.345 29.873, 38.645 26.498, 40.169 24.724 C 42.515 21.997, 43.107 21.731, 44.014 23 C 44.888 24.221, 45.032 24.074, 44.793 22.205 C 44.585 20.574, 42.743 18.923, 38.419 16.493 C 32.828 13.350, 32.167 13.195, 30.212 14.564 M 28 29 C 28 29.550, 28.450 30, 29 30 C 29.550 30, 30 29.550, 30 29 C 30 28.450, 29.550 28, 29 28 C 28.450 28, 28 28.450, 28 29" stroke="none" fill="#555555" fill-rule="evenodd"/>
</svg>