<svg xmlns="http://www.w3.org/2000/svg" width="1000" height="1000" viewBox="0 0 1000 1000" version="1.1"><path d="M 549.308 425.019 C 545.856 426.395, 543.653 430.515, 544.393 434.214 C 545.125 437.877, 548.598 442, 550.951 442 C 553.553 442, 558.712 436.586, 559.491 433.040 C 560.084 430.343, 559.792 429.352, 557.856 427.482 C 554.950 424.674, 552.177 423.875, 549.308 425.019 M 622.500 465.504 C 618.006 467.100, 615 470.211, 615 473.266 C 615 474.390, 616.845 477.064, 619.099 479.209 C 622.552 482.494, 623.769 483.061, 626.817 482.804 C 633.573 482.236, 637.554 472.118, 632.961 467.189 C 631.840 465.985, 630.526 465, 630.043 465 C 629.559 465, 628.564 464.794, 627.832 464.542 C 627.099 464.290, 624.700 464.723, 622.500 465.504" stroke="none" fill="#444" fill-rule="evenodd"/></svg>