<svg xmlns="http://www.w3.org/2000/svg" width="50" height="50" viewBox="0 0 50 50" version="1.1">
	<path d="M 15 15.283 C 18.575 17.747, 21.790 19.594, 22.145 19.387 C 22.500 19.181, 23.028 19.630, 23.318 20.386 C 23.608 21.142, 22.548 23.277, 20.963 25.130 C 17.454 29.233, 17.405 29.641, 20.250 31.020 C 22.422 32.072, 22.432 32.056, 20.541 30.542 C 18.627 29.010, 18.657 28.906, 21.853 25.987 C 24.917 23.189, 27.793 21.908, 26.570 23.887 C 25.945 24.897, 27.792 26.674, 29.980 27.168 C 33.274 27.911, 34.288 29.891, 32.985 33.035 C 31.594 36.395, 31.642 36.374, 28.684 34.945 C 26.550 33.914, 26.546 33.926, 28.481 35.474 C 30.437 37.038, 33.545 37.215, 33.159 35.740 C 33.049 35.321, 33.632 33.678, 34.454 32.088 C 35.889 29.314, 35.840 29.124, 33.225 27.379 C 31.726 26.379, 30.012 25.663, 29.417 25.786 C 28.821 25.910, 28.333 25.314, 28.333 24.463 C 28.333 23.457, 28.888 23.130, 29.917 23.531 C 30.788 23.870, 31.950 24.227, 32.500 24.324 C 33.050 24.421, 34.247 25.310, 35.160 26.300 C 36.073 27.289, 37.082 27.676, 37.402 27.159 C 38.123 25.992, 32.995 22.456, 31.150 22.848 C 30.407 23.005, 30.093 22.659, 30.452 22.078 C 30.862 21.415, 30.466 21.268, 29.388 21.681 C 28.273 22.109, 27.910 21.954, 28.352 21.239 C 28.726 20.634, 28.598 19.870, 28.067 19.541 C 27.504 19.193, 27.966 17.476, 29.174 15.429 C 30.315 13.496, 31.023 11.690, 30.749 11.416 C 30.475 11.141, 29.347 12.742, 28.244 14.973 C 27.140 17.203, 26.641 19.278, 27.135 19.583 C 28.208 20.247, 27.299 22, 25.882 22 C 25.332 22, 25.135 21.591, 25.443 21.092 C 25.752 20.592, 22.516 18.230, 18.252 15.842 C 7.914 10.051, 7.242 9.936, 15 15.283 M 32 11.430 C 32 11.705, 32.900 12.411, 34 13 C 35.100 13.589, 36 13.845, 36 13.570 C 36 13.295, 35.100 12.589, 34 12 C 32.900 11.411, 32 11.155, 32 11.430 M 37 14.376 C 37 14.610, 38.590 15.740, 40.532 16.887 L 44.064 18.971 41.234 21.735 C 39.677 23.256, 39.436 23.636, 40.698 22.579 C 43.578 20.169, 44.686 21.149, 43.146 24.746 C 42.050 27.307, 42.074 27.363, 43.491 25.549 C 45.032 23.575, 45.103 20.543, 43.661 18.243 C 42.871 16.982, 37 13.574, 37 14.376 M 37.946 31.750 L 34.500 35.500 38.250 32.054 C 41.740 28.846, 42.460 28, 41.696 28 C 41.529 28, 39.842 29.688, 37.946 31.750" stroke="none" fill="#555555" fill-rule="evenodd"/>
</svg>