<svg xmlns="http://www.w3.org/2000/svg" width="800" height="800" viewBox="0 0 800 800" version="1.1"><path d="M 513.417 214.285 C 512.272 214.953, 509.304 217.185, 506.822 219.243 C 504.340 221.302, 498.882 224.571, 494.692 226.507 C 490.224 228.571, 486.334 231.123, 485.287 232.677 C 482.441 236.898, 476.743 242.357, 473.287 244.174 C 471.349 245.193, 468.869 248.034, 466.950 251.435 C 465.058 254.787, 461.992 258.317, 459.286 260.261 C 456.067 262.572, 453.821 265.391, 451.449 270.101 C 449.621 273.732, 445.886 279.152, 443.149 282.146 C 440.413 285.141, 436.547 290.945, 434.558 295.045 C 432.350 299.599, 429.103 304.272, 426.216 307.052 C 422.659 310.479, 421.029 313.075, 419.626 317.552 C 417.016 325.879, 414.371 330.771, 409.609 336.081 C 406.727 339.294, 404.789 342.870, 403.119 348.058 C 400.722 355.505, 398.004 360.549, 392.912 367 C 390.245 370.379, 389.506 372.321, 385.117 387.500 C 383.820 391.986, 381.511 396.655, 378.686 400.500 C 376.263 403.800, 373.476 408.648, 372.495 411.274 C 370.194 417.429, 365.097 422, 360.533 422 C 358.665 422, 353.393 420.638, 348.818 418.973 C 341.870 416.445, 339.674 415.071, 335.485 410.633 C 331.152 406.043, 329.329 404.941, 322.081 402.527 C 315.322 400.276, 312.592 398.721, 308.024 394.522 C 304.012 390.833, 300.200 388.487, 294.981 386.493 C 289.740 384.490, 286.204 382.309, 282.759 378.954 C 279.063 375.354, 275.845 373.452, 269.206 370.947 C 262.442 368.395, 259.273 366.503, 255 362.464 C 251.917 359.551, 247.742 356.705, 245.500 355.991 C 237.508 353.443, 231.383 350.125, 225.765 345.300 C 222.086 342.140, 218.039 339.747, 214.477 338.624 C 211.053 337.545, 207.097 335.251, 204.155 332.637 C 197.945 327.122, 193.922 324.736, 186.076 321.915 C 181.288 320.194, 178.486 318.370, 175.076 314.755 C 171.007 310.442, 169.447 309.582, 161 306.997 C 155.775 305.397, 147.900 303.410, 143.500 302.580 C 139.100 301.750, 131.450 299.923, 126.500 298.519 C 121.550 297.115, 111.948 295.111, 105.162 294.066 C 86.120 291.133, 82.570 293.623, 91.832 303.416 C 95.222 307, 97.200 310.229, 98.459 314.232 C 99.716 318.227, 101.996 321.952, 106.060 326.652 C 109.891 331.082, 112.609 335.430, 114.049 339.433 C 116.695 346.783, 117.829 348.145, 124.390 351.861 C 127.201 353.453, 130.934 356.548, 132.686 358.739 C 135.152 361.824, 137.750 363.480, 144.186 366.073 C 150.401 368.578, 154.034 370.849, 158.576 375.074 C 162.709 378.917, 166.337 381.283, 169.920 382.473 C 173.508 383.665, 176.981 385.933, 180.816 389.589 C 184.976 393.555, 188.539 395.794, 194.472 398.173 C 200.723 400.680, 203.721 402.622, 208.017 406.946 C 211.897 410.852, 215.136 413.067, 218.933 414.410 C 222.204 415.567, 226.474 418.259, 229.762 421.238 C 233.022 424.190, 238.850 427.874, 244.346 430.457 C 250.679 433.434, 254.742 436.108, 257.529 439.135 C 260.461 442.318, 263.555 444.294, 268.882 446.384 C 273.280 448.109, 278.589 451.241, 282.172 454.223 C 285.454 456.954, 291.145 460.535, 294.819 462.182 C 298.893 464.007, 303.646 467.238, 307 470.461 C 311.093 474.395, 314.368 476.446, 319.800 478.480 C 326.892 481.135, 332.041 484.507, 334.894 488.365 C 335.661 489.402, 340.386 492.177, 345.394 494.532 C 351.277 497.299, 355.774 500.202, 358.099 502.734 C 360.658 505.521, 364.108 507.625, 370.036 510.015 C 376.212 512.504, 380.039 514.884, 384.788 519.188 C 388.316 522.385, 391.719 525, 392.351 525.001 C 394.968 525.003, 405.823 531.019, 410.157 534.869 C 412.718 537.144, 418.568 540.751, 423.157 542.884 C 428.333 545.290, 432.993 548.318, 435.431 550.859 C 438.623 554.185, 441.146 555.550, 448.836 558.112 C 456.802 560.766, 459.229 562.114, 464.097 566.589 C 468.435 570.577, 471.341 572.330, 475.693 573.583 C 483.901 575.947, 489.941 579.229, 494 583.530 C 498.628 588.434, 502.592 590, 510.378 590 C 517.245 590, 533.945 585.265, 537.079 582.429 C 537.983 581.610, 539.548 579.042, 540.557 576.720 C 543.658 569.588, 545.949 567.055, 552.115 563.942 C 557.311 561.319, 558.339 560.297, 560.380 555.723 C 563.113 549.600, 565.219 547.512, 570.508 545.681 C 574.657 544.244, 574.869 543.988, 577.890 536.771 C 579.603 532.677, 580.642 531.669, 585.619 529.271 C 588.782 527.747, 591.670 525.825, 592.038 525 C 595.576 517.068, 596.464 516, 601.777 513.303 C 606.298 511.006, 607.584 509.757, 608.897 506.386 C 611.022 500.931, 612.521 499.282, 617.785 496.607 C 621.239 494.851, 622.887 493.076, 625.350 488.458 C 627.851 483.769, 629.558 481.952, 633.637 479.637 C 636.771 477.858, 639.696 475.195, 641.137 472.809 C 647.308 462.591, 648.770 461.123, 654.399 459.486 C 661.786 457.339, 662.273 456.546, 661.435 448.041 C 660.840 442.001, 661.002 440.656, 662.523 438.974 C 664.947 436.297, 671.066 436.311, 673.500 439 C 674.495 440.100, 676.140 441, 677.155 441 C 679.675 441, 679.599 436.855, 677.050 435.263 C 673.024 432.749, 673.575 422.505, 677.948 418.547 C 678.978 417.615, 682.235 416.524, 685.186 416.124 C 688.137 415.723, 691.051 415.087, 691.662 414.709 C 693.583 413.522, 694.116 407.358, 692.878 400.641 C 690.930 390.071, 694.550 384.859, 702.670 386.541 C 706.924 387.422, 709.053 387.263, 710.401 385.965 C 712.134 384.297, 712.848 375.501, 711.791 368.835 C 710.808 362.628, 710.925 361.648, 713.505 354.574 C 716.708 345.793, 716.538 339.300, 712.944 333.140 C 710.906 329.647, 696.917 315.913, 690.669 311.272 C 689.020 310.046, 684.032 307.877, 679.585 306.451 C 674.231 304.735, 669.590 302.388, 665.845 299.504 C 659.013 294.244, 656.496 292.928, 647.778 290.064 C 643.236 288.572, 639.505 286.466, 636.278 283.573 C 630.985 278.829, 627.906 277.059, 619.435 273.890 C 615.831 272.541, 611.591 269.801, 608 266.500 C 604.409 263.199, 600.169 260.459, 596.565 259.110 C 588.182 255.974, 585.741 254.547, 579.664 249.229 C 576.126 246.132, 571.907 243.631, 567.747 242.162 C 563.199 240.557, 560.037 238.595, 556.982 235.482 C 553.797 232.236, 550.070 229.984, 542.840 226.932 C 535.747 223.939, 532.144 221.779, 529.857 219.145 C 525.778 214.447, 523.317 213.071, 519 213.071 C 517.075 213.071, 514.563 213.617, 513.417 214.285 M 692.217 356.673 C 691.511 356.957, 689.596 359.838, 687.961 363.077 C 685.674 367.607, 684.055 369.442, 680.940 371.031 C 678.713 372.167, 675.461 375.126, 673.712 377.606 C 671.964 380.086, 668.360 383.453, 665.703 385.088 C 663.046 386.722, 660.114 389.497, 659.186 391.253 C 657.435 394.570, 653.657 398.510, 647.644 403.290 C 645.327 405.131, 643.577 407.757, 642.495 411.015 C 641.065 415.320, 640.194 416.305, 635.678 418.725 C 630.713 421.386, 630.403 421.801, 628.147 428.822 C 625.990 435.538, 625.404 436.385, 621.081 439.045 C 615.674 442.372, 614.704 443.906, 612.016 453.386 C 609.868 460.962, 608.066 463.519, 603.520 465.445 C 598.808 467.441, 597.011 470.214, 595.957 477.116 C 594.351 487.629, 594.226 487.880, 588.947 491.127 C 583.502 494.478, 581.740 497.102, 579.905 504.599 C 578.117 511.899, 575.735 515.968, 570.116 521.321 C 565.129 526.070, 562.999 530.477, 563.021 536 C 563.035 539.604, 564.402 541.250, 567.383 541.250 C 570.973 541.250, 572.938 539.370, 575.579 533.408 C 577.604 528.838, 582.863 523, 584.957 523 C 585.398 523, 587.597 520.566, 589.844 517.591 C 592.090 514.616, 595.713 510.903, 597.895 509.341 C 600.078 507.778, 603.150 504.252, 604.722 501.504 C 606.625 498.177, 609.403 495.299, 613.034 492.890 C 617.566 489.884, 618.835 488.363, 620.539 483.898 C 622.332 479.199, 623.105 478.333, 626.695 477.007 C 632.399 474.900, 634.750 472.472, 636.258 467.134 C 637.222 463.723, 638.448 461.973, 641.027 460.328 C 648.286 455.697, 649.819 453.985, 651.508 448.613 C 653.256 443.058, 656.578 438.633, 661.348 435.508 C 664.574 433.394, 668.313 427.252, 670.114 421.109 C 671.173 417.495, 672.322 416.130, 676.612 413.385 C 681.321 410.373, 681.928 409.563, 682.912 404.977 C 683.510 402.185, 684 398.578, 684 396.961 C 684 394.837, 685.383 392.494, 688.984 388.518 C 694.627 382.287, 700.636 371.128, 701.602 365.087 C 702.705 358.189, 698.292 354.233, 692.217 356.673 M 458.325 452.459 C 453.581 454.523, 451.757 458.089, 451.240 466.310 C 450.848 472.542, 451.071 473.858, 452.914 476.183 C 455.629 479.610, 464.410 481.655, 470.901 480.372 C 477.429 479.081, 479.502 475.777, 479.494 466.673 C 479.488 458.327, 477.868 453.716, 474.385 452.130 C 471.011 450.592, 462.201 450.773, 458.325 452.459 M 549.166 548.596 C 547.459 549.792, 546.964 550.982, 547.194 553.346 C 547.471 556.205, 547.818 556.500, 550.892 556.500 C 555.369 556.500, 558.813 552.387, 557.067 549.125 C 555.713 546.596, 552.344 546.370, 549.166 548.596 M 511 564.984 C 502.475 565.316, 494.712 565.954, 493.750 566.401 C 489.771 568.249, 492.205 570.145, 503.611 574.081 C 519.822 579.675, 518.431 579.634, 527.896 574.794 C 537.176 570.048, 539.139 568.077, 537.070 565.584 C 536.165 564.494, 534.311 564.059, 531.128 564.190 C 528.582 564.294, 519.525 564.652, 511 564.984" stroke="none" fill="#444" fill-rule="evenodd"/></svg>