<svg xmlns="http://www.w3.org/2000/svg" width="800" height="800" viewBox="0 0 800 800" version="1.1"><path d="M 497.170 197.524 C 495.339 198.320, 491.739 200.825, 489.170 203.092 C 486.602 205.358, 481.489 208.732, 477.809 210.589 C 473.087 212.972, 470.048 215.369, 467.482 218.733 C 465.482 221.355, 461.549 224.919, 458.741 226.654 C 455.208 228.837, 452.671 231.454, 450.502 235.154 C 448.779 238.094, 445.516 241.850, 443.252 243.500 C 440.666 245.384, 437.825 248.918, 435.615 253 C 433.679 256.575, 429.619 262.318, 426.593 265.761 C 423.567 269.205, 419.700 274.938, 417.999 278.502 C 416.279 282.107, 412.775 287.092, 410.101 289.740 C 406.702 293.106, 404.772 296.111, 403.510 300 C 400.897 308.054, 398.517 312.351, 393.606 317.880 C 390.234 321.677, 388.500 324.997, 386.057 332.329 C 383.797 339.112, 381.797 343.092, 379.098 346.174 C 374.250 351.710, 373.236 353.689, 370.868 362.232 C 368.525 370.690, 366.825 374.174, 362.341 379.710 C 357.978 385.098, 356.532 388.641, 354.042 400.051 C 351.744 410.581, 350.318 413.267, 345.782 415.612 C 341.812 417.665, 328.631 417.942, 325 416.049 C 323.625 415.332, 320.614 412.622, 318.308 410.028 C 314.962 406.262, 312.612 404.762, 306.659 402.590 C 301.403 400.674, 297.390 398.302, 293.065 394.556 C 288.821 390.881, 284.703 388.427, 279.714 386.601 C 275.105 384.914, 270.945 382.519, 268.194 379.969 C 263.758 375.857, 258.625 372.968, 248.907 369.113 C 245.527 367.773, 241.584 365.133, 238.943 362.442 C 235.650 359.086, 232.523 357.216, 226.248 354.847 C 220.133 352.539, 216.367 350.317, 212.066 346.480 C 208.082 342.925, 203.916 340.379, 199.031 338.512 C 194.437 336.757, 189.874 334.037, 186.359 330.962 C 182.459 327.549, 178.191 325.118, 171.646 322.582 C 164.536 319.827, 161.413 317.978, 158 314.500 C 154.611 311.047, 151.573 309.238, 145.037 306.779 C 138.042 304.149, 135.597 302.627, 131.500 298.351 C 128.750 295.482, 125.241 292.657, 123.702 292.073 C 119.618 290.525, 114.962 292.834, 110.977 298.383 C 109.159 300.914, 106.572 303.706, 105.227 304.587 C 103.883 305.468, 101.290 309.409, 99.466 313.344 C 97.641 317.280, 94.485 322.075, 92.452 324 C 85.924 330.181, 83.301 339.085, 86.276 344.964 C 87.167 346.724, 89.894 348.352, 95.822 350.662 C 102.043 353.087, 105.587 355.254, 109.976 359.317 C 113.701 362.766, 117.755 365.423, 121.116 366.619 C 124.391 367.785, 128.516 370.455, 131.968 373.643 C 135.735 377.123, 140.114 379.868, 145.504 382.131 C 151.371 384.594, 154.835 386.849, 158.639 390.684 C 161.945 394.017, 166.252 397.001, 170.600 398.973 C 174.630 400.800, 179.062 403.794, 181.494 406.332 C 184.479 409.448, 187.894 411.534, 194.047 414.002 C 200.745 416.689, 203.645 418.545, 208.017 422.946 C 211.866 426.821, 215.142 429.069, 218.854 430.382 C 222.051 431.513, 226.635 434.414, 230.337 437.651 C 234.471 441.265, 239.114 444.102, 244.438 446.269 C 250.281 448.647, 253.713 450.834, 257.438 454.552 C 260.783 457.890, 264.535 460.407, 268.500 461.973 C 275.219 464.625, 278.534 466.688, 284.787 472.103 C 287.144 474.146, 292.094 477.015, 295.787 478.480 C 300.259 480.255, 304.169 482.761, 307.500 485.989 C 310.933 489.315, 314.934 491.845, 320.267 494.062 C 325.436 496.211, 330.166 499.166, 334.410 502.896 C 338.518 506.506, 343.038 509.360, 347.115 510.918 C 350.910 512.367, 355.269 515.043, 358.001 517.598 C 360.648 520.074, 366.528 523.721, 372.029 526.300 C 377.975 529.087, 382.803 532.136, 385 534.492 C 387.037 536.676, 391.843 539.813, 396.500 542 C 400.900 544.066, 407.286 548.016, 410.692 550.779 C 414.212 553.634, 419.175 556.550, 422.192 557.536 C 429.848 560.038, 432.900 561.753, 438.277 566.573 C 441.739 569.676, 445.570 571.754, 452.193 574.123 C 458.993 576.556, 462.710 578.599, 466.716 582.104 C 470.161 585.119, 475.032 587.997, 480.239 590.096 C 485.688 592.293, 489.451 594.553, 491.629 596.938 C 502.079 608.380, 502.794 609, 505.544 609 C 509.912 609, 516.154 604.702, 521.302 598.149 C 524.673 593.858, 527.603 591.363, 531.523 589.445 C 534.902 587.792, 538.608 584.857, 541.149 581.822 C 543.632 578.856, 547.519 575.754, 550.890 574.046 C 554.680 572.127, 557.530 569.737, 559.675 566.680 C 561.421 564.191, 565.081 560.652, 567.808 558.816 C 570.534 556.979, 574.541 553.231, 576.711 550.485 C 578.881 547.739, 582.323 544.370, 584.358 542.996 C 586.394 541.623, 589.456 538.343, 591.161 535.708 C 592.867 533.072, 596.247 529.550, 598.671 527.882 C 601.096 526.214, 604.694 522.418, 606.666 519.448 C 608.700 516.385, 612.277 512.747, 614.930 511.045 C 617.502 509.394, 620.601 506.276, 621.815 504.115 C 623.918 500.374, 627.608 496.752, 633.526 492.621 C 635.007 491.588, 637.129 488.549, 638.243 485.868 C 639.703 482.355, 641.623 480.022, 645.119 477.510 C 648.837 474.839, 650.633 472.560, 652.819 467.740 C 655.248 462.382, 656.295 461.171, 659.904 459.543 C 664.421 457.506, 666.405 454.687, 667.526 448.713 C 667.910 446.668, 669.186 444.134, 670.362 443.083 C 671.538 442.031, 674.351 439.561, 676.613 437.593 C 679.567 435.023, 681.370 432.249, 683.007 427.757 C 686.052 419.397, 687.385 417.550, 692.567 414.513 C 698.333 411.134, 699.245 409.165, 699.494 399.549 C 699.755 389.489, 700.925 386.589, 705.710 384.147 C 712.097 380.887, 713.504 378.622, 713.472 371.646 C 713.457 368.266, 713.059 360.752, 712.588 354.948 C 711.810 345.372, 711.921 343.967, 713.788 339.747 C 717.747 330.797, 717.156 327.084, 710.676 320.176 C 707.747 317.054, 704.361 313.065, 703.151 311.311 C 701.882 309.472, 698.586 307.003, 695.364 305.479 C 692.292 304.025, 687.915 301.133, 685.639 299.052 C 680.535 294.386, 677.497 292.814, 668.291 290.081 C 661.662 288.112, 658.768 286.353, 652.202 280.300 C 650.889 279.089, 647.494 277.337, 644.658 276.406 C 634.860 273.188, 628.651 269.948, 624.065 265.657 C 621.060 262.847, 616.921 260.380, 612.149 258.557 C 607.798 256.894, 602.339 253.745, 598.668 250.781 C 595.276 248.041, 588.900 244.103, 584.500 242.031 C 579.561 239.704, 575.064 236.715, 572.748 234.218 C 569.960 231.213, 566.784 229.317, 560.387 226.837 C 554.192 224.436, 550.153 222.061, 545.984 218.368 C 542.435 215.226, 537.793 212.319, 534.005 210.868 C 530.300 209.449, 525.380 206.395, 521.732 203.248 C 513.403 196.062, 505.030 194.111, 497.170 197.524 M 692.481 348.944 C 690.841 350.563, 686.800 353.389, 683.500 355.225 C 678.641 357.927, 677.024 359.505, 675 363.516 C 672.932 367.615, 671.566 368.916, 667.090 371.051 C 662.420 373.278, 661.326 374.374, 659.090 379.066 C 657.046 383.355, 655.626 384.921, 652.350 386.500 C 646.556 389.293, 644.491 391.416, 643.120 395.995 C 641.957 399.876, 641.092 400.761, 634.014 405.317 C 631.276 407.080, 629.988 409.044, 628.005 414.486 C 625.933 420.173, 624.677 422.019, 620.991 424.801 C 616.010 428.559, 613.963 431.701, 610.886 440.313 C 609.260 444.863, 607.907 446.757, 604.655 449.034 C 598.075 453.640, 597.478 454.523, 595.625 462.383 C 594.065 469.002, 593.327 470.343, 588.875 474.657 C 582.821 480.522, 581.582 482.739, 580.023 490.500 C 578.542 497.870, 577.046 500.315, 572.113 503.429 C 568.036 506.002, 566.221 509.459, 564.007 518.867 C 562.976 523.250, 561.599 525.448, 556.489 530.867 C 549.573 538.200, 544.671 547.960, 545.194 553.352 C 545.460 556.086, 545.922 556.541, 548.704 556.810 C 553.222 557.247, 555.476 555.724, 559.410 549.573 C 561.300 546.619, 564.893 542.794, 567.394 541.073 C 569.896 539.351, 573.322 535.939, 575.006 533.491 C 576.691 531.042, 579.903 527.567, 582.142 525.769 C 584.382 523.971, 587.307 520.347, 588.642 517.716 C 590.407 514.236, 592.583 511.962, 596.621 509.379 C 600.553 506.864, 602.600 504.757, 603.632 502.164 C 606.506 494.941, 607.261 494.074, 612.076 492.475 C 617.712 490.603, 618.295 489.995, 620.712 483.478 C 622.183 479.511, 623.564 477.841, 627.512 475.254 C 631.106 472.899, 633.218 470.521, 635.203 466.595 C 636.737 463.561, 639.870 459.601, 642.335 457.581 C 645.280 455.169, 648.280 451.093, 651.421 445.240 C 654.853 438.844, 657.377 435.522, 660.831 432.854 C 665.919 428.924, 666.858 427.492, 670.004 418.863 C 671.567 414.577, 672.974 412.621, 675.879 410.699 C 681.322 407.097, 684.366 399.836, 686.538 385.273 C 687.056 381.800, 688.033 380.322, 692.015 376.988 C 697.978 371.995, 700.517 366.065, 700.423 357.347 C 700.361 351.594, 698.283 346, 696.208 346 C 695.797 346, 694.120 347.325, 692.481 348.944 M 433.750 485.080 C 430.200 487.148, 432.632 494, 436.916 494 C 439.203 494, 442 490.903, 442 488.371 C 442 484.466, 437.729 482.763, 433.750 485.080 M 392.893 500.365 C 387.680 502.964, 388.233 515.267, 393.624 516.621 C 397.139 517.503, 398.919 516.438, 400.581 512.461 C 403.844 504.652, 399.141 497.252, 392.893 500.365 M 417.455 515.455 C 415.588 517.321, 415 518.969, 415 522.332 C 415 527.729, 416.366 529.013, 420.821 527.806 C 426.559 526.251, 428.755 516.545, 423.951 513.974 C 421.225 512.515, 420.149 512.760, 417.455 515.455 M 535.750 563.082 C 533.258 564.530, 533.359 570, 535.878 570 C 538.391 570, 540.228 567.620, 539.827 564.883 C 539.440 562.251, 538.156 561.683, 535.750 563.082" stroke="none" fill="#444" fill-rule="evenodd"/></svg>