<svg xmlns="http://www.w3.org/2000/svg" width="1000" height="1000" viewBox="0 0 1000 1000" version="1.1"><path d="M 606.808 308.153 C 601.328 310.138, 599.338 322.289, 603.463 328.584 C 609.153 337.268, 618 330.880, 618 318.088 C 618 310.376, 612.978 305.918, 606.808 308.153 M 653.907 346.325 C 649.762 348.511, 649.482 348.927, 649.196 353.316 C 648.942 357.198, 649.313 358.404, 651.400 360.491 C 656.102 365.193, 668.771 363.033, 672.013 356.976 C 672.556 355.962, 673 353.560, 673 351.638 C 673 344.270, 663.051 341.502, 653.907 346.325 M 705.135 388.689 C 700.249 392.646, 701.640 404.752, 707.416 408.537 C 709.844 410.128, 710.156 410.128, 712.584 408.537 C 715.851 406.397, 718 401.312, 718 395.723 C 718 390.099, 716.354 387.991, 711.449 387.333 C 708.464 386.933, 706.886 387.272, 705.135 388.689 M 513.500 414.945 C 509.690 416.505, 507.677 419.855, 507.217 425.401 C 506.844 429.896, 507.116 431.116, 508.886 432.886 C 511.472 435.472, 517.232 435.691, 522.910 433.419 C 531.404 430.021, 529.865 419.455, 520.282 415.371 C 516.657 413.826, 516.290 413.803, 513.500 414.945 M 566.121 448.390 C 559.893 451.842, 559.412 463.527, 565.241 469.750 C 570.727 475.606, 578 468.543, 578 457.358 C 578 453.705, 577.444 452.290, 575.077 449.923 C 571.886 446.732, 569.766 446.369, 566.121 448.390 M 610.712 493.391 C 607.761 496.126, 606.503 501.260, 607.310 507.278 C 607.997 512.399, 610.054 514, 615.941 513.998 C 622.408 513.996, 627.132 511.346, 628.861 506.750 C 630.113 503.420, 630.078 502.493, 628.545 498.478 C 626.553 493.263, 623.118 491, 617.196 491 C 614.465 491, 612.517 491.719, 610.712 493.391" stroke="none" fill="#444" fill-rule="evenodd"/></svg>