<svg xmlns="http://www.w3.org/2000/svg" width="1000" height="1000" viewBox="0 0 1000 1000" version="1.1"><path d="M 643.558 266.492 C 641.390 267.265, 638.465 268.832, 637.058 269.976 C 631.882 274.183, 621.323 280.796, 615 283.790 C 609.873 286.218, 607.440 288.201, 603.480 293.184 C 600.494 296.940, 596.580 300.518, 593.822 302.012 C 587.550 305.408, 585.199 307.687, 582.485 313 C 580.133 317.605, 577.371 320.512, 570.732 325.372 C 568.218 327.212, 565.783 330.519, 563.417 335.305 C 559.531 343.168, 557.012 346.749, 549.619 354.917 C 546.841 357.987, 543.087 363.837, 540.958 368.417 C 538.206 374.335, 535.732 377.881, 531.719 381.655 C 527.988 385.165, 525.683 388.357, 524.499 391.655 C 518.018 409.714, 517.718 410.299, 511.360 417.227 C 506.402 422.630, 504.660 425.383, 503.394 429.821 C 500.639 439.478, 497.826 445.291, 493.296 450.695 C 488.179 456.797, 484.409 464.572, 483.023 471.878 C 481.221 481.382, 477.258 491.065, 473.203 495.874 C 468.921 500.952, 465.961 506.307, 464.012 512.500 C 461.167 521.536, 454.695 526.687, 447.609 525.553 C 440.471 524.412, 425.967 516.768, 421.121 511.593 C 416.180 506.318, 414.054 505.050, 405.096 502.032 C 397.643 499.522, 395.320 498.160, 388 492.014 C 381.671 486.699, 375.878 483, 373.882 482.999 C 370.657 482.997, 359.192 476.565, 355.517 472.694 C 350.881 467.812, 348.852 466.665, 335.839 461.569 C 327.558 458.326, 325.377 456.957, 320.571 451.989 C 315.780 447.035, 313.600 445.664, 305.575 442.555 C 296.122 438.892, 291.140 435.854, 283.177 428.896 C 280.796 426.816, 275.629 423.895, 271.677 422.395 C 262.596 418.949, 260.436 417.635, 255.500 412.553 C 251.396 408.327, 245.776 405.220, 233.500 400.391 C 228.409 398.388, 225 396.162, 221 392.226 C 217.975 389.250, 214.375 386.234, 213 385.523 C 209.377 383.649, 192.593 379.231, 182.336 377.450 C 177.476 376.607, 167.200 374.304, 159.500 372.333 C 142.877 368.079, 138.055 367.213, 127.696 366.618 C 112.775 365.762, 108.757 368.950, 115.540 376.262 C 118.567 379.524, 122.976 388.608, 122.990 391.610 C 123.003 394.465, 127.348 400.674, 132.512 405.219 C 135.492 407.842, 137.574 410.972, 139.502 415.728 C 146.197 432.235, 147.488 434.192, 154.736 438.813 C 158.456 441.185, 163.183 445.250, 165.239 447.846 C 168.984 452.574, 172.467 454.700, 186 460.523 C 190.159 462.312, 194.146 465.017, 197.070 468.033 C 201.679 472.788, 209.008 478, 211.085 478 C 213.758 478, 222.897 483.505, 227.500 487.889 C 233.690 493.783, 236.016 495.233, 246.315 499.612 C 252.944 502.429, 255.649 504.290, 260.542 509.396 C 265.073 514.124, 268.010 516.234, 272.286 517.834 C 279.362 520.482, 284.221 523.514, 290.013 528.895 C 292.558 531.260, 299.261 535.389, 305.500 538.434 C 314.369 542.763, 317.566 544.941, 322 549.677 C 326.397 554.374, 328.803 556.023, 334 557.902 C 342.392 560.937, 347.028 563.718, 354.885 570.430 C 359.177 574.096, 363.930 576.954, 369.385 579.149 C 375.565 581.636, 379.050 583.858, 384 588.469 C 387.575 591.799, 392.525 595.370, 395 596.406 C 409.151 602.327, 412.826 604.423, 418 609.521 C 422.227 613.687, 425.655 615.862, 432.812 618.920 C 439.484 621.772, 443.764 624.403, 447.907 628.200 C 453.766 633.569, 456.864 635.402, 469.549 641 C 474.781 643.309, 477.488 645.247, 480.049 648.516 C 483.446 652.853, 486.647 654.828, 500 660.828 C 503.590 662.441, 509.605 666.462, 513.435 669.809 C 518.548 674.277, 522.751 676.855, 529.435 679.625 C 536.266 682.456, 539.629 684.541, 543.082 688.085 C 548.217 693.356, 552.827 695.977, 561.195 698.385 C 570.953 701.193, 575.296 703.606, 581.500 709.667 C 585.617 713.689, 588.912 715.953, 592 716.883 C 604.526 720.653, 611.761 724.190, 616.823 729.018 C 623.727 735.602, 624.976 736.319, 635.807 739.912 C 648.272 744.048, 652.026 743.934, 661.881 739.117 C 672.063 734.142, 673.240 733.283, 677.477 727.734 C 679.932 724.519, 682.961 722.160, 687.511 719.920 C 693.693 716.877, 698.725 712.402, 702.579 706.520 C 703.532 705.066, 706.604 702.730, 709.406 701.329 C 712.324 699.870, 717.949 695.304, 722.573 690.641 C 727.014 686.163, 732.783 680.754, 735.393 678.619 C 738.004 676.485, 741.235 673.004, 742.574 670.883 C 743.912 668.763, 747.818 664.802, 751.254 662.082 C 754.689 659.362, 759.236 654.518, 761.359 651.318 C 763.518 648.062, 767.846 643.518, 771.185 641 C 774.923 638.182, 778.460 634.350, 780.651 630.747 C 782.760 627.277, 786.004 623.717, 788.824 621.778 C 794.786 617.677, 797.454 614.773, 800.640 608.920 C 802.319 605.835, 805.311 602.699, 809.349 599.789 C 813.982 596.451, 816.240 593.932, 818.500 589.579 C 820.150 586.401, 823.300 582.250, 825.500 580.355 C 833.885 573.131, 835.168 571.614, 838.274 565.244 C 840.089 561.521, 844.463 555.409, 848.399 551.095 C 853.394 545.620, 856.510 540.988, 859.562 534.500 C 862.617 528.005, 865.427 523.830, 869.657 519.500 C 873.349 515.720, 875.966 512.020, 876.729 509.500 C 877.394 507.300, 879.109 501.450, 880.538 496.500 C 881.973 491.531, 885.295 483.693, 887.954 479 C 893.940 468.437, 896.053 460.131, 896.163 446.732 C 896.282 432.333, 894.889 426.980, 889.665 421.756 C 888.386 420.477, 885.442 416.182, 883.123 412.211 C 878.481 404.262, 876.455 402.022, 870.500 398.253 C 868.300 396.861, 864.433 393.808, 861.907 391.468 C 856.208 386.189, 853.982 385.033, 841.629 380.939 C 834.526 378.585, 830.370 376.523, 826.804 373.584 C 820.004 367.980, 811.968 363, 809.725 363 C 805.455 363, 793.270 356.817, 787.337 351.640 C 781.202 346.287, 776.933 343.876, 767.603 340.496 C 764.548 339.390, 760.137 336.365, 755.881 332.459 C 750.698 327.703, 747.306 325.536, 741.778 323.451 C 729.873 318.961, 726.777 317.114, 721 311.052 C 717.138 307, 714.011 304.751, 710.500 303.502 C 700.825 300.058, 695.461 297.266, 691.500 293.613 C 685.100 287.709, 680.032 284.479, 671.784 281.050 C 664.578 278.054, 658 272.740, 658 269.916 C 658 268.905, 650.399 265.024, 648.500 265.066 C 647.950 265.078, 645.726 265.720, 643.558 266.492 M 865 442.653 C 862.326 443.725, 859.144 447.165, 855.946 452.442 C 852.805 457.624, 849.828 459.938, 839 465.612 C 832.970 468.772, 829.847 471.552, 825.917 477.257 C 824.497 479.319, 819.322 485.187, 814.417 490.296 C 809.061 495.876, 804.345 501.884, 802.607 505.340 C 798.845 512.823, 796.533 515.682, 792.662 517.637 C 787.384 520.303, 785.182 522.982, 782.500 530 C 779.662 537.428, 777.323 540.131, 771.706 542.478 C 767.288 544.324, 764.497 548.457, 763.021 555.338 C 761.379 562.993, 759.435 566.208, 752.439 572.833 C 745.588 579.322, 744.613 581.019, 742.374 590.368 C 740.597 597.787, 738.078 601.321, 732.629 604.043 C 726.906 606.901, 725.347 609.866, 723.485 621.438 C 721.693 632.573, 719.751 636.208, 713.281 640.537 C 707.936 644.113, 706.368 647.028, 701.632 662.189 C 697.890 674.166, 696.215 676.586, 690.426 678.380 C 686.437 679.616, 683.140 684.299, 681.595 690.922 C 680.773 694.445, 679.516 697.851, 678.800 698.490 C 678.085 699.129, 670.975 700.428, 663 701.377 C 651.528 702.742, 646.691 702.894, 639.839 702.106 C 634.141 701.451, 627.812 701.445, 621.339 702.089 C 609.995 703.218, 606.500 704.989, 606.500 709.608 C 606.500 712.040, 607.215 712.853, 611 714.719 C 613.475 715.939, 619.775 718.098, 625 719.516 C 630.225 720.935, 636.075 723.212, 638 724.576 C 639.925 725.941, 643.029 728.169, 644.898 729.528 C 646.767 730.888, 648.923 732, 649.691 732 C 650.458 732, 653.242 729.983, 655.877 727.518 C 658.512 725.053, 663.330 721.888, 666.584 720.485 C 669.838 719.081, 673.482 717.438, 674.681 716.834 C 676.696 715.819, 679.305 711.451, 681.875 704.789 C 682.697 702.661, 684.094 701.738, 688.386 700.490 C 695.772 698.343, 699.820 695.419, 703.993 689.218 C 705.922 686.351, 709.525 682.720, 712 681.150 C 716.566 678.252, 717.748 677.102, 731.668 662.005 C 735.975 657.332, 744.450 648.484, 750.500 642.342 C 756.550 636.199, 763.300 629.222, 765.501 626.837 C 767.701 624.452, 771.095 621.150, 773.044 619.500 C 774.992 617.850, 778.360 613.868, 780.528 610.651 C 782.695 607.435, 785.825 603.875, 787.484 602.740 C 793.089 598.908, 796.130 595.523, 799.293 589.596 C 801.657 585.166, 803.726 582.871, 807.585 580.403 C 812.981 576.951, 818 571.732, 818 569.574 C 818 566.902, 823.749 559.911, 828.339 557 C 832.155 554.580, 833.631 552.799, 835.604 548.232 C 840.407 537.117, 842.361 533.887, 847.711 528.222 C 853.730 521.848, 857.108 515.926, 858.904 508.599 C 860.613 501.626, 862.701 498.030, 867.495 493.802 C 869.879 491.700, 872.389 488.248, 873.311 485.802 C 875.683 479.512, 879.989 458.255, 879.995 452.806 C 880.002 446.334, 877.049 442.939, 870.967 442.428 C 868.510 442.221, 865.825 442.323, 865 442.653 M 571.836 561.944 C 565.858 563.108, 563.239 565.457, 561.540 571.179 C 559.277 578.797, 559.496 591.661, 561.956 595.696 C 565.481 601.477, 568.186 602.500, 579.955 602.500 C 592.366 602.500, 595.878 601.120, 598.990 595.019 C 602.702 587.744, 601.099 571.331, 596.145 565.894 C 592.306 561.680, 581.885 559.986, 571.836 561.944" stroke="none" fill="#444" fill-rule="evenodd"/></svg>