<svg xmlns="http://www.w3.org/2000/svg" width="800" height="800" viewBox="0 0 800 800" version="1.1"><path d="M 516.275 211.971 C 512.292 212.917, 508.561 215.284, 504 219.757 C 502.075 221.645, 497.281 224.736, 493.348 226.627 C 487.724 229.329, 485.578 231.013, 483.306 234.506 C 481.716 236.949, 477.988 240.647, 475.020 242.724 C 471.461 245.214, 468.514 248.401, 466.366 252.081 C 464.483 255.307, 461.427 258.775, 459.126 260.298 C 456.320 262.155, 454.033 265.049, 451.380 270.096 C 449.310 274.035, 445.441 279.639, 442.783 282.548 C 440.124 285.457, 436.561 290.911, 434.865 294.668 C 433.019 298.760, 429.685 303.708, 426.554 307.005 C 422.503 311.271, 420.809 314.083, 419.027 319.505 C 415.948 328.871, 414.451 331.668, 409.604 337.103 C 407.020 340, 404.492 344.446, 402.778 349.103 C 401.281 353.171, 397.777 360.100, 394.992 364.500 C 392.206 368.900, 389.241 374.975, 388.402 378 C 384.085 393.570, 382.712 397.224, 379.689 401.185 C 377.878 403.558, 375.070 407.937, 373.448 410.916 C 369.833 417.560, 366.131 419.991, 359.623 419.996 C 353.914 420.001, 343.217 415.218, 339.705 411.090 C 335.937 406.662, 332.125 404.205, 325.696 402.060 C 322.288 400.923, 318.150 398.741, 316.500 397.211 C 310.865 391.986, 306.501 389.277, 299.163 386.446 C 293.694 384.336, 290.655 382.395, 287.230 378.821 C 284.445 375.915, 280.836 373.376, 278.068 372.374 C 268.243 368.821, 263.193 366.112, 258.312 361.777 C 255.123 358.944, 250.563 356.244, 246.075 354.529 C 241.597 352.817, 236.787 349.970, 233.211 346.914 C 229.611 343.838, 224.543 340.845, 219.500 338.817 C 213.788 336.521, 210.037 334.195, 206.384 330.686 C 202.467 326.923, 199.259 325.015, 192.703 322.549 C 186.286 320.135, 182.745 318.054, 178.583 314.250 C 174.487 310.507, 171.250 308.586, 166.264 306.941 C 162.544 305.714, 157.025 303.621, 154 302.289 C 137.117 294.855, 96.873 289.541, 91.463 294.031 C 89.244 295.872, 89.655 297.365, 93.750 302.326 C 95.813 304.825, 98.327 309.208, 99.337 312.065 C 100.574 315.561, 102.880 318.952, 106.387 322.431 C 110.611 326.621, 112.131 329.110, 114.402 335.551 C 117.689 344.873, 118.864 346.387, 125.383 349.692 C 128.068 351.054, 132.343 354.075, 134.883 356.404 C 141.242 362.239, 144.764 364.545, 151.082 367.013 C 154.314 368.275, 158.517 371.088, 161.500 373.986 C 164.698 377.093, 169.563 380.273, 175 382.810 C 179.886 385.090, 185.349 388.564, 187.849 390.980 C 190.328 393.375, 195.703 396.802, 200.349 398.949 C 206.228 401.666, 209.401 403.847, 211.731 406.776 C 214.243 409.932, 216.793 411.579, 223.175 414.168 C 228.944 416.509, 233.040 419.021, 236.943 422.613 C 240.188 425.599, 245.653 429.179, 250.079 431.219 C 255.017 433.494, 258.445 435.816, 259.914 437.879 C 262.325 441.265, 266.475 443.709, 275.625 447.133 C 279.405 448.547, 283.429 451.213, 287.498 454.998 C 291.701 458.908, 295.320 461.278, 298.910 462.470 C 302.268 463.585, 306.319 466.136, 310.124 469.532 C 314.060 473.044, 318.696 475.929, 323.790 478.037 C 329.484 480.393, 333.112 482.766, 337.663 487.114 C 341.053 490.351, 344.428 493, 345.163 493.001 C 347.948 493.002, 358.709 498.854, 363.409 502.921 C 366.100 505.251, 371.947 508.862, 376.401 510.947 C 381.431 513.301, 385.907 516.255, 388.214 518.742 C 390.854 521.588, 394.307 523.705, 400.152 526.061 C 406.098 528.458, 410.075 530.916, 414.514 534.938 C 419.240 539.220, 422.247 541.018, 427.577 542.750 C 432.412 544.321, 436.518 546.628, 441.189 550.397 C 446.098 554.358, 449.999 556.501, 455.840 558.447 C 461.797 560.430, 465.198 562.321, 469.351 565.955 C 473.302 569.413, 477.406 571.757, 483.593 574.092 C 490.609 576.741, 493.279 578.376, 497.452 582.583 C 501.882 587.048, 503.818 588.171, 510.989 590.437 C 525.148 594.909, 527.569 593.130, 531.011 575.722 C 531.863 571.411, 533.145 568.798, 536.061 565.429 C 538.572 562.528, 540.535 558.874, 541.551 555.207 C 544.101 546.005, 545.117 543.983, 549.987 538.417 C 553.287 534.646, 555.402 530.849, 557.399 525.113 C 560.221 517.007, 565.198 508, 566.855 508 C 567.985 508, 572.052 499.680, 575.437 490.446 C 577.395 485.105, 579.174 482.302, 582.762 478.906 C 586.058 475.784, 588.078 472.759, 589.401 468.960 C 592.320 460.577, 594.612 456.504, 599.518 450.979 C 601.995 448.191, 605.290 443.117, 606.840 439.705 C 608.761 435.478, 611.099 432.324, 614.175 429.810 C 617.176 427.357, 619.714 423.976, 621.744 419.726 C 623.424 416.209, 627.228 410.669, 630.196 407.416 C 633.165 404.162, 637.344 399.025, 639.484 396 C 641.623 392.975, 646.327 387.548, 649.937 383.941 C 653.546 380.333, 657.574 375.912, 658.888 374.116 C 660.201 372.321, 663.053 369.729, 665.225 368.358 C 667.398 366.986, 672.174 362.855, 675.838 359.177 C 684.938 350.043, 692.961 346, 701.985 346 C 709.253 346, 710.298 345.385, 713.379 339.300 C 715.307 335.493, 715.500 329.003, 713.750 326.830 C 713.063 325.977, 710.376 323.853, 707.780 322.112 C 705.184 320.370, 701.845 317.353, 700.361 315.407 C 697.369 311.484, 693.065 308.981, 685.407 306.711 C 678.108 304.547, 673.004 301.699, 669.055 297.589 C 666.365 294.789, 663.436 293.290, 655.692 290.752 C 647.556 288.085, 644.719 286.587, 639.898 282.412 C 636.617 279.570, 632.141 276.761, 629.761 276.049 C 622.948 274.012, 616.593 270.417, 610.722 265.280 C 607.300 262.286, 603.085 259.762, 599.442 258.524 C 595.439 257.164, 591.856 254.910, 587.951 251.294 C 583.684 247.344, 580.207 245.250, 573.936 242.855 C 567.395 240.358, 564.242 238.411, 559.323 233.835 C 555.873 230.626, 552.606 228, 552.063 228 C 548.314 228, 538.981 223.079, 533.939 218.444 C 529.149 214.040, 522.616 210.602, 520 211.108 C 519.725 211.161, 518.049 211.550, 516.275 211.971 M 458.331 451.937 C 453.271 454.234, 452.164 456.133, 451.351 463.913 C 450.227 474.668, 453.217 478.071, 465 479.447 C 469.263 479.945, 471.284 479.686, 473.986 478.295 C 478.739 475.848, 479.968 472.852, 479.985 463.673 C 479.999 456.346, 479.813 455.659, 477.077 452.923 C 474.508 450.354, 473.449 450.003, 468.327 450.022 C 464.788 450.035, 460.863 450.787, 458.331 451.937" stroke="none" fill="#444" fill-rule="evenodd"/></svg>