<svg xmlns="http://www.w3.org/2000/svg" width="50" height="50" viewBox="0 0 50 50" version="1.1">
	<path d="M 28.801 15.750 C 27.386 17.262, 25.445 20.075, 24.487 22 C 23.529 23.925, 22.625 25.640, 22.478 25.811 C 22.331 25.982, 18.915 24.072, 14.887 21.565 C 8.439 17.552, 7.388 17.183, 6.091 18.480 C 5.282 19.290, 4.817 20.118, 5.060 20.321 C 5.302 20.524, 8.200 22.498, 11.500 24.708 C 23.469 32.722, 30.893 36.884, 32.943 36.729 C 34.094 36.643, 36.266 35.206, 37.768 33.536 L 40.500 30.500 37.250 33.437 C 33.599 36.736, 33.250 36.357, 35.648 31.700 C 38.207 26.731, 42.095 22, 43.619 22 C 46.453 22, 44.822 20.127, 38.928 16.617 C 35.589 14.628, 32.523 13, 32.115 13 C 31.708 13, 30.216 14.238, 28.801 15.750 M 42.224 26.792 L 39.947 30.500 42.474 27.694 C 43.863 26.151, 45 24.464, 45 23.944 C 45 22.474, 44.663 22.820, 42.224 26.792 M 28 29 C 28 29.550, 28.450 30, 29 30 C 29.550 30, 30 29.550, 30 29 C 30 28.450, 29.550 28, 29 28 C 28.450 28, 28 28.450, 28 29" stroke="none" fill="#555555" fill-rule="evenodd"/>
</svg>