<svg xmlns="http://www.w3.org/2000/svg" width="800" height="800" viewBox="0 0 800 800" version="1.1"><path d="M 493.705 197.442 C 491.617 198.186, 487.547 201.029, 484.660 203.760 C 481.773 206.491, 477.319 209.650, 474.762 210.781 C 471.546 212.204, 469 214.387, 466.499 217.868 C 464.511 220.635, 460.731 224.225, 458.098 225.845 C 454.865 227.834, 452.369 230.453, 450.406 233.915 C 448.747 236.840, 445.354 240.656, 442.500 242.805 C 439.170 245.313, 436.581 248.395, 434.749 252.035 C 433.235 255.041, 429.932 259.438, 427.407 261.808 C 424.245 264.776, 421.601 268.749, 418.905 274.583 C 416.067 280.726, 413.513 284.486, 409.601 288.276 C 405.686 292.069, 403.878 294.731, 403 297.994 C 401.272 304.419, 398.760 308.946, 393.513 315.094 C 389.971 319.243, 388.332 322.402, 386.351 328.897 C 384.375 335.374, 382.818 338.379, 379.610 341.910 C 373.224 348.938, 373.161 349.060, 370.598 359.405 C 369.089 365.498, 367.136 370.606, 365.348 373.136 C 358.615 382.665, 356.019 387.609, 354.980 392.883 C 351.614 409.966, 349.535 413.332, 341.291 415.043 C 332.002 416.972, 327.377 415.801, 321.519 410.036 C 318.022 406.595, 314.291 404.202, 309.215 402.144 C 305.012 400.439, 300.082 397.487, 297.564 395.166 C 292.725 390.705, 287.714 387.884, 281.140 385.920 C 278.408 385.104, 274.434 382.492, 270.500 378.927 C 265.829 374.693, 262.565 372.686, 257.752 371.084 C 250.891 368.801, 242 363.706, 242 362.058 C 242 360.429, 234.998 356.185, 229.411 354.428 C 226.137 353.398, 221.511 350.609, 217.061 346.982 C 212.103 342.941, 207.635 340.340, 202.324 338.403 C 196.734 336.364, 193.343 334.338, 189.601 330.799 C 185.825 327.227, 182.348 325.160, 176.211 322.839 C 170.142 320.545, 166.353 318.305, 162.066 314.480 C 158.088 310.931, 153.916 308.378, 149.055 306.521 C 142.241 303.917, 139.290 301.998, 132.500 295.753 C 127.850 291.477, 121.922 289.541, 117.723 290.927 C 112.871 292.528, 101.931 304.990, 98.249 313.111 C 96.254 317.511, 93.990 320.632, 91.177 322.860 C 86.025 326.940, 84.315 331.743, 85.908 337.659 C 87.636 344.074, 90.151 346.363, 99.920 350.412 C 107.074 353.378, 109.629 355.007, 112.181 358.228 C 114.481 361.133, 117.565 363.280, 122.952 365.729 C 127.103 367.616, 133.020 371.346, 136.099 374.018 C 139.179 376.689, 145.479 380.675, 150.099 382.875 C 156.217 385.788, 159.513 388.092, 162.229 391.353 C 164.542 394.130, 167.391 396.294, 169.729 397.051 C 176.094 399.110, 180.722 401.813, 186.175 406.656 C 189.049 409.208, 194.701 412.800, 198.734 414.638 C 203.797 416.946, 207.464 419.495, 210.573 422.870 C 213.929 426.514, 216.660 428.333, 221.288 430.010 C 228.204 432.515, 231.315 434.453, 238.181 440.535 C 240.834 442.885, 245.517 445.650, 248.990 446.916 C 253.426 448.534, 256.377 450.485, 259.681 453.986 C 262.449 456.919, 266.067 459.505, 268.873 460.558 C 277.580 463.823, 284.500 467.863, 288.148 471.810 C 290.529 474.387, 293.950 476.581, 298.001 478.129 C 301.661 479.527, 306.522 482.520, 309.853 485.425 C 312.989 488.160, 319.280 492.095, 324 494.274 C 329.699 496.905, 334.370 499.978, 338.176 503.599 C 341.297 506.570, 344.447 509, 345.176 509.001 C 347.949 509.002, 358.719 514.862, 363.409 518.921 C 366.100 521.251, 371.947 524.854, 376.401 526.928 C 381.683 529.387, 385.728 532.086, 388.029 534.685 C 390.595 537.583, 393.828 539.599, 399.877 542.072 C 405.415 544.336, 410.213 547.220, 414.230 550.699 C 418.518 554.413, 422.180 556.554, 426.882 558.099 C 435.572 560.953, 437.633 562.047, 443.542 566.947 C 446.454 569.361, 451.886 572.348, 456.706 574.184 C 461.455 575.993, 466.932 578.993, 469.706 581.303 C 472.343 583.498, 477.425 586.607, 481 588.211 C 492.676 593.449, 493.880 594.221, 496.454 598.109 C 501.791 606.175, 507.800 606.947, 514.064 600.373 C 515.954 598.390, 521.550 594.073, 526.500 590.780 C 531.450 587.487, 537.345 582.876, 539.601 580.534 C 541.856 578.193, 546.356 574.829, 549.601 573.061 C 553.148 571.128, 556.709 568.182, 558.533 565.673 C 560.202 563.378, 563.802 560.297, 566.533 558.827 C 569.399 557.284, 572.802 554.323, 574.578 551.827 C 576.270 549.447, 580.164 545.589, 583.231 543.253 C 586.298 540.917, 589.962 537.035, 591.373 534.626 C 592.911 532.003, 595.975 528.941, 599.018 526.988 C 601.897 525.141, 604.933 522.163, 606.026 520.114 C 608.721 515.065, 609.856 513.833, 615.138 510.225 C 618.032 508.249, 620.904 505.059, 622.774 501.746 C 624.730 498.280, 627.327 495.451, 630.245 493.607 C 633.080 491.815, 635.785 488.909, 637.632 485.673 C 639.236 482.864, 642.562 479.056, 645.024 477.210 C 647.639 475.249, 650.869 471.425, 652.793 468.012 C 654.604 464.799, 658.105 460.516, 660.573 458.494 C 663.764 455.879, 666.091 452.643, 668.633 447.288 C 671.052 442.189, 673.931 438.104, 677.552 434.630 C 681.140 431.188, 683.862 427.339, 685.826 422.932 C 687.853 418.383, 690.027 415.355, 692.894 413.084 C 698.134 408.934, 698.969 407.318, 700.098 399.148 C 701.355 390.052, 702.585 387.320, 708.090 381.398 C 713.746 375.314, 714.659 371.282, 712.932 360 C 710.605 344.798, 710.630 343.663, 713.413 338.172 C 717.619 329.872, 717.024 326.626, 709.622 317.500 C 702.618 308.865, 699.609 305.881, 696 303.996 C 694.075 302.990, 690.115 300.117, 687.201 297.611 C 683.293 294.252, 680.011 292.494, 674.701 290.917 C 665.495 288.183, 662.764 286.745, 657.417 281.817 C 654.223 278.873, 650.762 277.035, 644.432 274.922 C 634.746 271.688, 630.833 269.533, 626.588 265.096 C 624.986 263.421, 620.261 260.631, 616.088 258.895 C 611.348 256.923, 606.578 253.982, 603.378 251.060 C 599.933 247.913, 595.309 245.145, 589.253 242.606 C 582.808 239.904, 579.032 237.590, 575.963 234.463 C 572.965 231.408, 569.327 229.147, 563.862 226.944 C 559.565 225.212, 554.125 222.129, 551.774 220.092 C 545.156 214.360, 541.808 212.273, 535.410 209.893 C 531.369 208.390, 528.031 206.186, 524.854 202.923 C 521.970 199.961, 518.747 197.746, 516.354 197.081 C 511.034 195.604, 498.288 195.807, 493.705 197.442 M 690.649 347.334 C 688.179 351.196, 685.992 353.253, 682.727 354.788 C 678.189 356.922, 675.909 359.237, 672.829 364.845 C 671.838 366.649, 669.097 368.931, 666.090 370.454 C 662.061 372.496, 660.506 374.042, 658.500 378 C 656.494 381.959, 654.940 383.504, 650.907 385.547 C 646.723 387.667, 645.492 388.938, 643.873 392.808 C 640.829 400.086, 640.640 400.312, 634.902 403.530 C 629.829 406.376, 629.374 406.954, 627.435 413.030 C 625.779 418.219, 624.691 419.930, 621.935 421.670 C 616.114 425.348, 614.259 427.862, 612.458 434.515 C 610.171 442.965, 607.899 446.501, 603.222 448.887 C 597.977 451.562, 597.144 452.794, 595.965 459.613 C 595.405 462.851, 594.735 466.473, 594.476 467.662 C 594.207 468.902, 591.844 471.155, 588.939 472.942 C 583.405 476.347, 581.825 479.060, 580.170 488 C 578.518 496.916, 577.571 498.511, 572.515 500.888 C 567.272 503.352, 565.681 506.162, 564.574 514.906 C 563.680 521.966, 562.081 524.877, 556.198 530.149 C 553.529 532.542, 550.127 536.630, 548.640 539.233 C 547.152 541.836, 544.266 545.211, 542.226 546.733 C 540.186 548.255, 536.038 552.042, 533.008 555.149 C 529.979 558.256, 526.415 561.348, 525.089 562.020 C 522.051 563.561, 512.095 565.764, 500.684 567.423 C 488.834 569.145, 488.185 569.913, 492.142 577.520 C 496.184 585.290, 497.576 586.793, 501.952 588.104 C 507.399 589.736, 512.679 587.884, 519.438 581.969 C 522.605 579.197, 527.861 575.584, 531.117 573.941 C 535.360 571.799, 538.061 569.528, 540.650 565.924 C 543.243 562.315, 545.939 560.050, 550.208 557.895 C 554.200 555.880, 556.704 553.847, 557.827 551.711 C 559.389 548.741, 561.780 546.153, 570.143 538.380 C 571.989 536.664, 574.589 533.800, 575.921 532.016 C 577.252 530.231, 580.432 527.485, 582.987 525.913 C 586.433 523.793, 588.252 521.733, 590.030 517.936 C 591.941 513.856, 593.361 512.344, 597.027 510.487 C 602.470 507.728, 603.959 506.111, 606.111 500.614 C 607.087 498.123, 609.059 495.627, 611.111 494.287 C 618.103 489.720, 618.968 488.861, 620.845 484.617 C 622.718 480.383, 623.801 479.318, 630.923 474.713 C 633.519 473.035, 634.805 471.118, 636.245 466.782 C 637.746 462.266, 639.193 460.187, 643.132 456.890 C 646.490 454.078, 649.234 450.500, 651.532 445.937 C 653.691 441.649, 656.473 437.936, 659.104 435.830 C 666.226 430.127, 667.991 427.839, 669.640 422.167 C 671.196 416.815, 672.688 414.880, 678.821 410.258 C 681.916 407.926, 682.493 406.212, 685.138 391.500 C 686.278 385.159, 686.851 384.054, 691.219 379.761 C 696.784 374.292, 697.647 372.407, 699.580 361.500 C 702.060 347.502, 701.190 342, 696.496 342 C 694.647 342, 693.240 343.284, 690.649 347.334 M 442.129 450.001 C 436.604 451.306, 434.654 454.070, 434.197 461.245 C 433.336 474.777, 436.629 478.883, 449.057 479.772 C 456.403 480.298, 461.054 478.637, 463.137 474.744 C 464.794 471.648, 464.650 459.135, 462.916 455.484 C 460.294 449.966, 451.783 447.721, 442.129 450.001" stroke="none" fill="#444" fill-rule="evenodd"/></svg>