<svg xmlns="http://www.w3.org/2000/svg" width="800" height="800" viewBox="0 0 800 800" version="1.1"><path d="M 510.052 183.921 C 508.904 184.668, 509.146 184.999, 511.223 185.520 C 514.377 186.311, 517.034 185.866, 517.303 184.500 C 517.564 183.174, 511.896 182.722, 510.052 183.921 M 483.480 243.870 C 478.750 246.019, 476.999 249.242, 477.002 255.797 C 477.004 262.389, 479.624 267.121, 484.232 268.854 C 491.837 271.714, 497.928 265.485, 497.978 254.797 C 498.007 248.618, 496.448 245.441, 492.460 243.548 C 488.428 241.635, 488.398 241.636, 483.480 243.870 M 390.500 256.029 C 387.097 257.387, 381.837 262.911, 382.187 264.759 C 382.641 267.154, 389.344 267.660, 392.576 265.542 C 394.344 264.384, 395 263.046, 395 260.599 C 395 256.638, 393.300 254.911, 390.500 256.029 M 522.513 273.507 C 517.320 275.357, 516 277.329, 516 283.241 C 516 294.700, 524.459 299.641, 534.696 294.163 C 541.886 290.315, 544.234 279.234, 538.975 273.975 C 536.571 271.571, 528.587 271.345, 522.513 273.507 M 697.011 298.487 C 695.032 300.871, 696.603 304.440, 700.436 306.268 C 702.361 307.186, 705.099 309.780, 706.521 312.034 C 708.946 315.875, 710.919 316.744, 711.725 314.326 C 711.917 313.750, 710.482 311.373, 708.537 309.044 C 706.592 306.716, 705 304.438, 705 303.982 C 705 302.842, 700.008 297, 699.034 297 C 698.600 297, 697.690 297.669, 697.011 298.487 M 562.314 307.950 C 557.051 311.159, 555.973 314.762, 558.044 322.219 C 559.718 328.246, 563.506 332, 567.915 332 C 572.429 332, 575.254 329.367, 577.466 323.096 C 579.863 316.303, 579.472 312.318, 576.077 308.923 C 572.535 305.381, 567.152 305, 562.314 307.950 M 408.407 326.973 C 405.594 328.110, 402.740 334.368, 402.215 340.546 C 401.844 344.912, 402.150 346.024, 404.482 348.796 C 407.791 352.728, 412.169 353.031, 420.523 349.905 C 426.980 347.490, 428.513 344.952, 427.523 338.320 C 426.169 329.256, 416.685 323.626, 408.407 326.973 M 451.198 355.673 C 447.027 357.728, 445 361.613, 445 367.549 C 445 376.281, 448.990 381, 456.373 381 C 461.979 381, 466 374.937, 466 366.482 C 466 360.839, 464.313 357.213, 460.855 355.425 C 457.332 353.603, 455.291 353.656, 451.198 355.673 M 489.179 389.086 C 484.902 390.384, 482.732 395.248, 482.598 403.836 C 482.509 409.598, 482.754 410.391, 485.306 412.586 C 488.423 415.268, 492.957 415.695, 499.378 413.912 C 505.635 412.175, 508 409.075, 508 402.611 C 508 395.906, 506.824 392.586, 503.730 390.559 C 500.659 388.547, 493.383 387.810, 489.179 389.086 M 598.243 396.157 C 597.559 396.841, 597 398.368, 597 399.551 C 597 403, 599.080 408, 600.515 408 C 602.091 408, 605.338 400.003, 604.836 397.359 C 604.415 395.140, 600.054 394.346, 598.243 396.157" stroke="none" fill="#444" fill-rule="evenodd"/></svg>