<svg xmlns="http://www.w3.org/2000/svg" width="1000" height="1000" viewBox="0 0 1000 1000" version="1.1"><path d="M 641.330 263.901 C 635.802 265.320, 629.612 269.096, 626.109 273.187 C 623.905 275.761, 619.707 278.631, 614.121 281.383 C 606.555 285.110, 605.043 286.320, 601.512 291.479 C 599.116 294.980, 595.486 298.637, 592.500 300.560 C 586.789 304.238, 584.477 306.649, 580.570 313 C 579.048 315.475, 576.252 318.625, 574.358 320 C 572.463 321.375, 569.845 323.291, 568.540 324.257 C 567.234 325.224, 564.490 329.407, 562.441 333.554 C 559.897 338.703, 557.066 342.585, 553.513 345.797 C 548.336 350.478, 546.415 353.563, 539.591 368.162 C 537.087 373.519, 534.800 376.782, 531.991 379.007 C 527.784 382.339, 523.686 388.561, 522.593 393.277 C 521.321 398.761, 516.914 406.975, 511.914 413.181 C 505.783 420.790, 504.705 422.765, 502.454 430.513 C 499.754 439.802, 497.293 444.873, 492.989 450.013 C 488.607 455.247, 482.993 465.285, 483.013 467.852 C 483.049 472.626, 477.484 487.131, 473.880 491.651 C 467.859 499.206, 466.189 502.005, 463.467 509.106 C 460.632 516.504, 457.906 519.593, 452.965 521.010 C 447.442 522.594, 442.234 520.574, 436.396 514.582 C 430.366 508.393, 426.127 505.624, 418.851 503.120 C 409.193 499.796, 404.370 497.152, 400.839 493.244 C 395.868 487.741, 391.950 485.204, 384.808 482.859 C 375.324 479.745, 369.455 476.436, 364.075 471.167 C 361.393 468.542, 357.467 465.680, 355.350 464.807 C 353.232 463.934, 348.463 461.995, 344.750 460.498 C 340.596 458.822, 335.777 455.800, 332.219 452.638 C 325.925 447.045, 323.505 445.664, 311.592 440.866 C 305.713 438.499, 302.377 436.375, 298.592 432.591 C 293.513 427.513, 290.064 425.652, 276.140 420.474 C 270.246 418.282, 267.502 416.490, 262.367 411.480 C 258.841 408.039, 254.728 404.769, 253.228 404.212 C 241.328 399.798, 238.051 398.055, 231.749 392.790 C 223.418 385.830, 222.032 385.063, 209.820 380.662 C 204.694 378.814, 197.491 375.268, 193.813 372.782 C 186.153 367.605, 184.485 367.251, 152.045 363.935 C 131.055 361.790, 123.066 362.065, 118.064 365.107 C 113.808 367.696, 114.014 371.453, 118.873 379.826 C 121.004 383.496, 123.088 387.625, 123.505 389 C 124.550 392.450, 127.255 396.109, 133.325 402.284 C 137.088 406.112, 139.401 409.725, 141.803 415.524 C 146.919 427.876, 150.155 431.574, 162.159 438.778 C 168.023 442.298, 174.941 447.444, 177.901 450.491 C 181.557 454.252, 184.873 456.557, 188.673 457.979 C 197.347 461.224, 200.095 462.904, 206.523 468.891 C 209.835 471.976, 214.560 475.337, 217.023 476.359 C 230.225 481.842, 235.931 485.209, 239.594 489.681 C 242.315 493.001, 245.218 495.106, 249.938 497.181 C 259.778 501.507, 261.986 502.874, 268.095 508.420 C 273.777 513.579, 276.952 515.440, 289.549 521 C 294.672 523.261, 297.541 525.291, 300.049 528.429 C 304.063 533.452, 307.907 536.176, 313.500 537.961 C 319.428 539.853, 326.867 544.389, 332.405 549.488 C 337.018 553.735, 339.716 555.264, 352.820 561.056 C 355.874 562.406, 360.280 565.609, 363.165 568.577 C 368.108 573.663, 370.570 575.054, 384.500 580.635 C 389.818 582.765, 393.010 584.934, 397.783 589.660 C 402.219 594.052, 405.688 596.488, 409.579 597.944 C 418.116 601.138, 422.103 603.503, 427.195 608.394 C 432.264 613.263, 435.308 615.021, 447.233 619.966 C 453.224 622.450, 456.406 624.591, 461.354 629.466 C 465.923 633.968, 469.348 636.361, 473.391 637.873 C 482.420 641.252, 488.153 644.569, 493.331 649.413 C 497.880 653.668, 502.413 656.238, 513 660.566 C 515.661 661.654, 519.952 664.916, 523.500 668.549 C 528.093 673.251, 530.907 675.201, 535.500 676.861 C 552.354 682.952, 553.449 683.520, 559.332 689.212 C 562.715 692.486, 567 695.541, 569.368 696.369 C 571.640 697.164, 576.959 699.016, 581.186 700.485 C 588.132 702.899, 598 709.093, 598 711.039 C 598 712.432, 606.803 717.004, 613.418 719.047 C 617.183 720.210, 623.388 723.410, 628.203 726.672 C 641.043 735.370, 650.251 737.186, 659.028 732.750 C 662.797 730.845, 664.056 729.368, 667.231 723.117 C 669.294 719.056, 671.774 715.133, 672.741 714.399 C 673.725 713.652, 677.056 713.050, 680.300 713.032 C 688.205 712.988, 691.223 711.168, 695.109 704.098 C 698.331 698.238, 700.874 696.249, 709.126 693.135 C 710.571 692.589, 713.727 689.312, 716.147 685.843 C 718.930 681.853, 722.850 677.932, 726.836 675.152 C 730.297 672.737, 734.332 668.902, 735.801 666.631 C 739.012 661.665, 740.211 660.520, 746.933 655.994 C 750.684 653.469, 753.104 650.762, 755.658 646.232 C 758.323 641.506, 760.757 638.848, 765.549 635.428 C 769.711 632.458, 773.043 629.036, 775.203 625.514 C 777.522 621.731, 780.428 618.850, 785 615.799 C 789.728 612.643, 791.980 610.376, 793.260 607.480 C 796.920 599.202, 797.417 598.656, 803.505 596.236 C 812.472 592.671, 813.531 591.270, 813.342 583.220 C 813.255 579.524, 813.030 575.611, 812.842 574.524 C 812.463 572.332, 813.052 572.242, 820.074 573.412 C 823.327 573.954, 825.669 573.747, 828.188 572.695 C 833.184 570.608, 833.873 567.135, 830.559 560.748 C 825.481 550.961, 827.878 546.384, 838.663 545.271 C 845.088 544.608, 846.479 543.079, 847.552 535.500 C 848.828 526.488, 851.243 523.522, 861.805 518 C 870.879 513.256, 872.308 510.458, 871.413 499.187 C 870.578 488.674, 872.015 485.562, 879.755 481.116 C 882.739 479.402, 885.570 478, 886.048 478 C 886.525 478, 888.109 475.963, 889.568 473.473 C 892.389 468.660, 893.327 460.961, 894.675 431.538 C 895.448 414.676, 894.373 410.538, 887.904 405.461 C 885.129 403.282, 881.237 399.250, 879.257 396.500 C 872.433 387.026, 871.246 386.161, 860.543 382.865 C 847.925 378.979, 844.499 377.210, 839.500 372.002 C 834.483 366.776, 832.571 365.784, 818.971 361.358 C 809.094 358.143, 807.286 357.171, 801.575 351.995 C 797.345 348.161, 793.235 345.495, 789.351 344.065 C 775.727 339.050, 772.431 337.267, 765.803 331.323 C 760.741 326.784, 756.989 324.409, 751.703 322.394 C 742.520 318.894, 740.027 317.358, 735.874 312.639 C 732.092 308.342, 727.404 305.717, 714.992 300.949 C 707.848 298.205, 705.541 296.712, 700.458 291.547 C 695.328 286.334, 693.227 284.985, 686.543 282.612 C 677.663 279.460, 672.649 276.547, 666.636 271.049 C 664.361 268.969, 660.965 266.483, 659.088 265.524 C 655.195 263.536, 646.022 262.697, 641.330 263.901 M 863.154 442.531 C 858.057 444.745, 852.280 449.706, 847.905 455.628 C 844.965 459.609, 842.070 462.008, 836.555 465.034 C 829.804 468.739, 828.872 469.644, 825.971 475.299 C 822.662 481.747, 821.187 483.344, 814.500 487.714 C 809.600 490.916, 808.855 491.824, 804.427 500 C 799.543 509.018, 797.169 512.146, 792.217 516.089 C 788.233 519.262, 782 529.349, 782 532.625 C 782 534.764, 775.972 540.974, 771.858 543.072 C 767.635 545.227, 764.854 549.722, 762.870 557.601 C 761.889 561.498, 760.401 563.671, 755.420 568.485 C 748.480 575.192, 747.237 577.310, 744.113 587.747 C 741.825 595.392, 738.564 599.997, 732.529 604.105 C 728.200 607.051, 726.691 610.120, 723.460 622.557 C 720.540 633.796, 718.585 636.987, 712.401 640.611 C 707.267 643.620, 705.741 646.126, 703.950 654.500 C 703.243 657.800, 701.600 662.654, 700.297 665.287 C 697.662 670.613, 697.933 672, 701.609 672 C 705.564 672, 709.978 669.251, 717.500 662.102 C 721.350 658.442, 725.852 654.335, 727.504 652.974 C 729.157 651.613, 732.646 647.770, 735.258 644.433 C 737.870 641.096, 742.077 636.821, 744.607 634.933 C 747.137 633.045, 751.464 628.241, 754.223 624.258 C 757.017 620.224, 761.395 615.467, 764.106 613.519 C 767.331 611.202, 770.827 607.150, 774.465 601.511 C 777.484 596.830, 780.339 593, 780.808 593 C 782.276 593, 793.690 580.832, 799.346 573.238 C 802.321 569.244, 806.453 564.627, 808.529 562.977 C 812.865 559.531, 816.168 555.305, 819.034 549.537 C 821.520 544.533, 823.332 542.414, 828.788 538.135 C 833.300 534.596, 836.072 530.132, 837.878 523.494 C 838.476 521.297, 840.374 518.150, 842.095 516.500 C 851.424 507.558, 852.574 505.981, 855.341 498.343 C 860.028 485.407, 862.244 480.923, 867.769 473.196 C 872.802 466.156, 877 456.486, 877 451.933 C 877 448.459, 874.087 443.361, 871.405 442.139 C 868.243 440.698, 867.269 440.744, 863.154 442.531 M 571.733 559.088 C 566.205 560.391, 563.367 562.626, 561.585 567.080 C 559.509 572.268, 559.586 576.056, 561.949 585.068 C 563.403 590.612, 564.610 593.076, 566.699 594.766 C 570.584 597.910, 578.186 600, 585.731 600 C 596.552 600, 600.202 596.753, 601.995 585.533 C 603.903 573.585, 601.116 563.272, 595.001 559.660 C 591.881 557.817, 578.523 557.489, 571.733 559.088 M 671.079 686.552 C 665.446 687.773, 664.153 688.517, 660.554 692.607 C 656.784 696.891, 655.949 697.338, 650.248 698.118 C 640.129 699.501, 630.642 701.931, 627.212 704.017 C 624.770 705.502, 624 706.674, 624 708.904 C 624 712.757, 628.302 715.439, 636.996 717.006 C 648.847 719.143, 655.636 716.600, 659.707 708.500 C 662.450 703.044, 665.734 699, 667.424 698.999 C 668.016 698.999, 671.425 697.624, 675 695.945 C 681.692 692.801, 684.939 689.809, 684.978 686.750 C 685.005 684.578, 680.477 684.513, 671.079 686.552" stroke="none" fill="#444" fill-rule="evenodd"/></svg>