<svg xmlns="http://www.w3.org/2000/svg" width="50" height="50" viewBox="0 0 50 50" version="1.1">
	<path d="M 28.801 15.750 C 27.386 17.262, 25.445 20.075, 24.487 22 C 23.529 23.925, 22.625 25.640, 22.478 25.811 C 22.331 25.982, 18.915 24.072, 14.887 21.565 C 8.439 17.552, 7.388 17.183, 6.091 18.480 C 5.282 19.290, 4.817 20.140, 5.060 20.369 C 6.267 21.510, 24.643 33.063, 28.528 35.124 L 32.987 37.490 38.243 32.008 L 43.500 26.526 38.144 31.513 L 32.788 36.500 34.900 32.278 C 36.062 29.956, 38.449 26.419, 40.205 24.419 C 43.049 21.180, 43.477 20.986, 44.129 22.642 C 44.788 24.319, 44.866 24.289, 44.930 22.336 C 44.983 20.686, 43.479 19.321, 38.588 16.586 C 35.061 14.614, 31.995 13, 31.775 13 C 31.554 13, 30.216 14.238, 28.801 15.750 M 28 29 C 28 29.550, 28.450 30, 29 30 C 29.550 30, 30 29.550, 30 29 C 30 28.450, 29.550 28, 29 28 C 28.450 28, 28 28.450, 28 29" stroke="none" fill="#555555" fill-rule="evenodd"/>
</svg>