<svg xmlns="http://www.w3.org/2000/svg" width="800" height="800" viewBox="0 0 800 800" version="1.1"><path d="M 513.905 215.755 C 502.989 223.093, 499.721 225.067, 493.986 227.787 C 489.132 230.090, 486.658 232.031, 484.280 235.405 C 482.344 238.152, 478.932 241.150, 475.605 243.028 C 471.355 245.426, 469.426 247.355, 467.028 251.605 C 465.129 254.969, 462.166 258.328, 459.362 260.294 C 455.866 262.746, 453.883 265.300, 450.934 271.151 C 448.796 275.392, 444.778 281.186, 441.919 284.151 C 438.867 287.315, 435.428 292.359, 433.498 296.500 C 431.481 300.830, 428.571 305.041, 425.869 307.538 C 422.196 310.933, 421.041 312.998, 418.619 320.500 C 416.175 328.071, 414.939 330.262, 410.465 334.961 C 406.656 338.963, 404.724 342.026, 403.504 346 C 400.642 355.319, 399.862 356.913, 394.833 363.726 C 391.882 367.724, 389.353 372.529, 388.419 375.913 C 383.903 392.276, 382.944 394.643, 378.781 399.692 C 376.426 402.548, 373.659 407.259, 372.631 410.161 C 370.083 417.357, 365.337 422, 360.530 422 C 354.357 422, 342.177 416.265, 336 410.450 C 331.850 406.542, 328.861 404.733, 323.819 403.077 C 317.070 400.860, 312.213 397.866, 306.219 392.227 C 304.415 390.529, 300.590 388.373, 297.719 387.435 C 290.337 385.022, 287.356 383.365, 282.636 379.049 C 278.027 374.835, 274.845 373.036, 266.435 369.890 C 262.831 368.541, 258.591 365.801, 254.999 362.499 C 251.859 359.612, 247.537 356.691, 245.395 356.006 C 238.424 353.779, 231.651 349.947, 227.010 345.606 C 224.081 342.866, 219.892 340.369, 215.249 338.595 C 210.803 336.896, 206.209 334.201, 203.269 331.565 C 197.973 326.819, 194.907 325.060, 186.357 321.861 C 182.793 320.527, 178.610 317.871, 175.525 314.982 C 172.761 312.393, 169.523 309.766, 168.328 309.144 C 165.269 307.551, 155.217 305.254, 143.500 303.470 C 138 302.633, 127.535 300.385, 120.245 298.474 C 106.360 294.835, 98.563 294.136, 95.646 296.270 C 94.004 297.470, 94.017 297.785, 95.883 302.020 C 96.970 304.484, 98.406 308.687, 99.076 311.361 C 100.009 315.086, 101.617 317.562, 105.955 321.954 C 110.570 326.627, 112.209 329.256, 114.823 336.183 C 118.097 344.858, 119.788 347.057, 126.068 350.807 C 128.031 351.979, 131.496 354.982, 133.769 357.479 C 136.767 360.773, 140.469 363.211, 147.257 366.362 C 153.942 369.465, 157.847 372.021, 160.937 375.318 C 163.315 377.855, 166.889 380.457, 168.880 381.101 C 175.028 383.088, 179.401 385.656, 184.609 390.339 C 187.362 392.814, 193.456 396.614, 198.152 398.783 C 204.332 401.638, 207.489 403.775, 209.582 406.518 C 211.642 409.219, 214.782 411.371, 220.504 414.002 C 224.981 416.060, 231.121 419.957, 234.379 422.809 C 237.934 425.920, 242.610 428.820, 246.315 430.212 C 250.713 431.863, 253.950 434.050, 257.954 438.073 C 262.201 442.341, 265.166 444.281, 270.617 446.359 C 275.403 448.184, 279.806 450.868, 284.063 454.554 C 288.078 458.031, 292.592 460.838, 296.410 462.230 C 300.416 463.690, 304.481 466.276, 308.567 469.962 C 313.111 474.062, 316.740 476.267, 322.540 478.454 C 328.525 480.710, 331.655 482.648, 335.796 486.658 C 339.657 490.397, 343.160 492.650, 347.974 494.490 C 352.312 496.148, 356.925 498.971, 360.851 502.371 C 364.628 505.642, 369.629 508.741, 373.919 510.468 C 379.046 512.531, 382.208 514.656, 385.974 518.565 C 389.678 522.412, 392.507 524.329, 396.289 525.556 C 402.868 527.690, 406.846 530.092, 413.623 536.023 C 416.851 538.847, 421.443 541.623, 425.086 542.951 C 428.909 544.345, 433.126 546.944, 436.454 549.959 C 440.715 553.817, 443.587 555.364, 451.201 557.900 C 459.356 560.617, 461.401 561.779, 466.078 566.350 C 470.797 570.962, 472.653 572.006, 480.390 574.401 C 487.764 576.683, 490.152 577.969, 494.390 581.938 C 497.201 584.571, 500.498 587.245, 501.717 587.880 C 505.533 589.868, 516.363 592.974, 519.528 592.987 C 524.465 593.008, 536.309 586.742, 539.990 582.162 C 541.884 579.805, 545.997 576.673, 549.873 574.636 C 554.552 572.177, 557.453 569.811, 559.705 566.617 C 561.732 563.741, 564.725 561.160, 567.896 559.553 C 570.850 558.056, 574.320 555.152, 576.384 552.448 C 578.304 549.933, 582.041 546.238, 584.688 544.236 C 587.334 542.234, 590.124 539.675, 590.887 538.548 C 591.650 537.422, 595.418 533.492, 599.260 529.816 C 603.102 526.140, 607.231 521.501, 608.434 519.507 C 609.637 517.513, 612.844 514.205, 615.561 512.156 C 618.277 510.106, 621.857 506.361, 623.516 503.834 C 625.175 501.306, 628.520 497.722, 630.949 495.869 C 633.379 494.016, 637.197 489.903, 639.433 486.730 C 641.670 483.556, 645.403 479.623, 647.728 477.989 C 650.277 476.199, 652.938 473.083, 654.426 470.147 C 655.801 467.432, 659.170 463.369, 662.033 460.973 C 665.448 458.113, 667.947 454.915, 669.487 451.434 C 670.761 448.554, 674.305 443.475, 677.364 440.148 C 680.423 436.821, 684.571 430.814, 686.582 426.799 C 688.594 422.785, 692.401 417.201, 695.043 414.391 C 698.236 410.995, 700.223 407.808, 700.966 404.891 C 704.027 392.882, 706.515 385.877, 709.982 379.500 C 714.207 371.730, 716.003 364.770, 715.994 356.201 C 715.987 348.624, 714.605 344.036, 710.942 339.427 C 709.275 337.329, 706.481 332.931, 704.734 329.652 C 702.260 325.010, 700.334 322.918, 696.029 320.193 C 692.988 318.269, 688.633 314.996, 686.351 312.920 C 683.402 310.237, 680.075 308.513, 674.851 306.962 C 665.449 304.169, 663.123 302.938, 657.032 297.529 C 653.304 294.217, 650.206 292.552, 644.772 290.938 C 635.292 288.123, 632.983 286.871, 626.584 281.076 C 622.863 277.706, 619.307 275.600, 614.816 274.105 C 610.108 272.538, 607.210 270.771, 604.019 267.519 C 600.785 264.225, 597.098 261.995, 589.764 258.900 C 581.823 255.550, 579.159 253.874, 576.265 250.413 C 572.819 246.290, 568.503 243.842, 559.743 241.041 C 557.677 240.381, 553.557 237.620, 550.588 234.907 C 547.572 232.150, 541.949 228.490, 537.845 226.614 C 532.854 224.331, 529.157 221.772, 526.308 218.627 C 521.640 213.474, 518.411 212.726, 513.905 215.755 M 692.027 356.281 C 690.667 356.969, 688.181 360, 686.502 363.016 C 684.105 367.323, 682.284 369.144, 678.015 371.500 C 675.026 373.150, 670.312 376.774, 667.540 379.554 C 655.114 392.015, 645.282 403.499, 642.742 408.517 C 640.696 412.561, 638.964 414.488, 636.030 415.984 C 630.762 418.672, 628.553 421.204, 627.047 426.278 C 625.431 431.722, 624.604 432.660, 618.854 435.574 C 613.772 438.149, 614.021 437.673, 610.815 450.945 C 609.660 455.727, 608.850 456.886, 604.172 460.459 C 597.865 465.275, 597.165 466.389, 595.087 474.919 C 593.730 480.490, 592.993 481.754, 590 483.654 C 582.393 488.482, 582.062 488.987, 580.915 497.500 C 579.654 506.855, 577.497 510.874, 571.533 514.977 C 566.701 518.302, 565.114 521.522, 562.505 533.300 C 560.690 541.493, 559.396 543.153, 553.734 544.545 C 549.695 545.538, 546.840 549.647, 547.201 553.947 C 547.469 557.137, 547.827 557.532, 550.695 557.809 C 555.066 558.232, 558.754 555.559, 561.353 550.084 C 563.053 546.503, 564.530 545.040, 568.211 543.293 C 571.182 541.883, 574.418 539.130, 577.040 535.783 C 582.108 529.314, 596.091 514.795, 600.471 511.454 C 602.239 510.106, 605.164 506.865, 606.971 504.251 C 608.778 501.638, 612.494 497.770, 615.229 495.656 C 617.964 493.541, 620.943 490.403, 621.851 488.682 C 623.612 485.341, 627.775 481.010, 632.998 477.086 C 634.766 475.759, 637.054 472.706, 638.085 470.302 C 639.255 467.572, 641.130 465.287, 643.078 464.215 C 649.027 460.944, 651.279 458.618, 653.616 453.333 C 655.339 449.437, 657.289 447.071, 660.932 444.453 C 664.893 441.607, 666.318 439.766, 667.966 435.361 C 671.165 426.811, 672.519 424.655, 677.966 419.434 C 683.090 414.524, 685.056 410.219, 686.525 400.692 C 686.859 398.524, 688.037 396.156, 689.261 395.192 C 696.815 389.242, 697.606 387.874, 700.355 376 C 703.618 361.909, 703.632 360.541, 700.545 357.455 C 697.810 354.719, 695.691 354.427, 692.027 356.281 M 456 452.685 C 451.737 454.896, 450.135 458.976, 450.056 467.827 C 450.006 473.524, 450.291 474.445, 452.923 477.077 C 455.643 479.797, 456.377 480, 463.473 480 C 475.205 480, 479.007 476.988, 478.994 467.703 C 478.987 461.734, 477.379 456.705, 474.663 454.153 C 471.295 450.989, 460.853 450.168, 456 452.685 M 527 563.072 C 525.075 563.549, 517.650 563.673, 510.500 563.346 C 496.616 562.713, 489.396 563.806, 488.282 566.708 C 487.301 569.263, 491.214 571.604, 500.616 574.088 C 505.363 575.342, 511.104 577.627, 513.374 579.166 C 518.578 582.695, 520.634 582.696, 525.553 579.174 C 527.724 577.620, 531.582 575.579, 534.128 574.638 C 541.215 572.019, 544.674 566.817, 541.463 563.605 C 539.698 561.841, 532.969 561.593, 527 563.072" stroke="none" fill="#444" fill-rule="evenodd"/></svg>