<svg xmlns="http://www.w3.org/2000/svg" width="800" height="800" viewBox="0 0 800 800" version="1.1"><path d="M 509.308 218.083 C 506.114 220.878, 500.251 224.728, 496.280 226.638 C 490.945 229.204, 487.829 231.551, 484.346 235.629 C 481.752 238.664, 477.971 241.995, 475.941 243.030 C 472.059 245.010, 468.630 248.673, 465.808 253.854 C 464.878 255.562, 462.019 258.431, 459.455 260.230 C 456.237 262.488, 453.901 265.264, 451.908 269.200 C 450.320 272.335, 446.473 277.735, 443.358 281.200 C 440.220 284.691, 436.236 290.621, 434.423 294.500 C 432.327 298.983, 429.368 303.202, 426.192 306.235 C 422.129 310.115, 420.728 312.424, 418.430 319.025 C 416.322 325.081, 414.309 328.602, 410.324 333.204 C 406.054 338.134, 404.540 340.901, 402.551 347.413 C 400.269 354.879, 398.158 358.787, 391.462 367.937 C 390.079 369.828, 388.260 373.878, 387.419 376.937 C 384.785 386.529, 382.926 390.897, 379.400 395.774 C 377.521 398.373, 374.455 403.724, 372.588 407.664 C 368.673 415.924, 365.492 418.543, 359.544 418.408 C 354.759 418.299, 351.473 416.585, 343.845 410.219 C 340.318 407.275, 335.318 404.410, 330.556 402.603 C 325.253 400.590, 321.169 398.148, 317.179 394.603 C 312.828 390.737, 309.392 388.773, 303.004 386.500 C 296.232 384.090, 293.510 382.475, 289.176 378.294 C 285.524 374.771, 282.117 372.544, 278.640 371.407 C 271.015 368.913, 266.881 366.612, 260.990 361.584 C 257.256 358.397, 253.404 356.300, 247.946 354.482 C 242.196 352.567, 238.759 350.642, 234.612 347.013 C 230.637 343.535, 226.508 341.167, 220.308 338.812 C 213.346 336.167, 210.575 334.477, 206.544 330.413 C 202.920 326.760, 199.947 324.818, 195.998 323.526 C 187.751 320.826, 182.986 318.194, 178 313.585 C 173.077 309.035, 172.530 308.783, 156.500 303.710 C 126.326 294.160, 99.095 290.476, 94.278 295.293 C 92.641 296.931, 92.713 297.322, 95.657 302.761 C 97.365 305.917, 99.315 310.229, 99.989 312.342 C 100.708 314.592, 103.088 317.907, 105.732 320.342 C 108.848 323.211, 111.478 327.135, 114.213 333 C 119.035 343.338, 120.570 345.069, 129.500 350.243 C 133.350 352.473, 138.751 356.401, 141.502 358.971 C 144.652 361.914, 148.851 364.544, 152.842 366.072 C 156.696 367.549, 161.559 370.552, 165.250 373.737 C 169.050 377.015, 173.938 380.008, 178.314 381.737 C 183.207 383.671, 187.150 386.203, 191.447 390.172 C 195.502 393.917, 199.780 396.725, 204.044 398.441 C 207.800 399.952, 213.196 403.328, 216.948 406.514 C 220.738 409.733, 225.844 412.919, 229.336 414.245 C 233.153 415.694, 237.516 418.517, 241.538 422.140 C 245.496 425.706, 249.888 428.563, 253.480 429.907 C 262.027 433.105, 265.009 434.844, 270.597 439.894 C 273.718 442.715, 278.176 445.440, 282.097 446.924 C 286.391 448.550, 290.018 450.856, 293.110 453.924 C 296.416 457.205, 300.094 459.463, 306.110 461.904 C 312.362 464.441, 316.043 466.743, 320.555 470.938 C 324.478 474.585, 328.175 477.034, 331.055 477.895 C 337.633 479.860, 342.093 482.365, 348.015 487.420 C 351.118 490.069, 356.182 493.041, 360.223 494.585 C 365.099 496.449, 368.521 498.617, 371.867 501.962 C 375.570 505.665, 378.550 507.434, 385.513 510.062 C 392.714 512.780, 395.395 514.406, 399.501 518.545 C 403.254 522.328, 406.414 524.365, 411.602 526.348 C 415.945 528.007, 420.876 530.936, 424.530 534.025 C 429.595 538.308, 438.769 543, 442.077 543 C 444.141 543, 451.649 547.416, 455.829 551.088 C 458.737 553.643, 463.169 555.964, 469.329 558.160 C 476.201 560.609, 479.661 562.509, 483.132 565.740 C 486.137 568.539, 491.010 571.440, 497.013 574.006 C 503.600 576.821, 507.771 579.385, 511.497 582.909 C 517.605 588.686, 521.517 589.818, 528.530 587.837 C 535.421 585.890, 536.138 584.112, 532.227 578.666 C 525.587 569.420, 525.890 565.001, 533.737 556.654 C 537.594 552.551, 539.260 549.596, 541.906 542.159 C 544.529 534.788, 546.315 531.602, 550.371 527.056 C 554.320 522.630, 556.060 519.581, 557.879 513.898 C 561.017 504.095, 563.100 500.196, 567.410 496.056 C 569.865 493.698, 571.984 489.993, 574.128 484.313 C 576.333 478.469, 578.723 474.342, 582.205 470.363 C 584.924 467.256, 588.836 461.065, 590.897 456.606 C 593.544 450.881, 595.740 447.666, 598.375 445.659 C 600.964 443.687, 603.291 440.324, 605.984 434.659 C 608.404 429.571, 611.944 424.267, 615.390 420.568 C 618.429 417.305, 622.320 412.001, 624.037 408.780 C 626.046 405.009, 628.573 401.987, 631.133 400.293 C 633.421 398.779, 636.489 395.300, 638.362 392.094 C 640.243 388.874, 643.811 384.833, 646.821 382.513 C 649.684 380.306, 653.230 376.700, 654.700 374.500 C 657.800 369.864, 659.109 368.695, 664.305 365.929 C 666.397 364.815, 669.547 361.855, 671.305 359.350 C 673.219 356.622, 676.310 353.876, 679.015 352.501 C 681.498 351.238, 686.368 348.071, 689.837 345.463 L 696.144 340.722 703.015 341.298 L 709.886 341.874 711.021 338.437 C 712.683 333.399, 710.947 329.323, 703.833 321.559 C 696.172 313.198, 691.316 309.887, 682.500 307.011 C 673.468 304.065, 671.424 302.997, 665.593 298.178 C 662.141 295.326, 657.917 293.246, 650.732 290.862 C 643.024 288.304, 639.628 286.575, 636.097 283.411 C 630.969 278.815, 627.859 277.041, 619.335 273.853 C 615.530 272.429, 611.598 269.866, 608.004 266.465 C 603.989 262.666, 600.742 260.650, 596 259.011 C 588.176 256.307, 583.857 253.796, 578.377 248.765 C 576.044 246.623, 571.768 244.124, 568.526 243.009 C 561.754 240.679, 557.389 238.114, 553.983 234.463 C 551.274 231.560, 544.784 228.007, 538.500 225.988 C 535.929 225.161, 532.491 222.612, 528.878 218.851 C 523.828 213.596, 522.841 213, 519.186 213 C 515.722 213, 514.252 213.757, 509.308 218.083 M 460.905 449.015 C 454.709 450.060, 452.140 451.848, 451.021 455.893 C 449.668 460.783, 451.603 468.757, 454.955 472.109 C 459.534 476.688, 470.378 478.525, 474.750 475.463 C 477.027 473.868, 480 465.659, 480 460.968 C 480 451.459, 472.873 446.998, 460.905 449.015" stroke="none" fill="#444" fill-rule="evenodd"/></svg>