<svg xmlns="http://www.w3.org/2000/svg" width="50" height="50" viewBox="0 0 50 50" version="1.1">
	<path d="M 29.806 15.466 C 27.926 17.347, 24.542 22.785, 23.396 25.771 C 23.339 25.919, 20.196 24.232, 16.412 22.021 C 9.850 18.186, 6 17.012, 6 18.845 C 6 20.474, 9.752 23.064, 29.210 34.864 L 32.921 37.114 37.525 32.870 C 40.058 30.535, 42.626 27.697, 43.233 26.563 C 43.839 25.428, 41.976 26.975, 39.093 30 L 33.852 35.500 36.176 31.129 C 37.454 28.724, 39.555 25.617, 40.845 24.224 C 42.759 22.158, 43.366 21.950, 44.139 23.095 C 44.849 24.148, 45.013 23.925, 44.793 22.205 C 44.585 20.572, 42.736 18.919, 38.374 16.468 L 32.249 13.024 29.806 15.466 M 26.686 29.356 C 25.305 31.465, 25.281 31.894, 26.522 32.370 C 28.312 33.057, 30.617 29.217, 29.241 27.841 C 28.649 27.249, 27.697 27.814, 26.686 29.356" stroke="none" fill="#555555" fill-rule="evenodd"/>
</svg>