<svg xmlns="http://www.w3.org/2000/svg" width="1000" height="1000" viewBox="0 0 1000 1000" version="1.1"><path d="M 386 349.965 C 386 353.246, 391.599 355.172, 394.960 353.046 C 397.364 351.525, 393.440 348, 389.345 348 C 386.687 348, 386 348.403, 386 349.965 M 645.646 427.452 C 642.413 430.448, 642.127 435.127, 645 438 C 647.615 440.615, 648.441 440.526, 650.927 437.365 C 653.384 434.242, 653.638 428.781, 651.429 426.571 C 649.339 424.482, 648.755 424.571, 645.646 427.452 M 648.667 428.667 C 647.516 429.817, 647.938 431, 649.500 431 C 650.325 431, 651 430.325, 651 429.500 C 651 427.938, 649.817 427.516, 648.667 428.667 M 644.500 729 C 642.592 729.820, 642.603 729.863, 644.750 729.930 C 645.987 729.968, 647 729.550, 647 729 C 647 728.450, 646.888 728.032, 646.750 728.070 C 646.612 728.109, 645.600 728.527, 644.500 729" stroke="none" fill="#444" fill-rule="evenodd"/></svg>