<svg xmlns="http://www.w3.org/2000/svg" width="50" height="50" viewBox="0 0 50 50" version="1.1">
	<path d="M 31.083 11.365 C 31.313 11.565, 32.625 12.265, 34 12.920 C 36.357 14.042, 36.389 14.022, 34.559 12.555 C 32.966 11.279, 29.711 10.164, 31.083 11.365 M 37 14.430 C 37 14.705, 37.900 15.411, 39 16 C 40.100 16.589, 41 16.845, 41 16.570 C 41 16.295, 40.100 15.589, 39 15 C 37.900 14.411, 37 14.155, 37 14.430 M 23.178 16.286 C 22.374 17.254, 22.563 17.571, 23.942 17.571 C 25.023 17.571, 25.571 17.045, 25.279 16.286 C 25.008 15.579, 24.664 15, 24.515 15 C 24.367 15, 23.765 15.579, 23.178 16.286 M 32 17.759 C 32 18.177, 32.900 19.081, 34 19.768 C 36.326 21.220, 36.636 20.493, 34.571 18.429 C 32.995 16.852, 32 16.593, 32 17.759 M 43.260 19.899 C 44.114 22.176, 44.608 22.670, 44.846 21.485 C 45.036 20.538, 44.478 19.050, 43.606 18.177 C 42.157 16.728, 42.127 16.878, 43.260 19.899 M 25 20.759 C 25 21.177, 25.900 22.081, 27 22.768 C 29.326 24.220, 29.636 23.493, 27.571 21.429 C 25.995 19.852, 25 19.593, 25 20.759 M 39.872 21.750 C 38.629 23.336, 38.664 23.371, 40.250 22.128 C 41.916 20.821, 42.445 20, 41.622 20 C 41.415 20, 40.627 20.788, 39.872 21.750 M 32 21.430 C 32 21.705, 32.900 22.411, 34 23 C 35.100 23.589, 36 23.845, 36 23.570 C 36 23.295, 35.100 22.589, 34 22 C 32.900 21.411, 32 21.155, 32 21.430 M 18.459 23.067 C 18.096 23.653, 18.014 24.348, 18.276 24.610 C 18.538 24.872, 19.019 24.392, 19.345 23.543 C 20.021 21.781, 19.445 21.471, 18.459 23.067 M 30 25 C 30 25.550, 30.450 26, 31 26 C 31.550 26, 32 25.550, 32 25 C 32 24.450, 31.550 24, 31 24 C 30.450 24, 30 24.450, 30 25 M 36.584 25.641 C 36.057 27.014, 36.204 27.076, 37.477 26.019 C 39.212 24.579, 39.393 24, 38.107 24 C 37.616 24, 36.931 24.739, 36.584 25.641 M 40.066 28.268 C 37.218 31.778, 37.106 32.073, 39.408 30 C 41.800 27.845, 44.640 23.964, 43.785 24.018 C 43.628 24.028, 41.955 25.940, 40.066 28.268 M 17 29.449 C 17 29.724, 18.350 30.647, 20 31.500 C 21.650 32.353, 23 32.826, 23 32.551 C 23 32.276, 21.650 31.353, 20 30.500 C 18.350 29.647, 17 29.174, 17 29.449 M 32.500 33 C 30.753 36.377, 30.697 36.400, 27.684 34.945 C 25.574 33.926, 25.566 33.943, 27.441 35.445 C 30.131 37.600, 32.358 37.389, 34.595 34.767 C 36.146 32.950, 36.175 32.786, 34.750 33.890 C 32.765 35.427, 32.522 34.761, 34.035 31.934 C 34.605 30.870, 34.841 30, 34.561 30 C 34.281 30, 33.353 31.350, 32.500 33" stroke="none" fill="#555555" fill-rule="evenodd"/>
</svg>