<svg xmlns="http://www.w3.org/2000/svg" width="1000" height="1000" viewBox="0 0 1000 1000" version="1.1"><path d="M 647.331 265.445 C 645.588 266.210, 642.438 269.165, 640.331 272.011 C 637.449 275.904, 634.801 278.047, 629.644 280.659 C 625.305 282.857, 620.900 286.158, 617.644 289.652 C 614.815 292.688, 610.519 296.552, 608.098 298.238 C 601.156 303.075, 584.123 320.748, 579.464 327.948 C 577.132 331.552, 572.889 336.469, 570.035 338.875 C 566.206 342.102, 563.934 345.169, 561.370 350.572 C 558.744 356.103, 556.483 359.116, 552.123 362.893 C 548.826 365.750, 545.681 369.523, 544.786 371.696 C 543.925 373.788, 541.986 378.557, 540.479 382.294 C 538.640 386.852, 535.826 391.197, 531.929 395.498 C 525.321 402.789, 524.402 404.283, 522.420 410.958 C 520.011 419.068, 517.248 424.435, 512.271 430.666 C 506.899 437.393, 504.394 442.609, 500.497 455.185 C 498.179 462.666, 493.166 471.781, 490.798 472.823 C 488.597 473.790, 483.851 484.694, 482 493.033 C 478.861 507.181, 476.254 512.214, 470.668 514.919 C 468.150 516.138, 463.706 517.379, 460.795 517.678 C 452.560 518.521, 448.034 516.800, 441.904 510.494 C 438.532 507.024, 434.893 504.395, 432.032 503.361 C 422.063 499.757, 416.676 496.858, 411.218 492.159 C 404.742 486.584, 402.720 485.454, 391.478 481.122 C 384.907 478.590, 382.421 476.968, 377.730 472.152 C 373.877 468.196, 370.449 465.718, 367.252 464.577 C 350.188 458.486, 348.445 457.597, 342.500 451.950 C 336.389 446.146, 332.682 443.804, 327.723 442.615 C 321.957 441.231, 314.300 436.993, 308.679 432.073 C 302.007 426.233, 300.472 425.358, 289.433 421.104 C 283.292 418.738, 280.201 416.824, 276.489 413.089 C 271.669 408.240, 267.152 405.766, 253.500 400.497 C 248.153 398.433, 245.319 396.551, 241.500 392.525 C 236.699 387.465, 229.995 383, 227.199 383 C 224.077 383, 211.032 375.969, 206.212 371.688 C 196.970 363.480, 194.167 362.653, 170 361.005 C 160.925 360.387, 149.675 359.234, 145 358.443 C 132.214 356.282, 124.491 356.509, 121.876 359.124 C 120.002 360.998, 119.808 362.085, 120.220 368.374 C 120.805 377.293, 123.859 383.598, 131.884 392.453 C 135.715 396.680, 138.713 401.260, 140.561 405.706 C 144.371 414.874, 146.125 417.230, 151.908 420.941 C 154.620 422.681, 158.651 426.504, 160.865 429.437 C 164.794 434.641, 166.390 435.683, 177.976 440.600 C 180.437 441.645, 185.990 445.493, 190.316 449.151 C 196.006 453.963, 200.616 456.823, 206.990 459.496 C 214.380 462.595, 216.757 464.201, 221.743 469.466 C 225.611 473.550, 229.050 476.184, 231.593 477.008 C 238.850 479.361, 246.468 483.788, 252.914 489.398 C 256.442 492.469, 261.167 495.813, 263.414 496.830 C 265.661 497.847, 269.824 499.710, 272.664 500.970 C 275.713 502.323, 280.128 505.622, 283.444 509.027 C 287.367 513.054, 290.783 515.471, 294.780 517.044 C 303.254 520.381, 309.990 524.373, 315.021 529.038 C 321.508 535.052, 323.980 536.649, 330.590 539.096 C 337.358 541.600, 341.462 544.245, 344.917 548.329 C 348.326 552.358, 353.044 555.087, 364.175 559.469 C 372.600 562.786, 374.639 564.086, 379.952 569.529 C 383.309 572.967, 387.280 576.234, 388.777 576.790 C 400.250 581.044, 403.573 582.835, 410.582 588.540 C 416.223 593.132, 421.318 596.175, 428.301 599.124 C 436.559 602.611, 438.763 604.046, 442.296 608.236 C 446.899 613.695, 449.419 615.210, 461.882 620.016 C 468.585 622.600, 471.438 624.392, 476.121 628.960 C 482.219 634.908, 484.169 636.090, 495.068 640.446 C 499.141 642.073, 503.320 644.714, 506.068 647.396 C 511.719 652.911, 516.441 655.783, 526.863 660.041 C 533.251 662.651, 536.203 664.534, 539.363 668.013 C 545.256 674.502, 548.167 676.196, 559.954 679.993 C 569.050 682.922, 571.151 684.042, 576.121 688.611 C 582.538 694.510, 585.955 696.506, 593.378 698.692 C 601.942 701.213, 608.188 704.612, 614.933 710.423 C 619.185 714.087, 623.715 716.863, 628.297 718.614 C 635.592 721.401, 640.912 725.350, 643.675 730.027 C 647.921 737.214, 656.361 736.645, 666.500 728.486 C 668.700 726.716, 675 722.327, 680.500 718.732 C 686 715.137, 692.686 709.883, 695.358 707.056 C 698.269 703.976, 702.956 700.536, 707.053 698.473 C 711.178 696.396, 715.004 693.583, 716.695 691.383 C 722.801 683.443, 725.259 681.053, 729.354 679.070 C 733.954 676.844, 737.060 673.823, 741.295 667.457 C 742.775 665.233, 746.576 661.757, 749.743 659.732 C 754.056 656.974, 756.476 654.445, 759.392 649.651 C 762.284 644.895, 764.624 642.438, 768.503 640.087 C 774.610 636.386, 776.681 634.230, 780.413 627.687 C 782.250 624.467, 784.937 621.736, 788.534 619.435 C 794.001 615.938, 794.593 615.287, 800.275 606.527 C 802.049 603.791, 805.075 600.527, 807 599.272 C 812.464 595.711, 816.082 591.853, 818.043 587.500 C 820.199 582.716, 823.042 579.412, 828.732 575.081 C 831.446 573.016, 834.229 569.453, 836.490 565.152 C 838.428 561.462, 842.934 555.306, 846.502 551.472 C 850.736 546.922, 854.814 541.035, 858.242 534.524 C 861.560 528.224, 865.382 522.661, 868.619 519.424 C 873.446 514.598, 878 505.816, 878 501.336 C 878 499.094, 882.972 489.580, 888.279 481.667 C 894.422 472.507, 895.446 466.724, 895.476 441 C 895.505 415.924, 894.914 413.336, 887.713 407 C 884.900 404.525, 879.426 399.300, 875.549 395.390 C 867.103 386.870, 865.383 385.772, 854.739 382.089 C 842.578 377.882, 841.901 377.537, 837 373.054 C 831.405 367.935, 825.660 364.928, 816 362.063 C 806.934 359.374, 801.581 356.393, 797.239 351.617 C 793.809 347.843, 789.160 345.122, 782.500 342.990 C 774.221 340.340, 766.739 335.955, 761.620 330.754 C 758.712 327.798, 754.795 324.804, 752.916 324.099 C 740.811 319.559, 736.025 317.058, 729.947 312.095 C 722.566 306.067, 719.776 304.462, 710.500 300.909 C 706.380 299.331, 702.601 296.799, 698.439 292.828 C 694.545 289.113, 689.897 285.927, 685.439 283.915 C 677.310 280.248, 665.450 272.614, 664.653 270.538 C 663.988 268.806, 657.688 265.480, 653.500 264.649 C 651.800 264.312, 649.127 264.657, 647.331 265.445 M 866 443.702 C 864.057 444.406, 858 450.131, 858 451.263 C 858 453.718, 851.975 459.411, 845.131 463.423 C 835.970 468.794, 832.898 471.497, 826.754 479.589 C 824.211 482.938, 818.991 488.461, 815.154 491.863 C 809.530 496.850, 807.283 499.779, 803.567 506.975 C 800.030 513.824, 797.991 516.553, 794.808 518.701 C 788.110 523.221, 785.090 526.882, 783.473 532.445 C 781.791 538.230, 778.683 541.686, 772.271 544.900 C 767.302 547.390, 765.822 549.934, 763.596 559.811 C 761.607 568.638, 758.359 574.072, 752.922 577.670 C 747.543 581.230, 745.492 585.308, 742.592 598.208 C 741.856 601.483, 738.951 604.606, 733.171 608.338 C 728.213 611.539, 726.646 614.641, 724.354 625.791 C 722.329 635.645, 721.068 638.005, 714.015 645.146 C 705.563 653.704, 699.614 667.024, 700.795 674.750 C 701.089 676.670, 701.751 676.999, 705.320 676.996 C 711.062 676.991, 715.435 674.049, 718.401 668.196 C 720.984 663.097, 725.030 659.149, 731.832 655.090 C 734.054 653.764, 737.245 650.559, 738.925 647.967 C 741.846 643.458, 747.811 638, 749.817 638 C 751.126 638, 758 630.273, 758 628.801 C 758 626.355, 763.503 619.784, 767.081 617.959 C 770.868 616.027, 778 608.547, 778 606.507 C 778 604.801, 782.975 600.483, 787.624 598.154 C 792.357 595.783, 796.699 591.046, 797.664 587.203 C 798.892 582.310, 802.090 578.151, 807.090 574.942 C 811.197 572.307, 812.683 570.476, 815.647 564.398 C 818.334 558.887, 820.644 555.852, 824.866 552.284 C 831.950 546.299, 831.923 546.335, 837.459 535.415 C 840.543 529.333, 843.985 524.376, 847.874 520.415 C 853.566 514.619, 855.596 510.784, 857.987 501.312 C 858.568 499.009, 860.946 494.793, 863.272 491.944 C 870.867 482.639, 871.852 480.650, 875.060 468.151 C 878.768 453.704, 878.590 449.870, 874.019 445.750 C 871.056 443.079, 869.098 442.579, 866 443.702 M 559.500 562.377 C 554.550 564.739, 549.862 567.445, 549.083 568.390 C 548.128 569.547, 547.450 574.091, 547.007 582.304 C 546.644 589.012, 545.822 595.479, 545.178 596.677 C 544.486 597.965, 541.659 599.710, 538.254 600.952 C 527.226 604.975, 526.393 605.946, 525.342 615.999 C 524.640 622.715, 525.033 623.119, 534.022 624.931 C 543.006 626.742, 545 627.667, 545 630.024 C 545 631.019, 544.663 631.983, 544.250 632.167 C 543.837 632.350, 542.263 633.997, 540.750 635.827 C 535.383 642.319, 538.468 650.944, 546.749 652.600 C 555.103 654.271, 558 650.380, 558 637.491 C 558 632.756, 558.389 629.122, 558.864 629.416 C 560.055 630.152, 569.144 625.648, 571.077 623.364 C 574.664 619.126, 576.408 606.227, 573.930 602.259 C 573.206 601.100, 570.658 599.604, 568.269 598.935 C 563.539 597.611, 560 594.009, 560 590.519 C 560 587.274, 566.477 581, 569.826 581 C 574.043 581, 576.911 583.592, 577.624 588.048 C 578.488 593.455, 580.924 596, 585.232 596 C 595.030 596, 598.223 582.218, 589.900 575.854 C 588.206 574.559, 584.948 571.486, 582.660 569.024 C 573.761 559.449, 572.138 558.001, 570.350 558.041 C 569.332 558.064, 564.450 560.015, 559.500 562.377 M 689.206 681.048 C 686.083 682.301, 683.712 688.112, 684.971 691.424 C 685.951 694.001, 689.806 695.672, 692.439 694.662 C 694.399 693.909, 696.665 690.164, 697.454 686.374 C 698.532 681.195, 694.816 678.796, 689.206 681.048" stroke="none" fill="#444" fill-rule="evenodd"/></svg>