<svg xmlns="http://www.w3.org/2000/svg" width="1000" height="1000" viewBox="0 0 1000 1000" version="1.1"><path d="M 684.455 349.455 C 679.928 353.981, 681.860 365.982, 687.610 369.059 C 690.656 370.689, 692.509 369.767, 695.750 365.008 C 698.779 360.561, 698.914 351.914, 696 349 C 693.126 346.126, 687.564 346.345, 684.455 349.455 M 591.736 452.649 C 587.796 453.772, 584.817 464.729, 587.011 470.027 C 587.706 471.704, 589.083 473.509, 590.071 474.038 C 594.475 476.395, 604.887 473.947, 606.964 470.067 C 607.534 469.003, 608 466.295, 608 464.051 C 608 456.545, 599.349 450.480, 591.736 452.649" stroke="none" fill="#444" fill-rule="evenodd"/></svg>