<svg xmlns="http://www.w3.org/2000/svg" width="50" height="50" viewBox="0 0 50 50" version="1.1">
	<path d="M 29.287 15.250 C 28.153 16.488, 26.266 19.413, 25.093 21.750 C 23.919 24.087, 22.710 26, 22.405 26 C 22.099 26, 18.820 24.200, 15.117 22 C 11.414 19.800, 7.607 18, 6.657 18 C 3.001 18, 7.131 21.946, 17.960 28.798 C 30.736 36.883, 32.593 37.068, 36.375 30.639 C 39.356 25.572, 44 20.982, 44 23.103 C 44 23.902, 43.289 25.668, 42.420 27.027 L 40.840 29.500 42.920 27.139 C 46.668 22.886, 45.719 20.574, 38.588 16.586 C 35.061 14.614, 31.989 13, 31.762 13 C 31.535 13, 30.421 14.012, 29.287 15.250 M 28 29 C 28 29.550, 28.450 30, 29 30 C 29.550 30, 30 29.550, 30 29 C 30 28.450, 29.550 28, 29 28 C 28.450 28, 28 28.450, 28 29 M 36.924 33.750 L 34.500 36.500 37.250 34.076 C 39.820 31.810, 40.459 31, 39.674 31 C 39.495 31, 38.258 32.237, 36.924 33.750" stroke="none" fill="#555555" fill-rule="evenodd"/>
</svg>