<svg xmlns="http://www.w3.org/2000/svg" width="800" height="800" viewBox="0 0 800 800" version="1.1"><path d="M 504.500 213.421 C 502.850 214.160, 499.925 216.423, 498 218.449 C 496.075 220.476, 492.025 223.472, 489 225.107 C 480.731 229.575, 453.015 257.131, 449.130 264.745 C 447.978 267.004, 444.813 270.725, 442.098 273.015 C 438.584 275.977, 436.504 278.795, 434.884 282.785 C 433.585 285.986, 430.225 291.034, 427.054 294.549 C 422.970 299.076, 420.733 302.739, 418.603 308.391 C 416.541 313.862, 414.194 317.772, 410.463 321.953 C 406.591 326.293, 404.633 329.617, 402.974 334.665 C 400 343.714, 398.444 346.660, 393.904 351.833 C 389.977 356.308, 388.636 359.325, 385.016 371.830 C 383.481 377.131, 381.841 380.314, 379.089 383.330 C 373.964 388.947, 373.222 390.570, 370.892 401.279 C 368.556 412.018, 367.104 414.641, 362.412 416.601 C 359.655 417.753, 357.679 417.827, 352.364 416.978 C 344.324 415.694, 341.665 414.368, 336.562 409.098 C 333.950 406.400, 330.365 404.168, 325.911 402.466 C 321.757 400.879, 317.082 398.050, 313.649 395.045 C 310.033 391.881, 305.225 389.024, 299.846 386.845 C 293.647 384.332, 290.494 382.341, 287.177 378.843 C 283.844 375.328, 280.621 373.299, 274.023 370.564 C 268.149 368.129, 263.304 365.227, 259.246 361.713 C 255.360 358.348, 251.146 355.784, 247.418 354.517 C 243.442 353.165, 239.846 350.900, 235.951 347.294 C 231.684 343.344, 228.207 341.250, 221.936 338.855 C 215.395 336.358, 212.242 334.411, 207.323 329.835 C 203.873 326.626, 200.606 324, 200.063 324 C 196.629 324, 187.468 319.201, 181.963 314.518 C 177.905 311.066, 173.028 308.069, 168.858 306.464 C 164.256 304.693, 160.544 302.309, 156.774 298.704 C 152.577 294.690, 149.523 292.839, 143.417 290.607 C 136.770 288.177, 134.598 286.774, 129.878 281.857 C 122.784 274.467, 119.607 274.036, 114.350 279.750 C 112.453 281.813, 108.703 285.750, 106.018 288.500 C 103.269 291.315, 100.011 296.071, 98.564 299.383 C 97.150 302.619, 94.419 307.007, 92.496 309.136 C 88.334 313.743, 87.847 318.819, 90.977 324.956 C 93.279 329.466, 96.158 331.674, 104.683 335.464 C 108.949 337.361, 112.104 339.681, 114.856 342.945 C 117.911 346.567, 120.279 348.198, 124.963 349.906 C 128.903 351.343, 133.648 354.289, 138.291 358.181 C 142.256 361.504, 148.506 365.570, 152.180 367.215 C 156.923 369.338, 160.016 371.577, 162.849 374.936 C 165.550 378.139, 168.397 380.252, 171.669 381.482 C 177.306 383.600, 180.888 385.908, 186.732 391.186 C 189.060 393.288, 194.235 396.577, 198.232 398.493 C 202.834 400.700, 206.967 403.604, 209.500 406.410 C 212.210 409.412, 215.935 411.948, 221.050 414.273 C 225.202 416.160, 230.982 419.820, 233.894 422.406 C 236.806 424.992, 242.877 428.860, 247.385 431.002 C 253.088 433.712, 256.554 436.106, 258.776 438.871 C 260.994 441.631, 263.668 443.481, 267.531 444.926 C 276.381 448.237, 280.951 450.874, 285.963 455.562 C 288.874 458.285, 293.422 461.070, 297.999 462.933 C 302.869 464.914, 306.903 467.442, 309.929 470.405 C 313.247 473.656, 316.824 475.789, 322.982 478.189 C 329.407 480.693, 332.723 482.714, 336.650 486.517 C 340.310 490.061, 344.140 492.489, 349.668 494.768 C 354.568 496.788, 359.812 499.963, 363.677 503.249 C 367.240 506.277, 372.421 509.485, 375.918 510.828 C 379.999 512.395, 383.718 514.850, 387.286 518.334 C 391.576 522.522, 394.162 524.058, 400.831 526.380 C 407.402 528.667, 410.333 530.390, 415.287 534.875 C 420.361 539.469, 422.910 540.941, 429.192 542.908 C 434.083 544.439, 438.634 546.712, 441.692 549.150 C 449.268 555.192, 452.145 556.889, 457.500 558.476 C 462.812 560.051, 465.602 561.705, 473.321 567.859 C 476.117 570.089, 481.453 572.856, 486.024 574.447 C 491.743 576.438, 495.433 578.526, 499.462 582.052 C 505.954 587.733, 508.465 588.393, 521.431 587.826 C 534.479 587.255, 536.679 585.120, 530.946 578.592 C 525.111 571.946, 525.706 563.155, 532.433 556.617 C 537.292 551.895, 539.733 547.514, 542.935 537.778 C 544.551 532.860, 546.297 529.906, 549.434 526.778 C 554.623 521.604, 555.270 520.414, 558.560 510.001 C 560.680 503.287, 562.086 500.801, 566.440 496.065 C 570.011 492.181, 572.316 488.540, 573.507 484.900 C 576.127 476.894, 578.803 471.999, 583.160 467.240 C 585.305 464.897, 588.563 459.682, 590.400 455.651 C 592.537 450.961, 595.271 446.913, 597.992 444.411 C 600.627 441.988, 603.600 437.647, 605.808 433 C 607.923 428.547, 611.500 423.260, 614.613 419.986 C 617.496 416.953, 621.361 411.792, 623.202 408.517 C 625.150 405.053, 628.421 401.140, 631.025 399.158 C 633.592 397.205, 636.731 393.467, 638.388 390.392 C 640.378 386.698, 642.743 384.090, 645.997 382.002 C 648.782 380.215, 651.999 376.912, 653.840 373.951 C 655.557 371.189, 658.433 368.158, 660.231 367.215 C 662.029 366.272, 666.425 362.474, 670 358.775 C 673.575 355.077, 678.234 351.339, 680.353 350.469 C 682.473 349.599, 686.319 346.911, 688.901 344.495 C 695.142 338.658, 697.737 337.750, 704.214 339.139 C 709.044 340.175, 709.499 340.102, 711.191 338.013 C 714.403 334.046, 713.509 330.727, 707.250 323.385 C 695.975 310.159, 695.021 309.388, 686.978 307 C 677.533 304.194, 674.790 302.769, 669.562 297.951 C 666.337 294.978, 663.063 293.333, 655.556 290.916 C 647.481 288.316, 644.833 286.924, 640.496 282.996 C 637.279 280.083, 632.954 277.397, 629.367 276.084 C 618.481 272.100, 617.512 271.564, 611.928 266.432 C 608.054 262.872, 604.155 260.470, 599.139 258.553 C 594.612 256.823, 589.796 253.981, 586.217 250.927 C 582.408 247.676, 577.715 244.971, 572.093 242.784 C 565.726 240.307, 562.419 238.290, 558.519 234.505 C 554.573 230.673, 551.514 228.822, 545.474 226.610 C 539.717 224.501, 536.220 222.442, 532.542 218.997 C 529.769 216.400, 526.517 213.763, 525.316 213.138 C 522.326 211.580, 508.182 211.773, 504.500 213.421 M 452.070 451.776 C 447.617 456.229, 446.935 466.891, 450.635 474.203 C 452.461 477.811, 457.595 479.215, 464.309 477.941 C 467.100 477.412, 470.459 476.274, 471.775 475.412 C 476.788 472.127, 479.603 460.613, 476.864 454.601 C 475.306 451.181, 469.286 449, 461.403 449 C 455.569 449, 454.540 449.306, 452.070 451.776" stroke="none" fill="#444" fill-rule="evenodd"/></svg>