<svg xmlns="http://www.w3.org/2000/svg" width="50" height="50" viewBox="0 0 50 50" version="1.1">
	<path d="M 27.541 15.134 C 26.091 16.857, 24.021 19.999, 22.941 22.116 L 20.977 25.965 14.349 21.908 C 8.361 18.242, 7.571 18, 6.170 19.402 C 4.311 21.261, 3.609 20.563, 14 27.188 C 27.424 35.747, 30.406 37.466, 29.618 36.191 C 29.140 35.418, 29.600 35, 30.928 35 C 32.256 35, 33.899 33.508, 35.608 30.750 C 37.056 28.413, 39.413 25.245, 40.844 23.712 C 43.186 21.204, 43.518 21.103, 44.153 22.712 C 44.758 24.243, 44.870 24.181, 44.930 22.274 C 44.982 20.604, 43.440 19.049, 38.750 16.045 C 35.313 13.843, 31.978 12.033, 31.339 12.021 C 30.700 12.009, 28.991 13.410, 27.541 15.134 M 27 29 C 27 29.550, 27.450 30, 28 30 C 28.550 30, 29 29.550, 29 29 C 29 28.450, 28.550 28, 28 28 C 27.450 28, 27 28.450, 27 29 M 37 32.500 C 34.571 34.975, 32.809 37, 33.084 37 C 33.359 37, 35.571 34.975, 38 32.500 C 40.429 30.025, 42.191 28, 41.916 28 C 41.641 28, 39.429 30.025, 37 32.500" stroke="none" fill="#555555" fill-rule="evenodd"/>
</svg>