<svg xmlns="http://www.w3.org/2000/svg" width="1000" height="1000" viewBox="0 0 1000 1000" version="1.1"><path d="M 642.222 264.413 C 637.566 265.929, 632.728 269.205, 626.500 275.062 C 624.300 277.131, 619.350 280.506, 615.500 282.562 C 609.209 285.922, 604.005 290.291, 604.001 292.215 C 603.998 293.847, 597.292 300.391, 592.447 303.491 C 588.415 306.070, 586.186 308.584, 582.545 314.660 C 579.611 319.556, 576.015 323.956, 572.968 326.377 C 569.420 329.198, 566.937 332.470, 563.860 338.377 C 561.534 342.845, 559.083 347.552, 558.413 348.838 C 557.744 350.124, 554.274 354.250, 550.702 358.007 C 546.902 362.005, 543.693 366.427, 542.967 368.669 C 540.721 375.597, 536.243 383.441, 532.501 387 C 528.226 391.066, 525.683 395.882, 520.931 408.906 C 518.096 416.680, 516.590 419.247, 512.255 423.696 C 505.749 430.373, 504.505 432.757, 502.067 443.213 C 499.524 454.118, 497.084 459.611, 492.611 464.500 C 487.879 469.671, 484.794 476.348, 482.021 487.417 C 479.583 497.148, 477.108 503.319, 474.307 506.647 C 470.947 510.638, 464.039 513.344, 457 513.425 C 450.750 513.497, 450.249 513.314, 443.986 508.675 C 440.404 506.021, 434.208 502.487, 430.218 500.821 C 424.965 498.628, 421.365 496.219, 417.171 492.089 C 412.834 487.819, 409.759 485.795, 404.939 484.037 C 393.220 479.764, 386.037 475.861, 382.684 471.944 C 379.328 468.024, 371.685 463.034, 369 463.011 C 365.801 462.984, 354.507 456.743, 348.234 451.535 C 343.768 447.829, 338.469 444.730, 331.742 441.891 C 324.218 438.716, 320.516 436.456, 316.371 432.505 C 311.028 427.412, 308.674 426.098, 294.562 420.334 C 289.874 418.419, 285.658 415.681, 281.562 411.891 C 275.789 406.549, 270.379 403, 268.008 403 C 265.068 403, 253.802 396.561, 248.155 391.654 C 243.634 387.724, 239.015 384.960, 232.083 382.035 C 224.468 378.822, 221.287 376.836, 217.428 372.887 C 214.718 370.113, 211.150 367.134, 209.501 366.267 C 205.354 364.088, 193.159 360.299, 185.706 358.873 C 182.292 358.221, 172.525 355.892, 164 353.698 C 140.132 347.556, 118.143 343.994, 112.629 345.378 C 109.382 346.193, 107 348.636, 107 351.151 C 107 352.287, 109.542 355.622, 112.851 358.829 C 116.938 362.790, 119.236 366.008, 120.474 369.500 C 123.757 378.767, 126.928 384.475, 131.586 389.500 C 135.816 394.064, 143 406.743, 143 409.645 C 143 412.037, 148.269 417.026, 154.047 420.106 C 157.962 422.193, 161.262 424.977, 163.848 428.376 C 167.843 433.626, 169.037 434.407, 182.034 440.271 C 186.939 442.484, 192.068 445.908, 196.737 450.085 C 201.929 454.732, 205.917 457.299, 211.203 459.398 C 216.984 461.695, 219.642 463.505, 224 468.114 C 227.978 472.322, 231.437 474.800, 236.500 477.072 C 240.350 478.799, 245.300 481.042, 247.500 482.057 C 249.700 483.072, 254.379 486.610, 257.898 489.921 C 262.654 494.395, 266.118 496.644, 271.398 498.687 C 276.892 500.813, 279.807 502.755, 284.272 507.266 C 288.908 511.948, 292.305 514.159, 301.527 518.492 C 310.743 522.822, 314.201 525.071, 319.047 529.888 C 323.281 534.095, 326.740 536.507, 330.624 537.961 C 339.270 541.195, 342.108 542.891, 347.767 548.202 C 351.179 551.404, 356.108 554.541, 361.767 557.110 C 366.570 559.291, 371.625 561.594, 373 562.227 C 374.375 562.861, 378.200 566.122, 381.500 569.475 C 386.227 574.278, 388.879 576.068, 394 577.912 C 402.569 580.998, 407.280 583.815, 414.882 590.398 C 419.162 594.105, 423.761 596.888, 429.280 599.113 C 435.793 601.738, 438.617 603.604, 443.634 608.596 C 447.933 612.875, 451.534 615.438, 455.190 616.822 C 466.758 621.201, 472.259 624.373, 478.139 630.055 C 482.231 634.011, 486.012 636.609, 489.661 637.974 C 498.276 641.198, 502.212 643.533, 506.500 647.965 C 511.419 653.051, 516.064 655.815, 526.803 660.050 C 533.292 662.609, 536.024 664.335, 539.303 667.947 C 544.902 674.113, 548.408 676.426, 555.063 678.344 C 564.320 681.012, 569.891 683.921, 575.539 689.035 C 581.651 694.570, 585.079 696.539, 592.378 698.702 C 599.641 700.855, 603.864 703.189, 611.138 709.069 C 614.637 711.898, 619.525 715.110, 622 716.207 C 635.163 722.041, 636.882 723.182, 640.572 728.540 C 648.528 740.092, 658.200 739.437, 672.289 726.393 C 675.499 723.421, 680.910 719.131, 684.313 716.861 C 687.716 714.590, 693.077 710.072, 696.226 706.821 C 699.552 703.387, 703.953 700.041, 706.726 698.839 C 711.650 696.705, 718 691.448, 718 689.507 C 718 687.773, 725.096 681.415, 729.500 679.203 C 733.940 676.974, 736.231 674.684, 740.763 667.946 C 742.447 665.442, 746.452 661.601, 749.663 659.411 C 753.566 656.748, 756.825 653.388, 759.500 649.267 C 762.318 644.926, 765.297 641.922, 769.580 639.103 C 774.033 636.171, 776.575 633.557, 779.080 629.333 C 781.073 625.972, 784.377 622.230, 787 620.364 C 793.150 615.988, 796.773 612.280, 798.543 608.550 C 800.479 604.472, 804.484 600.255, 810.042 596.443 C 813.053 594.378, 815.388 591.619, 817.235 587.943 C 820.453 581.541, 822.121 579.526, 827.503 575.541 C 832.369 571.938, 833.134 570.977, 836.682 564.014 C 839.962 557.576, 844.431 551.480, 851.071 544.385 C 853.703 541.572, 857.232 536.240, 858.911 532.536 C 861.141 527.619, 863.826 523.984, 868.865 519.064 C 875.444 512.639, 875.844 511.980, 877.439 504.913 C 879.699 494.900, 882.992 488.008, 888.254 482.282 C 895.596 474.292, 895.999 472.045, 894.663 446.475 C 893.968 433.175, 894.103 429.108, 895.456 422.559 C 897.839 411.023, 896.237 406.209, 888.153 400.606 C 885.975 399.097, 882.317 395.187, 880.024 391.919 C 875.596 385.607, 873.730 384.312, 865 381.498 C 857.042 378.934, 853.247 376.792, 846.551 371.084 C 843.280 368.295, 838.780 365.378, 836.551 364.600 C 834.323 363.822, 829.092 362.003, 824.927 360.556 C 819.621 358.713, 815.282 356.262, 810.427 352.362 C 802.999 346.396, 799.210 344.357, 789 340.834 C 783.982 339.102, 781.300 337.370, 777.236 333.236 C 772.190 328.104, 769.170 326.383, 753.500 319.715 C 750.747 318.543, 745.579 314.831, 742 311.455 C 736.673 306.429, 733.942 304.737, 726.869 302.073 C 720.425 299.648, 716.242 297.200, 710.369 292.420 C 704.783 287.874, 699.662 284.817, 692.721 281.885 C 684.713 278.504, 682.177 276.882, 678.721 272.932 C 672.801 266.166, 666.846 263.701, 655.500 263.322 C 649.740 263.129, 644.960 263.522, 642.222 264.413 M 860.415 441.753 C 851.480 447.255, 850.679 447.977, 846.838 454 C 842.515 460.780, 841.843 461.339, 834.874 463.946 C 828.160 466.458, 826.815 467.825, 824 475 C 821.341 481.777, 819.862 483.473, 813.439 487.111 C 809.172 489.528, 807.919 490.959, 805.447 496.239 C 800.767 506.234, 796.559 512.254, 791.752 515.833 C 787.130 519.273, 783.769 524.275, 782.568 529.500 C 781.392 534.616, 777.536 539.382, 772.568 541.861 C 767.421 544.429, 764.337 548.522, 763.420 554 C 761.873 563.238, 759.926 566.948, 753.834 572.267 C 746.889 578.330, 744.667 582.122, 742.952 590.838 C 741.425 598.598, 738.691 602.800, 733.193 605.835 C 727.962 608.723, 726.275 611.897, 723.957 623.212 C 721.843 633.530, 718.885 639.076, 712.815 644.106 C 708.623 647.580, 702.902 657.453, 697.186 671.078 C 695.629 674.788, 694.393 676.065, 690.663 677.818 C 685.475 680.257, 683 684.014, 683 689.450 C 683 696.548, 690.247 699.480, 695.300 694.427 C 696.715 693.012, 698.165 690.526, 698.521 688.903 C 699.521 684.352, 703.562 680.306, 708.868 678.544 C 714.236 676.761, 717.799 673.458, 720.784 667.500 C 723.063 662.950, 725.561 660.452, 730.754 657.534 C 732.744 656.415, 736.201 652.821, 738.436 649.547 C 740.671 646.273, 744.525 642.109, 747 640.293 C 753.494 635.530, 755.882 633.014, 758.189 628.500 C 761.036 622.928, 762.806 621.136, 768.120 618.441 C 772.914 616.010, 778 610.871, 778 608.458 C 778 606.192, 784.002 600.040, 788.402 597.795 C 793.354 595.269, 794.211 594.248, 798.111 586.233 C 800.576 581.167, 802.260 579.219, 806.890 576.075 C 811.770 572.760, 813.094 571.153, 815.829 565.221 C 818.231 560.009, 820.649 556.771, 825.441 552.350 C 830.951 547.267, 832.622 544.817, 837.430 534.778 C 842.191 524.837, 843.688 522.630, 847.550 519.856 C 853.061 515.899, 855.188 512.558, 857.801 503.756 C 859.101 499.372, 861.540 494.647, 864.768 490.256 C 870.952 481.842, 871.090 481.568, 874.962 470 C 880.129 454.565, 880.238 446.813, 875.371 441.029 C 871.855 436.850, 868.081 437.033, 860.415 441.753 M 558.242 558.621 C 550.355 562.446, 548.690 563.688, 546.992 567.015 C 544.526 571.850, 544.389 579.650, 546.685 584.466 C 548.183 587.607, 548.798 588, 552.218 588 C 554.341 588, 558.279 586.879, 561 585.500 C 565.915 583.009, 570.427 582.349, 572.691 583.788 C 573.346 584.204, 575.166 587.010, 576.736 590.022 C 579.285 594.913, 579.967 595.532, 583.102 595.799 C 587.696 596.190, 591.514 594.671, 593.480 591.671 C 595.977 587.860, 596.468 580.122, 594.617 573.755 C 593.094 568.514, 592.587 567.920, 586.248 563.942 C 582.536 561.614, 577.860 558.424, 575.856 556.854 C 573.852 555.284, 571.152 554.030, 569.856 554.066 C 568.560 554.102, 563.334 556.151, 558.242 558.621 M 538 594.768 C 530.891 595.696, 527.515 599.790, 525.443 609.996 C 524.055 616.832, 521.903 619.811, 516.306 622.643 C 511.118 625.268, 508.896 628.405, 510.448 630.916 C 511.635 632.836, 518.850 634.047, 526.899 633.677 L 534.916 633.309 539.530 627.171 C 544.322 620.798, 548.722 617, 551.317 617 C 552.146 617, 555.518 619.250, 558.809 622 C 562.100 624.750, 565.627 626.986, 566.646 626.968 C 571.059 626.892, 573.297 623.097, 574.938 612.902 C 576.891 600.778, 574.616 598.542, 559.500 597.724 C 554.550 597.456, 549.150 596.665, 547.500 595.966 C 544.213 594.572, 541.815 594.270, 538 594.768 M 536.172 637.063 C 535.287 639.458, 536.263 645.754, 538.032 649.060 C 539.494 651.791, 544.144 654.749, 548.162 655.503 C 555.860 656.947, 561.399 650.210, 559.281 641.982 C 558.111 637.437, 554.919 635.942, 544.923 635.257 C 537.338 634.737, 537.007 634.806, 536.172 637.063" stroke="none" fill="#444" fill-rule="evenodd"/></svg>