<svg xmlns="http://www.w3.org/2000/svg" width="50" height="50" viewBox="0 0 50 50" version="1.1">
	<path d="M 43.638 21.500 C 43.955 22.325, 44.391 23, 44.607 23 C 44.823 23, 45 22.325, 45 21.500 C 45 20.675, 44.564 20, 44.031 20 C 43.499 20, 43.322 20.675, 43.638 21.500 M 36.437 33.250 L 33.500 36.500 36.750 33.563 C 39.779 30.825, 40.460 30, 39.687 30 C 39.515 30, 38.052 31.462, 36.437 33.250 M 23 32.430 C 23 32.705, 23.900 33.411, 25 34 C 26.100 34.589, 27 34.845, 27 34.570 C 27 34.295, 26.100 33.589, 25 33 C 23.900 32.411, 23 32.155, 23 32.430 M 31 36 C 29.718 36.828, 29.754 36.972, 31.250 36.985 C 32.212 36.993, 33 36.550, 33 36 C 33 34.780, 32.887 34.780, 31 36" stroke="none" fill="#555555" fill-rule="evenodd"/>
</svg>