<svg xmlns="http://www.w3.org/2000/svg" width="50" height="50" viewBox="0 0 50 50" version="1.1">
	<path d="M 33 11.430 C 33 11.705, 33.900 12.411, 35 13 C 36.100 13.589, 37 13.845, 37 13.570 C 37 13.295, 36.100 12.589, 35 12 C 33.900 11.411, 33 11.155, 33 11.430 M 25 14.286 C 23.625 15.504, 22.672 16.403, 22.881 16.285 C 23.091 16.167, 24.216 16.560, 25.381 17.158 C 27.115 18.047, 27.275 18.007, 26.264 16.936 C 25.277 15.892, 25.359 15.260, 26.669 13.814 C 28.901 11.347, 28.044 11.590, 25 14.286 M 38 14.430 C 38 14.705, 38.900 15.411, 40 16 C 41.100 16.589, 42 16.845, 42 16.570 C 42 16.295, 41.100 15.589, 40 15 C 38.900 14.411, 38 14.155, 38 14.430 M 33.500 18 C 33.840 18.550, 34.316 19, 34.559 19 C 34.802 19, 35 18.550, 35 18 C 35 17.450, 34.523 17, 33.941 17 C 33.359 17, 33.160 17.450, 33.500 18 M 40.653 20.648 C 39.086 22.490, 37.329 23.704, 36.748 23.344 C 36.101 22.945, 35.989 23.173, 36.458 23.932 C 37.010 24.825, 38.177 24.251, 40.613 21.891 C 43.543 19.051, 44 18.874, 44 20.581 C 44 21.667, 43.289 23.668, 42.420 25.027 L 40.840 27.500 42.920 25.139 C 44.960 22.824, 45.731 18.517, 44.250 17.708 C 43.837 17.483, 42.219 18.806, 40.653 20.648 M 18.989 21.250 C 17.899 23.038, 17.006 24.912, 17.004 25.417 C 16.999 26.556, 17.141 26.370, 19.786 21.750 C 22.415 17.157, 21.742 16.735, 18.989 21.250 M 31 20.430 C 31 20.705, 31.900 21.411, 33 22 C 34.100 22.589, 35 22.845, 35 22.570 C 35 22.295, 34.100 21.589, 33 21 C 31.900 20.411, 31 20.155, 31 20.430 M 29 23 C 29 23.550, 29.450 24, 30 24 C 30.550 24, 31 23.550, 31 23 C 31 22.450, 30.550 22, 30 22 C 29.450 22, 29 22.450, 29 23 M 35 28 C 34.411 29.100, 34.155 30, 34.430 30 C 34.705 30, 35.411 29.100, 36 28 C 36.589 26.900, 36.845 26, 36.570 26 C 36.295 26, 35.589 26.900, 35 28 M 16 27.941 C 16 28.459, 16.445 29.157, 16.989 29.493 C 17.555 29.843, 17.723 29.442, 17.382 28.552 C 16.717 26.820, 16 26.503, 16 27.941 M 36.518 31.982 C 32.330 36.271, 31.167 36.551, 32.974 32.836 C 34.057 30.609, 34.038 30.591, 32.555 32.441 C 31.700 33.509, 31 34.794, 31 35.298 C 31 35.802, 30.302 35.946, 29.448 35.618 C 28.558 35.277, 28.157 35.445, 28.507 36.011 C 29.779 38.069, 32.732 36.848, 37 32.500 C 39.429 30.025, 41.189 28, 40.911 28 C 40.633 28, 38.656 29.792, 36.518 31.982 M 21 31.430 C 21 31.705, 21.900 32.411, 23 33 C 24.100 33.589, 25 33.845, 25 33.570 C 25 33.295, 24.100 32.589, 23 32 C 21.900 31.411, 21 31.155, 21 31.430" stroke="none" fill="#555555" fill-rule="evenodd"/>
</svg>