<svg xmlns="http://www.w3.org/2000/svg" width="800" height="800" viewBox="0 0 800 800" version="1.1"><path d="M 506 213.163 C 504.075 213.703, 500.475 216.077, 498 218.439 C 495.525 220.801, 491.250 223.940, 488.500 225.414 C 480.590 229.655, 452.954 257.244, 449.156 264.693 C 447.980 266.999, 444.931 270.599, 442.380 272.693 C 439.081 275.400, 436.799 278.522, 434.479 283.500 C 432.685 287.350, 429.553 292.075, 427.521 294 C 423.493 297.814, 421.154 301.840, 417.877 310.600 C 416.540 314.174, 413.786 318.426, 410.480 322.021 C 407.584 325.172, 404.970 328.593, 404.672 329.625 C 399.866 346.238, 399.919 346.122, 395.053 350.838 C 389.166 356.543, 388.393 358.001, 386.514 366.932 C 384.644 375.825, 382.946 379.710, 379.276 383.500 C 374.428 388.506, 373.196 391.105, 371.008 400.946 C 368.544 412.027, 365.808 417.423, 361.812 419.078 C 358.217 420.567, 342.404 419.813, 338.939 417.988 C 337.598 417.281, 333.782 414.182, 330.461 411.101 C 325.932 406.901, 322.514 404.779, 316.796 402.618 C 310.830 400.363, 308.020 398.570, 303.882 394.381 C 300.170 390.622, 297.090 388.535, 293.547 387.377 C 286.208 384.981, 283.776 383.578, 277.616 378.187 C 274.157 375.159, 269.395 372.294, 264.883 370.524 C 259.826 368.540, 256.429 366.396, 253.503 363.342 C 250.465 360.171, 246.774 357.895, 239.917 354.965 C 232.960 351.991, 229.198 349.657, 225.502 346.019 C 222.019 342.592, 218.283 340.199, 213.198 338.137 C 208.649 336.292, 204.124 333.520, 201.198 330.784 C 198.177 327.960, 193.643 325.217, 188.500 323.102 C 182.694 320.714, 178.992 318.361, 175 314.521 C 171.202 310.868, 167.643 308.552, 163.500 307.039 C 156.283 304.402, 152.501 302.142, 145.945 296.546 C 143.220 294.220, 139.112 291.697, 136.815 290.939 C 134.492 290.172, 130.109 287.218, 126.936 284.281 C 123.799 281.376, 120.520 279, 119.650 279 C 118.779 279, 115.861 280.913, 113.165 283.250 C 110.469 285.587, 106.697 288.702, 104.783 290.172 C 102.366 292.027, 100.602 294.717, 99.012 298.969 C 97.717 302.431, 94.888 307.139, 92.506 309.797 C 87.004 315.936, 85 319.982, 85 324.950 C 85 330.097, 87.037 332.177, 94.878 335.036 C 98.891 336.499, 102.940 339.064, 106.916 342.662 C 110.210 345.643, 115.791 349.391, 119.316 350.989 C 123.896 353.066, 126.928 355.331, 129.933 358.920 C 133.202 362.825, 135.468 364.428, 140.110 366.120 C 144.017 367.545, 148.220 370.206, 152.270 373.820 C 155.747 376.922, 161.628 380.806, 165.690 382.683 C 170.902 385.091, 173.978 387.310, 176.710 390.630 C 179.349 393.837, 182.458 396.126, 186.945 398.164 C 190.490 399.774, 195.501 403.065, 198.080 405.478 C 200.659 407.890, 206.841 411.909, 211.819 414.409 C 218.102 417.565, 221.860 420.188, 224.111 422.988 C 226.211 425.601, 229.667 428.112, 233.926 430.118 C 237.542 431.821, 242.753 435.337, 245.506 437.933 C 249.019 441.244, 253.039 443.674, 258.979 446.076 C 265.421 448.682, 268.655 450.714, 272.512 454.582 C 276.245 458.325, 279.445 460.377, 284.657 462.369 C 289.319 464.151, 293.821 466.881, 297.854 470.373 C 301.799 473.790, 306.507 476.668, 311.100 478.470 C 316.389 480.545, 319.412 482.522, 322.828 486.141 C 325.898 489.394, 329.204 491.681, 332.761 493.012 C 341.486 496.276, 345.809 498.823, 350.538 503.485 C 353.478 506.384, 357.107 508.661, 361.117 510.123 C 365.002 511.540, 369.123 514.088, 372.460 517.137 C 375.643 520.047, 381.389 523.658, 387.100 526.338 C 393.592 529.385, 397.874 532.175, 400.940 535.357 C 404.228 538.768, 407 540.503, 411.621 542.040 C 415.053 543.182, 419.580 545.440, 421.681 547.057 C 423.781 548.675, 427.243 551.341, 429.374 552.981 C 431.505 554.622, 436.372 556.971, 440.189 558.200 C 444.920 559.724, 448.780 561.849, 452.315 564.877 C 457.369 569.206, 462.422 571.879, 472.390 575.497 C 475.079 576.473, 479.639 579.409, 482.522 582.020 C 488.685 587.602, 495.397 590.357, 508.465 592.673 L 517.808 594.328 527.841 591.148 C 537.338 588.137, 538.125 587.673, 542.598 582.437 C 545.659 578.854, 549.209 576.013, 552.677 574.373 C 556.172 572.719, 559.241 570.255, 561.518 567.272 C 563.437 564.760, 567.592 560.804, 570.753 558.482 C 576.635 554.161, 599.789 531.196, 606.670 522.859 C 610.525 518.188, 617.739 510.642, 630.299 498.144 C 634.038 494.422, 638.116 489.691, 639.360 487.630 C 640.604 485.569, 643.817 482.221, 646.499 480.191 C 649.321 478.055, 652.783 474.090, 654.715 470.779 C 656.758 467.280, 659.799 463.858, 662.545 461.969 C 665.937 459.636, 667.721 457.366, 669.842 452.689 C 671.930 448.084, 673.711 445.795, 676.796 443.753 C 681.432 440.686, 682.988 438.149, 685.417 429.700 C 686.799 424.895, 688.176 422.830, 693.447 417.662 C 698.353 412.851, 700.060 410.404, 700.907 406.962 C 703.702 395.603, 705.179 392.171, 709.403 387.222 C 711.841 384.366, 714.323 380.552, 714.919 378.745 C 715.515 376.939, 716.115 367.820, 716.251 358.480 C 716.498 341.639, 716.478 341.463, 713.816 337 C 710.411 331.289, 700.053 319.599, 693.295 313.838 C 689.999 311.029, 685.597 308.538, 681.295 307.047 C 672.101 303.861, 669.214 302.333, 664.383 298.094 C 661.658 295.703, 657.014 293.322, 650.652 291.054 C 643.590 288.537, 639.709 286.463, 636.022 283.238 C 632.975 280.572, 627.373 277.296, 621.759 274.897 C 615.344 272.155, 611.133 269.592, 608.007 266.525 C 604.892 263.470, 600.821 260.986, 594.829 258.485 C 589.276 256.167, 584.194 253.148, 580.696 250.086 C 577.441 247.238, 572.459 244.205, 568.367 242.580 C 563.935 240.821, 559.902 238.294, 556.993 235.455 C 553.859 232.394, 549.599 229.821, 543 227 C 536.366 224.165, 532.158 221.617, 529.007 218.530 C 526.528 216.101, 523.233 213.638, 521.685 213.057 C 518.271 211.775, 510.764 211.826, 506 213.163 M 690.254 356.519 C 689.018 357.393, 686.875 360.501, 685.492 363.426 C 683.258 368.148, 682.094 369.257, 675.102 373.319 C 669.646 376.489, 666.517 379.061, 664.909 381.697 C 663.634 383.789, 658.970 389.334, 654.545 394.021 C 650.120 398.708, 644.206 405.008, 641.403 408.021 C 638.599 411.034, 634.825 414.850, 633.016 416.500 C 631.207 418.150, 628.751 421.975, 627.559 425 C 626.010 428.933, 624.441 431.070, 622.055 432.500 C 615.858 436.213, 613.282 439.347, 612.560 444.052 C 611.462 451.215, 610.228 453.346, 605.415 456.390 C 599.778 459.957, 598.563 461.819, 596.539 470 C 594.263 479.200, 593.257 480.736, 588.255 482.647 C 582.699 484.769, 581.233 486.997, 580.446 494.520 C 579.411 504.419, 578.315 506.704, 572.567 510.950 C 567.100 514.990, 566.192 516.532, 563.417 526.500 C 560.199 538.060, 559.112 539.909, 554.017 542.491 C 548.856 545.107, 546.600 548.838, 546.600 554.757 C 546.600 563.176, 556.677 560.483, 562.089 550.617 C 563.709 547.664, 566.520 544.658, 569.600 542.584 C 572.307 540.761, 576.429 536.550, 578.761 533.226 C 581.092 529.902, 587.837 522.606, 593.750 517.013 C 599.662 511.420, 605.500 505.192, 606.722 503.172 C 607.944 501.152, 611.311 497.680, 614.205 495.456 C 617.115 493.219, 620.731 489.199, 622.300 486.456 C 624.078 483.347, 626.870 480.382, 629.793 478.500 C 632.938 476.475, 635.444 473.718, 637.503 470.017 C 639.470 466.481, 641.851 463.806, 644.209 462.483 C 649.974 459.249, 651.505 457.413, 653.372 451.490 C 654.771 447.051, 655.876 445.472, 658.934 443.541 C 662.923 441.023, 666.993 436.525, 667.010 434.615 C 667.038 431.395, 672.490 422.462, 676.915 418.386 C 681.973 413.727, 683.562 410.576, 685.932 400.500 C 686.752 397.014, 688.285 394.289, 690.997 391.500 C 693.871 388.544, 695.705 385.150, 698.023 378.500 C 703.378 363.133, 703.665 361.370, 701.325 358.223 C 698.889 354.945, 693.624 354.135, 690.254 356.519 M 452.527 453.250 C 450.572 454.952, 449.699 457.032, 448.943 461.789 C 446.811 475.208, 452.715 482.964, 463.912 481.456 C 474.825 479.986, 478.270 477.492, 478.182 471.126 C 478.111 465.927, 475.044 460.272, 470.118 456.251 C 463.042 450.476, 456.914 449.431, 452.527 453.250 M 482.256 563.923 C 472.479 566.401, 474.501 571.135, 486.599 574.094 C 493.238 575.717, 496.738 577.571, 501.660 582.072 C 509.187 588.954, 518.064 588.765, 524.500 581.586 C 526.761 579.064, 531.163 575.814, 534.624 574.111 C 540.668 571.138, 542 569.661, 542 565.937 C 542 562.464, 538.646 562.314, 521.333 565.014 C 514.788 566.035, 511.412 566.042, 504.333 565.051 C 491.671 563.278, 485.952 562.986, 482.256 563.923" stroke="none" fill="#444" fill-rule="evenodd"/></svg>