<svg xmlns="http://www.w3.org/2000/svg" width="800" height="800" viewBox="0 0 800 800" version="1.1"><path d="M 514.625 213.458 C 512.493 214.224, 509.343 216.163, 507.625 217.767 C 503.111 221.979, 499.274 224.364, 492.695 227.047 C 488.176 228.889, 486.125 230.480, 483.432 234.228 C 481.530 236.876, 477.505 240.621, 474.488 242.551 C 470.429 245.148, 468.343 247.363, 466.459 251.080 C 464.828 254.299, 462.278 257.250, 459.355 259.301 C 456.214 261.504, 453.879 264.307, 451.855 268.304 C 450.239 271.496, 446.456 276.785, 443.448 280.057 C 440.112 283.685, 436.448 289.222, 434.052 294.253 C 431.194 300.255, 428.893 303.527, 425.596 306.272 C 421.888 309.360, 420.706 311.212, 419.076 316.489 C 416.408 325.127, 414.522 328.593, 409.349 334.364 C 406.361 337.698, 404.494 341.001, 403.415 344.864 C 400.476 355.380, 398.738 358.989, 394 364.403 C 390.075 368.888, 388.893 371.224, 387.044 378.153 C 384.187 388.859, 382.023 393.764, 378.265 398.051 C 376.601 399.948, 373.895 404.471, 372.250 408.103 C 370.605 411.734, 368.201 415.446, 366.907 416.353 C 362.024 419.773, 350.690 417.509, 347.376 412.451 C 345.266 409.231, 339.710 405.855, 330.399 402.133 C 324.493 399.773, 321.168 397.710, 318.131 394.523 C 315.657 391.928, 312.042 389.452, 309.232 388.430 C 298.315 384.458, 293.128 381.647, 289.156 377.548 C 285.887 374.175, 283.136 372.575, 276.836 370.382 C 271.088 368.381, 267.333 366.306, 263.947 363.262 C 259.585 359.341, 256.870 357.856, 244.345 352.544 C 242.059 351.575, 238.339 348.840, 236.077 346.467 C 232.794 343.022, 230.127 341.495, 222.839 338.888 C 215.227 336.165, 212.865 334.771, 208.606 330.485 C 205.344 327.202, 201.695 324.688, 198.500 323.524 C 188.347 319.823, 185.050 318.088, 180.824 314.223 C 175.832 309.657, 172.295 307.693, 166.032 306.008 C 163.574 305.346, 158.583 303.304, 154.939 301.470 C 148.422 298.187, 134.701 294.963, 114.559 291.981 C 102.757 290.234, 94 292.323, 94 296.887 C 94 300.525, 102.893 316.720, 106.495 319.641 C 108.833 321.538, 111.782 326.032, 115.259 333 C 120.474 343.448, 120.539 343.525, 128.500 348.660 C 132.900 351.497, 139.238 356.222, 142.585 359.160 C 146.623 362.703, 150.628 365.161, 154.490 366.465 C 158.325 367.760, 162.105 370.071, 165.576 373.243 C 168.760 376.153, 174.332 379.668, 179.671 382.132 C 185.850 384.985, 189.723 387.540, 192.576 390.642 C 195.508 393.832, 198.729 395.922, 204.058 398.091 C 208.626 399.949, 213.666 403.019, 217.204 406.097 C 220.361 408.842, 226.389 412.658, 230.600 414.577 C 235.814 416.953, 239.732 419.617, 242.879 422.925 C 246.403 426.631, 249.209 428.419, 254.701 430.460 C 259.750 432.337, 263.677 434.722, 267.845 438.441 C 271.840 442.005, 276.058 444.612, 280.707 446.388 C 285.364 448.167, 288.912 450.362, 291.562 453.100 C 295.836 457.517, 299.740 459.808, 308.700 463.161 C 312.520 464.590, 316.374 467.123, 320.021 470.602 C 324.050 474.445, 327.443 476.579, 332.525 478.467 C 337.157 480.187, 341.661 482.890, 345.933 486.511 C 350.074 490.022, 354.833 492.908, 359.293 494.612 C 364.412 496.568, 367.396 498.505, 370.729 502.036 C 374.201 505.716, 377.285 507.662, 384.148 510.507 C 390.451 513.119, 394.586 515.627, 398.279 519.078 C 401.902 522.463, 405.476 524.651, 409.957 526.228 C 414.554 527.845, 418.065 530.026, 422.140 533.795 C 426.551 537.875, 429.750 539.778, 436.077 542.088 C 446.264 545.805, 446.883 546.138, 452.281 550.811 C 455.184 553.323, 459.791 555.725, 465.897 557.909 C 473.520 560.636, 476.046 562.109, 480.416 566.375 C 485.031 570.880, 486.903 571.914, 495.080 574.470 C 503.123 576.985, 505.271 578.152, 510.218 582.700 C 515.207 587.287, 516.530 588, 520.051 588 C 523.532 588, 524.870 587.302, 529.310 583.169 C 532.164 580.512, 538.100 576.452, 542.500 574.148 C 547.308 571.630, 552.120 568.167, 554.561 565.471 C 556.794 563.003, 561.349 559.525, 564.682 557.742 C 568.457 555.723, 572.035 552.803, 574.168 550 C 576.052 547.525, 579.473 544.460, 581.771 543.189 C 584.069 541.918, 586.973 539.500, 588.224 537.815 C 591.161 533.861, 597.883 527.147, 601.907 524.147 C 603.644 522.854, 605.967 520.024, 607.072 517.860 C 608.370 515.314, 611.005 512.693, 614.533 510.436 C 617.992 508.223, 620.699 505.551, 621.934 503.129 C 623.758 499.553, 627.535 495.786, 633.295 491.796 C 634.648 490.858, 637.048 487.859, 638.628 485.130 C 640.207 482.401, 643.525 478.647, 646 476.788 C 648.475 474.928, 651.574 471.465, 652.886 469.092 C 654.199 466.719, 657.648 462.526, 660.552 459.774 C 663.456 457.021, 668.080 451.109, 670.829 446.635 C 673.577 442.161, 677.740 436.704, 680.079 434.508 C 682.418 432.313, 685.449 428.038, 686.814 425.008 C 688.180 421.979, 691.631 417.024, 694.484 413.997 C 698.889 409.324, 700.158 407.031, 702.902 398.793 C 704.735 393.291, 708.018 386.224, 710.487 382.465 C 716.050 373.996, 717.412 368.339, 717.460 353.500 C 717.517 336.366, 716.597 333.878, 706.369 323.511 C 701.766 318.846, 698 314.591, 698 314.056 C 698 312.451, 689.967 308.376, 682.365 306.125 C 677.079 304.560, 673.969 302.884, 670.365 299.660 C 664.454 294.371, 662.891 293.517, 654.262 290.860 C 645.354 288.117, 642.797 286.726, 638.277 282.165 C 636.200 280.068, 632.250 277.533, 629.500 276.531 C 618.267 272.437, 613.051 269.627, 608.979 265.478 C 605.978 262.421, 602.781 260.436, 598.321 258.862 C 594.137 257.385, 589.811 254.787, 585.724 251.298 C 581.354 247.567, 577.023 245.035, 571.185 242.796 C 564.730 240.320, 561.828 238.532, 558.206 234.799 C 555.418 231.925, 551.723 229.337, 549.021 228.365 C 539.394 224.904, 532.097 221.077, 530.513 218.661 C 526.996 213.293, 520.762 211.251, 514.625 213.458 M 688.992 358.445 C 687.613 359.196, 684.493 362.559, 682.059 365.918 C 679.621 369.284, 675.479 373.409, 672.834 375.107 C 670.193 376.801, 666.398 380.414, 664.400 383.136 C 662.126 386.235, 658.976 388.992, 655.972 390.514 C 650.473 393.301, 647.790 396.614, 645.890 402.965 C 644.572 407.371, 639.869 412.865, 633.223 417.763 C 631.184 419.266, 629.579 421.786, 628.448 425.263 C 626.363 431.667, 624.947 433.363, 619.473 436.013 C 615.055 438.152, 614.036 439.777, 611.954 448 C 611.094 451.398, 609.501 453.725, 605.449 457.500 C 599.903 462.668, 598.096 465.943, 596.071 474.500 C 594.622 480.619, 593.671 481.934, 588.211 485.373 C 583.299 488.466, 582.534 490.019, 581.497 498.994 C 580.703 505.867, 578.896 508.434, 570.220 515.013 C 567.794 516.852, 566.160 519.585, 563.949 525.500 C 560.643 534.347, 560.430 539.281, 563.329 539.830 C 567.137 540.552, 570.080 538.807, 573.997 533.504 C 576.219 530.497, 579.993 526.565, 582.384 524.768 C 584.775 522.971, 587.680 519.857, 588.839 517.848 C 590.973 514.150, 593.654 511.702, 600 507.656 C 602.058 506.343, 604.397 503.537, 605.679 500.842 C 607.259 497.518, 609.242 495.407, 612.897 493.158 C 616.584 490.890, 618.619 488.711, 620.476 485.047 C 622.594 480.868, 623.963 479.569, 628.727 477.220 C 634.075 474.583, 634.589 474.009, 636.800 468.220 C 638.884 462.762, 639.728 461.729, 643.999 459.404 C 648.087 457.179, 649.233 455.861, 651.379 450.913 C 653.343 446.383, 655.060 444.235, 658.950 441.441 C 662.831 438.652, 664.701 436.317, 667.133 431.222 C 668.983 427.344, 672.849 421.888, 676.496 418.005 C 681.630 412.538, 682.920 410.448, 683.941 405.946 C 684.619 402.951, 685.400 399.683, 685.675 398.685 C 685.951 397.687, 688.334 395.320, 690.971 393.426 C 693.608 391.531, 696.257 388.748, 696.858 387.241 C 698.338 383.526, 702 366.231, 702 362.952 C 702 357.656, 694.937 355.209, 688.992 358.445 M 459.923 449.496 C 453.266 451.625, 451.489 454.036, 451.551 460.857 C 451.645 471.237, 456.031 476.085, 465.979 476.805 C 474.019 477.386, 476.430 475.769, 478.587 468.348 C 483.062 452.955, 474.898 444.709, 459.923 449.496 M 548.775 547.561 C 543.083 550.645, 543.532 555.908, 549.363 554.445 C 552.672 553.615, 554.235 551.667, 553.827 548.883 C 553.410 546.041, 552.176 545.718, 548.775 547.561 M 509.121 559.012 C 500.607 560.998, 503.183 568.525, 513.237 571.044 C 521.944 573.225, 531.773 569.799, 533.274 564.058 C 534.344 559.970, 532.029 558.839, 521.947 558.521 C 516.751 558.357, 510.979 558.578, 509.121 559.012" stroke="none" fill="#444" fill-rule="evenodd"/></svg>