<svg xmlns="http://www.w3.org/2000/svg" width="50" height="50" viewBox="0 0 50 50" version="1.1">
	<path d="M 28.437 16.250 C 26.930 18.038, 25.071 20.994, 24.306 22.820 L 22.915 26.140 18.207 23.415 C 15.618 21.916, 12.612 20.084, 11.527 19.345 C 10.443 18.605, 8.526 18, 7.269 18 C 5.326 18, 5.150 18.267, 6.097 19.784 C 7.322 21.746, 10.136 23.699, 23.342 31.755 C 28.205 34.722, 32.443 36.890, 32.759 36.574 C 33.075 36.259, 32.708 36, 31.944 36 C 31.086 36, 31.365 35.433, 32.673 34.517 C 33.837 33.701, 35.937 31.078, 37.338 28.687 C 40.738 22.884, 42.836 21.129, 44.061 23.064 C 44.769 24.183, 44.973 24.022, 44.985 22.336 C 44.996 20.709, 43.410 19.283, 38.588 16.586 C 35.061 14.614, 31.951 13, 31.676 13 C 31.402 13, 29.945 14.462, 28.437 16.250 M 38 31.500 C 35.571 33.975, 33.809 36, 34.084 36 C 34.359 36, 36.571 33.975, 39 31.500 C 41.429 29.025, 43.191 27, 42.916 27 C 42.641 27, 40.429 29.025, 38 31.500 M 28 29 C 28 29.550, 28.450 30, 29 30 C 29.550 30, 30 29.550, 30 29 C 30 28.450, 29.550 28, 29 28 C 28.450 28, 28 28.450, 28 29" stroke="none" fill="#555555" fill-rule="evenodd"/>
</svg>