<svg xmlns="http://www.w3.org/2000/svg" width="800" height="800" viewBox="0 0 800 800" version="1.1"><path d="M 455.336 199.567 C 454.501 201.744, 456.056 203, 460.943 204.099 C 465.427 205.106, 467 204.694, 467 202.512 C 467 198.492, 456.742 195.902, 455.336 199.567 M 402.881 239.257 C 400.341 241.591, 397.078 244.309, 395.631 245.297 C 391.949 247.811, 392.308 249.780, 396.596 250.584 C 405.147 252.188, 411.467 247.124, 410.807 239.198 C 410.386 234.146, 408.430 234.160, 402.881 239.257 M 700.241 294.107 C 696.252 295.582, 697.806 299.222, 704 302.909 C 705.925 304.055, 708.272 304.994, 709.215 304.996 C 711.405 305.001, 713.297 301.512, 712.488 298.961 C 711.422 295.603, 704.072 292.690, 700.241 294.107 M 434.400 338.400 C 430.136 342.664, 429.682 346.472, 432.721 352.500 C 437.899 362.770, 442.605 362.284, 451.148 350.600 C 454.722 345.713, 454.747 343.070, 451.250 339.809 C 444.805 333.798, 439.450 333.350, 434.400 338.400 M 311.200 348.200 C 310.540 348.860, 310 351.534, 310 354.143 C 310 359.863, 312.318 362.008, 318.473 361.985 C 325.797 361.957, 325.915 360.885, 319.400 353.599 C 316.155 349.970, 313.252 347.001, 312.950 347.001 C 312.647 347, 311.860 347.540, 311.200 348.200 M 494.247 369.960 C 484.512 374.565, 483.513 379.993, 491.076 387.187 C 496.233 392.092, 501.969 393.906, 505.340 391.697 C 508.562 389.586, 512 382.301, 512 377.584 C 512 374.614, 511.269 373.069, 508.600 370.400 C 504.423 366.223, 502.285 366.157, 494.247 369.960 M 598.482 379.945 C 593.535 381.952, 592.029 392.101, 595.593 399.410 C 598.326 405.013, 600.593 406.146, 602.928 403.075 C 604.893 400.492, 611 383.567, 611 380.706 C 611 379.307, 610.056 379.011, 605.750 379.063 C 602.862 379.098, 599.592 379.495, 598.482 379.945 M 579.500 419.945 C 573.604 422.359, 572.448 429.079, 577.593 431.035 C 581.614 432.564, 583.909 432.182, 586.545 429.545 C 592.113 423.978, 586.923 416.907, 579.500 419.945 M 502.030 575.430 C 499.869 580.471, 498.410 581.467, 491.773 582.430 C 486.807 583.150, 485.073 584.473, 486.813 586.213 C 488.786 588.186, 495.804 587.565, 500.492 585.005 C 504.936 582.577, 505.042 582.568, 508.345 584.347 C 511.977 586.302, 518.094 586.267, 518.744 584.287 C 518.965 583.614, 517.885 582.772, 516.321 582.397 C 510.653 581.036, 508.384 579.224, 507.138 575.066 C 506.468 572.830, 505.472 571, 504.924 571 C 504.377 571, 503.074 572.993, 502.030 575.430" stroke="none" fill="#444" fill-rule="evenodd"/></svg>