<svg xmlns="http://www.w3.org/2000/svg" width="800" height="800" viewBox="0 0 800 800" version="1.1"><path d="M 513.602 218.416 C 510.796 221.395, 506.538 224.804, 504.141 225.992 C 501.744 227.180, 497.019 230.804, 493.641 234.046 C 490.263 237.287, 483.289 243.891, 478.143 248.720 C 472.997 253.549, 467.088 259.975, 465.011 263 C 462.935 266.025, 459.425 270.117, 457.212 272.093 C 454.999 274.068, 451.804 278.427, 450.112 281.777 C 448.259 285.448, 445.237 289.374, 442.508 291.655 C 439.223 294.401, 437.423 296.961, 435.958 300.971 C 432.133 311.436, 431.567 312.438, 426.022 318.557 C 421.503 323.543, 420.031 326.093, 418.170 332.160 C 416.706 336.930, 414.468 341.409, 411.973 344.563 C 406.576 351.384, 404.426 355.568, 402.500 363 C 400.461 370.869, 398.282 375.131, 393.189 381.212 C 390.353 384.599, 388.756 387.833, 387.512 392.712 C 383.712 407.616, 382.971 409.679, 380.628 411.880 C 377.832 414.506, 372.600 415.942, 365.700 415.976 C 359.719 416.006, 356.103 414.181, 352.080 409.101 C 349.813 406.239, 347.498 404.669, 343.722 403.434 C 336.020 400.915, 331.897 398.627, 326.019 393.609 C 322.714 390.788, 318.080 388.138, 313.584 386.498 C 308.306 384.573, 304.970 382.516, 300.926 378.692 C 296.877 374.863, 293.868 373.009, 289.467 371.631 C 280.823 368.923, 276.661 366.574, 271.803 361.663 C 268.887 358.714, 265.727 356.734, 262 355.519 C 253.740 352.826, 248.984 350.194, 243.980 345.548 C 241.103 342.876, 236.820 340.342, 232.192 338.573 C 227.623 336.828, 222.811 333.994, 219.241 330.947 C 215.308 327.591, 210.934 325.113, 205.030 322.895 C 198.083 320.286, 195.571 318.730, 191.493 314.509 C 187.261 310.128, 185.215 308.903, 178.270 306.590 C 172.159 304.555, 168.786 302.714, 165.106 299.406 C 157.159 292.260, 153.758 291.220, 134.437 290.022 C 125.122 289.444, 115.700 288.539, 113.500 288.010 C 102.733 285.420, 97.634 287.751, 97.747 295.211 C 97.831 300.750, 99.849 304.821, 106.072 312 C 108.694 315.025, 112.392 320.914, 114.289 325.088 C 116.919 330.873, 118.596 333.206, 121.353 334.909 C 123.341 336.138, 127.031 339.559, 129.553 342.511 C 133.267 346.857, 135.438 348.375, 140.971 350.489 C 145.354 352.164, 149.892 354.928, 153.634 358.203 C 156.847 361.014, 163.066 364.969, 167.483 367.011 C 173.187 369.647, 176.418 371.869, 178.681 374.714 C 180.891 377.491, 183.640 379.413, 187.681 381.007 C 195.650 384.151, 199.798 386.641, 204.500 391.104 C 206.700 393.193, 212.015 396.499, 216.311 398.453 C 221.627 400.871, 225.405 403.415, 228.142 406.423 C 231.143 409.720, 234.182 411.655, 240.123 414.050 C 245.881 416.370, 249.841 418.851, 254.433 423.013 C 258.645 426.830, 262.531 429.348, 265.975 430.492 C 269.279 431.589, 273.357 434.171, 277.192 437.592 C 281.581 441.509, 285.267 443.719, 290.770 445.734 C 296.544 447.849, 299.773 449.841, 304.482 454.197 C 308.645 458.048, 312.563 460.605, 316.571 462.088 C 323.201 464.542, 326.619 466.666, 332.550 472.018 C 334.777 474.028, 339.749 476.875, 343.597 478.346 C 348.737 480.310, 351.902 482.347, 355.517 486.018 C 359.416 489.976, 362.200 491.680, 368.907 494.211 C 375.550 496.718, 378.542 498.538, 382.795 502.657 C 386.748 506.486, 390.144 508.644, 395.338 510.629 C 399.926 512.382, 404.099 514.883, 407.063 517.656 C 409.809 520.224, 415.518 523.749, 421.216 526.393 C 428.370 529.714, 431.584 531.844, 434.028 534.886 C 437.311 538.971, 439.554 540.101, 451.292 543.582 C 455.458 544.818, 458.724 546.763, 462.925 550.512 C 467.615 554.697, 470.410 556.254, 477.108 558.414 C 485.242 561.038, 488.591 562.999, 495.115 568.958 C 496.868 570.559, 500.909 572.844, 504.094 574.035 C 508.412 575.650, 511.172 577.606, 514.945 581.725 C 519.545 586.748, 520.291 587.192, 523.156 586.619 C 524.890 586.272, 528.151 584.499, 530.404 582.680 C 532.657 580.860, 537.425 577.614, 541 575.468 C 544.575 573.321, 550.302 568.961, 553.728 565.779 C 557.153 562.598, 562.375 558.925, 565.331 557.617 C 569.242 555.888, 571.502 554.049, 573.626 550.870 C 575.232 548.466, 579.125 544.777, 582.279 542.671 C 585.433 540.565, 589.402 536.822, 591.101 534.354 C 592.799 531.885, 596.412 528.498, 599.128 526.826 C 602.096 525, 604.818 522.332, 605.947 520.143 C 608.295 515.591, 611.227 512.451, 614.910 510.547 C 618.034 508.931, 621.559 504.979, 624.200 500.131 C 625.136 498.415, 627.930 495.785, 630.410 494.287 C 633.366 492.502, 635.804 489.938, 637.486 486.849 C 639.890 482.431, 642.211 480.070, 648.449 475.695 C 649.864 474.702, 652.136 471.693, 653.496 469.007 C 654.857 466.321, 658.032 462.408, 660.550 460.312 C 663.081 458.205, 666.522 453.895, 668.244 450.676 C 669.957 447.472, 673.759 442.160, 676.694 438.871 C 679.629 435.582, 683.565 429.842, 685.442 426.115 C 687.319 422.388, 691.053 417.058, 693.739 414.271 C 697.984 409.867, 698.916 408.109, 700.855 400.852 C 702.429 394.959, 704.545 390.275, 708.041 384.945 C 714.109 375.693, 715.184 370.738, 715.300 351.500 C 715.408 333.525, 714.958 332.476, 701.712 319.804 C 691.484 310.019, 688.848 308.418, 677.280 304.962 C 674.959 304.269, 670.491 301.529, 667.350 298.873 C 662.922 295.129, 659.518 293.338, 652.193 290.898 C 644.641 288.382, 641.704 286.807, 637.554 283.049 C 633.762 279.615, 629.810 277.358, 622.901 274.681 C 615.261 271.721, 612.493 270.054, 608.522 266.022 C 605.150 262.599, 602.016 260.510, 598.552 259.378 C 590.934 256.887, 586.556 254.434, 581.139 249.623 C 578.092 246.917, 573.468 244.207, 568.955 242.483 C 563.842 240.529, 560.468 238.446, 557.591 235.467 C 555.131 232.920, 549.832 229.397, 544.301 226.631 C 539.241 224.101, 532.814 219.999, 530.017 217.515 C 522.898 211.193, 520.270 211.337, 513.602 218.416 M 692.052 357.946 C 691.256 358.450, 689.203 361.249, 687.490 364.167 C 685.068 368.292, 683.007 370.252, 678.221 372.986 C 673.658 375.591, 669.871 379.086, 663.578 386.500 C 658.909 392, 653.220 398.029, 650.937 399.897 C 648.227 402.114, 645.832 405.418, 644.042 409.407 C 641.685 414.660, 640.584 415.909, 636.211 418.289 C 631.725 420.730, 630.869 421.736, 628.985 426.779 C 626.422 433.639, 625.134 435.185, 620.085 437.462 C 615.663 439.456, 614.557 441.414, 612.997 450.015 C 611.332 459.197, 610.607 460.489, 604.640 464.897 C 598.891 469.143, 597.723 471.353, 596.520 480.249 C 595.861 485.118, 595.587 485.444, 588.036 490.303 C 584.490 492.584, 583.431 494.690, 580.529 505.239 C 579.343 509.550, 577.211 513.146, 571.952 519.700 C 564.069 529.526, 561.676 535.105, 564.244 537.673 C 566.938 540.367, 570.852 538.589, 573.021 533.686 C 575.113 528.957, 577.930 526.027, 582.707 523.614 C 584.470 522.723, 587.490 519.929, 589.417 517.405 C 591.343 514.882, 595.251 511.171, 598.101 509.159 C 601.750 506.582, 603.759 504.283, 604.891 501.386 C 606.983 496.038, 608.527 494.282, 613.265 491.865 C 615.410 490.771, 617.915 488.509, 618.832 486.839 C 621.876 481.297, 624.068 479.064, 628.305 477.185 C 633.536 474.866, 634.870 473.261, 637 466.729 C 638.345 462.602, 639.600 460.906, 643.097 458.489 C 646.297 456.278, 648.335 453.722, 650.556 449.138 C 652.786 444.535, 654.988 441.781, 658.705 438.947 C 664.214 434.746, 666.741 431.184, 669.527 423.692 C 670.780 420.324, 672.885 417.544, 676.559 414.406 C 681.894 409.848, 682.502 408.608, 684.054 399.132 C 684.786 394.666, 685.753 392.897, 689.811 388.606 C 692.866 385.376, 695.548 381.218, 696.990 377.475 C 699.767 370.266, 700.785 360.650, 698.998 358.498 C 697.608 356.822, 694.250 356.556, 692.052 357.946 M 551 549.500 C 550.005 550.699, 550.013 551.311, 551.042 552.550 C 552.175 553.915, 552.504 553.925, 553.801 552.628 C 555.284 551.145, 554.844 548, 553.154 548 C 552.654 548, 551.685 548.675, 551 549.500" stroke="none" fill="#444" fill-rule="evenodd"/></svg>