<svg xmlns="http://www.w3.org/2000/svg" width="1000" height="1000" viewBox="0 0 1000 1000" version="1.1"><path d="M 631.806 264.399 C 626.627 265.793, 625.197 266.757, 620.235 272.197 C 618.380 274.231, 613.408 277.790, 609.187 280.107 C 602.750 283.640, 598.472 287.399, 582.668 303.410 C 569.999 316.245, 562.704 324.466, 560.404 328.500 C 556.159 335.947, 555.499 336.751, 550.311 340.801 C 547.353 343.110, 545.088 346.250, 542.603 351.486 C 540.415 356.095, 536.694 361.504, 532.770 365.780 C 529.298 369.563, 525.720 374.423, 524.819 376.580 C 523.918 378.736, 521.902 383.633, 520.340 387.463 C 518.489 392.002, 515.823 396.179, 512.684 399.463 C 506.716 405.704, 504.519 409.228, 502.995 415 C 501.026 422.462, 495.530 433.261, 491.616 437.358 C 486.937 442.257, 484.782 446.529, 482.031 456.363 C 478.895 467.577, 476.643 472.343, 472.178 477.220 C 466.863 483.025, 464.558 487.973, 462.580 497.826 C 459.091 515.205, 456.026 519.383, 446.747 519.409 C 443.861 519.417, 438.886 518.841, 435.691 518.128 C 430.799 517.038, 428.760 515.824, 422.786 510.443 C 418.884 506.929, 414.073 503.538, 412.096 502.907 C 405.297 500.741, 398.492 496.863, 394 492.595 C 388.945 487.793, 384.201 484.870, 378.419 482.997 C 370.635 480.475, 364.397 476.656, 359 471.110 C 354.367 466.349, 352.111 464.936, 344.689 462.149 C 338.854 459.958, 334.127 457.356, 330.689 454.443 C 322.124 447.187, 317.875 444.539, 310 441.549 C 304.081 439.302, 301.337 437.521, 296.983 433.101 C 291.553 427.589, 289.133 426.226, 274.500 420.439 C 269.636 418.516, 266.112 416.260, 262.949 413.045 C 257.118 407.118, 253.481 404.590, 248.500 403.002 C 241.664 400.823, 234.925 397.007, 230.117 392.593 C 224.375 387.322, 220.414 384.934, 211.531 381.391 C 206.369 379.333, 202.684 376.871, 197.323 371.900 C 192.116 367.072, 188.600 364.696, 184.793 363.432 C 174.380 359.975, 169.621 357.119, 163.426 350.612 C 158.865 345.821, 156.338 343.966, 153.698 343.471 C 148.941 342.579, 144.056 344.353, 141 348.083 C 139.625 349.761, 135.440 354.423, 131.701 358.443 C 127.182 363.302, 124.224 367.535, 122.882 371.069 C 120.464 377.431, 118.084 380.916, 112.775 385.869 C 109.552 388.875, 108.705 390.442, 108.284 394.169 C 107.662 399.695, 109.099 404.457, 113.028 409.879 C 115.340 413.072, 118.122 414.953, 126.323 418.869 C 134.865 422.949, 137.506 424.773, 141.304 429.219 C 143.841 432.188, 146.947 435.098, 148.208 435.686 C 161.354 441.815, 166.306 444.719, 171 449.049 C 174.528 452.304, 180.131 455.867, 186.628 458.987 C 194.834 462.928, 197.586 464.837, 201.128 469.041 C 204.546 473.098, 207.464 475.179, 214.500 478.579 C 219.450 480.971, 225.075 484.348, 227 486.083 C 235.133 493.415, 238.955 496.040, 247 499.815 C 253.477 502.853, 256.867 505.236, 261.243 509.827 C 265.444 514.234, 268.473 516.407, 272.525 517.923 C 279.409 520.499, 281.717 521.960, 290.500 529.304 C 294.654 532.777, 301.566 537.109, 307.500 539.958 C 315.091 543.603, 318.724 546.053, 322.579 550.130 C 326.257 554.018, 329.154 556.025, 333.079 557.402 C 342.193 560.601, 347.203 563.534, 354.360 569.865 C 359.744 574.627, 363.079 576.631, 369.860 579.178 C 376.895 581.820, 379.516 583.435, 383.971 587.868 C 389.240 593.110, 393.087 595.295, 407.309 601.121 C 411.158 602.698, 415.263 605.574, 419.479 609.648 C 423.912 613.933, 427.547 616.435, 431.467 617.902 C 440.246 621.186, 444.904 623.839, 449.892 628.393 C 455.870 633.850, 458.432 635.410, 468.315 639.609 C 474.762 642.347, 477.692 644.324, 482.114 648.920 C 486.308 653.279, 489.216 655.302, 493.614 656.921 C 507.188 661.919, 510.613 663.745, 516.625 669.190 C 523.786 675.676, 525.300 676.603, 531.958 678.580 C 540.272 681.049, 545.765 683.916, 552.232 689.161 C 558.166 693.974, 567.053 698.969, 569.720 698.990 C 572.517 699.013, 581.782 704.131, 585.500 707.707 C 591.039 713.036, 594.938 715.232, 606.500 719.536 C 614.925 722.672, 617.482 724.176, 622.735 729.081 C 630.163 736.018, 631.870 736.500, 649 736.500 C 658.681 736.500, 662.561 736.091, 666.203 734.685 C 673.118 732.017, 673.311 729.910, 667.218 723.636 C 661.213 717.454, 660 715.250, 660 710.526 C 660 705.524, 663.019 700.170, 668.311 695.786 C 672.919 691.969, 672.774 692.257, 680.770 671 C 682.644 666.018, 684.578 663.174, 689.054 658.820 C 694.333 653.685, 695.145 652.315, 697.516 644.539 C 701.463 631.601, 703.588 627.495, 709.997 620.422 C 714.738 615.191, 716.342 612.481, 718.459 606.123 C 721.386 597.334, 725.216 590.784, 731.554 583.731 C 734.211 580.775, 736.889 576.217, 738.600 571.739 C 740.762 566.080, 742.805 562.988, 748.029 557.470 C 752.728 552.505, 755.971 547.818, 759.009 541.598 C 761.998 535.482, 765.409 530.521, 770.122 525.438 C 773.987 521.269, 778.413 515.143, 780.376 511.247 C 782.749 506.535, 785.053 503.542, 787.745 501.677 C 793.372 497.777, 796.484 494.243, 799.686 488.118 C 801.758 484.156, 804.083 481.631, 808.500 478.551 C 811.800 476.249, 815.400 472.890, 816.500 471.086 C 820.189 465.035, 825.024 460.209, 829.509 458.101 C 832.470 456.709, 835.636 453.875, 838.969 449.634 C 842.775 444.791, 845.605 442.401, 850.740 439.692 C 854.458 437.730, 859.525 434.227, 862 431.907 C 867.693 426.572, 871.784 424.791, 875.742 425.926 C 880.695 427.346, 882.925 428.914, 885.965 433.110 C 889.759 438.348, 890.251 437.528, 892.985 421.386 C 894.370 413.205, 893.022 409.616, 886.265 403.502 C 883.013 400.559, 878.811 395.870, 876.926 393.081 C 873.682 388.279, 866.007 383, 862.271 383 C 861.537 383, 857.462 381.655, 853.218 380.010 C 847.860 377.934, 843.821 375.494, 840.007 372.028 C 834.719 367.222, 830.219 364.945, 819.500 361.651 C 810.458 358.873, 807.160 357.076, 800.964 351.547 C 797.121 348.118, 792.732 345.312, 789.171 344.008 C 776.760 339.463, 772.705 337.251, 765.928 331.327 C 760.404 326.499, 756.866 324.376, 749.683 321.580 C 742.805 318.903, 739.212 316.797, 735.371 313.189 C 730.098 308.236, 725.183 305.476, 711.791 299.948 C 705.986 297.552, 702.975 295.564, 699.598 291.897 C 695.198 287.121, 693.394 286.072, 679.724 280.341 C 675.651 278.633, 670.596 275.400, 667.051 272.235 C 658.762 264.836, 654.317 263.034, 644.500 263.089 C 640.100 263.114, 634.388 263.704, 631.806 264.399 M 889.200 462.460 C 887.231 466.781, 887.942 472, 890.500 472 C 893.118 472, 893.961 464.697, 891.700 461.604 C 890.490 459.950, 890.317 460.009, 889.200 462.460 M 868.394 507.416 C 867.546 509.626, 868.372 514.304, 869.686 514.735 C 871.476 515.322, 874.274 510.437, 873.516 508.049 C 872.774 505.711, 869.217 505.271, 868.394 507.416 M 566.500 559.109 C 560.040 562.942, 558 567.831, 558 579.482 C 558 590.735, 559.451 595.087, 564.157 597.949 C 569.159 600.991, 574.801 601.427, 583.858 599.470 C 589.901 598.164, 592.522 597.064, 594.493 595.008 C 599.352 589.936, 601.672 573.938, 598.611 566.611 C 596.431 561.394, 589.956 558.770, 578.106 558.302 C 571.837 558.055, 567.805 558.335, 566.500 559.109 M 807.500 588.359 C 805.832 590.906, 806.298 593.517, 808.577 594.391 C 812.099 595.743, 815.674 591.237, 813.847 587.750 C 812.548 585.271, 809.321 585.581, 807.500 588.359 M 788.200 608.200 C 785.877 610.523, 787.508 615, 790.677 615 C 791.379 615, 792.692 613.873, 793.595 612.495 C 794.918 610.476, 794.996 609.700, 793.996 608.495 C 792.501 606.693, 789.842 606.558, 788.200 608.200 M 769.011 629.487 C 767.515 631.290, 768.369 634, 770.433 634 C 772.175 634, 773.933 631.067, 773.282 629.250 C 772.673 627.554, 770.516 627.674, 769.011 629.487 M 709 691 C 709 692.333, 709.667 693, 711 693 C 712.333 693, 713 692.333, 713 691 C 713 689.667, 712.333 689, 711 689 C 709.667 689, 709 689.667, 709 691 M 687.362 709.500 C 686.390 712.031, 687.815 714.165, 690.246 713.820 C 691.861 713.591, 692.590 712.721, 692.816 710.750 C 693.090 708.375, 692.779 708, 690.535 708 C 689.106 708, 687.678 708.675, 687.362 709.500" stroke="none" fill="#444" fill-rule="evenodd"/></svg>