<svg xmlns="http://www.w3.org/2000/svg" width="1000" height="1000" viewBox="0 0 1000 1000" version="1.1"><path d="M 634.903 263.952 C 628.641 265.094, 625.296 267.014, 620 272.506 C 617.525 275.073, 612.512 278.690, 608.859 280.544 C 603.408 283.311, 598.793 287.349, 583.097 303.085 C 567.726 318.494, 563.278 323.582, 560.421 329.019 C 557.813 333.982, 555.353 336.961, 551.183 340.208 C 548.057 342.641, 544.973 345.728, 544.330 347.066 C 543.686 348.405, 542.058 351.975, 540.712 355 C 539.283 358.212, 535.817 362.999, 532.382 366.508 C 527.818 371.169, 525.850 374.194, 523.600 380.008 C 519.063 391.730, 516.463 396.349, 512.266 400.141 C 507.037 404.865, 504.521 409.234, 502.558 417 C 500.030 427.003, 496.729 433.320, 492.078 437.057 C 486.558 441.494, 484.477 445.086, 482.554 453.500 C 479.592 466.459, 477.159 472.352, 472.639 477.525 C 466.954 484.029, 464.419 489.163, 462.998 497.054 C 460.246 512.330, 456.129 519.812, 449.223 522.091 C 444.295 523.718, 428.327 522.813, 424.279 520.677 C 422.507 519.743, 418.232 516.163, 414.779 512.722 C 411.325 509.281, 406.700 505.727, 404.500 504.824 C 402.300 503.921, 397.519 501.973, 393.875 500.494 C 388.887 498.470, 385.685 496.227, 380.914 491.413 C 376.234 486.691, 373.262 484.590, 369.539 483.372 C 361.305 480.678, 355.304 477.256, 349.337 471.852 C 344.142 467.147, 341.553 465.692, 329 460.415 C 326.525 459.374, 321.575 455.813, 318 452.500 C 314.425 449.187, 309.475 445.633, 307 444.601 C 294.102 439.225, 288.072 435.764, 282.611 430.604 C 278.822 427.024, 274.781 424.313, 271.279 423.003 C 262.660 419.778, 259.867 418.091, 254 412.562 C 249.770 408.576, 245.866 406.238, 237.098 402.440 C 228.750 398.823, 224.732 396.462, 222.098 393.625 C 216.069 387.132, 215.054 386.322, 210.700 384.528 C 198.501 379.499, 193.982 377.047, 188.513 372.487 C 180.667 365.945, 178.216 364.427, 171.374 361.867 C 167.154 360.288, 164.029 358.059, 159.286 353.245 C 153.047 346.913, 152.781 346.765, 148.574 347.239 C 145.159 347.624, 143.334 348.640, 139.818 352.113 C 137.376 354.526, 133.237 358.235, 130.622 360.355 C 128.007 362.476, 125.268 365.626, 124.535 367.355 C 123.802 369.085, 122.379 372.489, 121.372 374.920 C 120.366 377.352, 116.813 382.315, 113.478 385.950 C 106.558 393.490, 103.365 401.225, 104.298 408.184 C 105.022 413.585, 107.753 416.195, 116.112 419.474 C 120.986 421.387, 125.610 424.321, 131.197 429.048 C 136.153 433.240, 142.611 437.473, 147.978 440.044 C 155.053 443.435, 157.465 445.202, 160.740 449.395 C 164.749 454.528, 166.420 455.651, 177 460.326 C 180.102 461.697, 185.039 465.210, 188.323 468.383 C 192.551 472.468, 196.960 475.353, 204.419 478.915 C 212.957 482.993, 215.496 484.762, 219.446 489.385 C 222.709 493.205, 225.971 495.761, 229.850 497.539 C 240.613 502.473, 242.245 503.522, 246.363 508.148 C 249.475 511.645, 253.497 514.310, 262.599 518.905 C 272.387 523.846, 275.507 525.973, 278.936 530.040 C 282.278 534.002, 285.115 535.979, 292.338 539.373 C 299.221 542.608, 302.409 544.776, 305.156 548.090 C 308.857 552.555, 313.861 555.529, 326.337 560.678 C 331.336 562.742, 334.679 565.034, 338.774 569.208 C 342.230 572.729, 346.314 575.716, 349.438 577.006 C 352.222 578.156, 356.267 579.855, 358.426 580.780 C 360.585 581.705, 365.725 585.267, 369.847 588.694 C 375.185 593.132, 380.170 596.133, 387.166 599.120 C 395.253 602.573, 397.842 604.246, 401.815 608.583 C 404.468 611.480, 408.633 614.734, 411.070 615.812 C 413.506 616.891, 418.371 619.060, 421.881 620.633 C 425.390 622.206, 431.175 626.064, 434.735 629.208 C 440.874 634.627, 443.428 636.137, 454 640.600 C 456.475 641.645, 461.503 645.249, 465.174 648.608 C 470.471 653.456, 473.971 655.612, 482.133 659.056 C 490.418 662.552, 493.540 664.491, 498.197 669.034 C 504.229 674.919, 506.655 676.396, 516.344 680.084 C 519.670 681.350, 525.079 684.719, 528.898 687.904 C 535.715 693.590, 539.939 695.829, 552.547 700.442 C 557.835 702.376, 560.804 704.248, 564.437 707.936 C 569.424 712.999, 574.127 715.462, 588.500 720.540 C 594.827 722.775, 597.445 724.343, 601.020 728.039 C 603.507 730.609, 607.089 733.512, 608.981 734.490 C 614.976 737.590, 628.302 741.689, 638.149 743.462 L 647.665 745.176 659.530 741.074 C 673.689 736.178, 674.797 735.508, 679.905 728.741 C 682.592 725.183, 685.720 722.525, 689.606 720.495 C 696.784 716.747, 701.239 713.236, 705.317 708.114 C 707.068 705.915, 712.100 701.552, 716.500 698.419 C 724.231 692.913, 747.006 670.267, 759.664 655.500 C 762.965 651.650, 767.203 647.148, 769.082 645.495 C 770.962 643.842, 775.727 638.667, 779.671 633.995 C 783.615 629.323, 788.914 623.780, 791.446 621.679 C 793.979 619.577, 798.055 614.852, 800.504 611.179 C 803.248 607.063, 807.018 603.035, 810.330 600.682 C 814.234 597.909, 816.737 595.031, 819.478 590.165 C 821.605 586.388, 824.792 582.381, 826.782 580.982 C 832.657 576.850, 835.485 573.488, 838.870 566.612 C 841.430 561.412, 843.227 559.266, 847.526 556.275 C 853.143 552.366, 854.721 549.770, 858.433 538.322 C 860.410 532.229, 864.590 526.140, 868.907 523.066 C 872.784 520.305, 876.574 513.902, 877.933 507.815 C 879.864 499.166, 882.938 492.538, 887.584 487 C 895.514 477.549, 896.209 475.116, 897.149 453.500 C 898.495 422.545, 898.166 421.720, 874.507 396.862 C 866.604 388.558, 861.046 384.797, 853.263 382.485 C 844.963 380.021, 839.600 377.281, 834.792 373.048 C 829.572 368.454, 822.329 364.583, 814.744 362.334 C 806.969 360.029, 802.081 357.288, 796.500 352.106 C 793.750 349.553, 789.700 346.706, 787.500 345.780 C 785.300 344.854, 779.900 342.636, 775.500 340.851 C 769.400 338.376, 765.944 336.143, 760.943 331.447 C 756.436 327.213, 752.592 324.617, 748.647 323.141 C 739.684 319.787, 734.996 317.128, 728.319 311.609 C 721.668 306.112, 718.815 304.487, 709.500 300.891 C 705.343 299.286, 701.766 296.865, 697.855 293.007 C 692.334 287.562, 689.767 286.108, 675.500 280.339 C 670.525 278.327, 666.984 275.997, 663.258 272.284 C 660.375 269.411, 656.650 266.353, 654.980 265.490 C 651.295 263.584, 641.174 262.809, 634.903 263.952 M 863.322 442.941 C 860.029 444.436, 858.365 446.193, 855.463 451.238 C 851.679 457.817, 847.837 461.083, 837.547 466.466 C 831.244 469.764, 829.309 471.542, 827.229 475.947 C 825.648 479.295, 818.309 487.248, 795.938 509.850 C 788.943 516.917, 785.644 521.120, 783.648 525.505 C 779.151 535.386, 778.448 536.356, 773.136 540 C 766.804 544.344, 765.417 546.301, 763.528 553.553 C 761.547 561.158, 759.922 563.435, 753.576 567.495 C 747.680 571.266, 746.193 573.983, 742.968 586.881 C 740.919 595.078, 738.003 598.972, 731.897 601.666 C 727.153 603.758, 724.417 608.629, 722.999 617.503 C 721.529 626.705, 719.660 630.328, 713.807 635.322 C 707.638 640.585, 705.351 644.227, 703.920 651.074 C 703.296 654.058, 701.235 660.143, 699.340 664.595 C 696.495 671.282, 695.252 673.053, 692.198 674.773 C 686.802 677.812, 683.333 681.923, 682.092 686.750 C 681.492 689.087, 680.548 692.747, 679.995 694.881 C 679.443 697.016, 678.367 699.280, 677.605 699.913 C 676.228 701.056, 669.008 702.104, 649.090 704.052 C 640.905 704.853, 635.649 704.739, 624.500 703.517 C 614.268 702.396, 608.502 702.220, 603.792 702.887 C 597.414 703.791, 591.756 705.967, 590.499 708.002 C 588.302 711.556, 594.178 715.600, 606.500 719.012 C 616.838 721.875, 618.888 722.986, 624.689 728.864 C 628.570 732.797, 630.525 733.958, 634.799 734.870 C 646.184 737.298, 651.722 735.783, 656.678 728.884 C 659.492 724.969, 661.917 723.058, 667.884 720.055 C 676.294 715.823, 678.047 714.247, 681.294 708.003 C 683.143 704.446, 684.312 703.493, 688.521 702.111 C 695.393 699.855, 699.413 696.775, 704.358 689.979 C 706.668 686.805, 710.867 682.382, 713.689 680.151 C 716.512 677.920, 720.524 673.936, 722.605 671.297 C 724.685 668.659, 733.417 659.525, 742.008 651 C 750.599 642.475, 759.052 633.408, 760.793 630.851 C 762.533 628.294, 765.879 624.707, 768.229 622.879 C 773.860 618.499, 775.499 616.647, 780.072 609.500 C 782.461 605.765, 785.807 602.220, 788.933 600.109 C 794.048 596.655, 795.774 594.598, 799.509 587.500 C 800.769 585.106, 803.599 582.201, 806.557 580.264 C 813.457 575.746, 815.758 573.216, 817.699 568.013 C 820.176 561.370, 821.514 559.641, 827.072 555.891 C 829.837 554.026, 832.723 551.150, 833.485 549.500 C 834.247 547.850, 836.174 543.575, 837.767 540 C 839.621 535.838, 843.087 530.863, 847.401 526.170 C 853.685 519.334, 857.971 512.070, 858.022 508.167 C 858.063 505.065, 862.030 497.691, 865.940 493.449 C 870.752 488.229, 872.551 484.793, 873.504 479 C 873.912 476.525, 875.540 470.282, 877.123 465.127 C 880.408 454.426, 880.699 449.996, 878.352 446.414 C 876.530 443.634, 872.088 440.988, 869.300 441.022 C 868.310 441.034, 865.620 441.897, 863.322 442.941 M 566.034 562.752 C 561.564 565.006, 559.371 568.927, 558.066 577 C 555.878 590.533, 556.859 594.705, 563.882 601.728 C 568.128 605.974, 572.116 606.566, 582.182 604.443 C 597.172 601.282, 600.415 598.036, 599.708 586.900 C 598.940 574.810, 591.939 565.841, 580.655 562.490 C 574.097 560.543, 570.278 560.611, 566.034 562.752" stroke="none" fill="#444" fill-rule="evenodd"/></svg>