<svg xmlns="http://www.w3.org/2000/svg" width="1000" height="1000" viewBox="0 0 1000 1000" version="1.1"><path d="M 604.500 245.032 C 600.650 246.633, 596.813 247.955, 595.973 247.971 C 593.344 248.021, 590.195 250.867, 586.336 256.681 C 583.111 261.540, 581.642 262.733, 575.351 265.600 C 569.518 268.258, 567.550 269.755, 565.351 273.205 C 561.935 278.566, 557.960 282.999, 556.563 283.004 C 553.943 283.015, 546.185 289.413, 542.978 294.208 C 540.823 297.431, 537.205 300.964, 533.653 303.314 C 530.462 305.426, 526.421 309.192, 524.675 311.683 C 520.255 317.988, 518.208 320.075, 512.773 323.813 C 510.048 325.688, 506.908 329.061, 505.357 331.782 C 501.720 338.163, 499.394 340.644, 493.490 344.444 C 489.444 347.048, 487.848 348.963, 485.200 354.396 C 482.318 360.306, 481.140 361.611, 475.499 365.148 C 469.712 368.777, 468.875 369.733, 467.014 374.837 C 463.838 383.545, 462.821 385.091, 458.505 387.769 C 452.657 391.398, 450.292 394.666, 447.941 402.368 C 444.839 412.532, 442.467 416.397, 436.509 420.993 C 429.608 426.317, 428.540 428.051, 425.977 438.091 C 423.331 448.455, 422.912 449.248, 416.504 456.029 C 409.825 463.097, 408.504 465.749, 406.564 475.978 C 404.067 489.138, 403.033 491.612, 397.251 498.261 C 389.906 506.707, 389.181 508.363, 387.463 520.604 C 385.422 535.143, 383.111 545.933, 381.390 548.963 C 380.597 550.358, 378.822 553.300, 377.446 555.500 C 368.394 569.976, 364.683 588.678, 369.753 594.279 C 370.711 595.338, 374.340 597.495, 377.817 599.071 C 381.295 600.648, 385.355 603.189, 386.841 604.719 C 392.049 610.079, 393.605 610.904, 403.232 613.405 C 415.382 616.562, 419.895 618.847, 423.530 623.684 C 428.974 630.929, 430.614 631.821, 443.500 634.541 C 453.812 636.717, 455.897 637.856, 461.538 644.390 C 467.150 650.890, 470.107 652.480, 480.244 654.449 C 490.332 656.409, 494.564 658.669, 499.823 664.905 C 505.132 671.201, 507.260 672.324, 518 674.500 C 528.672 676.662, 531.070 677.910, 538.148 684.988 C 544.419 691.259, 545.636 691.882, 557.859 695.087 C 565.341 697.048, 566.913 697.902, 572.859 703.232 C 580.470 710.057, 583.994 711.898, 596.447 715.556 C 604.890 718.036, 605.789 718.575, 612.403 725.124 C 617.996 730.662, 620.476 732.373, 624.684 733.597 C 630.864 735.393, 634.415 734.306, 636.911 729.854 C 638.186 727.578, 638.214 726.097, 637.106 719.274 C 635.395 708.740, 636.726 703.815, 642.290 700.095 C 651.005 694.267, 651.941 693.001, 654.024 684.212 C 656.549 673.555, 657.947 670.959, 665.640 662.637 C 669.998 657.922, 672.315 654.479, 673.042 651.637 C 676.203 639.284, 677.928 635.820, 684.263 629.104 C 690.853 622.118, 691.283 621.313, 694.989 609 C 696.809 602.956, 698.015 600.821, 701.201 598 C 711.620 588.778, 711.726 588.638, 712.987 582.466 C 715.114 572.050, 717.668 567.500, 725.073 560.936 C 731.280 555.433, 732.180 554.123, 735.126 546.317 C 738.137 538.340, 738.721 537.514, 743.518 534.445 C 749.432 530.662, 751.366 528.106, 753 521.910 C 754.782 515.155, 758.752 509.063, 765.428 502.840 C 769.667 498.889, 772.694 494.846, 775.454 489.448 C 778.681 483.136, 780.335 481.103, 784.454 478.386 C 792.206 473.273, 792.534 472.914, 796.054 465.694 C 799.043 459.565, 799.916 458.629, 805.358 455.728 C 808.867 453.858, 812.016 451.340, 812.932 449.672 C 818.175 440.123, 819.822 438.311, 826.310 434.946 C 830.994 432.518, 833.557 430.432, 835.196 427.714 C 839.554 420.489, 841.227 418.911, 848.316 415.341 C 852.226 413.372, 857.467 410.063, 859.962 407.989 C 862.458 405.914, 866.383 403.274, 868.684 402.122 C 873.307 399.807, 876 396.637, 876 393.510 C 876 390.242, 871.465 384.463, 866.719 381.681 C 864.312 380.270, 860.302 376.728, 857.807 373.808 C 853.616 368.902, 852.581 368.284, 844.142 365.654 C 836.113 363.151, 834.499 362.242, 830.756 358.115 C 825.702 352.541, 821.127 349.607, 815 348.009 C 805.794 345.608, 799.350 342.015, 796.078 337.460 C 791.740 331.419, 788.743 329.566, 779.500 327.208 C 767.578 324.167, 764.620 322.586, 759.322 316.425 C 753.712 309.901, 751.941 308.858, 742.500 306.520 C 733.053 304.180, 730.587 302.791, 723 295.533 C 716.426 289.244, 715.952 289.008, 700.838 284.478 C 696.450 283.163, 694.045 281.607, 690.149 277.562 C 684.495 271.691, 680.357 269.456, 667.791 265.483 C 659.539 262.874, 658.847 262.429, 654.584 257.004 C 652.110 253.855, 648.829 250.774, 647.293 250.157 C 642.384 248.187, 617.135 241.998, 614.266 242.062 C 612.745 242.095, 608.350 243.432, 604.500 245.032 M 609.374 252.250 C 608.288 253.488, 606.148 256.378, 604.618 258.672 C 602.462 261.905, 600.385 263.461, 595.399 265.580 C 590.200 267.790, 587.699 269.728, 582.391 275.658 C 578.777 279.696, 575.372 283, 574.824 283 C 572.697 283, 564.665 289.689, 561.319 294.246 C 559.386 296.879, 554.811 301.281, 551.152 304.028 C 540.810 311.792, 509.727 343.357, 504.960 350.935 C 502.690 354.546, 499.263 358.625, 497.347 360 C 489.738 365.459, 488.139 367.207, 484.605 373.932 C 481.678 379.502, 479.763 381.740, 475.160 384.969 C 469.926 388.640, 469.079 389.768, 466.117 397.014 C 463.370 403.733, 462.146 405.491, 458.448 408.036 C 453.452 411.473, 449.479 417.617, 448.448 423.500 C 447.103 431.174, 443.189 437.797, 437.525 441.981 C 429.675 447.781, 428.417 449.846, 427.020 459.224 C 425.364 470.344, 422.380 476.735, 416.652 481.429 C 409.893 486.968, 408.345 490.124, 407.056 501 C 405.416 514.836, 403.262 521.621, 398.182 528.952 C 393.198 536.144, 389.439 544.017, 388.551 549.122 C 388.228 550.980, 387.539 557.559, 387.021 563.741 C 386.504 569.924, 385.570 575.934, 384.948 577.097 C 384.325 578.260, 383.786 581.218, 383.749 583.669 C 383.658 589.692, 385.807 591.616, 396.661 595.220 C 404.044 597.672, 406.371 599.003, 411.015 603.433 C 417.843 609.946, 420.399 611.294, 431.071 614.014 C 440.584 616.439, 446.300 619.283, 448.545 622.709 C 451.403 627.071, 457.927 630.738, 469.467 634.468 C 480.082 637.899, 481.329 638.572, 485.338 643.031 C 490.588 648.871, 495.087 651.337, 505.216 653.927 C 514.748 656.365, 518.163 658.103, 521.154 662.038 C 528.470 671.662, 528.891 671.943, 539 673.971 C 551.947 676.567, 554.532 677.865, 561.687 685.357 C 567.671 691.623, 568.129 691.890, 575.687 693.499 C 590.443 696.642, 592.577 697.649, 598.267 704.164 C 604.561 711.371, 606.764 712.623, 615.907 714.191 C 622.049 715.244, 623.386 715.186, 626.427 713.736 C 630.775 711.663, 632.378 708.510, 633.893 699.047 C 635.578 688.523, 637.810 684.172, 644.421 678.523 C 651.198 672.733, 652.325 670.730, 654.001 661.500 C 655.934 650.851, 657.767 647.083, 664.464 640 C 670.890 633.203, 671.528 632.002, 674.924 620.329 C 676.757 614.026, 677.906 612.182, 684.420 605.087 C 690.955 597.970, 692.154 596.039, 694.569 588.758 C 697.336 580.414, 697.625 580.020, 708.064 570.377 C 710.075 568.520, 711.694 565.383, 713.124 560.573 C 716.339 549.759, 719.251 544.903, 726.169 538.816 C 731.685 533.962, 732.855 532.284, 735.255 525.779 C 737.729 519.072, 738.620 517.839, 744.029 513.639 C 747.815 510.699, 750.632 507.578, 751.618 505.232 C 755.715 495.483, 758.494 490.884, 763.589 485.422 C 766.627 482.165, 771.164 476.350, 773.670 472.500 C 779.457 463.611, 781.330 461.580, 787.584 457.413 C 791.111 455.063, 793.528 452.414, 795.476 448.763 C 799.108 441.956, 801.342 439.525, 807.758 435.398 C 811.039 433.287, 814.283 430.039, 816.388 426.758 C 820.383 420.529, 821.820 419.196, 828.738 415.296 C 831.620 413.671, 835.520 410.938, 837.407 409.221 C 839.294 407.504, 844.699 403.355, 849.419 400.001 C 861.078 391.714, 860.963 389.603, 848.500 383.209 C 846.300 382.080, 841.575 378.263, 838 374.727 C 832.495 369.282, 830.658 368.101, 826 367.014 C 815.963 364.672, 810.617 362.095, 805.265 357.020 C 799.336 351.399, 795.512 349.263, 785.500 345.982 C 779.424 343.990, 777.642 342.798, 772 336.944 C 766.094 330.818, 764.818 330, 758.044 327.997 C 746.555 324.600, 740.906 321.664, 736 316.540 C 730.661 310.964, 727.888 309.382, 720.800 307.870 C 710.428 305.658, 702.555 301.007, 698.169 294.500 C 695.899 291.132, 691.454 288.720, 684.393 287.025 C 673.091 284.311, 669.436 282.522, 664.085 277.087 C 657.630 270.529, 655.727 269.422, 644.892 265.926 C 636.726 263.290, 634.782 262.198, 630 257.561 C 623.253 251.018, 621.333 250, 615.740 250 C 612.438 250, 610.859 250.558, 609.374 252.250" stroke="none" fill="#444" fill-rule="evenodd"/></svg>