<svg xmlns="http://www.w3.org/2000/svg" width="50" height="50" viewBox="0 0 50 50" version="1.1">
	<path d="M 19 18.454 C 19 18.732, 20.725 19.839, 22.833 20.915 C 25.837 22.447, 26.667 22.570, 26.667 21.479 C 26.667 20.714, 26.305 20.312, 25.863 20.585 C 25.421 20.858, 23.696 20.377, 22.029 19.515 C 20.363 18.654, 19 18.176, 19 18.454 M 39.500 23 C 37.919 24.650, 35.923 26.036, 35.063 26.079 C 34.023 26.131, 33.920 26.327, 34.756 26.664 C 35.447 26.943, 35.719 27.695, 35.360 28.335 C 34.942 29.079, 35.032 29.139, 35.606 28.500 C 36.101 27.950, 38.055 25.813, 39.949 23.750 C 44.032 19.303, 43.651 18.667, 39.500 23 M 37.544 30.955 C 34.860 33.680, 32.320 35.698, 31.901 35.439 C 31.481 35.180, 30.856 35.425, 30.510 35.984 C 30.165 36.543, 30.486 37, 31.225 37 C 31.964 37, 35.013 34.525, 38 31.500 C 40.987 28.475, 43.205 26, 42.928 26 C 42.651 26, 40.229 28.230, 37.544 30.955" stroke="none" fill="#555555" fill-rule="evenodd"/>
</svg>