<svg xmlns="http://www.w3.org/2000/svg" width="1000" height="1000" viewBox="0 0 1000 1000" version="1.1"><path d="M 639.831 258.986 C 628.235 261.034, 615.775 266.377, 613.237 270.390 C 611.976 272.383, 600.773 281.520, 594.893 285.351 C 591.510 287.556, 587.679 291.283, 585.232 294.752 C 583.001 297.913, 578.089 303.425, 574.314 307 C 570.096 310.996, 565.253 317.057, 561.743 322.734 C 558.604 327.812, 553.611 334.337, 550.649 337.234 C 547.202 340.604, 543.810 345.380, 541.225 350.500 C 538.497 355.905, 535.411 360.172, 531.712 363.655 C 528.034 367.119, 525.656 370.401, 524.465 373.655 C 519.069 388.400, 516.750 392.920, 512.422 397.131 C 506.544 402.850, 504.250 406.621, 502.454 413.514 C 500.118 422.484, 496.969 428.908, 491.707 435.438 C 485.562 443.065, 484.611 444.913, 482.507 453.315 C 479.797 464.136, 476.323 471.988, 471.950 477.174 C 467.101 482.925, 464.323 488.885, 462.898 496.596 C 461.216 505.695, 458.181 514.527, 456.084 516.424 C 453.014 519.203, 447.267 520.066, 440 518.841 C 431.646 517.433, 428.581 515.855, 422.720 509.943 C 419.607 506.803, 416.003 504.397, 412.388 503.044 C 403.615 499.762, 400.912 498.103, 394.317 491.956 C 390.408 488.313, 386.179 485.460, 382.817 484.200 C 370.473 479.570, 366.224 477.125, 360.350 471.269 C 356.675 467.605, 352.798 464.768, 350.412 463.995 C 343.390 461.719, 336.732 457.871, 329.892 452.134 C 322.810 446.195, 320.535 444.879, 309.911 440.579 C 304.938 438.566, 301.975 436.484, 297.828 432.090 C 293.780 427.801, 290.842 425.710, 286.664 424.147 C 276.313 420.274, 269.097 416.049, 263.384 410.516 C 259.682 406.930, 255.857 404.342, 252.286 403.006 C 243.660 399.778, 240.868 398.092, 235 392.562 C 230.771 388.577, 226.866 386.238, 218.102 382.441 C 208.522 378.290, 205.726 376.540, 200.577 371.466 C 197.208 368.146, 192.887 364.851, 190.976 364.143 C 181.827 360.758, 174.942 356.723, 169 351.267 C 155.382 338.762, 147.260 338.123, 138.143 348.839 C 135.590 351.841, 131.475 356.655, 129 359.536 C 126.525 362.418, 123.666 367.189, 122.646 370.138 C 121.221 374.263, 119.202 377.043, 113.896 382.188 C 107.958 387.948, 107 389.362, 107 392.373 C 107 397.478, 108.346 400.287, 114.467 407.958 C 118.759 413.338, 121.205 415.407, 125.725 417.480 C 136.765 422.544, 138.246 423.530, 142.840 428.877 C 146.602 433.256, 149.320 435.139, 157.480 439.024 C 164.188 442.216, 169.761 445.786, 174.340 449.821 C 178.375 453.376, 184.429 457.391, 189.101 459.609 C 194.988 462.405, 197.907 464.507, 200.472 467.800 C 204.623 473.127, 209.069 476.542, 213.911 478.122 C 218.512 479.623, 226.265 484.682, 232 489.925 C 234.475 492.187, 240.914 496.313, 246.308 499.093 C 251.702 501.873, 257.327 505.569, 258.808 507.306 C 263.932 513.318, 268.362 516.964, 271.923 518.101 C 277.499 519.880, 282.029 522.846, 288.006 528.628 C 291.901 532.396, 296.760 535.547, 304.608 539.396 C 312.254 543.145, 316.760 546.045, 319.102 548.724 C 323.540 553.802, 327.350 556.342, 333.605 558.391 C 339.640 560.369, 345.795 564.233, 352 569.939 C 356.139 573.745, 360.516 576.215, 373.203 581.900 C 375.895 583.106, 379.507 585.921, 381.648 588.483 C 383.784 591.039, 387.557 593.982, 390.444 595.346 C 407.336 603.322, 411.300 605.525, 414.708 608.832 C 420.336 614.291, 423.676 616.412, 432.236 619.965 C 438.178 622.430, 441.003 624.322, 444.420 628.122 C 447.684 631.753, 450.947 634.003, 456.684 636.581 C 460.983 638.512, 466.688 641.072, 469.361 642.269 C 472.035 643.467, 475.864 646.311, 477.870 648.589 C 481.927 653.199, 488.495 658, 490.744 658 C 493.731 658, 502.654 663.274, 507.500 667.905 C 513.395 673.537, 516.518 675.357, 528.293 680.019 C 534.719 682.563, 538.419 684.771, 542.036 688.221 C 547.782 693.701, 549.686 694.763, 560.500 698.519 C 571.578 702.366, 575.458 704.457, 579.239 708.617 C 583.314 713.099, 588.657 716.234, 596.929 718.996 C 606.176 722.083, 610.344 724.425, 616.486 729.987 C 619.473 732.692, 623.173 735.547, 624.709 736.331 C 628.732 738.385, 641.657 741.145, 647.546 741.206 C 655.231 741.287, 666.821 735.287, 674.395 727.306 C 678.528 722.952, 682.506 720, 687.697 717.435 C 693.596 714.521, 695.915 712.677, 699.094 708.372 C 701.701 704.843, 705.061 701.854, 708.778 699.756 C 711.908 697.990, 716.051 694.786, 717.985 692.636 C 719.918 690.487, 723.421 686.877, 725.769 684.614 C 730.058 680.480, 734.286 676.212, 750 660.150 C 754.675 655.371, 759.708 649.639, 761.184 647.412 C 762.661 645.185, 765.811 642.066, 768.184 640.482 C 774.553 636.230, 776.954 633.899, 778.653 630.319 C 780.339 626.766, 784.218 622.814, 790.936 617.804 C 793.375 615.985, 796.863 611.944, 798.686 608.824 C 800.509 605.704, 803.367 602.105, 805.037 600.826 C 813.154 594.608, 815.506 592.118, 817.620 587.502 C 820.349 581.541, 821.973 579.562, 828.244 574.556 C 831.487 571.967, 834 568.715, 836.183 564.280 C 837.940 560.711, 842.452 554.406, 846.210 550.269 C 850.777 545.240, 854.732 539.458, 858.139 532.825 C 861.841 525.617, 864.458 521.890, 867.704 519.201 C 872.871 514.921, 874.947 511.286, 877.901 501.346 C 881.089 490.621, 883.661 485.449, 888.537 479.959 C 891.386 476.751, 893.492 473.117, 894.489 469.688 C 897.740 458.503, 898.163 419.600, 895.119 411.756 C 894.533 410.246, 890.985 405.971, 887.233 402.256 C 883.482 398.540, 879.636 393.838, 878.687 391.807 C 876.267 386.631, 873.401 384.706, 862.545 380.964 C 855.283 378.460, 851.480 376.426, 846.283 372.263 C 839.157 366.555, 833.120 363, 830.550 363 C 826.794 363, 815.767 357.455, 809.431 352.381 C 802.092 346.502, 797.322 343.722, 792.640 342.595 C 786.780 341.184, 780.339 337.505, 775 332.517 C 770.789 328.583, 766.812 326.222, 758.030 322.440 C 748.673 318.410, 745.633 316.551, 741.530 312.348 C 736.417 307.110, 730.563 303.011, 728.188 303.004 C 725.136 302.995, 715.032 297.300, 709 292.189 C 702.982 287.089, 700.298 285.584, 688 280.415 C 685.525 279.374, 680.575 275.802, 677 272.477 C 672.177 267.990, 668.307 265.494, 662 262.803 C 652.520 258.757, 646.753 257.764, 639.831 258.986 M 860.857 441.878 C 849.266 447.877, 849.005 448.101, 845.800 454.824 C 842.882 460.946, 842.547 461.257, 835.360 464.532 C 828.129 467.827, 827.855 468.085, 824.929 474.337 C 821.579 481.497, 819.877 483.342, 813.255 486.988 C 809.745 488.921, 807.866 490.977, 805.097 495.911 C 801.998 501.434, 800.629 502.799, 795.210 505.772 C 788.657 509.368, 786.106 512.842, 783.017 522.377 C 781.226 527.905, 776.724 534.093, 772.378 537 C 768.264 539.753, 763 547.262, 763 550.380 C 763 554.812, 758.838 561, 753.454 564.574 C 748.979 567.544, 747.758 569.031, 746.057 573.576 C 744.937 576.571, 743.746 580.735, 743.411 582.831 C 742.378 589.292, 738.696 595.231, 733.046 599.550 C 726.958 604.205, 724.628 608.151, 723.105 616.388 C 721.558 624.758, 718.329 630.534, 712.868 634.699 C 708.231 638.235, 703 647.130, 703 651.479 C 703 655.147, 695.490 667.363, 689.940 672.722 C 683.436 679.002, 679.783 685.515, 679.636 691.090 C 679.505 696.087, 681.090 697.522, 686.607 697.403 C 692.472 697.276, 695.642 694.861, 699.839 687.322 C 702.633 682.302, 704.220 680.724, 709.566 677.650 C 714.340 674.904, 716.806 672.644, 719.325 668.705 C 721.180 665.807, 725.721 660.780, 729.417 657.535 C 733.113 654.290, 736.821 650.314, 737.656 648.699 C 739.722 644.703, 744.260 640.418, 748.971 638.015 C 752.831 636.046, 758 630.403, 758 628.158 C 758 626.273, 764.948 619.157, 769.027 616.865 C 771.590 615.424, 774.031 612.657, 776.573 608.310 C 780.509 601.580, 781.940 600.174, 789.222 595.875 C 792.878 593.716, 794.261 591.987, 797.001 586.146 C 798.918 582.062, 801.614 578.078, 803.345 576.772 C 810.372 571.471, 812.128 569.539, 815.230 563.694 C 817.028 560.305, 821.228 554.600, 824.562 551.016 C 831.888 543.142, 834.088 540.043, 838.112 531.933 C 839.811 528.508, 844.016 522.709, 847.457 519.046 C 853.143 512.992, 857.920 504.257, 858.029 499.712 C 858.078 497.706, 864.240 487.496, 868.334 482.638 C 874.245 475.624, 877.360 465.712, 877.437 453.670 L 877.500 443.840 874.234 440.920 C 872.438 439.314, 870.380 438, 869.660 438 C 868.941 438, 864.979 439.745, 860.857 441.878 M 566.467 560.929 C 560.051 564.214, 558.487 567.793, 558.572 579 C 558.621 585.410, 559.170 589.713, 560.262 592.228 C 563.288 599.202, 571.434 601.928, 583.490 600.002 C 596.815 597.873, 599.340 594.548, 599.439 579 C 599.538 563.480, 596.095 560.048, 579.661 559.289 C 571.840 558.927, 569.910 559.167, 566.467 560.929 M 613.500 701.672 C 604.864 703.572, 601.966 708.989, 607.325 713.215 C 610.014 715.336, 628.053 721.423, 637.537 723.409 C 646.620 725.311, 650.167 724.504, 662.637 717.700 C 670.049 713.655, 672.588 711.735, 673.283 709.651 C 674.549 705.852, 673.449 702.353, 670.761 701.633 C 668.220 700.952, 616.612 700.987, 613.500 701.672" stroke="none" fill="#444" fill-rule="evenodd"/></svg>