<svg xmlns="http://www.w3.org/2000/svg" width="1000" height="1000" viewBox="0 0 1000 1000" version="1.1"><path d="M 640.282 265.959 C 637.963 267.012, 633.238 270.230, 629.782 273.110 C 626.327 275.991, 619.848 280.038, 615.384 282.103 C 610.393 284.413, 606.351 287.047, 604.884 288.946 C 603.573 290.644, 601.391 293.443, 600.035 295.167 C 598.679 296.890, 595.079 299.885, 592.035 301.823 C 586.111 305.593, 584.893 306.926, 581 313.896 C 579.577 316.444, 575.916 320.356, 572.500 322.978 C 567.806 326.581, 565.754 329.073, 563.071 334.425 C 561.125 338.309, 556.744 344.393, 552.940 348.496 C 547.993 353.830, 545.021 358.275, 541.595 365.462 C 537.931 373.145, 535.621 376.497, 530.644 381.350 C 525.639 386.229, 524.091 388.483, 523.152 392.254 C 521.267 399.830, 517.395 407.377, 512.434 413.148 C 506.963 419.512, 504.349 424.337, 501.965 432.474 C 499.160 442.047, 497.112 446.074, 491.835 452.388 C 485.609 459.839, 484.707 461.642, 482.190 471.664 C 479.669 481.703, 476.162 489.283, 471.540 494.683 C 469.606 496.942, 466.638 502.325, 464.946 506.645 C 460.898 516.975, 456.840 521, 450.475 521 C 444.786 521, 439.234 518.236, 434.857 513.225 C 430.605 508.356, 426.838 506.139, 415 501.538 C 407.716 498.707, 404.515 496.834, 401.279 493.511 C 395.434 487.510, 392.510 485.623, 385 483.002 C 374.895 479.476, 369.367 476.350, 364.075 471.167 C 361.393 468.542, 357.467 465.680, 355.350 464.807 C 353.232 463.934, 348.386 461.962, 344.580 460.425 C 340.774 458.888, 335.149 455.545, 332.080 452.996 C 325.501 447.533, 319.045 443.703, 313.500 441.976 C 306.554 439.812, 302.165 437.121, 296.753 431.711 C 293.355 428.315, 289.734 425.825, 286.500 424.661 C 271.640 419.315, 268.396 417.571, 262 411.494 C 257.283 407.012, 253.854 404.719, 249.500 403.137 C 238.705 399.214, 235.645 397.571, 229.029 392.148 C 221.258 385.777, 219.542 384.841, 208.475 380.935 C 203.803 379.286, 197.172 376.159, 193.740 373.987 C 186.712 369.539, 184.789 369.063, 159.115 365.429 C 129.250 361.201, 115.257 362.595, 114.173 369.906 C 113.983 371.189, 115.487 374.727, 117.768 378.366 C 119.925 381.806, 122.532 386.843, 123.562 389.560 C 124.811 392.854, 127.348 396.333, 131.175 400 C 135.478 404.122, 137.819 407.504, 140.522 413.500 C 148.183 430.496, 149.003 431.496, 161.156 438.695 C 165.618 441.338, 172.400 446.300, 176.227 449.722 C 181.576 454.504, 184.937 456.586, 190.759 458.722 C 196.718 460.908, 199.820 462.860, 205.310 467.878 C 209.690 471.881, 214.746 475.349, 218.893 477.193 C 222.527 478.809, 227.402 480.999, 229.726 482.060 C 232.051 483.120, 236.253 486.415, 239.066 489.382 C 241.878 492.349, 246.051 495.571, 248.339 496.542 C 260.830 501.840, 263.299 503.259, 268.764 508.283 C 274.132 513.218, 278.944 516.019, 291.500 521.518 C 293.700 522.481, 298.200 526.068, 301.500 529.488 C 306.411 534.578, 308.822 536.205, 314.783 538.454 C 322.503 541.365, 331.319 546.874, 334.288 550.643 C 335.970 552.778, 342.722 556.369, 353 560.596 C 355.475 561.614, 360.200 564.991, 363.500 568.102 C 369.214 573.487, 374.508 576.826, 380 578.509 C 386.987 580.650, 393.499 584.586, 398.725 589.826 C 401.901 593.011, 405.850 596.107, 407.500 596.708 C 419.482 601.068, 422.750 602.792, 427.872 607.454 C 435.150 614.079, 437.049 615.227, 447.118 619.085 C 454.115 621.766, 456.501 623.307, 461.560 628.411 C 465.005 631.887, 469.537 635.314, 472.060 636.352 C 483.389 641.014, 489.503 644.384, 493.819 648.345 C 500.067 654.078, 503.700 656.467, 508.500 657.998 C 515.800 660.325, 521.701 663.854, 525.623 668.239 C 529.831 672.942, 536.129 676.406, 548.327 680.727 C 553.948 682.719, 557.660 684.841, 561.498 688.259 C 566.468 692.686, 575.844 697.968, 578.772 697.990 C 582.073 698.016, 593.518 704.373, 598.238 708.802 C 604.245 714.440, 606.729 715.828, 616.500 719.002 C 626.542 722.264, 630.823 724.615, 636.600 730.040 C 646.316 739.164, 653.537 739.171, 663.270 730.066 C 666.990 726.586, 673.750 721.918, 680.005 718.510 C 687.483 714.436, 691.841 711.294, 695.166 707.580 C 697.920 704.504, 702.427 701.008, 706.166 699.048 C 712.919 695.509, 718 691.383, 718 689.440 C 718 687.666, 726.638 680.049, 730.461 678.452 C 733.802 677.056, 735.519 675.241, 741.086 667.219 C 742.720 664.865, 746.475 661.392, 749.431 659.501 C 754.960 655.964, 756.699 654.083, 760.990 646.991 C 762.360 644.727, 765.816 641.325, 768.670 639.431 C 773.867 635.981, 776.199 633.502, 780.318 627.042 C 781.531 625.140, 784.543 622.100, 787.011 620.285 C 793.382 615.603, 796.908 611.961, 798.422 608.500 C 800.046 604.786, 804.384 600.039, 809 596.926 C 813.611 593.816, 814.264 593.131, 816.545 589 C 819.627 583.419, 824.538 577.574, 828.330 574.976 C 830.258 573.655, 833.295 570.082, 835.078 567.037 C 841.230 556.532, 843.439 553.477, 849.600 546.960 C 853.678 542.646, 857.199 537.541, 859.945 531.960 C 862.955 525.842, 865.735 521.944, 869.988 517.880 C 874.834 513.249, 876.169 511.224, 877.576 506.380 C 880.309 496.964, 885.722 484.930, 889.131 480.688 C 890.864 478.531, 893.427 473.557, 894.826 469.634 C 897.099 463.264, 897.417 460.595, 897.798 444.724 C 898.399 419.660, 896.434 412.959, 886.048 404.647 C 882.712 401.978, 878.176 397.218, 875.968 394.070 C 871.744 388.047, 866.841 385.068, 855.500 381.631 C 846.792 378.991, 843.607 377.281, 839.500 373.037 C 834.712 368.090, 828.784 364.866, 820 362.431 C 809.798 359.603, 805.486 357.334, 799.998 351.903 C 795.266 347.221, 788.331 343.074, 785.147 343.022 C 781.791 342.967, 767.213 335.089, 764.456 331.840 C 760.936 327.692, 756.261 324.744, 749.640 322.496 C 743.954 320.566, 735.525 315.573, 733.744 313.080 C 731.544 310.001, 724.003 305.161, 718.678 303.410 C 708.559 300.082, 703.120 297.024, 699.396 292.570 C 695.952 288.449, 687.761 283, 685.012 283 C 681.639 283, 667.178 275.040, 664.376 271.641 C 658.303 264.273, 648.887 262.052, 640.282 265.959 M 860.505 445.072 C 856.174 447.232, 848 454.724, 848 456.534 C 848 458.141, 843.925 461.741, 836.802 466.425 C 832.681 469.135, 829.248 472.484, 826.553 476.425 C 823.419 481.006, 821.060 483.137, 816.150 485.820 C 809.959 489.202, 809.694 489.517, 805.557 498.395 C 802.456 505.049, 800.007 508.711, 796.458 512 C 786.984 520.779, 785.157 523.011, 783.585 527.728 C 781.127 535.106, 778.547 538.597, 773.313 541.634 C 767.547 544.978, 766.547 546.143, 764.419 552 C 763.520 554.475, 762.305 557.792, 761.720 559.371 C 761.135 560.951, 757.647 565.226, 753.967 568.871 C 747.100 575.676, 746.814 576.232, 742.566 591 C 740.720 597.419, 739.197 599.411, 732.765 603.826 C 726.844 607.889, 726.263 609.001, 723.887 620.813 C 722.824 626.097, 721.287 631.439, 720.472 632.682 C 719.658 633.926, 716.525 636.766, 713.511 638.992 C 707.644 643.326, 706.080 645.642, 703.709 653.500 C 702.879 656.250, 700.383 662.422, 698.162 667.216 C 694.528 675.057, 693.690 676.136, 689.811 677.967 C 687.440 679.086, 683.157 681.779, 680.293 683.953 C 677.429 686.126, 673.829 688.543, 672.293 689.325 C 667.657 691.684, 657.089 693, 642.793 693 C 635.344 693, 627.844 693.281, 626.125 693.625 C 623.305 694.189, 623 694.609, 623 697.929 C 623 699.952, 624.155 703.924, 625.566 706.756 C 627.868 711.377, 628.712 712.123, 633.782 714.020 C 645.963 718.577, 651.121 718.634, 661.719 714.328 C 666.940 712.207, 668.486 710.976, 671.359 706.651 C 675.851 699.890, 677.523 698.560, 683.500 696.996 C 691.287 694.960, 693.631 693.393, 695.898 688.712 C 697.054 686.323, 698 683.846, 698 683.207 C 698 681.549, 701.873 679.235, 707.579 677.483 C 713.563 675.647, 715.387 674.115, 720.364 666.744 C 722.490 663.597, 725.655 660.140, 727.398 659.063 C 732.383 655.982, 735.536 652.859, 738.521 648.046 C 741.679 642.953, 744.002 640.754, 749.095 638.036 C 752.709 636.107, 759 629.733, 759 628 C 759 626.419, 765.143 619.978, 768.116 618.440 C 771.745 616.563, 775.650 612.427, 777.970 608 C 780.132 603.878, 783.267 600.857, 787.721 598.606 C 792.321 596.282, 794.772 593.377, 798.195 586.191 C 800.746 580.837, 802.084 579.329, 807.035 576.234 C 812.014 573.122, 813.399 571.553, 816.474 565.543 C 818.727 561.142, 821.393 557.562, 823.583 556 C 825.510 554.625, 828.080 552.763, 829.293 551.863 C 830.507 550.963, 833.525 546.309, 836 541.522 C 838.635 536.424, 843.029 530.058, 846.602 526.159 C 853.503 518.628, 854.955 516.154, 857.998 506.734 C 859.861 500.966, 860.942 499.382, 866.009 494.992 C 872.701 489.195, 873.508 487.329, 877.467 468.500 C 880.716 453.045, 880.730 449.080, 877.548 445.646 C 875.478 443.412, 874.270 443.006, 869.798 443.040 C 866.581 443.064, 862.930 443.863, 860.505 445.072 M 580.500 557.615 C 565.700 559.703, 560.957 564.028, 561.036 575.365 C 561.078 581.416, 563.316 591.471, 565.100 593.620 C 568.355 597.542, 580.799 600.603, 588.686 599.420 C 597.327 598.124, 601.053 591.968, 602.557 576.500 C 603.049 571.450, 602.774 569.797, 600.820 566.059 C 599.544 563.616, 597.369 560.795, 595.986 559.789 C 593.413 557.919, 585.862 556.859, 580.500 557.615" stroke="none" fill="#444" fill-rule="evenodd"/></svg>