<svg xmlns="http://www.w3.org/2000/svg" width="1000" height="1000" viewBox="0 0 1000 1000" version="1.1"><path d="M 639.337 264.934 C 637.047 265.974, 632.455 269.324, 629.133 272.378 C 625.810 275.432, 619.584 279.697, 615.296 281.855 C 606.999 286.030, 605.750 287.093, 601.224 293.832 C 599.589 296.267, 595.560 299.942, 591.920 302.319 C 587.088 305.475, 584.899 307.692, 583.071 311.284 C 580.471 316.390, 575.609 321.885, 569.950 326.112 C 567.874 327.662, 565.171 331.321, 563.299 335.112 C 561.565 338.625, 556.916 345.325, 552.968 350 C 549.020 354.675, 544.670 360.975, 543.301 364 C 541.933 367.025, 539.953 371.392, 538.903 373.703 C 537.852 376.015, 534.930 379.615, 532.408 381.703 C 528.290 385.114, 523 393.173, 523 396.036 C 523 399.656, 516.287 412.473, 511.489 418.013 C 508.501 421.463, 505.310 426.359, 504.398 428.893 C 501.216 437.733, 496.974 446.259, 492.723 452.357 C 488.104 458.984, 484.626 466.415, 483.531 472 C 481.683 481.416, 477.295 492.794, 473.334 498.440 C 470.995 501.773, 467.675 507.425, 465.956 511 C 460.963 521.381, 454.555 524.956, 444.718 522.846 C 439.939 521.821, 427.274 514.224, 425.713 511.446 C 424.340 509.002, 416.728 504.444, 410.002 502.037 C 402.054 499.193, 396.751 495.935, 393.990 492.201 C 391.656 489.044, 385.395 485.571, 373.500 480.836 C 366.997 478.247, 364.356 476.492, 359.387 471.457 C 354.257 466.259, 352.176 464.907, 346.457 463.060 C 336.922 459.979, 332.770 457.678, 326.500 452 C 320.796 446.834, 316.191 444.125, 309.500 442 C 303.051 439.951, 298.809 437.413, 293.805 432.606 C 288.530 427.540, 285.090 425.600, 273.358 421.077 C 267.001 418.626, 264.243 416.898, 260.782 413.198 C 255.260 407.295, 252.753 405.643, 244.735 402.625 C 234.669 398.836, 229.924 396.093, 223.698 390.462 C 219.005 386.217, 216.138 384.606, 208.698 382.030 C 203.639 380.278, 197.223 377.574, 194.441 376.022 C 184.639 370.552, 171.449 367.689, 138.809 363.948 C 126.075 362.489, 115.069 363.069, 111.532 365.387 C 107.364 368.118, 108.200 371.390, 114.892 378.544 C 119.456 383.423, 121.279 386.329, 122.979 391.436 C 124.695 396.594, 126.254 399.059, 130.143 402.764 C 136.142 408.480, 138.950 413.092, 142.465 423 C 145.576 431.770, 148.513 435.217, 155.833 438.692 C 158.766 440.085, 163.941 443.788, 167.333 446.922 C 175.267 454.254, 177.654 455.794, 188.274 460.441 C 195.216 463.478, 197.870 465.261, 200.982 468.979 C 203.186 471.611, 207.025 474.681, 209.708 475.959 C 223.794 482.665, 227.197 484.685, 232.316 489.373 C 237.950 494.533, 239.356 495.385, 250.697 500.514 C 254.905 502.417, 258.661 505.190, 262.401 509.153 C 265.431 512.363, 269.617 515.721, 271.705 516.615 C 284.349 522.030, 287.912 524.067, 293.735 529.208 C 297.296 532.351, 302.300 535.890, 304.855 537.071 C 317.617 542.973, 320.273 544.628, 323.702 548.811 C 327.274 553.171, 328.938 554.127, 345.490 561.329 C 348.235 562.523, 353.484 566.245, 357.155 569.599 C 361.453 573.527, 365.906 576.518, 369.664 578.001 C 377.697 581.170, 381.781 583.744, 386.483 588.601 C 389.171 591.378, 394.068 594.446, 401.283 597.875 C 407.214 600.694, 412.337 603, 412.667 603 C 412.997 603, 416.475 606.047, 420.395 609.770 C 425.398 614.523, 428.860 616.940, 432.011 617.882 C 438.819 619.916, 442.970 622.305, 450.780 628.683 C 458.118 634.675, 459.868 635.718, 471.086 640.773 C 475.349 642.695, 479.363 645.511, 482.468 648.761 C 485.165 651.585, 489.503 654.769, 492.382 656.039 C 507.949 662.905, 511.848 665.146, 517.181 670.296 C 520.686 673.681, 524.707 676.451, 527.681 677.530 C 537.692 681.161, 543.493 684.176, 548.417 688.307 C 555.572 694.310, 557.858 695.609, 565.641 698.091 C 575.485 701.231, 579.623 703.542, 584.869 708.831 C 589.505 713.505, 593.054 715.391, 606.915 720.548 C 612.983 722.805, 615.454 724.442, 620.518 729.556 C 626.399 735.495, 627.259 735.984, 637.835 739.402 C 651.749 743.901, 654.009 743.939, 658.563 739.750 C 661.512 737.037, 662.481 735.013, 664.427 727.500 C 667.292 716.438, 668.346 713.740, 671.387 709.682 C 675.020 704.834, 677.534 699.124, 678.952 692.500 C 680.654 684.553, 683.008 680.129, 687.877 675.730 C 692.615 671.450, 693.765 669.380, 697.856 657.765 C 701.877 646.351, 703.359 643.606, 708.480 638.093 C 713.431 632.762, 716.065 627.866, 718.461 619.543 C 720.942 610.925, 724.376 604.700, 728.766 600.862 C 733.501 596.723, 736.636 592.311, 737.594 588.439 C 739.145 582.168, 744.098 573.224, 749.420 567.086 C 752.478 563.558, 755.885 558.720, 756.990 556.336 C 758.096 553.951, 759.931 549.995, 761.068 547.544 C 762.205 545.093, 764.793 541.732, 766.818 540.075 C 773.506 534.602, 775.143 532.570, 778.644 525.397 C 780.551 521.490, 784.553 515.640, 787.537 512.397 C 790.521 509.153, 795.559 502.901, 798.731 498.501 C 801.904 494.102, 808.161 486.902, 812.635 482.501 C 817.110 478.101, 821.919 472.641, 823.323 470.368 C 824.904 467.809, 828.574 464.442, 832.963 461.525 C 836.861 458.933, 841.951 454.579, 844.275 451.849 C 849.690 445.486, 861.586 437.467, 868.662 435.410 C 873.086 434.124, 875.037 434.024, 878.531 434.903 C 888.888 437.511, 890.333 436.511, 894.041 424.172 C 897.578 412.397, 896.140 407.585, 887.500 402.289 C 885.300 400.940, 880.575 396.790, 877 393.065 C 872.498 388.375, 869.117 385.805, 866 384.705 C 863.525 383.831, 857.921 381.853, 853.547 380.308 C 847.461 378.159, 844.409 376.367, 840.547 372.674 C 834.505 366.896, 831.644 365.399, 818.282 361.026 C 809.395 358.117, 807.220 356.933, 801.589 351.934 C 797.444 348.255, 793.025 345.411, 789.307 344.030 C 778.764 340.115, 773.575 337.223, 767.267 331.745 C 760.681 326.027, 758.571 324.809, 747.736 320.471 C 742.745 318.473, 739.838 316.502, 736.643 312.948 C 732.312 308.131, 729.343 306.441, 713.591 299.823 C 707.567 297.292, 704.826 295.467, 702.091 292.167 C 698.475 287.803, 691.555 283, 688.884 283 C 685.700 283, 673.207 275.897, 668.659 271.500 C 665.996 268.926, 661.946 265.971, 659.659 264.932 C 654.151 262.431, 644.847 262.432, 639.337 264.934 M 888.695 468.695 C 888.425 469.138, 887.627 472.952, 886.920 477.171 C 885.301 486.845, 886.705 493.325, 890.309 492.812 C 891.865 492.590, 892.917 491.294, 893.939 488.337 C 895.191 484.715, 895.191 483.158, 893.939 476.351 C 892.883 470.607, 892.059 468.442, 890.843 468.208 C 889.932 468.033, 888.966 468.252, 888.695 468.695 M 869.212 515.188 C 867.835 516.565, 867.602 523.823, 868.870 525.824 C 869.546 526.890, 870.040 526.817, 871.405 525.453 C 872.615 524.243, 873.014 522.455, 872.800 519.207 C 872.488 514.470, 871.281 513.119, 869.212 515.188 M 847.655 546.829 C 846.745 547.835, 846 550.076, 846 551.810 C 846 554.391, 846.483 555.083, 848.669 555.632 C 850.735 556.150, 851.751 555.791, 853.169 554.040 C 857.682 548.466, 852.412 541.572, 847.655 546.829 M 572 561.586 C 565.637 563.549, 563.429 566.530, 561.982 575.109 C 559.909 587.396, 562.131 596.610, 567.703 598.835 C 576.673 602.417, 589.138 602.997, 594.790 600.095 C 600.514 597.156, 602.245 593.241, 602.786 582.001 C 603.362 570.028, 601.398 564.366, 595.734 561.678 C 591.377 559.610, 578.565 559.561, 572 561.586 M 828.713 568.621 C 827.267 570.066, 827.965 576.050, 829.656 576.698 C 831.777 577.512, 835.205 573.433, 834.797 570.581 C 834.498 568.486, 830.224 567.109, 828.713 568.621 M 767.459 648.067 C 767.096 648.653, 767.040 649.373, 767.333 649.667 C 768.050 650.383, 770 649.121, 770 647.941 C 770 646.663, 768.274 646.748, 767.459 648.067 M 747.200 667.200 C 745.327 669.073, 745.740 672, 747.878 672 C 750.277 672, 752.396 669.475, 751.643 667.513 C 750.946 665.696, 748.851 665.549, 747.200 667.200 M 727.655 686.829 C 725.167 689.578, 725.546 692, 728.465 692 C 731.562 692, 733.712 688.563, 731.947 686.436 C 730.387 684.557, 729.650 684.624, 727.655 686.829" stroke="none" fill="#444" fill-rule="evenodd"/></svg>