<svg xmlns="http://www.w3.org/2000/svg" width="800" height="800" viewBox="0 0 800 800" version="1.1"><path d="M 496.176 202.376 C 493.054 205.333, 487.800 209.019, 484.500 210.566 C 480.963 212.224, 475.604 216.119, 471.446 220.053 C 467.567 223.724, 462.536 227.899, 460.266 229.332 C 457.996 230.765, 454.696 234.089, 452.932 236.719 C 451.168 239.348, 447.131 244.200, 443.960 247.500 C 440.789 250.800, 436.520 256.200, 434.473 259.500 C 432.426 262.800, 428.578 267.750, 425.922 270.500 C 423.223 273.295, 419.937 278.146, 418.474 281.500 C 416.980 284.922, 413.760 289.648, 410.978 292.500 C 407.267 296.306, 405.336 299.513, 402.896 305.928 C 400.478 312.283, 398.391 315.767, 394.411 320.097 C 390.131 324.752, 388.721 327.224, 386.956 333.169 C 384.193 342.471, 382.625 345.523, 378.022 350.559 C 374.220 354.717, 372.675 358.184, 369.082 370.613 C 367.661 375.527, 365.619 379.538, 362.476 383.585 C 357.994 389.357, 356.536 393.108, 354.019 405.336 C 352.340 413.494, 348.949 417.106, 342.376 417.738 C 339.623 418.002, 334.754 417.675, 331.555 417.011 C 326.622 415.987, 324.794 414.925, 319.514 410.013 C 315.719 406.482, 311.980 403.935, 309.935 403.486 C 303.609 402.096, 297.728 398.952, 292.476 394.152 C 288.750 390.747, 285.033 388.551, 279.711 386.609 C 274.465 384.696, 270.393 382.308, 266.203 378.685 C 262.003 375.055, 257.887 372.642, 252.473 370.639 C 246.742 368.518, 243.261 366.418, 239.024 362.522 C 234.427 358.296, 231.689 356.728, 225.042 354.514 C 218.213 352.240, 215.649 350.739, 210.287 345.881 C 206.718 342.646, 203.411 340, 202.937 340 C 199.790 340, 190.134 335.097, 184.610 330.695 C 180.369 327.316, 175.314 324.460, 170.279 322.601 C 164.453 320.449, 161.496 318.660, 158.500 315.478 C 153.979 310.675, 151.391 309.222, 141.663 306.026 C 136.066 304.186, 133.901 302.803, 129.718 298.390 C 122.130 290.384, 117.442 291.094, 112.481 301 C 111.517 302.925, 108.652 306.545, 106.114 309.043 C 102.796 312.311, 100.571 315.860, 98.191 321.682 C 96.372 326.134, 93.342 331.577, 91.459 333.777 C 84.727 341.642, 85.080 345.880, 92.736 349.110 C 95.356 350.215, 99.300 351.879, 101.500 352.807 C 103.700 353.736, 108 356.782, 111.056 359.578 C 114.532 362.757, 118.647 365.379, 122.046 366.580 C 125.870 367.931, 128.965 370.038, 132.490 373.690 C 135.752 377.069, 139.350 379.601, 142.799 380.945 C 151.902 384.492, 155.721 386.820, 160.102 391.494 C 163.077 394.668, 166.136 396.671, 170.361 398.212 C 174.231 399.623, 178.480 402.280, 182.260 405.653 C 186.153 409.127, 190.548 411.847, 195.262 413.700 C 200.637 415.813, 203.897 417.971, 208.554 422.500 C 213.263 427.080, 216.235 429.036, 221.112 430.765 C 225.286 432.245, 229.677 434.881, 233.782 438.370 C 237.677 441.680, 242.686 444.738, 246.967 446.417 C 251.962 448.377, 255.198 450.495, 258.674 454.078 C 262.480 458.001, 265.209 459.683, 271.817 462.177 C 278.200 464.586, 281.613 466.644, 286.364 470.950 C 290.555 474.748, 294.538 477.293, 298.624 478.783 C 302.682 480.262, 306.360 482.604, 309.785 485.887 C 313.615 489.559, 316.968 491.573, 323.196 493.942 C 329.709 496.419, 332.686 498.256, 337 502.456 C 340.980 506.332, 344.615 508.682, 350.157 510.960 C 354.857 512.893, 359.944 515.974, 363.333 518.939 C 366.794 521.967, 371.424 524.752, 375.750 526.404 C 380.998 528.410, 383.837 530.292, 387.618 534.270 C 391.197 538.036, 394.116 540.032, 398.044 541.401 C 406.383 544.307, 410.494 546.610, 415.881 551.394 C 419.436 554.552, 423.011 556.505, 428.699 558.400 C 434.422 560.306, 438.462 562.521, 443.423 566.474 C 448.386 570.429, 452.422 572.642, 458.155 574.551 C 463.996 576.497, 467.540 578.460, 471.775 582.099 C 475.647 585.425, 479.928 587.904, 485 589.759 C 490.972 591.942, 493.530 593.569, 497.558 597.750 C 504.297 604.745, 506.970 604.820, 514.263 598.215 C 517.169 595.583, 522.987 591.542, 527.190 589.234 C 531.936 586.630, 536.208 583.362, 538.460 580.615 C 540.715 577.863, 544.432 575.021, 548.293 573.099 C 552.965 570.772, 555.199 568.901, 557.325 565.531 C 559.134 562.664, 562.230 559.790, 565.933 557.541 C 569.223 555.542, 572.867 552.288, 574.387 549.991 C 575.856 547.771, 579.320 544.330, 582.083 542.345 C 584.847 540.359, 588.624 536.365, 590.477 533.468 C 592.330 530.572, 595.895 526.792, 598.399 525.069 C 600.904 523.346, 604.148 519.898, 605.608 517.406 C 607.123 514.821, 610.370 511.457, 613.172 509.570 C 615.872 507.752, 619.368 504.235, 620.941 501.754 C 622.515 499.273, 625 496.401, 626.463 495.371 C 632.939 490.818, 635.099 488.566, 636.907 484.478 C 638.217 481.516, 640.515 478.908, 644.060 476.361 C 647.908 473.597, 649.881 471.256, 651.556 467.469 C 653.040 464.113, 655.584 460.860, 658.885 458.096 C 662.935 454.706, 664.293 452.747, 665.708 448.256 C 667.065 443.952, 668.821 441.312, 673.271 436.890 C 677.182 433.003, 680.069 428.916, 682.152 424.316 C 684.318 419.531, 686.852 416.007, 690.656 412.489 C 696.030 407.520, 696.086 407.408, 697.483 398.774 C 699.133 388.582, 699.782 387.175, 705.953 380.388 C 708.518 377.566, 711.158 373.417, 711.844 371.128 C 712.527 368.846, 713.510 359.581, 714.027 350.538 C 714.545 341.495, 715.029 333.737, 715.102 333.298 C 715.647 330.065, 714.480 327.294, 711.250 324.150 C 709.188 322.143, 705.700 317.815, 703.500 314.532 C 699.784 308.989, 698.978 308.373, 692.152 305.857 C 687.974 304.317, 682.794 301.453, 680.142 299.217 C 674.667 294.600, 669.229 291.677, 662.994 290 C 657.012 288.390, 654.359 286.943, 648.476 282.081 C 645.262 279.426, 640.424 276.886, 634.634 274.815 C 627.676 272.326, 624.663 270.606, 620.837 266.937 C 617.161 263.412, 613.788 261.431, 607.292 258.979 C 600.425 256.387, 597.376 254.536, 592.497 249.997 C 587.766 245.596, 584.810 243.767, 579.653 242.051 C 573.857 240.122, 564.401 234.076, 562.585 231.138 C 562.261 230.614, 558.510 228.751, 554.248 226.998 C 548.882 224.790, 544.963 222.319, 541.500 218.962 C 537.754 215.330, 534.369 213.288, 528 210.816 C 521.891 208.445, 518.375 206.366, 515.500 203.426 C 507.379 195.121, 504.028 194.939, 496.176 202.376 M 686.713 356.388 C 680.750 359.122, 679.558 360.148, 676.894 364.836 C 674.365 369.286, 672.966 370.568, 668.461 372.560 C 663.872 374.589, 662.673 375.712, 660.485 380.029 C 658.371 384.201, 657.069 385.470, 653.205 387.126 C 646.900 389.829, 645.455 391.304, 643.991 396.531 C 642.605 401.484, 641.543 402.620, 635.616 405.500 C 631.831 407.339, 631.302 408.101, 629.038 414.985 C 626.891 421.513, 625.789 423.216, 620.432 428.289 C 615.675 432.794, 613.862 435.361, 612.401 439.661 C 610.561 445.073, 606.856 449.995, 604.614 450.005 C 604.001 450.008, 602.241 451.020, 600.702 452.255 C 598.327 454.161, 597.749 455.634, 596.876 462 C 595.481 472.174, 594.636 473.897, 588.880 478.300 C 583.643 482.306, 583.242 482.970, 580.331 492.482 C 578.866 497.268, 577.800 498.905, 575 500.670 C 567.441 505.433, 567.034 506.037, 565.529 514.718 C 563.767 524.887, 563.065 526.271, 556.517 532.500 C 552.696 536.135, 550.668 539.112, 549.087 543.404 C 546.366 550.792, 546.629 552.500, 550.483 552.500 C 552.942 552.500, 554.032 551.609, 556.970 547.197 C 558.971 544.190, 562.455 540.680, 565.013 539.092 C 567.495 537.552, 570.750 534.526, 572.245 532.368 C 573.741 530.210, 577.412 526.961, 580.403 525.148 C 584.156 522.873, 586.353 520.711, 587.489 518.176 C 590.895 510.572, 591.552 509.754, 596.124 507.437 C 599.932 505.508, 601.245 504.098, 603.141 499.903 C 604.948 495.905, 606.706 493.926, 610.944 491.121 C 614.604 488.699, 617.362 485.845, 619.274 482.500 C 621.106 479.294, 623.926 476.316, 627.130 474.200 C 631.150 471.545, 632.675 469.686, 634.918 464.700 C 636.494 461.197, 640.308 455.636, 643.685 451.916 C 646.973 448.294, 651.062 442.894, 652.771 439.916 C 654.479 436.937, 657.939 432.782, 660.459 430.683 C 663.583 428.081, 665.950 424.861, 667.897 420.566 C 670.079 415.754, 671.828 413.527, 675.297 411.139 C 680.122 407.820, 681.354 405.346, 682.592 396.500 C 683.739 388.303, 686.640 381.291, 691.394 375.222 C 697.768 367.087, 699.599 360.856, 697.028 356.052 C 695.432 353.071, 693.835 353.123, 686.713 356.388 M 391.965 507.085 C 390.848 509.780, 390.870 510.679, 392.105 512.887 C 393.795 515.907, 397.126 516.758, 398.899 514.622 C 399.578 513.804, 399.984 511.225, 399.811 508.824 C 399.521 504.797, 399.287 504.479, 396.393 504.197 C 393.720 503.937, 393.102 504.340, 391.965 507.085 M 418.667 516.667 C 417.580 517.753, 417.906 521.506, 419.200 522.800 C 422.210 525.810, 426.847 522.243, 425.488 517.962 C 424.874 516.029, 420.193 515.140, 418.667 516.667" stroke="none" fill="#444" fill-rule="evenodd"/></svg>