<svg xmlns="http://www.w3.org/2000/svg" width="1000" height="1000" viewBox="0 0 1000 1000" version="1.1"><path d="M 633.806 264.344 C 628.520 265.829, 627.168 266.735, 621.500 272.592 C 619.300 274.866, 614.800 278.142, 611.500 279.872 C 608.200 281.603, 604.090 284.477, 602.366 286.260 C 595.602 293.252, 591.021 297.620, 587.619 300.320 C 585.664 301.871, 582.258 305.921, 580.050 309.320 C 577.841 312.719, 573.693 317.303, 570.832 319.507 C 567.158 322.337, 564.289 325.853, 561.065 331.472 C 558.031 336.762, 555.085 340.448, 552.281 342.465 C 548.971 344.846, 546.987 347.654, 543.068 355.500 C 540.148 361.347, 535.762 368.136, 532.507 371.847 C 526.444 378.762, 524.663 381.868, 520.634 392.554 C 518.715 397.645, 516.703 400.846, 513.405 404.054 C 507.810 409.497, 505.585 413.689, 501.768 425.980 C 499.102 434.565, 498.284 436.015, 493.436 440.741 C 486.835 447.177, 485.537 449.620, 483.052 460.278 C 480.214 472.450, 477.385 479.334, 472.877 485.036 C 468.320 490.802, 465.833 496.151, 464.063 504 C 460.699 518.909, 457.278 523, 448.177 523 C 436.948 523, 425.072 517.546, 420.188 510.148 C 418.455 507.521, 411.792 503, 409.654 503 C 407.115 503, 394.550 496.102, 390.866 492.685 C 386.975 489.076, 377.625 483, 375.963 483 C 375.409 483, 372.126 481.717, 368.666 480.148 C 364.299 478.168, 361.214 475.877, 358.572 472.654 C 355.922 469.419, 352.756 467.073, 348.134 464.918 C 334.342 458.487, 329.332 455.503, 323.785 450.413 C 320.260 447.179, 315.930 444.369, 312.488 443.082 C 303.890 439.865, 299.918 437.524, 294.714 432.610 C 290.283 428.424, 286.015 426.023, 272.224 419.955 C 268.973 418.525, 264.308 415.035, 260.065 410.859 C 256.279 407.133, 251.903 403.764, 250.341 403.373 C 244.124 401.819, 237.101 397.936, 229.981 392.119 C 224.807 387.891, 219.558 384.767, 212.931 381.971 C 205.429 378.805, 202.290 376.833, 198.428 372.861 C 194.624 368.947, 190.714 366.465, 181.280 361.975 C 171.335 357.242, 168.170 355.188, 164.280 350.940 C 159.357 345.565, 154.927 343, 150.567 343 C 147.210 343, 141.960 347.787, 139.154 353.407 C 137.892 355.932, 134.620 359.888, 131.882 362.196 C 128.227 365.278, 125.954 368.401, 123.329 373.947 C 121.363 378.101, 118.276 383.750, 116.471 386.500 C 109.111 397.709, 108.784 408.204, 115.619 413.837 C 117.469 415.363, 122.234 417.936, 126.207 419.555 C 131.996 421.915, 134.876 423.940, 140.707 429.750 C 144.709 433.738, 148.465 437, 149.054 437 C 152.133 437, 162.119 443.035, 168.055 448.482 C 172.544 452.601, 177.931 456.213, 184.151 459.275 C 191.102 462.697, 194.931 465.368, 199.081 469.689 C 202.150 472.885, 205.750 476.004, 207.081 476.619 C 208.411 477.235, 211.913 478.798, 214.863 480.093 C 217.953 481.450, 222.408 484.666, 225.377 487.682 C 229.109 491.474, 233.555 494.420, 241.514 498.375 C 250.212 502.697, 253.741 505.117, 258.455 509.993 C 262.890 514.579, 266.371 517.048, 272.089 519.662 C 277.860 522.300, 280.882 524.454, 284.258 528.336 C 288.868 533.636, 290.125 534.430, 303 540.161 C 308.006 542.390, 312.744 545.554, 317.251 549.678 C 321.793 553.835, 325.883 556.560, 329.751 558.005 C 337.328 560.836, 341.605 563.554, 346.483 568.637 C 349.350 571.626, 354.085 574.518, 363.025 578.740 C 372.337 583.139, 376.442 585.677, 379.025 588.634 C 383.347 593.581, 387.332 596.350, 392.500 597.997 C 399.218 600.136, 404.198 603.043, 410.923 608.748 C 414.807 612.043, 421.346 616.087, 427.428 618.955 C 434.618 622.346, 438.788 625.047, 442 628.393 C 445.316 631.847, 449.668 634.612, 458.536 638.901 C 466.394 642.701, 472.295 646.331, 475.536 649.358 C 478.266 651.907, 482.975 655.149, 486 656.562 C 489.025 657.974, 493.525 660.098, 496 661.282 C 498.475 662.466, 502.525 665.477, 505 667.974 C 509.560 672.574, 514.932 675.629, 527.380 680.698 C 531.662 682.442, 536.485 685.477, 540.151 688.735 C 546.817 694.659, 549.581 696.275, 556 698 C 564.257 700.219, 572.445 704.609, 577.968 709.776 C 580.975 712.590, 585.025 715.542, 586.968 716.336 C 588.911 717.130, 593.588 719.027, 597.363 720.551 C 601.278 722.131, 607.078 725.660, 610.863 728.765 C 614.513 731.759, 619.075 735.010, 621 735.989 C 625.591 738.325, 644.273 743, 649.013 743 C 656.296 743, 659.769 738.081, 662.445 723.978 C 664.353 713.919, 665.883 710.431, 670.484 705.647 C 674.245 701.737, 677.938 694.906, 677.978 691.788 C 678.031 687.651, 682.597 678.407, 687.406 672.700 C 693.016 666.042, 695.041 662.261, 700.090 649.019 C 702.415 642.921, 704.630 639.128, 707.973 635.519 C 712.893 630.209, 716.117 624.214, 720.586 612.067 C 722.614 606.554, 724.725 603.106, 728.762 598.715 C 731.756 595.459, 735.310 590.254, 736.661 587.147 C 743.443 571.558, 745.487 568.018, 750.494 563.185 C 754.012 559.789, 756.463 556.261, 758.037 552.327 C 761.412 543.895, 764.203 539.824, 768.787 536.647 C 771.600 534.698, 773.975 531.655, 776.571 526.671 C 780.301 519.512, 787.569 509.683, 792.558 505.051 C 795.562 502.262, 803 491.619, 803 490.110 C 803 489.561, 805.341 487.173, 808.203 484.805 C 815.442 478.815, 819.787 474.298, 822.608 469.829 C 823.935 467.727, 828.136 463.741, 831.944 460.972 C 835.752 458.202, 840.738 453.702, 843.023 450.972 C 847.683 445.406, 861.864 435.606, 868.559 433.325 C 872.154 432.100, 873.822 432.041, 877.727 432.997 C 889.805 435.956, 890.337 435.695, 893.864 425.056 C 897.755 413.317, 896.109 406.122, 888.671 402.370 C 886.927 401.490, 882.125 397.273, 878 393 C 871.020 385.769, 869.983 385.076, 863.044 383.011 C 852.057 379.742, 846.032 376.760, 841.106 372.152 C 835.064 366.499, 833.244 365.428, 825.359 362.882 C 814.335 359.322, 808.888 356.507, 802.551 351.094 C 799.280 348.300, 794.555 345.270, 792.051 344.361 C 781.307 340.460, 775.240 337.233, 768.876 332.036 C 765.147 328.991, 760.612 325.785, 758.798 324.911 C 756.984 324.037, 752.507 321.925, 748.848 320.219 C 744.335 318.113, 740.977 315.657, 738.404 312.578 C 734.536 307.952, 730.584 305.642, 716.793 299.949 C 711.628 297.817, 707.341 295.138, 703.793 291.827 C 698.670 287.045, 692.309 283, 689.914 283 C 687.512 283, 676.461 276.695, 672.062 272.816 C 664.001 265.706, 658.825 263.664, 648 263.324 C 642.252 263.144, 636.646 263.546, 633.806 264.344 M 888.441 467.450 C 885.806 471.471, 885.670 488.091, 888.250 490.676 C 889.862 492.290, 890.128 492.301, 891.616 490.812 C 895.214 487.214, 895.467 471.034, 891.993 466.742 L 890.286 464.634 888.441 467.450 M 869.174 514.291 C 867.264 516.592, 865.865 524.880, 867.022 527.041 C 869.318 531.331, 872.673 528.662, 873.614 521.799 C 874.496 515.366, 871.910 510.994, 869.174 514.291 M 847.773 545.750 C 843.784 550.293, 844.956 556, 849.878 556 C 853.781 556, 856.954 550.390, 855.213 546.567 C 853.826 543.523, 850.089 543.113, 847.773 545.750 M 569.968 561.886 C 562.193 564.417, 560 568.905, 560 582.286 C 560 598.528, 564.028 602.500, 580.500 602.500 C 592.878 602.500, 596.215 601.028, 599.214 594.248 C 600.932 590.366, 601.179 588.205, 600.779 580.564 C 599.955 564.805, 596.934 561.694, 582.088 561.310 C 576.815 561.174, 571.361 561.433, 569.968 561.886 M 828.667 568.667 C 827.326 570.007, 827.985 576.057, 829.537 576.653 C 831.800 577.521, 835 574.119, 835 570.845 C 835 568.388, 834.614 568, 832.167 568 C 830.608 568, 829.033 568.300, 828.667 568.667 M 767.676 646.805 C 766.754 647.824, 766 649.216, 766 649.898 C 766 651.871, 770.438 650.719, 770.834 648.644 C 771.385 645.750, 769.582 644.700, 767.676 646.805 M 747.345 668.543 C 747.019 669.392, 747.014 670.347, 747.333 670.667 C 748.342 671.676, 751 670.128, 751 668.531 C 751 666.535, 748.112 666.545, 747.345 668.543 M 727.380 688.452 C 727.074 689.251, 727.115 690.377, 727.472 690.955 C 728.364 692.397, 732 690.398, 732 688.465 C 732 686.566, 728.108 686.555, 727.380 688.452 M 707.500 708 C 706.423 709.742, 708.019 711.229, 709.578 709.935 C 710.348 709.296, 710.731 708.374, 710.430 707.887 C 709.700 706.706, 708.265 706.762, 707.500 708" stroke="none" fill="#444" fill-rule="evenodd"/></svg>