<svg xmlns="http://www.w3.org/2000/svg" width="50" height="50" viewBox="0 0 50 50" version="1.1">
	<path d="M 29.267 15.250 C 28.122 16.488, 26.198 19.413, 24.992 21.750 C 23.785 24.087, 22.626 26, 22.417 26 C 22.207 26, 19.094 24.200, 15.500 22 C 8.106 17.475, 4.139 16.634, 6.242 20.037 C 7.865 22.666, 29.369 36.206, 32.458 36.545 C 34.042 36.719, 35.746 35.771, 37.657 33.652 L 40.500 30.500 37.250 33.437 C 35.462 35.052, 34 35.910, 34 35.342 C 34 33.264, 42.002 22, 43.478 22 C 46.452 22, 44.918 20.185, 38.928 16.617 C 35.589 14.628, 32.517 13, 32.103 13 C 31.688 13, 30.412 14.012, 29.267 15.250 M 42.224 26.792 L 39.947 30.500 42.474 27.694 C 43.863 26.151, 45 24.464, 45 23.944 C 45 22.474, 44.663 22.820, 42.224 26.792 M 28 29 C 28 29.550, 28.450 30, 29 30 C 29.550 30, 30 29.550, 30 29 C 30 28.450, 29.550 28, 29 28 C 28.450 28, 28 28.450, 28 29" stroke="none" fill="#555555" fill-rule="evenodd"/>
</svg>