<svg xmlns="http://www.w3.org/2000/svg" width="1000" height="1000" viewBox="0 0 1000 1000" version="1.1"><path d="M 643.942 264.948 C 639.826 266.197, 636.887 268.021, 630.717 273.156 C 627.527 275.811, 621.167 279.772, 616.585 281.960 C 611.203 284.528, 607.234 287.195, 605.376 289.490 C 598.002 298.603, 595.717 300.907, 592.575 302.398 C 588.848 304.166, 585.299 308.076, 580.992 315.160 C 579.433 317.723, 575.645 321.677, 572.574 323.945 C 568.288 327.112, 566.194 329.632, 563.568 334.785 C 561.687 338.478, 556.932 345.325, 553.002 350 C 548.346 355.538, 544.377 361.637, 541.612 367.504 C 538.490 374.125, 536.134 377.592, 532.708 380.608 C 528.188 384.586, 523.037 392.137, 523.012 394.820 C 522.977 398.609, 516.233 411.826, 511.883 416.630 C 506.281 422.815, 504.858 425.381, 502.529 433.500 C 500.502 440.562, 498.958 443.523, 493.294 451.203 C 487.423 459.165, 485.672 462.935, 482.099 475.307 C 478.098 489.165, 477.134 491.362, 472.178 497.919 C 469.925 500.899, 466.858 506.299, 465.363 509.919 C 459.939 523.052, 454.871 526.996, 445.895 525.071 C 436.294 523.012, 426.177 517.988, 421.699 513.055 C 416.271 507.077, 412.753 504.721, 406.043 502.572 C 397.883 499.958, 391.273 496.324, 386.117 491.616 C 380.444 486.436, 377.657 484.676, 372.500 483.015 C 365.075 480.624, 359.273 477.117, 355.328 472.635 C 351.305 468.065, 346.378 465.353, 333.385 460.556 C 327.733 458.469, 325.191 456.798, 321.017 452.425 C 315.784 446.941, 311.023 443.891, 305.701 442.611 C 300.111 441.266, 290.662 435.958, 285.855 431.461 C 283.150 428.931, 278.363 425.736, 275.218 424.363 C 272.073 422.989, 267.410 420.941, 264.856 419.811 C 262.302 418.682, 258.232 415.860, 255.813 413.542 C 250.290 408.250, 244.733 405.019, 234.283 401.022 C 227.574 398.457, 224.876 396.731, 219.583 391.617 C 215.218 387.399, 211.695 384.930, 208.800 384.057 C 206.435 383.344, 202.700 382.097, 200.500 381.286 C 198.300 380.475, 190.358 378.290, 182.851 376.431 C 175.344 374.571, 165.424 371.955, 160.806 370.617 C 156.188 369.279, 146.580 367.449, 139.455 366.552 C 132.330 365.654, 123.883 364.463, 120.684 363.904 C 113.691 362.682, 108.915 363.922, 107.027 367.449 C 105.481 370.337, 106.335 374.453, 108.930 376.621 C 115.911 382.455, 118.855 385.998, 120.461 390.500 C 123.937 400.242, 127.283 406.219, 132.120 411.328 C 136.544 416.001, 143 427.041, 143 429.933 C 143 432.454, 147.651 437.117, 153.684 440.645 C 157.279 442.748, 161.452 446.232, 163.274 448.653 C 166.484 452.916, 169.720 454.904, 183.089 460.826 C 187.060 462.585, 192.302 466.122, 196.282 469.729 C 201.014 474.017, 204.959 476.535, 210.193 478.607 C 215.679 480.779, 218.872 482.871, 223.004 487 C 229.157 493.148, 231.683 494.929, 237.500 497.217 C 248.521 501.553, 252.893 504.200, 258.527 509.947 C 262.734 514.238, 266.076 516.630, 269.831 518.036 C 278.173 521.160, 280.610 522.677, 285.211 527.607 C 288.463 531.092, 292.478 533.625, 301.818 538.083 C 311.866 542.880, 315.206 545.050, 319.945 549.864 C 324.117 554.101, 327.354 556.363, 331.424 557.886 C 340.370 561.233, 344.612 563.691, 349.733 568.495 C 354.078 572.571, 360.651 576.333, 373.075 581.857 C 375.656 583.004, 379.143 585.732, 381.075 588.114 C 384.512 592.352, 392.279 598, 394.671 598 C 398.104 598, 409.539 604.524, 415.375 609.813 C 420.163 614.152, 424.075 616.606, 430.190 619.105 C 436.482 621.675, 439.714 623.733, 443.500 627.576 C 448.647 632.800, 453.623 636.212, 458 637.517 C 464.561 639.474, 475.339 645.533, 477.813 648.657 C 481.341 653.109, 486.352 656.499, 492.429 658.543 C 498.645 660.634, 504.238 664.109, 510.051 669.493 C 514.129 673.270, 518.272 675.603, 531.500 681.571 C 533.700 682.563, 538.273 685.939, 541.662 689.072 C 545.129 692.276, 549.722 695.434, 552.162 696.290 C 571.582 703.106, 572.266 703.446, 579.103 709.691 C 584.499 714.621, 587.207 716.292, 592.389 717.893 C 602.714 721.082, 607.533 723.651, 613.977 729.400 C 621.604 736.207, 624.372 737.485, 635.748 739.457 C 647.197 741.442, 651.531 741.635, 653.220 740.232 C 653.942 739.633, 658.556 737.521, 663.474 735.539 C 674.069 731.267, 675.343 730.233, 679.049 722.899 C 682.215 716.631, 686.228 711.483, 689.179 709.904 C 690.259 709.326, 693.683 708.192, 696.789 707.383 C 699.895 706.574, 702.781 705.369, 703.203 704.706 C 703.624 704.043, 703.978 701.475, 703.988 699 C 704.022 691.104, 709.581 684.925, 715.349 686.373 C 716.722 686.717, 719.183 688.125, 720.817 689.500 C 724.327 692.453, 728.043 692.715, 730.345 690.171 C 732.800 687.458, 732.387 685.435, 728.500 681.132 C 724.069 676.227, 723.727 671.364, 727.545 667.545 C 731.442 663.649, 736.657 664.019, 741 668.500 C 742.882 670.442, 745.386 672, 746.625 672 C 751.601 672, 753.763 665.763, 750.067 662.067 C 744.267 656.267, 743.783 650.889, 748.712 647.012 C 752.434 644.084, 757.019 644.439, 761.500 648 C 765.800 651.417, 767.195 651.662, 769.463 649.395 C 771.423 647.435, 770.699 644.488, 767.388 640.945 C 764.322 637.666, 764.134 631.370, 766.993 627.736 C 769.036 625.139, 776.058 622.917, 781 623.304 C 783.367 623.490, 783.532 623.164, 784.104 617.184 C 784.881 609.061, 786.897 606.394, 795.582 602 C 802.054 598.726, 802.758 598.031, 806.500 591.220 C 810.896 583.218, 813.922 580.698, 821.239 578.943 C 830.844 576.638, 835.564 568.523, 832.949 558.811 C 831.527 553.531, 832.827 552.002, 836.622 554.488 C 840.268 556.877, 846.472 556.782, 849.829 554.286 C 851.853 552.781, 852.575 551.280, 852.811 548.088 C 853.079 544.446, 852.639 543.343, 849.561 539.935 C 847.444 537.592, 846 534.962, 846 533.447 C 846 530.188, 848.453 525.424, 850.545 524.621 C 853.283 523.570, 858.373 523.998, 861 525.500 C 864.775 527.658, 867.746 527.317, 869.583 524.514 C 870.962 522.409, 871.114 520.149, 870.572 509.764 C 870.221 503.019, 869.870 496.019, 869.793 494.209 C 869.714 492.336, 870.356 490.216, 871.284 489.288 C 872.791 487.781, 873.371 487.796, 878.960 489.488 C 883.826 490.961, 885.503 491.092, 887.555 490.157 C 892.284 488.002, 893.178 483.589, 892.834 464.108 C 892.563 448.727, 892.765 445.868, 894.428 441.500 C 896.867 435.096, 896.934 426.080, 894.595 418.812 C 892.931 413.638, 891.576 412.001, 879.616 400.701 C 865.808 387.657, 862.107 385.200, 851.189 381.836 C 842.720 379.226, 838.527 377.006, 833.500 372.472 C 828.509 367.970, 822.811 365.041, 812.303 361.575 C 803.758 358.756, 800.334 356.665, 795.800 351.495 C 793.138 348.458, 788.232 345.901, 774.500 340.389 C 769.438 338.357, 765.684 335.877, 760.943 331.433 C 756.408 327.183, 752.589 324.616, 748.558 323.108 C 738.275 319.260, 734.637 317.192, 728 311.422 C 721.626 305.881, 718.508 304.129, 708.535 300.484 C 705.363 299.325, 701.189 296.435, 696.978 292.479 C 692.586 288.355, 688.569 285.607, 684.943 284.248 C 673.730 280.046, 668.358 277.031, 663.993 272.489 C 657.065 265.281, 650.715 262.893, 643.942 264.948 M 863.347 444.470 C 862.193 445.278, 860.249 448.090, 859.026 450.720 C 856.266 456.656, 853.574 459.644, 848.762 462.111 C 846.707 463.165, 843.557 465.669, 841.762 467.675 C 835.970 474.149, 831.422 478.443, 827.648 481 C 825.619 482.375, 822.234 486.095, 820.126 489.267 C 817.913 492.597, 814.040 496.610, 810.957 498.767 C 806.554 501.846, 804.957 503.847, 801.836 510.196 C 799.121 515.718, 796.990 518.614, 794.294 520.446 C 792.227 521.851, 790.078 523.003, 789.518 523.007 C 787.879 523.018, 784.200 529.189, 783.482 533.132 C 782.467 538.712, 779.537 542.681, 773.654 546.444 C 767.803 550.188, 766.388 552.477, 763.110 563.500 C 760.466 572.389, 757.944 576.469, 753.794 578.572 C 747.079 581.975, 744.574 585.607, 742.981 594.251 C 741.484 602.372, 739.281 606.319, 733.869 610.579 C 727.523 615.574, 725.437 618.980, 723.458 627.576 C 721.239 637.211, 718.633 641.866, 712.907 646.423 C 706.404 651.598, 703.238 658.147, 702.002 668.980 C 700.858 679.013, 701.551 680.490, 706.936 679.494 C 714.126 678.164, 716.646 676.202, 720.441 668.981 C 722.427 665.202, 725.414 661.072, 727.079 659.805 C 733.538 654.887, 738 650.717, 738 649.599 C 738 648.252, 747.296 639.097, 751 636.797 C 752.375 635.943, 754.625 633.343, 756 631.019 C 759.819 624.565, 763.938 620.073, 767.905 618.038 C 772.669 615.595, 775.447 612.479, 777.832 606.902 C 779.685 602.569, 784.027 598, 786.290 598 C 789.040 598, 794.475 592.229, 797.029 586.597 C 800.083 579.860, 801.314 578.535, 808.198 574.574 C 812.358 572.180, 813.216 571.060, 815.698 564.774 C 817.973 559.010, 819.871 556.305, 825.797 550.376 C 831.593 544.578, 833.939 541.272, 837.201 534.311 C 840.429 527.423, 842.745 524.142, 848.019 518.981 C 854.595 512.548, 854.772 512.237, 856.814 503.575 C 858.553 496.199, 859.569 493.970, 862.947 490.117 C 868.928 483.297, 871.618 478.425, 875.483 467.405 C 879.759 455.211, 879.973 450.309, 876.411 446.077 C 874.279 443.543, 873.083 443, 869.634 443 C 867.330 443, 864.501 443.661, 863.347 444.470 M 572.270 562.348 C 569.943 562.982, 567.084 564.459, 565.916 565.632 C 561.430 570.135, 559.508 588.234, 562.798 595 C 565.379 600.308, 571.532 602.947, 582.037 603.253 C 592.743 603.565, 596.214 602.197, 599.667 596.306 C 602.109 592.138, 602.229 591.304, 601.771 581.693 C 601.197 569.639, 599.405 565.040, 594.341 562.625 C 590.349 560.722, 578.777 560.576, 572.270 562.348 M 688.606 682.306 C 682.211 684.275, 678.155 692.178, 681.337 696.472 C 683.143 698.910, 690.709 698.892, 694.451 696.440 C 697.248 694.607, 700.335 687.407, 699.836 683.879 C 699.562 681.938, 698.856 681.464, 696 681.303 C 694.075 681.195, 690.748 681.646, 688.606 682.306 M 664.800 702.521 C 664.415 702.913, 653.078 703.524, 639.607 703.879 C 616.855 704.478, 614.915 704.673, 612.307 706.620 C 610.763 707.773, 609.500 709.324, 609.500 710.068 C 609.500 712.327, 615.746 715.802, 624.741 718.545 C 629.432 719.976, 636.146 722.464, 639.660 724.073 C 647.665 727.740, 649.611 727.732, 654.669 724.012 C 656.904 722.369, 661.858 719.479, 665.678 717.591 C 669.498 715.703, 673.155 713.518, 673.806 712.734 C 675.407 710.805, 676.246 705.786, 675.223 704.258 C 674.276 702.842, 665.862 701.440, 664.800 702.521" stroke="none" fill="#444" fill-rule="evenodd"/></svg>