<svg xmlns="http://www.w3.org/2000/svg" width="50" height="50" viewBox="0 0 50 50" version="1.1">
	<path d="M 28.607 14.302 C 27.271 15.638, 25.182 18.704, 23.966 21.116 C 22.749 23.527, 21.644 25.628, 21.510 25.784 C 21.375 25.940, 18.168 24.263, 14.383 22.057 C 8.095 18.392, 7.391 18.190, 6.240 19.727 C 5.131 21.209, 6.023 22.078, 13.740 27.030 C 23.702 33.422, 33.462 38.971, 30.559 36.591 C 28.653 35.029, 28.658 35, 30.796 35 C 32.280 35, 33.815 33.644, 35.608 30.750 C 37.056 28.413, 39.413 25.245, 40.844 23.712 C 43.186 21.204, 43.518 21.103, 44.153 22.712 C 44.772 24.279, 44.868 24.237, 44.930 22.372 C 45.011 19.908, 44.467 19.423, 36.768 15.095 L 31.036 11.874 28.607 14.302 M 27 29 C 27 29.550, 27.450 30, 28 30 C 28.550 30, 29 29.550, 29 29 C 29 28.450, 28.550 28, 28 28 C 27.450 28, 27 28.450, 27 29 M 37 32.500 C 34.571 34.975, 32.809 37, 33.084 37 C 33.359 37, 35.571 34.975, 38 32.500 C 40.429 30.025, 42.191 28, 41.916 28 C 41.641 28, 39.429 30.025, 37 32.500" stroke="none" fill="#555555" fill-rule="evenodd"/>
</svg>