<svg xmlns="http://www.w3.org/2000/svg" width="800" height="800" viewBox="0 0 800 800" version="1.1"><path d="M 485.253 188.372 C 483.189 190.227, 478.717 193.144, 475.315 194.854 C 471.566 196.738, 468.021 199.448, 466.315 201.732 C 462.761 206.489, 461.572 207.485, 455.868 210.481 C 453.321 211.819, 449.788 214.743, 448.017 216.978 C 446.247 219.214, 442.837 222.392, 440.441 224.040 C 436.720 226.601, 420.329 242.704, 394.615 269.062 C 391.094 272.670, 386.772 277.967, 385.009 280.831 C 383.247 283.695, 379.887 287.358, 377.542 288.971 C 374.626 290.977, 372.468 293.619, 370.708 297.335 C 369.092 300.748, 366.286 304.326, 363.156 306.965 C 359.771 309.820, 357.493 312.821, 356.047 316.333 C 352.708 324.443, 351.039 327.174, 346.473 332 C 341.801 336.938, 340.122 339.895, 337.589 347.647 C 336.574 350.755, 333.957 355.024, 330.985 358.420 C 326.782 363.223, 325.559 365.651, 322.624 375.024 C 320.447 381.975, 317.899 387.794, 315.680 390.882 C 310.155 398.572, 308.981 401.481, 306.395 413.874 C 304.559 422.671, 302.759 427.934, 298.996 435.500 C 295.044 443.448, 293.714 447.450, 292.516 455 C 289.760 472.365, 290.674 476.615, 298.291 481.856 C 300.650 483.479, 304.505 486.415, 306.858 488.381 C 309.603 490.675, 313.710 492.720, 318.318 494.089 C 327.544 496.828, 329.896 498.079, 335.971 503.474 C 339.441 506.556, 342.932 508.517, 347.421 509.903 C 355.474 512.390, 360.498 514.990, 365 518.998 C 369.476 522.983, 372.212 524.424, 379.108 526.429 C 384.535 528.007, 389.426 530.829, 397.366 536.965 C 399.492 538.608, 404.980 541.146, 409.562 542.606 C 415.912 544.629, 419.257 546.413, 423.627 550.107 C 428.056 553.852, 431.475 555.660, 438.654 558.051 C 445.833 560.443, 449.064 562.151, 452.852 565.557 C 457.311 569.566, 465.405 573.985, 468.333 574.010 C 471.124 574.033, 480.833 579.439, 484.500 583.012 C 489.395 587.781, 500.547 593, 505.843 593 C 513.460 593, 517.997 586.286, 516.059 577.881 C 514.247 570.024, 514.649 568.409, 519.839 562.677 C 523.184 558.984, 525.053 555.846, 525.892 552.516 C 527.501 546.124, 529.400 542.615, 533.943 537.636 C 538.504 532.636, 539.514 530.780, 542.591 521.734 C 544.355 516.546, 546.236 513.386, 549.811 509.606 C 552.587 506.671, 555.360 502.473, 556.323 499.747 C 557.245 497.136, 558.749 492.863, 559.665 490.250 C 560.716 487.252, 563.242 483.579, 566.516 480.290 C 570.272 476.517, 572.332 473.344, 573.981 468.790 C 576.504 461.826, 578.438 458.706, 584.444 451.913 C 586.675 449.390, 589.108 445.565, 589.851 443.413 C 591.850 437.624, 595.517 432.397, 599.031 430.329 C 601.149 429.082, 603.205 426.271, 605.486 421.500 C 607.338 417.626, 610.696 412.714, 613.006 410.500 C 615.302 408.300, 619.205 403.011, 621.679 398.747 C 624.154 394.483, 627.787 389.533, 629.753 387.747 C 635.975 382.095, 638.156 379.596, 640.006 376 C 641.908 372.301, 644.693 369.492, 649.297 366.631 C 650.835 365.675, 653.626 362.497, 655.499 359.569 C 657.904 355.810, 660.473 353.360, 664.239 351.234 C 667.322 349.494, 670.801 346.452, 672.483 344.024 C 674.562 341.024, 678.252 338.135, 685.393 333.912 C 696.721 327.215, 699.655 326.722, 705.311 330.565 C 712.716 335.597, 714.967 331.752, 710.135 322.324 C 708.493 319.121, 706.483 314.857, 705.668 312.849 C 704.852 310.841, 702.456 307.636, 700.342 305.727 C 698.229 303.818, 694.207 300.176, 691.404 297.635 C 688.601 295.093, 683.372 291.683, 679.785 290.057 C 676.173 288.419, 671.594 285.338, 669.523 283.153 C 665.726 279.146, 663.158 277.741, 652.604 273.895 C 648.742 272.488, 644.739 269.938, 641.006 266.506 C 636.666 262.515, 633.658 260.730, 628.403 259.025 C 620.892 256.589, 616.567 254.088, 610.699 248.790 C 608.608 246.903, 604.558 244.535, 601.699 243.528 C 593.967 240.806, 589.337 238.297, 585.205 234.589 C 580.942 230.764, 575.775 228.019, 568.127 225.516 C 564.722 224.401, 560.826 222.012, 557.494 218.994 C 552.953 214.882, 543.410 210, 539.913 210 C 537.671 210, 532.248 206.541, 527.928 202.355 C 524.490 199.025, 521.141 197.102, 514.428 194.605 C 509.518 192.779, 502.700 189.870, 499.279 188.142 C 495.857 186.414, 492.145 185, 491.031 185 C 489.917 185, 487.317 186.517, 485.253 188.372 M 485.449 197.772 C 484.320 198.723, 482.155 201.194, 480.637 203.265 C 479.118 205.335, 475.666 208.149, 472.966 209.517 C 468.188 211.938, 461.483 217.498, 444.535 233.090 C 439.998 237.265, 434.534 241.987, 432.393 243.584 C 425.987 248.362, 407.923 266.967, 401.890 275 C 398.792 279.125, 394.369 284.300, 392.062 286.500 C 389.754 288.700, 386.334 292.975, 384.462 296 C 382.589 299.025, 379.233 302.997, 377.004 304.827 C 374.775 306.657, 371.648 310.736, 370.055 313.892 C 368.339 317.290, 365.325 321.132, 362.662 323.313 C 359.578 325.841, 357.631 328.489, 356.461 331.749 C 353.080 341.165, 349.993 346.576, 345.568 350.845 C 341.760 354.518, 340.654 356.530, 338.424 363.842 C 335.761 372.574, 334.248 375.362, 328.396 382.324 C 326.319 384.794, 324.581 388.509, 323.482 392.824 C 319.745 407.494, 318.937 409.743, 315.150 416.016 C 310.464 423.778, 308.628 429.600, 305.991 445.054 C 304.905 451.421, 303.342 458.851, 302.519 461.565 C 299.427 471.757, 301.204 474.963, 312.236 479.088 C 316.030 480.507, 320.419 483.209, 323.584 486.076 C 327.739 489.839, 330.647 491.384, 338.500 494 C 346.400 496.632, 349.252 498.153, 353.500 502 C 357.744 505.843, 360.601 507.369, 368.468 509.989 C 375.979 512.491, 379.303 514.216, 383.079 517.571 C 389.158 522.969, 389.930 523.379, 400.073 526.583 C 406.707 528.679, 409.312 530.121, 413.409 533.964 C 418.434 538.680, 423.669 541.978, 426.200 542.024 C 429.419 542.083, 439.017 546.991, 444.254 551.256 C 448.551 554.756, 452.077 556.570, 458.249 558.453 C 464.488 560.358, 467.965 562.157, 472.507 565.834 C 479.891 571.812, 483.003 573.440, 489.799 574.878 C 502.994 577.671, 506.869 575.937, 509.596 566.019 C 512.045 557.114, 514.204 552.889, 519.256 547.113 C 522.837 543.019, 524.532 539.923, 526.117 534.587 C 528.736 525.767, 529.828 523.635, 534.835 517.577 C 537.199 514.716, 540.143 509.267, 542.039 504.245 C 544.314 498.217, 546.590 494.263, 549.880 490.625 C 552.996 487.181, 555.744 482.533, 558.262 476.453 C 561.190 469.381, 563.075 466.399, 566.897 462.791 C 569.768 460.082, 572.300 456.592, 573.030 454.338 C 575.241 447.511, 579.069 440.840, 583.487 436.117 C 585.862 433.578, 589.250 428.475, 591.015 424.778 C 593.177 420.251, 595.680 416.864, 598.679 414.407 C 601.543 412.060, 603.986 408.827, 605.525 405.348 C 606.841 402.373, 610.345 397.365, 613.312 394.219 C 616.280 391.074, 620.348 385.904, 622.353 382.731 C 624.358 379.559, 628.642 374.384, 631.872 371.231 C 635.102 368.079, 639.176 363.359, 640.926 360.742 C 642.676 358.125, 646.494 354.221, 649.411 352.066 C 652.329 349.910, 656.191 346.284, 657.994 344.008 C 659.797 341.731, 665.148 337.195, 669.886 333.927 C 680.650 326.503, 691.966 317.679, 694.200 314.966 C 696.707 311.923, 695.541 310.348, 687.517 305.945 C 683.537 303.760, 677.841 299.842, 674.859 297.237 C 671.322 294.147, 667.148 291.696, 662.851 290.187 C 658.673 288.720, 654.189 286.119, 650.592 283.078 C 646.965 280.011, 641.992 277.136, 636.805 275.105 C 630.775 272.745, 627.175 270.525, 622.788 266.464 C 619.542 263.459, 616.447 261, 615.911 261 C 612.175 261, 598.679 254.379, 593.515 250.013 C 590.254 247.256, 587.215 245, 586.761 245 C 586.307 245, 582.462 243.652, 578.218 242.005 C 573.215 240.063, 568.486 237.280, 564.775 234.095 C 560.549 230.467, 556.990 228.495, 551.179 226.560 C 545.525 224.677, 541.787 222.636, 537.904 219.312 C 532.608 214.778, 529.561 213.148, 519.503 209.472 C 516.707 208.451, 512.302 205.587, 509.503 202.973 C 506.751 200.403, 502.970 197.783, 501.101 197.150 C 495.960 195.411, 487.871 195.732, 485.449 197.772 M 711.176 356.224 C 709.744 357.656, 709.652 363.935, 711.034 366 C 711.903 367.298, 712.237 367.239, 713.519 365.559 C 716.520 361.626, 714.364 353.036, 711.176 356.224 M 679.639 422.694 C 678.444 423.889, 678.994 426, 680.500 426 C 681.325 426, 682 425.352, 682 424.559 C 682 422.888, 680.573 421.761, 679.639 422.694 M 598.651 519.468 C 597.945 521.306, 599.820 522.580, 601.200 521.200 C 602.267 520.133, 601.500 518, 600.048 518 C 599.589 518, 598.960 518.661, 598.651 519.468" stroke="none" fill="#444" fill-rule="evenodd"/></svg>