<svg xmlns="http://www.w3.org/2000/svg" width="800" height="800" viewBox="0 0 800 800" version="1.1"><path d="M 496.176 202.407 C 492.963 205.467, 487.965 208.932, 484.658 210.392 C 480.890 212.055, 476.276 215.415, 471.658 219.856 C 467.721 223.642, 462.591 227.927, 460.258 229.378 C 457.924 230.829, 454.825 233.900, 453.371 236.204 C 451.917 238.508, 447.730 243.567, 444.068 247.446 C 440.405 251.326, 435.901 257.146, 434.057 260.379 C 432.214 263.613, 428.692 268.113, 426.231 270.379 C 423.480 272.912, 420.605 277.004, 418.769 281 C 417.082 284.672, 413.507 289.896, 410.552 293.007 C 406.916 296.836, 404.775 300.188, 403.526 304.007 C 400.859 312.159, 399.238 314.970, 393.958 320.597 C 390.149 324.657, 388.728 327.202, 386.975 333.097 C 384.223 342.357, 382.002 346.722, 378.210 350.323 C 374.750 353.609, 373.053 357.294, 369.582 369.050 C 367.612 375.723, 365.970 378.955, 362.106 383.770 C 358.292 388.523, 356.885 391.268, 355.984 395.720 C 355.340 398.899, 354.358 403.683, 353.802 406.351 C 353.214 409.172, 351.611 412.521, 349.973 414.351 C 347.206 417.442, 346.993 417.499, 338.327 417.447 C 328.095 417.386, 325.569 416.356, 319.232 409.660 C 315.933 406.176, 313.434 404.655, 308.232 402.968 C 300.789 400.555, 296.395 397.978, 290.725 392.699 C 288.468 390.598, 284 388.109, 279.612 386.508 C 274.971 384.816, 270.477 382.263, 267.387 379.565 C 261.937 374.807, 258.816 373.025, 250.435 369.890 C 246.833 368.542, 242.591 365.801, 239.007 362.507 C 234.428 358.297, 231.682 356.725, 225.042 354.514 C 218.213 352.240, 215.649 350.739, 210.287 345.881 C 206.718 342.646, 203.411 340, 202.937 340 C 199.792 340, 190.136 335.099, 184.622 330.705 C 180.551 327.461, 175.150 324.374, 170.315 322.528 C 164.774 320.413, 161.393 318.371, 158.523 315.409 C 153.931 310.667, 151.254 309.177, 141.663 306.026 C 136.066 304.186, 133.901 302.803, 129.718 298.390 C 122.130 290.384, 117.442 291.094, 112.481 301 C 111.517 302.925, 108.652 306.545, 106.114 309.043 C 102.796 312.311, 100.571 315.860, 98.191 321.682 C 96.372 326.134, 93.342 331.577, 91.459 333.777 C 84.727 341.642, 85.080 345.880, 92.736 349.110 C 95.356 350.215, 99.300 351.879, 101.500 352.807 C 103.700 353.736, 108.020 356.800, 111.100 359.617 C 114.737 362.944, 118.565 365.359, 122.023 366.508 C 125.934 367.807, 128.665 369.675, 132.309 373.547 C 136.385 377.878, 138.809 379.413, 145.886 382.149 C 152.899 384.860, 155.429 386.453, 159.500 390.718 C 163.123 394.515, 166.256 396.646, 170.878 398.455 C 174.956 400.051, 179.102 402.698, 182.378 405.795 C 185.895 409.121, 189.826 411.557, 194.925 413.569 C 200.629 415.821, 203.774 417.891, 208.494 422.500 C 213.226 427.121, 216.117 429.021, 221.069 430.765 C 225.312 432.260, 229.638 434.847, 233.782 438.370 C 237.677 441.680, 242.686 444.738, 246.967 446.417 C 251.962 448.377, 255.198 450.495, 258.674 454.078 C 262.480 458.001, 265.209 459.683, 271.817 462.177 C 278.200 464.586, 281.613 466.644, 286.364 470.950 C 290.555 474.748, 294.538 477.293, 298.624 478.783 C 302.682 480.262, 306.360 482.604, 309.785 485.887 C 313.615 489.559, 316.968 491.573, 323.196 493.942 C 329.709 496.419, 332.686 498.256, 337 502.456 C 340.980 506.332, 344.615 508.682, 350.157 510.960 C 354.857 512.893, 359.944 515.974, 363.333 518.939 C 366.794 521.968, 371.424 524.752, 375.751 526.405 C 380.852 528.354, 383.879 530.324, 387.369 533.965 C 390.538 537.272, 393.886 539.562, 397.565 540.938 C 406.677 544.348, 412.295 547.616, 416.478 551.939 C 419.566 555.131, 422.027 556.518, 427.478 558.136 C 436.361 560.774, 438.304 561.809, 444.726 567.329 C 448.477 570.552, 452.225 572.577, 458.001 574.500 C 464.002 576.499, 467.507 578.433, 471.775 582.099 C 475.639 585.418, 479.934 587.908, 484.989 589.759 C 490.993 591.956, 493.466 593.541, 497.460 597.750 C 504.018 604.661, 506.897 604.808, 513.898 598.591 C 516.629 596.165, 522.038 592.512, 525.920 590.473 C 529.801 588.433, 535.067 584.610, 537.621 581.976 C 540.176 579.343, 545.121 575.796, 548.609 574.096 C 552.237 572.327, 555.683 569.825, 556.661 568.251 C 559.679 563.391, 562.392 560.857, 567.194 558.413 C 570.113 556.927, 573.064 554.314, 574.998 551.503 C 576.708 549.018, 580.497 545.218, 583.419 543.060 C 586.340 540.902, 589.906 537.130, 591.343 534.678 C 592.780 532.226, 596.213 528.597, 598.973 526.615 C 601.732 524.633, 605.263 520.965, 606.820 518.464 C 608.376 515.963, 611.935 512.378, 614.729 510.497 C 617.717 508.484, 620.774 505.332, 622.154 502.839 C 623.444 500.509, 626.888 496.779, 629.806 494.551 C 632.980 492.127, 636.193 488.505, 637.806 485.533 C 639.381 482.629, 642.563 479.011, 645.465 476.822 C 648.667 474.408, 651.387 471.201, 653.127 467.789 C 654.610 464.880, 657.810 460.856, 660.237 458.846 C 662.936 456.612, 666.053 452.524, 668.258 448.329 C 670.241 444.555, 674.158 438.845, 676.963 435.640 C 679.767 432.435, 683.645 426.478, 685.579 422.401 C 687.682 417.968, 690.322 414.086, 692.146 412.744 C 696.106 409.830, 697.812 406.407, 700.117 396.758 C 702.267 387.754, 702.893 386.402, 708.121 379.465 C 712.701 373.388, 713.592 368.404, 714.443 344.126 L 715.017 327.752 711.258 324.227 C 709.191 322.288, 705.700 317.970, 703.500 314.633 C 699.757 308.954, 699.029 308.391, 692.152 305.857 C 687.974 304.317, 682.794 301.453, 680.142 299.217 C 675.599 295.386, 668.092 291, 666.077 291 C 663.019 291, 653.801 286.456, 649.219 282.689 C 646.073 280.102, 641.223 277.408, 637.219 276.020 C 627.456 272.638, 625.013 271.280, 620 266.445 C 616.770 263.330, 613.114 261.196, 607.048 258.887 C 600.400 256.357, 597.270 254.438, 592.391 249.899 C 588.178 245.980, 584.794 243.753, 581.844 242.959 C 575.876 241.353, 573.185 239.845, 565.991 234.071 C 562.563 231.320, 556.798 227.951, 553.098 226.537 C 548.318 224.711, 545.028 222.582, 541.587 219.088 C 537.821 215.265, 534.883 213.469, 528.135 210.866 C 521.853 208.443, 518.410 206.418, 515.500 203.435 C 507.377 195.109, 504.024 194.931, 496.176 202.407 M 687.500 355.681 C 679.934 358.842, 679.377 359.322, 676.364 365.268 C 674.275 369.391, 673.027 370.541, 668.434 372.572 C 663.570 374.723, 662.726 375.563, 660.600 380.370 C 658.579 384.939, 657.406 386.192, 652.868 388.628 C 649.353 390.515, 647.074 392.529, 646.224 394.500 C 643.224 401.460, 642.261 402.606, 637.508 404.878 C 631.461 407.769, 630.410 409.083, 629.007 415.500 C 627.691 421.523, 625.008 425.625, 620.135 429.066 C 616.614 431.552, 615.455 433.343, 611.045 443.100 C 609.446 446.640, 607.859 448.303, 604.159 450.317 C 598.569 453.359, 597.112 455.991, 596.320 464.477 C 595.654 471.607, 595.105 472.511, 588.837 476.791 C 584.075 480.044, 582.478 482.922, 580.009 492.705 C 578.793 497.521, 577.524 499.015, 572.029 502.104 C 567.438 504.684, 567.289 504.986, 565.425 515.500 C 563.932 523.918, 561.983 527.550, 556.440 532.239 C 554.659 533.746, 552.075 536.903, 550.696 539.255 C 549.318 541.607, 544.187 547.390, 539.295 552.107 C 529.366 561.679, 528.267 562.210, 509.500 566.513 C 502.900 568.026, 496.712 569.671, 495.750 570.167 C 493.360 571.401, 493.550 573.705, 496.537 579.697 C 500.904 588.461, 506.195 588.919, 516.284 581.405 C 519.466 579.036, 525.316 575.247, 529.284 572.986 C 534.556 569.983, 537.335 567.610, 539.598 564.179 C 541.860 560.750, 544.287 558.677, 548.598 556.492 C 553.032 554.244, 555.301 552.271, 557.720 548.558 C 559.490 545.840, 562.865 542.351, 565.220 540.805 C 567.574 539.259, 570.885 536.083, 572.578 533.747 C 574.270 531.411, 578.219 527.547, 581.353 525.160 C 584.487 522.773, 587.927 519.103, 588.998 517.004 C 591.143 512.800, 594.313 509.941, 598.971 508.012 C 601.223 507.079, 602.717 505.238, 604.665 500.995 C 606.831 496.275, 608.201 494.726, 612.295 492.371 C 616.310 490.061, 617.745 488.472, 619.634 484.241 C 621.693 479.631, 622.631 478.695, 627.241 476.653 C 633.521 473.871, 634.440 472.861, 636 467.029 C 637.510 461.386, 638.678 459.740, 643.820 456.015 C 646.552 454.036, 649.031 450.902, 651.092 446.817 C 652.813 443.409, 656.620 438.104, 659.554 435.029 C 662.791 431.635, 666.070 426.801, 667.896 422.732 C 670.225 417.542, 671.930 415.303, 675.440 412.829 C 680.284 409.415, 681.842 406.313, 683.948 395.887 C 684.572 392.800, 686.609 387.850, 688.474 384.887 C 690.340 381.924, 693.125 377.484, 694.663 375.019 C 699.092 367.924, 699.128 352.771, 694.715 353.087 C 694.047 353.135, 690.800 354.302, 687.500 355.681 M 440 451.279 C 436.016 453.269, 434.003 458.487, 434.002 466.827 C 434 473.538, 434.238 474.392, 436.830 476.984 C 438.984 479.138, 441.011 479.982, 445.317 480.520 C 452.896 481.467, 457.439 480.474, 461.294 477.026 C 464.321 474.320, 464.498 473.777, 464.457 467.330 C 464.400 458.459, 462.641 453.383, 458.966 451.483 C 455.440 449.659, 443.499 449.531, 440 451.279" stroke="none" fill="#444" fill-rule="evenodd"/></svg>