<svg xmlns="http://www.w3.org/2000/svg" width="800" height="800" viewBox="0 0 800 800" version="1.1"><path d="M 267.500 181.617 C 261.450 182.962, 251.099 185.374, 244.499 186.978 C 237.898 188.581, 225.748 190.822, 217.499 191.957 C 177.225 197.499, 174.833 198.045, 165.419 203.837 C 162.340 205.732, 155.456 208.250, 147.759 210.297 C 138.601 212.732, 134.152 214.453, 131.519 216.576 C 124.255 222.434, 121.783 223.908, 114.708 226.602 C 109.318 228.654, 105.986 230.786, 101.500 235.052 C 98.200 238.189, 93.700 241.664, 91.500 242.772 C 86.791 245.144, 84.947 247.079, 82.221 252.505 C 81.114 254.708, 77.925 258.437, 75.134 260.790 C 71.523 263.835, 69.689 266.286, 68.779 269.285 C 66.876 275.555, 66.926 429.271, 68.834 436.683 C 69.629 439.772, 71.871 444.060, 74.385 447.298 C 76.705 450.285, 80.329 456.892, 82.438 461.981 C 85.200 468.644, 87.373 472.249, 90.206 474.866 C 92.370 476.865, 95.889 481.939, 98.027 486.142 C 100.804 491.602, 102.927 494.410, 105.466 495.979 C 107.419 497.186, 110.237 500.272, 111.728 502.837 C 114.939 508.362, 134.240 529.196, 153.594 548.028 C 161.209 555.437, 170.359 564.355, 173.928 567.845 C 177.496 571.335, 182.264 575.461, 184.522 577.015 C 186.780 578.569, 190.354 581.947, 192.464 584.522 C 194.574 587.097, 198.437 590.518, 201.049 592.125 C 203.661 593.732, 207.498 597.122, 209.576 599.658 C 211.683 602.229, 215.231 605.099, 217.595 606.145 C 219.928 607.177, 223.715 609.591, 226.013 611.511 C 231.306 615.933, 234.173 615.994, 237.121 611.750 C 238.363 609.962, 241.900 605.771, 244.981 602.436 C 248.063 599.101, 252.498 592.693, 254.837 588.197 C 257.530 583.019, 260.518 578.875, 262.984 576.892 C 265.476 574.890, 268.197 571.095, 270.538 566.357 C 272.788 561.803, 275.525 557.939, 277.644 556.322 C 279.540 554.876, 282.833 550.725, 284.962 547.097 C 290.801 537.145, 296.068 532.780, 305.500 530.073 C 311.648 528.308, 485.344 527.308, 490.602 529.007 C 492.746 529.699, 498.226 533.009, 502.780 536.361 C 510.220 541.838, 511.400 543.172, 514.407 549.507 C 516.700 554.339, 519.135 557.689, 522.144 560.155 C 524.994 562.490, 527.738 566.163, 529.967 570.626 C 531.855 574.407, 535.745 579.975, 538.612 583 C 541.889 586.458, 545.114 591.331, 547.297 596.123 C 550.053 602.171, 551.673 604.369, 555.135 606.759 C 557.536 608.417, 560.973 611.399, 562.774 613.386 C 564.575 615.374, 566.971 617, 568.097 617 C 569.233 617, 571.785 615.170, 573.823 612.894 C 575.845 610.636, 580.049 607.499, 583.164 605.923 C 586.689 604.140, 589.900 601.557, 591.664 599.085 C 593.224 596.900, 597.045 593.485, 600.156 591.496 C 603.266 589.507, 607.081 586.048, 608.632 583.809 C 610.183 581.571, 613.263 578.618, 615.476 577.248 C 619.821 574.558, 623.416 571.135, 652.740 541.768 C 682.218 512.248, 685.676 508.556, 687.869 504.257 C 688.989 502.062, 692.200 498.344, 695.005 495.996 C 698.725 492.882, 700.913 489.938, 703.096 485.113 C 704.745 481.469, 708.076 476.477, 710.517 473.993 C 713.626 470.830, 716.153 466.661, 718.999 460.002 C 721.229 454.786, 724.321 448.939, 725.872 447.009 C 729.599 442.369, 731.581 438.338, 732.426 433.673 C 732.807 431.569, 733.143 395.406, 733.171 353.312 L 733.223 276.778 730.361 272.948 C 724.825 265.539, 711.048 250.281, 706.798 246.851 C 704.434 244.944, 700.700 242.319, 698.500 241.018 C 696.300 239.718, 692.023 236.330, 688.995 233.490 C 684.938 229.684, 681.783 227.757, 676.995 226.160 C 673.423 224.968, 668.147 222.208, 665.270 220.027 C 657.466 214.109, 652.994 212.156, 642.242 209.973 C 635.394 208.582, 629.530 206.532, 622.500 203.071 C 609.998 196.916, 604.342 195.688, 576 192.978 C 559.791 191.429, 549.820 189.624, 526.169 183.962 L 505.500 179.013 392 179.093 L 278.500 179.173 267.500 181.617 M 354 186.127 C 348.225 186.473, 338.325 186.805, 332 186.867 C 318.756 186.996, 290.860 189.392, 277 191.592 C 271.775 192.422, 259.625 193.545, 250 194.088 C 240.375 194.631, 227.550 195.762, 221.500 196.600 C 211.142 198.035, 207.199 199.164, 190.805 205.386 C 187.122 206.784, 178.572 208.857, 171.805 209.993 C 154.517 212.894, 153.034 213.405, 145.865 218.940 C 140.878 222.790, 137.514 224.439, 130.513 226.468 C 120.404 229.398, 118.018 230.703, 114.783 235.079 C 113.537 236.765, 109.527 239.716, 105.873 241.636 C 101.731 243.813, 98.250 246.516, 96.630 248.814 C 95.201 250.841, 91.678 254.314, 88.801 256.530 C 82.033 261.745, 80.501 266.227, 81.876 276.791 C 82.397 280.802, 83.574 285.227, 84.490 286.625 C 86.612 289.864, 91.716 292, 97.333 292 C 102.550 292, 107 294.969, 107 298.450 C 107 302.272, 104.691 303.411, 99.561 302.120 C 89.723 299.643, 82.760 302.162, 80.547 309 C 79.723 311.544, 79.596 329.019, 80.082 373 C 80.636 423.245, 81.021 434.687, 82.355 440.500 C 84.899 451.587, 86.681 455.285, 91.808 460.125 C 95.244 463.367, 97.229 466.362, 98.801 470.676 C 100.464 475.237, 102.292 477.889, 106.329 481.600 C 109.945 484.923, 113.060 489.196, 116.010 494.880 C 119.369 501.354, 121.430 504.031, 125.067 506.643 C 128.279 508.951, 130.684 511.828, 132.637 515.699 C 134.450 519.290, 136.595 521.946, 138.485 522.936 C 142.383 524.978, 148.065 530.703, 150.171 534.708 C 151.212 536.688, 153.711 538.834, 156.800 540.399 C 160.662 542.356, 162.435 544.109, 164.812 548.321 C 166.939 552.089, 169.237 554.535, 172.385 556.380 C 174.871 557.837, 178.805 561.282, 181.128 564.036 C 183.450 566.790, 187.628 570.445, 190.412 572.158 C 193.196 573.871, 197.730 577.747, 200.487 580.772 C 203.244 583.796, 208.980 588.717, 213.234 591.707 C 217.488 594.698, 221.772 598.165, 222.753 599.413 C 226.413 604.066, 232.405 605.424, 235.269 602.250 C 236.137 601.288, 237.813 597.914, 238.994 594.753 C 240.279 591.314, 243.066 586.897, 245.936 583.753 C 248.574 580.864, 252.353 575.276, 254.335 571.335 C 256.801 566.434, 259.504 562.851, 262.890 559.996 C 266.303 557.118, 268.501 554.192, 269.970 550.574 C 271.277 547.353, 274.053 543.429, 277.157 540.413 C 280.765 536.908, 283.440 532.886, 286.489 526.379 C 290.048 518.787, 291.524 516.736, 295.297 514.140 C 299.200 511.455, 300.140 510.091, 302.056 504.332 C 304.333 497.490, 305.926 495.443, 311.917 491.658 C 314.797 489.840, 315.779 488.162, 318.157 481 C 320.988 472.472, 322.996 469.795, 330.360 464.727 C 331.964 463.624, 333.485 461.107, 334.391 458.056 C 336.592 450.644, 337.652 449.210, 342.891 446.555 C 346.072 444.943, 348.063 443.159, 348.747 441.306 C 349.317 439.763, 350.561 436.318, 351.512 433.652 C 352.829 429.957, 354.508 427.823, 358.568 424.682 C 363.991 420.485, 366 417.167, 368.060 409 C 368.854 405.853, 370.520 403.227, 373.598 400.267 C 378.203 395.839, 379.045 393.112, 376.467 390.973 C 374.916 389.686, 359.277 388.256, 321.772 385.973 C 299.723 384.631, 292.671 383.318, 282.234 378.608 C 272.706 374.308, 269.807 373.651, 248.549 370.974 C 230.360 368.684, 223.810 367.006, 220.250 363.725 C 215.387 359.243, 218.949 354.042, 229.288 350.527 C 232.411 349.466, 237.562 346.648, 240.733 344.265 C 248.274 338.600, 255.461 336.555, 276.660 334.043 C 297.779 331.541, 304.844 330.076, 317 325.676 C 328.874 321.377, 337.956 320.168, 367.255 318.987 C 413.871 317.106, 462.152 318.142, 480.870 321.424 C 485.079 322.162, 492.535 324.573, 497.500 326.800 C 507.007 331.065, 514.577 333.447, 522 334.508 C 532.959 336.074, 537.651 338.052, 543.390 343.522 C 546.453 346.442, 550.656 349.381, 552.730 350.052 C 559.668 352.299, 566.065 356.049, 567.197 358.532 C 568.124 360.567, 567.988 361.356, 566.409 363.102 C 563.144 366.712, 557.304 369.012, 548.739 370.061 C 525.654 372.887, 519.656 374.156, 511.027 378.042 C 497.965 383.923, 484.614 385.711, 445.355 386.837 C 425 387.420, 421.968 387.718, 420.210 389.310 C 415.452 393.616, 417.283 401.345, 423.948 405.091 C 428.858 407.850, 431.660 412.051, 434.534 420.962 C 436.415 426.793, 437.068 427.700, 440.572 429.350 C 446.496 432.140, 448.786 434.752, 450.511 440.687 C 452.152 446.329, 453.241 447.698, 459 451.351 C 462.481 453.559, 463.185 454.894, 468.440 469.277 C 469.807 473.018, 471.020 474.480, 474.027 476.014 C 478.773 478.435, 480.623 480.980, 482.635 487.855 C 483.844 491.985, 484.902 493.586, 487.259 494.855 C 493.510 498.219, 496.024 501.284, 497.634 507.500 C 499.604 515.107, 501.326 517.999, 505.641 520.956 C 509.921 523.889, 512.015 526.881, 514.948 534.256 C 516.592 538.391, 518.567 541.126, 521.957 543.964 C 524.733 546.288, 528.047 550.488, 530.007 554.164 C 531.839 557.601, 535.932 563.202, 539.104 566.611 C 542.275 570.020, 546.070 575.215, 547.537 578.155 C 549.004 581.095, 551.935 585.300, 554.051 587.500 C 556.167 589.700, 559.087 594.104, 560.539 597.286 C 565.411 607.961, 570.088 608.417, 579 599.085 C 582.025 595.917, 585.849 592.494, 587.499 591.477 C 589.148 590.460, 593.648 586.651, 597.499 583.012 C 601.349 579.374, 607.292 574.505, 610.703 572.193 C 614.115 569.881, 618.141 566.370, 619.650 564.392 C 621.159 562.413, 624.810 559.431, 627.764 557.764 C 631.128 555.866, 634.600 552.749, 637.059 549.420 C 639.218 546.498, 643.043 542.691, 645.559 540.959 C 648.076 539.228, 651.498 535.595, 653.165 532.887 C 654.831 530.178, 658.211 526.575, 660.675 524.880 C 663.138 523.185, 666.658 519.447, 668.496 516.573 C 670.334 513.700, 674.150 509.134, 676.975 506.426 C 679.800 503.719, 684.071 498.128, 686.466 494.002 C 688.861 489.876, 693.022 484.441, 695.713 481.924 C 699.330 478.541, 701.202 475.711, 702.895 471.069 C 704.484 466.711, 706.522 463.508, 709.558 460.599 C 715.045 455.342, 717.308 450.243, 719.979 437.117 C 721.998 427.198, 722.085 424.142, 721.948 368.617 C 721.865 335.051, 721.395 308.874, 720.837 306.652 C 720.305 304.535, 718.603 301.055, 717.055 298.918 C 714.257 295.055, 714.249 294.998, 715.585 288.766 C 717.205 281.217, 717.404 267.974, 715.945 264.797 C 715.365 263.534, 712.688 261.049, 709.996 259.276 C 707.304 257.502, 703.322 253.643, 701.146 250.698 C 698.106 246.582, 696.072 244.930, 692.346 243.549 C 686.653 241.439, 679.076 236.847, 676.395 233.882 C 673.834 231.051, 668.574 228.472, 659.271 225.488 C 654.997 224.116, 648.382 220.967, 644.572 218.488 C 636.548 213.269, 635.470 212.933, 615.564 209.457 C 604.575 207.538, 598.234 205.830, 591.564 202.991 C 580.944 198.469, 570.179 196.642, 544.500 194.999 C 526.750 193.864, 514.971 192.716, 504 191.052 C 485.401 188.230, 464.266 186.910, 426.500 186.212 C 377.754 185.310, 367.869 185.299, 354 186.127 M 693.875 292.506 C 691.132 293.997, 689.737 297.150, 690.705 299.673 C 692.083 303.264, 699.018 303.184, 704.623 299.512 C 711.749 294.843, 701.668 288.272, 693.875 292.506 M 111.667 306.667 C 110.065 308.268, 111.094 313.739, 113.405 315.911 C 118.339 320.546, 129.712 320.896, 132.591 316.501 C 134.610 313.420, 132.881 309.791, 128.369 307.639 C 124.955 306.011, 113.017 305.316, 111.667 306.667 M 665 307.706 C 662.122 308.758, 659 312.366, 659 314.639 C 659 318.097, 662.341 319.351, 669.718 318.662 C 676.962 317.985, 680.663 316.466, 682.721 313.323 C 683.999 311.373, 683.931 310.931, 682.073 309.073 C 680.365 307.365, 678.812 307.014, 673.250 307.079 C 669.538 307.122, 665.825 307.405, 665 307.706 M 142.605 323.299 C 140.021 325.189, 140.881 329.842, 144.282 332.370 C 148.132 335.232, 159.898 335.952, 163.563 333.550 C 170.331 329.116, 162.270 322, 150.479 322 C 147.057 322, 143.603 322.570, 142.605 323.299 M 393.500 323.698 C 386.900 324.467, 374.300 326.190, 365.500 327.527 C 347.142 330.317, 322.681 333.389, 306 334.999 C 290.787 336.467, 281.236 338.984, 267.696 345.093 C 250.532 352.837, 246.656 356.774, 250.468 362.591 C 253.665 367.470, 260.493 369.202, 283.500 370.970 C 301.858 372.381, 313.637 374.166, 330.134 378.038 C 348.118 382.258, 367.973 383.995, 398.258 383.998 C 426.739 384, 442.035 382.424, 466.500 376.965 C 479.353 374.097, 493.651 372.099, 516 370.050 C 534.331 368.368, 540 365.903, 540 359.615 C 540 356.006, 538.734 354.588, 527.500 345.616 C 518.792 338.661, 512.921 336.622, 494 333.983 C 486.025 332.871, 473.650 330.875, 466.500 329.548 C 442.645 325.119, 419.151 322.038, 410.500 322.203 C 407.750 322.256, 400.100 322.928, 393.500 323.698 M 635.635 322.994 C 628.303 324.310, 623.615 329.784, 627.250 332.788 C 630.804 335.725, 647.394 334.763, 651.104 331.406 C 653.126 329.576, 653.679 324.538, 651.974 323.484 C 650.180 322.375, 640.675 322.090, 635.635 322.994 M 177.861 340.939 C 175.629 342.773, 175.583 343.031, 177.030 345.675 C 177.872 347.213, 179.672 349.062, 181.030 349.785 C 183.916 351.320, 192.481 350.854, 198.500 348.834 C 201.739 347.747, 202.500 347.017, 202.500 344.996 C 202.500 342.895, 201.709 342.230, 197.500 340.794 C 190.423 338.379, 180.892 338.450, 177.861 340.939 M 595.687 339.994 C 589.824 341.039, 585.763 343.531, 586.202 345.813 C 587.030 350.109, 603.603 351.181, 611.471 347.447 C 615.103 345.723, 616.050 343.116, 613.740 341.199 C 611.929 339.696, 601.325 338.988, 595.687 339.994 M 388.610 409.250 C 387.821 410.488, 386.228 414.722, 385.072 418.660 C 383.017 425.657, 382.055 427.018, 375.269 432.524 C 373.238 434.172, 371.620 436.698, 370.914 439.323 C 369.122 445.986, 367.220 448.847, 363.229 450.884 C 358.208 453.446, 356.580 455.510, 354.473 461.976 C 353.103 466.182, 351.216 468.918, 346.335 473.775 C 340.987 479.097, 339.717 481.048, 338.312 486.102 C 336.586 492.311, 333.777 495.619, 327.222 499.161 C 324.696 500.526, 324.025 501.650, 323.450 505.482 C 322.515 511.717, 323.904 516.179, 327.286 517.805 C 329.628 518.930, 391.702 520.067, 468.263 520.386 C 473.113 520.406, 475.094 518.348, 475.739 512.620 C 476.334 507.345, 474.637 502.337, 471.969 501.490 C 468.794 500.482, 464.256 494.984, 463.039 490.670 C 461.483 485.154, 460.301 483.704, 455.261 481.133 C 449.993 478.446, 448.571 476.280, 446.423 467.674 C 444.711 460.816, 444.129 459.998, 436.206 453.289 C 434.015 451.434, 432.127 448.322, 430.571 444 C 428.494 438.229, 427.690 437.181, 423.408 434.657 C 417.438 431.139, 416.414 429.789, 414.944 423.500 C 413.218 416.118, 411.912 414.655, 403.468 410.645 C 394.490 406.381, 390.670 406.023, 388.610 409.250" stroke="none" fill="#444" fill-rule="evenodd"/></svg>