<svg xmlns="http://www.w3.org/2000/svg" viewBox="0 0 160 100" fill="none">
<path d="M30 65 Q40 55 50 48 L58 43 Q68 38 80 38 Q92 38 102 43 L110 48 Q120 55 130 65" stroke="#888" stroke-width="1.5" fill="#fff"/>
<path d="M50 48 Q55 42 48 32 Q45 27 42 30 Q44 36 50 48" stroke="#888" stroke-width="1.3" fill="#fff"/>
<path d="M110 48 Q105 42 112 32 Q115 27 118 30 Q116 36 110 48" stroke="#888" stroke-width="1.3" fill="#fff"/>
<path d="M58 43 Q70 55 80 57 Q90 55 102 43" stroke="#888" stroke-width="1.2" fill="none"/>
<path d="M55 45 L50 35" stroke="#888" stroke-width="1"/>
<path d="M105 45 L110 35" stroke="#888" stroke-width="1"/>
<circle cx="80" cy="41" r="1.8" fill="none" stroke="#888" stroke-width="1"/>
</svg>