<svg xmlns="http://www.w3.org/2000/svg" viewBox="0 0 200 150" fill="none"><path d="M40 110 Q50 75 70 60 Q80 55 100 52 Q120 55 130 60 Q150 75 160 110" stroke="#333" stroke-width="2.2" fill="#fafafa"/><path d="M70 60 L55 38 Q52 33 48 35 L62 55" stroke="#333" stroke-width="2" fill="#fff" stroke-linejoin="round"/><path d="M130 60 L145 38 Q148 33 152 35 L138 55" stroke="#333" stroke-width="2" fill="#fff" stroke-linejoin="round"/><path d="M70 60 Q85 78 100 82 Q115 78 130 60" stroke="#333" stroke-width="1.8" fill="none"/><path d="M72 62 L58 42" stroke="#333" stroke-width="1.2"/><path d="M128 62 L142 42" stroke="#333" stroke-width="1.2"/><circle cx="100" cy="56" r="3" fill="none" stroke="#333" stroke-width="1.5"/><circle cx="100" cy="56" r="1" fill="#333"/></svg>