<svg xmlns="http://www.w3.org/2000/svg" width="1000" height="1000" viewBox="0 0 1000 1000" version="1.1"><path d="M 432.500 206.635 C 429.200 206.847, 411.425 207.428, 393 207.925 C 364.369 208.697, 357.335 209.200, 344.603 211.386 C 336.409 212.793, 327.210 214.669, 324.160 215.556 C 314.322 218.416, 298.956 220.952, 285.060 222.010 C 246.103 224.976, 233.824 227.215, 223.164 233.296 C 212.777 239.221, 209.142 240.520, 196.012 242.998 C 181.194 245.794, 175.512 248.032, 168.939 253.658 C 163.937 257.939, 154.645 262.986, 151.721 263.010 C 149.481 263.028, 140.033 267.877, 137.704 270.204 C 132.656 275.249, 124.115 281.867, 117 286.246 C 111.025 289.923, 108.847 291.961, 106.288 296.273 C 104.522 299.249, 99.794 305.315, 95.783 309.753 C 90.598 315.488, 88.057 319.220, 86.995 322.660 C 85.712 326.812, 85.500 341.141, 85.500 423.500 C 85.500 532.293, 85.266 528.565, 92.680 537.667 C 96.977 542.943, 100.260 549.173, 105.683 562.339 C 107.730 567.308, 110.166 570.878, 114.596 575.403 C 118.572 579.463, 121.330 583.346, 122.525 586.564 C 124.599 592.150, 127.661 597.052, 129.938 598.433 C 132.965 600.269, 139.945 607.987, 141.736 611.477 C 142.739 613.432, 147.821 619.620, 153.030 625.228 C 169.406 642.861, 219.126 692.186, 228.001 699.604 C 232.675 703.511, 238.075 708.583, 240 710.874 C 241.925 713.165, 246.650 717.134, 250.500 719.693 C 254.350 722.252, 259.300 726.590, 261.500 729.333 C 264.283 732.802, 267.624 735.412, 272.480 737.910 C 277.897 740.696, 280.445 742.805, 283.858 747.325 C 287.399 752.016, 289.642 753.824, 295.378 756.611 C 299.792 758.756, 304.781 762.299, 308.500 765.931 C 314.952 772.232, 318.568 774.453, 324.045 775.481 C 331.462 776.872, 336.009 772.416, 337.853 761.945 C 339.305 753.701, 343.279 745.914, 347.949 742.161 C 352.371 738.607, 354.863 733.702, 357.936 722.500 C 360.293 713.910, 363.222 708.790, 370.112 701.214 C 373.055 697.977, 375.734 693.691, 377.022 690.161 C 379.184 684.229, 383.106 679.374, 389.264 675.005 C 393.196 672.215, 395.215 667.538, 397.138 656.764 C 398.836 647.250, 401.447 643.027, 407.500 640 L 412.500 637.500 494.500 637.500 L 576.500 637.500 582.120 640.135 C 593.641 645.537, 599.159 652.901, 603.158 668.209 C 606.068 679.348, 608.325 684.401, 612.843 689.891 C 618.832 697.170, 620.858 701.156, 623.056 709.985 C 626.380 723.340, 627.758 725.968, 635.398 733.513 C 641.111 739.155, 642.975 741.794, 644.928 747.011 C 646.498 751.206, 648.999 755.262, 652.009 758.498 C 654.569 761.249, 658.344 766.308, 660.398 769.740 C 664.749 777.010, 667.191 779, 671.762 779 C 676.862 779, 682.528 775.543, 690.877 767.339 C 696.416 761.895, 700.431 758.953, 705.565 756.575 C 711.389 753.876, 713.412 752.265, 717.085 747.401 C 720.513 742.859, 723.101 740.694, 728.318 738 C 732.795 735.688, 737.031 732.401, 740.798 728.315 C 743.934 724.914, 748.975 720.530, 752 718.574 C 755.025 716.618, 759.075 713.148, 761 710.863 C 762.925 708.577, 768.325 703.511, 772.999 699.604 C 781.826 692.226, 831.961 642.499, 847.245 625.962 C 852.055 620.758, 857.905 613.582, 860.245 610.015 C 862.585 606.448, 866.341 602.173, 868.592 600.515 C 873.352 597.008, 875.882 593.430, 878.456 586.564 C 879.654 583.370, 882.458 579.432, 886.404 575.403 C 890.834 570.878, 893.270 567.308, 895.317 562.339 C 900.737 549.179, 904.155 542.675, 908.122 537.971 C 915.734 528.943, 915.382 534.057, 915.747 427 C 916.113 319.471, 916.673 327.494, 908.314 320.507 C 905.837 318.436, 902.324 314.419, 900.508 311.581 C 898.693 308.742, 895.441 304.863, 893.283 302.960 C 891.124 301.057, 888.265 298.547, 886.929 297.383 C 885.593 296.219, 882.397 293.051, 879.827 290.343 C 877.185 287.559, 872.306 283.988, 868.600 282.125 C 864.258 279.944, 860.642 277.156, 857.890 273.868 C 853.285 268.368, 849.363 266.026, 840.470 263.464 C 832.170 261.073, 825.304 257.444, 819.896 252.590 C 814.650 247.881, 809.041 245.830, 795 243.485 C 782.530 241.402, 774.300 238.672, 764.354 233.317 C 752.632 227.006, 737.073 224.321, 701.500 222.470 C 685.230 221.624, 668.533 219.428, 656.500 216.552 C 651 215.237, 642.900 213.667, 638.500 213.062 C 634.100 212.457, 628.025 211.249, 625 210.377 C 621.108 209.255, 612.045 208.537, 594 207.921 C 566.583 206.986, 442.411 205.997, 432.500 206.635 M 470 219.580 C 462.025 219.740, 442.675 220.369, 427 220.979 C 411.325 221.589, 382.075 222.512, 362 223.030 C 299.943 224.632, 281.609 226.560, 266.790 233.044 C 250.747 240.064, 243.975 241.747, 222.500 244.054 C 207.684 245.645, 200.211 248.077, 193.608 253.455 C 186.435 259.298, 183.617 260.641, 173.662 262.962 C 162.198 265.635, 155.185 268.921, 150.977 273.591 C 145.585 279.575, 142.363 281.753, 136.289 283.518 C 128.842 285.683, 126.420 287.422, 123.233 292.892 C 120.197 298.101, 118.035 300.221, 113 302.925 C 105.485 306.962, 103.013 312.301, 103.009 324.500 C 103.006 335.601, 105.797 338.850, 118.504 342.544 C 125.695 344.635, 130.536 349.011, 131.532 354.321 C 132.193 357.844, 132.398 358.002, 136.361 358.053 C 156.406 358.310, 163.384 362.142, 165.403 374 C 166.473 380.283, 166.728 380.401, 180.700 381.063 C 188.777 381.446, 194.822 382.239, 197.082 383.214 C 202.270 385.450, 205 389.381, 205 394.616 C 205 398.504, 204.710 399.043, 202.250 399.731 C 198.310 400.833, 184.358 400.424, 177.530 399.006 C 170.501 397.547, 167.493 394.843, 165.912 388.563 C 165.275 386.035, 164.388 383.740, 163.940 383.463 C 163.492 383.186, 159.385 382.512, 154.813 381.966 C 150.241 381.419, 144.580 380.263, 142.233 379.397 C 137.305 377.578, 133 372.546, 133 368.606 C 133 365.210, 130.587 360.439, 128.455 359.621 C 127.565 359.280, 123.640 359, 119.734 359 C 114.518 359, 111.456 359.569, 108.205 361.143 C 102.195 364.052, 100.537 368.054, 101.427 377.497 C 101.790 381.349, 102.290 414.650, 102.538 451.500 C 102.985 517.767, 103.447 527.715, 106.700 540.996 C 108.714 549.220, 109.436 550.360, 115.331 554.621 C 120.169 558.118, 121.376 560.117, 125.523 571.500 C 126.798 574.999, 129.328 578.475, 133.954 583.081 C 138.636 587.743, 142.012 592.401, 145.532 599.056 C 149.863 607.246, 151.266 608.984, 156.477 612.623 C 161.581 616.187, 162.969 617.871, 165.977 624.148 C 169.345 631.177, 169.793 631.650, 176.172 634.911 C 182.551 638.172, 182.976 638.621, 185.850 645.126 C 188.766 651.728, 189.060 652.030, 195.678 655.216 C 202.072 658.294, 202.717 658.918, 205.958 665.152 C 209.109 671.213, 210.018 672.129, 216.206 675.472 C 221.594 678.382, 223.549 680.107, 225.668 683.820 C 229.527 690.584, 230.864 691.897, 237.087 695.041 C 242.350 697.700, 245.850 700.917, 250.500 707.369 C 251.600 708.895, 256.246 712.598, 260.825 715.598 C 265.403 718.598, 272.195 724.078, 275.917 727.776 C 279.766 731.599, 285.725 736.164, 289.731 738.357 C 295.227 741.366, 297.626 743.446, 300.638 747.811 C 305.400 754.711, 309.489 757.231, 315.925 757.231 C 328.598 757.231, 332.797 752.724, 337.527 734.044 C 339.756 725.241, 341.199 722.760, 347.922 716.174 C 353.534 710.678, 353.785 710.203, 355.940 701 C 359.616 685.306, 361.302 682.114, 368.107 677.971 C 373.954 674.410, 376.813 668.937, 378.072 658.896 C 379.374 648.517, 381.990 643.487, 388.161 639.500 C 394.550 635.372, 396.841 630.950, 398.101 620.313 C 399.511 608.413, 401.912 603.594, 408.130 600.181 C 414.049 596.933, 416.370 592.663, 417.952 582.116 C 419.643 570.844, 422.335 565.490, 427.880 562.371 C 434.397 558.705, 435.988 556.078, 437.687 546.182 C 439.841 533.636, 442.261 528.622, 447.940 524.942 C 453.790 521.151, 455.381 518.444, 457.319 508.987 C 458.218 504.598, 460.962 497.115, 463.921 490.987 C 469.040 480.383, 469.783 477.331, 468.038 474.071 C 466.563 471.314, 462.706 470.271, 447.500 468.515 C 439.800 467.626, 430.189 466.469, 426.143 465.944 C 422.096 465.420, 406.767 464.322, 392.078 463.504 C 359.370 461.685, 348.891 459.907, 342.016 455.011 C 333.541 448.976, 326.148 447.246, 293.336 443.615 C 283.724 442.551, 279.804 441.629, 274.655 439.219 C 267.043 435.657, 263.995 431.501, 265.912 427.295 C 267.238 424.383, 276.818 419.789, 286.106 417.611 C 297.320 414.981, 304.840 412.185, 311.771 408.067 C 323.729 400.963, 331.854 399.074, 359.500 396.974 C 375.246 395.777, 389.515 392.811, 405 387.516 C 429.669 379.080, 448.367 377.669, 528 378.237 C 582.408 378.625, 584.796 378.721, 592.500 380.834 C 600.698 383.083, 603.185 384.076, 613.357 389.154 C 620.126 392.534, 626.558 394.147, 644.111 396.869 C 658.788 399.145, 665.395 401.639, 672.987 407.770 C 680.910 414.168, 684.268 415.609, 701.637 420.067 C 720.344 424.867, 724.005 426.281, 723.985 428.699 C 723.961 431.495, 722.917 432.472, 717 435.235 C 707.356 439.740, 698.963 441.987, 680 445.143 C 662.492 448.057, 660.910 448.509, 650.500 453.586 C 644.450 456.536, 636.800 459.627, 633.500 460.455 C 630.200 461.283, 618.500 462.418, 607.500 462.976 C 596.500 463.535, 583 464.460, 577.500 465.031 C 572 465.602, 558.950 466.191, 548.500 466.340 C 527.677 466.636, 524.966 467.254, 522.931 472.167 C 521.989 474.441, 521.996 477.085, 522.962 484.288 C 524.476 495.568, 526.137 499.325, 530.856 502.146 C 539.027 507.029, 540.860 510.588, 542.968 525.670 C 544.339 535.477, 545.197 536.941, 552.099 541.239 C 559.370 545.767, 561.478 549.813, 563.454 563.039 C 564.918 572.842, 566.705 576.557, 570.683 578.070 C 574.821 579.643, 578.918 582.940, 580.474 585.950 C 581.269 587.486, 582.600 593.300, 583.433 598.870 C 585.249 611.019, 586.809 614.352, 591.895 616.946 C 599.336 620.742, 601.867 625.325, 604.055 638.961 C 605.731 649.410, 607.936 653.956, 613.306 658.035 C 618.876 662.267, 621.281 666.367, 623.550 675.500 C 626.127 685.873, 628.645 691.004, 632.977 694.713 C 638.428 699.378, 640.693 703.492, 643.071 713.046 C 645.735 723.749, 648.026 728.124, 653.101 732.198 C 657.645 735.845, 661.064 741.871, 662.917 749.500 C 663.585 752.250, 665.246 756.413, 666.608 758.750 C 668.759 762.442, 669.534 763, 672.513 763 C 674.398 763, 678.317 761.921, 681.220 760.602 C 684.124 759.283, 688.075 757.507, 690 756.655 C 694.451 754.685, 695.708 753.569, 700 747.774 C 702.570 744.303, 705.548 741.971, 711.211 738.993 C 716.366 736.283, 721.505 732.410, 726.711 727.309 C 730.995 723.112, 736.975 718.120, 740 716.216 C 743.025 714.311, 748.650 709.644, 752.500 705.845 C 756.350 702.045, 762.200 697.450, 765.500 695.633 C 770.021 693.144, 772.571 690.802, 775.844 686.136 C 779.073 681.533, 781.784 679.025, 786.405 676.367 C 790.853 673.809, 793.435 671.470, 795.480 668.146 C 799.651 661.367, 801.933 659.090, 807.298 656.360 C 810.648 654.655, 812.966 652.496, 814.976 649.209 C 819.607 641.635, 821.899 639.126, 827.411 635.600 C 831.611 632.913, 833.328 630.905, 836.366 625.124 C 839.222 619.689, 841.418 617.016, 845.512 613.991 C 849.933 610.725, 851.730 608.404, 855.523 601.061 C 858.411 595.469, 861.865 590.496, 864.731 587.806 C 874.838 578.315, 875.275 577.664, 879.622 565.597 C 880.663 562.709, 883.558 558.351, 886.668 554.992 C 892.834 548.331, 895.423 542.876, 898.288 530.500 C 900.282 521.889, 900.388 518.241, 900.745 446 C 900.949 404.475, 900.841 369.012, 900.503 367.194 C 900.139 365.238, 898.278 362.278, 895.944 359.944 C 892.551 356.551, 891.407 356.009, 887.750 356.065 C 885.413 356.101, 879.461 357.563, 874.525 359.315 L 865.550 362.500 863.992 367.705 C 861.012 377.657, 856.550 379.921, 838 380.896 L 826.500 381.500 824.759 386.936 C 823.801 389.926, 821.845 393.596, 820.412 395.092 C 815.971 399.727, 805.391 401.217, 793.650 398.859 C 788.868 397.898, 787.868 397.321, 787.340 395.218 C 786.415 391.534, 788.095 387.849, 791.644 385.776 C 795.395 383.585, 808.157 381.005, 815.338 380.986 C 824.015 380.963, 824.759 380.490, 826.636 373.799 C 829.173 364.759, 834.067 362.309, 853.380 360.414 C 861.229 359.644, 863.529 358.026, 864.557 352.550 C 864.972 350.337, 866.401 347.999, 868.331 346.375 C 871.298 343.878, 871.802 343.790, 879.518 344.416 C 886.910 345.016, 887.892 344.874, 891.049 342.749 C 896.013 339.408, 897.434 334.489, 896.085 325.306 C 894.314 313.244, 892.760 310.541, 884.922 305.885 C 881.161 303.650, 877.052 300.459, 875.791 298.794 C 869.241 290.140, 867.470 288.764, 855.510 283.044 C 846.541 278.754, 842.453 276.186, 839.926 273.254 C 835.502 268.123, 832.450 266.628, 820.199 263.597 C 808.760 260.767, 803.450 258.344, 797 253.010 C 790.174 247.366, 780.845 244.785, 760.963 243.040 C 745.620 241.694, 731.690 238.594, 717.861 233.448 C 707.670 229.656, 703.648 228.714, 692.619 227.534 C 671.344 225.258, 635.303 223.094, 608.500 222.485 C 594.750 222.172, 571.575 221.498, 557 220.986 C 522.431 219.774, 488.101 219.219, 470 219.580 M 508 386.286 C 507.725 386.579, 500.300 387.544, 491.500 388.432 C 482.700 389.319, 470.550 390.701, 464.500 391.503 C 449.218 393.527, 427.252 395.716, 409.500 396.984 C 376.093 399.370, 367.761 400.986, 351.500 408.227 C 346 410.676, 336.325 413.937, 330 415.473 C 312.093 419.822, 307.434 422.550, 306.334 429.330 C 305.016 437.450, 315.653 442.162, 339.500 444.023 C 357.356 445.416, 375.821 448.248, 383.500 450.772 C 412.998 460.466, 436.639 462.989, 498 462.991 C 552.938 462.993, 576.019 460.332, 606.598 450.471 C 614.083 448.058, 628.389 445.947, 653.942 443.485 C 671.366 441.806, 675.388 440.379, 678.444 434.792 C 680.152 431.669, 680.240 430.745, 679.169 427.169 C 677.586 421.887, 674.666 419.906, 662.077 415.575 C 655.660 413.367, 649.509 410.415, 645.658 407.696 C 635.333 400.404, 633.566 399.968, 598 395.934 C 560.386 391.668, 547.231 389.969, 540.500 388.508 C 533.439 386.976, 508.927 385.300, 508 386.286 M 220 401.019 C 211.930 401.663, 209 403.182, 209 406.723 C 209 410.308, 212.716 415.494, 216.617 417.355 C 224.388 421.060, 234.637 421.535, 247.704 418.794 C 251.978 417.897, 253.075 417.225, 253.839 415.031 C 255.651 409.834, 251.537 404.339, 244.500 402.556 C 239.398 401.264, 226.819 400.475, 220 401.019 M 747.014 402.954 C 745.097 403.443, 742.285 405.236, 740.764 406.938 C 732.693 415.971, 742.463 420.843, 763.307 418.178 C 773.535 416.870, 777.983 414.063, 777.993 408.911 C 777.999 406.033, 777.496 405.091, 775.457 404.162 C 772.181 402.670, 751.560 401.794, 747.014 402.954 M 487.102 499.898 C 482.864 504.136, 483.215 515.450, 487.692 518.972 C 490.954 521.538, 499.894 521.771, 503.535 519.385 C 507.309 516.912, 506.960 511.267, 502.750 506.679 C 499.074 502.673, 492.404 498, 490.360 498 C 489.612 498, 488.146 498.854, 487.102 499.898 M 469.783 542.750 C 468.944 543.712, 467.462 546.975, 466.491 550 C 463.173 560.338, 460.738 563.868, 452.088 570.876 C 446.781 575.175, 445.511 577.711, 443.589 587.845 C 442.729 592.376, 441.517 597.076, 440.895 598.291 C 439.266 601.470, 432.821 608, 431.311 608 C 429.439 608, 425.292 614.775, 423.866 620.163 C 422.232 626.335, 423.784 631.851, 427.827 634.239 C 430.373 635.743, 433.350 635.897, 453.106 635.553 C 472.303 635.219, 476.428 634.867, 482 633.089 C 489.100 630.824, 494.333 630.521, 500.500 632.019 C 511.347 634.655, 529.892 636.030, 547 635.467 C 566.388 634.830, 572.627 633.751, 573.539 630.878 C 574.558 627.667, 573.135 625.609, 567.745 622.500 C 561.465 618.878, 558.506 614.083, 557.668 606.171 C 556.576 595.867, 554.437 591.473, 548.204 586.736 C 540.661 581.003, 538.984 577.776, 537.461 566.062 C 536.760 560.671, 535.430 554.798, 534.506 553.011 C 532.950 550.003, 532.533 549.799, 528.915 550.285 C 526.669 550.586, 522.866 552.346, 519.978 554.420 C 513.953 558.749, 507.056 560.426, 498.070 559.746 C 489.832 559.123, 487.099 557.849, 484.014 553.195 C 480.110 547.305, 476.916 543.593, 474.626 542.285 C 471.817 540.681, 471.568 540.704, 469.783 542.750 M 490.209 579.050 C 483.264 580.558, 478.952 587.595, 478.876 597.547 C 478.803 606.998, 481.610 611.311, 491.166 616.428 C 497.369 619.750, 499.425 620.355, 504.500 620.351 C 515.104 620.343, 520.027 616.024, 519.964 606.785 C 519.927 601.233, 517.989 591.717, 516.225 588.421 C 514.485 585.169, 511.777 583.352, 505.500 581.223 C 497.933 578.657, 494.359 578.148, 490.209 579.050" stroke="none" fill="#444" fill-rule="evenodd"/></svg>