<svg xmlns="http://www.w3.org/2000/svg" width="800" height="800" viewBox="0 0 800 800" version="1.1"><path d="M 355.500 227.689 C 309.941 228.578, 279.731 231.092, 255.416 236.017 C 240.620 239.014, 224.048 241.437, 211 242.512 C 196.977 243.667, 191.636 245.041, 180 250.491 C 171.826 254.320, 165.463 256.504, 158 258.044 C 146.163 260.485, 144.121 261.370, 136.155 267.505 C 132.697 270.169, 127.800 272.724, 123.548 274.083 C 118.085 275.828, 115.622 277.305, 112.048 280.979 C 109.547 283.551, 104.948 287.328, 101.829 289.372 C 94.387 294.250, 84.325 305.027, 80.219 312.516 C 78.415 315.807, 75.378 320.687, 73.469 323.359 L 70 328.218 70 399.456 C 70 438.636, 69.706 474.829, 69.348 479.885 L 68.695 489.076 73.531 493.579 C 76.190 496.056, 79.746 500.201, 81.433 502.791 C 83.789 506.409, 85.939 508.195, 90.710 510.500 C 94.125 512.150, 98.850 515.360, 101.210 517.633 C 106.368 522.603, 107.847 523.399, 118.777 527.094 C 123.992 528.856, 129.262 531.502, 132.435 533.950 C 138.999 539.014, 142.184 540.309, 154.500 542.918 C 161.636 544.430, 167.650 546.583, 175.500 550.435 C 187.263 556.208, 190.802 557.143, 209.500 559.414 C 216.472 560.261, 228.232 562.741, 237.566 565.333 C 267.056 573.521, 275.773 574.352, 351.084 576.156 C 392.142 577.139, 411.732 577.137, 447.084 576.146 C 509.599 574.393, 518.162 573.497, 544 565.999 C 560.871 561.103, 564.393 560.383, 580.500 558.539 C 596.557 556.701, 603.044 555.035, 614.310 549.852 C 619.927 547.268, 626.815 545.085, 633.310 543.832 C 638.915 542.750, 645.846 541.417, 648.713 540.869 C 652.234 540.197, 656.524 538.144, 661.935 534.543 C 666.786 531.315, 672.027 528.723, 675.222 527.972 C 684.904 525.695, 691.119 522.835, 696.209 518.314 C 698.984 515.850, 704.493 512.358, 708.452 510.554 C 714.538 507.780, 716.067 506.562, 718.350 502.665 C 719.836 500.131, 723.047 496.388, 725.488 494.348 C 727.928 492.309, 730.196 489.933, 730.528 489.070 C 730.860 488.206, 731.124 451.570, 731.114 407.655 L 731.096 327.810 726.737 323.150 C 724.340 320.588, 720.896 315.708, 719.083 312.308 C 717.067 308.525, 714.332 305.116, 712.037 303.526 C 709.974 302.096, 706.838 298.910, 705.069 296.446 C 703.299 293.983, 699.496 290.459, 696.616 288.617 C 693.737 286.775, 689.948 283.460, 688.198 281.249 C 685.758 278.170, 683.193 276.496, 677.216 274.087 C 672.926 272.358, 666.963 268.931, 663.965 266.471 C 658.222 261.760, 654.249 260.123, 642 257.416 C 637.875 256.505, 629.775 253.610, 624 250.983 C 609.973 244.604, 608.325 244.233, 583.901 241.968 C 572.292 240.891, 554.627 238.617, 544.646 236.916 C 504.488 230.068, 496.922 229.345, 451.500 228.004 C 421.433 227.116, 390.076 227.013, 355.500 227.689 M 356.500 236.651 C 341.102 238.455, 317.644 240.071, 293.500 240.990 C 234.416 243.241, 224.420 244.428, 207.663 251.184 C 200.259 254.169, 193.283 256.003, 181.195 258.142 C 163.426 261.286, 163.624 261.217, 154.270 267.621 C 150.779 270.011, 145.352 272.679, 142.211 273.549 C 132.736 276.175, 130.714 277.214, 125.454 282.160 C 122.329 285.098, 117.129 288.412, 111.789 290.867 C 104.074 294.414, 102.812 295.390, 99.756 300.165 C 97.728 303.334, 94.465 306.685, 91.722 308.417 C 86.778 311.539, 83.829 316.726, 82.553 324.545 C 81.679 329.904, 83.057 333.158, 88.399 338.349 C 91.200 341.073, 93.229 344.137, 93.914 346.680 C 94.995 350.695, 95.013 350.706, 101.633 351.803 C 109.420 353.094, 112.519 355.486, 114.109 361.435 C 114.707 363.671, 115.602 365.996, 116.098 366.602 C 116.594 367.209, 121.350 368.011, 126.666 368.384 C 136.510 369.076, 142.380 370.946, 143.918 373.880 C 144.386 374.771, 145.082 377.395, 145.465 379.711 C 146.124 383.692, 146.015 383.958, 143.460 384.599 C 141.974 384.972, 136.297 385.032, 130.845 384.731 C 119.020 384.080, 116.601 382.831, 113.655 375.856 C 112.109 372.197, 110.922 370.794, 109.037 370.396 C 99.899 368.470, 95.851 364.723, 94.625 357.055 C 94.080 353.647, 93.601 353, 91.623 353 C 88.305 353, 84.344 356.428, 83.018 360.447 C 82.231 362.831, 81.884 382.686, 81.869 426.181 C 81.857 460.457, 81.882 489.130, 81.924 489.901 C 81.966 490.671, 86.043 495.257, 90.984 500.091 C 98.390 507.336, 101.066 509.281, 106.214 511.158 C 110.152 512.594, 114.361 515.157, 117.604 518.095 C 122.604 522.622, 127.625 524.866, 139.715 527.975 C 142.034 528.571, 147.199 531.281, 151.195 533.998 C 158.809 539.176, 162.139 540.217, 181.317 543.417 C 187.454 544.441, 193.077 546.263, 199.817 549.409 C 211.817 555.013, 219.603 556.680, 242.500 558.549 C 264.628 560.355, 271.453 561.333, 285.500 564.709 C 293.082 566.531, 299.399 567.376, 305.829 567.426 C 315.139 567.500, 315.165 567.493, 318.079 564.234 C 320.276 561.778, 321.023 559.918, 321.094 556.734 C 321.146 554.405, 321.160 530.450, 321.124 503.500 C 321.060 454.568, 321.614 444.360, 325.063 430.911 C 326.257 426.255, 331.200 419.477, 335.280 416.900 C 338.109 415.114, 339.655 414.927, 348 415.359 C 353.225 415.629, 362.450 417.035, 368.500 418.483 C 378.703 420.925, 380.587 421.073, 394.500 420.519 C 404.916 420.105, 412.709 420.354, 420 421.335 C 425.775 422.112, 433.087 422.524, 436.250 422.250 C 441.094 421.831, 442 422.008, 442 423.376 C 442 424.936, 439.356 425.524, 433.500 425.270 C 432.400 425.222, 426.550 425.813, 420.500 426.583 C 414.450 427.354, 402.020 427.987, 392.878 427.992 C 378.504 427.999, 374.989 428.330, 366.878 430.440 C 355.183 433.482, 340.599 440.942, 338.532 444.938 C 337.729 446.492, 336.348 452.637, 335.463 458.594 C 334.578 464.552, 333.566 469.893, 333.214 470.463 C 332.861 471.033, 332.687 492.200, 332.828 517.500 C 333.114 569.080, 332.741 566.524, 340.565 570.500 C 344.310 572.404, 346.839 572.516, 393 572.832 C 440.038 573.154, 470.079 572.175, 482.708 569.908 C 485.894 569.336, 492.566 567.580, 497.536 566.006 C 508.503 562.533, 520.470 560.303, 532.500 559.491 C 560.039 557.631, 571.469 555.559, 582.891 550.354 C 592.134 546.141, 598.532 544.469, 613.061 542.467 C 627.763 540.442, 634.300 538.729, 638.867 535.707 C 645.882 531.065, 651.210 528.865, 660.193 526.905 C 672.004 524.327, 674.645 523.144, 680.807 517.671 C 684.593 514.308, 687.758 512.561, 692.759 511.072 C 698.959 509.225, 700.412 508.221, 709.199 499.716 C 716.615 492.537, 718.987 489.589, 719.486 486.927 C 719.843 485.025, 719.992 455.492, 719.817 421.299 L 719.500 359.130 716.633 356.138 C 715.055 354.492, 712.468 352.608, 710.883 351.951 C 708.402 350.924, 708 350.213, 708 346.856 C 708 343.440, 708.684 342.293, 713.500 337.628 C 718.211 333.066, 719 331.772, 719 328.611 C 719 323.408, 716.030 318.197, 709.485 311.916 C 706.380 308.937, 702.414 304.108, 700.670 301.184 C 697.954 296.629, 696.391 295.288, 689.753 291.824 C 685.492 289.600, 679.304 285.369, 676 282.421 C 670.992 277.953, 668.583 276.632, 661.495 274.470 C 655.979 272.788, 651.503 270.667, 648.747 268.429 C 641.582 262.611, 635.472 260.252, 623.165 258.552 C 608.535 256.531, 604.582 255.529, 592.624 250.812 C 577.982 245.035, 565.841 243.712, 502.500 240.987 C 489.300 240.419, 468.600 239.070, 456.500 237.988 C 438.878 236.413, 427.037 236.049, 397 236.161 C 376.375 236.237, 358.150 236.458, 356.500 236.651 M 689.169 353.485 C 683.730 355.182, 681.393 357.280, 679.901 361.801 C 678.833 365.036, 678.931 365.525, 680.974 367.180 C 682.693 368.572, 684.954 369, 690.595 369 C 697.226 369, 698.278 368.723, 701.046 366.250 C 705.008 362.710, 706.363 355.470, 703.461 353.348 C 701.151 351.659, 694.828 351.719, 689.169 353.485 M 656 369.626 C 647.611 372.441, 645.828 373.432, 644.486 376.027 C 641.669 381.475, 644.090 383.494, 654.694 384.538 C 668.478 385.897, 676.243 382.044, 676.413 373.762 L 676.500 369.500 667 369.311 C 661.775 369.208, 656.825 369.349, 656 369.626 M 370.500 372.073 C 354.400 372.952, 344.653 374.868, 344.193 377.246 C 343.746 379.555, 351.331 380.754, 371 381.482 C 401.013 382.592, 412.776 382.274, 421.084 380.127 C 425.255 379.049, 429.305 378.200, 430.084 378.241 C 434.371 378.465, 439 377.888, 439 377.129 C 439 376.650, 436.272 375.950, 432.939 375.573 C 429.605 375.195, 423.458 374.012, 419.279 372.943 C 411.009 370.828, 397.654 370.590, 370.500 372.073 M 147.319 386.610 C 146.041 389.942, 148.364 395.322, 152 397.451 C 155.077 399.252, 157.193 399.500, 169.500 399.500 C 185.242 399.500, 189.500 398.349, 189.500 394.094 C 189.500 388.339, 178.857 385.039, 160.219 385.016 C 149.841 385.002, 147.841 385.250, 147.319 386.610 M 267 386.028 C 259.394 387.080, 252.708 389.432, 248.500 392.538 C 245.132 395.024, 240.652 396.556, 234 397.497 C 231.525 397.847, 225.675 399.174, 221 400.447 C 216.325 401.719, 210.744 403.152, 208.598 403.630 C 203.493 404.768, 201.927 407.157, 204.454 409.949 C 207.019 412.784, 221.006 417.128, 229.500 417.728 C 239.167 418.411, 252.726 415.772, 261.673 411.467 C 265.984 409.392, 271.613 407.622, 275.779 407.031 C 283.889 405.881, 283.540 405.986, 296.626 400.749 C 315.068 393.367, 315.411 391.393, 298.817 388.147 C 285.051 385.455, 275.671 384.830, 267 386.028 M 502 386.001 C 496.522 386.736, 486.982 389.180, 481.750 391.187 C 477.430 392.845, 478.168 395.930, 483.802 399.770 C 490.473 404.316, 497.674 406.850, 508.578 408.487 C 514.181 409.328, 520.723 411.123, 524.954 412.980 C 533.010 416.515, 546.327 418.564, 554.562 417.536 C 559.872 416.872, 573.147 411.189, 574.500 409 C 574.905 408.344, 574.621 407.216, 573.868 406.491 C 571.250 403.972, 559.641 399.837, 551.098 398.381 C 539.145 396.343, 536.161 395.237, 531 390.936 C 524.148 385.223, 516.934 383.996, 502 386.001 M 607.528 386.066 C 600.484 387.244, 594.149 389.853, 592.966 392.064 C 591.085 395.579, 594.649 397.564, 605.392 398.986 C 622.080 401.194, 636.126 398.331, 637.610 392.418 C 638.622 388.384, 636.924 386.586, 631.396 385.838 C 624.792 384.944, 613.600 385.051, 607.528 386.066 M 376.419 481.046 C 372.584 482.196, 370.602 484.412, 369.028 489.313 C 367.811 493.103, 367.214 493.543, 358.803 496.849 C 353.975 498.747, 352.569 502.275, 352.533 512.582 C 352.494 523.448, 353.788 526.018, 361.227 529.864 C 364.488 531.551, 366.295 533.328, 367.527 536.060 C 370.785 543.285, 373.016 544.507, 382.836 544.447 C 393.758 544.381, 397.185 542.763, 400.288 536.209 C 402.128 532.322, 403.494 531.012, 408.114 528.705 C 415.057 525.238, 416.433 522.779, 416.352 513.984 C 416.258 503.743, 414.890 501.316, 407.284 497.903 C 401.360 495.245, 400.734 494.648, 398.442 489.465 C 396.558 485.204, 395.211 483.573, 392.738 482.555 C 388.224 480.697, 380.090 479.944, 376.419 481.046 M 374.178 499.869 C 372.270 501.079, 371.051 507.361, 371.024 516.128 C 371.005 522.027, 371.375 524.066, 372.655 525.128 C 375.853 527.779, 390.003 525.854, 393.576 522.282 C 394.913 520.944, 395.146 519.280, 394.756 513.840 C 394.490 510.113, 393.558 505.974, 392.685 504.643 C 390.061 500.637, 377.909 497.503, 374.178 499.869" stroke="none" fill="#444" fill-rule="evenodd"/></svg>