<svg xmlns="http://www.w3.org/2000/svg" width="50" height="50" viewBox="0 0 50 50" version="1.1">
	<path d="M 4 26.274 C 4 29.359, 4.338 32.091, 4.750 32.346 C 5.640 32.898, 5.509 22.176, 4.615 21.282 C 4.277 20.943, 4 23.190, 4 26.274 M 44.774 21.750 C 44.584 22.163, 44.715 24.525, 45.064 27 L 45.700 31.500 45.850 26.250 C 45.989 21.400, 45.628 19.890, 44.774 21.750 M 13.813 25.683 C 14.534 25.972, 15.397 25.936, 15.729 25.604 C 16.061 25.272, 15.471 25.036, 14.417 25.079 C 13.252 25.127, 13.015 25.364, 13.813 25.683 M 21.250 26.689 C 22.212 26.941, 23.788 26.941, 24.750 26.689 C 25.712 26.438, 24.925 26.232, 23 26.232 C 21.075 26.232, 20.288 26.438, 21.250 26.689 M 20.272 32 C 20.272 34.475, 20.467 35.487, 20.706 34.250 C 20.944 33.013, 20.944 30.988, 20.706 29.750 C 20.467 28.512, 20.272 29.525, 20.272 32" stroke="none" fill="#555555" fill-rule="evenodd"/>
</svg>