<svg xmlns="http://www.w3.org/2000/svg" width="800" height="800" viewBox="0 0 800 800" version="1.1"><path d="M 383.500 197.051 C 354.613 197.790, 342.778 198.751, 323 201.967 C 316.675 202.995, 308.350 204.137, 304.500 204.505 C 300.650 204.873, 294.513 205.793, 290.862 206.549 C 287.211 207.306, 270.561 209.071, 253.862 210.471 C 217.079 213.556, 213.845 214.099, 202.802 219.051 C 197.759 221.313, 190.405 223.627, 185.302 224.559 C 163.284 228.579, 160.261 229.260, 156.500 231.049 C 154.300 232.095, 150.323 234.530, 147.663 236.461 C 145.002 238.391, 140.952 240.446, 138.663 241.028 C 125.092 244.476, 120.899 246.193, 116.292 250.187 C 113.657 252.472, 108.682 255.622, 105.238 257.187 C 101.024 259.101, 95.464 263.180, 88.238 269.659 C 75.414 281.159, 70.397 286.927, 68.942 291.845 C 67.295 297.413, 68.180 450.137, 69.890 455.500 C 70.592 457.700, 73.134 463.373, 75.540 468.108 C 77.946 472.842, 80.777 479.817, 81.831 483.608 C 84.590 493.526, 86.196 496.872, 90.899 502.500 C 93.197 505.250, 96.908 511.195, 99.144 515.712 C 101.663 520.798, 104.471 524.885, 106.521 526.448 C 108.612 528.043, 111.186 531.833, 113.509 536.736 C 115.788 541.548, 119.337 546.803, 122.843 550.559 C 125.954 553.891, 133 561.693, 138.500 567.896 C 144 574.099, 151.875 582.897, 156 587.446 C 160.125 591.996, 164.400 597.244, 165.500 599.109 C 167.884 603.151, 173.578 606.157, 180.023 606.776 C 186.072 607.357, 188.356 606.046, 192.456 599.637 C 194.298 596.757, 197.828 592.743, 200.300 590.717 C 202.772 588.692, 206.048 585.053, 207.580 582.632 C 209.112 580.210, 212.529 576.812, 215.173 575.081 C 217.952 573.262, 221.389 569.733, 223.319 566.717 C 225.755 562.910, 228.123 560.718, 232.079 558.608 C 235.060 557.018, 238.932 554.656, 240.682 553.360 C 247.049 548.642, 248.380 548.608, 256.306 552.958 C 263.041 556.655, 264.304 556.978, 276.001 558.001 C 282.876 558.603, 304.475 559.335, 324 559.629 C 343.525 559.922, 360.951 560.607, 362.725 561.151 C 364.499 561.694, 368.090 563.907, 370.707 566.069 C 374.748 569.409, 376.169 570, 380.155 570 C 382.736 570, 387.019 569.544, 389.674 568.987 C 420.975 562.414, 442.716 559.697, 477.500 558.011 C 500.004 556.920, 507.752 555.695, 518 551.609 C 528.929 547.252, 557.910 541, 567.177 541 C 571.895 541, 576.812 543.874, 580.614 548.853 C 582.531 551.364, 585.882 554.598, 588.061 556.041 C 593.334 559.531, 609.020 576.393, 612.039 581.815 C 613.360 584.188, 616.627 587.699, 619.298 589.619 C 621.969 591.538, 624.908 594.505, 625.828 596.212 C 626.747 597.919, 628.701 600.707, 630.168 602.408 C 632.707 605.350, 633.198 605.500, 640.313 605.500 C 648.918 605.500, 650.480 604.563, 654.653 596.897 C 656.064 594.304, 659.179 590.774, 661.574 589.054 C 664.584 586.893, 667.047 583.800, 669.545 579.046 C 671.534 575.261, 675.582 569.369, 678.541 565.952 C 682.886 560.935, 684.509 557.983, 686.971 550.620 C 688.869 544.941, 691.374 539.802, 693.608 537 C 698.286 531.133, 700.308 527.072, 702.910 518.317 C 704.084 514.367, 706.671 508.742, 708.659 505.817 C 714.040 497.902, 715.638 493.707, 718.899 478.929 C 720.529 471.543, 723.203 461.450, 724.841 456.500 C 730.312 439.968, 730.466 437.433, 730.484 363.500 C 730.499 301.386, 730.352 295.197, 728.792 292 C 727.852 290.075, 724.024 282.878, 720.285 276.006 C 713.981 264.423, 713.088 263.274, 708.036 260.255 C 705.038 258.464, 699.419 254.280, 695.549 250.957 C 689.690 245.926, 687.161 244.503, 680.440 242.453 C 676 241.099, 669.697 238.354, 666.434 236.353 C 655.586 229.703, 656.562 230.025, 629.066 224.032 C 623.877 222.901, 615.681 220.156, 610.852 217.932 C 601.488 213.618, 600.068 213.364, 563.717 209.504 C 555.586 208.640, 539.611 206.184, 528.217 204.045 C 516.822 201.907, 503 199.655, 497.500 199.042 C 487.331 197.908, 432.667 195.921, 419 196.189 C 414.875 196.270, 398.900 196.658, 383.500 197.051 M 370.500 206.528 C 361.700 207.255, 343.700 208.348, 330.500 208.957 C 300.656 210.333, 265.040 212.751, 254.607 214.108 C 250.265 214.673, 243.464 216.425, 239.492 218.003 C 231.267 221.270, 223.052 222.970, 201 225.968 C 181.733 228.587, 176.691 230.005, 167.108 235.503 C 161.714 238.597, 156.008 240.765, 147.500 242.954 C 139.757 244.945, 133.904 247.097, 131 249.019 C 128.525 250.658, 122.225 254.058, 117 256.575 C 111.775 259.093, 106.536 261.618, 105.358 262.187 C 104.180 262.756, 101.930 264.947, 100.358 267.055 C 98.786 269.163, 94.800 272.380, 91.500 274.202 C 84.385 278.132, 82.004 282.013, 82.002 289.685 C 81.999 299.407, 84.405 302.127, 95.188 304.590 C 104.849 306.797, 106.920 307.922, 109.066 312.129 C 111.432 316.768, 113.848 318.393, 120.738 319.984 C 127.064 321.445, 130.404 323.911, 133.031 329.061 C 135.514 333.928, 136.667 334.521, 146.500 335.988 C 156.974 337.550, 160.867 339.437, 162.707 343.841 C 165.867 351.405, 161 353.893, 146.665 352.040 C 136.760 350.760, 134.102 349.462, 131.357 344.568 C 128.798 340.004, 126.723 338.793, 118.500 337.064 C 113.063 335.921, 111.937 335.205, 106.500 329.436 C 99.738 322.262, 95.323 320, 88.079 320 C 81.152 320, 78.215 321.568, 77.009 325.909 C 75.370 331.807, 75.738 426.469, 77.444 438 C 83.330 477.783, 84.116 480.836, 90.610 489.186 C 93.042 492.314, 96.340 498.086, 97.939 502.015 C 99.967 506.998, 102.482 510.873, 106.259 514.832 C 110.727 519.517, 112.149 521.940, 114.405 528.716 C 117.075 536.731, 118.010 538.068, 124.799 543.581 C 126.614 545.055, 129.215 548.465, 130.580 551.159 C 132.384 554.718, 134.452 556.912, 138.142 559.183 C 141.428 561.205, 144.432 564.199, 146.649 567.665 C 148.533 570.611, 151.864 574.205, 154.051 575.653 C 156.304 577.144, 159.571 580.825, 161.588 584.145 C 163.793 587.774, 166.929 591.213, 169.824 593.176 C 172.396 594.919, 175.978 597.618, 177.785 599.173 C 179.591 600.728, 181.875 602, 182.860 602 C 185.094 602, 188.159 598.717, 190.796 593.500 C 192.878 589.381, 222.182 559.052, 229.753 553.181 C 232.091 551.367, 235.754 547.322, 237.891 544.191 C 242.621 537.264, 245.283 534.764, 250.500 532.347 C 253.845 530.798, 254.711 529.759, 255.786 525.997 C 258.359 517.004, 260.066 514.745, 265.995 512.493 C 270.231 510.883, 271.956 509.573, 273.528 506.770 C 276.315 501.803, 278.634 499.394, 281.954 498.019 C 284.640 496.906, 285.809 495.131, 289.376 486.743 C 290.634 483.786, 292.132 482.438, 296.412 480.412 C 301.472 478.016, 305 473.816, 305 470.188 C 305 468.616, 310.943 464, 312.966 464 C 315.737 464, 319.006 460.866, 321.367 455.946 C 323.033 452.474, 324.558 450.995, 328.330 449.193 C 332.417 447.242, 333.522 446.068, 335.512 441.570 C 337.811 436.371, 341.956 432, 344.588 432 C 346.972 432, 350.953 429.727, 351.421 428.098 C 352.830 423.203, 353.046 415.383, 351.818 413.772 C 350.129 411.556, 333.558 407.249, 322.177 406.068 C 282.518 401.950, 269.686 399.620, 257 394.235 C 248.233 390.513, 234.886 386.809, 220.772 384.181 C 212.636 382.667, 208.192 380.264, 205.430 375.889 C 202.279 370.898, 200.833 370.235, 191.423 369.473 C 177.307 368.331, 170.712 365.493, 168.653 359.678 C 167.666 356.893, 169.595 354.289, 173.629 352.957 C 178.880 351.225, 190.427 352.231, 196.753 354.972 C 201.148 356.877, 202.455 358.086, 204.753 362.374 L 207.500 367.500 217.212 367.786 C 227.749 368.096, 247.952 364.622, 257.249 360.901 C 259.862 359.856, 264.363 358.058, 267.250 356.906 C 270.137 355.755, 275.712 354.197, 279.638 353.445 C 286.994 352.035, 328.143 348.640, 352 347.476 C 359.425 347.113, 370.421 346.183, 376.436 345.408 C 393.207 343.249, 434.920 343.525, 459.500 345.959 C 470.500 347.048, 488.275 348.634, 499 349.483 C 523.487 351.423, 530.255 352.849, 541.502 358.444 C 548.881 362.114, 553.299 363.478, 566.002 366.007 C 582.528 369.298, 589.280 369.731, 597.886 368.051 C 600.849 367.473, 604.686 367, 606.412 367 C 609.129 367, 609.817 366.428, 611.526 362.750 C 614.548 356.244, 620.627 353.594, 633.500 353.172 C 645.754 352.771, 649 353.768, 649 357.935 C 649 361.986, 644.865 365.663, 638.069 367.655 C 633.002 369.140, 627.366 369.149, 612.515 367.694 C 610.958 367.542, 610.193 368.552, 608.973 372.372 C 606.737 379.372, 603.578 381.697, 595.292 382.444 C 591.556 382.780, 586.025 383.735, 583 384.566 C 565.394 389.399, 559.111 391.280, 550.051 394.434 C 544.513 396.362, 536.274 398.624, 531.741 399.461 C 519.026 401.810, 494.713 404.238, 482.247 404.403 C 471.604 404.543, 470.855 404.690, 468.435 407.111 C 464.370 411.176, 464.781 415.631, 469.592 419.663 C 471.742 421.464, 473.864 423.374, 474.310 423.909 C 475.028 424.769, 482.824 432.516, 489.641 439.142 C 490.975 440.439, 493.906 443.635, 496.155 446.243 C 498.403 448.852, 501.671 451.870, 503.418 452.949 C 505.318 454.124, 508.304 457.902, 510.856 462.362 C 515.509 470.494, 517.240 472.469, 523.987 477.342 C 526.641 479.258, 529.715 482.804, 531.513 486.024 C 533.429 489.454, 535.877 492.212, 538.132 493.483 C 543.552 496.537, 544.944 497.955, 547.531 503.060 C 548.942 505.846, 551.301 508.570, 553.347 509.777 C 555.590 511.101, 557.957 513.991, 560.144 518.080 C 561.990 521.529, 564.175 524.687, 565 525.098 C 565.825 525.508, 568.295 526.708, 570.488 527.764 C 573.372 529.152, 575.396 531.258, 577.797 535.367 C 579.793 538.782, 582.674 542.032, 585.017 543.511 C 587.162 544.865, 590.732 548.429, 592.950 551.433 C 595.169 554.436, 598.941 558.239, 601.332 559.885 C 603.724 561.530, 607.353 565.492, 609.397 568.688 C 611.440 571.885, 614.861 575.748, 616.998 577.273 C 619.135 578.798, 622.829 582.835, 625.207 586.243 C 630.762 594.207, 634.865 597.011, 640.898 596.965 C 647.992 596.910, 651.252 594.371, 655.845 585.324 C 657.011 583.028, 660.286 579.203, 663.122 576.824 C 666.783 573.755, 669.081 570.723, 671.041 566.376 C 672.802 562.471, 675.129 559.241, 677.461 557.462 C 682.122 553.907, 683.542 551.087, 686.104 540.299 C 688.475 530.317, 689.878 527.193, 694.626 521.330 C 698.667 516.339, 701.072 510.912, 703.408 501.505 C 704.479 497.193, 707.009 491.440, 710.005 486.505 C 716.600 475.643, 717.552 471.509, 720.600 440.500 C 721.840 427.876, 722.300 412.515, 722.385 380.824 C 722.498 338.928, 722.462 338.096, 720.398 335.332 C 716.941 330.700, 713.320 330.305, 706.389 333.803 C 703.122 335.453, 698.436 337.340, 695.975 337.999 C 690.527 339.456, 689.420 340.314, 687.347 344.682 C 684.956 349.719, 681.037 351.324, 670 351.783 C 656.391 352.350, 652.991 350.400, 655.623 343.539 C 656.576 341.057, 662.739 338.384, 670.500 337.089 C 682.263 335.125, 683.413 334.523, 686.008 328.983 C 687.800 325.156, 689.286 323.556, 692.483 322.008 C 694.765 320.904, 697.952 319.997, 699.566 319.994 C 705.970 319.982, 709.523 318.196, 711.977 313.755 C 713.270 311.415, 715.616 307.845, 717.191 305.822 C 722.075 299.547, 722.427 297.236, 719.929 287.829 C 717.874 280.093, 717.282 279.068, 711.608 273.428 C 708.249 270.088, 704.209 265.658, 702.632 263.583 C 700.773 261.138, 697.606 258.829, 693.632 257.023 C 690.259 255.490, 685.925 252.564, 684 250.521 C 679.878 246.146, 678.942 245.740, 664.294 241.989 C 656.403 239.968, 651.079 237.907, 646.294 235.018 C 637.969 229.992, 633.286 228.593, 616 225.968 C 599.959 223.532, 597.706 222.967, 586.074 218.475 C 572.086 213.073, 567.623 212.570, 483 206.863 C 457.781 205.162, 389.491 204.959, 370.500 206.528 M 368.500 349.671 C 329.251 351.237, 310.619 353.438, 294.365 358.430 C 288.241 360.311, 277.441 362.787, 270.365 363.933 C 247.993 367.555, 245.725 368.144, 242.750 371.107 C 239.656 374.189, 239.251 377.486, 241.561 380.783 C 243.983 384.241, 247.609 385.649, 261.566 388.547 C 268.680 390.025, 278.550 392.804, 283.499 394.723 C 295.614 399.420, 301.365 400.462, 330 403.148 C 350.981 405.117, 360.246 405.439, 394.500 405.393 C 422.097 405.355, 440.547 404.838, 454 403.727 C 464.725 402.841, 477.775 401.837, 483 401.496 C 497.582 400.543, 505.800 399.067, 514 395.926 C 522.068 392.835, 529.846 391.003, 545.275 388.561 C 556.225 386.828, 559.641 385.103, 561.650 380.296 C 562.827 377.478, 562.819 376.502, 561.592 373.566 C 559.662 368.947, 556.784 367.679, 541.298 364.625 C 533.348 363.058, 524.115 360.417, 518.089 357.988 C 506.144 353.172, 495.746 351.558, 466.836 350.036 C 449.544 349.125, 387.918 348.896, 368.500 349.671 M 426.500 415.992 C 423.200 416.462, 417.125 417.546, 413 418.402 C 405.221 420.016, 404.709 420.379, 398.258 428.852 C 396.692 430.909, 394.530 432.153, 391.084 432.980 C 388.251 433.660, 385.864 434.873, 385.476 435.832 C 385.105 436.749, 383.924 441.775, 382.851 447 C 381.591 453.138, 379.486 459.287, 376.901 464.377 C 369.947 478.075, 368.874 485.034, 369.046 515.309 C 369.170 537.234, 368.936 542.101, 367.609 545.190 C 365.710 549.610, 366.425 550.661, 373.903 554.451 C 384.807 559.976, 388.196 560.371, 413.959 559.121 C 426.907 558.493, 442.786 557.746, 449.247 557.462 C 463.433 556.837, 483.313 553.231, 495.342 549.100 C 504.222 546.052, 514.164 544.232, 536.580 541.555 C 550.276 539.919, 553.788 538.691, 554.655 535.239 C 555.149 533.272, 554.419 532.046, 550.734 528.661 C 547.701 525.873, 545.844 523.150, 545.108 520.409 C 543.823 515.626, 541.903 513.703, 536.766 512.054 C 533.084 510.872, 529 506.900, 529 504.500 C 529 502.021, 524.789 498.017, 520.982 496.876 C 516.057 495.401, 513.624 492.809, 511.320 486.584 C 509.956 482.900, 508.372 480.882, 505 478.530 C 502.525 476.804, 499.738 473.890, 498.806 472.053 C 496.312 467.137, 493.585 464.339, 489.012 462.006 C 486.343 460.645, 483.874 458.200, 481.859 454.925 C 479.677 451.379, 477.411 449.229, 474.078 447.539 C 468.220 444.571, 467.583 443.785, 465.605 437.079 C 463.326 429.352, 462.077 427.852, 452.630 421.501 C 445.154 416.475, 443.525 415.788, 438.346 415.483 C 435.131 415.293, 429.800 415.523, 426.500 415.992 M 372.035 422.934 C 370.315 426.148, 370.858 428.861, 373.577 430.643 C 379.089 434.254, 384.189 428.990, 380.554 423.442 C 378.539 420.366, 373.568 420.070, 372.035 422.934 M 358.267 437.250 C 357.730 437.938, 356.139 441.055, 354.733 444.177 C 352.368 449.431, 351.788 449.991, 346.961 451.677 C 344.093 452.680, 341.015 454.557, 340.123 455.849 C 336.859 460.573, 331.651 466.093, 328.957 467.685 C 327.437 468.582, 325.148 471.549, 323.870 474.278 C 321.433 479.480, 311.384 490.049, 280.221 520.187 C 262.597 537.231, 262.236 537.843, 265.387 545.383 C 269.053 554.158, 279.678 556.586, 318.704 557.569 L 346.909 558.279 352.460 555.563 C 360.077 551.837, 360.708 550.314, 357.347 543.768 C 354.695 538.602, 354.646 538.171, 354.815 521.500 C 355.099 493.380, 356.146 473.732, 357.544 470.311 C 358.282 468.505, 360.632 465.995, 362.962 464.524 C 365.226 463.095, 367.515 460.774, 368.051 459.367 C 369.196 456.355, 366.840 439.718, 364.945 437.434 C 363.479 435.668, 359.589 435.560, 358.267 437.250 M 419.250 488.662 C 417.343 489.432, 417.753 492.647, 420.250 496.502 C 423.833 502.033, 427.411 500.806, 426.266 494.437 C 425.381 489.510, 422.673 487.281, 419.250 488.662 M 389.597 493.165 C 387.780 495.759, 387.500 501.197, 389.035 504.066 C 391.853 509.332, 397.364 503.394, 396.805 495.694 C 396.536 491.992, 396.189 491.464, 393.847 491.193 C 391.992 490.978, 390.713 491.572, 389.597 493.165" stroke="none" fill="#444" fill-rule="evenodd"/></svg>