<svg xmlns="http://www.w3.org/2000/svg" width="1000" height="1000" viewBox="0 0 1000 1000" version="1.1"><path d="M 431.500 206.627 C 428.750 206.839, 411.425 207.433, 393 207.946 C 364.721 208.734, 357.028 209.284, 343.638 211.473 C 334.914 212.899, 326.222 214.716, 324.322 215.510 C 317.893 218.196, 300.369 220.920, 279.388 222.495 C 244.392 225.121, 233.908 227.164, 222.906 233.500 C 214.131 238.554, 205.748 241.592, 197.971 242.537 C 184.048 244.230, 174.496 247.902, 168.150 254.003 C 163.965 258.026, 155.118 262.956, 152 263.003 C 149.688 263.037, 139.391 268.525, 136.706 271.153 C 130.700 277.032, 126.602 280.263, 120.295 284.091 C 111.796 289.250, 109.759 291.122, 105.768 297.442 C 104.012 300.224, 99.924 305.279, 96.684 308.675 C 84.514 321.432, 85.500 311.308, 85.500 423.500 C 85.500 533.250, 85.130 527.848, 93.388 538.789 C 98.388 545.413, 100.010 548.536, 105.562 562.241 C 107.570 567.199, 109.932 570.655, 114.493 575.305 C 118.566 579.460, 121.322 583.322, 122.525 586.564 C 124.537 591.983, 127.644 597.037, 129.760 598.333 C 133.590 600.680, 138.466 605.886, 141.018 610.355 C 142.592 613.111, 148.069 619.876, 153.190 625.388 C 169.711 643.174, 219.244 692.327, 228 699.624 C 232.675 703.520, 238.075 708.577, 240 710.863 C 241.925 713.148, 245.975 716.618, 249 718.574 C 252.025 720.530, 257.066 724.914, 260.202 728.315 C 263.969 732.401, 268.205 735.688, 272.682 738 C 277.875 740.681, 280.489 742.863, 283.858 747.325 C 287.399 752.016, 289.642 753.824, 295.378 756.611 C 299.792 758.756, 304.781 762.299, 308.500 765.931 C 314.952 772.232, 318.568 774.453, 324.045 775.481 C 331.442 776.868, 336.009 772.414, 337.838 762.027 C 339.243 754.051, 342.426 747.803, 347.640 742.785 C 352.646 737.967, 354.925 733.478, 357.936 722.500 C 360.255 714.047, 363.389 708.418, 369.070 702.500 C 371.181 700.300, 374.499 695.125, 376.443 691 C 380.454 682.486, 381.712 680.862, 388.003 676.084 C 390.695 674.039, 393.504 670.656, 395 667.656 C 400.888 655.855, 404.297 654.058, 421.210 653.845 C 433.037 653.696, 433.199 653.666, 425.500 653.047 C 417.720 652.422, 413 650.893, 413 649 C 413 648.488, 414.346 646.536, 415.992 644.662 C 419.927 640.180, 422.951 633.372, 422.978 628.932 C 423.007 624.242, 425.732 615.191, 428.130 611.821 C 429.178 610.347, 431.607 608.170, 433.527 606.983 C 438.399 603.972, 441.707 597.763, 443.514 588.242 C 445.691 576.762, 447.202 573.756, 452.894 569.578 C 458.584 565.401, 461.498 560.197, 463.052 551.435 C 464.842 541.343, 465.836 539.383, 471.701 534.372 C 478.443 528.613, 481.373 522.710, 483.020 511.568 C 485.437 495.212, 489.631 494.502, 504.500 507.932 C 513.928 516.448, 515.545 519.121, 517.523 529.454 C 519.560 540.103, 521.418 543.507, 527.745 548.181 C 534.042 552.833, 535.290 555.322, 537.406 567.441 C 539.383 578.769, 542.035 582.871, 550.053 587.007 C 554.612 589.358, 555.777 592.063, 557.489 604.263 C 559.122 615.899, 561.578 620.498, 568.106 624.144 C 575.112 628.058, 576.500 630.788, 576.500 640.657 C 576.500 648.743, 576.360 649.290, 573.694 651.584 L 570.888 654 580.194 654.022 C 590.856 654.047, 596.435 655.940, 599.679 660.633 C 600.769 662.210, 603.093 668.078, 604.842 673.673 C 607.260 681.404, 609.054 685.124, 612.315 689.173 C 619.022 697.497, 620.710 700.857, 623.415 711.271 C 626.714 723.966, 627.971 726.261, 635.868 734 C 641.140 739.167, 642.998 741.832, 644.928 746.998 C 646.503 751.213, 648.990 755.253, 652.009 758.498 C 654.569 761.249, 658.344 766.308, 660.398 769.740 C 664.749 777.010, 667.191 779, 671.762 779 C 676.862 779, 682.528 775.543, 690.877 767.339 C 696.416 761.895, 700.431 758.953, 705.565 756.575 C 711.389 753.876, 713.412 752.265, 717.085 747.401 C 720.513 742.859, 723.101 740.694, 728.318 738 C 732.783 735.694, 737.042 732.393, 740.798 728.326 C 743.934 724.930, 749.015 720.594, 752.088 718.692 C 755.161 716.789, 759.389 713.141, 761.484 710.585 C 763.578 708.029, 768.938 702.929, 773.396 699.252 C 781.722 692.382, 831.200 643.270, 847.810 625.388 C 852.931 619.876, 858.408 613.111, 859.982 610.355 C 862.534 605.886, 867.410 600.680, 871.240 598.333 C 873.348 597.042, 876.460 591.990, 878.448 586.634 C 879.572 583.606, 882.605 579.263, 886.479 575.134 C 890.657 570.683, 893.609 566.361, 895.451 562 C 896.961 558.425, 899.165 553.257, 900.349 550.516 C 901.532 547.774, 904.693 542.655, 907.373 539.141 C 915.892 527.970, 915.380 534.836, 915.747 427 C 916.113 319.584, 916.657 327.480, 908.418 320.593 C 905.997 318.569, 902.209 314.253, 900 311 C 897.791 307.747, 893.903 303.379, 891.359 301.293 C 886.577 297.371, 885.120 295.978, 878.721 289.206 C 876.642 287.006, 872.435 284.019, 869.371 282.569 C 866.073 281.007, 861.495 277.541, 858.150 274.073 C 851.879 267.571, 849.253 265.994, 840.487 263.469 C 832.231 261.090, 826.230 257.910, 820.062 252.646 C 814.828 248.178, 807.026 245.271, 795.500 243.496 C 781.795 241.384, 772.551 238.369, 763.133 232.940 C 753.207 227.217, 735.311 224.145, 702.500 222.531 C 687.994 221.818, 666.645 218.939, 654.500 216.058 C 650.100 215.014, 642.900 213.666, 638.500 213.061 C 634.100 212.457, 628.025 211.256, 625 210.392 C 621.167 209.298, 611.773 208.548, 594 207.918 C 567.268 206.971, 440.127 205.960, 431.500 206.627 M 449.194 220.055 C 429.775 220.453, 411.100 221.071, 407.694 221.427 C 404.287 221.783, 383.950 222.492, 362.500 223.003 C 301.825 224.446, 282.495 226.412, 268.768 232.534 C 252.740 239.684, 252.776 239.675, 219.047 244.518 C 205.063 246.526, 199.868 248.420, 192.323 254.260 C 184.702 260.160, 183.717 260.618, 173.502 263 C 162.094 265.659, 155.025 269.112, 150.407 274.281 C 145.457 279.819, 142.620 281.661, 136.110 283.563 C 128.842 285.686, 126.402 287.454, 123.233 292.892 C 120.270 297.976, 118.009 300.239, 113.500 302.635 C 105.167 307.062, 102.410 313.550, 103.167 326.952 C 103.541 333.576, 103.857 334.483, 106.655 336.983 C 108.347 338.495, 111.930 340.496, 114.616 341.429 C 122.573 344.194, 126.368 346.538, 128.688 350.121 C 133.601 357.710, 133.759 357.799, 144.344 358.888 C 159.935 360.493, 163.192 363.057, 165.447 375.500 L 166.535 381.500 170.517 381.308 C 190.167 380.359, 193.515 380.508, 197.435 382.500 C 202.460 385.053, 205.163 388.776, 205.292 393.320 C 205.468 399.540, 203.137 401, 193.027 401 C 176.961 401, 168.017 396.257, 166.624 387 L 165.948 382.500 156.578 382.275 C 140.604 381.891, 133.801 378.116, 129.467 367.231 C 128.533 364.883, 126.634 362.071, 125.249 360.981 C 119.753 356.658, 106.214 360.020, 103.023 366.500 C 101.826 368.931, 101.610 373.485, 101.884 390.500 C 102.070 402.050, 102.543 438.500, 102.935 471.500 L 103.648 531.500 106.367 539.748 C 108.778 547.064, 109.800 548.702, 115.410 554.248 C 120.648 559.426, 122.027 561.512, 123.436 566.390 C 125.653 574.067, 127.046 576.204, 134.926 584.024 C 139.685 588.746, 142.565 592.751, 145.357 598.524 C 148.973 606, 154.259 613, 156.288 613 C 158.691 613, 162.845 617.840, 166 624.316 C 169.262 631.010, 169.942 631.739, 175.991 635.009 C 181.732 638.114, 182.887 639.266, 186 645 C 189.099 650.708, 190.287 651.900, 195.958 654.991 C 201.762 658.154, 202.748 659.171, 205.949 665.301 C 209.096 671.328, 210.183 672.473, 215.500 675.360 C 220.270 677.951, 222.375 679.938, 225.770 685.059 C 229.081 690.053, 231.447 692.325, 236.306 695.173 C 240.077 697.383, 245.075 701.663, 248.861 705.923 C 252.321 709.815, 255.559 713, 256.056 713 C 258.299 713, 269.138 721.009, 275.596 727.437 C 279.498 731.321, 284.898 735.583, 287.596 736.906 C 295.327 740.700, 297.962 742.901, 301.624 748.627 C 305.600 754.842, 309.287 757.075, 315.813 757.221 C 327.725 757.486, 331.743 753.662, 335.895 738.109 C 339.242 725.568, 341.582 721.307, 347.326 717.295 C 352.184 713.902, 354.204 709.851, 356.946 698 C 359.621 686.438, 362.604 681.057, 368.635 676.907 C 374.446 672.909, 376.709 667.931, 377.606 657.171 C 378.411 647.519, 381.123 642.360, 386.867 639.554 C 388.865 638.578, 391.175 637.444, 392 637.034 C 395.088 635.500, 396.987 630.273, 397.997 620.525 C 399.289 608.066, 401.573 603.561, 408.498 599.814 C 414.250 596.701, 416.566 593.047, 417.463 585.670 C 418.615 576.198, 420.164 571.074, 423.102 567.018 C 424.703 564.808, 426.650 563, 427.430 563 C 429.126 563, 434.667 558.491, 435.975 556.046 C 436.487 555.090, 437.403 550.308, 438.010 545.419 C 438.618 540.529, 439.932 534.681, 440.932 532.421 C 442.826 528.139, 447.603 523, 449.689 523 C 452.103 523, 455.810 516.357, 457.428 509.130 C 458.336 505.076, 461.334 497.014, 464.090 491.214 C 469.804 479.190, 470.224 474.936, 466 471.905 C 462.290 469.242, 421.950 464.876, 388 463.463 C 361.003 462.339, 349.846 459.966, 338.701 452.978 C 331.232 448.295, 325.163 446.914, 299.500 444.056 C 274.645 441.288, 267.396 438.802, 264.880 432.185 C 263.143 427.616, 265.391 424.455, 272.343 421.689 C 275.729 420.342, 280.075 418.924, 282 418.536 C 293.004 416.324, 305.915 411.637, 312.766 407.366 C 323.745 400.524, 329.191 399.182, 352.907 397.477 C 376.839 395.757, 387.416 393.736, 402.492 388.003 C 424.777 379.529, 441.849 378.020, 515.500 378.018 C 583.496 378.016, 594.058 379.108, 612.500 388.051 C 624.314 393.780, 626.222 394.314, 644.461 396.994 C 660.107 399.293, 665.557 401.342, 674 408.099 C 677.025 410.519, 681.300 413.332, 683.500 414.350 C 687.168 416.045, 701.202 419.983, 716.736 423.675 C 720.166 424.490, 723.892 425.909, 725.017 426.828 C 726.911 428.376, 726.946 428.664, 725.496 430.719 C 724.635 431.939, 721.809 433.900, 719.215 435.077 C 713.399 437.716, 695.560 443, 692.467 443 C 691.216 443, 683.736 444.152, 675.846 445.561 C 663.750 447.720, 659.932 448.873, 651.500 452.912 C 633.736 461.422, 631.946 461.811, 605.062 463.009 C 593.753 463.514, 581.125 464.395, 577 464.969 C 572.875 465.542, 560.500 466.150, 549.500 466.320 C 521.442 466.752, 519.976 467.757, 522.526 484.825 C 524.261 496.438, 525.825 499.371, 531.935 502.467 C 538.204 505.644, 540.884 509.487, 542.058 516.986 C 542.576 520.294, 543.437 525.813, 543.971 529.250 C 545.011 535.947, 546.081 537.312, 554.982 543.288 C 560.145 546.756, 561.679 550.335, 563.001 562.012 C 563.572 567.052, 564.691 572.435, 565.486 573.973 C 566.282 575.512, 569.413 578.171, 572.444 579.882 C 579.477 583.850, 581.575 587.843, 583.064 600.085 C 583.685 605.197, 584.557 610.307, 585.001 611.440 C 586.013 614.023, 589.731 618, 591.135 618 C 593.346 618, 598.124 622.323, 600.020 626.039 C 601.106 628.168, 602.441 633.059, 602.987 636.909 C 604.451 647.228, 606.435 651.274, 612.625 656.563 C 618.946 661.963, 621.125 665.831, 623.291 675.500 C 625.608 685.840, 628.444 691.411, 633.501 695.555 C 638.242 699.439, 642.246 706.661, 643.453 713.500 C 644.643 720.250, 647.808 726.118, 653.448 732.031 C 659.088 737.944, 660.844 741.190, 662.897 749.500 C 663.576 752.250, 665.246 756.413, 666.608 758.750 C 668.758 762.441, 669.535 763, 672.509 763 C 676.024 763, 697 753.674, 697 752.110 C 697 749.733, 705.689 741.845, 711.555 738.897 C 715.779 736.775, 721.061 732.745, 726.423 727.553 C 730.997 723.124, 737.385 717.732, 740.619 715.571 C 743.854 713.410, 749.450 708.784, 753.055 705.291 C 756.660 701.799, 761.852 697.717, 764.593 696.220 C 772.017 692.168, 772.411 691.836, 774.967 687.500 C 778.518 681.473, 780.931 679.154, 787.041 675.897 C 791.548 673.495, 793.349 671.716, 796.521 666.529 C 799.493 661.669, 801.874 659.211, 806.404 656.324 C 810.802 653.523, 813.392 650.895, 816.250 646.337 C 819.097 641.796, 821.774 639.075, 826.314 636.106 C 831.301 632.845, 833.246 630.747, 836.348 625.281 C 838.882 620.815, 842.147 616.904, 845.909 613.828 C 850.109 610.392, 852.529 607.347, 855.047 602.328 C 859.758 592.937, 862.669 588.995, 868.166 584.567 C 872.721 580.897, 875.460 576.470, 879.652 566 C 880.643 563.525, 883.766 559.025, 886.591 556 C 892.300 549.888, 893.031 548.694, 895.470 541.500 C 900.002 528.129, 900.200 524.365, 900.520 445.500 C 900.730 393.728, 900.488 369.324, 899.739 366.702 C 898.397 362.001, 893.235 357.322, 888.388 356.413 C 886.378 356.036, 881.664 356.276, 877.914 356.946 C 868.783 358.578, 867 357.934, 867 353.005 C 867 347.406, 869.975 345.423, 879.734 344.518 C 884.005 344.122, 888.677 343.107, 890.114 342.263 C 895.997 338.811, 897.472 331.073, 894.455 319.489 C 892.665 312.618, 891.497 311.117, 883.926 305.960 C 878.745 302.432, 876.012 299.667, 870.231 292.105 C 868.782 290.211, 863.826 287.126, 856.531 283.579 C 847.967 279.414, 843.907 276.771, 840.336 273.033 C 834.887 267.329, 831.509 265.743, 820.276 263.612 C 809.049 261.482, 803.068 258.980, 796.588 253.701 C 789.107 247.607, 779.841 244.874, 760.426 243.036 C 747.837 241.844, 735.335 238.846, 719 233.102 C 710.446 230.094, 704.298 228.676, 695 227.567 C 679.475 225.715, 634.424 223.331, 589 221.957 C 570.025 221.383, 543.372 220.483, 529.772 219.957 C 503.486 218.940, 503.521 218.940, 449.194 220.055 M 842.121 361.127 C 830.424 363.070, 826.277 366.611, 824.605 376.083 C 823.867 380.260, 822.946 379.978, 837.805 380.126 C 843.473 380.183, 850.122 379.666, 852.582 378.977 C 857.217 377.679, 861.989 373.225, 862.014 370.173 C 862.021 369.253, 862.288 367.529, 862.606 366.342 C 862.989 364.914, 862.478 363.478, 861.092 362.092 C 858.772 359.772, 852.273 359.441, 842.121 361.127 M 802.134 382.158 C 794.620 383.233, 790.642 385.091, 788.344 388.598 C 785.654 392.703, 787.467 396.221, 793.018 397.670 C 799.408 399.337, 811.397 399.279, 815.510 397.560 C 819.955 395.703, 822.991 390.709, 822.996 385.250 L 823 381 815.750 381.123 C 811.763 381.191, 805.635 381.657, 802.134 382.158 M 502.500 387.034 C 500.300 387.477, 493.325 388.351, 487 388.977 C 480.675 389.603, 470.325 390.761, 464 391.550 C 443.453 394.114, 424.904 395.952, 404 397.496 C 373.715 399.733, 367.430 401.009, 352.706 407.905 C 347.689 410.255, 338.456 413.354, 331.206 415.121 C 316.244 418.769, 309.411 422.070, 307.191 426.727 C 305.767 429.713, 305.774 430.304, 307.279 433.459 C 310.140 439.458, 318.508 442.272, 338.500 443.958 C 359.337 445.715, 374.978 448.018, 382.500 450.437 C 396.330 454.884, 404.693 456.979, 416.500 458.952 C 449.788 464.515, 541.305 464.318, 576 458.607 C 580.675 457.838, 590.575 455.329, 598 453.031 C 614.602 447.895, 621.686 446.604, 644.558 444.549 C 671.260 442.149, 676.260 440.615, 679.011 433.974 C 680.725 429.835, 679 424.115, 675.186 421.295 C 672.746 419.491, 662.176 415.187, 655.500 413.278 C 654.400 412.964, 650.617 410.713, 647.092 408.277 C 635.954 400.576, 633.514 399.962, 598 395.934 C 560.367 391.666, 546.441 389.957, 545.028 389.435 C 544.218 389.137, 538.622 388.241, 532.591 387.446 C 520.839 385.896, 508.969 385.734, 502.500 387.034 M 216.417 402.018 C 209.276 404.225, 210.479 413.323, 218.449 417.389 C 226.098 421.290, 250.417 420.441, 253.674 416.159 C 256.875 411.952, 254.126 406.102, 247.691 403.428 C 242.832 401.409, 221.499 400.447, 216.417 402.018 M 750.914 402.923 C 745.651 403.649, 741.771 405.894, 739.323 409.629 C 737.805 411.947, 737.777 412.513, 739.075 414.824 C 740.933 418.135, 743.429 418.788, 754.500 418.857 C 771.224 418.961, 777.264 416.462, 777.804 409.214 C 778.046 405.975, 777.698 404.909, 776.129 404.069 C 773.738 402.789, 757.299 402.043, 750.914 402.923 M 486.069 582.752 C 481.325 585.169, 478.790 590.588, 478.216 599.541 L 477.746 606.853 482.651 611.371 C 486.197 614.637, 487.885 617.121, 488.746 620.341 C 490.779 627.940, 491.354 628.110, 502.643 624.439 C 513.969 620.757, 517.332 618.191, 519.015 611.950 C 520.924 604.865, 518.821 591.585, 515.025 586.759 C 511.108 581.780, 492.917 579.262, 486.069 582.752 M 451.250 653.746 C 457.163 653.923, 466.837 653.923, 472.750 653.746 C 478.663 653.569, 473.825 653.425, 462 653.425 C 450.175 653.425, 445.337 653.569, 451.250 653.746 M 525.250 653.746 C 530.612 653.925, 539.388 653.925, 544.750 653.746 C 550.112 653.566, 545.725 653.419, 535 653.419 C 524.275 653.419, 519.888 653.566, 525.250 653.746" stroke="none" fill="#444" fill-rule="evenodd"/></svg>