<svg xmlns="http://www.w3.org/2000/svg" width="50" height="50" viewBox="0 0 50 50" version="1.1">
	<path d="M 15.750 11.662 C 16.438 11.940, 17.563 11.940, 18.250 11.662 C 18.938 11.385, 18.375 11.158, 17 11.158 C 15.625 11.158, 15.063 11.385, 15.750 11.662 M 30.813 11.683 C 31.534 11.972, 32.397 11.936, 32.729 11.604 C 33.061 11.272, 32.471 11.036, 31.417 11.079 C 30.252 11.127, 30.015 11.364, 30.813 11.683 M 4.320 22 C 4.320 25.575, 4.502 27.038, 4.723 25.250 C 4.945 23.462, 4.945 20.538, 4.723 18.750 C 4.502 16.962, 4.320 18.425, 4.320 22 M 45.195 25.500 C 45.215 27.150, 45.439 27.704, 45.693 26.731 C 45.947 25.758, 45.930 24.408, 45.656 23.731 C 45.382 23.054, 45.175 23.850, 45.195 25.500 M 22.592 26.500 C 21.691 27.875, 21.108 29, 21.297 29 C 21.485 29, 22.618 27.875, 23.813 26.500 C 25.009 25.125, 25.592 24, 25.108 24 C 24.625 24, 23.493 25.125, 22.592 26.500 M 29 30.500 C 30.703 32.975, 32.321 35, 32.596 35 C 32.871 35, 31.703 32.975, 30 30.500 C 28.297 28.025, 26.679 26, 26.404 26 C 26.129 26, 27.297 28.025, 29 30.500 M 17.997 33.250 C 16.525 35.261, 16.283 35.960, 17.363 35.082 C 19.003 33.751, 21.483 30, 20.723 30 C 20.532 30, 19.305 31.462, 17.997 33.250 M 33 36.378 C 33 36.585, 33.788 37.373, 34.750 38.128 C 36.336 39.371, 36.371 39.336, 35.128 37.750 C 33.821 36.084, 33 35.555, 33 36.378" stroke="none" fill="#555555" fill-rule="evenodd"/>
</svg>