<svg xmlns="http://www.w3.org/2000/svg" width="800" height="800" viewBox="0 0 800 800" version="1.1"><path d="M 259 159.079 C 254.325 159.524, 240.375 160.595, 228 161.459 C 202.337 163.250, 190.503 165.378, 180.500 170.001 C 170.843 174.465, 166.901 175.790, 156.500 178.071 C 144.636 180.672, 142.675 181.488, 135 187.014 C 131.425 189.588, 125.376 192.776, 121.559 194.097 C 116.805 195.743, 113.023 197.937, 109.559 201.060 C 104.853 205.301, 100.901 208.200, 91.910 214.002 C 89.935 215.277, 87.235 217.909, 85.910 219.853 C 84.584 221.796, 80.703 227.143, 77.285 231.736 C 73.867 236.329, 70.607 241.755, 70.041 243.793 C 68.609 248.950, 68.625 391.155, 70.059 397.839 C 70.694 400.799, 72.884 405.285, 75.528 409.039 C 77.953 412.483, 80.925 418.269, 82.132 421.896 C 83.786 426.866, 85.617 429.847, 89.565 433.995 C 92.795 437.390, 96.388 442.758, 98.940 448 C 101.867 454.014, 104.402 457.637, 107.607 460.386 C 110.098 462.524, 113.488 466.667, 115.140 469.594 C 116.987 472.866, 120.039 476.277, 123.066 478.452 C 125.774 480.398, 129.263 484.035, 130.820 486.536 C 132.385 489.050, 135.848 492.521, 138.566 494.300 C 141.270 496.069, 144.931 499.730, 146.700 502.434 C 148.479 505.152, 151.950 508.615, 154.464 510.180 C 156.965 511.737, 160.643 515.282, 162.638 518.059 C 164.633 520.836, 168.622 524.616, 171.502 526.458 C 174.382 528.301, 178.035 531.736, 179.619 534.091 C 181.332 536.637, 184.736 539.680, 188.013 541.593 C 191.189 543.448, 194.912 546.742, 196.795 549.365 C 198.925 552.330, 202.098 555.001, 205.896 557.025 C 209.103 558.735, 214.693 562.766, 218.318 565.984 C 221.943 569.201, 227.648 573.294, 230.997 575.079 C 234.625 577.013, 238.754 580.317, 241.215 583.256 C 243.795 586.338, 247.356 589.141, 250.703 590.726 C 253.651 592.122, 257.736 595.154, 259.781 597.464 C 262.018 599.992, 266.735 603.343, 271.620 605.876 C 276.086 608.193, 282.105 612.296, 284.995 614.995 C 287.885 617.694, 293.326 621.346, 297.085 623.110 C 301.564 625.211, 305.021 627.686, 307.113 630.291 C 311.053 635.192, 321.174 640.024, 328.987 640.733 C 339.417 641.678, 345.298 636.916, 346.481 626.566 C 347.468 617.935, 350.052 575.578, 350.969 553 C 352.101 525.148, 353.877 506.220, 355.693 502.662 C 357.893 498.354, 364.207 496.088, 377.216 494.941 C 400.386 492.897, 405.041 491.603, 414.882 484.472 C 419.370 481.220, 424.075 480.012, 432.282 480.006 C 440.073 479.999, 445.282 481.811, 447.115 485.165 C 447.970 486.730, 448.806 497.064, 449.651 516.500 C 452.134 573.625, 455.987 619.514, 459.181 630 C 460.791 635.285, 464.558 639.699, 468.595 641.031 C 471.778 642.082, 473.248 641.892, 480.856 639.448 C 488.375 637.032, 490.208 635.961, 494.939 631.209 C 498.268 627.866, 502.729 624.684, 506.439 623.008 C 509.772 621.501, 515.738 617.545, 519.695 614.215 C 523.652 610.886, 529.544 606.971, 532.788 605.514 C 536.647 603.783, 539.975 601.327, 542.409 598.415 C 544.534 595.873, 548.570 592.731, 551.815 591.092 C 554.942 589.514, 559.556 585.989, 562.069 583.261 C 564.765 580.333, 569.577 576.755, 573.807 574.532 C 577.750 572.460, 583.090 568.586, 585.673 565.923 C 588.256 563.260, 593.018 559.670, 596.256 557.944 C 600.185 555.850, 603.271 553.236, 605.538 550.081 C 607.587 547.227, 610.937 544.263, 613.991 542.601 C 617.189 540.861, 620.521 537.856, 623.051 534.431 C 625.307 531.377, 628.775 528.135, 631 527 C 633.248 525.853, 636.704 522.608, 639.029 519.460 C 641.275 516.421, 645.130 512.678, 647.597 511.142 C 650.064 509.607, 653.638 506.041, 655.538 503.219 C 657.542 500.244, 660.869 496.989, 663.454 495.474 C 666.199 493.865, 669.064 490.991, 670.905 488 C 672.549 485.328, 676.393 481.295, 679.446 479.040 C 683.186 476.277, 685.824 473.307, 687.533 469.936 C 689.078 466.886, 691.630 463.872, 694.069 462.216 C 696.883 460.306, 699.130 457.424, 701.644 452.500 C 703.610 448.650, 707.350 443.025, 709.957 440 C 715.151 433.971, 716.950 430.882, 719.977 422.791 C 721.162 419.625, 723.645 415.800, 726.024 413.477 C 733.662 406.018, 733.408 408.914, 733.778 325 C 733.959 284.025, 733.836 249.032, 733.506 247.237 C 732.369 241.067, 706.687 214.337, 696.750 208.981 C 693.587 207.277, 689.618 204.163, 687.929 202.061 C 684.800 198.168, 681.601 196.419, 672.235 193.481 C 669.340 192.573, 664.840 190.303, 662.235 188.437 C 654.478 182.880, 648.111 180.282, 636.648 177.996 C 629.645 176.600, 622.373 174.296, 616.148 171.499 C 602.073 165.177, 591.671 163.297, 560.852 161.503 C 546.358 160.660, 529.775 159.527, 524 158.986 C 511.371 157.802, 271.526 157.887, 259 159.079 M 286 161.989 C 241.563 163.265, 223.856 165.312, 211.784 170.568 C 202.089 174.789, 195.506 176.477, 181 178.460 C 165.456 180.586, 160.040 182.301, 152.435 187.508 C 148.883 189.940, 144.070 192.420, 141.739 193.019 C 129.183 196.248, 125.178 198.130, 119.655 203.394 C 115.804 207.066, 112.216 209.382, 108.004 210.918 C 102.815 212.810, 101.490 213.827, 99.012 217.819 C 97.326 220.536, 93.891 223.975, 90.825 226.016 C 83.762 230.718, 82.758 232.834, 83.478 241.500 C 84.241 250.692, 85.571 255.390, 88.312 258.577 L 90.556 261.185 96.182 259.549 C 104.814 257.040, 108.441 258.586, 109.985 265.436 C 111.632 272.738, 107.287 273.676, 96.051 268.445 C 90.682 265.945, 90.563 265.935, 88.051 267.768 C 86.648 268.792, 84.655 271.331, 83.621 273.412 C 81.841 276.996, 81.752 280.250, 81.922 335.347 C 82.141 406.194, 82.622 410.915, 90.378 418.447 C 95.104 423.037, 96.786 425.822, 99.861 434.154 C 102.116 440.263, 103.189 441.808, 107.007 444.448 C 110.307 446.730, 112.315 449.236, 114.569 453.890 C 116.820 458.536, 118.910 461.148, 122.408 463.687 C 125.032 465.591, 127.926 468.510, 128.839 470.173 C 131.646 475.284, 134.088 478.031, 138.047 480.530 C 140.136 481.848, 143.460 485.361, 145.435 488.336 C 147.410 491.312, 150.823 494.992, 153.021 496.514 C 155.218 498.037, 158.562 501.435, 160.451 504.065 C 162.341 506.695, 166.050 510.275, 168.694 512.020 C 171.337 513.765, 174.970 517.165, 176.766 519.576 C 178.563 521.987, 182.479 525.524, 185.468 527.437 C 188.458 529.349, 191.558 532.171, 192.357 533.707 C 194.274 537.392, 197.556 540.300, 202.723 542.894 C 205.253 544.163, 208.528 547.153, 210.887 550.347 C 213.707 554.165, 216.410 556.455, 220.395 558.405 C 223.982 560.160, 226.948 562.540, 228.732 565.095 C 230.652 567.846, 233.847 570.296, 239.164 573.097 C 243.379 575.317, 249.229 579.495, 252.164 582.382 C 255.099 585.269, 260.650 589.308, 264.500 591.357 C 269.204 593.860, 272.539 596.495, 274.666 599.388 C 277.147 602.762, 279.180 604.197, 284.058 606.022 C 287.913 607.463, 292.419 610.241, 295.892 613.316 C 298.976 616.047, 304.650 619.755, 308.500 621.557 C 315.474 624.821, 318.068 626.985, 321.368 632.296 C 324.908 637.991, 331.720 638.376, 334.482 633.035 C 335.556 630.957, 336 627.033, 336 619.604 C 336 603.870, 337.757 585.528, 341.136 566 C 346.499 535.009, 346.931 531.764, 347.937 515 C 348.554 504.713, 349.908 493.793, 351.533 486 C 352.965 479.125, 354.597 468.100, 355.158 461.500 C 355.719 454.900, 356.399 447.002, 356.668 443.948 C 356.956 440.684, 356.544 435.946, 355.668 432.448 C 354.531 427.907, 354.240 421.414, 354.437 405 C 354.715 381.779, 355.501 376.831, 359.815 371.176 C 363.390 366.489, 363.463 360.614, 359.977 357.977 C 356.954 355.690, 348.367 354.296, 332.500 353.515 C 314.063 352.608, 305.749 351.214, 293.635 346.997 C 276.981 341.199, 271.074 339.954, 255.556 338.970 C 234.443 337.632, 224 333.671, 224 327 C 224 324.066, 226.725 321.132, 231.864 318.532 C 233.715 317.596, 237.134 315.074, 239.463 312.927 C 246.575 306.371, 250.774 305.158, 279.151 301.455 C 297.092 299.113, 301.133 298.128, 319.500 291.611 C 326.670 289.067, 336.826 288, 368.500 286.463 C 408.517 284.521, 468.312 285.829, 485.500 289.022 C 488.800 289.635, 495.550 292.093, 500.500 294.484 C 510.476 299.303, 513.655 300.288, 526.410 302.512 C 536.753 304.316, 541.484 306.557, 545.330 311.476 C 547.249 313.929, 550.890 316.392, 556.635 319.121 C 565.936 323.540, 568.164 326.150, 566.240 330.372 C 564.232 334.780, 557.647 336.902, 540.900 338.536 C 520.671 340.509, 513.376 342.059, 501.194 346.970 C 492.701 350.394, 489.269 351.211, 479.789 352.063 C 452.079 354.552, 447.584 355.654, 444.229 360.774 C 442.708 363.095, 442.753 363.656, 444.955 369.794 C 447.182 376.005, 447.270 377.187, 446.668 392.920 C 446.091 408.010, 442.453 436.794, 439.959 446 C 438.216 452.435, 438.732 454.612, 442.841 458.172 C 450.287 464.623, 450.961 466.836, 453.509 493.219 C 455.106 509.763, 456.596 520.160, 460.067 539 C 462.978 554.799, 464.921 578.381, 465.576 605.850 C 465.899 619.408, 466.607 631.679, 467.149 633.120 C 469.641 639.741, 476.728 638.576, 482.776 630.552 C 485.902 626.405, 487.843 625.027, 494.762 622.045 C 500.820 619.434, 504.303 617.158, 507.845 613.494 C 511.253 609.967, 514.471 607.819, 518.799 606.183 C 523.460 604.420, 525.888 602.717, 528.944 599.066 C 531.530 595.978, 535.466 592.952, 539.985 590.577 C 543.848 588.547, 549.594 584.497, 552.754 581.577 C 555.914 578.657, 561.225 574.895, 564.556 573.217 C 568.552 571.204, 571.550 568.814, 573.369 566.189 C 575.085 563.712, 578.352 561.025, 582.029 559.065 C 585.396 557.270, 589.537 553.961, 591.667 551.362 C 593.720 548.856, 597.712 545.326, 600.538 543.519 C 603.364 541.711, 607.369 538.166, 609.439 535.640 C 611.509 533.114, 615.519 529.623, 618.351 527.883 C 624.291 524.233, 661.277 488.071, 670.298 477.094 C 673.645 473.020, 678.331 467.893, 680.710 465.699 C 683.090 463.506, 686.392 459.189, 688.048 456.106 C 689.858 452.737, 692.695 449.340, 695.158 447.593 C 698.278 445.380, 700.082 442.876, 702.709 437.110 C 704.613 432.933, 708.150 427.408, 710.595 424.795 C 715.823 419.206, 716.320 418.058, 720.074 402.910 L 722.946 391.320 722.656 332.910 C 722.436 288.632, 722.064 273.943, 721.119 272.196 C 719.718 269.607, 714.347 266.009, 711.874 266.004 C 710.980 266.002, 707.705 267.125, 704.596 268.500 C 698.443 271.221, 694.079 271.679, 692.200 269.800 C 688.812 266.412, 693.339 259, 698.796 259 C 700.383 259, 703.691 259.605, 706.147 260.344 C 715.114 263.042, 718.474 258.642, 717.805 245.079 C 717.271 234.271, 715.868 231.425, 709.126 227.477 C 706.032 225.666, 702.283 222.307, 700.291 219.561 C 697.455 215.654, 695.316 214.093, 688.455 210.923 C 683.492 208.630, 677.836 205.021, 674.570 202.064 C 670.457 198.339, 667.594 196.678, 663.280 195.516 C 649.665 191.847, 646.252 190.558, 640.452 186.896 C 631.923 181.509, 628.089 180.359, 610.712 177.975 C 599.470 176.433, 592.107 174.756, 582.500 171.550 C 568.826 166.988, 563.558 166.101, 534 163.387 C 519.568 162.062, 498.616 161.732, 414.500 161.504 C 358.400 161.353, 300.575 161.571, 286 161.989 M 112.527 274.915 C 111.744 277.383, 112.856 282.025, 114.755 284.212 C 115.573 285.154, 117.780 286.432, 119.660 287.053 C 123.963 288.473, 132.008 286.753, 134.634 283.852 C 136.267 282.048, 136.295 281.614, 134.944 279.182 C 133.101 275.866, 125.623 273.105, 118.317 273.044 C 114.067 273.008, 113.025 273.345, 112.527 274.915 M 665.329 276.438 C 660.804 278.435, 659.310 281.581, 661.657 284.174 C 663.263 285.948, 664.482 286.142, 672.133 285.841 C 682.298 285.441, 685.303 283.711, 684.799 278.551 L 684.500 275.500 676.500 275.269 C 671.353 275.121, 667.369 275.538, 665.329 276.438 M 145.440 292.451 C 143.481 295.441, 144.223 298.243, 147.694 300.974 C 149.717 302.565, 151.754 303, 157.185 303 C 166.018 303, 170.256 301.051, 169.811 297.193 C 169.336 293.079, 162.486 290, 153.811 290 C 147.735 290, 146.883 290.249, 145.440 292.451 M 387.500 291.148 C 380.900 291.658, 371.517 292.991, 366.650 294.111 C 349.026 298.168, 338.179 299.911, 321 301.448 C 296.736 303.618, 281.577 305.789, 276.070 307.881 C 270.140 310.135, 260.063 316.948, 256.634 321.023 C 251.414 327.227, 254.060 332.825, 263.481 335.507 C 266.241 336.293, 277.725 337.638, 289 338.496 C 311.224 340.187, 316.064 340.814, 335 344.450 C 341.875 345.770, 350.350 347.136, 353.832 347.484 C 362.737 348.375, 364.809 349.545, 366.109 354.415 C 368.869 364.752, 370.153 367.166, 373.674 368.637 C 375.798 369.525, 378.417 369.825, 380.548 369.425 C 385.053 368.580, 392.705 363.463, 394.446 360.133 C 398.314 352.729, 404.982 350, 419.199 350 C 423.009 350, 435.435 348.395, 446.813 346.433 C 458.191 344.471, 471.325 342.222, 476 341.435 C 480.675 340.648, 493.275 339.316, 504 338.476 C 533.310 336.179, 540 334.130, 540 327.450 C 540 324.583, 538.954 322.797, 534.250 317.628 C 523.852 306.205, 519.427 304.467, 493.121 301.473 C 478.122 299.766, 473.984 298.954, 462.500 295.460 C 458.100 294.121, 450 292.524, 444.500 291.910 C 430.978 290.401, 402.175 290.016, 387.500 291.148 M 633.753 290.899 C 627.135 292.286, 623.674 297.824, 627.461 300.967 C 631.559 304.369, 646.969 302.764, 650.667 298.551 C 653.030 295.859, 652.824 292.530, 650.234 291.536 C 647.458 290.471, 637.613 290.090, 633.753 290.899 M 182.693 308.181 C 178.546 309.693, 179.274 313.900, 184.091 316.256 C 187.847 318.094, 200.534 318.918, 204.699 317.596 C 209.022 316.223, 208.852 310.165, 204.434 308.152 C 201.354 306.748, 186.568 306.768, 182.693 308.181 M 591 308.752 C 586.600 310.950, 585.894 314.229, 589.335 316.484 C 592.963 318.861, 605.006 318.710, 609.804 316.228 C 614.956 313.563, 615.279 310.432, 610.604 308.479 C 605.696 306.428, 595.363 306.572, 591 308.752 M 418 358.351 C 416.075 359.046, 412.167 361.297, 409.316 363.354 C 406.464 365.411, 400.622 368.273, 396.332 369.715 C 389.695 371.947, 387.618 373.243, 382.387 378.419 C 379.007 381.763, 374.640 385.758, 372.682 387.295 C 367.852 391.088, 366.520 397.522, 367.363 413 C 368.084 426.245, 369.232 431.222, 372.598 435.683 C 375.679 439.767, 375.625 440.419, 371.985 443.011 C 367.640 446.105, 366.030 449.940, 364.835 460.044 C 363.937 467.643, 364.040 470.041, 365.527 476.110 C 369.069 490.565, 374.797 492.972, 390.342 486.537 C 399.577 482.714, 410.816 479.476, 418.500 478.425 C 427.896 477.139, 432 473.506, 432 466.477 C 432 459.473, 428.760 458.427, 418.407 462.089 C 411.010 464.705, 396.755 465.734, 391.581 464.027 C 386.788 462.445, 384.009 458.011, 384.004 451.941 C 383.997 443.503, 387.640 441.916, 397.814 445.927 C 404.732 448.654, 412.314 448.686, 415 446 C 418.716 442.284, 416.933 433.167, 411.783 429.561 C 410.558 428.702, 409.074 428, 408.487 428 C 407.899 428, 403.855 430.250, 399.500 433 C 393.221 436.965, 390.706 438, 387.350 438 C 385.022 438, 382.793 437.473, 382.395 436.830 C 381.167 434.844, 382.033 424.732, 383.739 421.139 C 385.718 416.967, 390.454 414.756, 401.167 413.001 C 408.603 411.783, 408.933 411.816, 412.124 414.089 C 416.449 417.168, 426.254 417.954, 430.829 415.588 C 434.672 413.601, 435.415 410.978, 434.615 402.224 C 432.610 380.281, 432.662 374.212, 434.903 369.004 C 437.447 363.090, 436.817 361.090, 431.633 358.630 C 427.572 356.703, 422.835 356.606, 418 358.351" stroke="none" fill="#444" fill-rule="evenodd"/></svg>