<svg xmlns="http://www.w3.org/2000/svg" width="800" height="800" viewBox="0 0 800 800" version="1.1"><path d="M 318.500 165.539 C 280.325 166.887, 270.395 167.876, 258.956 171.468 C 248.602 174.720, 242.386 175.721, 221.500 177.501 C 197.707 179.530, 186.625 181.460, 180.500 184.641 C 177.750 186.070, 173.475 188.265, 171 189.521 C 168.525 190.776, 161.638 192.781, 155.696 193.975 C 142.348 196.659, 139.572 197.799, 133.223 203.209 C 130.113 205.859, 125.297 208.571, 120.628 210.300 C 115.045 212.368, 111.110 214.764, 105.584 219.461 C 101.468 222.959, 95.837 227.052, 93.072 228.558 C 89.404 230.554, 86.960 232.946, 84.039 237.397 C 81.837 240.754, 78.020 245.468, 75.557 247.873 C 67.489 255.752, 67.829 251.645, 67.957 339.668 C 68.028 388.435, 68.450 419.046, 69.091 421.905 C 69.667 424.478, 71.810 428.661, 74.014 431.519 C 77.588 436.150, 79.146 439.160, 84.546 451.854 C 85.564 454.249, 88.148 457.849, 90.288 459.854 C 92.428 461.859, 95.914 466.875, 98.035 471 C 100.456 475.709, 103.404 479.734, 105.957 481.816 C 108.194 483.640, 111.547 487.465, 113.409 490.316 C 119.132 499.079, 171.733 552.671, 183.216 561.439 C 185.743 563.369, 189.091 566.461, 190.655 568.312 C 192.220 570.162, 196.130 573.594, 199.344 575.939 C 202.557 578.283, 206.804 581.991, 208.780 584.178 C 210.756 586.366, 214.504 589.235, 217.107 590.554 C 219.711 591.874, 223.790 595.264, 226.171 598.088 C 228.769 601.169, 232.700 604.340, 236 606.017 C 239.025 607.554, 242.850 610.264, 244.500 612.040 C 249.755 617.696, 255.855 621, 261.041 621 C 266.946 621, 268.291 619.540, 270.833 610.361 C 273.320 601.386, 274.272 599.588, 279.559 593.879 C 282.808 590.371, 284.366 587.483, 286.030 581.879 C 288.764 572.674, 290.261 569.720, 295.201 563.786 C 297.360 561.194, 300.652 555.936, 302.517 552.103 C 304.908 547.191, 307.029 544.376, 309.705 542.566 C 311.935 541.057, 314.943 537.468, 317 533.860 C 321.524 525.927, 324.913 524.045, 334.984 523.869 L 342.500 523.738 337 522.983 C 330.546 522.098, 328 521.182, 328 519.747 C 328 519.175, 329.973 516.598, 332.384 514.021 C 335.677 510.500, 336.935 508.235, 337.440 504.917 C 339.723 489.917, 340.390 488.494, 347.393 483.692 C 351.507 480.871, 352.930 477.930, 354.500 469 C 356.153 459.598, 357.459 457.115, 362.342 454.097 C 366.519 451.516, 368.391 447.794, 370.428 438.021 C 371.897 430.980, 372.288 430.299, 377.885 425.045 C 382.968 420.273, 383.946 418.761, 384.896 414.201 C 385.503 411.286, 386 408.009, 386 406.919 C 386 405.828, 386.652 403.375, 387.449 401.468 C 390.075 395.182, 395.616 397.137, 407.650 408.596 C 412.180 412.911, 412.937 414.221, 413.945 419.500 C 415.653 428.447, 417.886 433.839, 420.683 435.772 C 428.048 440.860, 428.929 442.196, 430.064 450 C 431.626 460.734, 434.087 465.379, 439.632 468.064 C 444.871 470.600, 445.364 471.617, 446.878 483 C 448.164 492.672, 449.720 495.407, 455.906 498.862 C 460.889 501.645, 462.140 504.327, 462.347 512.669 C 462.478 517.942, 462.148 519.213, 460.076 521.419 L 457.651 524 464.358 524 C 471.997 524, 477.155 525.776, 479.366 529.166 C 480.202 530.450, 482.037 535.151, 483.444 539.614 C 485.201 545.189, 487.552 549.829, 490.958 554.444 C 493.685 558.137, 496.126 561.911, 496.383 562.830 C 501.134 579.804, 501.889 581.474, 507.079 586.500 C 510.420 589.735, 513.394 593.971, 515.503 598.500 C 517.297 602.350, 519.977 606.624, 521.460 607.998 C 522.943 609.371, 525.730 613.086, 527.654 616.253 C 529.577 619.420, 531.988 622.458, 533.010 623.005 C 538.063 625.710, 545.327 622.695, 553.425 614.531 C 556.364 611.569, 561.408 607.813, 564.634 606.184 C 568.321 604.323, 572.109 601.315, 574.829 598.088 C 577.210 595.264, 581.260 591.877, 583.829 590.561 C 586.398 589.245, 590.525 586.068, 593 583.501 C 595.475 580.933, 599.760 577.320, 602.522 575.471 C 605.284 573.621, 608.545 570.754, 609.768 569.100 C 610.991 567.445, 615.032 563.642, 618.746 560.649 C 625.228 555.427, 666.681 514.151, 680.259 499.399 C 683.853 495.493, 687.504 490.926, 688.371 489.250 C 689.238 487.573, 692.160 484.243, 694.864 481.851 C 697.964 479.108, 700.966 475.098, 702.989 471 C 704.754 467.425, 708.144 462.475, 710.523 460 C 713.428 456.978, 716.154 452.453, 718.822 446.225 C 721.008 441.123, 724.617 434.589, 726.842 431.704 C 729.213 428.631, 731.321 424.531, 731.933 421.801 C 733.372 415.380, 733.602 263.973, 732.176 261.382 C 731.607 260.347, 728.860 257.306, 726.071 254.624 C 723.282 251.942, 721 249.296, 721 248.744 C 721 246.701, 701.300 228.499, 695.598 225.275 C 692.353 223.439, 687.934 219.935, 685.780 217.488 C 682.691 213.978, 680.543 212.630, 675.607 211.106 C 666.033 208.149, 662.888 206.616, 658.022 202.534 C 652.417 197.832, 651.412 197.452, 635.379 193.990 C 625.344 191.824, 620.136 190.077, 613.241 186.569 C 602.698 181.203, 596.311 180.018, 564.500 177.521 C 551.336 176.487, 538.689 174.786, 527.500 172.543 C 497.545 166.540, 493.612 166.143, 453 165.031 C 406.113 163.746, 364.856 163.902, 318.500 165.539 M 379 174.658 C 359.146 174.900, 293.142 177.328, 258 179.111 C 229.990 180.531, 221.447 181.847, 211.326 186.297 C 200.885 190.888, 198.378 191.530, 180.981 194.072 C 163.362 196.647, 159.121 198.016, 151.823 203.486 C 147.670 206.599, 143.910 208.343, 137.823 209.981 C 127.268 212.822, 124.664 214.167, 118.473 219.975 C 115.304 222.948, 111.531 225.327, 108.264 226.412 C 102.881 228.200, 100.617 230.081, 96.724 236 C 95.458 237.925, 92.509 240.556, 90.171 241.847 C 83.913 245.302, 82.672 247.830, 82.180 258.116 C 81.653 269.135, 82.355 270.355, 91.857 274.940 C 95.778 276.832, 99.224 279.131, 99.516 280.049 C 100.479 283.084, 98.933 284.836, 94.672 285.537 C 88.391 286.571, 84.351 288.535, 82.408 291.499 C 80.788 293.972, 80.678 298.501, 80.888 353.833 C 81.172 428.464, 81.757 433.634, 91.030 443.438 C 94.308 446.904, 96.917 451.046, 98.914 455.953 C 101.167 461.491, 103.208 464.540, 107.240 468.394 C 110.505 471.516, 113.952 476.220, 116.109 480.500 C 118.672 485.586, 120.958 488.501, 124.468 491.161 C 127.578 493.518, 130.403 496.901, 132.399 500.661 C 134.902 505.373, 136.479 507.025, 140.575 509.220 C 144.417 511.279, 146.308 513.151, 148.365 516.929 C 150.361 520.597, 152.351 522.610, 155.876 524.529 C 159.363 526.427, 161.475 528.547, 163.617 532.301 C 165.238 535.140, 168.125 538.459, 170.032 539.675 C 176.562 543.840, 179.066 546.208, 181.048 550.094 C 182.453 552.847, 184.463 554.708, 187.937 556.468 C 190.634 557.835, 194.765 561.235, 197.117 564.023 C 199.468 566.812, 204.004 570.680, 207.196 572.619 C 210.389 574.558, 216.136 579.023, 219.969 582.540 C 223.801 586.057, 229.176 590.069, 231.913 591.456 C 234.650 592.843, 237.702 595.136, 238.695 596.551 C 245.053 605.616, 248.796 607.708, 256.570 606.542 C 263.593 605.489, 266.415 602.358, 269 592.754 C 271.852 582.155, 273.277 579.487, 279.012 574 C 283.295 569.903, 283.912 568.704, 285.900 560.619 C 288.629 549.519, 289.972 546.921, 295.106 542.795 C 300.477 538.479, 301.936 535.435, 302.946 526.435 C 303.950 517.478, 305.748 514.442, 311.571 511.866 C 317.043 509.445, 317.765 508.101, 319.130 497.784 C 320.621 486.512, 321.996 483.553, 326.910 481.046 C 332.279 478.307, 333.534 476.096, 335.384 466.121 C 337.213 456.263, 338.656 453.726, 343.981 451.010 C 348.894 448.504, 349.667 447.069, 351.065 437.866 C 352.516 428.313, 355.072 422.531, 358.665 420.673 C 363.247 418.304, 364.835 415.840, 366.536 408.459 C 367.476 404.377, 369.971 398.315, 372.570 393.797 C 377.211 385.726, 378.127 380.924, 375.668 377.561 C 374.043 375.339, 352.369 372.671, 322 370.954 C 292.045 369.261, 284.168 367.897, 274 362.640 C 265.118 358.048, 260.980 357.071, 241.500 354.972 C 223.659 353.050, 215.588 350.190, 214.377 345.364 C 213.206 340.699, 215.956 339.088, 234.786 333.411 C 241.442 331.405, 249.307 328.211, 253 326.015 C 261.457 320.987, 264.114 320.370, 285.216 318.531 C 304.711 316.832, 312.120 315.395, 324.297 310.951 C 341.264 304.759, 356.383 303.356, 408.500 303.137 C 459.688 302.922, 474.203 304.398, 489.146 311.339 C 498.616 315.738, 498.770 315.781, 512.872 317.941 C 525.577 319.886, 531.800 322.262, 540.226 328.383 C 545.141 331.954, 547.629 332.986, 562.309 337.541 C 567.153 339.044, 572.099 341.070, 573.300 342.042 C 575.415 343.754, 575.426 343.871, 573.670 345.812 C 570.951 348.816, 563.413 351.705, 553.428 353.569 C 529.457 358.045, 525.608 359.034, 517.277 362.863 C 506.642 367.750, 502.708 368.651, 488.500 369.458 C 482.450 369.801, 472.775 370.534, 467 371.085 C 461.225 371.637, 449.066 372.229, 439.979 372.400 C 416.167 372.849, 414.754 373.854, 417.301 388.532 C 419.039 398.547, 420.073 400.487, 425.019 403.010 C 430.250 405.678, 431.953 408.527, 433.200 416.698 C 435.083 429.039, 436.021 431.116, 441 433.982 C 446.568 437.186, 448.703 441.274, 449.952 451.118 C 451.218 461.105, 451.471 461.587, 457.053 464.625 C 462.873 467.793, 464.460 470.760, 465.895 481.150 C 467.282 491.192, 468.277 493.120, 473.498 495.890 C 478.549 498.569, 480.337 501.723, 481.980 510.847 C 483.626 519.986, 484.411 521.544, 489.943 526.639 C 494.987 531.286, 495.685 532.729, 499.483 546.350 C 500.784 551.018, 502.189 553.266, 506.430 557.473 C 511.305 562.310, 511.938 563.482, 514.072 571.623 C 516.171 579.629, 516.922 581.052, 521.731 586.123 C 526.087 590.718, 527.530 593.187, 529.619 599.623 C 532.064 607.156, 535.118 612, 537.424 612 C 538.015 612, 542.083 610.538, 546.464 608.750 C 552.614 606.240, 555.689 604.226, 559.964 599.908 C 563.009 596.833, 567.750 593.056, 570.500 591.515 C 573.250 589.975, 578.425 585.935, 582 582.538 C 585.575 579.142, 591.310 574.466, 594.745 572.147 C 598.180 569.829, 602.005 566.554, 603.245 564.870 C 604.485 563.186, 608.490 560.059, 612.145 557.921 C 617.034 555.062, 619.490 552.840, 621.440 549.512 C 623.237 546.446, 625.757 544.037, 629.259 542.037 C 632.646 540.102, 635.644 537.283, 637.963 533.851 C 639.908 530.971, 643.525 527.214, 646 525.501 C 648.475 523.789, 651.835 520.335, 653.467 517.827 C 655.099 515.319, 658.699 511.729, 661.467 509.849 C 664.830 507.566, 667.421 504.726, 669.275 501.289 C 670.801 498.460, 674.314 494.249, 677.081 491.932 C 680.248 489.281, 683.220 485.527, 685.099 481.804 C 686.741 478.550, 691.103 472.627, 694.793 468.642 C 699.496 463.560, 702.078 459.768, 703.436 455.947 C 704.641 452.558, 707.157 448.611, 710.093 445.500 C 714.970 440.334, 717.625 434.109, 720.114 422 C 721.648 414.538, 722.263 297.912, 720.794 293 C 718.638 285.789, 713.518 282.641, 704.359 282.893 C 693.917 283.180, 694.531 279.160, 705.119 277.911 C 710.148 277.319, 711.846 276.615, 714.388 274.071 C 717.256 271.200, 717.499 270.430, 717.490 264.228 C 717.476 254.348, 715.073 248.897, 709.015 245.010 C 706.336 243.290, 702.054 239.438, 699.501 236.449 C 695.877 232.208, 692.679 229.896, 684.932 225.916 C 679.167 222.955, 674.175 219.650, 673.023 218.032 C 670.437 214.401, 666.533 212.637, 655.232 209.993 C 648.485 208.415, 644.677 206.890, 641.232 204.388 C 633.892 199.057, 628.401 196.863, 618.565 195.330 C 613.579 194.552, 605.430 193.281, 600.456 192.504 C 595.481 191.727, 587.198 189.484, 582.049 187.519 C 571.149 183.359, 560.942 181.475, 541.500 180.032 C 524.787 178.792, 463.058 176.289, 429.500 175.491 C 416.300 175.177, 403.700 174.810, 401.500 174.677 C 399.300 174.543, 389.175 174.535, 379 174.658 M 108.672 290.471 C 105.282 293.860, 107.415 299.612, 113.164 302.585 C 116.993 304.565, 126.251 304.866, 128.403 303.081 C 130.805 301.087, 130.397 295.573, 127.608 292.331 C 125.465 289.840, 124.441 289.511, 117.780 289.174 C 111.814 288.873, 110.013 289.129, 108.672 290.471 M 668.242 292.109 C 663.314 294.549, 661.728 298.156, 664.406 300.835 C 665.695 302.124, 667.966 302.500, 674.455 302.500 C 681.952 302.500, 683.112 302.243, 685.419 300.076 C 688.172 297.490, 688.834 293.234, 686.800 291.200 C 684.742 289.142, 673.082 289.713, 668.242 292.109 M 141.465 306.952 C 135.750 309.268, 136.109 314.434, 142.207 317.630 C 146.349 319.802, 157.944 320.119, 160.346 318.128 C 163.590 315.436, 161.992 309.654, 157.316 307.163 C 154.838 305.844, 144.538 305.706, 141.465 306.952 M 637 308.752 C 634.938 309.782, 633.376 311.368, 633.199 312.612 C 632.553 317.136, 645.590 319.815, 652.035 316.482 C 655.360 314.763, 656.850 310.729, 654.989 308.487 C 653.190 306.319, 641.526 306.491, 637 308.752 M 396.500 311.519 C 387.081 312.978, 357.747 315.895, 325.500 318.579 C 302.507 320.493, 295.055 321.960, 284.786 326.596 C 280.462 328.549, 272.345 331.277, 266.748 332.658 C 251.917 336.319, 247 339.163, 247 344.082 C 247 349.945, 255.322 353.307, 274 354.992 C 293.420 356.743, 301.013 357.982, 314 361.519 C 320.875 363.391, 330.100 365.603, 334.500 366.434 C 351.481 369.641, 417.860 370.625, 444.310 368.062 C 456.894 366.842, 459.788 366.253, 483.114 360.157 C 491.025 358.090, 500.431 356.592, 512.614 355.459 C 532.978 353.565, 539.727 351.806, 541.943 347.818 C 545.198 341.961, 540.792 337.315, 527.508 332.600 C 523.284 331.100, 517.729 328.401, 515.164 326.601 C 510.427 323.277, 506.899 321.700, 501.500 320.491 C 498.547 319.830, 474.564 317.021, 454 314.929 C 448.225 314.341, 439.225 313.178, 434 312.344 C 420.555 310.197, 406.963 309.899, 396.500 311.519 M 175.690 323.540 C 172.077 325.580, 172.356 329.453, 176.327 332.401 C 178.633 334.113, 180.568 334.495, 186.827 334.470 C 199.888 334.420, 205.198 329.338, 197.111 324.627 C 192.494 321.938, 179.678 321.288, 175.690 323.540 M 601.209 323.923 C 597.451 324.884, 594 327.651, 594 329.706 C 594 332.274, 600.942 334.275, 607.997 333.741 C 616.145 333.125, 620 331.429, 620 328.462 C 620 327.243, 619.377 325.728, 618.615 325.096 C 616.820 323.606, 605.450 322.840, 601.209 323.923 M 388.054 468.793 C 385.482 471.364, 385 472.618, 385 476.732 C 385 482.063, 385.844 483.557, 390.750 486.913 C 392.538 488.136, 394 489.599, 394 490.164 C 394 490.729, 394.966 492.548, 396.148 494.207 C 398.173 497.051, 398.604 497.198, 403.712 496.774 C 407.894 496.427, 409.742 495.712, 411.815 493.639 C 414.249 491.204, 414.494 490.277, 414.437 483.726 C 414.328 471.304, 410.351 467.116, 397.812 466.219 C 391.385 465.759, 390.981 465.865, 388.054 468.793" stroke="none" fill="#444" fill-rule="evenodd"/></svg>