<svg xmlns="http://www.w3.org/2000/svg" width="800" height="800" viewBox="0 0 800 800" version="1.1"><path d="M 366.500 241.068 C 293.158 242.512, 269.057 244.315, 254 249.487 C 241.481 253.787, 235.782 254.967, 212.687 258.038 C 185.866 261.606, 183.787 262.076, 173 267.010 C 167.247 269.642, 160.784 271.593, 153 273.048 C 136.238 276.181, 131.822 277.578, 125.854 281.636 C 120.371 285.365, 114.149 288.400, 105.749 291.444 C 102.535 292.609, 99.831 294.589, 97.393 297.566 C 95.410 299.985, 91.640 303.508, 89.016 305.393 C 85.571 307.868, 83.584 310.307, 81.872 314.161 C 80.567 317.097, 78.381 321.525, 77.014 324 C 74.028 329.405, 73.868 332.335, 72.152 413 C 71.526 442.425, 70.546 471.675, 69.974 478 C 68.855 490.376, 69.729 499.412, 72.448 503.560 C 73.279 504.829, 75.463 507.014, 77.301 508.416 C 79.140 509.819, 82.317 513.395, 84.362 516.365 C 87.471 520.878, 89.541 522.539, 96.996 526.498 C 101.900 529.102, 107.619 532.689, 109.706 534.469 C 114.970 538.960, 118.350 540.536, 128 543 C 137.337 545.384, 140.832 546.968, 146.116 551.215 C 150.752 554.939, 157.050 556.522, 175 558.476 C 191.073 560.226, 202.203 562.588, 212.329 566.399 C 223.132 570.466, 232.927 572.003, 253.340 572.837 C 276.631 573.789, 492.012 573.528, 505.723 572.531 C 519.629 571.521, 530.161 569.534, 540.346 566.001 C 553.034 561.599, 560.880 560.164, 583.912 558.033 L 604.323 556.145 615.412 550.594 C 622.694 546.948, 630.075 544.157, 636.914 542.462 C 648.187 539.669, 650.261 538.733, 656.817 533.477 C 659.752 531.124, 664.381 529.008, 671.278 526.865 C 679.955 524.169, 682.152 523.028, 686.461 518.976 C 689.233 516.371, 694.857 512.557, 698.960 510.502 C 703.128 508.413, 709.084 504.262, 712.460 501.094 C 715.782 497.975, 720.692 493.679, 723.370 491.547 C 729.727 486.485, 731.210 482.730, 731.279 471.515 C 731.434 446.381, 729.924 326.034, 729.416 323.035 C 728.601 318.227, 726.893 315.210, 718.852 304.370 C 711.996 295.127, 711.675 294.855, 701.746 289.873 C 696.181 287.080, 690.024 283.511, 688.064 281.943 C 682.907 277.816, 678.475 276.238, 663.103 273.056 C 652.890 270.942, 647.375 269.200, 641.450 266.217 C 633.050 261.988, 631.489 261.633, 603.128 257.514 C 585.104 254.897, 578.898 253.557, 565.672 249.427 C 553.846 245.735, 541.700 244.100, 518 243.010 C 494.932 241.950, 415.028 239.889, 407.844 240.170 C 405.455 240.263, 386.850 240.667, 366.500 241.068 M 359.972 245.909 C 348.132 246.293, 337.994 246.886, 337.443 247.226 C 335.392 248.494, 279.600 256.083, 254.500 258.509 C 222.886 261.564, 219.520 262.171, 209.977 266.538 C 203.491 269.505, 199.907 270.318, 183.977 272.435 C 155.488 276.221, 152.894 276.951, 144.077 283.673 C 141.644 285.527, 137.257 287.710, 134.327 288.522 C 131.397 289.335, 126.478 290.701, 123.395 291.559 C 119.499 292.642, 116.372 294.426, 113.145 297.408 C 110.590 299.768, 106.025 303.277, 103 305.205 C 96.270 309.496, 86.448 319.683, 84.464 324.431 C 81.729 330.978, 83.421 344.512, 87.484 348.575 C 88.720 349.811, 92.123 351.650, 95.046 352.661 C 98.451 353.840, 102.414 356.391, 106.080 359.765 C 110.973 364.269, 112.790 365.257, 118.650 366.602 C 130.479 369.317, 133.753 370.862, 137.579 375.531 C 141.767 380.642, 143.680 381.355, 159 383.520 C 178.182 386.232, 184.124 388.214, 189 393.532 C 193.758 398.720, 196.522 399.229, 221.953 399.604 C 252.776 400.059, 263.663 401.669, 283 408.631 C 289.276 410.891, 292.459 411.379, 302.500 411.625 C 309.100 411.787, 317.875 412.436, 322 413.066 C 326.704 413.786, 352.205 414.398, 390.400 414.709 C 441.751 415.127, 453.118 414.962, 462.900 413.656 C 469.280 412.805, 478.255 411.851, 482.845 411.537 C 492.176 410.898, 496.086 410.130, 508.748 406.446 C 524.018 402.003, 540.449 399.934, 565 399.362 C 577.375 399.073, 588.983 398.382, 590.797 397.826 C 592.610 397.269, 596.108 395.070, 598.571 392.939 C 601.133 390.721, 605.284 388.395, 608.274 387.502 C 615.205 385.431, 629.260 383, 634.299 383 C 636.519 383, 641.195 382.502, 644.688 381.894 C 650.395 380.900, 651.398 380.351, 654.567 376.484 C 658.695 371.445, 662.553 369.709, 674.636 367.450 C 685.301 365.456, 686.255 364.988, 692 358.926 C 695.195 355.554, 697.803 353.831, 700.994 352.984 C 709.288 350.783, 712.949 348.285, 715.045 343.396 C 719.228 333.636, 720.258 328.249, 719.145 321.933 C 717.565 312.962, 715.585 309.636, 710.023 306.609 C 707.343 305.150, 703.322 301.774, 701.088 299.105 C 696.696 293.859, 695.838 293.410, 682.847 289.560 C 676.930 287.806, 672.504 285.722, 668.847 282.967 C 662.585 278.250, 654.359 275.471, 642.226 273.972 C 628.987 272.337, 616.763 269.420, 611.080 266.541 C 603.492 262.695, 596.487 261.291, 576 259.509 C 553.323 257.537, 513.350 252.629, 498.500 249.994 C 492.450 248.921, 482.775 247.554, 477 246.958 C 464.115 245.627, 389.345 244.957, 359.972 245.909 M 87.302 370.012 C 82.535 371.932, 82.500 372.436, 82.500 439 C 82.500 510.058, 81.955 505.481, 90.998 510.402 C 94.191 512.140, 97.477 515.052, 99.634 518.054 C 102.443 521.964, 104.214 523.299, 108.808 524.969 C 111.938 526.108, 116.440 527.753, 118.812 528.626 C 121.184 529.499, 125.145 531.962, 127.615 534.100 C 133.767 539.424, 134.171 539.596, 148.670 543.040 C 157.706 545.187, 163.687 547.277, 168.988 550.142 C 178.525 555.295, 185.425 556.709, 207.066 557.948 C 225.017 558.975, 234.217 560.041, 263.500 564.490 C 272.850 565.910, 286.810 567.346, 294.522 567.680 C 316.490 568.631, 316.997 568.004, 317.004 539.807 C 317.011 514.585, 318.864 461.488, 320.076 451.766 C 321.322 441.781, 320.491 437.751, 316.393 433.897 C 314.002 431.648, 312.879 431.460, 298.172 430.848 C 280.650 430.118, 273.014 428.481, 266.624 424.085 C 260.305 419.738, 256.171 419.031, 231.059 418.002 C 209.225 417.108, 192.354 415.226, 186.613 413.043 C 185.184 412.500, 182.099 410.290, 179.758 408.133 C 174.717 403.488, 171.041 402.411, 157.134 401.501 C 143.145 400.586, 137.953 398.932, 133.783 394.059 C 129.677 389.262, 128.029 388.536, 115.672 386.081 C 104.040 383.769, 101.491 382.310, 99.022 376.552 C 96.227 370.030, 92.467 367.932, 87.302 370.012 M 700.835 373.250 C 690.963 383.927, 690.643 384.096, 676.569 386.054 C 666.237 387.491, 665.090 388.008, 659.377 393.797 C 653.890 399.357, 650.749 400.388, 636 401.466 C 621.132 402.553, 615.300 403.948, 609.800 407.731 C 607.020 409.644, 603.115 411.891, 601.122 412.726 C 592.915 416.163, 576.245 417.857, 545.917 418.335 C 528.920 418.603, 531.424 417.948, 515.330 426.332 C 505.068 431.677, 497.880 432.132, 417.134 432.546 C 337.263 432.955, 341.237 432.656, 337.380 438.542 C 335.890 440.817, 335.851 442.556, 336.966 456.778 C 337.783 467.195, 338.081 488.037, 337.849 518.543 C 337.523 561.560, 337.618 564.767, 339.302 567.338 C 340.294 568.851, 342.231 570.518, 343.608 571.041 C 347.168 572.395, 420.901 571.171, 440.500 569.433 C 449.300 568.652, 461.225 567.333, 467 566.500 C 494.290 562.565, 519.107 559.814, 539.351 558.480 C 567.392 556.632, 572.526 555.754, 583.110 550.997 C 592.919 546.588, 598.679 544.985, 615.169 542.073 C 629.487 539.544, 631.086 538.951, 637.049 533.959 C 642.717 529.214, 645.936 527.811, 656.423 525.519 C 663.477 523.977, 664.907 523.255, 669.477 518.934 C 673.023 515.580, 677.218 512.985, 683.054 510.537 C 689.295 507.918, 692.969 505.578, 697.127 501.573 C 700.222 498.592, 705.498 494.768, 708.852 493.075 C 715.007 489.968, 716.967 487.603, 718.446 481.500 C 718.846 479.850, 719.317 455.775, 719.491 428 C 719.829 374.397, 719.687 372.509, 715.150 370.080 C 714.040 369.486, 711.249 369, 708.948 369 C 705.310 369, 704.253 369.553, 700.835 373.250 M 394.500 472.705 C 390.650 474.735, 383.900 478.220, 379.500 480.448 C 372.505 483.991, 371.227 485.065, 369.328 489 C 365.594 496.734, 364.699 504.293, 366.388 513.821 C 367.199 518.397, 368.579 523.235, 369.455 524.571 C 370.331 525.908, 373.959 528.322, 377.519 529.936 C 382.324 532.115, 384.538 533.798, 386.116 536.472 C 389.105 541.539, 393.061 543.273, 402.841 543.806 L 411.181 544.260 416.341 538.811 C 419.706 535.257, 423.148 532.750, 426.239 531.602 C 432.011 529.460, 434.536 526.423, 436.644 519.092 C 437.528 516.017, 439.347 511.616, 440.684 509.313 C 442.978 505.363, 443.028 504.956, 441.565 502.126 C 440.712 500.477, 439.575 498.855, 439.037 498.523 C 438.500 498.191, 437.120 494.760, 435.970 490.899 C 434.820 487.038, 433.031 483.031, 431.995 481.995 C 430.253 480.253, 421.353 477, 418.331 477 C 417.612 477, 415.331 475.201, 413.262 473.002 C 408.235 467.659, 404.188 467.595, 394.500 472.705 M 397.526 494.584 C 389.317 497.451, 388.124 498.460, 387.357 503.187 C 386.330 509.519, 389.077 513.351, 397.573 517.438 C 401.644 519.397, 405.578 521, 406.314 521 C 409.961 521, 417.588 507.192, 416.449 502.652 C 415.480 498.792, 409.191 491.988, 406.672 492.074 C 405.477 492.115, 401.362 493.245, 397.526 494.584" stroke="none" fill="#444" fill-rule="evenodd"/></svg>