<svg xmlns="http://www.w3.org/2000/svg" width="800" height="800" viewBox="0 0 800 800" version="1.1"><path d="M 318.500 165.528 C 280.882 166.845, 273.548 167.612, 256.421 172.024 C 244.660 175.053, 238.086 176.025, 212.448 178.526 C 191.341 180.586, 183.776 182.253, 177.030 186.330 C 169.804 190.696, 167.436 191.547, 155.500 194.065 C 143.479 196.602, 137.983 198.879, 132.983 203.396 C 130.844 205.329, 125.904 208.019, 121.508 209.645 C 115.675 211.803, 111.838 214.147, 105.798 219.241 C 101.402 222.948, 95.600 227.181, 92.906 228.648 C 89.548 230.475, 86.992 232.916, 84.780 236.407 C 83.005 239.208, 79.187 244.007, 76.296 247.071 C 67.355 256.543, 67.865 250.884, 67.973 339.421 C 68.033 388.467, 68.447 419.032, 69.090 421.901 C 69.667 424.478, 71.808 428.659, 74.014 431.519 C 77.588 436.150, 79.146 439.160, 84.546 451.854 C 85.564 454.249, 88.148 457.849, 90.288 459.854 C 92.428 461.859, 95.914 466.875, 98.035 471 C 100.478 475.752, 103.402 479.733, 106.015 481.865 C 108.284 483.716, 111.420 487.288, 112.986 489.803 C 116.542 495.516, 146.337 526.605, 167.323 546.500 C 176.025 554.750, 186.020 564.296, 189.533 567.712 C 193.046 571.129, 197.851 575.139, 200.210 576.622 C 202.570 578.106, 206.216 581.262, 208.313 583.635 C 210.410 586.008, 214.729 589.338, 217.912 591.034 C 221.655 593.029, 224.794 595.672, 226.801 598.520 C 228.888 601.481, 231.804 603.887, 235.702 605.867 C 238.891 607.486, 242.850 610.264, 244.500 612.040 C 249.755 617.696, 255.855 621, 261.041 621 C 266.946 621, 268.291 619.540, 270.833 610.361 C 273.320 601.386, 274.272 599.588, 279.559 593.879 C 282.808 590.371, 284.366 587.483, 286.030 581.879 C 288.791 572.582, 290.323 569.606, 295.220 564.026 C 297.379 561.565, 300.631 556.339, 302.445 552.412 C 305.031 546.816, 306.714 544.605, 310.230 542.186 C 315.210 538.759, 316.121 536.954, 318.473 525.845 C 320.341 517.025, 322.841 513.649, 328.639 512.117 C 331.035 511.483, 356.789 511.026, 396.500 510.911 C 468.238 510.704, 464.036 510.305, 472.516 518.122 C 478.153 523.318, 479.567 525.939, 482.519 536.672 C 484.819 545.030, 488.477 552.491, 491.508 555.007 C 494.011 557.084, 496.014 561.565, 498.534 570.724 C 501.188 580.371, 502.771 583.161, 508.310 587.958 C 510.850 590.157, 513.478 593.977, 515.534 598.458 C 517.310 602.331, 519.977 606.624, 521.460 607.998 C 522.943 609.371, 525.733 613.091, 527.661 616.265 C 529.592 619.443, 532.498 622.723, 534.132 623.568 C 536.906 625.003, 537.443 624.944, 542.449 622.652 C 545.427 621.289, 550.232 617.751, 553.284 614.674 C 556.300 611.633, 561.542 607.746, 564.932 606.034 C 569.205 603.877, 572.047 601.573, 574.199 598.520 C 576.196 595.687, 579.343 593.030, 583.029 591.065 C 586.178 589.387, 590.315 586.287, 592.222 584.177 C 594.128 582.067, 597.445 579.047, 599.594 577.467 C 615.774 565.564, 681.738 499.963, 688.422 489.127 C 690.187 486.265, 693.338 482.709, 695.423 481.225 C 698.010 479.385, 700.424 476.139, 703.018 471.014 C 705.110 466.881, 708.572 461.859, 710.712 459.854 C 712.852 457.849, 715.436 454.249, 716.454 451.854 C 721.854 439.160, 723.412 436.150, 726.986 431.519 C 729.225 428.616, 731.332 424.482, 731.929 421.818 C 732.716 418.303, 733.644 288.520, 733.056 264.207 C 732.949 259.791, 704.684 230.413, 695.598 225.275 C 692.353 223.439, 687.961 219.965, 685.839 217.555 C 682.560 213.829, 680.705 212.766, 673.467 210.461 C 668.783 208.969, 663.275 206.459, 661.226 204.881 C 651.650 197.508, 650.602 197.049, 637.461 194.467 C 627.533 192.517, 622.394 190.894, 615.500 187.533 C 601.602 180.757, 597.858 180.020, 564.500 177.490 C 542.182 175.798, 541.702 175.734, 527 172.467 C 503.174 167.173, 493.198 166.165, 453.500 165.045 C 407.421 163.745, 365.135 163.896, 318.500 165.528 M 382 174.655 C 374.575 174.774, 355.675 175.363, 340 175.962 C 324.325 176.562, 298.460 177.499, 282.522 178.045 C 236.649 179.617, 222.261 181.189, 212 185.752 C 201.579 190.387, 195.643 192.007, 181.592 194.052 C 161.488 196.978, 159.457 197.646, 151.586 203.922 C 149.360 205.696, 144.616 207.925, 140.586 209.090 C 127.662 212.825, 124.711 214.250, 118.982 219.517 C 115.400 222.810, 111.457 225.352, 108.309 226.397 C 102.745 228.246, 99.766 230.618, 97.493 235.013 C 96.653 236.638, 93.385 239.673, 90.233 241.758 C 83.409 246.269, 82.124 249.147, 82.088 260 C 82.058 269.272, 82.841 270.425, 92.279 275 C 98.212 277.875, 99.554 278.965, 99.802 281.105 C 100.075 283.455, 99.634 283.831, 95.302 284.942 C 87.794 286.868, 82.979 289.173, 81.755 291.429 C 80.004 294.656, 80.731 409.541, 82.581 421.868 C 84.837 436.901, 85.617 438.890, 91.468 444.512 C 95.379 448.269, 97.319 451.169, 98.992 455.757 C 100.627 460.242, 102.791 463.526, 106.874 467.720 C 109.970 470.899, 114.210 476.755, 116.297 480.734 C 119.064 486.007, 121.286 488.789, 124.499 490.999 C 127.460 493.037, 129.988 496.041, 132.203 500.156 C 134.824 505.023, 136.505 506.835, 140.400 508.986 C 143.741 510.832, 145.926 512.935, 147.269 515.597 C 150.021 521.052, 151.817 522.870, 157.105 525.552 C 160.161 527.101, 162.142 528.929, 162.994 530.984 C 165.053 535.957, 167.862 538.896, 173.083 541.542 C 176.469 543.258, 178.554 545.166, 179.878 547.759 C 182.126 552.163, 183.847 553.771, 190.279 557.473 C 192.908 558.986, 196.394 562.165, 198.026 564.538 C 199.713 566.989, 203.477 570.365, 206.747 572.357 C 209.911 574.285, 215.425 578.633, 219 582.019 C 222.575 585.405, 227.525 589.250, 230 590.564 C 235.736 593.608, 237.040 594.713, 239.948 599 C 241.254 600.925, 243.262 603.271, 244.411 604.213 C 249.165 608.111, 260.510 607.279, 264.795 602.718 C 267.069 600.298, 267.597 598.978, 270.988 587.252 C 272.771 581.083, 273.880 579.213, 278.430 574.700 C 283.375 569.793, 283.906 568.802, 285.522 561.448 C 287.833 550.927, 290.088 546.724, 295.370 543.089 C 300.191 539.773, 302.319 535.642, 303.404 527.500 C 304.399 520.037, 306.783 515.410, 311.107 512.548 C 316.486 508.988, 317.653 506.748, 319.408 496.615 C 321.165 486.473, 322.488 483.980, 327.941 480.537 C 332.810 477.464, 332.678 477.700, 334.491 468.861 C 336.988 456.697, 338.658 453.215, 343.078 450.960 C 348.129 448.384, 349.538 445.991, 350.950 437.602 C 352.458 428.639, 355.120 423.581, 359.928 420.546 C 363.897 418.040, 365.144 415.570, 366.505 407.518 C 367.202 403.392, 368.555 400.350, 373.849 391 C 378.546 382.706, 377.712 376.772, 371.680 375.568 C 367.218 374.676, 326.916 370.977, 310.500 369.952 C 289.495 368.640, 281.588 367.060, 273.567 362.574 C 266.077 358.386, 262.427 357.503, 244.352 355.509 C 226.803 353.573, 220.945 351.912, 217.587 347.921 C 214.419 344.156, 214.394 343.515, 217.310 340.599 C 219.503 338.406, 225.519 336.090, 238.154 332.573 C 241.264 331.708, 247.633 328.982, 252.308 326.516 C 261.719 321.552, 269.122 319.902, 290.500 318.005 C 303.259 316.873, 314.783 314.503, 327 310.499 C 345.284 304.507, 363.162 303.034, 417.500 303.045 C 465.113 303.054, 470.440 303.741, 491 312.526 C 494.930 314.205, 502.877 316.202, 511.098 317.575 C 526.100 320.081, 530.673 321.628, 536.231 326.077 C 541.604 330.378, 548.424 333.575, 557.533 336.063 C 565.555 338.253, 572.378 341.185, 573.435 342.895 C 574.526 344.659, 572.881 346.705, 568.702 348.784 C 561.610 352.312, 559.338 352.932, 542.648 355.893 C 529.227 358.275, 525.062 359.453, 517.989 362.869 C 513.308 365.130, 507.008 367.414, 503.989 367.944 C 495.579 369.423, 455.338 372.130, 438.273 372.365 C 424.629 372.553, 422.758 372.790, 420.273 374.643 C 416.701 377.308, 416.509 378.596, 418.064 389.463 C 419.431 399.022, 419.924 399.850, 427.725 405.677 C 430.921 408.064, 432.322 411.808, 434.006 422.461 C 435.256 430.370, 435.884 431.390, 441.168 434.086 C 446.355 436.732, 447.808 439.334, 449.887 449.698 C 452.047 460.462, 452.628 461.582, 457.495 464.338 C 463.199 467.569, 464.764 470.473, 466.404 480.873 C 467.501 487.823, 468.460 490.861, 470.116 492.623 C 471.344 493.930, 472.861 495, 473.487 495 C 475.099 495, 479.697 500.028, 480.803 503 C 481.314 504.375, 482.269 508.610, 482.923 512.410 C 484.394 520.944, 485.884 523.911, 490.442 527.388 C 494.859 530.757, 496.188 533.303, 499.022 543.835 C 500.989 551.146, 501.864 552.769, 506.143 557.048 C 511.521 562.425, 512.287 563.972, 514.586 574.076 C 515.990 580.252, 516.762 581.600, 521.862 586.780 C 526.800 591.795, 527.862 593.585, 529.749 600.080 C 532.302 608.866, 535.450 612.606, 539.449 611.602 C 546.687 609.785, 556.846 603.811, 560.928 598.970 C 563.347 596.102, 567.372 592.836, 570.329 591.345 C 573.173 589.910, 578.582 585.836, 582.349 582.292 C 586.116 578.748, 591.612 574.304, 594.562 572.417 C 597.512 570.530, 601.180 567.384, 602.713 565.426 C 604.246 563.468, 608.490 560.104, 612.145 557.950 C 617.012 555.082, 619.499 552.824, 621.440 549.512 C 623.237 546.446, 625.757 544.037, 629.259 542.037 C 632.656 540.097, 635.637 537.289, 637.963 533.839 C 640.078 530.702, 643.309 527.547, 646 525.990 C 648.475 524.559, 651.400 521.875, 652.500 520.027 C 654.770 516.211, 660.379 510.373, 664.348 507.695 C 665.819 506.702, 668.118 503.727, 669.458 501.082 C 670.798 498.438, 674.194 494.350, 677.004 491.997 C 680.265 489.266, 683.204 485.557, 685.131 481.741 C 686.791 478.453, 690.966 472.763, 694.409 469.097 C 699.004 464.204, 701.312 460.717, 703.085 455.989 C 704.698 451.688, 706.920 448.150, 709.773 445.341 C 714.615 440.574, 716.125 437.435, 719.205 425.740 C 721.291 417.818, 721.389 415.202, 721.755 358 C 721.963 325.275, 721.835 296.476, 721.469 294.001 C 720.596 288.102, 714.591 282, 709.658 282 C 707.866 282, 705.972 282.396, 705.450 282.879 C 704.927 283.363, 702.766 284.313, 700.647 284.991 C 697.403 286.028, 696.558 285.986, 695.294 284.723 C 693.409 282.837, 694.379 279.403, 697.228 277.878 C 698.794 277.040, 700.653 277.077, 704.611 278.027 C 709.247 279.139, 710.213 279.091, 712.429 277.638 C 716.893 274.714, 718.322 270.517, 717.737 262.050 C 717.035 251.878, 715.067 248.106, 708.378 244.104 C 705.399 242.323, 701.508 238.880, 699.731 236.454 C 697.236 233.048, 694.269 230.884, 686.712 226.958 C 681.328 224.161, 674.697 219.896, 671.976 217.479 C 669.004 214.839, 665.326 212.652, 662.764 212 C 650.690 208.927, 644.940 206.735, 640.926 203.675 C 632.690 197.397, 628.602 196.096, 610.500 193.998 C 596.937 192.426, 586.295 190.089, 578.353 186.938 C 574.423 185.379, 567.673 183.413, 563.353 182.570 C 553.453 180.638, 518.144 178.394, 475.500 176.988 C 457.350 176.389, 433.588 175.472, 422.695 174.950 C 411.803 174.427, 401.228 174.098, 399.195 174.218 C 397.163 174.338, 389.425 174.535, 382 174.655 M 113 289.282 C 110.106 290.289, 109.446 291.055, 109.190 293.704 C 108.558 300.239, 113.517 304, 122.768 304 C 128.479 304, 130 302.785, 130 298.223 C 130 294.435, 125.493 289.010, 122.327 288.986 C 121.322 288.979, 119.600 288.768, 118.500 288.519 C 117.400 288.269, 114.925 288.613, 113 289.282 M 671.513 291.507 C 667.050 293.097, 665 295.320, 665 298.570 C 665 301.771, 669.614 303.321, 677.625 302.811 C 683.360 302.446, 684.593 302.012, 686.635 299.638 C 689.206 296.649, 689.697 293.097, 687.800 291.200 C 686.175 289.575, 676.423 289.759, 671.513 291.507 M 143.500 306.625 C 137.589 308.065, 135.894 309.277, 136.197 311.844 C 136.627 315.476, 141.741 318.129, 149.516 318.753 C 154.514 319.155, 156.516 318.892, 158.531 317.572 C 161.798 315.431, 161.555 311.462, 158 308.886 C 155.454 307.042, 147.122 305.742, 143.500 306.625 M 643.240 307.029 C 637.676 308.165, 633 310.980, 633 313.193 C 633 317.833, 645.684 320.584, 651.989 317.311 C 656.164 315.144, 658.166 310.718, 655.949 308.557 C 653.986 306.645, 648.406 305.974, 643.240 307.029 M 402.500 311.001 C 400.300 311.498, 392.875 312.352, 386 312.899 C 379.125 313.446, 367.425 314.572, 360 315.402 C 352.575 316.232, 337.500 317.637, 326.500 318.524 C 302.848 320.431, 295.247 321.883, 285.075 326.438 C 280.909 328.303, 272.125 331.223, 265.555 332.927 C 252.824 336.229, 249.981 337.574, 247.399 341.514 C 245.894 343.811, 245.894 344.189, 247.399 346.486 C 250.951 351.908, 256.692 353.421, 283.500 356.005 C 296.132 357.222, 305.199 358.873, 313.500 361.469 C 331.776 367.183, 347.113 368.896, 385.500 369.508 C 427.589 370.180, 455.698 367.961, 474.500 362.482 C 489.502 358.111, 494.797 357.137, 512.503 355.493 C 531.789 353.703, 539.200 351.980, 541.453 348.763 C 545.657 342.761, 541.302 337.431, 528.600 333.032 C 523.705 331.337, 517.630 328.463, 515.100 326.645 C 510.436 323.294, 506.924 321.705, 501.500 320.491 C 498.498 319.819, 473.749 316.927, 454 314.941 C 448.225 314.361, 439.450 313.197, 434.500 312.356 C 423.337 310.458, 407.811 309.801, 402.500 311.001 M 173.473 324.269 C 170.917 326.468, 170.705 327.057, 171.692 329.224 C 173.588 333.385, 179.178 335.305, 187.903 334.793 C 196.741 334.274, 200.205 332.614, 199.786 329.099 C 199.261 324.692, 194.971 322.662, 185.192 322.195 C 176.926 321.800, 176.194 321.929, 173.473 324.269 M 599 323.709 C 593.980 325.555, 592.597 329.904, 596.223 332.443 C 600.353 335.336, 615.194 333.653, 618.584 329.907 C 620.190 328.132, 620.214 327.785, 618.824 326.395 C 616.119 323.690, 603.648 322, 599 323.709 M 388.035 399.934 C 387.466 400.998, 387 404.348, 387 407.378 C 387 415.486, 389.477 417.995, 397.684 418.200 C 405.117 418.386, 407 417.148, 407 412.074 C 407 408.300, 404.912 405.650, 397.615 400.168 C 393.979 397.436, 389.432 397.325, 388.035 399.934 M 374.635 432.250 C 373.859 433.488, 372.911 436.279, 372.529 438.453 C 371.519 444.194, 368.652 449.237, 364.309 452.914 C 356.378 459.629, 356.350 459.672, 354.660 468.102 C 352.693 477.908, 350.709 481.583, 345.454 485.150 C 338.225 490.058, 335.627 501.130, 340.403 506.682 L 342.805 509.475 360.653 509.219 C 372.439 509.050, 381.159 508.405, 386.329 507.319 C 393.027 505.914, 395.050 505.859, 400.329 506.944 C 403.723 507.640, 416.568 508.443, 428.873 508.727 C 453.769 509.301, 458.282 508.669, 460.260 504.329 C 461.540 501.520, 460.585 500.341, 454.195 496.846 C 449.766 494.423, 448.129 491.263, 446.499 481.994 C 444.993 473.429, 443.534 470.845, 438.831 468.413 C 433.968 465.898, 432.077 461.896, 430.525 450.841 C 428.910 439.330, 427.696 437.474, 422.519 438.598 C 420.859 438.958, 417.779 440.610, 415.676 442.269 C 410.918 446.022, 404.378 447.356, 397.225 446.034 C 390.475 444.786, 390.638 444.901, 386.531 438.482 C 383.683 434.028, 378.953 430, 376.573 430 C 376.283 430, 375.411 431.012, 374.635 432.250 M 392.284 464.704 C 388.239 465.482, 385 470.565, 385 476.137 C 385 480.754, 385.372 481.513, 390.068 486.478 C 398.543 495.439, 405.980 497.412, 412.045 492.309 C 415.144 489.701, 415.228 489.425, 414.743 483.391 C 414.035 474.568, 411.533 469.987, 406 467.380 C 401.106 465.075, 395.772 464.034, 392.284 464.704" stroke="none" fill="#444" fill-rule="evenodd"/></svg>