<svg xmlns="http://www.w3.org/2000/svg" width="50" height="50" viewBox="0 0 50 50" version="1.1">
	<path d="M 45.272 27 C 45.272 29.475, 45.467 30.488, 45.706 29.250 C 45.944 28.012, 45.944 25.988, 45.706 24.750 C 45.467 23.512, 45.272 24.525, 45.272 27 M 4.252 27.500 C 4.263 29.700, 4.468 30.482, 4.707 29.238 C 4.946 27.994, 4.937 26.194, 4.687 25.238 C 4.437 24.282, 4.241 25.300, 4.252 27.500 M 21.300 31 C 21.300 34.025, 21.487 35.263, 21.716 33.750 C 21.945 32.238, 21.945 29.763, 21.716 28.250 C 21.487 26.738, 21.300 27.975, 21.300 31" stroke="none" fill="#555555" fill-rule="evenodd"/>
</svg>