<svg xmlns="http://www.w3.org/2000/svg" width="50" height="50" viewBox="0 0 50 50" version="1.1">
	<path d="M 4.320 22 C 4.320 25.575, 4.502 27.038, 4.723 25.250 C 4.945 23.462, 4.945 20.538, 4.723 18.750 C 4.502 16.962, 4.320 18.425, 4.320 22 M 45.158 21 C 45.158 22.375, 45.385 22.938, 45.662 22.250 C 45.940 21.563, 45.940 20.438, 45.662 19.750 C 45.385 19.063, 45.158 19.625, 45.158 21 M 23.507 24.989 C 23.157 25.555, 23.558 25.723, 24.448 25.382 C 26.180 24.717, 26.497 24, 25.059 24 C 24.541 24, 23.843 24.445, 23.507 24.989 M 30 32 C 31.175 33.650, 32.361 35, 32.636 35 C 32.911 35, 32.175 33.650, 31 32 C 29.825 30.350, 28.639 29, 28.364 29 C 28.089 29, 28.825 30.350, 30 32 M 16.872 34.750 C 15.629 36.336, 15.664 36.371, 17.250 35.128 C 18.916 33.821, 19.445 33, 18.622 33 C 18.415 33, 17.627 33.788, 16.872 34.750 M 33 36.378 C 33 36.585, 33.788 37.373, 34.750 38.128 C 36.336 39.371, 36.371 39.336, 35.128 37.750 C 33.821 36.084, 33 35.555, 33 36.378" stroke="none" fill="#555555" fill-rule="evenodd"/>
</svg>