<svg xmlns="http://www.w3.org/2000/svg" viewBox="0 0 200 150" fill="none"><path d="M35 115 Q45 70 65 55 Q78 48 100 45 Q122 48 135 55 Q155 70 165 115" stroke="#333" stroke-width="2.2" fill="#fafafa"/><path d="M65 55 L42 30 Q38 25 35 28 L55 50" stroke="#333" stroke-width="2" fill="#fff" stroke-linejoin="round"/><path d="M135 55 L158 30 Q162 25 165 28 L145 50" stroke="#333" stroke-width="2" fill="#fff" stroke-linejoin="round"/><path d="M65 55 Q82 72 100 76 Q118 72 135 55" stroke="#333" stroke-width="1.8" fill="none"/><path d="M67 57 L48 34" stroke="#333" stroke-width="1.2"/><path d="M133 57 L152 34" stroke="#333" stroke-width="1.2"/><circle cx="100" cy="50" r="3" fill="none" stroke="#333" stroke-width="1.5"/><circle cx="100" cy="50" r="1" fill="#333"/></svg>