<svg xmlns="http://www.w3.org/2000/svg" width="1000" height="1000" viewBox="0 0 1000 1000" version="1.1"><path d="M 391 224.035 C 356.190 224.958, 333.466 227.716, 313.047 233.498 C 295.156 238.564, 278.128 241.562, 259.289 242.963 C 236.641 244.648, 223.321 248.151, 212.918 255.158 C 208.400 258.201, 200.149 260.975, 187.970 263.547 C 172.818 266.746, 169.765 268.077, 162.817 274.509 C 159.513 277.568, 155.087 280.523, 152.305 281.527 C 140.276 285.867, 135.110 288.909, 127.902 295.891 C 123.866 299.801, 120.219 303, 119.797 303 C 119.375 303, 116.769 304.391, 114.005 306.092 C 110.265 308.393, 107.967 310.887, 105.017 315.842 C 102.838 319.504, 98.362 325.136, 95.072 328.358 C 84.756 338.458, 85.500 329.705, 85.500 441 C 85.500 550.943, 84.973 543.850, 93.975 555.067 C 96.697 558.458, 99.681 563.317, 100.607 565.866 C 104.709 577.152, 107.895 582.942, 113.871 589.973 C 117.390 594.113, 120.926 599.075, 121.728 601 C 126.130 611.564, 128.133 614.595, 132.817 617.784 C 137.463 620.947, 140.282 624.579, 143.831 631.979 C 144.749 633.893, 148.118 637.557, 151.318 640.122 C 154.518 642.688, 159.128 647.524, 161.562 650.870 C 163.997 654.215, 168.247 658.639, 171.007 660.699 C 173.767 662.760, 178.022 667.017, 180.463 670.161 C 182.904 673.304, 187.286 677.737, 190.201 680.013 C 193.115 682.289, 197.768 686.925, 200.539 690.316 C 203.311 693.707, 207.991 698.166, 210.939 700.226 C 213.887 702.285, 218.382 706.564, 220.927 709.735 C 223.473 712.906, 228.261 717.257, 231.567 719.405 C 234.874 721.553, 238.686 724.846, 240.039 726.724 C 245.268 733.979, 246.943 735.593, 252.135 738.383 C 257.913 741.489, 260.103 743.510, 264 749.334 C 265.660 751.815, 268.576 754.101, 272.681 756.138 C 276.080 757.826, 281.179 761.185, 284.012 763.603 C 286.845 766.021, 289.763 768, 290.497 768 C 291.230 768, 293.106 766.570, 294.665 764.821 C 296.224 763.073, 300.774 758.490, 304.776 754.637 C 310.859 748.781, 312.877 745.943, 317.079 737.339 C 321.258 728.781, 323.104 726.177, 328.024 721.898 C 331.691 718.708, 334.738 714.991, 336.033 712.125 C 340.507 702.229, 341.634 700.594, 346.978 696.241 C 350.718 693.195, 353.254 690.091, 354.839 686.622 C 356.125 683.805, 357.831 680.107, 358.630 678.404 C 361.680 671.901, 369.505 664.527, 377.162 660.939 L 384.500 657.500 500.500 657.500 L 616.500 657.500 621.269 660.303 C 623.892 661.845, 629.178 666.185, 633.016 669.948 C 638.562 675.384, 640.792 678.522, 643.877 685.232 C 647.201 692.462, 648.586 694.310, 653.510 698.088 C 659.171 702.432, 660.427 704.191, 665.501 714.889 C 667.167 718.401, 670.433 722.478, 674.878 726.593 C 680.580 731.873, 682.060 733.940, 683.905 739.204 C 687.717 750.082, 689.019 752.430, 692.660 755 C 694.608 756.375, 697.935 759.300, 700.052 761.500 C 708.435 770.208, 709.287 771, 710.276 771 C 710.840 771, 713.640 768.586, 716.498 765.635 C 719.493 762.542, 724.746 758.666, 728.900 756.483 C 733.213 754.217, 736.652 751.654, 737.467 750.098 C 739.382 746.445, 744.635 741.679, 750.500 738.274 C 753.250 736.677, 757.618 732.746, 760.207 729.539 C 762.795 726.331, 767.520 721.920, 770.707 719.737 C 776.493 715.772, 779.864 712.546, 782.768 708.191 C 783.615 706.921, 787.098 703.771, 790.508 701.191 C 793.919 698.611, 799.278 693.462, 802.417 689.750 C 805.557 686.038, 808.540 683, 809.046 683 C 809.553 683, 812.787 680.007, 816.234 676.349 C 822.488 669.711, 834.168 657.628, 848.951 642.500 C 853.251 638.100, 858.213 632.025, 859.979 629 C 861.745 625.973, 865.281 621.926, 867.841 620 C 874.167 615.241, 875.525 613.458, 878.050 606.592 C 879.573 602.449, 882.057 598.714, 886.361 594.092 C 889.738 590.466, 893.481 585.250, 894.680 582.500 C 901.977 565.762, 903.938 562.063, 908.106 557.178 C 916.791 547.001, 916.457 551.328, 916.789 444.626 C 917.120 338.412, 917.652 345.413, 908.569 336.510 C 905.758 333.754, 900.992 328.599, 897.979 325.054 C 888.190 313.538, 880.647 306.862, 870.500 300.732 C 867.200 298.739, 862.925 295.090, 861 292.625 C 857.605 288.276, 849.084 283, 845.456 283 C 843.230 283, 832.019 277.599, 829.500 275.313 C 821.035 267.632, 814.524 264.852, 800.500 262.933 C 789.869 261.478, 782.136 258.775, 773.353 253.443 C 764.610 248.136, 754.931 245.495, 739 244.069 C 732.675 243.503, 722.104 242.562, 715.508 241.977 C 696.949 240.332, 679.863 237.305, 664 232.852 C 654.479 230.178, 645.894 228.468, 639 227.870 C 633.225 227.369, 625.800 226.487, 622.500 225.912 C 608.154 223.408, 459.958 222.206, 391 224.035 M 460.500 235.059 C 427.723 236.354, 403.760 237.793, 396.500 238.900 C 390.060 239.883, 367.886 241.168, 307.500 244.057 C 276.708 245.530, 265.832 247.468, 252.133 253.919 C 239.609 259.818, 232.984 261.686, 219.697 263.066 C 214.305 263.627, 205.904 265.121, 201.029 266.388 C 193.409 268.367, 191.289 269.421, 185.933 273.896 C 177.947 280.569, 175.887 281.589, 165.344 284.093 C 151.838 287.301, 149.645 288.455, 145.667 294.447 C 143.050 298.388, 140.905 300.314, 137.322 301.938 C 127.074 306.584, 125.524 307.639, 122.559 311.986 C 118.852 317.422, 114.693 321.552, 111.223 323.242 C 109.803 323.934, 107.554 326.525, 106.225 329 C 104.048 333.055, 103.861 334.351, 104.330 342.104 C 105.299 358.107, 108.884 361.990, 122.694 361.996 C 132.718 362.001, 135.505 363.802, 137.447 371.534 C 138.960 377.557, 140.522 378.489, 151.508 379.914 C 167.161 381.944, 172.477 385.110, 173.483 393 C 173.798 395.475, 173.667 398.084, 173.190 398.797 C 172.618 399.653, 168.711 400.298, 161.696 400.696 C 145.461 401.615, 140.146 399.029, 137.477 388.913 C 136.710 386.005, 135.276 383.155, 134.291 382.581 C 131.417 380.904, 121.883 378.080, 117 377.458 C 108.052 376.320, 101.488 383.209, 101.811 393.399 C 101.900 396.205, 102.351 431.800, 102.814 472.500 C 103.815 560.583, 103.362 557.076, 115.404 569.898 C 120.788 575.630, 122.185 577.877, 123.940 583.626 C 126.800 592.991, 127.970 594.809, 134.154 599.500 C 138.183 602.556, 140.362 605.259, 143 610.474 C 145.337 615.094, 149.559 620.643, 155.706 627.176 C 160.769 632.556, 166.446 639.357, 168.322 642.289 C 170.529 645.739, 173.631 648.825, 177.116 651.037 C 183.567 655.132, 184.326 655.976, 187.671 662.784 C 190.228 667.989, 191.056 668.832, 200 675.328 C 202.475 677.125, 206.187 681.143, 208.249 684.255 C 210.726 687.994, 213.611 690.835, 216.749 692.627 C 223.098 696.251, 224.587 697.584, 229.164 703.749 C 231.434 706.806, 235.867 710.847, 239.781 713.425 C 243.476 715.860, 248.975 720.434, 252 723.590 C 261.778 733.791, 263.404 735.211, 268.805 738.259 C 271.729 739.909, 275.332 742.865, 276.811 744.827 C 282.666 752.594, 285.627 755, 289.327 755 C 293.059 755, 296.324 752.068, 297.494 747.668 C 299.588 739.791, 300.873 737.390, 305.760 732.230 C 309.546 728.231, 312.659 723.410, 316.063 716.272 C 320.378 707.224, 321.622 705.515, 326.846 701.458 C 332.536 697.040, 338 689.276, 338 685.611 C 338 684.070, 344.700 676.815, 350.148 672.459 C 351.551 671.337, 353.676 667.737, 354.869 664.459 C 356.063 661.182, 357.719 656.649, 358.551 654.386 C 360.104 650.156, 366.387 643, 368.548 643 C 371.250 643, 375.816 636.717, 377.507 630.673 C 379.815 622.422, 382.020 619.595, 388.438 616.657 C 394.464 613.898, 395.501 612.482, 397.103 604.827 C 398.802 596.704, 402.754 590.245, 408.722 585.836 C 414.573 581.514, 416.488 578.484, 418.089 571.021 C 419.375 565.023, 423.031 560.296, 427.953 558.264 C 433.356 556.035, 434.850 554.227, 436.976 547.341 C 439.382 539.551, 442.345 535.392, 447.289 532.860 C 451.731 530.585, 454.408 526.611, 456.625 519 C 460.131 506.964, 461.112 505.084, 466.322 500.417 C 469.170 497.866, 471.857 495.160, 472.292 494.403 C 473.380 492.513, 471.370 489.091, 468.539 488.015 C 467.252 487.525, 451.417 486.202, 433.349 485.073 C 375.924 481.487, 366.562 480.300, 356.770 475.369 C 344.142 469.009, 327.433 465.349, 300.683 463.083 C 286.220 461.858, 279.561 459.644, 275.372 454.666 C 273.280 452.179, 272.888 450.875, 273.302 447.785 C 273.893 443.378, 276.609 440.757, 282.500 438.908 C 289.484 436.717, 298.454 432.261, 300.512 429.962 C 306.157 423.654, 318.005 419.825, 339.136 417.481 C 365.031 414.607, 376.556 412.740, 382 410.536 C 393.472 405.893, 399.820 403.947, 409.868 401.996 C 431.162 397.861, 436.988 397.608, 512.500 397.553 C 600.131 397.489, 602.539 397.714, 624.500 408 C 635.700 413.246, 643.518 415.549, 656.832 417.526 C 670.346 419.533, 673.068 420.771, 680.462 428.275 C 686.555 434.458, 689.295 436.029, 700 439.473 C 713.644 443.864, 717.712 447.433, 714.951 452.591 C 711.730 458.610, 701.004 462.228, 681 464.044 C 664.611 465.531, 653.951 467.975, 640.419 473.348 C 627.550 478.459, 619.564 480.607, 608.468 481.945 C 600.459 482.910, 551.208 484.739, 536.754 484.607 C 529.623 484.542, 528.794 484.751, 526.304 487.241 C 521.263 492.283, 523.299 499.498, 530.641 502.606 C 536.407 505.047, 539.540 509.291, 542.516 518.690 C 546.533 531.377, 546.783 531.767, 553.026 535.094 C 558.733 538.136, 562.973 543.456, 563.022 547.636 C 563.034 548.661, 563.902 551.390, 564.950 553.700 C 566.488 557.085, 567.985 558.471, 572.679 560.851 C 579.264 564.190, 580.642 566.148, 584.041 577 C 586.166 583.787, 587.074 585.169, 593.593 591.539 C 599.500 597.311, 601.086 599.550, 602.399 603.971 C 603.279 606.936, 604 609.922, 604 610.605 C 604 612.966, 608.972 617.744, 612.074 618.365 C 615.959 619.142, 621.670 624.729, 622.528 628.591 C 625.211 640.666, 625.969 642.089, 633.865 649.873 C 639.784 655.706, 641.911 658.558, 642.913 662 C 645.108 669.542, 647.780 673.753, 652.378 676.916 C 657.744 680.608, 661.778 685.268, 662.664 688.797 C 663.845 693.501, 666.916 697.634, 673.777 703.751 C 678.945 708.358, 681.513 711.682, 684.879 718.122 C 687.288 722.730, 691.289 728.897, 693.772 731.827 C 697.944 736.750, 702.920 746.546, 702.976 749.945 C 703.024 752.863, 708.201 757, 711.805 757 C 715.370 757, 716.863 755.729, 726.198 744.745 C 728.232 742.351, 731.157 739.756, 732.698 738.977 C 738.489 736.050, 744.673 731.381, 750.825 725.289 C 754.319 721.829, 760.058 717.388, 763.580 715.418 C 767.101 713.449, 770.999 710.508, 772.241 708.882 C 778.116 701.195, 780.591 698.786, 785.969 695.519 C 790.243 692.923, 792.845 690.343, 795.865 685.707 C 799.056 680.810, 801.303 678.652, 806.020 675.959 C 810.850 673.201, 812.709 671.385, 815.191 667 C 819.030 660.217, 821.320 657.604, 826.676 653.897 C 829.030 652.267, 832.431 648.407, 834.471 645.048 C 836.461 641.771, 840.953 636.576, 844.453 633.504 C 850.145 628.507, 854.505 622.510, 858.999 613.500 C 859.822 611.850, 863.538 607.437, 867.256 603.694 C 873.976 596.928, 877.070 592.183, 878.425 586.561 C 879.363 582.667, 882.469 578.341, 887.645 573.718 C 893.222 568.737, 897.143 558.577, 899.885 542 C 901.858 530.076, 901.943 526.184, 901.727 457.500 C 901.500 385.517, 901.499 385.499, 899.308 381.403 C 896.795 376.707, 893.210 374, 889.505 374 C 888.094 374, 884.296 375.113, 881.064 376.473 C 874.219 379.354, 868.145 380.504, 864.547 379.601 C 862.256 379.026, 862 378.475, 862 374.116 C 862 364.335, 868.670 360.579, 881.067 363.379 C 887.489 364.829, 888.583 364.848, 890.573 363.544 C 893.860 361.390, 895.198 356.108, 895.358 344.657 C 895.539 331.728, 894.631 329.611, 886.715 324.500 C 882.595 321.840, 879.143 318.521, 876.411 314.593 C 873.376 310.231, 870.890 307.956, 866.901 305.891 C 863.930 304.353, 860.916 303.073, 860.202 303.047 C 858.306 302.978, 849.198 296.824, 844.005 292.103 C 839.761 288.245, 829.047 283.032, 825.239 282.973 C 822.344 282.928, 810.230 277.371, 806.877 274.550 C 799.921 268.697, 788.523 265.119, 770 262.973 C 756.239 261.379, 745.851 258.730, 733.261 253.606 C 716.157 246.645, 702.589 244.870, 652 242.975 C 636.325 242.388, 618.550 241.488, 612.500 240.975 C 549.018 235.590, 497.656 233.591, 460.500 235.059 M 843 381.554 C 842.175 381.732, 838.824 382.173, 835.553 382.535 C 827.974 383.374, 823 387.665, 823 393.365 C 823 398.260, 824.868 399.001, 837.184 398.994 C 849.050 398.988, 854.305 397.830, 856.466 394.746 C 858.410 391.970, 859.400 386.732, 858.591 383.507 C 857.994 381.126, 857.623 381.006, 851.231 381.116 C 847.529 381.180, 843.825 381.377, 843 381.554 M 175.309 404.965 C 176.673 416.478, 182.024 420.371, 196.458 420.352 C 208.201 420.336, 212 418.623, 212 413.342 C 212 410.549, 211.247 409.026, 208.658 406.584 C 204.026 402.215, 199.314 400.898, 186.095 400.274 L 174.690 399.736 175.309 404.965 M 792.574 402.438 C 785.596 403.934, 781.991 407.303, 782.015 412.306 C 782.043 417.982, 782.935 418.466, 794.072 418.847 C 813.023 419.495, 817.870 417.407, 818.753 408.214 C 819.223 403.327, 819.103 402.990, 816.560 402.023 C 812.939 400.646, 799.877 400.872, 792.574 402.438 M 502 402.302 C 501.725 402.591, 494.525 403.339, 486 403.964 C 471.399 405.035, 465.534 405.963, 450.068 409.651 C 442.110 411.548, 426.222 413.465, 372.614 418.992 C 359.119 420.383, 347.020 423.459, 340.199 427.232 C 337.065 428.967, 330.900 432.137, 326.500 434.277 C 317.832 438.493, 314.586 441.008, 312.405 445.200 C 310.256 449.331, 310.694 451.628, 314.325 455.258 C 319.351 460.284, 325.951 461.934, 347.500 463.549 C 372.636 465.433, 384.898 467.332, 406.344 472.660 C 417.971 475.548, 428.250 477.435, 435.844 478.075 C 442.255 478.615, 451.355 479.494, 456.068 480.029 C 460.780 480.563, 479.455 480.995, 497.568 480.989 C 526.554 480.979, 532.787 480.686, 549.586 478.538 C 568.662 476.100, 576.898 474.597, 591 470.980 C 603.285 467.829, 622.829 465.015, 642.762 463.527 C 663.483 461.981, 670.898 460.256, 675.165 455.989 C 680.224 450.929, 677.918 442.499, 670.129 437.581 C 668.133 436.320, 664.048 433.196, 661.052 430.638 C 651.027 422.079, 643.648 419.864, 610.500 415.463 C 599.500 414.002, 586.450 411.768, 581.500 410.497 C 576.550 409.227, 568 407.658, 562.500 407.011 C 557 406.364, 549.575 405.170, 546 404.359 C 539.697 402.927, 503.037 401.214, 502 402.302 M 220.250 422.963 C 218.466 423.734, 218 424.745, 218 427.849 C 218 436.908, 229.145 441.258, 247.190 439.243 C 256.851 438.165, 260 436.453, 260 432.279 C 260 424.781, 255.356 422.774, 237 422.336 C 228.958 422.145, 221.498 422.424, 220.250 422.963 M 747.500 422.935 C 737.352 424.271, 732 427.473, 732 432.206 C 732 434.584, 732.642 435.370, 735.586 436.601 C 740.033 438.458, 761.190 438.623, 767.122 436.845 C 773.696 434.876, 776.853 429.024, 773.631 424.782 C 772.063 422.718, 757.148 421.663, 747.500 422.935 M 487.878 512.637 C 485.193 515.722, 484.176 518.326, 482.986 525.161 C 481.496 533.716, 479.337 536.770, 471.770 541.028 C 465.854 544.356, 465.387 544.892, 463.500 550.528 C 460.581 559.245, 458.343 562.370, 452.469 565.930 C 448.212 568.510, 446.822 570.069, 445.110 574.189 C 443.950 576.982, 443 579.869, 443 580.605 C 443 583.952, 438.029 592.756, 434.584 595.511 C 425.955 602.412, 424.078 604.662, 423.397 608.922 C 422.395 615.187, 419.246 619.115, 412.511 622.500 C 405.226 626.161, 403.736 628.642, 404.401 636 C 404.799 640.409, 405.453 641.996, 407.699 644 L 410.500 646.500 499 646.783 C 570.480 647.012, 587.981 646.814, 590 645.755 C 593.244 644.054, 595.329 637.830, 594.511 632.292 C 593.948 628.475, 593.386 627.796, 588.472 624.984 C 582.042 621.305, 579.391 618.198, 577.922 612.619 C 576.352 606.659, 574.657 604.482, 568.535 600.565 C 562.669 596.813, 560.142 592.960, 558.115 584.679 C 556.561 578.329, 552.881 572.651, 548.053 569.153 C 542.320 565, 539.177 560.840, 537.229 554.823 C 534.981 547.883, 533.443 545.894, 528.039 542.939 C 522.527 539.926, 519.455 535.507, 518 528.500 C 517.386 525.543, 515.897 521.661, 514.692 519.873 C 510.451 513.582, 491.506 508.470, 487.878 512.637 M 489.750 569.080 C 487.499 570.391, 487.304 579.698, 489.468 582.559 C 490.276 583.626, 490.951 585.934, 490.968 587.686 C 490.995 590.371, 490.377 591.222, 487.036 593.100 C 481.834 596.023, 479.559 600.746, 480.390 606.896 C 481.077 611.983, 483.430 615.813, 487.096 617.808 C 490.519 619.671, 505.937 618.695, 510.728 616.312 C 515.824 613.777, 517.655 610.701, 519.491 601.584 C 521.231 592.948, 520.881 589.484, 517.683 583.708 C 515.854 580.402, 507.597 574, 505.163 574 C 504.719 574, 502.589 572.663, 500.428 571.028 C 496.374 567.960, 492.794 567.307, 489.750 569.080" stroke="none" fill="#444" fill-rule="evenodd"/></svg>