<svg xmlns="http://www.w3.org/2000/svg" viewBox="0 0 140 90" fill="none">
<path d="M28 68 Q38 50 50 43 L58 39 Q66 35 70 35 Q74 35 82 39 L90 43 Q102 50 112 68" stroke="#555" stroke-width="1.6" fill="#fff"/>
<path d="M50 43 Q53 37 48 28 Q46 24 43 26 Q46 32 50 43" stroke="#555" stroke-width="1.4" fill="#fff"/>
<path d="M90 43 Q87 37 92 28 Q94 24 97 26 Q94 32 90 43" stroke="#555" stroke-width="1.4" fill="#fff"/>
<path d="M58 39 Q66 50 70 52 Q74 50 82 39" stroke="#555" stroke-width="1.2" fill="none"/>
<line x1="53" y1="41" x2="49" y2="31" stroke="#555" stroke-width="1"/>
<line x1="87" y1="41" x2="91" y2="31" stroke="#555" stroke-width="1"/>
<circle cx="70" cy="38" r="1.5" fill="#555"/>
</svg>