<svg xmlns="http://www.w3.org/2000/svg" width="800" height="800" viewBox="0 0 800 800" version="1.1"><path d="M 345 223.618 C 342.525 223.760, 324.750 224.376, 305.500 224.988 C 241.768 227.013, 233.844 227.889, 211.623 235.370 C 204.075 237.911, 193.071 240.692, 185.720 241.916 C 170.115 244.514, 165.646 245.980, 157.739 251.091 C 154.359 253.275, 149.098 255.757, 146.047 256.605 C 133.075 260.213, 130.725 261.313, 124.925 266.488 C 121.073 269.925, 116.491 272.782, 111.762 274.695 C 105.827 277.096, 103.781 278.548, 100.504 282.684 C 98.302 285.464, 94.171 289.182, 91.324 290.947 C 87.593 293.259, 85.568 295.387, 84.074 298.566 C 82.933 300.993, 82 303.359, 82 303.823 C 82 304.288, 80.129 307.331, 77.843 310.584 C 69.190 322.900, 69.874 314.590, 69.853 407.586 C 69.833 494.758, 69.663 491.381, 74.252 494.808 C 75.216 495.528, 77.823 498.793, 80.044 502.065 C 83.175 506.676, 85.367 508.667, 89.792 510.919 C 92.931 512.518, 97.541 516.002, 100.035 518.663 C 103.803 522.682, 105.833 523.897, 112.035 525.849 C 120.362 528.469, 126.500 531.685, 129.499 534.999 C 132.523 538.340, 135.775 539.700, 148.617 542.988 C 157.064 545.151, 162.296 547.158, 167.174 550.105 C 175.450 555.106, 179.686 556.370, 196.868 558.969 C 205.762 560.315, 214.769 562.514, 223.783 565.541 C 242.812 571.931, 254.353 573.639, 290.550 575.422 C 307.572 576.261, 331.625 577.461, 344 578.090 C 374.006 579.614, 457.517 578.749, 485.500 576.623 C 536.949 572.715, 538.199 572.527, 559.583 565.454 C 569.880 562.049, 576.562 560.564, 588.722 558.976 C 607.781 556.489, 612.190 555.306, 622.340 549.958 C 628.132 546.906, 633.225 545.195, 641.837 543.409 C 657.506 540.160, 659.523 539.429, 666.560 534.454 C 670.667 531.551, 676.160 529.015, 683.601 526.586 C 693.088 523.489, 695.175 522.397, 698.949 518.552 C 701.352 516.104, 706.154 512.746, 709.621 511.090 C 714.443 508.787, 716.549 507.070, 718.575 503.789 C 720.033 501.430, 723.458 497.202, 726.186 494.394 L 731.147 489.288 731.142 407.207 C 731.138 344.811, 730.846 324.570, 729.924 322.812 C 729.257 321.541, 727.421 318.854, 725.844 316.842 C 724.268 314.830, 720.918 309.312, 718.400 304.579 C 714.947 298.087, 712.761 295.244, 709.499 293 C 707.122 291.364, 703.074 287.564, 700.505 284.557 C 697.370 280.888, 693.337 277.719, 688.246 274.925 C 684.073 272.635, 678.598 268.853, 676.079 266.520 C 670.493 261.347, 668.651 260.355, 659.246 257.453 C 655.080 256.167, 648.890 253.180, 645.036 250.593 C 637.613 245.613, 633.134 244.236, 615.538 241.525 C 609.509 240.596, 599.384 238.230, 593.038 236.267 C 570.495 229.292, 557.879 227.582, 517.422 226.018 C 502.065 225.425, 478.925 224.505, 466 223.975 C 445.653 223.141, 357.858 222.882, 345 223.618 M 336.500 228.140 C 324.400 228.597, 308.848 229.165, 301.940 229.400 C 288.653 229.853, 275.618 231.730, 262.609 235.064 C 247.624 238.905, 240.439 240.113, 224 241.557 C 196.440 243.978, 190.895 245.341, 178.982 252.625 C 174.877 255.134, 170.482 256.617, 161.832 258.410 C 148.576 261.159, 148.060 261.381, 141.080 267.339 C 137.359 270.515, 133.587 272.506, 127.389 274.566 C 121.046 276.674, 118.197 278.196, 116.368 280.454 C 111.564 286.388, 109.759 288.006, 105.141 290.520 C 102.171 292.136, 99.414 294.733, 97.565 297.655 C 95.967 300.181, 92.525 303.781, 89.917 305.655 C 84.312 309.682, 83 312.785, 83 322.014 C 83 329.779, 84.733 332.803, 91.022 336.011 C 93.691 337.373, 95.713 339.551, 97.678 343.181 C 100.338 348.095, 100.877 348.513, 107.057 350.447 C 115.022 352.940, 116.902 354.259, 120.378 359.789 C 123.494 364.746, 124.690 365.308, 135.482 366.888 C 145.951 368.421, 149.821 370.428, 153.500 376.234 C 157.277 382.194, 158.970 382.727, 176 383.318 C 185.095 383.633, 191.038 384.337, 194.213 385.474 C 198.731 387.093, 200.264 388.334, 207.065 395.884 C 209.972 399.110, 210.362 399.242, 215.421 398.720 C 221.259 398.118, 228.915 395.172, 236.288 390.691 C 244.658 385.605, 248.987 384.746, 268 384.403 C 277.625 384.230, 287.003 383.815, 288.840 383.482 C 290.747 383.136, 294.049 381.152, 296.539 378.857 C 300.024 375.645, 302.609 374.368, 309.422 372.494 C 321.517 369.166, 335.396 368.153, 377 367.559 C 428.734 366.821, 465.730 368.652, 479.058 372.610 C 484.191 374.134, 485.348 375.061, 491.400 382.500 L 493.841 385.500 512.171 385.196 C 533.624 384.840, 539.533 385.743, 546.642 390.463 C 552.555 394.389, 560.337 396.902, 567.372 397.157 C 571.943 397.323, 572.454 397.080, 575.656 393.226 C 580.819 387.010, 587.193 385.003, 605.500 383.831 C 625.197 382.569, 627.204 382.003, 630.701 376.725 C 635.088 370.104, 640.660 367.865, 654.283 367.249 C 660.452 366.970, 666.286 366.334, 667.246 365.837 C 668.207 365.340, 670.007 362.838, 671.246 360.276 C 674.306 353.953, 676.976 352.364, 687.500 350.603 C 696.904 349.029, 697.215 348.839, 702.348 341.504 C 703.365 340.052, 707.039 337.506, 710.512 335.846 C 718.070 332.236, 719.599 329.574, 718.570 321.818 C 717.495 313.713, 715.654 310.411, 710.381 307.129 C 707.236 305.172, 704.568 302.372, 702.516 298.878 C 700.282 295.072, 697.943 292.727, 694.176 290.515 C 691.124 288.723, 687.758 285.655, 686.106 283.160 C 682.653 277.944, 680.751 276.548, 674.977 274.994 C 668.698 273.303, 663.991 270.704, 660.500 267 C 656.113 262.345, 651.445 260.312, 640.971 258.495 C 630.542 256.686, 626.702 255.301, 619.760 250.846 C 610.716 245.043, 607.014 244.351, 567 240.987 C 559.639 240.368, 547.400 238.315, 537.230 235.994 C 527.732 233.825, 516.257 231.591, 511.730 231.029 C 485.219 227.735, 389.103 226.150, 336.500 228.140 M 704.557 356.223 C 703.701 357.445, 703 359.063, 703 359.818 C 703 362.315, 699.661 366.898, 697.059 367.970 C 695.652 368.550, 691.123 369.610, 686.995 370.326 C 677.744 371.929, 676.384 372.669, 673.653 377.589 C 670.572 383.141, 666.611 384.672, 652.405 385.802 C 645.753 386.331, 639.334 387.286, 638.140 387.925 C 636.947 388.563, 634.822 390.905, 633.419 393.129 C 629.064 400.027, 624.691 401.280, 604 401.555 C 593.681 401.692, 585.269 402.265, 583.500 402.949 C 581.850 403.588, 578.624 406.056, 576.332 408.434 C 573.754 411.107, 570.320 413.389, 567.332 414.415 C 559.130 417.232, 543.408 418.208, 527.090 416.914 C 510.490 415.597, 484.627 416.340, 473.595 418.450 C 469.625 419.210, 462.145 421.737, 456.972 424.066 C 445.958 429.026, 447.870 428.862, 395.954 429.283 L 362.408 429.555 352.130 435.426 C 346.477 438.654, 341.147 442.372, 340.286 443.687 C 336.295 449.777, 335.884 455.540, 335.454 511.500 C 335.158 549.971, 335.361 566.304, 336.160 568.297 C 338.603 574.388, 338.285 574.354, 396.500 574.731 C 437.983 575, 453.629 574.738, 468.500 573.526 C 497.281 571.180, 503.218 570.187, 519.500 565 C 530.659 561.445, 536.804 560.056, 543.500 559.574 C 571.253 557.576, 582.648 555.309, 592.779 549.768 C 598.989 546.372, 602.073 545.450, 613.779 543.487 C 633.246 540.223, 635.994 539.371, 644.621 533.924 C 650.295 530.340, 654.303 528.640, 659.906 527.440 C 674.253 524.367, 678.104 522.788, 683.223 517.880 C 686.433 514.802, 690.140 512.490, 694.276 510.986 C 698.875 509.314, 701.806 507.371, 705.500 503.542 C 708.250 500.692, 711.761 497.537, 713.301 496.532 C 719.354 492.580, 719.162 494.950, 719.236 423.219 L 719.303 357.664 717.041 355.832 C 713.691 353.120, 706.574 353.342, 704.557 356.223 M 84.482 357.262 L 81.852 359.524 81.877 423.512 C 81.890 458.705, 81.923 488.345, 81.951 489.379 C 81.978 490.412, 85.863 495.205, 90.584 500.030 C 97.115 506.703, 100.644 509.458, 105.334 511.542 C 108.725 513.048, 113.586 516.212, 116.135 518.573 C 119.843 522.006, 122.546 523.404, 129.635 525.554 C 140.102 528.729, 143.132 530.177, 148.532 534.590 C 153.826 538.915, 155.986 539.685, 172.118 542.997 C 183.108 545.253, 187.372 546.655, 194.213 550.264 C 204.141 555.500, 211.679 557.108, 237.500 559.494 C 255.972 561.201, 257.219 561.449, 273.478 566.649 C 290.846 572.203, 310.511 572.580, 315.634 567.457 L 318 565.091 318 527.769 C 318 507.242, 317.544 486.807, 316.986 482.358 C 316.195 476.054, 316.286 472.747, 317.396 467.384 C 318.179 463.598, 319.329 455.325, 319.951 449 C 321.792 430.279, 321.934 429.584, 324.528 426.566 C 327.013 423.674, 327.518 421.512, 326.393 418.582 C 325.399 415.991, 322.162 416.771, 318.433 420.500 C 316.508 422.425, 314.829 424, 314.701 424 C 314.574 424, 308.851 422.150, 301.985 419.888 C 288.019 415.289, 276.195 413.800, 264.434 415.160 C 242.633 417.680, 234.279 418.092, 226.362 417.038 C 213.017 415.262, 208.276 413.438, 202.772 407.963 C 197.178 402.398, 196.999 402.355, 176.213 401.615 C 160.327 401.050, 155.718 399.402, 152.121 393.001 C 149.186 387.779, 147.688 387.086, 136.714 385.871 C 124.514 384.521, 119.950 382.451, 116.873 376.873 C 114.628 372.802, 113.999 372.386, 107.483 370.654 C 98.990 368.396, 98.272 367.845, 95.410 361.385 C 92.342 354.458, 89.144 353.252, 84.482 357.262 M 447.833 384.500 C 447.505 384.828, 415.506 385.187, 376.724 385.298 C 308.939 385.492, 306.129 385.574, 304.105 387.405 C 300.041 391.083, 302.392 398.146, 309.480 403.553 C 312.370 405.757, 314.628 406.476, 320.315 407.001 C 324.267 407.367, 328.779 408.373, 330.342 409.237 C 331.905 410.101, 336.855 411.097, 341.342 411.450 C 345.829 411.802, 356.025 413.250, 364 414.667 C 379.585 417.435, 378.275 417.437, 410.692 414.611 C 424.287 413.426, 427.816 412.769, 432.692 410.517 C 437.275 408.401, 440.821 407.666, 449.500 407.034 C 470.573 405.498, 488.844 395.602, 484.177 388.252 C 483.741 387.565, 480.935 386.587, 477.942 386.079 C 470.950 384.891, 448.613 383.720, 447.833 384.500 M 367.500 449.560 C 357.874 453.914, 357.297 454.360, 355.378 458.920 C 350.375 470.810, 351.617 478.110, 360.245 487.526 C 368.296 496.313, 372.092 498.158, 382.117 498.158 C 395.333 498.158, 399.902 496.317, 403.554 489.522 C 404.626 487.528, 407.389 484.793, 409.704 483.436 C 415.235 480.191, 417 477.480, 417 472.228 C 417 466.296, 415.288 463.496, 407.320 456.398 C 397.648 447.780, 395.183 446.687, 384.500 446.282 C 375.947 445.958, 375.103 446.120, 367.500 449.560 M 372.073 466.635 C 369.290 470.172, 369.370 475.321, 372.250 478.068 C 374.329 480.052, 375.215 480.170, 383.900 479.624 C 395.109 478.920, 398 477.494, 398 472.668 C 398 466.219, 393.729 464.070, 380.823 464.024 C 374.786 464.002, 373.946 464.253, 372.073 466.635 M 373 511.935 C 356.186 517.068, 348.371 533.514, 355.485 548.795 C 357.509 553.142, 358.726 554.434, 362.287 556.009 C 373.185 560.830, 390.302 562.601, 397.282 559.631 C 399.052 558.877, 402.889 555.952, 405.809 553.131 C 408.729 550.309, 411.548 548, 412.074 548 C 414.150 548, 416.993 541.435, 416.996 536.632 C 417 532.208, 416.625 531.421, 412.891 527.992 C 406.274 521.917, 405.072 520.695, 402.005 516.923 C 400.245 514.759, 397.549 512.882, 395.182 512.173 C 390.872 510.881, 376.940 510.732, 373 511.935 M 372.862 529.887 C 369.430 532.595, 368.611 536.134, 370.417 540.456 C 372.143 544.588, 374.862 545.527, 382.498 544.629 C 390.615 543.675, 395.249 541.821, 396.905 538.865 C 398.226 536.507, 398.204 535.960, 396.693 533.654 C 394.841 530.828, 390.890 529.476, 381.500 528.457 C 376.335 527.897, 375.133 528.096, 372.862 529.887" stroke="none" fill="#444" fill-rule="evenodd"/></svg>