<svg xmlns="http://www.w3.org/2000/svg" width="1000" height="1000" viewBox="0 0 1000 1000" version="1.1"><path d="M 327.930 199.403 C 327.680 199.653, 316.006 200.563, 301.988 201.426 C 252.440 204.474, 242.353 206.074, 227 213.318 C 216.211 218.408, 206.697 221.531, 197.500 223 C 186.122 224.818, 178.395 227.789, 171.700 232.920 C 164.311 238.584, 159.226 241.324, 152.994 243 C 146.287 244.805, 143.587 246.469, 135.861 253.559 C 131.994 257.107, 125.607 261.869, 121.666 264.141 C 112.606 269.365, 110.804 271.011, 105.413 279 C 103 282.575, 99.451 287.525, 97.526 290 C 91.847 297.302, 88.089 304.215, 87.472 308.495 C 87.154 310.698, 87.030 353.900, 87.197 404.500 L 87.500 496.500 90.142 501.617 C 91.595 504.431, 94.367 509.036, 96.302 511.849 C 98.237 514.662, 100.536 518.997, 101.410 521.482 C 102.285 523.967, 103.738 528.138, 104.641 530.750 C 105.794 534.088, 108.157 537.322, 112.591 541.631 C 117.842 546.734, 119.800 549.669, 124.268 559.131 C 128.503 568.102, 130.464 571.121, 133.567 573.442 C 139.395 577.801, 141.279 580.044, 144.545 586.514 C 146.463 590.312, 148.843 593.268, 151.325 594.934 C 158.181 599.533, 161.977 603.150, 163.651 606.677 C 165.727 611.053, 169.897 615.249, 174.195 617.288 C 178.128 619.155, 180.606 621.774, 184.581 628.271 C 187.205 632.559, 193.514 638, 195.863 638 C 196.861 638, 201.367 643.118, 206.306 649.861 C 208.099 652.308, 211.694 655.407, 214.500 656.923 C 217.866 658.742, 221.076 661.728, 224.324 666.062 C 227.574 670.399, 230.903 673.496, 234.527 675.553 C 241.151 679.312, 243.417 681.318, 247.145 686.721 C 249.248 689.770, 252.444 692.270, 258.654 695.721 C 263.485 698.407, 270.695 703.667, 275.112 707.730 C 279.711 711.962, 285.859 716.414, 289.931 718.465 C 294.279 720.655, 297.944 723.362, 299.695 725.677 C 304.536 732.076, 308.303 735.204, 314.555 738.017 C 318.704 739.884, 322.165 742.468, 325.555 746.231 C 329.382 750.480, 332.874 752.926, 341 757.049 C 348.656 760.933, 353.078 763.960, 357.327 768.223 C 361.620 772.530, 365.575 775.224, 372.349 778.453 C 379.862 782.035, 382.146 783.675, 384.833 787.417 C 391.117 796.167, 409.907 802.267, 420.101 798.866 C 424.491 797.401, 429.688 792.480, 430.971 788.572 C 431.526 786.882, 432.885 771.550, 433.991 754.500 C 435.098 737.450, 436.437 718.775, 436.968 713 C 437.498 707.225, 437.955 695.525, 437.982 687 C 438.053 664.970, 441.238 631.099, 443.618 627.069 C 447.264 620.897, 455.349 618.556, 478.012 617.110 C 496.474 615.932, 504.264 613.824, 512.655 607.739 C 522.726 600.435, 525.097 599.657, 538.500 599.256 C 553.067 598.820, 556.269 599.989, 559.706 607 C 561.745 611.158, 561.956 613.400, 562.488 636.500 C 563.061 661.427, 565.165 698.977, 567 717 C 567.532 722.225, 568.430 732.350, 568.996 739.500 C 569.982 751.947, 572.002 768.838, 574.006 781.377 C 575.788 792.528, 580.707 798.991, 588.617 800.573 C 590.470 800.944, 595.087 800.017, 601.502 797.986 C 610.948 794.995, 611.831 794.475, 617.500 788.557 C 623.663 782.123, 625.331 780.989, 635.298 776.450 C 638.487 774.998, 643.597 771.502, 646.655 768.683 C 654.537 761.413, 657.115 759.663, 665.278 756.042 C 671.069 753.474, 673.344 751.774, 676.760 747.466 C 679.974 743.411, 682.673 741.307, 687.760 738.887 C 692.540 736.613, 696.535 733.603, 701.500 728.532 C 706.455 723.472, 710.945 720.087, 716.870 716.942 C 721.937 714.253, 727.760 710.068, 731.624 706.338 C 735.135 702.950, 741.299 698.370, 745.322 696.162 C 750.645 693.241, 753.402 690.971, 755.450 687.824 C 758.835 682.623, 762.305 679.499, 766.986 677.439 C 771.367 675.511, 774.539 672.599, 777.761 667.546 C 780.880 662.656, 783.166 660.651, 789.284 657.441 C 792.750 655.623, 795.071 653.356, 797.704 649.216 C 801.733 642.881, 804.040 640.547, 808.500 638.293 C 812.388 636.327, 818 630.989, 818 629.256 C 818 627.497, 827.497 618, 829.256 618 C 830.955 618, 836.264 612.465, 838.368 608.500 C 840.769 603.973, 843.157 601.528, 848.307 598.323 C 852.866 595.485, 858 589.745, 858 587.484 C 858 585.460, 863.394 579.177, 868.353 575.424 C 872.258 572.469, 873.936 570.163, 876.944 563.626 C 879.493 558.084, 882.719 553.271, 887.091 548.490 C 893.227 541.779, 895.777 537.329, 899.615 526.633 C 900.579 523.945, 903.523 519.400, 906.190 516.482 C 911.290 510.902, 913.313 507.030, 914.956 499.697 C 915.584 496.894, 916.016 460.181, 916.109 401.790 C 916.239 319.883, 916.069 308.007, 914.734 305.434 C 913.031 302.152, 903.699 291.974, 888 276.277 C 880.710 268.987, 875.666 264.855, 871.500 262.760 C 867.893 260.946, 862.898 257.092, 858.975 253.094 C 852.797 246.798, 851.955 246.296, 843.172 243.660 C 834.267 240.987, 828.006 237.747, 817.742 230.500 C 814.178 227.984, 810.539 226.615, 803.242 225.046 C 797.884 223.894, 790.497 222.302, 786.827 221.508 C 783.157 220.713, 775.732 218.087, 770.327 215.672 C 750.121 206.642, 738.681 204.385, 705.894 202.961 C 692.477 202.378, 676.775 201.404, 671 200.795 C 660.737 199.713, 328.966 198.367, 327.930 199.403 M 364 203.025 C 330.902 203.708, 308.320 205.181, 286.738 208.062 C 279.191 209.070, 269.616 212.126, 262.162 215.906 C 256.495 218.781, 243.008 221.782, 226 223.953 C 207.423 226.324, 201.378 228.180, 193.667 233.877 C 186.783 238.962, 180.989 241.675, 174.299 242.943 C 164.139 244.870, 157.999 247.983, 150.328 255.095 C 145.191 259.858, 141.668 262.282, 138.730 263.073 C 131.156 265.112, 127.383 267.666, 124.490 272.710 C 121.322 278.233, 119.265 280.148, 112.954 283.449 C 106.319 286.920, 104.534 290.802, 105.292 300.115 C 106.120 310.293, 108.356 318.060, 111.096 320.279 C 113.080 321.885, 114.477 322.035, 122.012 321.445 C 132.756 320.605, 135.816 321.862, 138.400 328.181 C 142.196 337.462, 142.151 337.415, 148.528 338.754 C 164.409 342.090, 167.549 343.112, 170.280 345.831 C 173.176 348.714, 174.724 354.534, 173.198 356.798 C 171.883 358.748, 162.320 360.975, 155.200 360.988 C 145.572 361.006, 141.259 358.067, 138.147 349.369 C 137.043 346.283, 135.525 344.093, 133.958 343.324 C 128.720 340.755, 115.400 335.990, 113.473 335.995 C 110.422 336.003, 107.207 338.674, 104.969 343.060 C 103.005 346.911, 102.974 348.458, 103.410 422.244 C 103.689 469.424, 104.256 499.789, 104.931 503.636 C 106.530 512.755, 108.429 516.429, 114.878 522.878 C 119.518 527.518, 121.273 530.220, 123.466 536.105 C 128.899 550.679, 129.089 550.986, 135.250 555.170 C 138.474 557.359, 141.607 560.354, 142.214 561.825 C 147.165 573.840, 147.730 574.671, 153.621 578.590 C 157.589 581.229, 160.313 583.984, 162 587.066 C 165.604 593.649, 167.887 596.167, 173.296 599.523 C 176.504 601.514, 179.389 604.541, 182.005 608.659 C 184.359 612.367, 188.295 616.649, 191.891 619.416 C 195.177 621.945, 199.319 626.256, 201.095 628.997 C 203.181 632.216, 206.733 635.611, 211.130 638.588 C 215.494 641.543, 219.165 645.043, 221.365 648.348 C 224.899 653.657, 228.898 657.198, 232.734 658.415 C 235.262 659.218, 243 667.640, 243 669.590 C 243 671.291, 248.249 675.217, 254.275 678.021 C 258.994 680.218, 260.471 681.678, 265.889 689.509 C 267.827 692.309, 270.626 694.475, 275.176 696.693 C 279.864 698.979, 283.162 701.570, 286.949 705.942 C 291.087 710.718, 294.163 713.022, 301.355 716.732 C 307.849 720.082, 312.397 723.341, 317.043 727.975 C 321.600 732.519, 325.911 735.630, 331.242 738.224 C 337.538 741.286, 339.637 742.948, 343.058 747.578 C 347.247 753.249, 348.907 754.294, 360.366 758.478 C 363.382 759.579, 367.753 762.593, 371.866 766.407 C 375.515 769.791, 381.200 773.832, 384.500 775.387 C 387.800 776.942, 391.588 778.728, 392.918 779.357 C 395.338 780.501, 403 789.398, 403 791.064 C 403 792.366, 408.530 795, 411.262 795 C 416.797 795, 420.024 787.316, 418.568 777.603 C 418.205 775.185, 418.605 763.823, 419.455 752.353 C 421.671 722.479, 422.870 713.819, 429.124 682.500 C 430.950 673.353, 432.501 661.452, 433.097 652 C 434.502 629.722, 435.681 618.188, 438.004 604 C 439.130 597.125, 440.472 586.550, 440.986 580.500 C 441.500 574.450, 442.470 565.590, 443.143 560.812 C 444.137 553.742, 444.111 550.575, 443.004 543.812 C 442.163 538.682, 441.569 525.928, 441.451 510.500 C 441.222 480.456, 442.380 470.605, 446.785 465.107 C 452.875 457.507, 453.695 452.475, 449.480 448.569 C 445.592 444.965, 440.171 444.007, 418 443 C 387.576 441.620, 378.758 440.082, 360.344 432.949 C 346.241 427.486, 335.797 425.198, 321.636 424.471 C 304.137 423.572, 294.970 422.355, 288.335 420.051 C 278.537 416.649, 273.640 409.279, 277.003 402.995 C 277.554 401.965, 281.669 399.288, 286.148 397.046 C 290.626 394.805, 295.988 391.437, 298.063 389.562 C 300.138 387.688, 302.885 385.474, 304.168 384.643 C 308.079 382.110, 321.686 379.069, 336.466 377.425 C 362.108 374.574, 372.972 372.327, 386.936 366.987 C 394.128 364.237, 403.888 361.335, 408.730 360.506 C 429.421 356.965, 526.915 354.856, 570 357.018 C 606.117 358.830, 616.022 360.619, 628 367.498 C 636.882 372.599, 643.471 374.743, 657.141 376.978 C 663.544 378.025, 670.458 379.582, 672.507 380.438 C 674.555 381.294, 679.048 384.868, 682.491 388.379 C 687.211 393.193, 690.196 395.301, 694.626 396.948 C 705.234 400.894, 712 405.855, 712 409.688 C 712 412.142, 705.919 417.789, 700.995 419.907 C 697.268 421.510, 691.723 422.440, 679.462 423.518 C 651.428 425.983, 644.653 427.368, 631.244 433.379 C 618.178 439.235, 610.822 440.730, 588.439 442.079 C 571.794 443.081, 568.862 443.519, 564.233 445.691 C 560.769 447.318, 558.424 449.212, 557.381 451.230 C 555.901 454.093, 555.945 454.854, 558.054 462.700 C 560.163 470.547, 560.272 472.412, 559.702 490.824 C 559.141 508.936, 558.479 516.900, 554.910 548.500 C 552.964 565.721, 553.002 566.021, 557.876 572.340 C 563.845 580.076, 565.550 587.608, 567.987 617 C 568.985 629.039, 570.311 637.919, 575.454 667 C 578.406 683.692, 578.646 685.576, 580.423 706 C 582.229 726.766, 583.178 748.205, 583.359 772.337 L 583.500 791.174 586.306 793.587 C 591.267 797.854, 596.422 796.132, 601.985 788.349 C 606.693 781.761, 608.181 780.669, 618.028 776.563 C 624.951 773.677, 627.883 771.722, 633.610 766.174 C 638.856 761.092, 641.995 758.905, 645.852 757.643 C 653.180 755.246, 656.219 753.167, 660.722 747.471 C 663.611 743.817, 666.904 741.292, 673.080 737.997 C 678.124 735.307, 684.352 730.831, 688.614 726.833 C 693.144 722.583, 698.617 718.706, 703.685 716.158 C 709.025 713.473, 712.600 710.898, 714.553 708.329 C 719.019 702.453, 721.826 700.185, 728.675 696.917 C 732.140 695.263, 735.768 692.761, 736.737 691.356 C 740.909 685.312, 745.569 680.821, 750.334 678.252 C 753.474 676.560, 757.287 673.201, 760.235 669.531 C 762.922 666.186, 767.734 661.843, 771.180 659.652 C 776.419 656.321, 789.167 644.430, 815.894 617.945 C 825.255 608.669, 837.381 595.570, 839.500 592.448 C 841.444 589.582, 843.445 587.511, 851.751 579.770 C 853.952 577.719, 856.555 574.344, 857.535 572.270 C 860.765 565.439, 863.943 561.435, 868.342 558.654 C 873.014 555.701, 875.779 551.502, 878.427 543.339 C 879.564 539.834, 881.964 536.145, 885.906 531.839 C 893.733 523.291, 895.642 519.135, 899.085 503.147 L 902.025 489.500 902.098 417.789 L 902.172 346.078 899.965 342.152 C 898.217 339.041, 896.767 337.906, 892.986 336.684 C 888.356 335.189, 887.940 335.231, 879.106 338.071 C 874.098 339.682, 868.255 341, 866.122 341 C 861.489 341, 860.461 342.080, 859.489 347.965 C 858.542 353.701, 854.600 357.537, 848.769 358.398 C 843.065 359.240, 825.342 359.330, 824.037 358.523 C 822.917 357.831, 822.622 351.149, 823.599 348.602 C 825.017 344.907, 830.425 343.051, 843.096 341.911 C 857.852 340.584, 859.760 339.968, 860.518 336.284 C 863.196 323.275, 864.286 322.500, 879.921 322.500 L 891.404 322.500 893.790 319 C 896.008 315.747, 896.150 314.758, 895.792 305 C 895.312 291.878, 894.131 289.415, 886.314 285.245 C 880.428 282.104, 877.590 279.513, 872.668 272.784 C 870.738 270.145, 867.709 268.029, 862.225 265.486 C 849.463 259.570, 846.704 257.902, 842 253.259 C 836.090 247.426, 832.076 245.470, 821.088 243.072 C 810.096 240.673, 805.574 238.752, 796.839 232.770 C 789.145 227.501, 779.114 224.688, 761.892 222.971 C 745.938 221.381, 740.856 220.260, 723.433 214.493 C 707.672 209.275, 706.715 209.091, 681.900 206.488 C 662.179 204.419, 648.340 203.655, 620 203.073 C 572.326 202.093, 410.605 202.062, 364 203.025 M 179.845 360.602 C 176.650 361.583, 176.527 369.742, 179.631 374.729 C 182.433 379.230, 186.566 380.423, 199.500 380.463 C 215.492 380.512, 217 380.053, 217 375.129 C 217 369.174, 213.529 364.858, 206.988 362.680 C 201.669 360.909, 183.399 359.510, 179.845 360.602 M 500.821 361.512 C 500.540 361.794, 492.252 362.444, 482.405 362.958 C 470.213 363.594, 462.107 364.533, 457 365.901 C 432.822 372.377, 421.551 374.230, 389.500 377 C 350.188 380.396, 343.074 382.050, 330.017 390.829 C 316.315 400.041, 311.997 407.913, 317.092 414.390 C 321.350 419.803, 328.801 421.640, 352 422.996 C 361.625 423.559, 375.354 424.703, 382.509 425.538 C 394.717 426.964, 400.085 427.940, 422.500 432.811 C 427.450 433.887, 435.325 435.071, 440 435.443 C 444.675 435.814, 450.075 436.879, 452 437.809 C 455.587 439.542, 455.679 439.726, 458.945 451.794 C 460.780 458.577, 464.626 462.162, 470.693 462.745 C 473.484 463.013, 477.338 462.713, 479.258 462.080 C 484.827 460.242, 491.641 454.827, 495.941 448.822 C 501.677 440.812, 504.396 439.801, 522.619 438.910 C 530.935 438.503, 541.510 437.502, 546.119 436.685 C 550.729 435.868, 558.100 434.671, 562.500 434.025 C 566.900 433.378, 574.100 431.990, 578.500 430.938 C 592.867 427.505, 609.189 425.158, 626.500 424.037 C 668.565 421.312, 677 418.839, 677 409.233 C 677 405.032, 674.587 400.935, 668.805 395.319 C 666.437 393.020, 662.933 389.519, 661.018 387.540 C 655.946 382.297, 645.856 379.423, 623.628 376.889 C 602.233 374.450, 591.744 372.351, 579.500 368.061 C 571.892 365.395, 567.329 364.608, 550 362.973 C 531.034 361.183, 502.012 360.321, 500.821 361.512 M 789.534 362.417 C 782.972 364.245, 780 367.706, 780 373.521 C 780 379.039, 781.541 380, 790.393 380 C 801.879 380, 811.468 378.099, 814.907 375.140 C 818.219 372.291, 819.922 365.780, 818.079 363.012 C 816.688 360.924, 796.413 360.502, 789.534 362.417 M 230.500 381.757 C 220.855 382.171, 220 382.547, 220 386.371 C 220 391.137, 223.776 396.224, 228.537 397.871 C 230.979 398.716, 237.360 399.292, 245.169 399.371 C 256.587 399.487, 258.117 399.293, 260.669 397.401 C 262.531 396.021, 263.608 394.220, 263.814 392.139 C 264.490 385.336, 254.695 380.460, 241.829 381.195 C 238.898 381.363, 233.800 381.616, 230.500 381.757 M 739.589 383.054 C 730.924 385.228, 726.435 390.207, 728.932 394.873 C 731.930 400.476, 755.824 401.191, 766.031 395.984 C 773.062 392.397, 774.702 387.169, 769.764 384.085 C 766.980 382.346, 745.355 381.608, 739.589 383.054 M 525.145 447.947 C 523.300 448.411, 518.783 450.845, 515.108 453.356 C 507.709 458.412, 499.349 462.375, 494 463.362 C 488.770 464.328, 483.695 467.872, 479.019 473.824 C 476.719 476.752, 472.758 480.466, 470.218 482.077 C 467.677 483.688, 464.775 486.307, 463.769 487.896 C 460.677 492.780, 459.431 506.341, 460.808 520.120 C 462.404 536.084, 465.022 542, 470.489 542 C 472.930 542, 473.507 540.886, 477.400 528.657 C 479.487 522.102, 483.771 518.526, 491.440 516.938 C 494.773 516.247, 499.918 514.629, 502.874 513.341 C 509.839 510.307, 511.038 510.383, 514.563 514.082 C 518.431 518.140, 523.089 520.001, 529.372 519.996 C 536.333 519.991, 540.511 517.363, 542.126 511.975 C 543.151 508.553, 543.080 506.386, 541.705 499.178 C 540.795 494.405, 539.763 485.550, 539.413 479.500 C 538.848 469.726, 539.023 467.798, 540.984 462.199 C 543.466 455.111, 543.121 451.781, 539.669 449.519 C 536.779 447.625, 529.542 446.842, 525.145 447.947 M 505.500 538.433 C 501.282 540.338, 490.500 549.316, 490.500 550.924 C 490.500 551.659, 492.975 553.665, 496 555.380 C 500.777 558.090, 502.464 558.500, 508.836 558.500 C 515.339 558.500, 516.390 558.232, 518.086 556.139 C 522.942 550.150, 517.698 536.901, 510.527 537.039 C 509.412 537.061, 507.150 537.688, 505.500 538.433 M 465.939 556.643 C 460.978 559.724, 458.972 564.093, 457.941 574.063 C 456.383 589.125, 458.826 601.657, 464.534 607.885 C 467.461 611.079, 468.364 611.480, 472.282 611.332 C 474.796 611.237, 480.570 609.556, 485.609 607.453 C 496.003 603.115, 513.032 598, 517.080 598 C 521.878 598, 530.342 595.878, 533.720 593.828 C 537.345 591.628, 539.268 586.591, 538.311 581.805 C 537.230 576.400, 531.591 575.908, 518.145 580.045 C 508.697 582.952, 492.995 582.803, 487.020 579.750 C 481.740 577.052, 479.112 572.490, 478.299 564.605 C 477.394 555.835, 472.411 552.625, 465.939 556.643" stroke="none" fill="#444" fill-rule="evenodd"/></svg>