<svg xmlns="http://www.w3.org/2000/svg" width="1000" height="1000" viewBox="0 0 1000 1000" version="1.1"><path d="M 510 290.606 C 472.445 291.521, 431.861 294.359, 404 298.019 C 384.814 300.539, 369.306 301.777, 341.500 303.010 C 305.094 304.623, 290.423 306.876, 273.500 313.451 C 258.627 319.230, 253.159 320.711, 242 321.981 C 210.929 325.520, 204.244 327.103, 194.926 333.128 C 186.459 338.602, 181.651 340.586, 172.272 342.475 C 155.971 345.759, 151.457 347.622, 144.475 353.950 C 139.747 358.234, 136.018 360.581, 130.742 362.594 C 124.416 365.008, 122.358 366.505, 114.470 374.429 C 109.504 379.418, 104.704 385.075, 103.804 387 C 99.864 395.424, 98.920 404.558, 97.501 448 C 94.229 548.179, 93.938 559.090, 94.515 560.025 C 95.419 561.487, 93.087 588.403, 91.338 596.703 C 89.414 605.835, 90.097 608.780, 95.550 614.844 C 97.971 617.537, 101.149 622.162, 102.611 625.120 C 106.269 632.522, 107.493 633.718, 115.436 637.646 C 119.834 639.821, 124.282 643.079, 127.593 646.553 C 133.347 652.589, 137.604 654.822, 149.354 657.965 C 158.788 660.488, 162.952 662.523, 169.867 667.989 C 177.337 673.894, 184.146 676.091, 200.841 677.982 C 209.921 679.011, 224.561 683.022, 228.446 685.545 C 237.663 691.532, 260.363 696.464, 283.500 697.507 C 309.010 698.656, 326.842 700.115, 350.500 702.988 C 397.169 708.654, 435.716 710.528, 476.438 709.110 C 553.725 706.417, 571.603 705.267, 601.803 701.041 C 605.486 700.525, 618.175 699.614, 630 699.016 C 686.523 696.158, 698.381 694.542, 714.587 687.485 C 726.454 682.318, 737.208 679.565, 751.500 678.036 C 771.982 675.845, 778.494 674.020, 787 668.089 C 794.865 662.604, 800.087 660.489, 812 657.963 C 826.319 654.927, 831.597 652.672, 837.545 647.046 C 843.464 641.448, 846.327 639.851, 854.500 637.591 C 864.900 634.714, 868.330 632.816, 874.693 626.416 C 879.199 621.882, 882.437 619.606, 886.585 618.054 C 893.232 615.567, 895.964 613.587, 900.323 608.095 C 902.070 605.893, 905.733 602.507, 908.461 600.571 C 917.018 594.500, 916.962 594.773, 916.430 561.500 C 916.175 545.550, 915.806 500.739, 915.609 461.920 C 915.335 407.682, 914.960 390.779, 913.992 388.920 C 913.299 387.589, 910.205 383.795, 907.116 380.488 C 904.027 377.182, 900.121 372.457, 898.435 369.988 C 896.069 366.523, 893.639 364.637, 887.779 361.718 C 882.562 359.118, 879.037 356.531, 876.509 353.445 C 872.485 348.535, 868.902 346.683, 859.011 344.399 C 841.785 340.422, 838.990 339.338, 830.367 333.292 C 822.352 327.672, 815.001 325.429, 798.249 323.493 C 776.028 320.926, 769.297 319.315, 754.614 313.055 C 739.052 306.421, 729.234 305.105, 672 301.982 C 661.275 301.397, 647.325 300.272, 641 299.482 C 583.839 292.346, 545.415 289.743, 510 290.606 M 416.500 304.020 C 400.550 304.394, 386.150 304.988, 384.500 305.339 C 382.850 305.690, 374.792 306.666, 366.593 307.508 C 352.989 308.905, 333.938 312.552, 327.542 314.984 C 321.200 317.395, 293.238 322.122, 280 323.020 C 250.216 325.042, 242.174 326.679, 231 332.997 C 218.973 339.797, 215.172 340.918, 193.500 344.062 C 180.054 346.013, 174.228 348.312, 167.242 354.426 C 162.725 358.379, 159.386 360.372, 155.242 361.590 C 139.708 366.154, 136.154 368.048, 129.173 375.481 C 125.503 379.389, 119.977 384.337, 116.894 386.476 C 110.846 390.672, 107.566 394.749, 105.437 400.718 C 102.308 409.490, 104.306 415.215, 112.276 420.314 C 116.304 422.890, 118.237 425.045, 120.595 429.585 C 123.526 435.230, 123.935 435.583, 129.583 437.318 C 141.366 440.937, 143.420 442.306, 146.588 448.650 C 148.313 452.107, 150.519 454.962, 152 455.656 C 153.375 456.300, 160.350 457.279, 167.500 457.832 C 176.358 458.516, 182.412 459.541, 186.500 461.047 C 193.404 463.592, 195.344 465.059, 198.626 470.225 C 203.103 477.270, 203.725 477.427, 229.954 478.138 C 248.571 478.642, 255.803 479.247, 264.500 481.027 C 275.192 483.215, 284.844 486.675, 287.966 489.439 C 290.335 491.537, 296.382 494.715, 300.645 496.104 C 303.402 497.002, 319.169 497.570, 356 498.096 C 384.325 498.500, 414.250 499.288, 422.500 499.847 C 442.722 501.215, 547.968 501.280, 559.500 499.930 C 564.450 499.351, 595.950 498.544, 629.500 498.137 C 697.028 497.319, 693.461 497.695, 702 490.497 C 707.485 485.874, 713.418 483.051, 717.715 483.022 C 719.483 483.010, 725.558 482.044, 731.215 480.875 C 739.043 479.257, 746.993 478.591, 764.500 478.084 C 790.117 477.343, 792.059 476.877, 795.974 470.542 C 797.166 468.614, 799.440 466.111, 801.027 464.981 C 805.018 462.139, 817.368 459.266, 830.739 458.069 C 836.921 457.515, 843.294 456.382, 844.901 455.551 C 846.509 454.720, 849.551 451.473, 851.662 448.337 C 856.067 441.792, 859.880 439.477, 869.608 437.442 C 877.786 435.731, 880.400 434.096, 882.948 429.101 C 884.034 426.973, 887.302 423.339, 890.211 421.025 C 893.120 418.712, 896.260 415.622, 897.189 414.159 C 901.056 408.070, 901.252 393.256, 897.560 386.117 C 893.031 377.358, 879.282 366.031, 869.500 362.998 C 863.850 361.246, 859.223 358.252, 855.085 353.672 C 849.734 347.749, 843.325 345.546, 821 341.956 C 811.707 340.462, 806.063 338.290, 798.103 333.145 C 790.081 327.960, 779.185 325.382, 759.493 324.010 C 734.348 322.258, 726.580 321.140, 714.808 317.580 C 683.856 308.219, 664.049 305.602, 612 303.996 C 580.088 303.011, 458.829 303.026, 416.500 304.020 M 109.268 450.250 C 105.821 454.657, 105.662 457.763, 104.947 534.500 C 104.139 621.128, 103.401 613.532, 113.302 620.494 C 116.435 622.697, 120.237 626.292, 121.750 628.483 C 125.676 634.169, 127.702 635.661, 134.725 638.039 C 139.592 639.687, 142.344 641.506, 147.330 646.371 C 154.374 653.244, 157.206 654.425, 175 657.910 C 185.215 659.910, 190.830 662.312, 199.294 668.301 C 207.022 673.769, 218.584 676.383, 240.365 677.585 C 255.386 678.414, 262.518 679.923, 280.758 686.137 C 285.300 687.684, 291.613 689.622, 294.787 690.445 C 304.525 692.968, 335.431 695.934, 363.481 697.036 C 388.681 698.027, 390.345 697.983, 393.334 696.242 C 399.031 692.926, 399.159 691.977, 397.817 663.149 C 396.877 642.959, 396.866 625.079, 397.771 583.341 C 398.789 536.375, 398.751 529.269, 397.469 527.312 C 394.451 522.706, 393.444 522.591, 358.500 522.858 C 330.089 523.076, 323.344 522.828, 310 521.079 C 286.784 518.037, 282.411 516.617, 271.088 508.444 C 264.841 503.935, 259.341 503.019, 238.602 503.035 C 209.109 503.058, 195.460 499.665, 190.368 491.046 C 187.172 485.636, 182.128 483.811, 167.779 482.875 C 148.491 481.618, 145.761 480.494, 141.493 472.060 C 139.106 467.344, 136.374 465.324, 130.500 463.934 C 124.430 462.498, 120.166 459.451, 115.887 453.492 C 112.564 448.866, 110.963 448.081, 109.268 450.250 M 884.843 456.542 C 879.921 460.742, 876.265 462.340, 866.827 464.412 C 863.620 465.117, 858 469.641, 858 471.518 C 858 473.969, 851.533 479.758, 847.488 480.928 C 845.295 481.563, 836.379 482.509, 827.675 483.030 C 809.621 484.111, 807.170 484.911, 801.636 491.531 C 793.908 500.777, 788.560 502.048, 754 502.857 C 727.104 503.486, 726.412 503.554, 722.500 505.954 C 720.300 507.304, 717.917 509.210, 717.204 510.189 C 713.653 515.068, 703.188 518.655, 685.825 520.946 C 673.573 522.563, 637.240 524.207, 628.500 523.541 C 624.100 523.205, 597.100 523.033, 568.500 523.158 C 479.439 523.547, 461.917 523.391, 447.999 522.082 C 431.775 520.557, 427.844 521.382, 424.551 527 C 422.558 530.401, 422.514 531.530, 423 567 C 423.623 612.477, 423.614 664.744, 422.981 680.320 L 422.500 692.140 425.934 695.221 L 429.368 698.301 507.434 697.613 C 560.928 697.141, 590.536 696.481, 601.500 695.517 C 610.300 694.742, 621.775 693.816, 627 693.460 C 637.075 692.771, 662.546 687.522, 673.151 683.948 C 682.546 680.783, 691.412 679.316, 711.984 677.526 C 738.170 675.247, 746.127 673.157, 757.950 665.449 C 763.058 662.120, 772.912 659.077, 782.332 657.921 C 796.418 656.191, 805.519 653.257, 811.175 648.620 C 820.079 641.322, 823.979 639.205, 831.683 637.491 C 846.094 634.285, 850.010 632.447, 855.993 626.078 C 860.383 621.404, 862.805 619.747, 867.938 617.905 C 873.017 616.083, 876.184 613.935, 882.938 607.735 C 887.647 603.413, 893.383 598.154, 895.684 596.049 C 900.829 591.343, 901.752 587.414, 900.007 577.650 C 899.027 572.169, 898.908 558.778, 899.478 518.408 C 900.135 471.848, 900.040 465.650, 898.593 460.671 C 897.060 455.397, 894.226 452, 891.359 452 C 890.701 452, 887.769 454.044, 884.843 456.542 M 523.273 608.707 C 521.256 611.786, 521.072 621.842, 522.908 628.659 C 524.334 633.956, 527.955 636.094, 531.829 633.928 C 537.308 630.864, 538.351 613.361, 533.381 607.869 C 530.745 604.956, 525.442 605.396, 523.273 608.707" stroke="none" fill="#444" fill-rule="evenodd"/></svg>