<svg xmlns="http://www.w3.org/2000/svg" width="1000" height="1000" viewBox="0 0 1000 1000" version="1.1"><path d="M 423.500 239.646 C 414.387 240.351, 364.955 243.082, 344.500 244.009 C 317.040 245.254, 299.647 247.775, 286.774 252.376 C 281.424 254.288, 276.699 256.065, 276.274 256.325 C 274.356 257.495, 251.319 262.039, 240 263.481 C 219.312 266.115, 211.441 268.346, 204.500 273.544 C 197.501 278.785, 190.751 281.520, 179.583 283.639 C 168.749 285.694, 165.382 287.244, 159.500 292.886 C 154.035 298.128, 149.416 301.048, 143.495 303.002 C 136.843 305.197, 129.056 309.077, 128.188 310.629 C 126.110 314.341, 118.089 321.451, 114 323.205 C 108.208 325.689, 105.373 328.379, 102.409 334.200 C 101.093 336.785, 97.425 341.390, 94.258 344.433 L 88.500 349.965 88.218 358.733 C 88.063 363.555, 88.318 408.450, 88.784 458.500 L 89.633 549.500 92.895 558 C 98.982 573.856, 101.844 582.623, 102.981 588.894 C 105.230 601.297, 108.396 608.580, 114.321 614.980 C 117.991 618.944, 120.534 622.862, 121.937 626.715 C 125.940 637.708, 127.524 640.501, 133.558 647.208 C 136.890 650.912, 140.603 655.980, 141.808 658.471 C 143.014 660.962, 145.001 665.067, 146.224 667.593 C 147.447 670.120, 150.259 673.563, 152.474 675.245 C 158.103 679.520, 160.760 682.716, 163.496 688.500 C 166.286 694.397, 168.171 696.705, 173.297 700.499 C 175.385 702.044, 179.319 706.528, 182.040 710.463 C 184.760 714.398, 189.053 719.166, 191.581 721.059 C 194.109 722.951, 198.112 727.200, 200.476 730.500 C 202.840 733.800, 206.512 737.842, 208.637 739.481 C 212.277 742.291, 214.729 744.786, 220.186 751.234 C 221.459 752.738, 224.078 754.611, 226.007 755.396 C 231.395 757.589, 234.951 755.613, 240 747.617 C 242.292 743.989, 245.689 740.119, 247.645 738.910 C 252.180 736.108, 255.660 732.412, 258.009 727.905 C 259.933 724.214, 263.876 720.495, 270.782 715.861 C 273.058 714.334, 275.609 711.387, 276.840 708.861 C 279.700 702.994, 282.596 699.865, 288.166 696.623 C 292.569 694.062, 298 688.288, 298 686.170 C 298 684.257, 305.038 679.083, 308.534 678.428 C 314.545 677.300, 318.978 678.611, 332.205 685.425 C 339.192 689.026, 346.876 692.412, 349.278 692.950 C 358.654 695.051, 378.149 696.179, 417.500 696.897 L 458.500 697.646 465 700.822 C 472.660 704.565, 474.032 704.623, 494.212 702.052 C 502.620 700.981, 516.025 699.643, 524 699.079 C 531.975 698.515, 548.625 697.349, 561 696.489 C 594.938 694.130, 604.837 692.660, 618.073 688.015 C 631.615 683.263, 643.640 680.552, 658 679.013 C 682.148 676.425, 692.255 674.833, 699.451 672.485 C 703.637 671.118, 708.427 670, 710.095 670 C 713.036 670, 728.604 677.363, 734.315 681.456 C 735.864 682.565, 739.086 686.441, 741.476 690.068 C 743.866 693.696, 748.146 698.611, 750.988 700.990 C 753.830 703.369, 758.564 708.573, 761.508 712.554 C 764.451 716.535, 768.522 721.059, 770.553 722.608 C 772.584 724.157, 777.722 729.717, 781.972 734.962 C 800.697 758.078, 809.780 760.823, 817.696 745.760 C 820.386 740.640, 822.762 737.761, 826.969 734.524 C 831.586 730.971, 833.243 728.830, 835.993 722.864 C 840.033 714.100, 842.694 710.047, 848.528 703.774 C 853.663 698.253, 855.252 695.403, 858.432 686.003 C 859.720 682.196, 861.612 678.001, 862.637 676.680 C 863.662 675.359, 866.364 671.853, 868.642 668.889 C 872.626 663.706, 878 651.055, 878 646.861 C 878 642.720, 883.459 631.308, 888.129 625.688 C 893.750 618.922, 896.253 611.931, 897.898 598.402 C 899.198 587.705, 902.357 576.955, 907.937 564.231 C 915.553 546.867, 915.500 547.703, 915.500 444.500 C 915.500 343.264, 915.891 349.070, 908.536 341.056 C 906.236 338.550, 901.687 332.066, 898.427 326.648 C 891.438 315.031, 884.480 308.166, 873.949 302.500 C 869.861 300.300, 864.262 296.217, 861.508 293.427 C 855.657 287.499, 851.601 285.435, 841.789 283.389 C 832.251 281.400, 825.680 278.481, 818.840 273.194 C 812.045 267.942, 805.056 265.880, 785.829 263.457 C 768.897 261.324, 756.818 258.204, 745.709 253.096 C 734.618 247.996, 720.859 245.267, 699.535 243.936 C 690.716 243.386, 670.828 242.050, 655.341 240.968 C 629.906 239.190, 617.521 239.016, 527.341 239.168 C 472.428 239.261, 425.700 239.476, 423.500 239.646 M 452 243.076 C 382.588 244.557, 355.133 246.816, 337.473 252.497 C 319.092 258.410, 306.805 260.437, 270.500 263.548 C 243.496 265.862, 240.134 266.799, 224.541 276.366 C 217.488 280.693, 214.834 281.508, 201.119 283.565 C 188.130 285.512, 183.917 287.154, 177 292.966 C 169.117 299.590, 167.054 300.708, 158.468 303.009 C 150.616 305.113, 143 308.451, 143 309.788 C 143 311.937, 133.218 320.245, 126.350 323.929 C 114.025 330.540, 104.729 340.588, 103.432 348.701 C 102.606 353.863, 105.552 357.469, 113.559 361.100 C 119.272 363.690, 121.654 365.805, 126.228 372.346 C 128.171 375.125, 132.918 377.005, 144.217 379.471 C 153.607 381.520, 157.415 383.999, 160.950 390.363 C 162.436 393.037, 164.441 395.667, 165.406 396.207 C 166.371 396.747, 171.089 397.994, 175.891 398.978 C 188.153 401.490, 192.339 403.859, 196.011 410.365 C 197.662 413.291, 200.113 416.186, 201.458 416.799 C 202.802 417.411, 207.862 418.416, 212.701 419.031 C 222.564 420.284, 231.700 422.543, 234.086 424.319 C 234.958 424.969, 236.854 427.300, 238.298 429.500 C 243.316 437.142, 243.152 437.049, 255.172 439.120 C 272.324 442.076, 286.035 442.570, 294.500 440.536 C 298.350 439.611, 310.756 438.235, 322.069 437.477 C 349.019 435.672, 360.632 433.752, 377 428.395 C 399.838 420.922, 414.308 419.149, 470 416.998 C 517.115 415.178, 561.389 415.850, 606.500 419.071 C 626.113 420.472, 633.061 421.979, 644.876 427.394 C 656.562 432.751, 662.739 434.275, 683.645 436.956 C 702.420 439.364, 712.540 442.357, 722.642 448.490 C 726.728 450.970, 730.797 453, 731.684 453 C 732.572 453, 734.887 451.364, 736.829 449.364 C 742.935 443.077, 746.441 442.102, 774 439.024 C 784.376 437.865, 783.657 438.315, 792.303 427.583 C 796.050 422.932, 803.666 420.195, 817.709 418.453 C 823.880 417.688, 829.818 416.506, 830.904 415.828 C 831.990 415.149, 833.667 412.848, 834.629 410.714 C 837.343 404.695, 842.190 401.341, 850.924 399.438 C 861.511 397.131, 866.433 395.282, 868.828 392.712 C 869.962 391.495, 872.827 388.419, 875.195 385.876 C 878.578 382.242, 880.785 380.881, 885.500 379.519 C 898.858 375.662, 899.668 374.771, 902.029 361.342 C 903.373 353.699, 903.364 353.654, 896.321 333.289 C 894.879 329.121, 891.778 325.931, 885 321.645 C 883.075 320.427, 880.046 317.197, 878.268 314.466 C 873.816 307.625, 871.024 305.436, 864.290 303.504 C 857.163 301.459, 851.565 298.280, 845.861 293.039 C 840.862 288.445, 834.674 285.828, 823.408 283.541 C 811.277 281.079, 804.036 278.384, 796.463 273.512 C 787.881 267.991, 779.241 265.822, 754.864 263.068 C 733.508 260.656, 726.250 259.111, 709.977 253.516 C 688.576 246.158, 673.357 244.599, 607.500 243.017 C 561.036 241.902, 506.058 241.922, 452 243.076 M 106.241 384.300 C 100.587 387.503, 100.789 385.060, 100.910 448.813 C 101.025 509.146, 102.289 558.407, 104.083 572.500 C 105.843 586.321, 107.636 591.182, 113.082 596.891 C 118.856 602.945, 121.005 606.902, 124 617 C 127.107 627.475, 129.067 630.901, 134.646 635.604 C 139.660 639.832, 140.058 640.435, 144.472 650.500 C 146.325 654.724, 149.097 658.434, 153.835 663.032 C 157.536 666.624, 161.404 671.331, 162.429 673.491 C 165.814 680.625, 170.739 687.419, 176.911 693.469 C 180.260 696.751, 183 699.782, 183 700.204 C 183 702.950, 189.941 711.532, 195.073 715.133 C 199.595 718.305, 201.845 720.831, 204.652 725.889 C 206.670 729.525, 209.020 732.950, 209.875 733.500 C 216.988 738.079, 227.048 742.910, 229.558 742.950 C 232.830 743.003, 236.198 739.779, 266 708.061 C 272.875 700.744, 282.274 690.875, 286.886 686.129 C 291.499 681.383, 296.732 675.250, 298.516 672.500 C 302.603 666.201, 304.371 664.627, 310.133 662.157 C 315.138 660.012, 318 656.826, 318 653.400 C 318 650.468, 320.517 644.656, 322.539 642.920 C 323.449 642.139, 326.952 640.150, 330.323 638.500 C 335.876 635.782, 336.613 635.047, 338.149 630.693 C 340.742 623.343, 342.699 621.023, 348.457 618.477 C 353.847 616.093, 357.997 612.023, 358.004 609.115 C 358.013 605.303, 362.045 600.976, 368.378 597.984 C 373.262 595.676, 375.177 594.146, 376.397 591.575 C 377.279 589.718, 378 587.719, 378 587.134 C 378 584.815, 384.371 578.969, 388.124 577.845 C 393.308 576.291, 396.529 572.927, 397.849 567.687 C 399.122 562.630, 402.268 559.404, 409.246 556 C 412.064 554.625, 414.714 552.825, 415.136 552 C 415.557 551.175, 416.965 548.250, 418.265 545.500 C 420.358 541.071, 421.402 540.120, 427.405 537.172 C 432.218 534.809, 434.663 532.925, 435.841 530.672 C 438.229 526.105, 445.531 519.151, 448.747 518.380 C 457.427 516.298, 459.740 511.637, 453.866 508.065 C 449.307 505.292, 439.956 503.956, 418.500 503.011 C 394.074 501.936, 382.106 499.580, 369.887 493.443 C 358.715 487.833, 353.295 486.587, 329 484.050 C 307.607 481.816, 294.301 479.063, 289.962 475.973 C 288.414 474.871, 285.536 471.773, 283.566 469.090 C 278.543 462.248, 274.932 461.014, 259.730 460.944 C 244.191 460.873, 240.181 459.458, 234.460 452.025 C 232.238 449.138, 229.218 446.146, 227.749 445.376 C 226.280 444.607, 220.223 443.142, 214.289 442.122 C 199.821 439.635, 197.037 438.318, 192.091 431.623 C 189.831 428.564, 187.041 425.557, 185.890 424.941 C 184.740 424.326, 179.861 423.230, 175.048 422.507 C 163.635 420.792, 158.674 418.217, 154.809 412 C 151.271 406.309, 148.376 404.715, 137.493 402.467 C 133.136 401.567, 128.296 399.923, 126.738 398.813 C 125.180 397.704, 122.464 393.805, 120.703 390.148 C 117.501 383.502, 117.498 383.500, 113 383.260 C 110.525 383.129, 107.484 383.597, 106.241 384.300 M 882.784 404.738 C 881.290 405.664, 879.524 407.790, 878.859 409.461 C 875.426 418.094, 871.749 419.964, 854.059 422.070 C 843.536 423.323, 840.815 424.723, 838.639 430 C 837.846 431.925, 836.115 434.508, 834.794 435.741 C 831.937 438.404, 820.536 441.491, 810 442.453 C 798.999 443.457, 797.009 444.359, 791.171 450.991 C 786.470 456.332, 785.152 457.200, 778.831 459.120 C 772.327 461.095, 770.405 461.215, 755.106 460.597 C 736.123 459.830, 735.853 459.920, 732.673 468.114 C 731.566 470.968, 729.667 473.385, 727.236 475.034 C 719.764 480.103, 712.648 481.584, 686.679 483.475 C 662.309 485.250, 650.397 487.453, 635 493.031 C 627.734 495.663, 618.345 498.089, 609.500 499.618 C 601.800 500.950, 594.052 502.510, 592.283 503.086 C 588.645 504.270, 584 509.243, 584 511.954 C 584 514.377, 585.485 515.461, 592.294 518.009 C 598.345 520.273, 600.387 522.322, 604.241 530 C 606.019 533.543, 607.610 535.041, 611.718 537.045 C 618.772 540.486, 621.640 543.401, 623.509 549.026 C 625.270 554.330, 627.252 556.533, 631.132 557.501 C 635.692 558.639, 639.903 563.158, 642.315 569.500 C 644.507 575.263, 644.865 575.633, 651.372 578.874 C 658.389 582.369, 659.245 583.461, 663.057 593.783 C 664.024 596.400, 665.611 597.718, 670.885 600.283 C 677.008 603.261, 677.741 603.975, 680.741 609.886 C 684.936 618.155, 685.118 618.348, 691.499 621.369 C 697.382 624.155, 698.636 625.895, 701.614 635.405 C 703.338 640.911, 703.903 641.594, 709.981 645.512 C 717.440 650.321, 718.217 651.117, 724.197 660.073 C 726.611 663.689, 730.084 667.964, 731.916 669.573 C 738.278 675.163, 742.099 679.531, 745.577 685.192 C 747.660 688.582, 751.183 692.416, 754.287 694.670 C 760.516 699.193, 761.141 699.912, 765.015 707.010 C 767.343 711.274, 769.378 713.367, 774.015 716.265 C 778.545 719.097, 780.677 721.257, 782.753 725.118 C 784.264 727.927, 786.512 731.477, 787.749 733.006 C 790.477 736.379, 801.534 741, 806.876 741 C 811.909 741, 814.772 738.649, 819.424 730.695 C 821.723 726.764, 825.071 722.832, 828.061 720.552 C 833.527 716.383, 835.860 712.974, 838.591 705.162 C 839.822 701.644, 842.283 697.895, 845.815 694.162 C 851.694 687.947, 855.090 681.644, 857.444 672.573 C 859.439 664.887, 862.279 659.522, 867.158 654.220 C 872.053 648.900, 874.135 644.107, 877.501 630.402 C 880.398 618.607, 882.311 614.230, 887.591 607.313 C 889.514 604.794, 891.704 601.539, 892.459 600.080 C 894.390 596.345, 896.852 583.766, 898.008 571.729 C 899.330 557.966, 902.609 536.960, 905.571 523.287 C 907.961 512.255, 907.999 511.283, 907.956 463.287 C 907.932 436.454, 907.527 412.502, 907.056 410.059 C 906.584 407.617, 905.393 405.029, 904.408 404.309 C 901.659 402.299, 886.223 402.605, 882.784 404.738 M 491.500 420.640 C 489.300 420.808, 480.075 421.438, 471 422.040 C 454.825 423.114, 436.484 426.135, 422.430 430.039 C 412.084 432.914, 399.345 434.374, 348.595 438.502 C 328.168 440.164, 315.515 442.400, 310.999 445.147 C 307.646 447.186, 305 452.261, 305 456.652 C 305 458.146, 305.748 462.036, 306.663 465.296 C 309.947 477, 318.985 480.357, 355.599 483.475 C 379.710 485.527, 396.014 488.588, 412 494.064 C 417.026 495.786, 426.748 497.921, 437 499.556 C 458.179 502.933, 529.670 502.526, 557.500 498.870 C 566.760 497.654, 592.133 492.587, 599.478 490.488 C 607.409 488.221, 629.097 485.185, 646 483.975 C 670.920 482.192, 688.169 480.192, 693 478.525 C 701.325 475.652, 704.386 467.959, 701.574 456.981 C 697.674 441.761, 694.706 440.742, 637.500 434.999 C 625.928 433.837, 616.861 432.050, 610.384 429.655 C 596.497 424.520, 585.965 422.847, 556 421.017 C 541.097 420.107, 501.552 419.876, 491.500 420.640 M 536.645 507.513 C 533.974 508.246, 528.749 510.869, 525.032 513.340 C 521.210 515.882, 515.140 518.767, 511.059 519.983 C 504.415 521.961, 503.727 522.424, 502.381 525.816 C 497.973 536.926, 497.893 537.029, 490.937 540.531 C 487.261 542.383, 483.940 544.708, 483.558 545.699 C 482.299 548.961, 478 573.189, 478 577.023 C 478 582.699, 475.607 584.874, 468.034 586.082 C 464.478 586.649, 461.062 587.534, 460.442 588.048 C 459.823 588.562, 459.020 588.687, 458.658 588.325 C 457.208 586.875, 458.143 592.533, 460.615 600.169 C 463.123 607.918, 463.182 608.618, 462.065 617.331 C 461.424 622.328, 460.481 634.819, 459.970 645.090 C 459.044 663.682, 459.051 663.798, 461.594 671.075 C 462.998 675.095, 464.763 679.575, 465.516 681.031 C 467.408 684.690, 475.508 691.632, 481.456 694.693 C 487.624 697.866, 490.944 697.956, 519 695.704 C 543.026 693.775, 550.959 692.735, 559 690.461 C 562.025 689.605, 566.921 688.242, 569.880 687.431 C 572.838 686.621, 575.563 685.770, 575.934 685.541 C 576.306 685.311, 582.274 683.996, 589.198 682.618 C 601.919 680.087, 611.032 679.001, 636.500 676.986 C 656.414 675.410, 675.731 672.288, 680.861 669.816 C 686.596 667.052, 688.352 663.127, 687.012 656.065 C 685.396 647.544, 681.986 642.785, 667.692 629.104 C 663.184 624.789, 659.637 620.209, 657.192 615.544 C 654.121 609.684, 652.702 608.070, 648.753 605.940 C 642.359 602.492, 638.537 598.654, 637.062 594.201 C 635.338 588.995, 633.056 586.531, 627.702 584.092 C 623.105 581.998, 618.004 576.178, 617.996 573.018 C 617.987 569.388, 614.133 565.286, 608.634 563.054 C 603.514 560.976, 602.823 560.308, 600.453 555.142 C 599.030 552.039, 597.333 548.412, 596.682 547.082 C 595.898 545.478, 593.322 543.793, 589.038 542.082 C 582.399 539.429, 578 534.941, 578 530.820 C 578 526.212, 575.142 522.105, 570.186 519.594 C 567.457 518.211, 563.574 515.152, 561.557 512.796 C 559.540 510.439, 556.902 507.962, 555.695 507.291 C 552.839 505.703, 542.807 505.820, 536.645 507.513 M 488.667 511.667 C 487.307 513.026, 488.062 515, 489.941 515 C 492.437 515, 493.666 513.036, 491.878 511.904 C 490.205 510.844, 489.538 510.795, 488.667 511.667 M 445.728 545.750 C 444.857 546.712, 443.325 549.964, 442.323 552.976 C 440.379 558.817, 435.861 563, 431.498 563 C 428.307 563, 424.304 567.157, 423.065 571.758 C 421.542 577.414, 418.518 580.793, 412.623 583.424 C 407.013 585.928, 404.625 588.175, 403.504 592 C 401.885 597.527, 398.675 601.254, 393.591 603.509 C 387.664 606.137, 385.688 608.090, 383.442 613.537 C 381.187 619.006, 378.527 621.612, 372.277 624.473 C 367.604 626.613, 366.614 627.601, 364.484 632.254 C 361.517 638.736, 358.007 642.228, 351.795 644.881 C 347.963 646.518, 346.626 647.805, 344.594 651.815 C 341.596 657.731, 337.274 661.580, 332.049 662.987 C 329.926 663.558, 327.150 664.867, 325.881 665.896 C 323.844 667.545, 323.713 668.074, 324.766 670.385 C 326.637 674.492, 331.306 676.640, 345.411 679.883 C 384.697 688.914, 397.363 691.040, 415.730 691.687 C 431.910 692.257, 431.977 692.250, 437.310 689.552 C 440.436 687.970, 443.415 685.568, 444.474 683.774 C 447.167 679.215, 447.605 668.670, 445.515 658.709 C 441.974 641.835, 445.316 597.189, 450.542 591.549 C 453.552 588.301, 454.129 586.561, 455.035 578 C 455.471 573.875, 456.579 567.125, 457.496 563 C 460.327 550.271, 458.183 544, 451 544 C 448.755 544, 446.690 544.685, 445.728 545.750 M 503.500 583.586 C 492.705 587.509, 491.758 587.803, 487.791 588.460 C 485.331 588.868, 483.425 589.999, 482.128 591.821 C 477.620 598.152, 476.815 624.328, 480.851 633.347 C 483.017 638.188, 485.570 640.669, 491.336 643.536 C 493.861 644.792, 496.160 646.908, 497.176 648.911 C 500.603 655.664, 504.335 658.138, 513 659.402 C 517.187 660.013, 529.656 658.432, 532.581 656.919 C 535.793 655.258, 538 650.655, 538 645.615 C 538 641.496, 537.735 640.971, 535.345 640.372 C 533.885 640.005, 526.974 640.271, 519.987 640.963 C 513.001 641.655, 505.871 641.911, 504.144 641.532 C 500.216 640.669, 498 637.601, 498 633.027 C 498 631.087, 497.325 625.973, 496.500 621.662 C 494.501 611.215, 494.608 607.370, 497.009 603.486 C 500.699 597.514, 505.840 596.677, 525.500 598.846 L 540.500 600.500 540.160 619.109 C 539.774 640.287, 539.419 639.446, 548.147 638.066 C 556.448 636.754, 558.963 632.303, 558.989 618.875 C 559.012 607.060, 556.656 603.163, 547.922 600.570 C 542.362 598.918, 541.041 597.770, 541.015 594.566 C 541.007 593.502, 540.080 590.730, 538.955 588.406 C 536.170 582.654, 531.847 580.993, 519.730 581.021 C 512.380 581.038, 509.074 581.560, 503.500 583.586" stroke="none" fill="#444" fill-rule="evenodd"/></svg>