<svg xmlns="http://www.w3.org/2000/svg" width="1000" height="1000" viewBox="0 0 1000 1000" version="1.1"><path d="M 455.500 251.062 C 430.716 252.601, 383.181 257.717, 377 259.510 C 374.864 260.130, 340.918 262.747, 325.500 263.481 C 290.850 265.131, 275.864 267.450, 261.143 273.442 C 249.563 278.155, 236.952 281.215, 222 282.941 C 210.568 284.261, 196.798 286.674, 192 288.199 C 190.075 288.811, 185.426 291.467, 181.670 294.102 C 174.256 299.302, 169.731 301.076, 157.612 303.537 C 146.575 305.777, 140.699 308.317, 134.154 313.676 C 128.989 317.905, 124.540 320.305, 112.096 325.577 C 108.874 326.942, 106.824 328.792, 104.455 332.471 C 100.262 338.985, 98.409 340.940, 93.278 344.260 C 87.191 348.198, 85.870 351.495, 84.988 364.947 C 84.572 371.301, 84.292 438.600, 84.366 514.500 C 84.498 650.482, 84.529 652.554, 86.500 656.163 C 88.952 660.655, 102.739 675.254, 108.946 679.933 C 111.450 681.821, 116.279 685.937, 119.676 689.080 C 124.526 693.566, 127.672 695.480, 134.321 697.990 C 140.298 700.246, 144.719 702.788, 149.350 706.631 C 156.481 712.550, 162.269 714.992, 175.416 717.626 C 186.313 719.809, 194.682 723.057, 201.135 727.606 C 204.086 729.687, 208.075 731.930, 210 732.591 C 214.951 734.292, 230.505 736.777, 243.994 738.022 C 257.628 739.281, 272.592 742.526, 289.887 747.975 C 312.579 755.124, 328.660 756.021, 445.500 756.656 C 543.996 757.191, 612.469 756.089, 637.192 753.571 C 646.867 752.586, 656.598 750.822, 665.692 748.404 C 693.250 741.079, 698.324 740.181, 733 736.496 C 751.104 734.572, 756.392 733.184, 764.921 728.116 C 774.279 722.556, 780.178 720.398, 792.718 717.946 C 810.123 714.542, 813.860 713.203, 818.922 708.556 C 825.385 702.624, 829.111 700.622, 840.500 696.964 C 849.858 693.958, 850.885 693.355, 856.500 687.566 C 859.892 684.069, 865.270 679.904, 868.872 677.985 C 873.327 675.612, 876.431 673.019, 879.190 669.365 C 881.360 666.490, 885.540 662.283, 888.479 660.016 C 897.643 652.946, 897.354 654.539, 898.179 606.500 C 899.165 549.085, 900.695 496.696, 901.945 477.500 C 902.518 468.700, 903.707 447.550, 904.587 430.500 C 905.467 413.450, 906.599 396.125, 907.101 392 C 907.603 387.875, 908.298 381.281, 908.644 377.347 L 909.274 370.194 902.975 356.524 C 897.577 344.812, 895.682 341.792, 889.737 335.425 C 883.827 329.097, 881.293 327.256, 872.649 323.013 C 866.745 320.114, 860.199 315.966, 857 313.095 C 851.381 308.054, 845.029 305.453, 832.500 303.061 C 824.017 301.442, 815.850 298.180, 807.391 293.030 C 798.001 287.314, 792.174 285.695, 773 283.476 C 752.710 281.129, 742.571 278.532, 723.686 270.848 C 716.919 268.095, 696.408 265.288, 673.775 264.018 C 640.478 262.150, 624.931 261.038, 611 259.528 C 578.065 255.960, 548.106 252.967, 531 251.536 C 511.832 249.933, 477.186 249.715, 455.500 251.062 M 414 264.998 C 377.414 266.087, 358.178 268.094, 341.041 272.607 C 321.060 277.870, 299.171 281.310, 268.500 284.007 C 248.664 285.751, 234.852 288.071, 230 290.474 C 227.525 291.700, 222.454 294.289, 218.732 296.228 C 211.924 299.774, 205.156 301.461, 185.500 304.515 C 171.483 306.693, 167.034 308.350, 162.434 313.106 C 157.776 317.922, 151.570 321.250, 144 322.992 C 132.112 325.728, 129.716 326.969, 122.968 333.878 C 119.376 337.556, 114.869 341.309, 112.953 342.218 C 107.508 344.802, 105.152 348.034, 101.443 358.011 C 97.332 369.069, 97.246 370.808, 100.510 376.853 C 101.890 379.409, 103.963 384.131, 105.117 387.346 C 107.050 392.731, 107.621 393.381, 112.358 395.586 C 115.186 396.903, 118.220 397.985, 119.100 397.990 C 121.736 398.006, 128.616 403.581, 131.911 408.371 C 135.611 413.749, 141.238 416.192, 153.772 417.861 C 165.108 419.371, 170.627 421.974, 177.155 428.891 C 183.651 435.775, 186.118 436.580, 203.500 437.493 C 229.796 438.873, 239.747 441.426, 248.420 449.016 C 256.540 456.121, 260.323 456.989, 283.432 457.051 C 293.919 457.079, 307.450 457.518, 313.500 458.028 C 319.550 458.537, 330.800 459.433, 338.500 460.020 C 362.254 461.829, 375.336 464.182, 392 469.641 C 396.125 470.993, 404.238 472.727, 410.029 473.495 C 415.820 474.264, 422.570 475.332, 425.029 475.870 C 427.690 476.452, 457.641 476.866, 499 476.893 C 575.764 476.944, 574.981 476.996, 594.795 470.459 C 607.794 466.170, 615.396 464.626, 636 462.091 C 656.615 459.554, 678.502 458.087, 710 457.131 C 732.405 456.451, 734.858 456.201, 738.684 454.207 C 740.985 453.008, 743.460 451.221, 744.184 450.236 C 749.477 443.033, 763.086 439.305, 792.500 437.001 C 800.200 436.398, 807.945 435.447, 809.711 434.887 C 811.573 434.298, 814.714 431.730, 817.187 428.776 C 822.755 422.127, 828.804 419.382, 840.916 418.010 C 853.194 416.619, 856.173 415.126, 859.917 408.493 C 862.634 403.678, 863.730 402.774, 871.478 398.953 C 877.654 395.908, 881.116 393.447, 883.909 390.116 C 886.037 387.577, 889.387 383.799, 891.351 381.720 C 894.680 378.197, 896.981 372.894, 896.994 368.718 C 897.005 365.408, 892.851 354.516, 890.668 352.130 C 889.476 350.827, 886.700 348.621, 884.500 347.229 C 882.300 345.837, 876.891 341.186, 872.479 336.895 C 864.223 328.863, 857.982 325.249, 848.259 322.868 C 842.228 321.391, 835.874 318.033, 829.500 312.952 C 823.663 308.300, 815.616 305.530, 803.226 303.908 C 787.896 301.902, 779.155 299.320, 769.538 293.957 C 764.582 291.193, 758.046 288.290, 755.013 287.505 C 751.981 286.720, 738.025 285.158, 724 284.034 C 688.611 281.197, 674.456 279.085, 657.331 274.088 C 645.442 270.619, 633.005 268.651, 609.500 266.519 C 589.255 264.682, 458.693 263.666, 414 264.998 M 881.500 423.388 C 879.850 424.109, 875.969 427.583, 872.877 431.109 C 866.053 438.888, 861.085 441.514, 849.396 443.525 C 836.506 445.742, 834.491 446.608, 828.423 452.532 C 820.568 460.201, 815.404 461.880, 796.069 463.048 C 774.419 464.356, 770.561 465.506, 761.314 473.405 C 757.037 477.058, 754.844 478.111, 748.814 479.408 C 737.374 481.867, 722.477 482.998, 701.144 483.026 C 669.177 483.068, 656.327 484.920, 641.871 491.570 C 632.607 495.831, 624.172 497.496, 604.500 498.943 C 586.711 500.252, 537.622 502.453, 530.500 502.261 C 527.750 502.187, 507.500 501.963, 485.500 501.764 C 463.500 501.564, 442.278 501.024, 438.340 500.563 C 431.974 499.818, 430.811 499.954, 427.840 501.793 C 426.003 502.931, 423.694 505.231, 422.709 506.904 C 420.437 510.765, 419.021 522.997, 418.994 539 C 418.980 547.516, 418.343 554.528, 416.995 561 C 415.907 566.225, 414.543 574.550, 413.965 579.500 C 412.997 587.784, 410.361 602.167, 406.360 621 C 405.065 627.096, 404.675 638.046, 404.277 679.500 C 403.792 729.933, 403.811 730.563, 405.947 736.202 C 409.627 745.912, 409.407 745.858, 443 745.367 C 478.818 744.843, 480.250 744.584, 486.783 737.452 C 489.529 734.453, 492.464 732, 493.304 732 C 494.144 732, 496.524 733.787, 498.594 735.971 C 503.571 741.222, 506.738 742.565, 517.583 744.020 C 532.093 745.966, 572.521 743.858, 603 739.566 C 608.186 738.835, 622.134 738.112, 643.500 737.466 C 669.545 736.678, 690.073 735.168, 698.317 733.433 C 702.117 732.634, 710.238 730.011, 716.363 727.605 C 729.432 722.471, 740.790 719.716, 757.928 717.523 C 776.805 715.108, 782.290 713.431, 791.235 707.340 C 798.781 702.202, 801.278 701.177, 820.464 695.348 C 828.695 692.847, 829.923 692.125, 835.464 686.523 C 838.784 683.167, 842.962 679.877, 844.750 679.211 C 846.538 678.545, 849.421 677.466, 851.157 676.814 C 852.893 676.161, 857.745 672.449, 861.938 668.564 C 866.130 664.679, 871.047 660.392, 872.863 659.037 C 877.117 655.864, 880.496 650.040, 882.456 642.500 C 883.314 639.200, 884.486 635.071, 885.061 633.324 C 885.636 631.577, 886.251 623.027, 886.428 614.324 C 886.604 605.621, 887.265 594.225, 887.896 589 C 889.855 572.769, 890.937 556.073, 890.975 541.500 C 890.995 533.800, 891.449 524.827, 891.984 521.560 C 892.519 518.292, 893.413 502.092, 893.971 485.560 C 894.529 469.027, 895.498 450.253, 896.125 443.840 C 897.216 432.682, 897.172 431.986, 895.095 427.697 C 892.305 421.932, 887.976 420.560, 881.500 423.388 M 104.419 425.024 C 102.724 425.544, 100.478 426.919, 99.427 428.080 C 97.620 430.078, 97.537 431.774, 97.887 459.845 C 98.090 476.155, 98.536 525.283, 98.878 569.017 L 99.500 648.533 104.332 656.284 C 110.684 666.474, 116.739 672.514, 126.500 678.400 C 130.900 681.053, 137.019 685.615, 140.097 688.537 C 144.796 692.997, 146.881 694.187, 153.097 695.952 C 169 700.468, 171.608 701.571, 177.500 706.269 C 185.993 713.042, 189.956 714.628, 203 716.472 C 229.320 720.194, 233.481 721.326, 252.211 729.866 C 262.086 734.369, 270.699 735.362, 327 738.491 C 344.200 739.446, 353.924 740.411, 356.876 741.454 C 359.282 742.304, 363.422 743, 366.075 743 C 370.357 743, 371.168 742.635, 373.301 739.750 C 374.623 737.962, 376.100 735.600, 376.584 734.500 C 377.068 733.400, 377.780 711.125, 378.168 685 C 378.555 658.875, 379.346 628.500, 379.926 617.500 C 380.506 606.500, 381.400 585.575, 381.912 571 C 382.823 545.081, 383.823 537.171, 387.976 523.007 C 391.828 509.867, 386.261 503.524, 364.177 495.894 C 359.405 494.245, 353.475 491.845, 351 490.560 C 348.525 489.274, 342.225 487.184, 337 485.914 C 328.299 483.799, 325.061 483.591, 298.500 483.443 C 268.367 483.275, 267.175 483.186, 250.130 479.854 C 237.799 477.443, 232.974 475.509, 227.175 470.654 C 221.356 465.782, 214.824 464.007, 202.568 463.967 C 180.786 463.896, 171.015 460.875, 164.687 452.255 C 159.836 445.646, 156.185 444.060, 143.483 443.044 C 130.469 442.002, 126.509 440.185, 122.899 433.599 C 121.468 430.989, 119.437 427.992, 118.384 426.940 C 116.120 424.676, 108.817 423.674, 104.419 425.024 M 481.280 525.548 C 478.468 526.949, 475.373 529.308, 474.402 530.789 C 473.432 532.271, 470.567 535.512, 468.037 537.992 C 465.507 540.471, 462.024 545.018, 460.297 548.096 C 457.999 552.191, 456.263 554.025, 453.828 554.931 C 447.935 557.123, 445.548 558.729, 443.250 562.047 C 440.791 565.598, 440.232 572.221, 442.055 576.221 C 443.231 578.803, 448.825 583, 451.089 583 C 453.814 583, 456.913 586.036, 459.542 591.281 C 463.066 598.312, 464.347 599.557, 469.554 601.015 C 475.085 602.564, 481.701 601.769, 483.546 599.335 C 485.235 597.105, 485.430 588.037, 483.861 584.595 C 482.544 581.703, 478.142 579.366, 472.233 578.421 C 466.597 577.520, 464.500 574.959, 464.500 568.976 C 464.500 565.257, 465.052 563.574, 466.924 561.581 C 468.258 560.161, 469.885 559, 470.539 559 C 473.217 559, 476.824 554.747, 478.843 549.209 C 481.775 541.169, 483.106 540.635, 500.763 540.407 C 510.359 540.283, 515.513 539.819, 516.513 538.989 C 518.829 537.067, 518.339 531.556, 515.559 528.253 C 512.292 524.369, 507.148 523, 495.830 523 C 487.721 523, 485.673 523.359, 481.280 525.548 M 521.001 545.496 C 520.480 546.869, 519.437 554.237, 518.685 561.869 C 517.113 577.809, 515.794 580.671, 508.535 583.882 C 503.330 586.184, 502 588.336, 502 594.459 C 502 600.909, 504.390 601.732, 516.500 599.451 C 527.272 597.422, 533.144 595.065, 535.400 591.865 C 542.933 581.179, 546 574.950, 546 570.336 C 546 565.351, 538.074 549.082, 533.959 545.619 C 529.563 541.920, 522.387 541.852, 521.001 545.496 M 488.266 644.115 C 484.051 645.332, 478.314 648.739, 477.675 650.404 C 477.399 651.125, 474.096 653.617, 470.336 655.942 C 466.576 658.267, 462.375 661.738, 461 663.654 C 455.792 670.911, 453.501 673.312, 450.547 674.608 C 443.940 677.506, 440 683.034, 440 689.403 C 440 696.238, 444.126 700.860, 451.646 702.449 C 455.436 703.249, 456.950 704.860, 460.421 711.786 C 463.689 718.307, 467.732 720.991, 474.295 720.996 C 480.697 721.001, 484 717.921, 484 711.947 C 484 705.755, 481.515 701.428, 476.591 699.044 C 474.269 697.920, 471.853 697, 471.223 697 C 469.125 697, 466 692.661, 466 689.748 C 466 686.892, 467.190 685.457, 474.755 679.195 C 477.295 677.092, 478.356 675.072, 479.588 669.997 C 481.722 661.202, 482.908 659.811, 488.757 659.249 C 494.491 658.698, 512.607 661.569, 515.611 663.504 C 517.526 664.737, 517.784 666.110, 518.372 678.182 C 519.285 696.919, 518.012 700.910, 509.783 705.110 C 504.044 708.039, 502.088 713.945, 505.672 717.529 C 507.720 719.577, 511.966 719.070, 523.500 715.399 C 530.380 713.210, 532.182 712.129, 536.373 707.677 C 542.679 700.977, 546.439 693.094, 545.650 688.228 C 544.754 682.707, 538.175 666.469, 536.059 664.553 C 535.021 663.614, 531.546 662.066, 528.336 661.114 C 523.839 659.779, 521.984 658.615, 520.250 656.043 C 519.013 654.207, 518 651.852, 518 650.810 C 518 648.677, 515.576 645.831, 512.316 644.136 C 509.725 642.789, 492.907 642.774, 488.266 644.115" stroke="none" fill="#444" fill-rule="evenodd"/></svg>