<svg xmlns="http://www.w3.org/2000/svg" width="50" height="50" viewBox="0 0 50 50" version="1.1">
	<path d="M 45.272 27 C 45.272 29.475, 45.467 30.488, 45.706 29.250 C 45.944 28.012, 45.944 25.988, 45.706 24.750 C 45.467 23.512, 45.272 24.525, 45.272 27 M 4.252 27.500 C 4.263 29.700, 4.468 30.482, 4.707 29.238 C 4.946 27.994, 4.937 26.194, 4.687 25.238 C 4.437 24.282, 4.241 25.300, 4.252 27.500 M 22 31.941 C 22 32.459, 22.445 33.157, 22.989 33.493 C 23.555 33.843, 23.723 33.442, 23.382 32.552 C 22.717 30.820, 22 30.503, 22 31.941" stroke="none" fill="#555555" fill-rule="evenodd"/>
</svg>