<svg xmlns="http://www.w3.org/2000/svg" width="800" height="800" viewBox="0 0 800 800" version="1.1"><path d="M 265.500 158.608 C 264.400 158.792, 250.450 159.867, 234.500 160.996 C 202.392 163.269, 190.921 165.183, 180.500 170.005 C 170.925 174.436, 164.613 176.539, 155.016 178.497 C 144.740 180.593, 141.694 181.877, 134.936 186.962 C 131.946 189.211, 126.177 192.278, 122.115 193.776 C 116.951 195.681, 113.009 198.031, 109.004 201.593 C 105.854 204.393, 99.868 208.810, 95.702 211.407 C 90.337 214.750, 87.247 217.498, 85.116 220.820 C 83.460 223.400, 79.672 228.564, 76.699 232.295 C 73.726 236.027, 70.777 240.802, 70.146 242.906 C 69.330 245.632, 69 267.857, 69 320.185 C 69 402.023, 68.749 398.792, 75.910 409.279 C 78.081 412.458, 80.862 418.081, 82.091 421.774 C 83.789 426.875, 85.586 429.815, 89.565 433.995 C 92.795 437.390, 96.388 442.758, 98.940 448 C 101.857 453.993, 104.404 457.639, 107.578 460.362 C 110.054 462.486, 113.187 466.410, 114.541 469.081 C 116.170 472.296, 118.874 475.321, 122.534 478.025 C 125.577 480.273, 129.322 484.130, 130.858 486.597 C 132.393 489.064, 135.866 492.530, 138.575 494.299 C 141.284 496.068, 144.850 499.616, 146.500 502.184 C 148.150 504.752, 151.663 508.270, 154.306 510.003 C 156.950 511.735, 160.722 515.393, 162.689 518.130 C 164.656 520.868, 168.622 524.616, 171.502 526.458 C 174.382 528.301, 178.035 531.736, 179.619 534.091 C 181.332 536.637, 184.736 539.680, 188.013 541.593 C 191.189 543.448, 194.912 546.742, 196.795 549.365 C 198.970 552.393, 202.106 555.005, 206.161 557.166 C 209.514 558.953, 215.075 562.970, 218.520 566.091 C 221.964 569.213, 227.551 573.242, 230.934 575.045 C 234.649 577.025, 238.740 580.301, 241.264 583.315 C 243.970 586.547, 247.247 589.104, 250.564 590.571 C 253.495 591.867, 257.356 594.724, 259.593 597.250 C 262.046 600.022, 266.570 603.257, 271.747 605.943 C 276.283 608.295, 282.654 612.593, 285.906 615.495 C 289.157 618.396, 294.426 621.964, 297.614 623.424 C 301.064 625.003, 305.250 628.046, 307.955 630.941 C 311.317 634.539, 314.260 636.481, 319.261 638.402 C 334.722 644.343, 344.958 639.893, 346.481 626.566 C 347.465 617.958, 350.077 575.587, 350.985 553.500 C 352.131 525.654, 353.942 506.148, 355.706 502.662 C 357.886 498.355, 364.197 496.089, 377.216 494.941 C 400.386 492.897, 405.041 491.603, 414.882 484.472 C 416.743 483.124, 419.893 481.569, 421.882 481.016 C 426.655 479.690, 437.908 479.723, 441.785 481.075 C 447.981 483.235, 448.266 484.540, 449.649 517 C 451.516 560.801, 454.955 606.020, 457.589 621.402 C 460.821 640.267, 466.065 644.283, 481.083 639.392 C 488.312 637.038, 490.268 635.881, 494.939 631.199 C 498.278 627.851, 502.717 624.696, 506.439 623.024 C 509.772 621.526, 515.425 617.812, 519 614.771 C 522.575 611.730, 528.650 607.636, 532.500 605.674 C 536.805 603.481, 540.781 600.537, 542.827 598.029 C 544.703 595.730, 548.710 592.661, 552.012 590.994 C 555.419 589.274, 559.425 586.176, 561.587 583.589 C 563.938 580.777, 568.207 577.579, 573.199 574.893 C 577.541 572.556, 583.181 568.492, 585.732 565.863 C 588.283 563.233, 593.018 559.670, 596.256 557.944 C 600.185 555.850, 603.271 553.236, 605.538 550.081 C 607.597 547.214, 610.938 544.263, 614.031 542.580 C 616.946 540.993, 620.377 538.027, 622.044 535.653 C 623.648 533.369, 627.524 529.692, 630.658 527.482 C 633.792 525.273, 637.768 521.448, 639.493 518.982 C 641.218 516.517, 644.817 513.056, 647.490 511.292 C 650.163 509.527, 653.642 506.008, 655.220 503.472 C 656.929 500.726, 660.098 497.613, 663.055 495.775 C 666.110 493.876, 669.150 490.852, 670.958 487.915 C 672.573 485.289, 676.393 481.295, 679.446 479.040 C 683.139 476.312, 685.827 473.302, 687.476 470.048 C 688.989 467.062, 691.688 463.912, 694.408 461.959 C 697.683 459.607, 699.697 457.006, 702.016 452.130 C 703.751 448.484, 707.314 443.025, 709.933 440 C 715.146 433.979, 716.943 430.901, 719.977 422.791 C 721.162 419.625, 723.645 415.800, 726.024 413.477 C 733.666 406.015, 733.408 408.971, 733.787 324.500 C 734.010 274.784, 733.775 248.312, 733.089 245.975 C 732.520 244.037, 729.734 239.987, 726.897 236.975 C 710.703 219.784, 702.176 211.840, 696.904 209.030 C 693.765 207.356, 689.856 204.461, 688.218 202.595 C 684.140 197.950, 681.569 196.419, 673.836 194.031 C 670.185 192.903, 665.015 190.420, 662.348 188.512 C 654.445 182.859, 648.143 180.288, 636.500 177.967 C 629.834 176.638, 622.151 174.268, 617 171.953 C 602.192 165.296, 589.143 162.796, 562.500 161.511 C 555.350 161.167, 541.179 160.235, 531.010 159.442 C 516.145 158.283, 488.501 158.027, 390.010 158.136 C 322.629 158.211, 266.600 158.423, 265.500 158.608 M 284.500 161.973 C 244.534 162.985, 223.457 165.555, 210.500 170.998 C 201.152 174.926, 191.846 177.139, 176.500 179.084 C 164.644 180.587, 159.673 182.352, 152.816 187.492 C 148.665 190.603, 145.158 192.233, 139.816 193.533 C 129.126 196.134, 125.078 198.142, 119.308 203.703 C 115.844 207.042, 112.193 209.391, 108.212 210.842 C 103.087 212.711, 101.792 213.739, 98.702 218.393 C 96.457 221.775, 93.519 224.662, 90.812 226.146 C 84.370 229.678, 82.730 233.589, 83.533 243.498 C 84.250 252.356, 85.654 256.547, 88.859 259.403 C 90.902 261.222, 91.219 261.233, 96.112 259.653 C 102.959 257.441, 104.651 257.560, 107.545 260.455 C 109.934 262.843, 110.627 266.204, 109.393 269.418 C 108.475 271.811, 102.881 271.376, 96.392 268.408 C 90.774 265.838, 90.702 265.832, 88.181 267.714 C 86.782 268.759, 84.764 271.296, 83.697 273.352 C 81.840 276.931, 81.764 279.415, 81.931 331.545 C 82.115 388.806, 82.844 405.298, 85.472 411.587 C 86.350 413.689, 89.015 417.274, 91.394 419.553 C 93.989 422.039, 96.435 425.658, 97.509 428.598 C 101.614 439.840, 102.876 441.954, 107.380 445.128 C 110.674 447.450, 112.701 449.997, 114.870 454.537 C 117.038 459.077, 118.999 461.540, 122.109 463.631 C 124.675 465.357, 127.692 468.757, 129.682 472.165 C 131.541 475.349, 134.519 478.775, 136.479 479.987 C 138.398 481.173, 142.112 484.660, 144.734 487.737 C 147.355 490.813, 151.232 494.589, 153.349 496.128 C 155.466 497.667, 158.678 501.008, 160.487 503.552 C 162.296 506.097, 166.057 509.826, 168.845 511.839 C 171.633 513.853, 175.293 517.423, 176.980 519.774 C 178.667 522.124, 182.260 525.409, 184.966 527.074 C 187.671 528.739, 191.432 532.255, 193.324 534.888 C 195.441 537.835, 198.872 540.866, 202.247 542.771 C 205.944 544.856, 208.671 547.361, 210.616 550.453 C 212.815 553.951, 215.005 555.799, 219.841 558.236 C 223.888 560.276, 227.143 562.790, 228.841 565.186 C 230.670 567.768, 234.257 570.411, 240.334 573.654 C 246.399 576.891, 250.318 579.776, 252.834 582.858 C 255.435 586.042, 258.562 588.301, 263.596 590.632 C 268.694 592.993, 271.761 595.222, 274.486 598.548 C 277.223 601.888, 280.261 604.091, 285.390 606.454 C 289.300 608.256, 295.131 612.056, 298.347 614.899 C 301.563 617.742, 306.983 621.333, 310.391 622.878 C 315.219 625.067, 317.402 626.821, 320.275 630.820 C 324.238 636.335, 327.611 637.954, 331.474 636.194 C 334.936 634.616, 335.757 630.365, 336.438 610.500 C 337.092 591.387, 338.248 581.304, 342.458 558 C 346.265 536.931, 346.907 531.704, 348.032 512.658 C 348.590 503.221, 349.985 489.875, 351.132 483 C 352.974 471.970, 353.250 465.620, 353.482 429 C 353.767 384.028, 354.167 380.238, 359.467 372.230 C 364.728 364.280, 363.505 358.099, 356.259 356.021 C 354.192 355.428, 344.625 354.499, 335 353.956 C 313.263 352.730, 307.349 351.729, 293.500 346.931 C 277 341.215, 270.999 339.946, 256 339 C 230.776 337.410, 219.793 332.528, 222.470 324.094 C 222.866 322.846, 225.682 320.822, 229.674 318.917 C 233.278 317.197, 237.959 314.225, 240.075 312.313 C 245.717 307.216, 252.194 305.209, 270.297 302.950 C 292.065 300.234, 300.522 298.466, 312.984 294.026 C 325.339 289.624, 326.630 289.368, 343 288.074 C 391.574 284.234, 467.896 284.993, 486.818 289.503 C 490.292 290.331, 496.817 292.761, 501.318 294.903 C 511.047 299.534, 513.724 300.379, 525.364 302.496 C 537.323 304.670, 541.421 306.481, 545.211 311.267 C 547.388 314.015, 550.518 316.259, 554.959 318.256 C 558.556 319.874, 562.513 322.132, 563.750 323.273 C 568.112 327.297, 565.878 332.750, 558.594 335.859 C 556.995 336.541, 549.120 337.767, 541.094 338.582 C 520.306 340.693, 510.616 342.661, 501.674 346.587 C 491.282 351.151, 488.142 351.799, 470.500 353.017 C 458.433 353.851, 454.620 354.488, 451 356.277 C 444.897 359.292, 444.082 361.948, 446.453 371.090 C 448.046 377.229, 448.210 380.617, 447.678 396.340 C 447.340 406.328, 446.552 417.875, 445.927 422 C 444.411 432.009, 445.277 447.044, 447.773 454.042 C 450.298 461.122, 451.546 468.864, 454.052 493 C 455.166 503.725, 457.390 521.050, 458.995 531.500 C 463.743 562.436, 466.992 603.670, 466.146 622.293 C 465.746 631.119, 466.981 635.215, 470.530 636.832 C 474.313 638.555, 478.453 636.500, 482.475 630.902 C 485.452 626.758, 487.399 625.338, 494.757 621.944 C 500.195 619.436, 505.201 616.248, 508 613.512 C 510.475 611.093, 515.425 607.791, 519 606.175 C 523.480 604.150, 526.636 601.855, 529.154 598.792 C 531.494 595.946, 535.450 592.963, 540.154 590.496 C 544.194 588.377, 549.975 584.302, 553 581.440 C 556.025 578.579, 561.200 574.881, 564.500 573.222 C 568.644 571.139, 571.458 568.841, 573.595 565.793 C 575.750 562.721, 578.389 560.577, 582.281 558.734 C 586.036 556.956, 588.959 554.625, 591.186 551.632 C 593.008 549.182, 596.910 545.703, 599.856 543.902 C 602.802 542.101, 606.852 538.641, 608.856 536.214 C 610.860 533.786, 615.004 530.085, 618.064 527.989 C 625.605 522.824, 666.144 483.052, 671.529 475.536 C 673.907 472.216, 677.882 467.814, 680.362 465.754 C 682.842 463.694, 686.071 459.802, 687.539 457.105 C 689.007 454.408, 692.562 450.170, 695.439 447.686 C 699.548 444.138, 701.152 441.847, 702.919 437.003 C 704.347 433.086, 706.918 428.903, 709.968 425.536 C 714.250 420.807, 719 411.401, 719 407.651 C 719 406.950, 719.861 403.029, 720.913 398.938 C 722.709 391.954, 722.809 387.891, 722.537 332.416 C 722.330 290.076, 721.920 272.720, 721.091 271.170 C 719.728 268.624, 713.155 265.080, 711 265.730 C 710.175 265.978, 707.554 267.059, 705.176 268.130 C 696.624 271.986, 691 271.413, 691 266.687 C 691 260.581, 697.352 257.741, 705.032 260.415 C 711.101 262.528, 712.265 262.412, 715.076 259.414 C 717.319 257.022, 717.497 256.070, 717.463 246.664 C 717.420 234.659, 715.985 231.053, 710.048 228.025 C 707.898 226.927, 704.644 224.163, 702.819 221.881 C 696.809 214.369, 695.503 213.367, 687.965 210.488 C 682.823 208.524, 678.944 206.180, 675.500 202.956 C 669.162 197.022, 668.017 196.452, 657.528 194.007 C 648.235 191.840, 644.946 190.422, 638.682 185.885 C 633.407 182.063, 627.575 180.424, 610.579 177.988 C 602.092 176.771, 592.329 174.597, 586 172.516 C 569.704 167.156, 563.013 165.971, 534.500 163.391 C 520.884 162.159, 497.297 161.789, 416 161.533 C 360.175 161.358, 301 161.556, 284.500 161.973 M 114.666 274.477 C 112.715 276.428, 112.534 279.256, 114.163 282.316 C 116.115 285.980, 118.243 286.935, 124.527 286.968 C 131.390 287.004, 135 285.153, 135 281.598 C 135 277.502, 130.211 274.540, 121.916 273.507 C 117.396 272.944, 116.014 273.128, 114.666 274.477 M 665.021 276.306 C 660.754 277.771, 658.702 282.130, 661.134 284.563 C 662.765 286.193, 674.861 286.787, 679.242 285.451 C 684.312 283.907, 686.686 279.086, 683.800 276.200 C 682.250 274.650, 669.641 274.721, 665.021 276.306 M 144.677 290.197 C 143.342 291.210, 142.941 292.612, 143.177 295.441 C 143.670 301.334, 147.228 303.507, 156.323 303.472 C 160.270 303.457, 165.188 302.859, 167.250 302.144 C 170.616 300.978, 171 300.488, 171 297.366 C 171 294.191, 170.597 293.709, 166.372 291.840 C 160.421 289.208, 147.292 288.213, 144.677 290.197 M 395 291.042 C 391.975 291.460, 386.350 291.863, 382.500 291.936 C 378.650 292.010, 372.575 292.737, 369 293.552 C 350.118 297.858, 336.772 300.043, 320.927 301.426 C 297.409 303.479, 281.704 305.741, 276.051 307.889 C 270.137 310.136, 260.059 316.953, 256.634 321.023 C 251.414 327.227, 254.060 332.825, 263.481 335.507 C 266.241 336.293, 277.725 337.638, 289 338.496 C 311.080 340.176, 315.582 340.758, 335.500 344.502 C 342.650 345.846, 351.578 347.223, 355.339 347.562 C 362.857 348.239, 365.540 349.958, 366.520 354.725 C 367.955 361.702, 369.259 365.259, 371.032 367.032 C 376.987 372.987, 388.876 368.493, 395.679 357.716 C 399.024 352.418, 403.002 351.037, 417.856 350.016 C 430.556 349.143, 445.028 347.045, 469.896 342.470 C 477.264 341.115, 492.339 339.321, 503.396 338.484 C 533.219 336.225, 540 334.181, 540 327.452 C 540 324.561, 538.930 322.776, 533.867 317.225 C 523.616 305.983, 520.855 305.017, 486.258 300.559 C 479.525 299.691, 470.525 297.846, 466.258 296.459 C 451.271 291.587, 412.422 288.633, 395 291.042 M 636.500 290.456 C 635.950 290.659, 634.294 291.090, 632.820 291.414 C 627.570 292.568, 625.059 298.144, 628.502 301.002 C 630.852 302.952, 643.270 302.521, 647.744 300.335 C 651.762 298.372, 653.305 294.304, 650.801 292.276 C 649.476 291.204, 638.320 289.784, 636.500 290.456 M 186 308.257 C 181.448 309.874, 180.798 313.166, 184.545 315.622 C 188.061 317.925, 203.067 318.837, 206.574 316.960 C 209.585 315.349, 209.730 311.971, 206.898 309.408 C 204.303 307.059, 191.377 306.347, 186 308.257 M 593.500 308.213 C 586.712 310.601, 585.956 314.248, 591.748 316.668 C 599.153 319.762, 614 316.596, 614 311.923 C 614 307.798, 601.244 305.489, 593.500 308.213 M 421 359.713 C 420.175 360.018, 417.025 361.757, 414 363.576 C 410.975 365.396, 405.350 367.846, 401.500 369.020 C 389.969 372.537, 389.109 373.042, 384.686 378.884 C 382.029 382.394, 378.707 385.385, 375.828 386.859 C 373.295 388.157, 370.701 390.360, 370.065 391.756 C 369.365 393.293, 368.536 405.189, 367.965 421.897 C 366.131 475.490, 366.242 477.598, 371.280 485.099 C 374.501 489.895, 378.922 490.127, 387.736 485.962 C 391.714 484.082, 400.115 481.584, 408.463 479.797 C 416.183 478.145, 423.757 476.142, 425.294 475.348 C 428.664 473.605, 431.460 469.268, 433.653 462.381 C 435.701 455.947, 434.936 452.630, 431.029 451.012 C 426.651 449.198, 421.647 450.523, 417.279 454.652 C 408.972 462.504, 408.330 462.559, 396.419 456.430 C 385.676 450.903, 385.382 450.670, 382.801 445.611 C 381.044 442.166, 380.817 440.288, 381.222 432.538 C 381.685 423.685, 383.216 418.725, 386.267 416.193 C 388.162 414.620, 404.321 410, 407.925 410 C 409.518 410, 413.673 411.350, 417.160 412.999 C 424.830 416.627, 427.046 416.725, 430.684 413.595 C 433.127 411.494, 433.447 410.578, 433.214 406.345 C 433.068 403.680, 432.842 392.572, 432.712 381.660 C 432.494 363.372, 432.324 361.710, 430.546 360.410 C 428.626 359.006, 423.854 358.657, 421 359.713" stroke="none" fill="#444" fill-rule="evenodd"/></svg>