<svg xmlns="http://www.w3.org/2000/svg" width="1000" height="1000" viewBox="0 0 1000 1000" version="1.1"><path d="M 430 280.540 C 428.625 280.720, 409.275 281.350, 387 281.938 C 311.687 283.929, 293.101 285.675, 273.500 292.602 C 258.922 297.754, 243.767 301.650, 233.461 302.896 C 217.755 304.796, 208.331 307.650, 200 313.030 C 191.539 318.494, 185.094 321.239, 175.505 323.463 C 166.773 325.488, 163.662 327.198, 156.400 333.966 C 151.666 338.377, 148 340.633, 140.038 344.033 C 130.342 348.173, 129.548 348.740, 125.638 354.308 C 122.803 358.346, 119.354 361.594, 114.685 364.623 C 108.758 368.467, 107.543 369.792, 105.368 374.772 C 102.052 382.363, 100.500 385.209, 95.253 393.319 C 87.360 405.516, 87.990 395.529, 87.919 509.631 L 87.855 612.284 92.527 617.027 C 95.096 619.636, 99.066 624.612, 101.349 628.084 C 104.967 633.587, 106.457 634.884, 112.951 638.183 C 117.980 640.738, 122.205 643.887, 125.951 647.872 C 131.133 653.385, 132.159 653.987, 141.481 656.981 C 153.991 661, 156.382 662.225, 162.147 667.575 C 167.953 672.963, 171.581 674.503, 185.994 677.695 C 198.617 680.491, 204.853 682.925, 213.402 688.394 C 220.370 692.852, 229.865 695.564, 245.500 697.562 C 260.820 699.519, 274.755 702.901, 288.472 707.990 C 307.139 714.915, 320.763 716.589, 378 718.995 C 391.475 719.561, 413.272 720.511, 426.438 721.106 C 461.056 722.670, 577.462 721.761, 604.500 719.716 C 616.050 718.842, 632.925 717.665, 642 717.099 C 661.353 715.894, 678.329 712.670, 692.500 707.511 C 706.010 702.592, 720.260 699.288, 733.500 698.005 C 754.952 695.925, 762.732 693.974, 773.806 687.896 C 783.442 682.608, 793.042 679.363, 803.147 677.980 C 815.802 676.247, 823.694 673.383, 831.301 667.761 C 837.889 662.892, 847.734 658.072, 851.190 658.024 C 852.120 658.011, 856.170 656.831, 860.190 655.403 C 865.928 653.365, 868.790 651.574, 873.500 647.076 C 880.138 640.737, 883.181 638.641, 887.173 637.658 C 891.190 636.670, 895.807 632.314, 898.526 626.949 C 899.861 624.314, 903.254 620.219, 906.065 617.848 C 908.877 615.477, 911.599 612.749, 912.115 611.785 C 912.681 610.727, 913.063 569.985, 913.077 509.075 C 913.101 410.022, 913.063 408.044, 911.098 404.193 C 909.997 402.034, 908.032 398.969, 906.733 397.384 C 903.476 393.410, 900.207 387.913, 895.500 378.500 C 892.001 371.503, 890.695 369.935, 885.070 365.982 C 881.534 363.497, 876.559 358.772, 874.015 355.482 C 870.169 350.508, 867.801 348.657, 859.965 344.500 C 854.576 341.641, 847.961 337.096, 844.520 333.886 C 837.434 327.278, 832.632 324.656, 823.902 322.625 C 815.555 320.684, 810.927 318.520, 803 312.854 C 795.240 307.306, 789.465 305.462, 773.500 303.431 C 761.049 301.847, 743.019 297.870, 737.124 295.407 C 729.835 292.362, 714.563 288.861, 700.365 286.980 C 671.321 283.134, 601.614 280.798, 506 280.467 C 465.575 280.327, 431.375 280.360, 430 280.540 M 442.500 285.079 C 421.050 285.466, 400.575 286.273, 397 286.872 C 393.425 287.470, 384.316 287.969, 376.757 287.980 C 363.181 288, 346.214 290.547, 327.355 295.396 C 311.020 299.597, 289.120 302.936, 277.500 302.998 C 262.938 303.076, 239.911 307.690, 232.500 312.015 C 220.011 319.303, 213.378 322, 204 323.603 C 191.497 325.741, 185.468 328.125, 180 333.093 C 173.896 338.638, 168.725 341.489, 161 343.568 C 151.531 346.115, 147.741 348.313, 144.439 353.172 C 140.633 358.770, 138.475 360.653, 133.080 363.084 C 128.003 365.371, 124.547 368.758, 122.638 373.317 C 121.379 376.325, 116.378 381.302, 110.601 385.295 C 106.121 388.392, 104.590 392.614, 104.543 402 C 104.506 409.283, 104.826 410.957, 106.776 413.691 C 108.028 415.446, 110.053 417.186, 111.276 417.557 C 115.729 418.909, 120.255 423.328, 122.586 428.598 C 125.261 434.648, 127.671 436.283, 136.245 437.868 C 145.405 439.562, 147.515 441.072, 155.677 451.783 C 158.069 454.922, 161.911 456.342, 172.500 458.004 C 183.254 459.691, 188.882 462.713, 194.120 469.616 C 199.735 477.015, 202.118 477.866, 217.500 477.963 C 230.841 478.048, 240.409 479.181, 247.669 481.536 C 251.374 482.737, 253.940 484.664, 258.677 489.801 C 264.736 496.373, 264.945 496.497, 269.677 496.353 C 274.734 496.200, 281.063 493.634, 291.500 487.507 C 302.817 480.863, 307.779 479.884, 334 479.115 C 359.720 478.361, 360.105 478.274, 365.789 471.943 C 370.432 466.770, 376.274 464.542, 391.500 462.136 C 415.192 458.392, 434.011 457.732, 500.805 458.303 C 561.560 458.823, 577.689 459.538, 594.500 462.460 C 604.876 464.263, 609.170 466.153, 614.853 471.417 C 622.249 478.267, 622.505 478.333, 644.500 479.113 C 655.500 479.502, 666.975 480.346, 670 480.987 C 673.025 481.628, 680.500 484.646, 686.612 487.693 C 696.751 492.748, 698.346 493.245, 704.818 493.367 C 711.865 493.499, 711.939 493.473, 716.206 489.309 C 724.414 481.297, 737.670 478, 761.671 478 C 778.261 478, 782.226 476.753, 786.371 470.229 C 791.864 461.585, 797.662 459.149, 815.788 457.873 C 823.280 457.345, 830.554 456.370, 831.954 455.707 C 833.354 455.043, 835.508 452.475, 836.740 450 C 840.864 441.715, 843.859 439.932, 858.228 437.203 C 866.351 435.660, 870.812 433.258, 873.519 428.970 C 876.645 424.017, 880.044 421.476, 886.307 419.408 C 896.219 416.134, 898.719 412.721, 897.673 403.889 C 896.644 395.199, 892.901 388.556, 886.820 384.629 C 881.434 381.151, 879.873 379.317, 876.919 373 C 874.878 368.635, 872.880 366.847, 865.969 363.201 C 861.753 360.977, 859.583 358.914, 856.500 354.203 C 852.223 347.668, 850.202 346.383, 839.500 343.392 C 832.173 341.344, 829.909 339.997, 823.500 333.871 C 817.209 327.857, 811.757 325.465, 801 323.999 C 790.341 322.546, 781.261 319.674, 776.319 316.192 C 769.669 311.505, 764.038 308.832, 757.675 307.340 C 747.023 304.844, 731.887 303.037, 721.470 303.018 C 709.642 302.997, 690.087 300.721, 678.062 297.966 C 637.207 288.608, 617.196 286.614, 548 285.008 C 507.321 284.063, 498.366 284.069, 442.500 285.079 M 882.531 445.378 C 881.224 446.686, 879.604 449.588, 878.933 451.828 C 877.195 457.630, 873.425 460.834, 866.929 462.031 C 863.943 462.581, 858.908 463.507, 855.740 464.089 C 849.565 465.222, 844.572 468.553, 843.439 472.294 C 842.460 475.525, 838.989 478.967, 835 480.663 C 832.969 481.527, 826.045 482.479, 818.500 482.932 C 803.256 483.848, 799.140 485.245, 795.690 490.674 C 792.243 496.100, 790.087 497.764, 783.393 500.163 C 778.485 501.923, 774.153 502.391, 757.470 502.964 C 738.518 503.615, 737.146 503.796, 731.970 506.321 C 728.961 507.788, 724.250 510.799, 721.500 513.011 C 712.002 520.651, 696.026 523.741, 672.551 522.479 C 651.145 521.328, 622.005 521.148, 611.691 522.103 C 605.542 522.672, 599.350 524.161, 591.191 527.030 C 568.665 534.951, 557.877 537.061, 536 537.822 C 516 538.517, 491.235 538.613, 473.464 538.063 C 459.550 537.632, 456.220 538.385, 442.346 545.101 C 428.555 551.776, 425.643 554.511, 424.094 562.238 C 420.347 580.937, 419.903 601.191, 421.293 690 C 421.341 693.025, 421.014 698.228, 420.567 701.562 C 419.559 709.085, 421.238 712.936, 426.644 715.501 C 430.039 717.113, 433.715 717.249, 467.438 717.012 C 487.822 716.869, 520.700 716.813, 540.500 716.888 C 560.300 716.963, 581.225 716.546, 587 715.961 C 616.070 713.016, 624.386 711.783, 633.595 709.053 C 639.043 707.438, 648.900 704.494, 655.500 702.511 C 665.779 699.422, 669.736 698.770, 683.088 697.965 C 712.732 696.177, 721.552 694.322, 737.131 686.593 C 749.078 680.666, 752.115 679.894, 776.500 676.586 C 791.173 674.596, 796.521 672.847, 803.036 667.908 C 810.231 662.454, 815.370 660.212, 824.756 658.434 C 839.021 655.731, 844.251 653.448, 851.903 646.587 C 857.177 641.858, 860.348 639.861, 864.707 638.522 C 872.962 635.987, 877.001 633.483, 881 628.420 C 882.925 625.982, 886.754 622.436, 889.508 620.539 C 898.831 614.118, 898.091 621.184, 898.497 534.728 C 898.694 492.803, 898.968 457.150, 899.106 455.500 C 899.530 450.428, 898.122 447.045, 894.723 444.973 C 890.281 442.264, 885.485 442.424, 882.531 445.378 M 105.455 447.455 C 104.105 448.805, 102.996 450.942, 102.991 452.205 C 102.956 461.176, 102.926 608.094, 102.959 610.351 C 102.992 612.632, 105.173 615.335, 113.872 623.874 C 124.376 634.186, 126.686 635.844, 135.668 639.523 C 137.960 640.462, 142.465 643.827, 145.680 647.002 C 150.763 652.023, 152.497 653.054, 159.012 654.934 C 178.940 660.686, 179.412 660.885, 186.385 666.479 C 193.857 672.474, 197.854 674.029, 212.464 676.625 C 225.453 678.933, 236.536 682.537, 244 686.880 C 247.575 688.961, 251.850 691.183, 253.500 691.818 C 258.214 693.635, 280.182 696.909, 295 698.004 C 316.581 699.598, 331.092 702.104, 340.795 705.910 C 351.354 710.053, 364.481 712.287, 375.278 711.779 C 386.539 711.249, 392.136 709.484, 394.081 705.849 C 395.911 702.429, 395.419 609.724, 393.517 599.744 C 392.234 593.008, 392.294 592.087, 394.597 583.225 C 397.787 570.945, 400.547 547.970, 399.588 541.668 C 398.938 537.396, 398.458 536.671, 395.439 535.410 C 393.561 534.625, 388.531 533.526, 384.262 532.967 C 378.455 532.207, 374.485 530.915, 368.500 527.838 C 358.394 522.641, 356.560 522.101, 345.196 520.968 C 338.388 520.290, 331.813 520.435, 320.696 521.509 C 301.094 523.402, 285.484 523.388, 274.464 521.466 C 260.905 519.101, 256.648 517.371, 251.202 512.009 C 243.218 504.151, 241.914 503.752, 221.500 502.912 C 197.871 501.940, 192.532 500.263, 186.550 491.937 C 182.110 485.756, 179.136 484.268, 168.840 483.076 C 160.723 482.136, 155.916 480.875, 151.282 478.471 C 148.949 477.261, 143 470.377, 143 468.888 C 143 467.605, 138.075 465.343, 131.605 463.654 C 124.724 461.857, 121.458 459.151, 118.741 453 C 117.648 450.525, 116.064 447.712, 115.222 446.750 C 113.004 444.216, 108.357 444.552, 105.455 447.455 M 547.512 481.821 C 547.296 482.037, 514.355 482.200, 474.310 482.184 C 434.264 482.168, 398.143 482.553, 394.040 483.039 C 385.557 484.044, 381.667 486.286, 381.174 490.453 C 380.509 496.065, 388.004 501.232, 401.752 504.637 C 407.282 506.007, 413.285 508.251, 415.923 509.935 C 420.040 512.562, 421.606 512.917, 431.500 513.462 C 437.550 513.795, 448.575 514.764, 456 515.615 C 467.369 516.918, 473.604 516.998, 495.500 516.119 C 521.890 515.061, 527.883 514.158, 538.004 509.716 C 539.932 508.871, 545.332 507.656, 550.004 507.018 C 578.202 503.164, 587.347 500.770, 594.750 495.300 C 600.415 491.114, 598.660 486.063, 590.805 483.948 C 585.535 482.528, 548.618 480.715, 547.512 481.821 M 493.500 558.603 C 483.052 561.126, 472.613 566.068, 462.765 573.154 C 459.061 575.819, 455.733 578, 455.368 578 C 453.694 578, 446.154 585.213, 445.055 587.867 C 444.033 590.334, 444.100 591.408, 445.450 594.252 C 447.458 598.484, 451.889 601.020, 463.352 604.498 C 471.407 606.941, 472.711 607.705, 477.852 612.987 C 484.600 619.922, 487.684 620.987, 501.038 620.994 C 512.997 621.001, 518.248 618.789, 521.835 612.232 C 524.452 607.448, 526.655 606.092, 535.923 603.556 C 545.875 600.834, 553 595.252, 553 590.176 C 553 586.370, 545.168 579.139, 536.503 574.945 C 531.945 572.738, 526.704 569.350, 524.858 567.416 C 518.467 560.723, 513.656 558.627, 504.070 558.359 C 499.356 558.228, 494.600 558.337, 493.500 558.603 M 497 587.987 C 494.239 589.747, 497.170 592.464, 502.190 592.798 C 507.424 593.146, 510.170 591.115, 508 588.500 C 506.598 586.811, 499.373 586.474, 497 587.987 M 495 640.602 C 487.036 642.020, 483.802 643.477, 480.499 647.133 C 478.574 649.263, 477 651.386, 477 651.851 C 477 653.227, 470.026 655.887, 462.211 657.492 C 449.618 660.078, 445.061 663.512, 445.022 670.444 C 445.003 673.896, 445.577 674.894, 449.630 678.444 C 452.176 680.675, 457.013 685.031, 460.380 688.124 C 468.047 695.170, 470.610 696.463, 481.894 698.976 C 493.063 701.464, 507.420 701.650, 515.068 699.407 C 527.910 695.639, 548.849 680.607, 552.063 672.849 C 553.032 670.508, 552.948 669.570, 551.583 667.486 C 548.783 663.213, 542.224 659.183, 536.177 658.020 C 527.288 656.310, 524.325 654.559, 520.898 648.989 C 519.191 646.215, 516.378 643.210, 514.647 642.311 C 511.547 640.702, 500.054 639.702, 495 640.602 M 496.500 667.914 C 494.413 668.331, 493.405 669.179, 493.188 670.699 C 492.930 672.509, 493.503 673.004, 496.508 673.568 C 498.506 673.942, 501.536 673.849, 503.242 673.360 C 510.938 671.152, 504.864 666.246, 496.500 667.914" stroke="none" fill="#444" fill-rule="evenodd"/></svg>