<svg xmlns="http://www.w3.org/2000/svg" width="800" height="800" viewBox="0 0 800 800" version="1.1"><path d="M 358.272 200.073 C 343.150 201.037, 321.351 203.495, 305.500 206.024 C 298.900 207.078, 279.775 208.874, 263 210.016 C 223.749 212.688, 217.853 213.601, 205.702 218.884 C 198.694 221.931, 191.081 223.715, 175.422 225.978 C 155.004 228.929, 152.200 229.722, 145 234.578 C 139.788 238.093, 136.173 239.553, 126.759 241.941 C 113.291 245.358, 113.252 245.376, 104.469 252.023 C 100.853 254.761, 97.440 257, 96.885 257 C 96.330 257, 93.496 258.126, 90.586 259.503 C 86.585 261.395, 84.563 263.185, 82.289 266.842 C 80.636 269.502, 77.307 273.004, 74.891 274.625 C 66.908 279.983, 67.533 269.608, 67.216 402 C 66.965 507.240, 67.107 520.958, 68.488 524.590 C 69.535 527.344, 72.937 531.429, 78.897 537.090 C 94.837 552.230, 100.580 556.739, 106.823 559.016 C 110.083 560.205, 114.926 562.974, 117.584 565.170 C 124.260 570.687, 126.474 571.681, 138.325 574.481 C 151.284 577.544, 153.313 578.314, 159.500 582.529 C 165.677 586.736, 172.056 588.419, 189.728 590.504 C 205.002 592.307, 215.999 594.640, 229.500 598.941 C 234.450 600.519, 241.875 602.303, 246 602.906 C 261.215 605.132, 299.652 605.981, 385.639 605.990 C 496.755 606.002, 516.675 604.979, 540.799 598.018 C 554.194 594.153, 563.543 592.483, 585.500 590.034 L 603.500 588.026 614.500 582.511 C 623.149 578.174, 628.038 576.455, 637.372 574.468 C 650.669 571.636, 651.922 571.123, 657.330 566.286 C 661.405 562.642, 665.934 560.429, 675.299 557.505 C 679.717 556.127, 682.218 554.519, 685.799 550.759 C 688.385 548.044, 692.300 544.898, 694.500 543.767 C 699.888 540.999, 716.915 523.781, 717.998 520.008 C 718.468 518.368, 719.347 493.058, 719.952 463.763 C 720.556 434.468, 721.497 403.525, 722.043 395 C 722.588 386.475, 723.928 364.073, 725.020 345.217 C 726.111 326.361, 727.443 309.036, 727.978 306.717 C 729.748 299.049, 729.195 296.539, 723.028 284.217 C 715.380 268.940, 710.581 263.752, 698.500 257.708 C 693.550 255.232, 688.375 251.991, 687 250.508 C 683.436 246.662, 680.990 245.605, 667.527 242.088 C 659.191 239.910, 653.572 237.764, 649.027 235.021 C 640.397 229.812, 636.099 228.397, 624.878 227.070 C 609.056 225.201, 598.918 223, 589 219.283 C 572.472 213.089, 570.032 212.708, 529.500 209.986 C 513.550 208.914, 488.575 206.660, 474 204.975 C 423.900 199.186, 392.833 197.870, 358.272 200.073 M 311.500 212.083 C 292.877 213.316, 280.569 214.935, 270.105 217.529 C 253.436 221.662, 239.189 224.021, 215.965 226.495 C 188.223 229.450, 186.178 229.902, 175.270 235.499 C 167.543 239.464, 164.756 240.287, 151.826 242.424 C 135.774 245.076, 134.530 245.532, 128.171 251.101 C 123.997 254.756, 121.028 256.035, 108.847 259.426 C 104.394 260.666, 102.169 262.069, 98.360 266.043 C 95.702 268.818, 91.607 272.212, 89.262 273.587 C 84.748 276.232, 82.940 279.092, 79.036 289.767 L 76.743 296.034 80.253 303.267 C 82.183 307.245, 84.241 311.704, 84.826 313.176 C 85.632 315.204, 87.373 316.393, 92.015 318.086 C 96.950 319.885, 99.121 321.446, 103.186 326.120 C 108.588 332.331, 110.286 333.153, 121.500 334.990 C 131.012 336.549, 136.093 338.989, 140.031 343.889 C 144.094 348.944, 146.199 349.556, 164.425 350.981 C 185.402 352.621, 189.626 353.894, 197.748 361.021 C 200.085 363.072, 203.460 365.065, 205.248 365.451 C 207.037 365.837, 217.814 366.319, 229.198 366.522 C 240.582 366.725, 253.407 367.337, 257.698 367.882 C 261.989 368.427, 269.550 369.167, 274.500 369.526 C 285.135 370.296, 293.555 371.943, 304.500 375.392 C 308.900 376.779, 315.875 378.409, 320 379.014 C 324.125 379.620, 331.550 380.725, 336.500 381.470 C 348.075 383.213, 447.201 383.678, 460 382.050 C 467.964 381.037, 471.876 380.128, 489.500 375.196 C 506.989 370.302, 536.288 367.151, 570 366.539 C 580.175 366.355, 589.714 365.728, 591.198 365.146 C 592.681 364.565, 595.658 362.497, 597.813 360.550 C 599.968 358.603, 603.264 356.370, 605.138 355.587 C 610.325 353.420, 624.097 351.060, 635.378 350.407 C 648.520 349.645, 651.253 348.732, 655.167 343.789 C 659.191 338.709, 664.129 336.500, 674.975 334.931 C 683.992 333.626, 684.265 333.454, 691.192 324.744 C 692.822 322.693, 695.583 320.804, 698.192 319.953 C 703.038 318.373, 711.544 310.232, 715.713 303.185 C 717.874 299.533, 718.182 298.053, 717.719 293.562 C 716.911 285.736, 713.893 280.633, 707.743 276.697 C 704.859 274.851, 701.140 271.790, 699.478 269.895 C 694.384 264.087, 689.803 261.219, 681.178 258.437 C 675.957 256.753, 670.746 254.178, 667.048 251.456 C 660.027 246.288, 655.042 244.483, 642.193 242.456 C 630.067 240.544, 624.368 238.728, 615.500 233.950 C 607.340 229.553, 602.378 228.460, 584 227.009 C 557.992 224.955, 541.726 222.514, 528 218.604 C 505.670 212.244, 483.057 210.969, 395.654 211.145 C 355.969 211.224, 318.100 211.647, 311.500 212.083 M 703.500 338.887 C 701.850 339.921, 698.475 342.880, 696 345.463 C 690.140 351.580, 687.602 352.821, 677.255 354.627 C 668.106 356.224, 663.933 357.884, 661.811 360.772 C 659.584 363.802, 654.909 366.948, 651.119 367.966 C 649.129 368.501, 641.503 369.394, 634.174 369.951 C 617.667 371.205, 613.894 372.197, 609.078 376.549 C 606.983 378.441, 603.547 380.709, 601.443 381.588 C 595.431 384.100, 576.223 385.934, 555.500 385.975 C 532.563 386.019, 519.206 387.779, 510.351 391.923 C 499.848 396.838, 487.942 398.390, 449 399.919 C 421.171 401.012, 360.782 400.796, 350.974 399.569 C 344.714 398.786, 344.310 398.868, 341.088 401.580 C 335.966 405.890, 335.053 409.255, 334.404 426.233 C 333.938 438.419, 333.048 445.233, 329.997 460 C 323.260 492.606, 322.824 497.828, 322.897 545.074 C 322.960 586.117, 323.022 587.413, 325.105 591.717 C 326.352 594.293, 328.269 596.532, 329.689 597.072 C 331.032 597.582, 342.591 598, 355.377 598 C 375.598 598, 379.642 597.733, 386.447 595.951 C 393.750 594.038, 394.712 593.999, 400.886 595.369 C 411.956 597.826, 434.664 598.417, 449 596.621 C 475.407 593.314, 489.297 592.077, 512 591.011 C 556.615 588.917, 559.147 588.528, 583 580.127 C 587.903 578.400, 597.614 576.213, 605.949 574.959 C 624.307 572.196, 627.545 571.188, 635.772 565.671 C 640.513 562.493, 645.288 560.377, 651.939 558.508 C 663.511 555.256, 666.225 553.897, 669.039 549.945 C 670.352 548.102, 674.108 545.463, 678.368 543.391 C 682.291 541.484, 687.525 537.989, 690 535.625 C 692.475 533.260, 695.807 530.346, 697.405 529.147 C 702.166 525.576, 704.760 521.227, 708.093 511.222 C 710.818 503.040, 711.162 500.887, 710.607 495.468 C 710.231 491.794, 710.615 483.453, 711.535 475.346 C 712.400 467.731, 713.544 450.250, 714.078 436.500 C 715.713 394.390, 715.975 388.242, 717.092 365.866 C 718.040 346.874, 717.982 343.867, 716.623 341.237 C 714.176 336.506, 708.829 335.548, 703.500 338.887 M 79.400 341.509 L 76.891 344.018 77.537 430.259 L 78.182 516.500 80.570 521.500 C 84.851 530.468, 90.041 536.162, 100.164 543 C 105.457 546.575, 111.400 550.940, 113.372 552.700 C 115.853 554.916, 119.964 556.836, 126.728 558.940 C 133.437 561.027, 137.910 563.110, 141 565.586 C 148.002 571.197, 150.228 572.004, 165.865 574.601 C 182.359 577.340, 184.426 577.901, 195.168 582.560 C 205.828 587.183, 215.277 588.898, 236.340 590.034 C 266.548 591.663, 280.165 592.906, 287.205 594.676 C 295.150 596.674, 297.927 595.875, 300.702 590.793 C 302.301 587.864, 302.573 583.467, 303.159 551 C 303.521 530.925, 304.322 506.175, 304.938 496 C 305.555 485.825, 306.455 468.275, 306.939 457 C 307.702 439.241, 308.179 435.297, 310.509 427.500 C 316.837 406.322, 316.966 406.506, 285.763 392.121 C 275.443 387.363, 265.141 386, 239.500 386 C 209.294 386, 195.380 383.546, 184.966 376.383 C 177.937 371.548, 175.840 371.042, 159 370.121 C 142.369 369.211, 138.404 367.823, 133.017 361.021 C 128.774 355.665, 127.868 355.267, 116.884 353.939 C 104.270 352.413, 101.535 351.155, 98.859 345.647 C 96.321 340.423, 93.762 339, 86.907 339 C 82.904 339, 81.409 339.500, 79.400 341.509 M 388.500 420.529 C 386.300 421.321, 384.397 421.977, 384.270 421.985 C 384.144 421.993, 383.151 423.744, 382.063 425.876 C 380.976 428.008, 378.545 430.661, 376.662 431.772 C 374.618 432.978, 372.082 435.924, 370.369 439.082 C 367.846 443.733, 366.907 444.561, 362.590 445.936 C 356.653 447.827, 353.562 451.526, 353.705 456.568 C 353.827 460.897, 356.053 463.543, 360.871 465.089 C 365.629 466.615, 367.681 468.505, 369.035 472.605 C 370.528 477.130, 374.388 480, 378.980 480 C 383.650 480, 386 477.547, 386 472.671 C 386 468.103, 383.431 465.350, 378.306 464.424 C 372.311 463.341, 371.173 462.364, 370.532 457.747 C 369.646 451.378, 371.031 447.784, 375.123 445.832 C 379.436 443.774, 380.324 442.640, 381.879 437.205 C 383.444 431.734, 385.332 431, 397.843 431 C 405.015 431, 408.136 430.593, 409.777 429.443 C 418.400 423.404, 400.886 416.066, 388.500 420.529 M 419.245 438.250 C 417.722 440.153, 417.140 442.716, 416.076 452.202 C 414.931 462.421, 413.142 466.393, 408.438 469.169 C 406.077 470.562, 405 471.931, 405 473.540 C 405 476.709, 406.161 477.227, 413.053 477.130 C 420.345 477.027, 424.768 475.253, 428.352 470.993 C 431.708 467.005, 436 458.734, 436 456.255 C 436 453.880, 429.766 440.909, 427.569 438.712 C 425.572 436.715, 420.690 436.444, 419.245 438.250 M 391.255 517.117 C 387.834 518.106, 384.381 522.189, 385.473 523.956 C 385.828 524.530, 387.306 525, 388.757 525 C 390.209 525, 395.027 525.525, 399.466 526.167 C 409.893 527.674, 413 526.960, 413 523.054 C 413 518.282, 409.074 515.982, 401.115 516.090 C 397.477 516.140, 393.040 516.602, 391.255 517.117 M 374.790 528.027 C 372.582 529.205, 369.990 531.868, 368.386 534.605 C 366.445 537.916, 364.516 539.707, 361.497 541.001 C 350.301 545.801, 350.114 557.639, 361.182 560.925 C 366.837 562.604, 367.781 563.472, 369.044 568.162 C 370.190 572.419, 374.634 575.989, 378.795 575.996 C 381.826 576.001, 386 571.729, 386 568.622 C 386 565.038, 381.745 560.540, 377.014 559.122 C 369.438 556.853, 369.318 548.723, 376.787 543.701 C 381.290 540.672, 383.398 535.765, 382.808 529.678 C 382.425 525.731, 380.022 525.236, 374.790 528.027 M 417.319 532.250 C 416.880 532.938, 416.384 538.900, 416.217 545.500 C 415.873 559.076, 414.481 563.694, 409.926 566.385 C 406.764 568.252, 406.119 570.448, 408.467 571.349 C 410.975 572.312, 421.867 569.890, 425.264 567.614 C 427.044 566.422, 430.007 563.209, 431.848 560.473 C 434.778 556.122, 435.145 554.875, 434.786 550.500 C 434.333 544.969, 429.945 534.439, 427.237 532.383 C 425.021 530.700, 418.367 530.611, 417.319 532.250" stroke="none" fill="#444" fill-rule="evenodd"/></svg>