<svg xmlns="http://www.w3.org/2000/svg" width="800" height="800" viewBox="0 0 800 800" version="1.1"><path d="M 326.500 165.148 C 290.681 166.049, 272.503 167.757, 258.500 171.537 C 245.483 175.051, 240.661 175.833, 221.727 177.495 C 197.753 179.600, 186.420 181.565, 180.500 184.641 C 177.750 186.069, 173.475 188.264, 171 189.518 C 168.525 190.771, 161.853 192.737, 156.173 193.886 C 143.996 196.349, 138.113 198.761, 132.983 203.396 C 130.835 205.337, 125.914 208.013, 121.490 209.645 C 115.803 211.744, 111.865 214.104, 106.627 218.554 C 102.707 221.884, 96.894 226.159, 93.710 228.054 C 89.392 230.623, 86.877 233.098, 83.823 237.779 C 81.570 241.232, 78.470 244.953, 76.934 246.047 C 73.703 248.347, 70.306 253.495, 68.905 258.215 C 67.553 262.770, 67.721 415.794, 69.085 421.881 C 69.668 424.479, 71.800 428.648, 74.014 431.519 C 77.587 436.150, 79.149 439.165, 84.542 451.846 C 85.558 454.236, 88.301 458.013, 90.637 460.239 C 92.973 462.466, 96.266 467.179, 97.954 470.712 C 99.823 474.627, 102.828 478.772, 105.641 481.319 C 108.182 483.618, 111.402 487.300, 112.797 489.500 C 114.192 491.700, 119.421 497.929, 124.417 503.341 C 137.448 517.461, 177.559 557.071, 183.719 561.904 C 186.590 564.156, 189.955 567.373, 191.197 569.053 C 192.440 570.734, 195.941 573.744, 198.978 575.744 C 202.015 577.744, 206.216 581.308, 208.313 583.665 C 210.410 586.022, 214.729 589.338, 217.912 591.034 C 221.655 593.029, 224.794 595.672, 226.801 598.520 C 228.888 601.481, 231.804 603.887, 235.702 605.867 C 238.891 607.486, 242.850 610.264, 244.500 612.040 C 249.755 617.696, 255.855 621, 261.041 621 C 266.946 621, 268.291 619.540, 270.833 610.361 C 273.320 601.386, 274.272 599.588, 279.559 593.879 C 282.808 590.371, 284.366 587.483, 286.030 581.879 C 288.764 572.674, 290.261 569.720, 295.201 563.786 C 297.360 561.194, 300.648 555.945, 302.508 552.122 C 305.053 546.893, 306.984 544.419, 310.304 542.135 C 315.209 538.760, 316.125 536.933, 318.473 525.845 C 320.341 517.025, 322.841 513.649, 328.639 512.117 C 331.035 511.483, 356.789 511.026, 396.500 510.911 C 468.238 510.704, 464.036 510.305, 472.516 518.122 C 478.153 523.318, 479.567 525.939, 482.519 536.672 C 484.819 545.030, 488.477 552.491, 491.508 555.007 C 494.011 557.084, 496.014 561.565, 498.534 570.724 C 501.188 580.371, 502.771 583.161, 508.310 587.958 C 510.850 590.157, 513.478 593.977, 515.534 598.458 C 517.310 602.331, 519.977 606.624, 521.460 607.998 C 522.943 609.371, 525.733 613.091, 527.661 616.265 C 529.592 619.443, 532.498 622.723, 534.132 623.568 C 536.902 625.001, 537.442 624.944, 542.328 622.707 C 545.270 621.361, 549.735 618.027, 552.530 615.092 C 555.437 612.038, 560.321 608.431, 564.296 606.400 C 569.153 603.919, 571.977 601.672, 574.197 598.523 C 576.196 595.687, 579.342 593.031, 583.029 591.065 C 586.178 589.387, 590.481 586.098, 592.589 583.757 C 594.697 581.415, 598.915 577.759, 601.961 575.632 C 605.008 573.504, 608.780 570.230, 610.345 568.355 C 611.909 566.481, 615.284 563.352, 617.845 561.403 C 623.392 557.180, 663.697 517.357, 676.586 503.364 C 681.583 497.939, 686.812 491.700, 688.206 489.500 C 689.600 487.300, 692.807 483.629, 695.333 481.342 C 698.057 478.876, 701.176 474.603, 702.998 470.842 C 704.687 467.354, 708.055 462.475, 710.483 460 C 713.556 456.866, 716.020 452.806, 718.598 446.629 C 720.635 441.751, 723.779 435.823, 725.585 433.457 C 733.078 423.641, 732.444 431.243, 733.002 344.500 C 733.277 301.600, 733.178 265.199, 732.781 263.609 C 731.485 258.423, 703.391 229.262, 696.080 225.513 C 693.561 224.222, 689.281 220.892, 686.568 218.114 C 682.368 213.812, 680.399 212.668, 673.294 210.406 C 668.706 208.945, 663.275 206.459, 661.226 204.881 C 651.751 197.586, 650.652 197.110, 636.405 194.148 C 625.779 191.939, 620.365 190.232, 614.405 187.212 C 610.057 185.009, 604.925 182.721, 603 182.128 C 598.859 180.850, 578.414 178.375, 565 177.526 C 550.025 176.579, 538.350 175.031, 527 172.487 C 502.226 166.935, 493.670 166.100, 450.500 165.021 C 404.968 163.883, 375.584 163.913, 326.500 165.148 M 342 175.670 C 339.525 175.840, 318.825 176.656, 296 177.484 C 233.315 179.758, 220.826 181.049, 210.241 186.349 C 202.745 190.103, 196.511 191.758, 181.500 193.981 C 164.264 196.534, 159.738 197.973, 152.897 203.077 C 149.946 205.279, 145.049 207.767, 142.015 208.605 C 126.691 212.842, 125.569 213.362, 119.424 219.075 C 115.357 222.856, 111.650 225.288, 108.213 226.429 C 104.760 227.576, 102.167 229.283, 100.290 231.644 C 95.862 237.214, 91.578 241.340, 87.981 243.500 C 83.726 246.054, 82.167 250.427, 82.098 260 C 82.033 269.118, 83.091 270.784, 91.535 274.862 C 101.869 279.852, 102.572 282.963, 93.827 285.011 C 87.146 286.576, 83.693 288.543, 81.757 291.886 C 80.425 294.185, 80.338 302.079, 81.039 357.500 C 81.992 432.799, 82.175 434.270, 91.784 443.879 C 94.883 446.978, 97.056 450.249, 97.906 453.092 C 100.101 460.438, 102.723 464.639, 107.616 468.649 C 111.052 471.464, 113.290 474.581, 116.116 480.485 C 119.154 486.832, 120.945 489.231, 124.726 492.011 C 127.626 494.144, 130.586 497.545, 132.268 500.676 C 134.380 504.609, 136.280 506.532, 140.291 508.795 C 144.538 511.192, 146.015 512.761, 147.987 516.972 C 149.956 521.176, 151.333 522.642, 155.115 524.558 C 160.095 527.082, 162.965 530.087, 164.933 534.839 C 165.697 536.683, 167.960 538.749, 171.072 540.443 C 175.929 543.086, 176.879 544.066, 181.310 551 C 182.654 553.103, 185.832 555.719, 189.274 557.554 C 192.676 559.368, 196.236 562.286, 198.039 564.739 C 199.710 567.011, 203.928 570.670, 207.412 572.870 C 210.896 575.071, 216.479 579.401, 219.820 582.493 C 223.160 585.586, 228.279 589.419, 231.196 591.010 C 234.482 592.804, 238.040 595.921, 240.547 599.202 C 245.764 606.033, 250.659 608.022, 257.731 606.188 C 263.948 604.575, 266.462 601.576, 269.003 592.740 C 272.212 581.582, 273.950 578.282, 278.644 574.436 C 282.069 571.629, 283.295 569.744, 284.489 565.442 C 285.320 562.449, 286.715 557.432, 287.588 554.293 C 288.911 549.540, 290.222 547.575, 295.430 542.543 C 301.238 536.931, 301.773 536.037, 302.942 530 C 305.086 518.925, 305.844 517.376, 311.480 512.561 C 317.207 507.668, 318.457 505.081, 319.482 496 C 320.402 487.854, 322.562 483.614, 327.091 481.069 C 331.914 478.358, 332.625 477.056, 334.614 467.290 C 336.787 456.620, 338.501 453.377, 343.522 450.434 C 348.246 447.666, 349.296 445.623, 351.015 435.864 C 352.443 427.752, 354.711 423.839, 359.871 420.581 C 363.988 417.983, 364.765 416.373, 366.913 406 C 367.557 402.891, 369.997 397.260, 372.526 393.046 C 377.559 384.660, 378.083 380.992, 374.726 377.635 C 372.717 375.626, 370.528 375.164, 355.976 373.675 C 346.914 372.748, 329.274 371.301, 316.775 370.460 C 292.420 368.821, 283.897 367.221, 272.218 362.096 C 263.516 358.276, 259.789 357.414, 241.805 355.063 C 225.738 352.963, 218.681 350.589, 216.902 346.685 C 214.558 341.540, 219.627 337.692, 233.677 333.951 C 237.980 332.805, 245.775 329.715, 251 327.084 C 262.381 321.353, 265.883 320.490, 286 318.456 C 303.094 316.728, 316.156 314.188, 327.102 310.465 C 345.542 304.193, 367.466 302.580, 424.777 303.278 C 469.399 303.821, 472.153 304.161, 486.892 310.950 C 493.995 314.222, 498.467 315.445, 510.914 317.518 C 526.443 320.104, 531.389 321.836, 538 327 C 542.990 330.898, 548.690 333.606, 555.762 335.438 C 562.849 337.275, 569.624 340.097, 572.500 342.410 C 574.471 343.996, 574.453 344.060, 571.293 346.797 C 566.737 350.742, 560.456 352.723, 543.578 355.537 C 535.153 356.942, 526.265 359.075, 522.900 360.500 C 503.027 368.919, 506.747 368.176, 470.500 370.967 C 462.800 371.560, 449.056 372.200, 439.957 372.390 C 422.220 372.760, 417.801 373.828, 416.708 378.009 C 416.197 379.963, 418.949 395.575, 420.425 399.092 C 420.792 399.967, 422.922 401.712, 425.159 402.969 C 429.784 405.569, 432.134 409.981, 433.961 419.500 C 435.693 428.520, 436.742 430.487, 441.140 432.959 C 446.732 436.102, 448.669 439.862, 450.104 450.363 C 451.425 460.030, 451.987 460.979, 459 465.379 C 463.471 468.184, 464.730 470.899, 466.070 480.619 C 467.419 490.417, 468.576 492.855, 473 495.231 C 478.463 498.164, 480.561 501.186, 481.945 508.113 C 484.563 521.222, 484.972 522.146, 490.493 527.450 C 494.849 531.636, 496.118 533.653, 497.463 538.534 C 500.480 549.477, 502.321 553.455, 505.770 556.490 C 509.940 560.159, 512.103 564.356, 514.485 573.396 C 516.001 579.151, 517.228 581.316, 521.901 586.473 C 526.287 591.314, 527.995 594.193, 529.787 599.761 C 532.364 607.774, 534.557 611.021, 537.540 611.242 C 538.662 611.326, 543.257 609.912, 547.751 608.100 C 554.619 605.332, 556.664 603.938, 560.572 599.364 C 563.199 596.290, 567.363 592.836, 570.143 591.428 C 572.849 590.056, 578.199 586.057, 582.031 582.540 C 585.864 579.023, 591.587 574.568, 594.750 572.640 C 597.912 570.712, 602.162 567.137, 604.193 564.695 C 606.224 562.253, 610.326 558.878, 613.309 557.195 C 617.070 555.072, 619.534 552.764, 621.353 549.661 C 622.979 546.886, 625.840 544.039, 628.887 542.164 C 631.589 540.502, 634.632 537.911, 635.650 536.407 C 638.571 532.090, 644.238 526.653, 647.735 524.814 C 649.498 523.886, 652.326 520.875, 654.020 518.121 C 655.714 515.368, 659.255 511.568, 661.888 509.676 C 664.855 507.544, 667.867 504.126, 669.808 500.687 C 671.728 497.285, 674.636 493.970, 677.325 492.120 C 680.674 489.816, 682.593 487.317, 685.443 481.550 C 687.800 476.780, 691.312 471.826, 694.976 468.105 C 699.081 463.935, 701.415 460.506, 702.963 456.369 C 704.409 452.504, 706.930 448.656, 710.402 445.012 C 715.006 440.179, 715.926 438.487, 717.866 431.284 C 719.084 426.765, 720.508 419.340, 721.032 414.784 C 722.254 404.160, 722.251 298.794, 721.029 293.500 C 720.435 290.926, 718.799 288.300, 716.440 286.133 C 713.016 282.988, 712.467 282.813, 708.137 283.490 C 698.955 284.925, 694.575 284.669, 694.183 282.676 C 693.986 281.672, 694.652 279.933, 695.662 278.810 C 697.295 276.997, 698.262 276.839, 704.335 277.399 C 711.119 278.025, 711.196 278.004, 714.585 274.615 C 717.631 271.569, 718 270.615, 718 265.782 C 718 256.884, 715.598 250.580, 710.762 246.782 C 708.464 244.977, 703.636 240.523, 700.035 236.884 C 695.311 232.110, 691.121 229.078, 684.994 225.999 C 680.322 223.651, 674.386 219.831, 671.803 217.510 C 668.810 214.821, 665.363 212.832, 662.303 212.028 C 647.188 208.059, 644.152 206.847, 638.671 202.590 C 632.201 197.566, 626.388 195.870, 609.280 194.015 C 597.420 192.728, 590.504 191.076, 579.808 186.971 C 564.017 180.912, 552.803 179.965, 450 176.013 C 427.043 175.130, 353.265 174.896, 342 175.670 M 110.571 291.571 C 105.797 296.345, 112.433 303, 121.968 303 C 129.686 303, 131.990 297.365, 126.363 292.250 C 124.387 290.453, 122.706 290, 118.016 290 C 114.010 290, 111.643 290.500, 110.571 291.571 M 669.250 293.105 C 661.040 297.169, 664.820 302.333, 676.004 302.333 C 680.932 302.333, 682.466 301.911, 684.508 299.992 C 687.185 297.477, 687.739 294.139, 685.800 292.200 C 683.811 290.211, 674.014 290.747, 669.250 293.105 M 646 306.653 C 636.075 308.131, 632.071 311.515, 635.816 315.261 C 640.417 319.861, 653.954 318.107, 655.361 312.728 C 656.016 310.224, 654.432 307, 652.547 307 C 651.786 307, 650.564 306.838, 649.832 306.640 C 649.099 306.443, 647.375 306.448, 646 306.653 M 140.183 308.056 C 136.770 309.425, 137.561 313.856, 141.642 316.230 C 144.912 318.132, 153.731 318.889, 157.699 317.608 C 162.125 316.178, 161.682 310.921, 156.928 308.463 C 153.791 306.840, 143.818 306.598, 140.183 308.056 M 399 311.502 C 395.425 312.275, 390.025 312.932, 387 312.962 C 383.975 312.993, 375.875 313.674, 369 314.475 C 362.125 315.277, 345.250 316.872, 331.500 318.020 C 302.410 320.450, 295.772 321.647, 285.241 326.363 C 280.983 328.269, 272.125 331.223, 265.555 332.927 C 252.783 336.240, 249.983 337.570, 247.361 341.571 C 245.788 343.973, 245.804 344.264, 247.662 346.807 C 250.581 350.803, 255.789 352.948, 265.141 354.006 C 269.738 354.527, 279.923 355.666, 287.774 356.539 C 296.472 357.505, 306.629 359.412, 313.774 361.420 C 320.223 363.233, 329.325 365.440, 334 366.325 C 351.651 369.667, 415.403 370.688, 443.716 368.081 C 456.675 366.889, 459.628 366.295, 483.082 360.165 C 490.902 358.122, 500.322 356.616, 512.082 355.529 C 531.760 353.710, 539.187 351.999, 541.453 348.763 C 545.624 342.808, 541.340 337.550, 528.568 332.951 C 523.655 331.183, 517.580 328.294, 515.068 326.532 C 506.830 320.755, 504.486 320.269, 464 315.935 C 448.325 314.257, 433.700 312.460, 431.500 311.941 C 424.273 310.237, 405.996 309.990, 399 311.502 M 175.796 323.147 C 170.108 325.227, 171.802 331.789, 178.606 334.035 C 186.371 336.598, 201 333.646, 201 329.516 C 201 324.029, 184.668 319.902, 175.796 323.147 M 602.690 324.097 C 597.180 325.394, 595 326.800, 595 329.060 C 595 331.910, 599.132 333.216, 608.636 333.369 C 615.408 333.478, 617.135 333.174, 618.931 331.555 C 625.434 325.693, 615.431 321.100, 602.690 324.097 M 388.555 398.911 C 388.245 399.412, 387.285 403.551, 386.420 408.107 C 384.475 418.360, 383.181 420.913, 377.538 425.630 C 372.415 429.913, 372.336 430.071, 370.497 439.681 C 368.742 448.850, 366.984 452.174, 362.034 455.676 C 357.393 458.959, 355.441 462.536, 354.489 469.500 C 353.477 476.908, 350.521 482.389, 345.885 485.457 C 338.542 490.317, 335.690 501.203, 340.343 506.612 L 342.685 509.336 398.093 509.110 C 447.803 508.908, 453.860 508.710, 457 507.192 C 462.143 504.706, 461.819 501.403, 456.104 498.061 C 450.001 494.491, 448.256 491.691, 446.563 482.746 C 444.788 473.369, 444.263 472.359, 439.458 469.075 C 433.695 465.135, 432.089 462.226, 430.301 452.489 C 428.657 443.536, 428.648 443.520, 422.480 437.513 C 416.444 431.635, 416.269 431.314, 414.684 423.217 C 413.792 418.661, 412.703 414.292, 412.265 413.508 C 411.826 412.725, 407.650 408.915, 402.984 405.043 C 397.114 400.172, 393.671 398.002, 391.809 398.001 C 390.329 398.001, 388.865 398.410, 388.555 398.911" stroke="none" fill="#444" fill-rule="evenodd"/></svg>