<svg xmlns="http://www.w3.org/2000/svg" width="1000" height="1000" viewBox="0 0 1000 1000" version="1.1"><path d="M 416.500 286.045 C 374.523 287.825, 355.057 289.817, 324 295.509 C 296.987 300.460, 287.225 301.888, 273 302.971 C 248.623 304.828, 240.833 306.561, 228 312.981 C 216.037 318.966, 208.630 321.484, 198.506 323.008 C 187.404 324.678, 180.507 327.505, 173.693 333.176 C 167.020 338.729, 162.404 341.286, 155.994 342.978 C 148.919 344.846, 143.751 347.858, 140.500 352.007 C 138.850 354.114, 134.055 358.131, 129.844 360.934 C 118.157 368.714, 106.075 381.408, 100.997 391.241 C 98.681 395.726, 95.098 401.444, 93.036 403.948 C 90.974 406.451, 89.021 409.261, 88.697 410.190 C 88.374 411.120, 88.031 456.995, 87.937 512.134 L 87.766 612.388 93.934 617.834 C 97.327 620.830, 100.938 624.905, 101.960 626.890 C 104.672 632.162, 108.753 635.583, 115.186 637.978 C 119.129 639.447, 122.767 641.922, 127.056 646.054 C 133.638 652.395, 137.901 654.698, 149.346 658.097 C 158.428 660.794, 161.110 662.179, 168.500 667.993 C 175.050 673.145, 183.073 676.247, 194.418 678.015 C 203.918 679.494, 211.839 682.312, 222.476 687.995 C 233.291 693.773, 243.943 696.581, 260.479 698.012 C 271.606 698.975, 284.201 701.324, 295 704.451 C 297.475 705.168, 301.300 706.251, 303.500 706.857 C 305.700 707.463, 310.784 708.894, 314.798 710.036 C 322.070 712.106, 333.851 714.117, 350 716.046 C 360.733 717.328, 460.744 719.935, 500.500 719.970 C 535.671 720, 602.684 718.363, 622 717.002 C 639.633 715.759, 655.657 712.949, 670.500 708.497 C 689.624 702.761, 705.174 699.203, 714.162 698.507 C 737.842 696.674, 750.458 693.889, 763.544 687.607 C 775.839 681.704, 783.267 679.489, 797.271 677.553 C 811.829 675.540, 818.892 673.114, 824.939 668.051 C 830.452 663.435, 836.861 660.468, 845.795 658.396 C 855.494 656.146, 862.042 653.215, 866.464 649.146 C 872.598 643.500, 878.944 639.476, 884.693 637.585 C 891.354 635.394, 894.556 632.830, 897.093 627.655 C 898.213 625.370, 902.273 620.575, 906.116 617 L 913.103 610.500 913.063 510.705 C 913.039 450.963, 912.648 410.226, 912.090 409.205 C 911.577 408.267, 909.248 405.704, 906.914 403.509 C 904.508 401.247, 901.350 396.698, 899.624 393.009 C 897.749 389.003, 894.872 384.962, 892.140 382.500 C 889.698 380.300, 885.856 376.498, 883.600 374.052 C 875.960 365.763, 872.354 362.507, 867.682 359.679 C 865.119 358.127, 861.626 354.914, 859.920 352.538 C 856.885 348.311, 848.884 343, 845.552 343 C 842.550 343, 833.308 337.873, 827.337 332.895 C 820.762 327.414, 814.114 324.536, 804.469 322.995 C 795.382 321.543, 784.889 317.975, 774.923 312.947 C 764.017 307.444, 755.501 305.292, 739.500 303.996 C 701.829 300.945, 686.653 299.115, 665.500 295.072 C 660 294.021, 653.700 292.896, 651.500 292.573 C 649.300 292.250, 643.225 291.330, 638 290.530 C 614.345 286.904, 586.228 285.793, 510.500 285.491 C 469.800 285.329, 427.500 285.578, 416.500 286.045 M 465.500 297.055 C 449.550 297.448, 429.075 298.476, 420 299.339 C 410.925 300.202, 391.575 301.384, 377 301.966 C 362.425 302.548, 339.700 303.465, 326.500 304.003 C 295.187 305.281, 278.597 307.700, 267.670 312.581 C 255.470 318.031, 245.502 320.740, 229.191 323.040 C 208.945 325.894, 204.350 327.385, 196.567 333.627 C 190.398 338.573, 181.157 343, 177 343 C 171.811 343, 163.714 347.354, 157.614 353.423 C 153.715 357.304, 149.527 360.383, 146.523 361.579 C 132.364 367.216, 129.304 369.248, 124.818 375.989 C 121.963 380.279, 118.679 383.680, 115.128 386.022 C 108.424 390.445, 104.953 396.711, 104.232 405.693 C 103.588 413.727, 104.739 416.344, 111.613 422.467 C 114.680 425.198, 117.857 429.101, 118.673 431.140 C 120.231 435.035, 124.716 437.980, 129.151 438.022 C 132.279 438.051, 139.109 441.250, 141.081 443.609 C 141.950 444.649, 143.428 447.582, 144.366 450.128 C 146.871 456.923, 148.308 457.791, 159.042 458.988 C 172.344 460.471, 177.482 462.344, 180.524 466.820 C 181.886 468.825, 183 471.280, 183 472.278 C 183 473.275, 184.031 475.122, 185.290 476.381 C 187.409 478.500, 188.710 478.718, 202.642 479.290 C 222.692 480.113, 235.493 483.014, 240.701 487.916 C 242.657 489.756, 244.979 495.548, 244.994 498.625 C 244.997 499.244, 243.594 500.031, 241.875 500.375 C 237.018 501.346, 203.177 501.099, 196.743 500.046 C 188.101 498.630, 185.830 497.178, 182.917 491.203 C 178.828 482.816, 178.874 482.838, 163.838 482.042 C 147.673 481.187, 144.762 480.017, 141.793 473.179 C 139.047 466.857, 136.372 464.156, 132.090 463.382 C 124.719 462.049, 120.396 458.450, 117.204 450.986 C 116.142 448.503, 114.516 445.843, 113.590 445.075 C 112.131 443.863, 111.549 443.943, 109.204 445.679 C 103.295 450.051, 103.545 446.625, 102.995 531 C 102.717 573.625, 102.672 609.587, 102.893 610.916 C 103.338 613.581, 121.877 632.683, 126.599 635.342 C 128.194 636.241, 132.153 637.938, 135.396 639.115 C 139.304 640.532, 143.253 643.056, 147.104 646.595 C 153.723 652.681, 156.871 654.201, 169.535 657.426 C 180.184 660.137, 183.424 661.693, 190.611 667.548 C 193.671 670.040, 198.233 672.595, 201.236 673.499 C 206.877 675.197, 223.673 677.984, 228.324 677.994 C 232.207 678.002, 244.615 682.282, 254.676 687.084 C 269.168 694.001, 282.516 696.473, 313.500 697.979 C 327.411 698.656, 337.610 699.741, 347 701.545 C 369.475 705.863, 377.189 706.992, 384.234 706.996 C 390.174 707, 391.330 706.676, 394.031 704.250 C 396.596 701.947, 397.250 700.388, 398.055 694.663 C 398.608 690.734, 398.907 662.868, 398.758 629.163 C 398.501 570.656, 398.506 570.472, 400.864 560 C 403.345 548.984, 403.465 537.471, 401.130 534.657 C 400.503 533.902, 397.346 533.007, 394.113 532.670 C 390.880 532.332, 386.157 531.499, 383.618 530.820 C 379.931 529.834, 379 529.149, 379 527.422 C 379 525.520, 379.725 525.176, 384.995 524.580 C 389.668 524.051, 391.819 524.287, 394.745 525.649 C 396.810 526.610, 398.725 527.677, 399 528.021 C 400.186 529.503, 403.309 529.905, 405.322 528.835 C 406.520 528.198, 409.525 525.979, 412 523.902 C 414.475 521.826, 417.850 519.607, 419.500 518.970 C 425.554 516.633, 446.094 518.033, 463.402 521.964 C 466.627 522.696, 484.586 523.080, 515.902 523.088 C 542.081 523.094, 566.875 523.130, 571 523.168 C 575.125 523.207, 582.869 522.998, 588.209 522.704 C 597.154 522.211, 597.967 522.320, 598.527 524.084 C 600.447 530.133, 596.144 532.068, 579.500 532.642 C 572.350 532.888, 563.350 533.716, 559.500 534.481 C 551.164 536.139, 523.747 537.315, 490 537.463 C 458 537.602, 454.590 538.276, 436.021 548.125 C 433.558 549.431, 429.686 552.335, 427.417 554.578 C 423.045 558.899, 422.870 559.457, 419.903 578.500 C 418.452 587.812, 418.352 704.921, 419.793 707.613 C 421.511 710.823, 424.283 712.665, 429.193 713.859 C 435.309 715.346, 559.705 715.423, 579.443 713.953 C 588.078 713.309, 596.971 711.972, 602.500 710.485 C 607.450 709.154, 616.675 706.905, 623 705.488 C 629.325 704.071, 637.263 702.264, 640.639 701.472 C 646.426 700.116, 652.922 699.435, 683 697.034 C 699.725 695.699, 712.428 692.802, 724.500 687.571 C 738.241 681.616, 747.200 679.283, 763 677.546 C 781.586 675.503, 790.584 673.036, 798.120 667.918 C 806.113 662.491, 814.068 659.440, 825.269 657.507 C 836.968 655.488, 841.741 653.307, 849.167 646.587 C 854.689 641.590, 861.690 638, 865.914 638 C 869.029 638, 877.562 632.799, 880 629.414 C 881.375 627.506, 885.301 623.708, 888.725 620.975 C 899.242 612.579, 898.266 621.940, 898.066 531.411 C 897.969 487.647, 897.512 450.864, 897.051 449.670 C 895.972 446.878, 892.111 443.424, 889.315 442.749 C 886.089 441.970, 883.351 444.420, 882.646 448.713 C 881.026 458.586, 874.551 462.942, 861.441 462.978 C 856.530 462.991, 852.703 463.497, 851.642 464.272 C 850.685 464.972, 848.671 468.010, 847.165 471.022 C 845.078 475.200, 843.369 477.086, 839.964 478.969 C 835.951 481.188, 833.984 481.494, 820.500 482 C 812.250 482.309, 804.994 482.877, 804.376 483.262 C 803.758 483.647, 802.063 486.475, 800.609 489.545 C 798.433 494.140, 797.213 495.460, 793.716 497.007 C 786.384 500.251, 777.044 501.121, 756.111 500.511 C 739.193 500.018, 736.191 500.158, 734.250 501.527 C 733.013 502.399, 732 503.544, 732 504.071 C 732 504.597, 730.987 506.589, 729.750 508.496 C 727.902 511.345, 726.249 512.353, 720.500 514.138 C 716.650 515.334, 710.350 517.664, 706.500 519.316 C 693.648 524.831, 671.760 524.208, 655.316 517.858 C 648.078 515.063, 646.518 514.835, 634.224 514.775 C 621.229 514.712, 612 513.489, 612 511.832 C 612 511.374, 611.563 511, 611.029 511 C 610.191 511, 601.415 505.425, 600 503.994 C 599.725 503.716, 597.776 502.203, 595.670 500.632 C 587.508 494.545, 585.999 492.459, 586.015 487.284 C 586.026 483.826, 586.299 482.916, 587 484 C 587.533 484.825, 587.976 485.026, 587.985 484.446 C 587.994 483.776, 592.293 483.332, 599.750 483.230 C 606.212 483.141, 614.650 482.517, 618.500 481.843 C 627.824 480.210, 649.283 480.234, 655 481.883 C 657.475 482.597, 661.897 484.981, 664.826 487.181 C 672.027 492.587, 676.871 494.579, 687.503 496.505 C 692.452 497.401, 700.033 499.265, 704.352 500.646 C 708.671 502.027, 714.088 503.282, 716.391 503.436 C 721.906 503.805, 729.783 501.259, 730.544 498.862 C 730.869 497.838, 731.483 497, 731.909 497 C 732.335 497, 733.220 495.210, 733.875 493.023 C 734.804 489.923, 736.068 488.458, 739.605 486.385 C 746.454 482.372, 755.464 480.885, 777.338 480.159 C 796.641 479.518, 797.229 479.436, 799.101 477.124 C 800.159 475.817, 801.303 473.567, 801.641 472.124 C 803.484 464.277, 811.148 461.227, 833.491 459.448 C 837.887 459.098, 842.270 458.391, 843.231 457.876 C 845.119 456.866, 848 451.949, 848 449.737 C 848 444.783, 863.632 438, 875.049 438 C 878.516 438, 881.685 435.178, 882.600 431.275 C 882.982 429.644, 886.291 425.614, 890.625 421.500 C 897.096 415.359, 898.001 414.064, 898 410.946 C 898 405.093, 893.491 397.573, 885.875 390.723 C 882.069 387.301, 877.537 382.250, 875.803 379.500 C 870.786 371.543, 868.075 369.145, 858.500 364.199 C 852.486 361.093, 847.635 357.665, 843.878 353.867 C 837.079 346.994, 834.781 345.743, 824.062 343.075 C 815.927 341.050, 810.518 338.465, 806.500 334.680 C 798.964 327.582, 793.779 325.768, 774.721 323.565 C 760.027 321.867, 751.251 319.596, 735.331 313.371 C 727 310.113, 721.163 308.559, 713.253 307.491 C 695.971 305.159, 664.994 303, 648.809 303 C 629.732 303, 598.522 301.366, 580.500 299.425 C 567.790 298.055, 513.408 295.881, 500 296.206 C 496.975 296.279, 481.450 296.661, 465.500 297.055 M 451.500 462.643 C 448.200 462.821, 441.450 463.416, 436.500 463.965 C 431.550 464.514, 424.800 465.226, 421.500 465.547 C 410.807 466.588, 406.439 468.564, 401.726 474.490 C 397.532 479.763, 397.435 479.816, 389 481.404 C 378.310 483.416, 375.095 483.408, 361.553 481.337 C 352.223 479.909, 348.751 479.828, 338.053 480.786 C 322.459 482.183, 319.657 482.994, 311.481 488.477 C 303.976 493.509, 301.865 494.280, 289.500 496.501 C 284.550 497.390, 277.575 499.016, 274 500.114 C 268.976 501.658, 265.230 502.052, 257.500 501.847 C 247.905 501.593, 247.487 501.670, 247.185 503.754 C 246.651 507.444, 249.808 512.524, 254.157 514.968 C 261.437 519.060, 279.168 523, 290.299 523 C 302.335 523, 320.207 519.969, 331.745 515.971 C 336.461 514.337, 341.851 513, 343.722 513 C 346.783 513, 354.175 511.139, 359.500 509.028 C 360.600 508.592, 366.675 506.335, 373 504.013 C 392.991 496.673, 394.393 496.062, 396.838 493.616 C 398.154 492.300, 400.192 489.525, 401.366 487.449 C 402.540 485.374, 404.175 483.567, 405 483.433 C 405.825 483.300, 409.875 482.373, 414 481.372 C 420.602 479.771, 427.005 479.523, 467.500 479.302 C 492.800 479.163, 523.175 478.815, 535 478.527 C 546.825 478.239, 558.075 478.407, 560 478.899 C 561.925 479.391, 566.200 480.512, 569.500 481.389 C 572.800 482.266, 576.962 483.154, 578.750 483.361 C 581.756 483.709, 582 483.520, 582 480.837 C 582 479.182, 581.356 477.690, 580.500 477.362 C 579.675 477.045, 579 476.178, 579 475.435 C 579 473.386, 571.391 469.378, 563 467.008 C 557.845 465.552, 550.185 464.577, 538.500 463.888 C 521.395 462.881, 462.671 462.040, 451.500 462.643 M 583 484.441 C 583 485.848, 583.450 487, 584 487 C 584.550 487, 585 486.127, 585 485.059 C 585 483.991, 584.550 482.840, 584 482.500 C 583.433 482.149, 583 482.990, 583 484.441 M 475.575 618.073 C 467.405 619.201, 463.041 622.040, 459.845 628.305 C 457.224 633.442, 456.011 634.410, 448.840 637.088 C 440.781 640.098, 437.615 643.708, 437.615 649.887 C 437.615 658.157, 440.685 661.049, 453.040 664.422 C 458.915 666.025, 460.703 667.387, 464.298 673 C 468.191 679.078, 471.444 680.008, 488.500 679.918 C 508.324 679.814, 511.267 678.996, 516.493 672.138 C 521.265 665.877, 523.410 664.580, 531.454 663.093 C 541.379 661.258, 545.759 654.814, 543.104 645.954 C 541.778 641.527, 538.634 638.996, 531.500 636.608 C 525.261 634.521, 524.140 633.626, 520.528 627.854 C 518.929 625.298, 516.469 622.538, 515.060 621.720 C 508.957 618.176, 488.510 616.287, 475.575 618.073" stroke="none" fill="#444" fill-rule="evenodd"/></svg>