<svg xmlns="http://www.w3.org/2000/svg" viewBox="0 0 160 100" fill="none">
<path d="M28 66 Q40 53 52 46 L60 42 Q70 38 80 38 Q90 38 100 42 L108 46 Q120 53 132 66" stroke="#888" stroke-width="1.5" fill="#fff"/>
<path d="M52 46 Q50 40 46 33 Q44 29 41 31 Q44 37 52 46" stroke="#888" stroke-width="1.3" fill="#fff"/>
<path d="M108 46 Q110 40 114 33 Q116 29 119 31 Q116 37 108 46" stroke="#888" stroke-width="1.3" fill="#fff"/>
<path d="M60 42 Q72 53 80 55 Q88 53 100 42" stroke="#888" stroke-width="1.2" fill="none"/>
<path d="M55 44 L48 35" stroke="#888" stroke-width="1"/>
<path d="M105 44 L112 35" stroke="#888" stroke-width="1"/>
<circle cx="80" cy="40" r="1.8" fill="none" stroke="#888" stroke-width="1"/>
</svg>