<svg xmlns="http://www.w3.org/2000/svg" viewBox="0 0 140 90" fill="none">
<path d="M28 68 Q38 50 50 42 L58 38 Q66 34 70 34 Q74 34 82 38 L90 42 Q102 50 112 68" stroke="#555" stroke-width="1.6" fill="#fff"/>
<path d="M50 42 Q53 36 48 28 Q46 24 43 26 Q46 32 50 42" stroke="#555" stroke-width="1.4" fill="#fff"/>
<path d="M90 42 Q87 36 92 28 Q94 24 97 26 Q94 32 90 42" stroke="#555" stroke-width="1.4" fill="#fff"/>
<path d="M58 38 Q66 48 70 51 Q74 48 82 38" stroke="#555" stroke-width="1.2" fill="none"/>
<line x1="53" y1="40" x2="49" y2="31" stroke="#555" stroke-width="1"/>
<line x1="87" y1="40" x2="91" y2="31" stroke="#555" stroke-width="1"/>
<circle cx="70" cy="37" r="1.8" fill="none" stroke="#555" stroke-width="1.2"/>
<circle cx="70" cy="37" r="0.6" fill="#555"/>
</svg>