<svg xmlns="http://www.w3.org/2000/svg" viewBox="0 0 200 150" fill="none"><path d="M38 112 Q48 72 68 58 Q82 52 100 50 Q118 52 132 58 Q152 72 162 112" stroke="#333" stroke-width="2.2" fill="#fafafa"/><path d="M68 58 L52 36 Q50 32 46 34 L60 53" stroke="#333" stroke-width="2" fill="#fff" stroke-linejoin="round"/><path d="M132 58 L148 36 Q150 32 154 34 L140 53" stroke="#333" stroke-width="2" fill="#fff" stroke-linejoin="round"/><path d="M68 58 Q84 74 100 78 Q116 74 132 58" stroke="#333" stroke-width="1.8" fill="none"/><path d="M70 60 L56 40" stroke="#333" stroke-width="1.2"/><path d="M130 60 L144 40" stroke="#333" stroke-width="1.2"/><circle cx="100" cy="54" r="2.8" fill="none" stroke="#333" stroke-width="1.5"/><circle cx="100" cy="54" r="1" fill="#333"/></svg>