<svg xmlns="http://www.w3.org/2000/svg" width="50" height="50" viewBox="0 0 50 50" version="1.1">
	<path d="M 4.180 25.750 C 4.360 31.473, 4.362 31.478, 4.736 26.725 C 5.001 23.360, 5.464 22.162, 6.306 22.667 C 7.013 23.091, 6.940 22.693, 6.128 21.692 C 5.373 20.761, 4.585 20, 4.378 20 C 4.170 20, 4.081 22.587, 4.180 25.750 M 44.782 20.750 C 44.597 21.163, 44.724 23.750, 45.065 26.500 L 45.686 31.500 45.843 25.750 C 45.987 20.468, 45.641 18.835, 44.782 20.750 M 22.762 23.707 C 24.006 23.946, 25.806 23.937, 26.762 23.687 C 27.718 23.437, 26.700 23.241, 24.500 23.252 C 22.300 23.263, 21.518 23.468, 22.762 23.707 M 15 25 C 14.099 25.582, 13.975 25.975, 14.691 25.985 C 15.346 25.993, 16.160 25.550, 16.500 25 C 17.267 23.758, 16.921 23.758, 15 25 M 32.733 25.124 C 33.412 25.808, 34.219 26.115, 34.526 25.807 C 34.834 25.499, 34.279 24.940, 33.293 24.564 C 31.868 24.022, 31.753 24.136, 32.733 25.124" stroke="none" fill="#555555" fill-rule="evenodd"/>
</svg>