<svg xmlns="http://www.w3.org/2000/svg" width="50" height="50" viewBox="0 0 50 50" version="1.1">
	<path d="M 4.412 15.369 C 4.123 16.122, 4.032 19.160, 4.210 22.119 L 4.533 27.500 5.017 20.748 C 5.503 13.952, 5.379 12.848, 4.412 15.369 M 45.079 19.583 C 45.127 20.748, 45.364 20.985, 45.683 20.188 C 45.972 19.466, 45.936 18.603, 45.604 18.271 C 45.272 17.939, 45.036 18.529, 45.079 19.583 M 24.500 24 C 24.840 24.550, 25.316 25, 25.559 25 C 25.802 25, 26 24.550, 26 24 C 26 23.450, 25.523 23, 24.941 23 C 24.359 23, 24.160 23.450, 24.500 24 M 28.500 31 C 29.894 33.750, 31.259 36, 31.534 36 C 31.809 36, 30.894 33.750, 29.500 31 C 28.106 28.250, 26.741 26, 26.466 26 C 26.191 26, 27.106 28.250, 28.500 31 M 19.500 32 C 18.647 33.650, 18.174 35, 18.449 35 C 18.724 35, 19.647 33.650, 20.500 32 C 21.353 30.350, 21.826 29, 21.551 29 C 21.276 29, 20.353 30.350, 19.500 32" stroke="none" fill="#555555" fill-rule="evenodd"/>
</svg>