<svg xmlns="http://www.w3.org/2000/svg" width="1000" height="1000" viewBox="0 0 1000 1000" version="1.1"><path d="M 349 224.680 C 346.703 225.077, 328.322 229.480, 303.500 235.581 C 292.905 238.185, 273.321 241.236, 256.104 242.965 C 234.257 245.158, 221.664 247.928, 214 252.228 C 202.812 258.504, 197.307 260.804, 189.500 262.462 C 174.206 265.712, 168.944 267.889, 162.872 273.484 C 159.357 276.722, 155.039 279.512, 151.372 280.915 C 136.518 286.596, 133.510 288.305, 127.978 294.206 C 124.621 297.786, 119.720 301.568, 115.478 303.852 C 109.512 307.063, 108.065 308.397, 105.500 313.054 C 103.850 316.049, 99.513 321.425, 95.862 325 C 92.211 328.575, 88.738 332.455, 88.145 333.623 C 85.057 339.697, 84.853 346.437, 84.891 441.190 C 84.935 552.106, 84.579 547.325, 93.588 558.104 C 97.114 562.322, 99.472 566.820, 105.590 581 C 107.407 585.211, 110.415 589.613, 114.132 593.500 C 117.997 597.542, 120.998 601.992, 123.326 607.135 C 126.193 613.470, 127.707 615.469, 132.213 618.871 C 135.878 621.639, 138.922 625.160, 141.572 629.701 C 145.465 636.369, 148.172 639.639, 153 643.506 C 154.375 644.607, 157.297 647.757, 159.494 650.504 C 165.016 657.413, 204.278 696.603, 210.968 701.886 C 213.976 704.260, 217.351 707.421, 218.468 708.910 C 221.812 713.367, 224.196 715.553, 230.473 719.922 C 233.758 722.209, 238.618 726.764, 241.272 730.045 C 243.927 733.326, 247.856 736.906, 250.005 738.002 C 253.685 739.880, 257.193 743.060, 264.717 751.338 C 266.487 753.285, 270.066 755.820, 272.672 756.973 C 275.277 758.125, 279.679 760.769, 282.454 762.847 C 285.229 764.926, 288.082 766.974, 288.794 767.399 C 290.600 768.478, 294.539 765.665, 297.442 761.225 C 298.781 759.176, 302.789 754.387, 306.349 750.583 C 310.379 746.276, 314.616 740.263, 317.575 734.650 C 320.889 728.365, 324.326 723.645, 328.921 719.067 C 333.846 714.162, 335.998 711.122, 337.427 707.056 C 338.813 703.112, 341.101 699.804, 345.726 695.056 C 349.238 691.450, 353.753 685.575, 355.760 682 C 357.766 678.425, 361.903 673.004, 364.954 669.952 C 369.760 665.144, 371.567 664.078, 378.500 661.952 L 386.500 659.500 500.500 659.500 C 608.456 659.500, 614.675 659.596, 617.803 661.303 C 623.099 664.194, 637.750 675.840, 639.913 678.878 C 641.004 680.410, 642.838 684.051, 643.988 686.969 C 646.711 693.878, 647.550 694.996, 653.611 699.787 C 657.488 702.851, 659.801 705.913, 663.333 712.654 C 666.359 718.429, 670.369 724.047, 674.884 728.837 C 680.670 734.976, 682.314 737.535, 684.942 744.499 C 687.818 752.118, 688.568 753.183, 693.792 757.073 C 696.931 759.410, 701.405 763.275, 703.733 765.661 C 706.061 768.048, 708.721 770, 709.643 770 C 710.565 770, 713.835 767.608, 716.910 764.685 C 719.984 761.761, 725.125 758.090, 728.334 756.526 C 731.706 754.883, 735.292 752.184, 736.834 750.130 C 740.900 744.710, 745.444 740.495, 749.150 738.704 C 752.885 736.898, 756.533 733.475, 761.087 727.500 C 762.765 725.300, 766.623 721.852, 769.663 719.838 C 772.702 717.824, 778.634 712.737, 782.845 708.534 C 787.055 704.330, 798.038 693.510, 807.250 684.490 C 816.462 675.469, 824 667.673, 824 667.164 C 824 666.656, 826.501 664.352, 829.558 662.044 C 832.615 659.736, 837.157 655.075, 839.651 651.687 C 842.145 648.299, 846.685 643.496, 849.739 641.014 C 853.216 638.188, 856.379 634.443, 858.200 631 C 861.461 624.833, 866.143 619.540, 870.230 617.399 C 872.154 616.392, 874.266 613.242, 877.380 606.735 C 880.190 600.865, 883.675 595.496, 886.947 592 C 891.990 586.611, 894.985 581.265, 900.518 567.779 C 902.035 564.082, 905.201 558.801, 907.555 556.044 C 912.048 550.780, 913.343 547.849, 914.951 539.303 C 915.537 536.183, 915.973 497.170, 916.041 441.705 C 916.169 337.308, 916.793 345.452, 907.977 336.500 C 905.268 333.750, 900.859 328.800, 898.179 325.500 C 890.705 316.298, 879.259 305.951, 871.413 301.303 C 867.516 298.994, 862.590 295.169, 860.466 292.803 C 855.652 287.440, 853.168 285.889, 844.993 283.146 C 837.762 280.719, 833.791 278.486, 825.703 272.296 C 819.580 267.610, 811.780 264.629, 801.418 263.014 C 791.619 261.487, 785.829 259.444, 775.242 253.776 C 762.449 246.926, 754.415 245.174, 723.500 242.489 C 702.746 240.687, 682.979 237.799, 671.500 234.891 C 658.389 231.570, 644.829 227.858, 639.500 226.130 C 634.994 224.669, 620.524 224.496, 493 224.379 C 415.175 224.307, 350.375 224.443, 349 224.680 M 442.500 234.038 C 439.200 234.448, 428.950 234.832, 419.722 234.891 C 410.493 234.951, 396.543 235.640, 388.722 236.423 C 380.900 237.206, 369.775 238.138, 364 238.493 C 358.225 238.849, 348.100 240.009, 341.500 241.070 C 334.900 242.131, 325.984 243, 321.687 243 C 309.662 243, 285.721 244.974, 273.379 246.982 C 265.434 248.275, 259.152 250.081, 251.379 253.306 C 234.670 260.239, 231.167 261.148, 210.127 264.004 C 196.651 265.834, 190.343 268.264, 183.161 274.395 C 176.706 279.905, 176.711 279.903, 156.266 286.082 C 150.399 287.855, 148.514 288.951, 146.285 291.884 C 141.923 297.623, 138.933 300.005, 132.324 303.005 C 127.507 305.191, 125.144 307.095, 121.593 311.654 C 119.088 314.869, 114.769 319.041, 111.993 320.924 C 103.900 326.417, 102.649 329.271, 103.212 340.963 C 104 357.316, 107.496 361.438, 121.525 362.558 C 125.911 362.908, 130.566 363.871, 131.868 364.698 C 133.171 365.525, 135.383 368.859, 136.785 372.107 C 139.627 378.693, 139.475 378.616, 153.965 380.894 C 164.142 382.494, 166.878 384.296, 170.500 391.788 C 173.921 398.865, 174.906 399.346, 188.191 400.440 C 198.502 401.288, 204.822 403.325, 208.803 407.082 C 211.644 409.764, 212.063 410.766, 211.803 414.255 C 211.524 417.987, 211.181 418.424, 207.500 419.736 C 204.708 420.732, 200.782 421.025, 194.500 420.706 C 181.154 420.030, 175.536 417.034, 171.635 408.514 C 168.842 402.413, 169.304 402.621, 155.155 401.087 C 142.967 399.765, 140.337 398.214, 136.381 390.022 C 133.268 383.575, 133.249 383.558, 125.881 380.833 C 117.105 377.588, 112.687 377.348, 107.984 379.863 C 101.646 383.252, 100.463 386.717, 100.768 401 C 100.914 407.875, 101.457 443.425, 101.975 480 C 103.123 561.192, 103.187 561.636, 115.376 573.580 C 119.840 577.954, 121.945 580.901, 122.878 584.080 C 125.320 592.407, 128.182 596.820, 134.143 601.449 C 139.118 605.313, 140.687 607.406, 144.894 615.789 C 148.335 622.646, 151.128 626.742, 154.160 629.380 C 162.901 636.983, 164.319 638.597, 166.626 643.565 C 169.278 649.277, 171.465 651.508, 178.144 655.314 C 181.621 657.295, 183.736 659.581, 186.563 664.415 C 189.868 670.064, 191.161 671.299, 196.920 674.313 C 202.578 677.274, 203.895 678.509, 206.317 683.128 C 209.806 689.782, 211.627 691.752, 217.704 695.448 C 220.342 697.052, 224.828 701.136, 227.674 704.523 C 230.963 708.438, 235.374 712.182, 239.783 714.802 C 243.598 717.068, 247.420 719.952, 248.278 721.211 C 251.575 726.054, 260.989 734.930, 266.617 738.504 C 269.853 740.558, 275.274 744.885, 278.663 748.120 C 283.788 753.009, 285.419 754, 288.341 754 C 292.599 754, 295.334 750.982, 297.410 743.991 C 299.451 737.119, 301.252 734.168, 307.195 727.957 C 310.113 724.908, 313.761 719.733, 315.303 716.457 C 320.576 705.253, 321.814 703.495, 327.554 699.065 C 332.415 695.314, 333.884 693.367, 337.091 686.424 C 340.037 680.048, 342.027 677.253, 346.016 673.890 C 350.301 670.277, 352.141 667.530, 357.147 657.279 C 362.167 647, 363.827 644.526, 367.323 642.114 C 373.266 638.015, 374.462 636.352, 376.963 628.717 C 379.530 620.881, 382.669 616.720, 388.105 613.946 C 392.515 611.697, 393.918 609.378, 396.991 599.256 C 399.610 590.633, 402.320 586.331, 407.024 583.330 C 414.586 578.506, 415.682 577.195, 417.466 570.835 C 419.734 562.754, 421.414 560.489, 427.492 557.322 C 433.691 554.092, 434.477 553.077, 437.032 545 C 439.675 536.643, 442.267 532.866, 448.744 527.936 C 454.334 523.681, 457.291 518.974, 458.439 512.500 C 459.326 507.504, 462.825 501.526, 467.450 497.110 C 471.493 493.249, 471.770 492.007, 469.122 489.611 C 467.723 488.344, 464.095 487.663, 454.872 486.936 C 448.068 486.400, 441.925 485.754, 441.221 485.501 C 440.518 485.248, 428.593 484.574, 414.721 484.003 C 373.562 482.309, 365.124 480.938, 349.013 473.330 C 338.181 468.214, 332.246 466.881, 307.868 464.090 C 280.267 460.930, 273.013 458.596, 269.695 451.807 C 268.053 448.448, 268.027 447.849, 269.404 445.187 C 270.776 442.532, 278.132 438, 281.069 438 C 284.322 438, 296.234 432.046, 301.125 427.975 C 308.193 422.094, 316.326 419.754, 337.500 417.512 C 345.750 416.639, 357.923 415.043, 364.551 413.966 C 375.325 412.215, 380.850 410.628, 399.814 403.836 C 408.851 400.599, 424.266 398.992, 456.500 397.924 C 512.094 396.084, 579.362 397.076, 599 400.027 C 609.623 401.623, 614.334 403.143, 624.536 408.267 C 633.460 412.749, 646.932 416.610, 661.282 418.798 C 669.805 420.097, 675.320 422.946, 680.330 428.637 C 683.996 432.802, 692.276 438, 695.245 438 C 695.966 438, 699.808 439.558, 703.783 441.463 C 714.896 446.789, 715.747 451.467, 706.674 457.365 C 700.876 461.135, 694.523 462.728, 680 464.055 C 660.987 465.793, 650.423 468.266, 640.293 473.349 C 627.288 479.874, 618.139 481.348, 577.007 483.540 C 561.886 484.346, 546.742 484.722, 543.354 484.375 C 530.298 483.037, 523 486.423, 523 493.818 C 523 498.608, 524.798 501.095, 531.453 505.513 C 537.487 509.518, 540.655 514.573, 543.510 524.748 C 545.604 532.213, 547.068 534.059, 553 536.714 C 558.979 539.390, 561.445 542.348, 563.395 549.183 C 565.068 555.046, 569.161 561, 571.518 561 C 574.069 561, 579.688 567.522, 581.427 572.500 C 587.491 589.867, 588.070 590.995, 591.945 592.972 C 597.056 595.579, 601.686 601.110, 603.051 606.237 C 604.997 613.551, 607.762 617.306, 613.036 619.801 C 618.467 622.371, 621.452 626.358, 622.543 632.500 C 623.858 639.907, 627.606 646.239, 633.233 650.559 C 638.563 654.651, 641.306 658.920, 644.590 668.233 C 646.299 673.080, 647.115 674.070, 655.133 681.022 C 658.048 683.549, 660.870 687.349, 662.743 691.270 C 664.575 695.103, 668.891 700.963, 673.962 706.500 C 679.252 712.277, 683.567 718.186, 686.012 723 C 688.107 727.125, 691.617 732.235, 693.812 734.356 C 696.054 736.523, 699.243 741.339, 701.092 745.351 C 702.902 749.277, 705.309 753.264, 706.441 754.211 C 710.876 757.921, 717.474 755.345, 722.904 747.784 C 724.642 745.362, 728.947 741.487, 732.469 739.171 C 735.991 736.855, 742.514 731.421, 746.963 727.095 C 751.413 722.769, 758.079 717.182, 761.777 714.679 C 765.475 712.176, 770.966 707.588, 773.981 704.484 C 776.995 701.380, 782.243 697.284, 785.642 695.383 C 790.644 692.586, 792.576 690.724, 795.779 685.616 C 798.813 680.777, 801.134 678.456, 805.729 675.664 C 810.527 672.750, 812.470 670.746, 815.471 665.615 C 818.213 660.926, 820.890 658.003, 825.444 654.727 C 829.966 651.474, 832.568 648.643, 834.960 644.375 C 836.770 641.144, 841.527 635.350, 845.530 631.500 C 850.571 626.652, 854.507 621.579, 858.332 615 C 862.018 608.662, 865.546 604.066, 868.933 601.190 C 874.430 596.524, 876.386 593.431, 878.640 585.839 C 879.692 582.298, 881.849 579.068, 886.402 574.217 C 893.747 566.393, 896.140 560.905, 899.144 545 C 900.998 535.184, 901.107 530.915, 900.814 479.500 C 900.641 449.250, 900.647 416.400, 900.826 406.500 C 901.190 386.431, 900.078 380.526, 895.130 376.257 C 890.877 372.588, 889.276 372.574, 881.646 376.138 C 875.706 378.913, 873.323 379.478, 867.522 379.488 C 861.526 379.498, 860.493 379.240, 860.180 377.650 C 859.515 374.281, 861.044 369.101, 863.600 366.063 C 866.855 362.195, 871.465 361.352, 880.793 362.919 C 886.784 363.926, 888.405 363.909, 889.712 362.825 C 892.472 360.536, 893.824 355.752, 894.565 345.657 C 895.573 331.923, 894.627 329.497, 886.288 324.449 C 881.201 321.369, 878.901 319.141, 875.841 314.326 C 872.176 308.560, 871.407 307.941, 864.208 304.956 C 854.022 300.734, 849.217 297.858, 844.991 293.457 C 840.710 288.998, 833.976 285.465, 825.742 283.355 C 817.555 281.258, 809.880 277.807, 804.147 273.646 C 801.591 271.791, 798.556 269.783, 797.402 269.183 C 793.457 267.132, 779.506 264.038, 765.218 262.046 C 755.717 260.721, 748.855 259.176, 744.718 257.432 C 727.599 250.214, 724.017 249.103, 713 247.596 C 695.927 245.260, 669.725 243.009, 659.500 243 C 654.550 242.996, 646.450 242.297, 641.500 241.447 C 622.990 238.270, 589.863 235.978, 535 234.077 C 503.182 232.975, 451.245 232.953, 442.500 234.038 M 831 382.712 C 826.197 383.613, 822.287 387.602, 820.898 393.019 C 820.184 395.807, 819.040 398.552, 818.357 399.119 C 817.674 399.686, 811.780 400.524, 805.260 400.982 C 788.470 402.160, 784.512 403.448, 780.704 408.973 C 778.507 412.161, 778.431 418.568, 780.582 419.393 C 783.157 420.381, 797.561 420.086, 805.308 418.887 C 814.598 417.448, 817.466 415.370, 819.628 408.512 C 821.661 402.063, 822.490 401.641, 836.159 400.098 C 852.788 398.221, 857.230 395.441, 857.410 386.797 L 857.500 382.500 845.500 382.372 C 838.900 382.301, 832.375 382.454, 831 382.712 M 500 402.286 C 499.725 402.564, 492.975 403.322, 485 403.970 C 477.025 404.618, 461.275 406.725, 450 408.654 C 426.583 412.658, 405.430 415.595, 389.500 417.052 C 370.909 418.753, 361.828 420.046, 353.650 422.158 C 343.956 424.662, 341.556 425.626, 326.340 433.134 C 316.764 437.858, 313.629 439.928, 311.590 442.871 C 308.173 447.801, 308.226 451.892, 311.750 455.234 C 316.747 459.972, 325.226 461.918, 350.220 464.061 C 381.798 466.769, 387.727 467.758, 416.130 475.047 C 420.327 476.124, 428.652 477.470, 434.630 478.037 C 440.609 478.604, 449.627 479.503, 454.670 480.034 C 459.714 480.565, 478.669 481, 496.792 481 C 526.071 481, 531.902 480.722, 549.121 478.506 C 565.468 476.403, 592.270 471.187, 594.814 469.615 C 596.413 468.627, 625.510 464.930, 642.709 463.529 C 668.362 461.440, 677 457.985, 677 449.812 C 677 443.815, 672.869 439.503, 654.590 426.422 C 648.736 422.233, 638.826 419.280, 624.500 417.456 C 608.937 415.475, 591.904 412.522, 582.213 410.123 C 577.971 409.074, 570.225 407.663, 565 406.989 C 559.775 406.314, 551.675 405.099, 547 404.289 C 538.791 402.866, 501.018 401.256, 500 402.286 M 217.750 423.007 C 215.542 424.386, 215.517 427.920, 217.685 432.467 C 221.081 439.587, 230.523 441.543, 247.262 438.592 C 256.663 436.935, 258.201 435.847, 257.801 431.138 C 257.537 428.042, 256.909 427.302, 252.728 425.156 C 248.475 422.973, 246.410 422.664, 233.728 422.311 C 224.496 422.053, 218.886 422.298, 217.750 423.007 M 745 422.932 C 737.145 423.813, 734.372 424.648, 730.696 427.238 C 728.360 428.883, 727.943 429.822, 728.196 432.857 C 728.630 438.062, 732.021 439.008, 748.500 438.522 C 762.738 438.101, 767.737 437.050, 771.424 433.703 C 774.152 431.227, 775.488 426.267, 774.036 424 C 772.933 422.276, 756.297 421.663, 745 422.932 M 486.703 512.942 C 485.341 514.559, 483.686 518.272, 483.024 521.192 C 480.967 530.260, 477.441 536.108, 471.681 540.003 C 467.080 543.114, 466.257 544.231, 464.333 549.978 C 461.189 559.366, 459.493 561.704, 453.292 565.205 C 447.509 568.468, 446.897 569.389, 442.487 581.458 C 441.211 584.952, 438.686 588.379, 433.941 593.058 C 426.689 600.210, 424.879 603.012, 423.001 609.991 C 421.306 616.291, 418.733 619.478, 412.734 622.706 C 406.251 626.195, 404.812 628.815, 405.275 636.289 C 405.542 640.609, 406.194 642.639, 407.844 644.289 C 410.011 646.457, 410.722 646.513, 444.777 647.174 C 463.875 647.545, 504.152 647.822, 534.282 647.791 L 589.064 647.734 591.032 645.232 C 592.366 643.536, 593 641.190, 593 637.947 C 593 631.481, 592.456 630.410, 587.403 626.933 C 582.666 623.674, 578.776 617.827, 577.093 611.435 C 575.902 606.912, 573.129 603.967, 568.245 602.039 C 563.379 600.117, 559.368 594.943, 558.076 588.920 C 556.314 580.702, 553.661 575.728, 549.036 571.970 C 540.752 565.239, 539.846 563.948, 537.052 554.903 C 534.842 547.749, 533.306 545.861, 527.833 543.575 C 522.800 541.472, 519.333 536.922, 518.049 530.735 C 516.210 521.880, 514.182 519.601, 503.624 514.534 C 492.450 509.171, 490.064 508.947, 486.703 512.942" stroke="none" fill="#444" fill-rule="evenodd"/></svg>