<svg xmlns="http://www.w3.org/2000/svg" width="50" height="50" viewBox="0 0 50 50" version="1.1">
	<path d="M 4.180 25.750 C 4.360 31.473, 4.362 31.478, 4.736 26.725 C 5.001 23.360, 5.464 22.162, 6.306 22.667 C 7.013 23.091, 6.940 22.693, 6.128 21.692 C 5.373 20.761, 4.585 20, 4.378 20 C 4.170 20, 4.081 22.587, 4.180 25.750 M 45.092 20.500 C 44.939 21.050, 44.892 23.436, 44.986 25.803 C 45.080 28.169, 44.584 30.869, 43.884 31.803 C 42.709 33.368, 42.746 33.376, 44.362 31.907 C 45.727 30.666, 46.033 29.116, 45.743 24.907 C 45.538 21.933, 45.245 19.950, 45.092 20.500 M 22.762 23.707 C 24.006 23.946, 25.806 23.937, 26.762 23.687 C 27.718 23.437, 26.700 23.241, 24.500 23.252 C 22.300 23.263, 21.518 23.468, 22.762 23.707 M 15 25 C 14.099 25.582, 13.975 25.975, 14.691 25.985 C 15.346 25.993, 16.160 25.550, 16.500 25 C 17.267 23.758, 16.921 23.758, 15 25 M 32 25.031 C 32 25.564, 32.675 26, 33.500 26 C 34.325 26, 35 25.823, 35 25.607 C 35 25.391, 34.325 24.955, 33.500 24.638 C 32.675 24.322, 32 24.499, 32 25.031 M 22.543 28.931 C 21.803 30.128, 23.684 31.313, 25.016 30.490 C 26.135 29.799, 25.400 28, 24 28 C 23.515 28, 22.859 28.419, 22.543 28.931 M 22.543 32.931 C 21.803 34.128, 23.684 35.313, 25.016 34.490 C 26.135 33.799, 25.400 32, 24 32 C 23.515 32, 22.859 32.419, 22.543 32.931" stroke="none" fill="#555555" fill-rule="evenodd"/>
</svg>