<svg xmlns="http://www.w3.org/2000/svg" viewBox="0 0 160 100" fill="none">
<path d="M30 65 Q42 53 54 46 L62 42 Q72 38 80 38 Q88 38 98 42 L106 46 Q118 53 130 65" stroke="#888" stroke-width="1.5" fill="#fff"/>
<path d="M54 46 Q51 40 46 34 Q44 30 41 32 Q44 38 54 46" stroke="#888" stroke-width="1.3" fill="#fff"/>
<path d="M106 46 Q109 40 114 34 Q116 30 119 32 Q116 38 106 46" stroke="#888" stroke-width="1.3" fill="#fff"/>
<path d="M62 42 Q72 53 80 55 Q88 53 98 42" stroke="#888" stroke-width="1.2" fill="none"/>
<circle cx="80" cy="40" r="1.8" fill="none" stroke="#888" stroke-width="1"/>
</svg>