<svg xmlns="http://www.w3.org/2000/svg" width="800" height="800" viewBox="0 0 800 800" version="1.1"><path d="M 342 228.053 C 304.289 229.014, 280.205 231.234, 255.440 236.032 C 244.407 238.169, 228.432 240.626, 219.940 241.492 C 197.321 243.799, 190.403 245.403, 178.719 251.051 C 171.674 254.456, 165.485 256.603, 158.794 257.964 C 147.074 260.346, 143.223 261.876, 137.710 266.341 C 132.749 270.359, 129.413 272.104, 122.149 274.479 C 118.489 275.675, 115.287 277.730, 112.020 280.980 C 109.393 283.593, 104.749 287.387, 101.700 289.411 C 94.448 294.225, 84.249 305.152, 80.589 312.030 C 78.988 315.038, 75.950 319.696, 73.839 322.381 C 71.728 325.065, 69.996 328.215, 69.992 329.381 C 69.987 330.546, 69.939 367.271, 69.885 410.991 L 69.787 490.481 73.917 494.038 C 76.189 495.995, 79.499 499.824, 81.274 502.548 C 83.801 506.427, 85.846 508.150, 90.710 510.500 C 94.125 512.150, 98.850 515.360, 101.210 517.633 C 106.368 522.603, 107.847 523.399, 118.777 527.094 C 123.992 528.856, 129.262 531.502, 132.435 533.950 C 139.004 539.017, 142.191 540.312, 154.500 542.910 C 161.508 544.390, 167.492 546.507, 174.500 549.987 C 186.062 555.727, 192.430 557.493, 207 559 C 218.059 560.144, 220.654 560.705, 241.500 566.467 C 265.122 572.997, 279.341 574.381, 339.254 575.988 C 386.609 577.257, 422.232 577.258, 460 575.991 C 508.274 574.372, 519.866 572.992, 544 565.995 C 560.878 561.101, 564.400 560.382, 580.500 558.539 C 596.557 556.701, 603.044 555.035, 614.310 549.852 C 619.927 547.268, 626.815 545.085, 633.310 543.832 C 638.915 542.750, 645.846 541.417, 648.713 540.869 C 652.231 540.197, 656.522 538.146, 661.916 534.556 C 667.754 530.671, 671.872 528.764, 677.203 527.478 C 686.332 525.277, 691.326 522.816, 696.760 517.840 C 699.103 515.695, 704.312 512.440, 708.335 510.607 C 714.544 507.778, 716.058 506.577, 718.350 502.665 C 719.836 500.131, 723.047 496.388, 725.488 494.348 C 727.928 492.309, 730.193 489.941, 730.520 489.086 C 730.939 487.996, 731.380 347.928, 731.023 329.283 C 731.010 328.614, 729.021 325.838, 726.602 323.115 C 724.183 320.392, 720.761 315.455, 718.996 312.144 C 717.059 308.509, 714.302 305.096, 712.037 303.526 C 709.974 302.096, 706.838 298.910, 705.069 296.446 C 703.299 293.983, 699.496 290.459, 696.616 288.617 C 693.737 286.775, 689.928 283.434, 688.152 281.192 C 685.867 278.307, 683.303 276.509, 679.380 275.041 C 671.415 272.061, 668.434 270.376, 662.336 265.410 C 659.358 262.984, 656.782 261, 656.610 261 C 653.324 261, 630.362 253.931, 623.741 250.880 C 611.200 245.104, 607.206 244.218, 583.659 241.987 C 572.197 240.901, 550.822 237.998, 536.159 235.536 C 503.240 230.009, 494.344 229.223, 451 228.007 C 413 226.942, 385.121 226.953, 342 228.053 M 356.500 236.961 C 346.600 237.377, 334 238.206, 328.500 238.803 C 323 239.399, 306.575 240.374, 292 240.970 C 237.637 243.190, 222.632 244.991, 208.216 251.024 C 201.004 254.043, 194.763 255.734, 184 257.586 C 165.816 260.716, 162.974 261.662, 154.657 267.356 C 150.953 269.892, 145.352 272.679, 142.211 273.549 C 132.781 276.163, 130.744 277.223, 124.983 282.517 C 121.103 286.083, 117.025 288.571, 111.239 290.904 C 103.461 294.039, 102.820 294.535, 99.519 299.968 C 97.558 303.197, 94.280 306.873, 92.038 308.356 C 86.966 311.713, 85.453 314.069, 83.515 321.634 C 81.599 329.115, 82.321 331.497, 88.511 338.116 C 90.935 340.707, 93.224 344.104, 93.597 345.664 C 94.631 349.986, 95.619 350.722, 101.346 351.437 C 109.046 352.400, 112.457 354.848, 114.448 360.843 C 115.362 363.595, 116.647 366.269, 117.305 366.786 C 117.962 367.303, 122.677 368.009, 127.783 368.355 C 136.759 368.962, 141.412 370.381, 143.779 373.234 C 145.551 375.368, 146.426 382.619, 145.018 383.489 C 144.359 383.896, 138.800 384.155, 132.665 384.064 C 119.238 383.864, 116.560 382.701, 114.097 376.001 C 112.521 371.713, 112.173 371.432, 106.651 370.001 C 99.768 368.218, 96.447 365.307, 94.849 359.657 C 93.067 353.356, 91.912 352.477, 88.046 354.476 C 81.612 357.804, 81.696 356.936, 81.206 424.709 C 80.962 458.375, 81.066 487.128, 81.437 488.605 C 81.808 490.083, 85.889 495.052, 90.506 499.648 C 97.278 506.390, 100.408 508.687, 106.700 511.535 C 110.990 513.477, 115.687 516.403, 117.137 518.039 C 120.299 521.604, 125.669 524.062, 136.768 527.023 C 143.063 528.703, 146.594 530.378, 151.559 534.044 C 156.511 537.699, 159.744 539.236, 164.988 540.429 C 168.787 541.293, 172.837 542, 173.990 542 C 179.788 542, 192.182 545.574, 200 549.500 C 211.660 555.356, 220.610 557.174, 246.888 559.026 C 266.485 560.407, 278.236 562.307, 292.948 566.474 C 299.908 568.446, 307.622 569.990, 310.448 569.978 C 319.010 569.941, 327.186 564.741, 330.066 557.500 C 331.412 554.116, 332.280 537.356, 334.117 479.299 L 335.389 439.098 331.690 431.799 C 329.656 427.785, 327.993 423.753, 327.996 422.839 C 327.998 421.925, 329.370 420.025, 331.045 418.615 C 337.764 412.962, 349.133 412.787, 357.647 418.207 C 360.316 419.906, 363.625 421.216, 365 421.118 C 366.375 421.020, 379.200 420.696, 393.500 420.397 C 421.682 419.810, 442 421.126, 442 423.540 C 442 424.256, 440.762 425.094, 439.250 425.402 C 432.300 426.821, 412.757 428.180, 394.500 428.514 C 377.968 428.817, 373.684 428.600, 369.795 427.259 C 363.695 425.156, 361.087 426.293, 357.325 432.695 L 354.500 437.500 353.879 494.500 C 353.537 525.850, 352.915 554.962, 352.496 559.194 L 351.734 566.888 354.903 570.057 L 358.071 573.225 413.786 572.729 C 476.152 572.174, 478.549 571.965, 502.500 564.987 C 511.929 562.240, 519.928 560.605, 527 559.979 C 532.775 559.467, 542.675 558.582, 549 558.010 C 562.159 556.822, 570.697 554.798, 584.080 549.695 C 596.032 545.138, 598.943 544.411, 613 542.475 C 627.761 540.442, 634.295 538.732, 638.867 535.707 C 645.885 531.063, 650.893 529.029, 661.466 526.531 C 673.833 523.609, 674.435 523.331, 680.994 517.505 C 684.602 514.301, 687.829 512.540, 692.813 511.056 C 698.712 509.299, 700.597 508.105, 706.306 502.507 C 709.956 498.928, 713.321 496, 713.783 496 C 714.245 496, 715.672 494.583, 716.952 492.851 L 719.281 489.701 719.177 424.639 C 719.061 351.703, 719.644 357.332, 711.672 352.082 C 706.236 348.503, 706.629 345.473, 713.500 338 C 718.159 332.932, 719 331.434, 719 328.204 C 719 323.477, 714.969 316.842, 708.989 311.723 C 706.611 309.687, 702.828 305.204, 700.583 301.761 C 697.122 296.454, 695.434 294.941, 689.500 291.831 C 685.650 289.813, 680.025 285.945, 677 283.235 C 670.669 277.565, 667.444 275.767, 660.599 274.094 C 654.498 272.602, 650.650 270.644, 645.423 266.374 C 639.767 261.752, 635.685 260.258, 625.392 259.038 C 611.537 257.396, 602.632 255.168, 593.195 250.984 C 580.139 245.196, 563.877 243.421, 501.500 240.976 C 485.550 240.351, 466.200 239.190, 458.500 238.397 C 441.972 236.695, 382.659 235.860, 356.500 236.961 M 688.655 353.459 C 683.325 355.359, 680.107 358.688, 678.877 363.574 L 677.832 367.726 666.917 368.417 C 649.654 369.509, 643 372.370, 643 378.699 C 643 381.976, 646.522 383.717, 654.745 384.507 C 663.423 385.339, 670.884 383.817, 673.910 380.596 C 675.075 379.356, 676.604 376.352, 677.309 373.921 L 678.589 369.500 688.045 369.479 C 698.393 369.455, 701.676 368.200, 703.846 363.439 C 705.101 360.684, 705.356 356.091, 704.393 353.582 C 703.616 351.556, 694.198 351.482, 688.655 353.459 M 368 371.976 C 354.454 372.647, 349.137 373.446, 339.710 376.228 L 335.919 377.347 339.043 378.660 C 345.834 381.515, 407.736 383.281, 418 380.913 C 420.475 380.341, 426.325 379.718, 431 379.527 C 435.675 379.336, 440.512 379.139, 441.750 379.090 C 443.030 379.039, 444 378.362, 444 377.519 C 444 375.836, 443.668 375.750, 428 373.406 C 415.088 371.474, 390.151 370.880, 368 371.976 M 148.120 385.904 C 146.948 386.647, 146.948 387.432, 148.120 391.139 C 150.016 397.132, 154.279 399.142, 166.384 399.752 C 173.621 400.116, 176.616 399.820, 180.914 398.319 C 188.215 395.768, 189.450 393.641, 185.500 390.417 C 180.695 386.495, 173.926 384.998, 161.068 385.015 C 154.706 385.024, 148.879 385.424, 148.120 385.904 M 492.315 386.999 C 480.416 389.136, 476.616 390.707, 476.193 393.665 C 475.521 398.360, 487.649 404.182, 505.775 407.866 C 511.427 409.014, 519.527 411.361, 523.775 413.082 C 533.580 417.052, 549.541 418.932, 558 417.114 C 566.130 415.366, 576.500 409.981, 576.500 407.508 C 576.500 404.852, 567.181 401.481, 552.633 398.875 C 539.963 396.606, 536.973 395.493, 530.711 390.713 C 522.831 384.698, 511.326 383.585, 492.315 386.999 M 607.736 385.934 C 595.863 387.592, 589.620 391.553, 591.967 395.939 C 593.310 398.448, 599.144 399.354, 614 399.361 C 630.126 399.368, 637 396.834, 637 390.880 C 637 389.136, 636.274 387.682, 635.086 387.046 C 632.490 385.657, 614.853 384.939, 607.736 385.934 M 259.476 387.395 C 257.264 388.088, 253.112 390.265, 250.252 392.233 C 246.264 394.976, 243.354 396.072, 237.775 396.930 C 233.774 397.545, 227.125 398.922, 223 399.989 C 218.875 401.056, 212.928 402.230, 209.784 402.598 C 201.033 403.623, 198.532 408.155, 204.902 411.449 C 211.100 414.654, 225.475 418, 232.957 417.978 C 242.814 417.950, 257.331 414.708, 262.286 411.429 C 265.202 409.500, 268.204 408.649, 274.335 408.013 C 283.754 407.037, 291.980 404.220, 298.662 399.683 C 307.847 393.446, 306.916 390.901, 294.351 387.894 C 285.136 385.689, 265.803 385.412, 259.476 387.395" stroke="none" fill="#444" fill-rule="evenodd"/></svg>