<svg xmlns="http://www.w3.org/2000/svg" width="1000" height="1000" viewBox="0 0 1000 1000" version="1.1"><path d="M 479.961 247.068 C 450.806 247.830, 435.452 248.949, 419.500 251.474 C 394.732 255.394, 383.849 256.947, 377.117 257.519 C 373.056 257.865, 366.398 258.786, 362.321 259.566 C 358.244 260.346, 348.516 261.468, 340.704 262.059 C 313.825 264.094, 280.488 267.123, 274.008 268.118 C 270.437 268.667, 263.012 271.058, 257.508 273.433 C 242.381 279.958, 234.896 281.993, 220.500 283.497 C 212.974 284.283, 199.646 287.717, 194.884 290.097 C 192.894 291.091, 189.920 293.038, 188.274 294.423 C 183.585 298.369, 175.895 301.839, 168.303 303.436 C 157.003 305.813, 150.841 308.568, 146.165 313.332 C 143.803 315.739, 139.127 318.929, 135.698 320.473 C 124.594 325.472, 122.612 326.772, 114.013 334.687 C 97.742 349.667, 89.812 358.170, 87.733 362.871 C 85.711 367.441, 85.688 368.698, 85.914 460.880 C 86.086 531.477, 86.460 556.362, 87.443 562.880 C 88.517 569.993, 89.806 573.598, 94.817 583.500 C 98.317 590.418, 101.760 598.959, 102.945 603.668 C 105.668 614.486, 107.991 619.645, 112.379 624.620 C 117.822 630.791, 120.906 635.645, 125.010 644.500 C 127.599 650.088, 130.115 653.762, 133.351 656.684 C 136.762 659.765, 139.212 663.458, 142.639 670.684 C 145.817 677.386, 148.755 681.932, 151.897 685.014 C 154.429 687.496, 159.414 692.896, 162.976 697.014 C 166.538 701.131, 173.395 708.673, 178.213 713.774 C 183.031 718.875, 187.624 724.307, 188.420 725.846 C 189.216 727.384, 192.336 730.753, 195.355 733.332 C 198.373 735.910, 203.016 741.265, 205.671 745.230 C 211.161 753.427, 216.608 756.968, 224.964 757.771 C 231.288 758.378, 235.824 755.719, 239.558 749.214 C 242.857 743.469, 246.622 739.280, 250.139 737.443 C 251.590 736.684, 254.875 732.879, 257.439 728.987 C 260.734 723.987, 263.661 720.913, 267.414 718.512 C 272.580 715.207, 278 709.787, 278 707.926 C 278 705.793, 285.558 698.888, 290.335 696.656 C 293.176 695.329, 298.142 692.164, 301.370 689.622 C 308.753 683.810, 311.739 683.624, 318.574 688.552 C 325.436 693.500, 328.930 694.812, 338.328 695.969 C 350.738 697.497, 392.173 698.977, 423.500 699.012 C 454.974 699.048, 455.487 699.145, 464.777 706.837 C 471.168 712.129, 473.714 712.552, 484.483 710.112 C 520.030 702.061, 546.184 698.876, 592.093 697.010 C 619.696 695.888, 632.875 693.958, 643 689.556 C 656.130 683.848, 667.895 681.027, 697.580 676.468 C 713.389 674.040, 719.079 675.760, 726.401 685.179 C 728.546 687.939, 733.323 692.395, 737.015 695.080 C 740.708 697.766, 745.442 702.054, 747.535 704.608 C 749.628 707.163, 753.527 711.349, 756.198 713.910 C 758.869 716.471, 762.771 721.421, 764.870 724.910 C 767.323 728.989, 770.973 733.095, 775.093 736.409 C 779.253 739.757, 782.501 743.422, 784.356 746.861 C 788.633 754.794, 795.676 758.075, 805.035 756.494 C 810.352 755.596, 814.113 752.282, 817.571 745.446 C 819.543 741.550, 822.237 738.390, 826.451 735.033 C 831.440 731.058, 833.288 728.667, 837 721.385 C 839.657 716.172, 843.798 710.086, 847.109 706.528 C 853.686 699.461, 855.533 696.146, 858.145 686.720 C 860.569 677.972, 862.204 674.727, 867.244 668.665 C 872.261 662.629, 875.160 656.663, 877.848 646.842 C 879.850 639.524, 881.760 635.656, 888.881 624.500 C 892.757 618.426, 895.228 610.690, 898.025 595.867 C 899.190 589.694, 901.670 579.606, 903.537 573.448 C 911.690 546.549, 911.962 542.568, 911.983 449.835 L 912 371.170 902.017 351.083 L 892.034 330.997 886.267 327.383 C 876.861 321.488, 873.792 319.219, 868 313.879 C 861.490 307.877, 857.573 305.733, 848.352 303.127 C 839.663 300.671, 834.301 298.400, 830.500 295.568 C 821.966 289.209, 811.492 285.451, 795.500 283.010 C 782.538 281.032, 771.553 277.783, 762.533 273.259 C 751.813 267.883, 746.551 266.841, 715.795 264.004 C 692.700 261.873, 674.330 259.200, 643.500 253.482 C 620.504 249.217, 609.547 248.231, 571.500 247.004 C 537.852 245.918, 523.550 245.928, 479.961 247.068 M 498 257.962 C 483.975 258.372, 461.250 259.444, 447.500 260.345 C 433.750 261.246, 410.350 262.427, 395.500 262.969 C 380.650 263.510, 363.775 264.386, 358 264.915 C 352.225 265.443, 341.200 266.378, 333.500 266.993 C 315.613 268.421, 311.684 269.223, 299.500 273.928 C 289.428 277.818, 275.073 280.622, 253 283.012 C 233.907 285.079, 222.448 287.983, 214.607 292.742 C 205.361 298.354, 200.083 300.622, 192 302.457 C 176.245 306.035, 168.327 308.922, 162.365 313.263 C 156.593 317.466, 146.676 323, 144.917 323 C 144.422 323, 140.877 324.404, 137.038 326.121 C 131.419 328.633, 129.279 330.274, 126.063 334.532 C 123.054 338.519, 120.520 340.558, 115.785 342.806 C 112.328 344.447, 108.375 346.999, 107 348.478 C 104.691 350.961, 104.500 351.905, 104.500 360.833 C 104.500 368.513, 104.872 371.048, 106.310 373.166 C 108.454 376.325, 109.113 376.623, 119.500 379.139 C 131.531 382.054, 135.498 384.307, 138.585 389.978 C 141.477 395.292, 144.555 397.265, 152.732 399.049 C 159.231 400.467, 164.873 404.469, 167.528 409.544 C 170.239 414.726, 173.948 416.688, 184.525 418.532 C 199.239 421.098, 204.432 424.259, 207.083 432.264 C 208.979 437.990, 210.114 438.496, 220.381 438.193 C 234.670 437.770, 250.888 441.705, 255.117 446.620 C 256.007 447.654, 257.357 449.810, 258.117 451.410 C 258.878 453.011, 260.772 455.261, 262.326 456.410 C 264.874 458.294, 266.399 458.485, 277.826 458.345 C 293.683 458.152, 313.642 453.841, 323.913 448.390 C 335.334 442.329, 347.895 439.597, 371.673 438.001 C 380.378 437.417, 395.375 436.271, 405 435.456 C 414.625 434.640, 431.050 433.541, 441.500 433.013 C 451.950 432.485, 465.900 431.149, 472.500 430.045 C 482.875 428.308, 489.104 428.036, 518.500 428.036 C 547.660 428.036, 554.208 428.318, 564.500 430.014 C 571.100 431.102, 583.475 432.472, 592 433.059 C 600.525 433.645, 618.791 435.223, 632.592 436.565 C 661.042 439.332, 668.746 441.149, 679.500 447.626 C 687.557 452.478, 699.968 455.965, 717.960 458.430 C 732.779 460.460, 735.017 460.417, 746.174 457.880 C 754.906 455.894, 755.787 455.456, 760 451.010 C 762.475 448.398, 765.576 445.702, 766.892 445.019 C 772.879 441.911, 783.026 439.888, 795.500 439.314 C 802.650 438.985, 809.469 438.357, 810.654 437.919 C 811.838 437.481, 814.088 434.768, 815.654 431.889 C 817.219 429.011, 819.625 425.833, 821 424.827 C 822.375 423.820, 829.555 421.634, 836.955 419.968 C 844.355 418.302, 851.242 416.186, 852.260 415.265 C 853.278 414.343, 855.127 411.545, 856.369 409.045 C 859.222 403.302, 864.189 400.432, 874.676 398.464 C 883.298 396.846, 882.817 397.224, 893.562 383.627 C 901.102 374.086, 901.694 371.606, 899.070 360.560 C 896.532 349.872, 894.417 346.207, 888.208 341.739 C 885.618 339.876, 881.679 335.685, 879.453 332.426 C 875.911 327.238, 874.389 326.002, 867.234 322.500 C 862.363 320.116, 857.099 316.565, 854.205 313.710 C 848.852 308.429, 840.669 305.024, 828.231 302.905 C 820.142 301.526, 812.020 298.270, 804.249 293.289 C 795.390 287.612, 785.872 284.959, 767.155 282.952 C 754.342 281.579, 742.950 278.696, 729.405 273.400 C 712.936 266.960, 697 265.042, 631 261.553 C 614.775 260.695, 594.975 259.548, 587 259.004 C 565.873 257.562, 527.224 257.109, 498 257.962 M 103.600 402.418 C 99.249 404.035, 98.291 405.139, 97.454 409.500 C 97.137 411.150, 97.044 443.100, 97.247 480.500 C 97.597 544.903, 97.730 549.139, 99.779 560.576 C 100.968 567.217, 102.406 576.760, 102.975 581.781 C 104.106 591.762, 107.816 603.099, 111.288 607.182 C 118.194 615.303, 120.743 619.797, 124.518 630.500 C 125.777 634.069, 128.070 637.238, 132.530 641.572 C 139.249 648.102, 142.013 652.676, 143.901 660.384 C 145.798 668.135, 148.472 672.361, 154.229 676.708 C 157.933 679.505, 160.589 682.627, 162.816 686.806 C 166.139 693.040, 168.788 695.684, 176.036 700 C 178.763 701.623, 181.271 704.327, 183.191 707.711 C 186.018 712.695, 188.458 715.214, 196.256 721.203 C 198.192 722.690, 200.737 725.840, 201.911 728.203 C 204.788 733.995, 207.636 737.183, 213 740.616 C 215.475 742.200, 218.846 744.725, 220.491 746.227 C 227.916 753.004, 231.560 752.055, 236.950 741.942 C 241.522 733.364, 268.193 705.006, 280.590 695.542 C 288.573 689.447, 292.740 685.008, 297.576 677.448 C 302.047 670.459, 306.290 666.381, 311.858 663.719 C 316.285 661.603, 316.620 661.142, 319.093 653.752 C 322.266 644.272, 323.639 642.686, 331.187 639.783 C 336.031 637.921, 337.657 636.671, 340.017 633 C 345.156 625.007, 346.043 624.019, 349.801 622.101 C 354.796 619.552, 356.476 617.493, 358.934 610.915 C 361.356 604.432, 363.763 601.882, 370 599.197 C 375.398 596.872, 377.116 594.979, 379.366 588.872 C 381.500 583.085, 383.230 581.515, 390.611 578.679 C 395.940 576.631, 396.785 575.886, 399.500 570.843 C 403.514 563.387, 404.098 562.783, 410.351 559.620 C 415.267 557.132, 415.991 556.315, 418.493 550.428 C 421.486 543.386, 423.949 541.098, 431.585 538.262 C 437.252 536.158, 438.970 533.539, 438.972 527 C 438.973 520.341, 438.166 518.395, 434.662 516.608 C 428.931 513.686, 409.684 509.083, 399 508.078 C 393.225 507.535, 384.225 506.413, 379 505.584 C 373.775 504.755, 364.304 503.636, 357.953 503.098 C 343.182 501.847, 330.719 498.778, 320 493.752 C 308.480 488.351, 294.629 484.236, 282 482.462 C 265.787 480.185, 260.441 478.042, 253.692 471.113 C 247.498 464.754, 244.775 463.615, 233.051 462.480 C 219.710 461.189, 210 456.242, 207.110 449.267 C 204.909 443.951, 203.404 443.327, 189.776 442.076 C 170.105 440.270, 165.728 438.435, 161.596 430.259 C 159.424 425.961, 156.547 424.218, 149.463 422.908 C 140.574 421.265, 135.093 418.016, 129.760 411.228 C 127.183 407.947, 123.452 404.493, 121.469 403.552 C 116.447 401.169, 108.344 400.655, 103.600 402.418 M 883.500 418.630 C 880.200 420.050, 875.140 422.041, 872.257 423.053 C 864.846 425.654, 864.316 426.042, 860.721 431.510 C 855.769 439.039, 853.264 440.050, 837.037 441.066 C 818.542 442.224, 818.404 442.269, 815.471 448.057 C 812.562 453.798, 808.603 456.957, 800.500 460.002 C 795.605 461.842, 792.198 462.294, 782 462.456 C 768.024 462.678, 765.533 463.481, 763.463 468.435 C 761.143 473.986, 756.040 477.614, 748.771 478.880 C 745.232 479.496, 740.487 480, 738.226 480 C 735.966 480, 729.028 481.520, 722.808 483.378 C 716.589 485.235, 710.150 487.064, 708.500 487.443 C 706.850 487.821, 700.325 490.065, 694 492.430 C 680.303 497.551, 667.942 500.567, 655 501.944 C 619.795 505.691, 612.267 506.324, 601.956 506.407 C 589.303 506.509, 585.821 507.711, 583.954 512.622 C 582.394 516.724, 583.907 519.937, 589.187 523.730 C 591.894 525.674, 595.601 529.598, 597.424 532.449 C 600.718 537.598, 602.716 539.493, 610.620 544.969 C 612.885 546.539, 616.204 550.001, 617.995 552.662 C 621.278 557.542, 622.805 559.013, 630.998 565.201 C 634.132 567.569, 636.921 571.161, 640.196 577.049 C 644.679 585.110, 647.593 588.390, 656.844 595.788 C 659.106 597.596, 662.816 602.206, 665.089 606.033 C 668.442 611.676, 670.339 613.668, 675.137 616.583 C 679.326 619.128, 682.064 621.760, 684.525 625.607 C 686.436 628.595, 688.010 631.368, 688.022 631.769 C 688.034 632.171, 690.085 633.850, 692.579 635.500 C 696.125 637.846, 697.862 640.045, 700.548 645.587 C 704.439 653.616, 705.939 655.250, 711.537 657.558 C 716.711 659.691, 719.659 662.480, 722.575 668 C 725.622 673.769, 727.621 676.015, 732.233 678.848 C 736.223 681.300, 743 688.624, 743 690.484 C 743 691.983, 748.601 697.149, 753.201 699.894 C 756.808 702.047, 762.995 709.338, 763.005 711.447 C 763.012 713.017, 768.658 718.745, 773.087 721.676 C 775.227 723.092, 778.308 726.332, 779.934 728.876 C 787.533 740.762, 792.930 745, 800.469 745 C 808.517 745, 813.721 740.855, 819.300 730 C 821.880 724.978, 822.973 723.730, 827.886 720.185 C 833.274 716.297, 836.226 712.404, 838.039 706.791 C 838.990 703.847, 841.384 700.616, 845.663 696.500 C 852.771 689.664, 853.901 687.378, 857.036 673.500 C 859.637 661.987, 861.697 657.386, 867.221 650.758 C 872.469 644.460, 875.621 637.697, 877.955 627.723 C 880.408 617.235, 881.903 613.743, 887.804 604.704 C 894.035 595.159, 896.356 585.092, 899.152 555.500 C 900.884 537.155, 901.281 524.694, 901.541 480.500 C 901.768 441.779, 901.535 426.566, 900.676 424.035 C 899.476 420.499, 894.075 415.980, 891.102 416.024 C 890.221 416.037, 886.800 417.210, 883.500 418.630 M 479.500 435.580 C 476.200 435.766, 461.125 436.406, 446 437.002 C 414.540 438.241, 399.119 439.438, 387 441.583 C 377.800 443.210, 378.099 443.131, 360.639 448.539 C 353.970 450.605, 340.181 453.648, 329.139 455.492 C 305.717 459.403, 302.999 460.359, 300.163 465.684 C 297.331 471.003, 300.186 478.447, 306.132 481.245 C 307.984 482.116, 315.125 483.994, 322 485.418 C 333.580 487.816, 341.807 490.291, 359.337 496.650 C 368.889 500.115, 378.203 501.725, 396.079 503.004 C 404.561 503.611, 417.125 504.796, 424 505.637 C 432.425 506.668, 449.703 507.332, 477 507.672 C 517.423 508.176, 540.606 507.464, 576.500 504.614 C 586.950 503.785, 602.250 502.626, 610.501 502.039 C 625.277 500.987, 639.475 498.334, 644.788 495.633 C 649.840 493.065, 665.447 489.064, 676.500 487.504 C 682.550 486.650, 689.750 485.249, 692.500 484.391 C 701.374 481.624, 705.139 475.885, 703.570 467.519 C 702.427 461.427, 698.434 459.416, 679.790 455.545 C 668.757 453.255, 660.040 450.762, 653.407 448 C 635.440 440.519, 629.879 439.466, 597.500 437.422 C 575.636 436.042, 493.923 434.766, 479.500 435.580 M 526 522.145 C 509.065 524.584, 505.673 526.175, 500.836 533.944 C 497.515 539.280, 496.597 540.040, 491.001 542.080 C 487.607 543.317, 484.214 545.270, 483.462 546.418 C 482.709 547.566, 480.951 554.354, 479.555 561.503 C 478.141 568.741, 475.413 578.488, 473.398 583.500 C 465.610 602.873, 464.942 605.925, 463.995 626.500 C 463.514 636.950, 463.217 654.803, 463.335 666.173 C 463.585 690.142, 463.254 689.274, 473.998 694.165 C 484.269 698.842, 487.864 699.169, 516 697.988 C 579.146 695.339, 589.156 694.158, 612.129 686.654 C 627.271 681.708, 638.890 679.247, 653 678 C 682.043 675.432, 692 672.756, 692 667.519 C 692 667.181, 690.082 664.960, 687.739 662.583 C 683.342 658.123, 682.540 656.835, 679.106 648.716 C 677.485 644.884, 676.329 643.637, 673.291 642.449 C 664.545 639.026, 663.167 637.875, 659.799 631.184 C 657.984 627.580, 655.825 624.291, 655 623.876 C 654.175 623.460, 650.921 621.997, 647.768 620.624 C 641.859 618.050, 640.752 616.586, 637.025 606.416 C 636.334 604.530, 634.141 602.224, 631.377 600.477 C 626.841 597.610, 622 592.666, 622 590.902 C 622 588.268, 616.414 581.980, 612.187 579.856 C 606.900 577.200, 602 573.184, 602 571.507 C 602 569.023, 596.654 563.390, 591.730 560.685 C 584.157 556.525, 583.457 555.672, 580.391 546.863 C 577.469 538.468, 576.906 537.800, 564.739 528.278 C 553.413 519.415, 549.379 518.776, 526 522.145 M 467.200 529.200 C 464.265 532.135, 466.884 537, 471.399 537 C 473.765 537, 475.166 533.566, 474.025 530.565 C 472.965 527.777, 469.347 527.053, 467.200 529.200 M 445.420 555.466 C 442.147 562.177, 441.266 563.187, 436.693 565.466 C 433.896 566.859, 430.872 568, 429.973 568 C 429.074 568, 426.808 570.138, 424.936 572.750 C 420.039 579.585, 418.429 581.307, 413.429 585.054 C 410.562 587.201, 407.687 590.742, 405.393 594.949 C 401.855 601.438, 393.427 610.737, 374.612 628.914 C 369.724 633.636, 358.330 644.700, 349.292 653.500 L 332.860 669.500 333.227 675.743 C 333.546 681.164, 334.017 682.422, 336.804 685.298 C 343.720 692.434, 355.472 694.775, 391 696.094 C 427.656 697.456, 433.067 697.177, 439.671 693.582 C 446.891 689.653, 447.637 687.448, 444.367 679.711 L 441.742 673.500 441.900 643.500 C 441.986 627, 442.505 607.467, 443.053 600.093 C 444.160 585.183, 445.667 581.070, 451.329 577.500 C 453.073 576.400, 455.365 573.728, 456.422 571.562 C 458.131 568.060, 458.228 566.816, 457.292 560.319 C 456.127 552.235, 453.966 548, 451.007 548 C 449.577 548, 448.094 549.981, 445.420 555.466 M 519.600 606.445 C 512.616 608.992, 512.430 611.112, 518.500 619 C 520.975 622.216, 523 625.453, 523 626.192 C 523 626.931, 524.141 629.215, 525.536 631.268 C 528.457 635.567, 530.880 635.980, 535.750 633.011 C 538.538 631.311, 539 630.465, 539 627.060 C 539 622.279, 534.850 610.389, 532.318 607.916 C 529.750 605.408, 524.202 604.766, 519.600 606.445 M 486.302 609.012 C 483.347 610.202, 481.171 614.696, 480.408 621.182 C 479.328 630.377, 483.679 637.011, 490.926 637.217 C 495.147 637.337, 497.373 634.989, 498.936 628.771 C 499.664 625.872, 501.518 621.086, 503.054 618.134 C 504.591 615.183, 505.613 612.155, 505.325 611.404 C 504.232 608.557, 491.430 606.947, 486.302 609.012 M 507.187 648.250 C 507.473 651.216, 507.796 651.500, 510.891 651.500 C 514.585 651.500, 516.725 649.331, 515.691 646.636 C 515.251 645.490, 513.837 645, 510.968 645 C 506.951 645, 506.879 645.061, 507.187 648.250" stroke="none" fill="#444" fill-rule="evenodd"/></svg>