<svg xmlns="http://www.w3.org/2000/svg" viewBox="0 0 160 100" fill="none">
<path d="M25 68 Q38 52 52 44 L62 39 Q72 35 80 35 Q88 35 98 39 L108 44 Q122 52 135 68" stroke="#888" stroke-width="1.5" fill="#fff"/>
<path d="M52 44 Q48 36 40 28 Q37 24 34 27 Q38 34 52 44" stroke="#888" stroke-width="1.3" fill="#fff"/>
<path d="M108 44 Q112 36 120 28 Q123 24 126 27 Q122 34 108 44" stroke="#888" stroke-width="1.3" fill="#fff"/>
<path d="M62 39 Q72 52 80 54 Q88 52 98 39" stroke="#888" stroke-width="1.2" fill="none"/>
<path d="M56 42 L44 30" stroke="#888" stroke-width="1"/>
<path d="M104 42 L116 30" stroke="#888" stroke-width="1"/>
<circle cx="80" cy="38" r="1.8" fill="none" stroke="#888" stroke-width="1"/>
</svg>