<svg xmlns="http://www.w3.org/2000/svg" width="1000" height="1000" viewBox="0 0 1000 1000" version="1.1"><path d="M 414 286.088 C 376.627 287.672, 346.219 290.789, 326.500 295.057 C 311.761 298.247, 286.670 301.858, 267.899 303.490 C 246.799 305.325, 238.016 307.466, 227.317 313.384 C 218.265 318.392, 209.077 321.507, 198.597 323.124 C 188.362 324.703, 179.780 328.252, 173.227 333.614 C 167.439 338.351, 158.470 343, 155.120 343 C 151.846 343, 143.711 348.047, 139.772 352.522 C 137.651 354.931, 132.829 358.955, 129.055 361.463 C 118.330 368.594, 105.892 381.713, 101.068 390.985 C 98.827 395.294, 95.400 400.726, 93.453 403.056 C 91.507 405.386, 89.508 408.051, 89.011 408.979 C 88.495 409.944, 88.035 453.806, 87.938 511.527 L 87.767 612.389 93.863 617.771 C 97.216 620.732, 101.119 625.286, 102.537 627.891 C 105.115 632.627, 111.771 638, 115.061 638 C 117.323 638, 123.551 642.311, 129.074 647.700 C 134.124 652.628, 138.507 654.878, 149.294 658.081 C 158.476 660.808, 161.120 662.180, 168.588 668.094 C 173.342 671.858, 176.600 673.472, 183.450 675.458 C 188.276 676.856, 193.195 678, 194.382 678 C 197.513 678, 210.654 681.776, 214.880 683.890 C 216.871 684.885, 221.425 687.296, 225 689.247 C 233.197 693.719, 245.179 696.688, 260.311 697.997 C 266.807 698.559, 274.232 699.477, 276.811 700.037 C 282.820 701.341, 306.595 707.629, 314.839 710.094 C 331.680 715.130, 353.047 716.927, 415 718.518 C 481.540 720.226, 517.520 720.334, 569.500 718.981 C 627.518 717.470, 649.043 715.374, 667.500 709.435 C 682.882 704.486, 705.570 699.157, 714 698.512 C 737.671 696.701, 749.670 694.056, 763 687.709 C 775.389 681.811, 783.184 679.501, 797.271 677.553 C 811.880 675.532, 818.893 673.113, 825.026 667.978 C 830.584 663.325, 838.833 659.683, 847.394 658.103 C 855.636 656.581, 862.526 653.130, 869.334 647.112 C 875.352 641.792, 879.802 639.143, 886.188 637.078 C 891.350 635.409, 894.719 632.498, 897.093 627.655 C 898.213 625.370, 902.256 620.575, 906.078 617 C 912.536 610.959, 913.041 610.182, 913.229 606 C 913.341 603.525, 913.335 558.383, 913.216 505.685 L 913 409.870 907.957 404.958 C 904.983 402.061, 901.496 397.176, 899.455 393.047 C 897.553 389.198, 894.333 384.575, 892.299 382.774 C 890.266 380.973, 886.779 377.519, 884.551 375.098 C 876.211 366.035, 872.278 362.431, 868.075 360 C 865.697 358.625, 862.208 355.490, 860.321 353.034 C 856.021 347.437, 853.179 345.562, 845 342.926 C 837.406 340.478, 833.792 338.391, 826.761 332.389 C 820.939 327.419, 814.073 324.529, 804.428 322.989 C 795.716 321.597, 787.774 318.860, 775.095 312.881 C 762.190 306.796, 751.538 304.548, 728.500 303.048 C 711.620 301.949, 687.051 298.846, 665 295.028 C 626.397 288.345, 620.453 287.743, 576 286.017 C 546.694 284.879, 441.429 284.925, 414 286.088 M 453.500 297.465 C 436.450 298.171, 416.875 299.237, 410 299.833 C 391.498 301.437, 358.375 303.012, 343 303.019 C 328.371 303.025, 302.005 305.096, 286.058 307.491 C 276.511 308.925, 267.131 311.813, 259.942 315.530 C 254.545 318.321, 244.308 320.891, 232.007 322.544 C 212.480 325.168, 204.318 327.553, 197.822 332.533 C 190.206 338.372, 184.944 340.944, 176.061 343.168 C 167.415 345.333, 160.982 348.812, 158.077 352.892 C 155.415 356.630, 147.788 361.493, 140.832 363.886 C 131.399 367.131, 129.421 368.611, 125.004 375.720 C 122.115 380.371, 118.887 383.913, 114.722 387 C 109.540 390.841, 108.319 392.378, 106.377 397.500 C 103.345 405.501, 103.286 412.803, 106.222 416.615 C 107.445 418.202, 109.357 420.164, 110.472 420.976 C 114.151 423.654, 117.185 427.445, 118.728 431.288 C 120.453 435.588, 123.420 437.438, 130.167 438.419 C 136.676 439.366, 142.275 443.637, 143.836 448.848 C 146.204 456.751, 148.064 457.877, 160.512 458.940 C 166.568 459.457, 172.418 460.205, 173.512 460.603 C 177.916 462.204, 181.239 465.484, 183.401 470.363 C 184.652 473.188, 186.441 476.131, 187.375 476.903 C 188.520 477.848, 193.388 478.554, 202.287 479.066 C 228.500 480.572, 240.701 485.911, 243.492 497.098 C 244.080 499.453, 244.671 499.730, 249.820 500.062 C 263.386 500.937, 270.973 500.350, 285.500 497.302 C 302.046 493.830, 305.538 492.732, 308.500 490.069 C 317.219 482.230, 335.677 478.655, 355.500 480.966 C 360.450 481.543, 369.450 482.487, 375.500 483.063 C 381.785 483.661, 387.464 484.739, 388.750 485.578 C 394.534 489.352, 388.579 496.383, 372.769 504.446 C 367.671 507.046, 362.825 509.751, 362 510.459 C 357.944 513.936, 352.453 515.496, 345.133 515.249 C 339.823 515.070, 335.215 515.687, 328.633 517.457 C 303.265 524.279, 287.351 524.953, 267.270 520.055 C 250.685 516.010, 248.219 514.438, 245.201 505.992 C 242.904 499.562, 241.643 497.884, 239.591 498.527 C 238.991 498.715, 236.025 499.148, 233 499.491 C 229.975 499.833, 224.135 500.499, 220.023 500.971 C 212.045 501.888, 198.275 500.880, 192.179 498.934 C 188.058 497.618, 183 493.366, 183 491.217 C 183 489.139, 179.843 484.161, 178.053 483.417 C 177.199 483.062, 170.743 482.403, 163.706 481.952 C 148.077 480.951, 145.892 479.912, 141.063 471.181 C 138.060 465.754, 137.112 464.830, 133.563 463.872 C 123.547 461.169, 121.117 459.235, 117 450.689 C 115.189 446.930, 113.853 445.408, 112.152 445.168 C 108.753 444.686, 105.282 448.452, 104.129 453.871 C 103.388 457.356, 102.302 598.112, 102.913 611.377 C 103.023 613.763, 125.016 635.392, 128.722 636.759 C 130.250 637.323, 133.713 638.574, 136.419 639.539 C 139.336 640.580, 143.693 643.460, 147.126 646.616 C 153.810 652.761, 156.862 654.201, 170.171 657.494 C 180.880 660.144, 185.051 662.115, 192.500 668.049 C 198.512 672.838, 203.954 674.624, 218.500 676.586 C 236.182 678.970, 239.394 679.851, 250.739 685.433 C 268.841 694.338, 277.470 696.090, 312.525 697.975 C 329.568 698.891, 356.388 702.676, 362.617 705.045 C 369.090 707.506, 384.120 710.998, 388.150 710.978 C 393.247 710.952, 400.351 707.980, 404.272 704.233 C 405.797 702.776, 408.218 699.090, 409.653 696.042 C 412.048 690.956, 412.332 688.937, 413.105 671.500 C 413.568 661.050, 414.400 647.550, 414.953 641.500 C 415.506 635.450, 416.475 612.172, 417.107 589.771 L 418.255 549.042 415.548 543.508 C 413.930 540.202, 410.858 536.266, 407.920 533.736 C 405.215 531.406, 403.001 528.926, 403 528.225 C 403 526.261, 414.815 519.244, 420.364 517.913 C 427.791 516.131, 440.717 517.318, 446.677 520.329 C 451.497 522.764, 451.517 522.766, 480 522.480 C 495.675 522.323, 515.925 522.127, 525 522.045 C 534.075 521.962, 547.779 522.420, 555.453 523.063 C 570.660 524.335, 575.893 524.036, 583.471 521.460 C 590.415 519.100, 595.682 519.328, 598.079 522.091 C 600.499 524.882, 600.490 526.107, 598.026 529.240 C 595.526 532.418, 589.551 533.946, 579.952 533.862 C 575.853 533.827, 560.125 534.767, 545 535.951 C 522.950 537.678, 512.050 538.019, 490 537.671 C 474.875 537.433, 460.802 536.909, 458.728 536.507 C 453.186 535.433, 449.952 537.220, 446.491 543.272 L 443.500 548.500 442.847 623 C 442.488 663.975, 441.876 699.427, 441.489 701.782 C 440.579 707.306, 442.344 711.604, 446.391 713.721 C 449.170 715.174, 455.546 715.325, 506.500 715.138 C 562.407 714.933, 588.038 714.035, 599 711.898 C 602.025 711.309, 610.125 709.240, 617 707.301 C 642.391 700.139, 648.472 699.042, 668.500 698.016 C 678.950 697.481, 689.525 696.774, 692 696.446 C 700.819 695.277, 715.646 691.132, 725 687.220 C 738.513 681.569, 747.541 679.271, 763.253 677.482 C 782.161 675.330, 790.623 673.010, 798.112 667.924 C 805.959 662.595, 813.996 659.349, 822.639 658.016 C 834.454 656.195, 841.522 653.160, 848.694 646.829 C 854.968 641.290, 857.068 640.272, 868.912 637.030 C 872.207 636.128, 874.994 634.134, 879.912 629.160 C 883.536 625.496, 888.116 621.414, 890.090 620.089 C 892.065 618.764, 894.711 616.176, 895.971 614.338 L 898.261 610.995 898.075 530.748 C 897.908 458.496, 897.728 450.251, 896.261 448 C 893.619 443.943, 892.217 442.909, 888.546 442.314 C 884.724 441.694, 884.361 442.161, 882.101 450.615 C 880.792 455.510, 877.823 459.537, 874.162 461.381 C 872.698 462.118, 867.784 462.995, 863.242 463.330 C 858.699 463.665, 854.136 464.392, 853.100 464.947 C 852.064 465.501, 849.844 468.387, 848.166 471.360 C 843.399 479.807, 839.487 481.274, 819.500 482.115 C 810.700 482.485, 803.363 482.836, 803.195 482.894 C 803.027 482.952, 801.842 485.363, 800.562 488.250 C 799.281 491.137, 797.393 494.256, 796.365 495.180 C 791.688 499.386, 781.645 500.863, 756.488 501.046 C 746.265 501.121, 737.709 501.631, 736.356 502.247 C 735.062 502.837, 732.624 505.469, 730.938 508.097 C 727.548 513.379, 723.568 515.324, 705.638 520.461 C 690.844 524.700, 673.123 523.902, 654.401 518.156 C 648.955 516.484, 641.575 514.899, 638 514.634 C 621.374 513.399, 604.869 509.332, 596.082 504.305 C 587.975 499.667, 583.782 492.986, 582.330 482.394 L 581.731 478.019 585.115 479.744 C 588.004 481.216, 590.992 481.426, 605.500 481.178 C 650.540 480.406, 651.277 480.422, 656.506 482.249 C 659.260 483.212, 663.919 485.972, 666.859 488.384 C 672.459 492.978, 681.379 496.282, 691.500 497.512 C 694.250 497.846, 700.960 499.048, 706.412 500.183 C 714.862 501.942, 717.074 502.074, 721.412 501.081 C 727.584 499.668, 728.912 498.702, 732.108 493.304 C 737.936 483.462, 745.470 481.218, 776.370 480.125 C 795.735 479.440, 796.290 479.361, 798.183 477.023 C 799.251 475.703, 800.384 473.331, 800.700 471.752 C 801.466 467.918, 806.220 463.322, 810.791 461.994 C 812.831 461.401, 820.531 460.258, 827.902 459.454 C 835.274 458.650, 841.946 457.459, 842.730 456.809 C 843.515 456.158, 845.231 453.504, 846.545 450.911 C 847.859 448.319, 850.136 445.252, 851.604 444.097 C 855.176 441.287, 862.895 439.082, 871.832 438.319 C 879.644 437.652, 881.580 436.553, 882.657 432.180 C 883.674 428.046, 886.002 425.024, 890.218 422.362 C 901.639 415.153, 900.088 403.591, 886.023 391.091 C 881.885 387.413, 877.268 381.993, 874.529 377.598 C 869.867 370.119, 868.410 368.983, 854.592 362.055 C 852.993 361.253, 848.447 357.595, 844.489 353.925 C 837.214 347.180, 831.326 344.134, 822.500 342.551 C 816.779 341.524, 809.497 337.632, 803.926 332.624 C 798.316 327.580, 792.372 325.608, 778 324.022 C 759.680 322.002, 748.701 319.315, 739 314.479 C 723.913 306.957, 701.160 304.530, 622 301.998 C 603.575 301.408, 581.525 300.279, 573 299.489 C 542.288 296.643, 493.337 295.814, 453.500 297.465 M 452.500 462.958 C 444.250 463.354, 436.150 463.952, 434.500 464.286 C 432.850 464.621, 428.350 465.161, 424.500 465.485 C 411.973 466.540, 407.098 468.005, 404.415 471.523 C 401.612 475.198, 401.371 477.514, 403.565 479.708 C 404.882 481.025, 406.510 481.143, 413.815 480.448 C 418.592 479.994, 444.325 479.424, 471 479.182 C 497.675 478.940, 525.575 478.688, 533 478.621 C 546.201 478.503, 576.125 479.824, 576.881 480.559 C 577.091 480.763, 578.079 480.493, 579.077 479.959 C 580.599 479.144, 580.726 478.512, 579.866 476.045 C 576.611 466.708, 554.208 463.095, 496 462.520 C 480.325 462.365, 460.750 462.562, 452.500 462.958 M 372 524.969 C 372 525.501, 371.325 525.678, 370.500 525.362 C 369.550 524.997, 369 525.375, 369 526.393 C 369 527.277, 369.675 528, 370.500 528 C 371.325 528, 372 528.450, 372 529 C 372 529.550, 373.350 530, 375 530 C 378.939 530, 379.249 526.425, 375.435 524.975 C 372.254 523.766, 372 523.765, 372 524.969" stroke="none" fill="#444" fill-rule="evenodd"/></svg>