<svg xmlns="http://www.w3.org/2000/svg" width="1000" height="1000" viewBox="0 0 1000 1000" version="1.1"><path d="M 329.500 301.101 C 266.818 305.073, 258.317 306.242, 242.921 313.005 C 230.698 318.375, 223.102 320.615, 208.957 323.021 C 192.040 325.899, 187.823 327.402, 181.206 332.909 C 173.722 339.137, 170.707 340.644, 160.794 343.111 C 150.195 345.749, 146.322 347.835, 141.725 353.384 C 139.648 355.891, 134.905 359.719, 131.184 361.892 C 120.953 367.867, 106.440 382.826, 101.712 392.269 C 99.629 396.430, 96.155 402.056, 93.992 404.772 C 91.830 407.488, 89.581 410.971, 88.995 412.512 C 88.256 414.457, 88.088 443.087, 88.447 506.092 C 89.020 606.508, 88.536 599.647, 95.901 611.837 C 98.179 615.607, 100.966 621.348, 102.095 624.596 C 104.794 632.363, 107.444 636.136, 112.076 638.801 C 114.167 640.005, 117.368 642.873, 119.189 645.174 C 125.932 653.697, 128.787 655.852, 136.288 658.081 C 145.041 660.683, 148.838 662.586, 155.966 667.944 C 164.545 674.393, 169.350 675.528, 203 679.059 C 214.957 680.313, 229.697 683.156, 238.500 685.905 C 254.608 690.936, 259.497 692.108, 272.039 693.942 C 279.486 695.031, 292.986 696.389, 302.039 696.960 C 342.547 699.514, 351.372 700.236, 365 702.112 C 372.975 703.210, 381.975 704.737, 385 705.506 C 393.695 707.716, 416.414 710.841, 443 713.483 C 493.258 718.478, 569.883 715.013, 610.965 705.887 C 620.154 703.846, 650.675 700.018, 665.816 699.008 C 674.442 698.432, 688.475 697.500, 697 696.936 C 705.525 696.372, 718.800 695.016, 726.500 693.923 C 739.602 692.062, 744.649 690.901, 761 685.990 C 770.886 683.021, 785.319 680.266, 797.517 679.018 C 830.454 675.650, 834.807 674.614, 844.105 667.934 C 852.240 662.089, 857.023 659.657, 863.500 658.071 C 870.908 656.256, 875.089 653.455, 879.016 647.675 C 880.968 644.802, 884.919 640.900, 887.898 638.903 C 893.194 635.354, 897.985 629.127, 897.995 625.782 C 897.998 624.837, 900.257 619.662, 903.017 614.282 C 912.899 595.012, 912 605.859, 912 505.930 C 912 432.873, 911.763 417.368, 910.603 414.593 C 909.835 412.755, 907.164 409.119, 904.667 406.513 C 902.171 403.908, 898.933 399.239, 897.472 396.138 C 894.023 388.815, 892.635 387.355, 885.879 383.941 C 882.205 382.085, 878.296 378.866, 874.592 374.648 C 869.917 369.323, 867.751 367.726, 862.213 365.524 C 850.015 360.674, 845.249 357.913, 840.598 353.001 C 835.682 347.808, 829.729 344.976, 819.926 343.163 C 811.765 341.655, 804.226 338.364, 797.532 333.390 C 790.074 327.848, 783.369 325.743, 764.583 323.046 C 749.421 320.869, 741.713 318.730, 726.980 312.613 C 716.100 308.096, 701.337 305.185, 683 303.943 C 618.952 299.602, 619.101 299.606, 487.500 299.400 C 371.500 299.219, 356.688 299.379, 329.500 301.101 M 364.500 304.007 C 355.150 304.428, 344.007 305.270, 339.738 305.878 C 335.470 306.486, 327.834 307.452, 322.770 308.026 C 312.720 309.165, 302.449 311.548, 288.454 315.990 C 273.972 320.587, 266.826 321.936, 248.430 323.548 C 226.145 325.500, 219.052 327.360, 210.429 333.514 C 204.386 337.825, 192.273 343, 188.222 343 C 187.350 343, 183.037 343.971, 178.638 345.158 C 171.401 347.111, 169.955 347.945, 163.457 353.908 C 157.966 358.948, 154.535 361.173, 148.887 363.360 C 141.826 366.094, 140.755 366.975, 124.589 383.360 C 100.748 407.523, 99.716 410.621, 111.548 422.511 C 115.097 426.077, 118 429.406, 118 429.909 C 118 431.839, 124.370 436.052, 129.578 437.566 C 136.284 439.515, 140.376 442.849, 143.464 448.880 C 144.765 451.421, 146.756 454.059, 147.887 454.741 C 149.019 455.424, 154.064 456.649, 159.099 457.463 C 170.999 459.388, 176.318 461.981, 179.498 467.407 C 184.548 476.023, 185.189 476.299, 202.275 477.190 C 210.649 477.627, 221.325 478.640, 226 479.441 C 230.675 480.241, 237.650 481.198, 241.500 481.567 C 250.585 482.438, 254.499 484.114, 260 489.489 C 262.475 491.908, 265.850 494.435, 267.500 495.106 C 269.606 495.963, 284.055 496.546, 316 497.064 C 371.481 497.965, 389.945 498.654, 409.778 500.566 C 427.133 502.239, 431.458 503.612, 435 508.578 C 438.258 513.144, 442.707 515.397, 452.411 517.394 C 461.134 519.189, 461.162 519.205, 469 526.591 C 472.025 529.442, 476.240 533.310, 478.366 535.188 C 481.535 537.985, 482.798 540.302, 485.366 548.025 C 487.782 555.289, 489.073 557.753, 491 558.773 C 495.929 561.383, 510.001 558.202, 512.118 554 C 512.533 553.175, 514.278 549.326, 515.994 545.447 C 518.469 539.854, 520.927 536.568, 527.874 529.571 C 537.886 519.487, 539.112 518.726, 548 517.089 C 558.583 515.141, 561.234 513.980, 566.609 508.942 C 572.701 503.232, 574.143 502.804, 596.500 500.067 C 610.919 498.302, 622.535 497.855, 673 497.123 C 738.485 496.174, 737.272 496.298, 744.866 489.756 C 749.739 485.559, 752.887 484.385, 768.500 480.940 C 779.513 478.509, 785.670 477.753, 797.360 477.394 C 807.531 477.082, 813.096 476.485, 814.996 475.502 C 816.522 474.713, 819.155 471.616, 820.845 468.620 C 823.566 463.799, 824.565 462.932, 829.549 461.068 C 832.645 459.909, 838.475 458.471, 842.504 457.872 C 850.949 456.616, 855.628 454.163, 857.046 450.250 C 859.629 443.115, 862.885 440.253, 871.633 437.429 C 876.601 435.825, 882 431.932, 882 429.953 C 882 429.422, 884.676 426.352, 887.946 423.132 C 897.394 413.831, 897.296 409.223, 887.509 402.546 C 883.987 400.143, 880.074 396.318, 878.010 393.260 C 875.201 389.098, 872.992 387.265, 866.943 384.080 C 861.560 381.245, 857.903 378.394, 854.225 374.166 C 849.256 368.452, 848.681 368.111, 838.782 364.991 C 827.216 361.345, 822.309 358.820, 816.500 353.526 C 814.300 351.521, 811.375 349.285, 810 348.557 C 806.918 346.925, 792.407 343.369, 785.056 342.444 C 777.322 341.471, 769.844 338.685, 760.914 333.450 C 756.654 330.952, 751.668 328.476, 749.834 327.948 C 741.674 325.596, 731.143 323.939, 718.700 323.050 C 703.621 321.972, 692.607 319.761, 670 313.274 C 653.798 308.624, 644.647 307.302, 612 304.893 C 593.782 303.549, 390.785 302.822, 364.500 304.007 M 107.783 461.750 C 103.768 466.353, 103.788 465.983, 103.943 534.090 C 104.025 570.299, 104.493 602.383, 104.982 605.387 C 106.174 612.711, 107.974 615.878, 113.152 619.758 C 115.543 621.551, 118.598 624.701, 119.941 626.758 C 123.774 632.634, 127.943 636.722, 133.606 640.154 C 136.482 641.897, 140.475 645.473, 142.479 648.102 C 146.720 653.663, 150.720 655.312, 164 656.978 C 176.886 658.595, 181.356 659.800, 195.500 665.474 C 210.502 671.493, 214.618 672.532, 229 673.936 C 253.380 676.316, 273.265 677.951, 284.628 678.510 C 299.165 679.225, 312.069 681.724, 323.016 685.946 C 336.687 691.218, 374.540 695.777, 418.500 697.447 C 426.200 697.740, 439.475 698.257, 448 698.597 C 466.097 699.319, 470.497 698.525, 473.901 693.920 C 476.475 690.439, 477.016 682.637, 475.180 675.478 C 474.619 673.290, 473.850 669.025, 473.472 666 C 473.094 662.975, 471.630 656.450, 470.220 651.500 C 467.744 642.814, 467.649 641.453, 467.498 612.500 C 467.350 584.226, 467.212 582.130, 465.100 576.071 C 463.867 572.536, 462.033 568.025, 461.024 566.047 C 460.015 564.069, 458.617 559.537, 457.918 555.975 C 456.284 547.658, 453.300 544.430, 446.413 543.528 C 437.532 542.365, 423.024 537.058, 415.910 532.371 L 409.095 527.882 389.797 525.947 C 374.254 524.389, 362.690 524.012, 330.346 524.007 C 285.417 523.999, 256.491 522.245, 247.146 518.960 C 241.506 516.978, 235.234 512.773, 234.305 510.352 C 233.679 508.722, 227.982 505.654, 223.500 504.534 C 221.850 504.121, 212.625 503.464, 203 503.074 C 186.880 502.420, 185.102 502.160, 180.460 499.772 C 177.688 498.346, 173.476 495.070, 171.100 492.493 C 166.037 487, 162.524 485.350, 151.924 483.487 C 141.903 481.725, 138.725 480.014, 134.471 474.093 C 127.132 463.877, 112.023 456.889, 107.783 461.750 M 882 461.838 C 872.925 466.183, 869.612 468.713, 866.379 473.762 C 861.960 480.663, 858.547 482.581, 848.126 484.019 C 837.067 485.544, 832.198 487.699, 828.090 492.886 C 822.086 500.466, 818.014 501.687, 794.500 502.954 C 774.245 504.045, 770.408 505.168, 763.779 511.936 C 759.941 515.857, 757.706 517.191, 752.258 518.817 C 738.982 522.778, 732.800 523.179, 674.500 523.861 C 643.150 524.227, 617.027 524.829, 616.450 525.199 C 615.872 525.568, 611.199 525.963, 606.065 526.076 C 594.160 526.338, 589.640 527.519, 584.024 531.836 C 577.540 536.822, 568.133 540.834, 557.713 543.061 C 552.735 544.125, 547.828 545.751, 546.808 546.674 C 545.788 547.597, 544.262 550.860, 543.416 553.926 C 542.571 556.992, 540.464 562.650, 538.735 566.500 C 536.249 572.036, 535.445 575.487, 534.895 583 C 534.512 588.225, 533.487 597.450, 532.619 603.500 C 531.750 609.550, 531.014 617.650, 530.984 621.500 C 530.954 625.350, 530.291 631.169, 529.512 634.432 C 528.733 637.695, 527.387 646.470, 526.521 653.932 C 525.656 661.394, 524.509 670.512, 523.974 674.193 C 522.444 684.710, 522.747 691.072, 524.950 694.686 C 527.774 699.317, 530.178 700.241, 537.837 699.640 C 541.501 699.352, 555.975 698.674, 570 698.132 C 584.025 697.591, 608.499 695.999, 624.386 694.595 C 652.905 692.074, 653.439 691.985, 666.386 687.616 C 684.558 681.484, 703.345 678, 718.246 678 C 725.631 678, 751.283 675.901, 773.214 673.502 C 784.558 672.262, 787.413 671.522, 799.714 666.637 C 812.738 661.466, 817.062 660.326, 838.251 656.484 C 849.991 654.355, 853.148 652.877, 857.626 647.412 C 859.714 644.864, 863.774 641.451, 866.650 639.829 C 872.212 636.689, 876.987 631.788, 880.902 625.198 C 882.223 622.974, 885.033 619.882, 887.147 618.327 C 889.260 616.772, 891.984 613.479, 893.201 611.008 C 895.286 606.773, 895.454 604.715, 896.131 575.008 C 897.259 525.560, 897.158 470.547, 895.933 467.315 C 893.292 460.344, 888.804 458.580, 882 461.838" stroke="none" fill="#444" fill-rule="evenodd"/></svg>