<svg xmlns="http://www.w3.org/2000/svg" width="800" height="800" viewBox="0 0 800 800" version="1.1"><path d="M 332 178.049 C 297.318 178.937, 269.213 181.035, 259 183.499 C 255.975 184.228, 248.325 186.186, 242 187.849 C 229.956 191.015, 222.431 192.265, 205 193.994 C 186.221 195.856, 178.710 197.943, 167.912 204.300 C 165.324 205.823, 157.343 208.507, 149.609 210.455 C 136.923 213.650, 135.532 214.236, 131.041 218.273 C 127.883 221.113, 122.948 223.980, 116.917 226.480 C 109.796 229.432, 106.588 231.423, 103.074 235.074 C 100.558 237.687, 95.793 241.400, 92.484 243.323 C 88.114 245.864, 85.821 248.008, 84.100 251.161 C 82.797 253.547, 79.334 257.975, 76.404 261 C 67.374 270.323, 67.890 264.733, 67.904 353 C 67.918 439.117, 67.754 436.848, 74.540 444.776 C 76.512 447.080, 79.271 451.785, 80.671 455.233 C 84.686 465.117, 86.620 468.450, 91.737 474.297 C 94.367 477.303, 97.350 482.071, 98.364 484.893 C 99.742 488.723, 101.597 491.210, 105.679 494.697 C 108.687 497.267, 112.059 501.199, 113.173 503.435 C 114.287 505.671, 118.191 510.477, 121.849 514.116 C 125.507 517.755, 130.300 522.705, 132.500 525.116 C 134.700 527.527, 137.745 530.625, 139.267 532 C 140.788 533.375, 147.988 540.446, 155.267 547.714 C 179.463 571.874, 182.476 574.724, 185.828 576.619 C 187.658 577.653, 190.720 580.672, 192.632 583.328 C 194.544 585.983, 197.546 588.908, 199.304 589.828 C 201.062 590.747, 205.200 594.261, 208.500 597.636 C 211.800 601.011, 216.372 604.712, 218.659 605.860 C 220.947 607.008, 224.911 609.760, 227.470 611.974 C 230.028 614.188, 232.389 616, 232.716 616 C 233.043 616, 237.086 612.095, 241.700 607.322 C 247.944 600.863, 251.253 596.391, 254.643 589.829 C 257.698 583.913, 260.496 579.984, 263.147 577.883 C 265.596 575.944, 268.404 572.162, 270.531 567.939 C 272.693 563.645, 275.490 559.899, 278.091 557.812 C 280.683 555.733, 283.491 551.978, 285.635 547.725 C 291.847 535.403, 299.452 529.071, 310.434 527.077 C 318.790 525.560, 483.982 525.588, 491.067 527.108 C 495.262 528.008, 497.685 529.496, 503.973 535.037 C 510.379 540.682, 512.190 542.976, 514.466 548.333 C 516.539 553.209, 518.555 555.961, 522.636 559.484 C 526.497 562.818, 528.867 565.956, 530.887 570.411 C 532.694 574.396, 535.854 578.805, 539.610 582.582 C 544.305 587.303, 545.978 589.883, 547.858 595.301 C 549.888 601.155, 550.928 602.641, 555.358 606.013 C 558.186 608.166, 561.560 611.504, 562.856 613.430 C 566.650 619.071, 568.607 619.033, 573.988 613.211 C 576.545 610.444, 580.761 607.182, 583.357 605.962 C 585.993 604.723, 589.692 601.771, 591.738 599.275 C 593.752 596.817, 597.700 593.334, 600.510 591.537 C 603.320 589.739, 607.101 586.398, 608.911 584.113 C 610.721 581.827, 614.069 578.670, 616.351 577.098 C 618.633 575.525, 632.200 562.543, 646.500 548.249 C 681.194 513.569, 686.235 508.235, 688.971 503.313 C 690.251 501.009, 693.201 497.758, 695.527 496.088 C 699.253 493.412, 704 486.118, 704 483.068 C 704 482.543, 706.451 479.467, 709.446 476.232 C 713.365 471.999, 716.011 467.769, 718.883 461.146 C 721.079 456.085, 724.701 449.650, 726.932 446.847 C 729.164 444.045, 731.555 439.895, 732.245 437.626 C 734.056 431.674, 734.068 278.644, 732.258 275 C 731.575 273.625, 726.160 267.100, 720.224 260.500 C 712.639 252.066, 707.007 246.866, 701.273 243 C 696.786 239.975, 691.111 235.404, 688.662 232.841 C 685.129 229.145, 682.749 227.712, 677.144 225.907 C 672.842 224.522, 667.817 221.908, 664.290 219.221 C 656.717 213.452, 653.701 212.221, 641.601 209.966 C 633.720 208.496, 629.369 206.986, 621.806 203.093 C 610.621 197.336, 603.615 195.655, 584 194.019 C 565.762 192.498, 548.659 189.691, 532.744 185.606 C 525.460 183.737, 514.550 181.677, 508.500 181.028 C 482.308 178.222, 387.668 176.624, 332 178.049 M 356.500 186.984 C 353.200 187.423, 346.225 187.834, 341 187.895 C 335.775 187.957, 327.450 188.661, 322.500 189.460 C 317.550 190.258, 304.950 191.380, 294.500 191.952 C 284.050 192.525, 266.950 193.459, 256.500 194.027 C 219.221 196.054, 209.836 197.564, 198.087 203.425 C 190.303 207.308, 189.665 207.478, 171.271 210.550 C 155.915 213.115, 152.764 214.307, 146.273 220.003 C 143.665 222.291, 139.835 224.355, 136.273 225.390 C 133.098 226.313, 128.168 227.741, 125.318 228.564 C 121.208 229.750, 119.278 231.085, 115.985 235.018 C 113.142 238.414, 109.809 240.944, 105.416 243.040 C 101.887 244.724, 99 246.577, 99 247.157 C 99 247.737, 95.400 251.717, 91 256 L 83 263.788 83 272.944 C 83 287.468, 86.005 291.399, 97.185 291.502 C 103.312 291.558, 104.477 291.870, 106.115 293.894 C 108.400 296.716, 108.527 299.318, 106.463 301.031 C 105.215 302.066, 103.605 302.058, 97.925 300.986 C 91.685 299.809, 90.543 299.848, 87.401 301.346 C 82.148 303.851, 79.586 310.249, 80.369 318.902 C 80.697 322.531, 81.028 347.100, 81.104 373.500 C 81.297 440.271, 82.102 446.998, 91.030 456.438 C 94.300 459.896, 96.917 464.046, 98.900 468.919 C 101.166 474.486, 103.159 477.440, 107.297 481.360 C 110.281 484.187, 113.798 488.736, 115.111 491.468 C 116.425 494.200, 120.254 499.150, 123.619 502.468 C 126.985 505.786, 131.456 511.118, 133.555 514.317 C 135.936 517.945, 139.001 521.089, 141.703 522.672 C 144.645 524.396, 147.087 527.019, 149.320 530.855 C 151.485 534.574, 154.241 537.577, 157.400 539.657 C 160.037 541.394, 163.668 545.003, 165.470 547.679 C 167.330 550.441, 170.909 553.888, 173.754 555.656 C 176.509 557.369, 180.279 560.812, 182.132 563.307 C 183.984 565.803, 188.114 569.525, 191.309 571.580 C 194.504 573.635, 199.454 577.893, 202.309 581.044 C 205.164 584.195, 210.220 588.576, 213.544 590.781 C 216.868 592.986, 221.284 596.861, 223.358 599.392 C 230.255 607.809, 235.358 606.832, 239.381 596.324 C 241.088 591.863, 243.293 588.278, 245.747 585.972 C 247.886 583.961, 251.267 578.795, 253.608 573.959 C 256.706 567.561, 258.894 564.508, 262.506 561.548 C 265.854 558.805, 268.139 555.764, 270.096 551.448 C 272.055 547.128, 274.390 544.022, 277.872 541.107 C 281.921 537.717, 283.358 535.597, 285.588 529.721 C 289.194 520.219, 290.465 518.398, 295.582 515.399 C 298.971 513.413, 300.224 511.888, 301.504 508.190 C 304.685 499.003, 306.298 496.709, 311.447 494.053 C 316.248 491.576, 316.464 491.271, 318.710 483.808 C 320.825 476.780, 321.532 475.675, 326.894 471.011 C 332.031 466.543, 332.980 465.133, 334.502 459.703 C 336.706 451.842, 337.847 450.259, 343.600 447.082 C 347.750 444.791, 348.529 443.791, 350.531 438.196 C 353.093 431.037, 354.871 428.710, 359.125 426.948 C 362.429 425.580, 364.963 421.250, 366.998 413.500 C 368.964 406.014, 370.646 403.263, 375.028 400.363 C 378.110 398.323, 379 397.097, 379 394.890 C 379 389.320, 377.915 389.099, 340 386.962 C 303.777 384.919, 296.029 383.722, 284.230 378.345 C 276.150 374.663, 267.981 372.991, 246 370.523 C 229.540 368.674, 223.146 366.386, 221.566 361.777 C 220.025 357.280, 222.272 354.734, 231.839 350.141 C 236.602 347.853, 242.670 344.423, 245.323 342.518 C 252.157 337.609, 257.603 336.369, 289.026 332.567 C 297.778 331.508, 305.161 329.857, 313.526 327.089 C 320.112 324.909, 329.550 322.428, 334.500 321.576 C 361.774 316.878, 462.520 316.830, 482.681 321.506 C 486.232 322.329, 492.467 324.541, 496.535 326.421 C 505.432 330.532, 511.423 332.307, 524 334.560 C 535.305 336.585, 539.066 338.357, 544.821 344.371 C 547.764 347.447, 550.792 349.427, 554.321 350.581 C 562.660 353.311, 568.792 356.768, 569.554 359.170 C 570.098 360.883, 569.556 362.008, 567.151 364.156 C 563.146 367.734, 556.177 369.674, 542.500 371.016 C 528.962 372.345, 521.661 373.987, 509.736 378.382 C 491.463 385.118, 486.766 385.778, 451.500 386.568 C 437.750 386.875, 425.476 387.335, 424.225 387.589 C 420.856 388.273, 418 391.611, 418 394.865 C 418 398.058, 421.376 403, 423.557 403 C 426.954 403, 431.042 408.563, 433.843 417 C 436.212 424.135, 437.214 425.852, 440.083 427.694 C 447.580 432.507, 448.689 433.829, 450.433 440.048 C 451.818 444.984, 452.750 446.506, 455.203 447.841 C 461.894 451.482, 463.796 453.880, 466.550 462.151 C 468.033 466.603, 469.978 470.874, 470.873 471.640 C 471.768 472.407, 474.180 474.417, 476.234 476.107 C 479.203 478.549, 480.394 480.606, 482.038 486.128 C 484.057 492.906, 484.236 493.138, 489.316 495.543 C 495.432 498.439, 496.356 499.704, 498.522 508.152 C 499.950 513.718, 500.911 515.239, 506.325 520.500 C 511.111 525.150, 513.032 527.925, 514.864 532.834 C 516.821 538.077, 518.062 539.766, 522.072 542.647 C 525.683 545.242, 527.659 547.700, 529.842 552.313 C 531.739 556.324, 534.682 560.258, 538.209 563.500 C 541.350 566.386, 545.284 571.460, 547.513 575.500 C 549.637 579.350, 553.066 584.448, 555.133 586.829 C 557.201 589.211, 559.648 593.486, 560.571 596.329 C 562.700 602.884, 565.493 606, 569.240 606 C 573.389 606, 575.321 604.684, 579.296 599.151 C 581.509 596.071, 584.931 593.042, 588.515 590.991 C 591.651 589.197, 597.153 584.978, 600.742 581.615 C 604.332 578.252, 609.326 574.375, 611.841 573 C 614.389 571.606, 618.201 568.156, 620.456 565.203 C 622.680 562.290, 626.698 558.626, 629.384 557.061 C 632.453 555.273, 635.339 552.494, 637.150 549.585 C 638.896 546.780, 642.145 543.603, 645.394 541.525 C 649.194 539.094, 651.634 536.539, 653.772 532.751 C 655.561 529.580, 658.442 526.311, 660.856 524.714 C 663.094 523.233, 666.447 519.642, 668.307 516.734 C 670.168 513.825, 673.912 509.585, 676.628 507.312 C 679.792 504.663, 682.991 500.561, 685.533 495.894 C 687.715 491.889, 692.009 486.061, 695.076 482.944 C 699.018 478.938, 701.310 475.518, 702.896 471.278 C 704.364 467.353, 706.650 463.797, 709.512 460.989 C 714.722 455.875, 717.403 450.024, 720.197 437.672 C 722.142 429.072, 722.288 425.009, 722.535 372.500 C 722.680 341.700, 722.417 313.614, 721.951 310.087 C 721.331 305.388, 720.269 302.510, 717.980 299.322 C 715.004 295.178, 714.917 294.792, 716.157 291.235 C 718.004 285.935, 717.889 268.253, 715.985 264.832 C 715.168 263.365, 712.276 260.665, 709.557 258.832 C 706.838 257, 703.215 253.475, 701.506 251 C 699.074 247.478, 696.649 245.630, 690.344 242.497 C 685.914 240.295, 680.451 236.833, 678.204 234.803 C 673.110 230.201, 670.339 228.767, 661.416 226.118 C 657.520 224.961, 651.445 222.144, 647.916 219.859 C 638.744 213.918, 636.851 213.291, 618.236 210.027 C 599.645 206.767, 598.175 206.392, 589.241 202.614 C 576.402 197.185, 566.157 195.872, 518 193.483 C 501.225 192.651, 483.900 191.555, 479.500 191.047 C 475.100 190.539, 466.325 189.833, 460 189.478 C 453.675 189.123, 443.325 188.386, 437 187.841 C 422.151 186.560, 364.303 185.945, 356.500 186.984 M 695.235 291.999 C 692.316 293.220, 690.637 297.453, 692.035 300.065 C 693.504 302.810, 699.751 302.646, 704.025 299.750 C 708.296 296.856, 708.679 295.491, 705.760 293.578 C 702.617 291.519, 698.028 290.830, 695.235 291.999 M 114.250 306.031 C 111.505 307.134, 111.188 311.831, 113.609 315.526 C 117.827 321.964, 135 320.350, 135 313.516 C 135 310.079, 131.565 307.287, 125.821 306.055 C 120.010 304.809, 117.305 304.803, 114.250 306.031 M 671.781 307.064 C 664.924 307.862, 661 310.154, 661 313.363 C 661 316.576, 664.658 318, 672.912 318 C 681.089 318, 685 315.718, 685 310.946 C 685 308.016, 685.019 308.029, 678.500 306.616 C 677.950 306.497, 674.926 306.699, 671.781 307.064 M 144.750 323.024 C 141.888 324.783, 142.546 329.440, 146.077 332.411 C 148.602 334.536, 150.169 334.997, 154.827 334.985 C 162.265 334.966, 165.500 333.327, 165.500 329.578 C 165.500 325.098, 161.356 322.627, 153.218 322.255 C 149.523 322.087, 145.713 322.433, 144.750 323.024 M 403.500 323.088 C 399.650 323.531, 391.325 324.337, 385 324.879 C 378.675 325.420, 370.800 326.583, 367.500 327.464 C 361.767 328.993, 333.076 332.608, 307.500 335.024 C 288.512 336.818, 282.888 338.339, 268.215 345.652 C 254.672 352.402, 251 355.395, 251 359.683 C 251 362.737, 254.785 366.283, 259.698 367.830 C 261.789 368.489, 271.375 369.716, 281 370.556 C 302.648 372.447, 314.060 374.201, 329.500 378.010 C 345.956 382.069, 358.523 383.190, 393.438 383.712 C 420.263 384.113, 424.993 383.934, 438.938 381.987 C 447.497 380.793, 459.225 378.750, 465 377.449 C 480.098 374.047, 492.167 372.253, 511.500 370.538 C 520.850 369.709, 530.135 368.566, 532.134 368 C 540.108 365.740, 543.115 360.464, 539.428 355.201 C 537.826 352.914, 530.131 346.728, 522.653 341.716 C 516.700 337.726, 510.930 336.280, 489.500 333.403 C 479.050 332, 466.675 330.031, 462 329.027 C 457.325 328.023, 450.800 326.911, 447.500 326.556 C 444.200 326.201, 438.125 325.290, 434 324.531 C 423.899 322.675, 411.989 322.111, 403.500 323.088 M 637.192 323.038 C 631.188 323.895, 628 326.198, 628 329.680 C 628 332.833, 631.277 334, 640.131 334 C 646.869 334, 650.679 332.930, 652.235 330.600 C 653.392 328.868, 653.122 325.341, 651.750 324.259 C 649.847 322.758, 643.112 322.193, 637.192 323.038 M 180.250 339.965 C 177.112 341.319, 177.305 345.308, 180.635 347.927 C 182.813 349.641, 184.675 349.997, 191.385 349.985 C 200.352 349.969, 204.338 348.575, 204.811 345.288 C 205.337 341.636, 201.115 339.796, 191.232 339.371 C 186.430 339.164, 181.488 339.431, 180.250 339.965 M 598 339.880 C 592.865 340.980, 590 342.814, 590 345 C 590 348.219, 593.507 349.212, 603.582 348.843 C 611.700 348.546, 613.247 348.200, 615.196 346.250 C 617.433 344.011, 617.434 343.990, 615.472 342.061 C 613.218 339.845, 603.705 338.658, 598 339.880 M 389.299 409.347 C 388.186 410.761, 386.720 414.744, 386.041 418.196 C 384.323 426.930, 382.776 429.415, 377.517 431.887 C 374.107 433.490, 372.553 434.978, 371.377 437.766 C 367.339 447.340, 365.792 449.600, 361.291 452.500 C 357.212 455.128, 356.366 456.308, 354.459 462.027 C 351.230 471.708, 349.476 474.548, 344.778 477.703 C 341.208 480.101, 340.129 481.668, 338.015 487.528 C 335.613 494.188, 335.260 494.617, 330.146 497.110 C 327.201 498.545, 324.395 500.345, 323.911 501.110 C 322.208 503.799, 322.861 513.606, 324.911 516.139 L 326.823 518.500 399.212 518.821 C 482.205 519.190, 475.823 519.899, 476.755 510.203 C 477.316 504.355, 475.583 500.614, 471.777 499.463 C 467.721 498.238, 463.985 493.757, 462.362 488.173 C 461.167 484.064, 460.088 482.401, 457.800 481.145 C 451.658 477.774, 450.145 475.946, 447.942 469.239 C 444.709 459.400, 443.588 457.610, 438.262 453.784 C 433.680 450.492, 432.445 448.568, 429.049 439.434 C 428.300 437.417, 426.214 435.377, 422.958 433.475 C 418.928 431.122, 417.712 429.738, 416.427 426.042 C 411.661 412.341, 411.896 412.683, 405.469 410.111 C 402.186 408.797, 397.660 407.509, 395.411 407.249 C 391.909 406.844, 391.030 407.146, 389.299 409.347 M 396.465 467.086 C 396.496 472.434, 396.197 473.400, 394 475.043 C 385.913 481.094, 386 480.981, 386 485.503 C 386 491.603, 389.135 494, 397.115 494 C 409.415 494, 413.858 489.711, 414.771 476.959 C 415.222 470.660, 415.095 470.177, 412.084 466.748 C 409.719 464.055, 407.663 462.879, 403.913 462.075 C 396.253 460.432, 396.426 460.316, 396.465 467.086" stroke="none" fill="#444" fill-rule="evenodd"/></svg>