<svg xmlns="http://www.w3.org/2000/svg" width="50" height="50" viewBox="0 0 50 50" version="1.1">
	<path d="M 4.310 20.500 C 4.315 23.800, 4.502 25.029, 4.725 23.232 C 4.947 21.435, 4.943 18.735, 4.715 17.232 C 4.486 15.729, 4.304 17.200, 4.310 20.500 M 23.333 22.660 C 23.333 23.545, 23.850 23.615, 25.167 22.911 C 26.175 22.371, 27 21.817, 27 21.679 C 27 21.541, 26.175 21.429, 25.167 21.429 C 24.158 21.429, 23.333 21.983, 23.333 22.660 M 24 27 C 24 27.550, 24.675 28, 25.500 28 C 26.325 28, 27 27.550, 27 27 C 27 26.450, 26.325 26, 25.500 26 C 24.675 26, 24 26.450, 24 27" stroke="none" fill="#555555" fill-rule="evenodd"/>
</svg>