<svg xmlns="http://www.w3.org/2000/svg" width="1000" height="1000" viewBox="0 0 1000 1000" version="1.1"><path d="M 413.500 281.075 C 401.950 281.484, 375.850 282.306, 355.500 282.901 C 306.158 284.344, 290.989 286.143, 273.300 292.648 C 260.315 297.424, 248.703 300.607, 239.240 301.985 C 216.261 305.332, 209.300 307.279, 201.281 312.601 C 192.803 318.229, 186.888 320.811, 177.415 323.020 C 166.735 325.510, 164.505 326.672, 156.520 333.908 C 151.603 338.364, 147.682 340.769, 139.949 344.071 C 130.333 348.177, 129.594 348.710, 125.420 354.560 C 122.192 359.083, 119.312 361.723, 114.599 364.480 C 108.398 368.106, 108.035 368.545, 104.072 377.196 C 101.815 382.124, 97.914 389.302, 95.404 393.147 C 87.381 405.438, 88.028 395.355, 87.929 509.527 L 87.839 612.162 93.782 618.351 C 97.051 621.755, 100.642 626.331, 101.762 628.520 C 104.082 633.051, 107.378 635.749, 114.369 638.840 C 117.326 640.148, 121.647 643.506, 125.369 647.389 C 131.153 653.423, 132.041 653.955, 141.054 656.766 C 153.046 660.507, 156.190 662.134, 162.817 668.032 C 168.349 672.955, 174.699 675.530, 187.500 678.043 C 197.115 679.930, 201.924 681.831, 211.500 687.529 C 221.708 693.603, 227.266 695.257, 245 697.501 C 260.485 699.461, 270.906 701.983, 287 707.666 C 305.379 714.155, 322.613 716.691, 357 717.965 C 372.125 718.525, 393.725 719.550, 405 720.242 C 437.984 722.266, 574.525 721.960, 602.500 719.799 C 614.600 718.865, 630.575 717.823, 638 717.483 C 656.164 716.654, 677.196 712.948, 689.567 708.396 C 707.128 701.936, 716.524 699.898, 742.307 696.959 C 755.351 695.472, 764.679 692.777, 773.460 687.957 C 782.847 682.805, 793.120 679.353, 803.147 677.980 C 815.560 676.280, 823.712 673.365, 831 668.020 C 839.453 661.820, 842.154 660.504, 851.627 657.970 C 863.328 654.840, 867.910 652.491, 874 646.501 C 877.353 643.202, 881.842 640.065, 885.500 638.462 C 892.625 635.340, 895.487 632.881, 898.238 627.514 C 899.362 625.322, 903.163 620.786, 906.684 617.433 L 913.088 611.337 913.087 509.712 C 913.085 410.149, 913.045 408.008, 911.090 404.177 C 909.993 402.027, 908.012 398.969, 906.688 397.384 C 904.001 394.164, 902.511 391.622, 896 379.142 C 892.059 371.589, 890.701 369.955, 885.070 365.990 C 881.534 363.501, 876.559 358.772, 874.015 355.482 C 870.169 350.508, 867.801 348.657, 859.965 344.500 C 854.576 341.641, 847.961 337.096, 844.520 333.886 C 837.378 327.226, 832.631 324.654, 823.630 322.566 C 815.822 320.755, 810.515 318.208, 803.473 312.892 C 800.670 310.776, 796.458 308.367, 794.113 307.540 C 789.756 306.002, 777.156 303.689, 766.615 302.491 C 759.936 301.732, 744.147 297.800, 726.500 292.502 C 704.346 285.851, 690.366 284.650, 598 281.468 C 552.700 279.908, 452.439 279.694, 413.500 281.075 M 442 284.909 C 420.275 285.247, 401.877 285.919, 401.115 286.404 C 400.353 286.888, 390.453 287.626, 379.115 288.044 C 358.798 288.792, 348.415 290.307, 328 295.502 C 322.036 297.020, 311.021 299.284, 301.500 300.948 C 298.200 301.525, 287.850 302.446, 278.500 302.995 C 256.509 304.287, 240.216 307.529, 232.508 312.146 C 220.107 319.575, 217.456 320.838, 212.092 321.868 C 209.016 322.459, 202.713 323.659, 198.085 324.535 C 188.192 326.408, 183.780 328.481, 179 333.502 C 174.893 337.816, 168.748 341.147, 160.457 343.552 C 151.020 346.289, 148.351 347.961, 143.550 354.144 C 140.470 358.109, 137.379 360.777, 133.773 362.582 C 127.382 365.780, 124.356 368.448, 122.369 372.635 C 120.648 376.262, 117.021 379.994, 112.054 383.249 C 106.640 386.797, 104.681 391.107, 104.252 400.414 C 103.786 410.525, 105.537 414.557, 111.677 417.507 C 117.371 420.244, 120.897 423.707, 123.057 428.686 C 125.302 433.858, 127.614 435.403, 136.391 437.594 C 142.129 439.026, 144.053 440.082, 147.891 443.907 C 150.426 446.433, 152.979 449.400, 153.563 450.500 C 155.353 453.866, 162.301 456.649, 172.034 457.897 C 184.161 459.452, 189.775 462.287, 193.854 468.917 C 198.579 476.596, 200.631 477.289, 221 478.091 C 230.625 478.469, 239.850 479.230, 241.500 479.781 C 249.654 482.506, 253.947 485.098, 257.515 489.453 C 262.142 495.100, 264.138 496.248, 269.206 496.178 C 273.739 496.115, 282.390 493.466, 286 491.035 C 290.665 487.894, 300.478 483.229, 306 481.527 C 309.995 480.296, 317.537 479.614, 333.557 479.035 C 353.256 478.323, 356.066 478.007, 359.850 476.076 C 362.181 474.888, 365.060 472.796, 366.250 471.428 C 370.535 466.499, 375.581 464.728, 393 462.040 C 416.802 458.366, 434.345 457.751, 499.569 458.304 C 591.931 459.087, 606.649 460.943, 615.438 472.916 C 620.193 479.394, 622.922 480.009, 646 479.808 C 667.876 479.618, 675.929 480.992, 684.768 486.420 C 692.681 491.280, 698.151 493, 705.696 493 C 711.712 493, 712.453 492.741, 716.821 489.120 C 722.959 484.029, 724.346 483.377, 734.182 480.950 C 739.758 479.574, 747.280 478.729, 757 478.388 C 764.975 478.108, 773.628 477.413, 776.230 476.844 C 780.945 475.813, 782.108 474.817, 788.774 466.100 C 792.591 461.107, 800.335 458.862, 816.500 458.059 C 832.469 457.265, 834.007 456.664, 837.106 450.007 C 841.110 441.404, 844.087 439.536, 857.149 437.423 C 868.361 435.610, 871.096 434.219, 874.344 428.676 C 877.254 423.710, 879.655 421.891, 887.218 418.923 C 896.995 415.086, 899.165 410.957, 896.976 400.352 C 895.210 391.796, 892.852 387.844, 887.853 385.062 C 882.669 382.178, 879.434 378.759, 877.399 374.014 C 875.355 369.244, 872.247 366.070, 867.500 363.901 C 862.264 361.508, 859.074 358.557, 855.464 352.768 C 852.423 347.892, 847.794 345.114, 840 343.487 C 834.387 342.315, 828.988 339.129, 823.045 333.481 C 816.107 326.887, 812.623 325.444, 799.096 323.557 C 787.047 321.877, 782.041 320.037, 771.305 313.346 C 765.964 310.017, 761.739 308.280, 755.737 306.947 C 745.671 304.710, 729.587 303, 718.606 303 C 707.208 303, 689.898 300.705, 673.450 297.012 C 639.637 289.421, 633.810 288.684, 587 286.079 C 562.564 284.720, 491.263 284.144, 442 284.909 M 882.531 445.378 C 881.224 446.686, 879.591 449.632, 878.904 451.926 C 877.354 457.101, 872.299 461.699, 867.271 462.509 C 848.034 465.606, 847.896 465.671, 842.686 474 C 838.958 479.962, 833.309 481.981, 817.641 482.956 C 801.412 483.965, 797.822 485.337, 793.970 492 C 791.992 495.423, 789.966 497.218, 785.506 499.500 L 779.643 502.500 757.571 503.026 C 732.659 503.620, 732.473 503.669, 723.360 511.970 C 719.572 515.420, 716.414 517.219, 711.360 518.805 C 699.140 522.641, 691.529 523.157, 657.500 522.458 C 614.520 521.575, 601.958 522.822, 587.500 529.404 C 583.142 531.388, 578.834 532.667, 566.659 535.593 C 556.213 538.103, 554.480 538.213, 519.159 538.607 C 498.996 538.832, 478.675 539.093, 474 539.187 C 469.325 539.281, 462.503 539.209, 458.840 539.027 C 451.463 538.661, 448.549 539.815, 435.108 548.431 C 421.086 557.419, 420.666 559.329, 420.482 615 C 420.404 638.375, 420.198 668.892, 420.024 682.815 C 419.723 706.842, 419.809 708.268, 421.708 710.815 C 425.877 716.408, 429.340 717.508, 442.500 717.416 C 449.100 717.370, 463.500 717.358, 474.500 717.388 C 562.813 717.634, 573.674 717.398, 599.500 714.664 C 620.664 712.424, 626.265 711.473, 636 708.462 C 667.046 698.861, 666.595 698.959, 684 697.960 C 714.110 696.230, 725.835 693.522, 742 684.564 C 747.682 681.415, 755.864 679.375, 768.086 678.059 C 783.856 676.362, 794.770 673.053, 802.286 667.690 C 809.884 662.268, 816.268 659.565, 825.112 658.026 C 828.625 657.415, 834.861 655.939, 838.968 654.747 C 845.283 652.914, 847.289 651.752, 851.968 647.215 C 857.354 641.991, 863.546 638, 866.264 638 C 869.479 638, 877.752 632.634, 881 628.441 C 882.925 625.956, 886.625 622.552, 889.222 620.876 C 891.818 619.199, 894.873 616.323, 896.010 614.483 C 898.054 611.177, 898.079 610.201, 898.167 529.377 L 898.256 447.616 895.378 445.313 C 891.447 442.167, 885.713 442.196, 882.531 445.378 M 105.721 447.255 L 102.942 449.500 102.935 528.500 C 102.930 571.950, 102.943 608.774, 102.963 610.332 C 102.993 612.593, 105.365 615.522, 114.750 624.883 C 124.995 635.102, 127.308 636.903, 132.807 638.945 C 137.140 640.553, 141.098 643.084, 145.447 647.025 C 151.939 652.909, 152.829 653.315, 171.500 658.928 C 178.062 660.900, 180.473 662.305, 189.275 669.289 C 193.700 672.799, 201.832 675.684, 211.219 677.073 C 222.530 678.747, 234.966 681.767, 238.913 683.798 C 240.886 684.813, 244.975 687.034, 248 688.733 C 257.308 693.961, 270.040 696.421, 296.394 698.086 C 315.795 699.311, 327.608 701.504, 343.527 706.835 C 359.175 712.075, 370.206 713.659, 380.449 712.135 C 390.582 710.628, 393.630 708.965, 395.070 704.160 C 395.931 701.286, 395.939 688.130, 395.103 651.416 C 394.490 624.512, 393.729 599.748, 393.412 596.385 C 392.974 591.737, 393.342 588.631, 394.948 583.433 C 397.545 575.024, 400.492 548.768, 399.546 542.461 C 398.568 535.938, 396.675 534.525, 386.384 532.639 C 380.926 531.639, 374.717 529.644, 370.285 527.468 C 366.317 525.520, 360.917 523.245, 358.285 522.413 C 351.705 520.333, 331.055 519.462, 323.500 520.946 C 313.166 522.976, 286.707 523.408, 276.500 521.714 C 261.029 519.146, 256.430 517.391, 251.134 512.040 C 243.311 504.134, 242.015 503.742, 221 502.933 C 196.949 502.007, 191.518 500.110, 187.265 491.147 C 185.146 486.680, 180.877 484.222, 174.066 483.545 C 152.657 481.420, 148.941 479.983, 144.699 472.189 C 141.875 466.999, 138.482 464.881, 130.129 463.094 C 124.852 461.964, 119.376 457.020, 118.038 452.176 C 116.060 445.011, 111.001 442.990, 105.721 447.255 M 397.883 483.038 C 390.405 483.930, 384.597 486.812, 384.168 489.845 C 383.204 496.654, 389.718 502.065, 401.574 504.301 C 406.575 505.244, 412.201 507.183, 416.400 509.410 C 421.011 511.857, 424.480 513, 427.293 513 C 429.562 513, 437.287 513.721, 444.460 514.602 C 454.539 515.841, 462.836 516.081, 481 515.662 C 514.012 514.899, 528.828 513.613, 534.724 510.998 C 540.711 508.343, 552.700 506, 560.303 506 C 575.849 506, 599 496.426, 599 489.997 C 599 487.973, 592.830 484.490, 587.500 483.506 C 582.440 482.571, 405.456 482.134, 397.883 483.038 M 463.500 558.593 C 459.100 560.556, 454.124 562.572, 452.443 563.074 C 447.843 564.448, 444.502 568.723, 441.951 576.500 C 438.937 585.684, 438.877 593.956, 441.777 600.352 C 444.229 605.758, 456.434 618.584, 462 621.602 C 464.958 623.206, 467.589 623.494, 479.003 623.461 C 491.451 623.425, 492.857 623.229, 497.003 620.948 C 499.778 619.421, 502.770 616.564, 504.817 613.487 C 506.642 610.744, 510.467 606.925, 513.317 605 C 522.971 598.480, 525.180 589.257, 519.452 579.374 C 516.711 574.644, 505.468 564.023, 499.369 560.402 C 494.994 557.805, 482.621 554.992, 475.662 555.012 C 473.073 555.020, 468.476 556.373, 463.500 558.593 M 466.135 583.357 C 460.831 589.002, 463.292 597.214, 470.703 598.604 C 476.034 599.604, 491.872 597.426, 494.131 595.382 C 496.503 593.235, 496.566 587.878, 494.250 585.193 C 492.113 582.715, 484.291 581, 475.125 581 C 469.300 581, 468.038 581.331, 466.135 583.357 M 468.385 637.962 C 460.951 639.105, 449.727 645.303, 446.639 649.970 C 438.692 661.977, 437.611 673.050, 443.061 686.604 C 445.593 692.900, 448.542 695.148, 458.624 698.464 C 480.390 705.625, 495.543 704.072, 507.025 693.505 C 509.513 691.215, 512.794 688.526, 514.316 687.529 C 518.744 684.627, 522.268 677.673, 522.349 671.674 C 522.441 664.991, 519.394 659.503, 513.371 655.500 C 510.889 653.850, 508.244 651.375, 507.494 650 C 505.204 645.800, 500.895 641.839, 496.593 639.978 C 491.809 637.909, 476.053 636.783, 468.385 637.962 M 467.400 662.428 C 463.825 663.984, 463 665.615, 463 671.130 C 463 676.619, 466.651 680, 472.581 680 C 480.675 680, 491.303 677.207, 493.750 674.436 C 494.988 673.035, 496 671.264, 496 670.500 C 496 669.736, 494.988 667.963, 493.750 666.559 C 492.009 664.584, 489.689 663.666, 483.500 662.503 C 473.829 660.686, 471.426 660.675, 467.400 662.428" stroke="none" fill="#444" fill-rule="evenodd"/></svg>