<svg xmlns="http://www.w3.org/2000/svg" width="800" height="800" viewBox="0 0 800 800" version="1.1"><path d="M 289.500 238.649 C 287.300 238.820, 274.250 239.656, 260.500 240.505 C 213.474 243.409, 204.050 244.817, 189.853 251.065 C 184.045 253.620, 176.408 255.906, 168.191 257.548 C 151.337 260.915, 150.022 261.394, 143.307 266.608 C 138.961 269.983, 135.079 271.849, 127.533 274.194 C 118.650 276.953, 117.017 277.837, 113.012 282.048 C 110.530 284.657, 106.439 287.962, 103.919 289.392 C 96.966 293.338, 84.311 306.523, 80.780 313.500 C 79.110 316.800, 76.252 321.161, 74.429 323.190 C 72.605 325.220, 70.841 328.370, 70.509 330.190 C 70.177 332.011, 70.039 366.575, 70.202 407 L 70.500 480.500 72.887 485 C 74.201 487.475, 76.082 490.533, 77.068 491.796 C 78.054 493.059, 80.071 497.261, 81.552 501.135 C 83.820 507.073, 84.992 508.716, 89.017 511.608 C 91.643 513.494, 95.058 516.717, 96.605 518.769 C 100.449 523.866, 101.549 524.612, 108.859 527.085 C 112.356 528.268, 118.140 531.236, 121.712 533.682 C 131.438 540.340, 132.993 540.772, 157 543.474 C 169.661 544.899, 179.403 547.001, 199.500 552.642 C 207.031 554.756, 221.862 556.812, 238.024 557.982 C 274.304 560.610, 281.111 561.207, 290.322 562.570 C 295.724 563.370, 304.274 564.883, 309.322 565.932 C 322.330 568.638, 323.186 568.754, 346.500 570.987 C 385.423 574.715, 448.156 573.270, 478.500 567.946 C 510.416 562.346, 521.901 560.857, 547.424 559.008 C 579.406 556.690, 592.514 554.947, 604.811 551.377 C 620.270 546.888, 629.177 545.106, 646.500 543.036 C 666.996 540.586, 669.496 539.936, 675.682 535.447 C 680.789 531.740, 687.398 528.403, 695.324 525.528 C 698.788 524.271, 700.980 522.611, 703.099 519.639 C 704.722 517.363, 708.388 513.684, 711.247 511.464 C 715.574 508.104, 716.962 506.178, 719.532 499.964 C 721.230 495.859, 723.840 490.663, 725.331 488.418 C 726.823 486.173, 728.500 482.798, 729.057 480.918 C 729.843 478.271, 730.725 352.844, 730.092 333.707 C 730.032 331.874, 728.496 329.297, 725.625 326.207 C 723.219 323.618, 720.117 319.250, 718.733 316.500 C 715.859 310.791, 714.124 309.049, 708.495 306.221 C 706.292 305.114, 702.581 301.946, 700.249 299.181 C 696.777 295.062, 694.534 293.550, 687.856 290.826 C 682.303 288.560, 677.840 285.839, 673.859 282.291 C 670.098 278.937, 666.498 276.695, 663.758 275.998 C 650.990 272.749, 645.124 270.461, 639.246 266.436 C 631.884 261.395, 630.274 260.884, 612.520 257.947 C 605.381 256.766, 596.606 254.679, 593.020 253.309 C 589.434 251.939, 583.800 249.790, 580.500 248.534 C 568.926 244.127, 553.015 242.501, 487 238.981 C 471.440 238.151, 299.571 237.862, 289.500 238.649 M 286.500 243.075 C 264.261 244.202, 244.360 247.225, 231.221 251.473 C 218.785 255.493, 209.114 257.353, 192.165 258.983 C 179.544 260.196, 173.594 262.084, 165.541 267.429 C 161.760 269.939, 156.771 271.918, 149.254 273.890 C 136.620 277.205, 133.271 278.761, 130.397 282.653 C 129.170 284.315, 124.368 287.457, 118.863 290.201 C 110.032 294.604, 108.627 295.760, 96.774 308.384 C 79.694 326.574, 79.322 328.578, 90.650 341.413 C 96.104 347.592, 98.202 349.235, 102.395 350.612 C 109.378 352.905, 111.098 354.259, 114.015 359.759 C 116.399 364.254, 116.840 364.567, 122.515 365.788 C 134.914 368.455, 138.845 369.990, 141.204 373.083 C 142.467 374.738, 144.680 377.511, 146.121 379.244 L 148.743 382.396 162.121 383.040 C 169.480 383.394, 179.775 384.454, 185 385.396 C 190.225 386.338, 196.003 387.337, 197.840 387.616 C 199.839 387.920, 202.874 389.686, 205.400 392.015 C 207.722 394.155, 210.861 396.377, 212.376 396.953 C 213.999 397.570, 224.649 398.011, 238.315 398.026 C 265.565 398.057, 321.067 400.421, 332.459 402.036 C 341.219 403.278, 345.388 404.988, 347 408 C 348.450 410.709, 352.956 412.875, 359.755 414.132 C 366.883 415.449, 370.028 417.056, 373.459 421.133 C 374.942 422.896, 378.087 425.813, 380.448 427.616 C 384.799 430.938, 387.226 435.357, 388.536 442.342 C 389.564 447.818, 393.251 450.338, 398.985 449.483 C 405.524 448.508, 409.867 446.435, 410.888 443.802 C 414.669 434.055, 416.090 431.865, 423.504 424.350 C 431.917 415.823, 431.919 415.822, 445.299 413.040 C 449.554 412.156, 451.974 410.959, 454.384 408.549 C 458.354 404.579, 461.483 403.493, 474.541 401.553 C 488.650 399.456, 500.520 398.917, 549.129 398.162 L 591.758 397.500 597.399 393.614 C 606.022 387.675, 619.936 384.031, 637.500 383.115 C 645.200 382.713, 652.327 381.920, 653.338 381.353 C 654.349 380.786, 656.149 378.587, 657.339 376.467 C 660.115 371.518, 664.017 369.293, 673.148 367.454 C 683.468 365.375, 684.810 364.610, 686.970 359.571 C 689.078 354.652, 691.410 352.785, 697.772 350.921 C 702.273 349.603, 703.077 348.925, 710.996 339.764 C 719.007 330.498, 718.893 326.825, 710.425 321.409 C 707.457 319.511, 704.390 316.729, 703.610 315.229 C 701.689 311.538, 698.387 308.665, 693 305.999 C 690.525 304.774, 686.584 301.609, 684.242 298.965 C 680.582 294.834, 678.827 293.781, 671.742 291.466 C 662.574 288.470, 656.506 285.321, 653.501 282.001 C 650.262 278.422, 646.585 277.024, 632.412 273.981 C 621.732 271.688, 617.306 270.191, 610.745 266.650 C 601.321 261.565, 593.408 259.541, 576.980 258.014 C 565.493 256.946, 552.391 254.204, 536.150 249.468 C 515.943 243.577, 480.856 241.949, 378.597 242.158 C 336.194 242.244, 294.750 242.657, 286.500 243.075 M 85.073 369.635 C 83.933 371.084, 82.964 373.222, 82.921 374.385 C 82.439 387.239, 83.355 484.641, 83.984 487.428 C 84.549 489.933, 86.753 493.158, 90.747 497.322 C 94.006 500.720, 97.206 504.503, 97.860 505.729 C 98.513 506.955, 101.735 509.783, 105.019 512.013 C 108.303 514.243, 111.965 517.386, 113.155 518.996 C 116.201 523.116, 119.853 524.547, 133 526.772 C 141.156 528.153, 147.404 529.958, 154.486 532.982 C 166.686 538.189, 172.514 539.218, 205 541.900 C 239.013 544.708, 244.696 545.564, 255.635 549.524 C 260.757 551.378, 267.772 553.179, 271.224 553.526 C 274.676 553.874, 282.450 554.783, 288.500 555.547 C 303.279 557.414, 334.200 559.095, 357.825 559.318 L 377.151 559.500 379.712 556.535 C 382.171 553.689, 382.249 553.210, 381.670 544.535 C 381.338 539.566, 380.061 530.325, 378.832 524 C 376.958 514.353, 376.581 508.874, 376.488 490 C 376.371 465.936, 376.013 463.653, 370.926 454.500 C 369.398 451.750, 367.465 446.849, 366.632 443.608 C 365.798 440.367, 364.718 437.318, 364.232 436.832 C 363.747 436.347, 359.219 434.844, 354.170 433.493 C 344.264 430.842, 338.937 428.474, 335 424.971 C 333.625 423.747, 331.150 422.181, 329.500 421.491 C 325.145 419.668, 299.745 418.622, 266.393 418.891 C 245.324 419.062, 233.036 418.685, 221.893 417.528 C 200.521 415.308, 197.887 414.599, 192.246 409.553 C 184.922 403.001, 184.117 402.766, 166.533 402.059 C 148.365 401.328, 143.368 399.794, 138.540 393.463 C 135.090 388.941, 133.452 388.162, 123.825 386.469 C 114.613 384.850, 112.022 383.462, 108.209 378.107 C 104.967 373.553, 94.306 367, 90.140 367 C 88.096 367, 86.487 367.836, 85.073 369.635 M 701.703 370.587 C 696.415 373.300, 694.306 375.067, 692.209 378.539 C 688.938 383.955, 685.447 385.739, 675.704 386.974 C 666.432 388.150, 664.076 389.217, 661.262 393.517 C 660.030 395.398, 657.629 397.658, 655.925 398.539 C 652.454 400.334, 639.346 401.952, 628 401.988 C 618.079 402.019, 614.117 403.246, 609.956 407.578 C 605.474 412.244, 600.863 414.562, 593.475 415.863 C 590.189 416.443, 586.150 417.183, 584.500 417.508 C 582.850 417.834, 556.928 418.477, 526.895 418.937 C 491.622 419.478, 471.583 420.153, 470.291 420.844 C 469.192 421.433, 466.356 423.532, 463.989 425.509 C 458.871 429.785, 455.035 431.510, 445.012 434.040 C 440.893 435.080, 436.967 436.692, 436.287 437.622 C 435.607 438.551, 434.335 441.777, 433.459 444.790 C 432.583 447.802, 430.547 452.606, 428.933 455.464 C 426.706 459.411, 425.994 461.965, 425.976 466.081 C 425.962 469.061, 425.498 473.465, 424.944 475.867 C 424.390 478.269, 423.533 486.594, 423.038 494.367 C 422.543 502.140, 421.899 509.175, 421.607 510 C 420.857 512.114, 418 543.693, 418 549.858 C 418 554.072, 418.503 555.532, 420.869 558.179 L 423.738 561.390 438.119 560.182 C 446.028 559.517, 455.875 558.982, 460 558.994 C 468.396 559.017, 503.821 556.526, 517.238 554.970 C 522.044 554.412, 530.998 552.382, 537.135 550.458 C 549.384 546.617, 560.233 544.512, 572.500 543.596 C 626.004 539.599, 629.144 539.154, 643.344 533.552 C 649.954 530.944, 659.113 528.284, 665.819 527.024 C 680.382 524.289, 681.361 523.878, 688.080 517.690 C 691.180 514.836, 695.232 511.598, 697.084 510.495 C 698.936 509.393, 702.103 505.994, 704.123 502.943 C 706.142 499.891, 709.396 496.172, 711.355 494.678 C 713.441 493.088, 715.418 490.416, 716.126 488.231 C 717.441 484.174, 718.710 380.597, 717.522 374.264 C 716.749 370.148, 713.779 366.983, 710.750 367.049 C 709.513 367.076, 705.441 368.668, 701.703 370.587" stroke="none" fill="#444" fill-rule="evenodd"/></svg>