<svg xmlns="http://www.w3.org/2000/svg" width="50" height="50" viewBox="0 0 50 50" version="1.1">
	<path d="M 45.079 20.583 C 45.127 21.748, 45.364 21.985, 45.683 21.188 C 45.972 20.466, 45.936 19.603, 45.604 19.271 C 45.272 18.939, 45.036 19.529, 45.079 20.583 M 4.667 21.667 C 3.208 23.126, 4.002 30.756, 5.750 32.079 C 7.239 33.206, 7.313 33.194, 6.250 32.002 C 4.620 30.174, 4.533 21.593, 6.155 22.595 C 6.870 23.038, 7.038 22.870, 6.595 22.155 C 5.768 20.815, 5.569 20.765, 4.667 21.667 M 45.252 26.500 C 45.263 28.700, 45.468 29.482, 45.707 28.238 C 45.946 26.994, 45.937 25.194, 45.687 24.238 C 45.437 23.282, 45.241 24.300, 45.252 26.500 M 17.700 25.649 C 19.554 26.051, 19.962 26.942, 20.295 31.313 L 20.691 36.500 20.595 31 C 20.506 25.872, 20.331 25.489, 18 25.336 C 15.895 25.198, 15.848 25.248, 17.700 25.649 M 29.250 25.689 C 30.212 25.941, 31.788 25.941, 32.750 25.689 C 33.712 25.438, 32.925 25.232, 31 25.232 C 29.075 25.232, 28.288 25.438, 29.250 25.689" stroke="none" fill="#555555" fill-rule="evenodd"/>
</svg>