<svg xmlns="http://www.w3.org/2000/svg" width="800" height="800" viewBox="0 0 800 800" version="1.1"><path d="M 343.500 190.625 C 338.332 190.975, 300.733 193.222, 269.887 195.023 C 247.042 196.358, 237.744 197.929, 223.310 202.893 C 216.488 205.240, 206.204 207.818, 198.994 208.989 C 172.009 213.373, 169.929 213.850, 165.344 216.694 C 162.856 218.237, 159.173 220.499, 157.160 221.719 C 155.147 222.940, 149.474 224.887, 144.554 226.045 C 133.894 228.555, 131.551 229.681, 125.125 235.389 C 122.038 238.130, 117.506 240.767, 112.864 242.522 C 107.190 244.667, 104.274 246.540, 100.155 250.684 C 97.215 253.643, 92.643 257.161, 89.995 258.503 C 86.297 260.377, 84.341 262.324, 81.564 266.895 C 79.575 270.169, 76.362 274.120, 74.425 275.674 C 72.122 277.521, 70.659 279.712, 70.201 282 C 69.815 283.925, 69.754 320.150, 70.064 362.500 C 70.669 445.077, 70.406 441.105, 76.136 454.259 C 77.755 457.976, 80.400 466.207, 82.013 472.550 C 85.189 485.042, 87.530 490.882, 89.692 491.712 C 91.723 492.491, 96.364 499.776, 98.477 505.500 C 100.813 511.826, 102.356 514.292, 107.866 520.500 C 110.306 523.250, 113.627 528.480, 115.244 532.123 C 117.488 537.174, 119.222 539.476, 122.554 541.825 C 125.517 543.914, 127.883 546.806, 129.905 550.812 C 131.793 554.553, 134.756 558.284, 137.983 560.986 C 140.786 563.333, 143.788 566.623, 144.654 568.299 C 145.521 569.974, 149.215 574.341, 152.865 578.004 C 156.514 581.666, 163.943 589.244, 169.374 594.844 C 174.805 600.443, 180.399 605.313, 181.805 605.666 C 185.393 606.567, 188.943 604.282, 192.588 598.725 C 194.287 596.135, 197.527 592.676, 199.789 591.038 C 202.050 589.400, 205.421 585.684, 207.280 582.780 C 209.257 579.691, 212.550 576.306, 215.218 574.621 C 217.876 572.942, 220.719 570.025, 222.037 567.621 C 225.135 561.973, 226.897 560.095, 231.125 557.937 C 233.119 556.919, 236.404 553.785, 238.425 550.972 C 244.942 541.900, 251.534 541.273, 263.944 548.546 C 277.491 556.486, 281.090 557.009, 328.500 557.915 L 365.500 558.622 372.312 561.934 C 377.586 564.499, 379.957 565.127, 382.812 564.715 C 384.840 564.423, 391.225 563.488, 397 562.636 C 407.860 561.035, 418.008 560.141, 455.488 557.480 C 478.294 555.861, 488.869 554.205, 497.090 550.965 C 505.806 547.529, 517.245 545.164, 535.500 543.023 C 545.400 541.862, 556.175 540.032, 559.444 538.956 C 567.685 536.244, 569.192 536.422, 578.846 541.250 C 585.608 544.631, 587.973 546.420, 590.417 550 C 592.106 552.475, 596.416 557.473, 599.994 561.107 C 603.572 564.741, 611 572.808, 616.500 579.035 C 634.505 599.418, 638.104 602.951, 642.078 604.141 C 648.209 605.978, 650.459 604.767, 654.898 597.241 C 657.209 593.323, 660.401 589.480, 662.519 588.065 C 665.078 586.355, 667.318 583.334, 670.039 577.922 C 672.171 573.682, 676.173 567.633, 678.934 564.478 C 683.151 559.659, 688 550.336, 688 547.048 C 688 546.565, 690.456 542.928, 693.458 538.966 C 696.860 534.476, 699.648 529.452, 700.859 525.631 C 701.927 522.259, 703.565 517.032, 704.498 514.016 C 705.431 510.999, 708.382 505.426, 711.055 501.631 C 714.230 497.125, 716.284 492.956, 716.974 489.615 C 717.555 486.802, 718.869 480.225, 719.894 475 C 720.919 469.775, 723.595 461.209, 725.841 455.965 C 733.297 438.561, 733.406 437.124, 733.456 356 C 733.505 276.954, 733.651 278.903, 727.129 271.659 C 725.070 269.372, 721.275 264.066, 718.696 259.869 C 713.301 251.090, 708.890 246.786, 699.893 241.524 C 696.377 239.467, 691.410 235.835, 688.855 233.451 C 685.528 230.346, 682.550 228.654, 678.355 227.485 C 666.268 224.114, 662.846 222.738, 658.236 219.395 C 650.822 214.019, 648.052 213.123, 630.504 210.427 C 614.647 207.990, 607.422 206.022, 594.421 200.596 C 586.767 197.401, 574.197 195.435, 552.500 194.038 C 543.150 193.437, 531 192.459, 525.500 191.866 C 516.294 190.873, 355.972 189.780, 343.500 190.625 M 353 194.022 C 319.646 195.024, 291.164 196.649, 282 198.072 C 278.425 198.627, 270.848 200.406, 265.162 202.025 C 251.108 206.027, 241.901 207.615, 219 209.986 C 193.823 212.593, 190.557 213.375, 180.760 219.141 C 176.269 221.785, 170.323 224.418, 167.547 224.992 C 164.771 225.567, 159.159 226.696, 155.076 227.501 C 147.873 228.921, 145.614 230.082, 136.637 236.980 C 134.513 238.612, 129.014 241.095, 124.418 242.497 C 117.153 244.713, 115.585 245.616, 112.411 249.413 C 110.335 251.896, 105.467 255.659, 101.130 258.133 C 89.048 265.026, 82 273.350, 82 280.727 C 82 284.103, 84.567 286.804, 90.699 289.881 C 93.008 291.040, 95.708 293.149, 96.699 294.567 C 101.496 301.433, 102.242 301.894, 111.912 303.966 C 122.907 306.321, 125.446 307.738, 127.505 312.667 C 129.540 317.536, 131.338 318.679, 139.026 319.991 C 147.995 321.522, 153.039 324.518, 155.399 329.717 C 156.443 332.018, 158.018 334.186, 158.899 334.536 C 159.780 334.886, 165.155 335.792, 170.844 336.549 C 182.933 338.158, 186.420 339.879, 190.003 346.004 C 192.919 350.990, 193.022 351.031, 208.705 353.436 C 222.085 355.487, 229.052 355.409, 239.171 353.096 C 243.752 352.049, 252.803 350.921, 259.283 350.590 C 275.347 349.769, 289.745 347.619, 300.500 344.438 C 305.450 342.973, 311.750 341.155, 314.500 340.398 C 329.981 336.136, 364.403 334.002, 417.500 334.012 C 469.323 334.021, 498.797 336.166, 509.500 340.706 C 521.999 346.008, 528.878 347.923, 541 349.474 C 564.921 352.535, 574.062 356.325, 581.785 366.385 C 587.673 374.054, 581.851 381.134, 567 384.367 C 565.625 384.666, 556.528 385.609, 546.785 386.462 C 526.669 388.223, 518.141 389.791, 506 393.962 C 501.325 395.567, 493.450 397.617, 488.500 398.516 C 473.605 401.221, 471.133 402.053, 468.420 405.277 C 464.442 410.005, 465.401 412.782, 471.752 414.923 C 478.299 417.131, 480.322 418.937, 482.432 424.460 C 483.802 428.048, 484.842 429.118, 488.299 430.495 C 493.981 432.757, 495.833 434.597, 498.512 440.638 C 500.347 444.775, 501.465 445.998, 504.248 446.917 C 508.521 448.327, 511.397 451.383, 512.914 456.129 C 514.265 460.351, 516.151 462.244, 521 464.246 C 525.416 466.068, 527.097 468.071, 529.083 473.875 C 530.205 477.156, 531.513 478.911, 533.583 479.912 C 535.187 480.689, 537.625 481.879, 539 482.557 C 540.416 483.255, 542.801 486.328, 544.500 489.645 C 546.877 494.284, 548.434 495.985, 552 497.837 C 557.238 500.557, 557.982 501.593, 560.008 508.992 C 561.366 513.950, 561.980 514.751, 566.166 517.012 C 572.241 520.293, 574.457 522.359, 579.030 529 C 581.113 532.025, 585.297 536.808, 588.327 539.629 C 591.357 542.450, 594.776 546.600, 595.925 548.852 C 597.146 551.247, 600.294 554.631, 603.505 557.004 C 607.129 559.681, 609.835 562.715, 611.460 565.921 C 613.233 569.419, 615.325 571.644, 618.930 573.862 C 622.506 576.062, 624.630 578.309, 626.361 581.722 C 629.409 587.734, 631.197 589.330, 637.787 591.921 C 647.259 595.646, 650.312 594.678, 655.709 586.240 C 657.691 583.142, 661.623 578.333, 664.446 575.554 C 667.866 572.187, 670.004 569.056, 670.853 566.172 C 671.644 563.485, 674.137 559.658, 677.430 556.076 C 681.750 551.377, 683.247 548.749, 685.503 541.904 C 688.983 531.345, 690.268 528.816, 694.572 524.052 C 698.185 520.053, 700.509 514.360, 703.423 502.373 C 704.652 497.315, 706.583 493.140, 710.075 487.988 C 715.992 479.260, 716.392 477.878, 719.541 455.303 C 720.902 445.551, 723.400 430.812, 725.092 422.550 L 728.170 407.527 727.783 367.014 C 727.517 339.033, 727.034 325.649, 726.223 323.750 C 725.094 321.105, 724.769 321, 717.674 321 C 707.202 321, 704.435 322.208, 701.462 328.076 C 700.109 330.745, 698.086 333.419, 696.966 334.018 C 695.397 334.858, 676.968 337.872, 672.740 337.980 C 672.322 337.991, 670.972 340.137, 669.740 342.750 C 666.413 349.805, 661.535 351.911, 646.321 352.862 C 639.792 353.270, 633.934 353.923, 633.302 354.313 C 632.671 354.704, 631.861 356.356, 631.503 357.984 C 629.950 365.057, 621.244 368.584, 607.809 367.584 C 594.499 366.593, 590.562 364.556, 593.033 359.938 C 595.298 355.705, 605.535 353.010, 619.434 352.986 C 630.576 352.967, 631.763 352.522, 633.167 347.837 C 635.436 340.262, 643.565 336.009, 655.799 335.994 C 658.385 335.991, 662.128 335.537, 664.118 334.984 C 667.158 334.139, 668.016 333.248, 669.483 329.405 C 671.629 323.786, 674.957 321.601, 683.864 319.964 C 693.536 318.186, 696.558 316.660, 699.436 312.102 C 702.557 307.157, 704.823 305.638, 712.249 303.507 C 719.497 301.429, 720.588 300.300, 722.019 293.406 C 723.526 286.151, 722.895 280.247, 719.624 271 C 717.007 263.601, 715.884 262.166, 707.972 256.112 C 706.256 254.799, 703.746 251.974, 702.396 249.835 C 700.040 246.104, 696.975 244.187, 688.074 240.884 C 686.190 240.184, 681.954 237.449, 678.659 234.805 C 672.633 229.969, 670.270 229.009, 654.259 224.901 C 649.434 223.662, 643.336 221.168, 639.545 218.881 C 631.909 214.276, 625.889 212.625, 609 210.503 C 589.839 208.096, 585.477 207.195, 572.179 202.903 C 557.137 198.048, 545.801 196.279, 521.305 194.964 C 495.499 193.579, 387.803 192.976, 353 194.022 M 85.329 306.458 C 83.585 307.216, 81.650 308.785, 81.031 309.942 C 80.233 311.433, 79.925 327.720, 79.974 365.774 C 80.046 421.071, 81.034 448.419, 83.475 462.679 C 85.039 471.819, 86.553 475.334, 90.504 479 C 93.705 481.971, 97.331 488.801, 99.003 495.011 C 100.855 501.890, 103.513 506.391, 107.532 509.457 C 109.957 511.306, 112.197 514.482, 114.155 518.844 C 115.910 522.758, 119.251 527.685, 122.375 530.969 C 125.270 534.011, 129.484 539.650, 131.741 543.500 C 133.997 547.350, 137.941 552.525, 140.506 555 C 143.070 557.475, 146.251 561.613, 147.573 564.195 C 148.896 566.777, 151.136 569.702, 152.551 570.695 C 158.817 575.090, 161.117 577.444, 163.599 582.005 C 165.786 586.023, 167.623 587.673, 174.102 591.438 C 178.421 593.947, 182.799 596, 183.832 596 C 185.675 596, 190.917 590.858, 217.477 563 C 224.556 555.575, 231.392 548.471, 232.669 547.214 C 233.945 545.957, 236.723 542.582, 238.843 539.713 C 243.731 533.096, 244.977 532.091, 250.209 530.546 C 254.200 529.368, 254.530 528.996, 255.227 524.892 C 256.569 516.995, 257.950 514.912, 263.466 512.472 C 269.313 509.887, 270.292 508.891, 271.899 503.897 C 273.283 499.596, 276.167 496.741, 281.238 494.652 C 284.269 493.403, 285.439 492.065, 287.425 487.573 C 289.598 482.659, 290.494 481.740, 295.353 479.440 C 300.296 477.099, 301.050 476.305, 303.084 471.293 C 305.152 466.198, 305.797 465.538, 310.919 463.273 C 317.108 460.537, 317.568 460.060, 318.996 454.909 C 320.156 450.723, 322.588 448.277, 328.350 445.500 C 331.430 444.015, 333.049 442.340, 334.630 439 C 337.193 433.586, 339.282 431.644, 344.267 430.043 C 346.844 429.216, 348.540 427.832, 349.632 425.667 C 352.223 420.527, 356.008 417.158, 361.085 415.472 C 367.694 413.277, 368.871 411.644, 366.315 408.220 C 363.447 404.379, 358.269 403.234, 338.423 402.051 C 317.310 400.793, 308.374 399.057, 297.087 394.019 C 287.485 389.734, 282.458 388.584, 266.500 387.021 C 253.857 385.784, 241.343 383.459, 236.557 381.459 C 234.739 380.700, 231.343 377.799, 229.011 375.013 C 226.678 372.226, 223.809 369.414, 222.635 368.764 C 221.336 368.043, 215.785 367.564, 208.456 367.540 C 194.635 367.494, 192.373 366.612, 188.972 359.945 C 186.564 355.226, 184.793 354.413, 173.966 353.055 C 162.343 351.598, 157.593 349.239, 154.948 343.612 C 152.525 338.459, 152.492 338.443, 141.086 337.046 C 131.606 335.884, 129.017 334.572, 125.633 329.210 C 122.280 323.900, 121.433 323.409, 112.500 321.595 C 102.768 319.620, 100.043 317.747, 97.681 311.412 C 96.680 308.728, 95.330 306.195, 94.681 305.782 C 92.877 304.635, 88.851 304.926, 85.329 306.458 M 384 338.016 C 368.529 339.192, 358.975 340.610, 343.500 344.027 C 330.027 347.002, 324.564 347.684, 287.281 351.040 C 275.060 352.140, 262.765 353.476, 259.957 354.008 C 248.830 356.118, 245.169 359.973, 246.413 368.269 C 248.248 380.507, 254.380 383.261, 286.978 386.486 C 306.575 388.425, 316.803 390.220, 330 394.035 C 346.498 398.805, 356.445 400.088, 381.748 400.711 C 415.844 401.550, 437.164 399.943, 464.500 394.471 C 492.444 388.878, 495.617 388.406, 518 386.517 C 553.157 383.550, 557.014 382.604, 559.645 376.307 C 562.118 370.388, 559.410 359.625, 554.666 356.517 C 550.989 354.107, 535.749 351.258, 517 349.475 C 498.368 347.703, 499.828 347.963, 483 343.427 C 476.125 341.574, 466 339.576, 460.500 338.988 C 447.057 337.549, 398.299 336.930, 384 338.016 M 427.909 405.896 C 424.834 406.880, 420.220 409.129, 417.655 410.893 C 414.694 412.930, 410.823 414.483, 407.047 415.149 L 401.101 416.196 399.987 421.563 C 398.876 426.914, 394.757 432, 391.534 432 C 390.812 432, 389.242 432.793, 388.046 433.762 C 386.367 435.122, 385.314 438.261, 383.435 447.512 C 382.096 454.105, 381 459.753, 381 460.061 C 381 460.370, 380.082 461.608, 378.961 462.811 C 376.283 465.686, 372.497 465.587, 369.474 462.565 C 367.103 460.194, 367.056 459.843, 367.664 449.210 C 368.252 438.937, 368.162 438.162, 366.145 436.145 C 361.939 431.939, 354.805 434.227, 353.618 440.162 C 352.637 445.065, 350.464 447.695, 346.285 449.037 C 341.204 450.669, 339.203 452.590, 337.838 457.147 C 336.508 461.586, 334.406 463.726, 328.650 466.500 C 325.308 468.111, 323.962 469.631, 321.737 474.312 C 319.299 479.443, 318.370 480.391, 313.817 482.401 C 309.346 484.374, 308.315 485.398, 306.080 490.088 C 303.943 494.571, 302.595 495.985, 298.229 498.325 C 294.144 500.514, 292.418 502.215, 290.557 505.888 C 287.819 511.291, 286.369 512.698, 280.651 515.500 C 277.921 516.837, 275.895 518.814, 274.534 521.466 C 272.079 526.251, 267.529 529.500, 262.055 530.375 C 258.397 530.960, 258 531.307, 258 533.923 C 258 537.465, 262.405 541.508, 267.795 542.913 C 310.666 554.089, 339.772 557.465, 351.397 552.608 C 353.183 551.861, 356.247 549.844, 358.205 548.125 C 360.162 546.406, 362.425 545, 363.232 545 C 364.039 545, 368.893 547.528, 374.019 550.618 C 387.759 558.901, 390.251 559.562, 402.438 558.152 C 407.972 557.512, 415.425 556.983, 419 556.976 C 428.723 556.957, 443.950 554.533, 459.039 550.601 C 476.941 545.936, 486.031 544.421, 507.500 542.522 C 526.674 540.827, 542.164 538.649, 546.343 537.060 C 550.550 535.460, 552.310 531.747, 551.796 525.552 C 551.277 519.299, 548.394 515.158, 536.555 503.658 C 532.680 499.895, 528.158 494.290, 526.505 491.204 C 524.085 486.684, 522.527 485.096, 518.500 483.046 C 514.308 480.912, 513.049 479.570, 510.712 474.748 C 508.372 469.920, 507.120 468.588, 502.930 466.464 C 499.195 464.572, 497.540 462.997, 496.366 460.217 C 493.192 452.703, 492.440 451.648, 489.500 450.585 C 483.832 448.535, 482.170 447.013, 480.418 442.261 C 478.187 436.214, 476.521 434.273, 472.872 433.472 C 467.824 432.363, 464.274 428.505, 463.049 422.795 C 461.775 416.854, 460.535 415, 457.835 415 C 456.778 415, 453.796 413.038, 451.207 410.640 C 448.618 408.242, 445.517 405.767, 444.316 405.140 C 441.191 403.509, 434.390 403.823, 427.909 405.896 M 388.521 408.621 C 386.268 410.875, 386.986 413.163, 390.293 414.265 C 396.430 416.310, 400.421 412.501, 396.171 408.655 C 393.847 406.552, 390.605 406.538, 388.521 408.621 M 375.200 420.200 C 372.348 423.052, 375.121 428.583, 378.750 427.282 C 381.220 426.396, 379.657 419, 377 419 C 376.670 419, 375.860 419.540, 375.200 420.200 M 410 466.922 C 408.075 467.303, 403.295 469.302, 399.378 471.364 C 391.440 475.543, 389.036 478.947, 387.062 488.799 C 384.411 502.029, 386.904 511.496, 392.858 510.806 C 395.268 510.527, 395.529 510.060, 395.835 505.500 C 396.020 502.750, 395.401 497.087, 394.460 492.916 C 392.840 485.736, 392.841 485.137, 394.485 481.673 C 397.017 476.336, 401.207 475.311, 413.758 476.955 C 419.116 477.657, 424.579 478.067, 425.898 477.865 C 429.033 477.388, 430.461 474.974, 429.612 471.589 C 428.423 466.852, 420.221 464.901, 410 466.922 M 436.013 484.485 C 434.612 486.173, 433.403 501.487, 434.368 505.329 C 435.660 510.477, 442.932 509.504, 444.877 503.922 C 446.455 499.397, 446.274 490.430, 444.537 487.072 C 442.401 482.941, 438.322 481.703, 436.013 484.485 M 361.087 485.395 C 358.847 488.095, 356.748 503.092, 357.221 513.024 C 357.830 525.823, 361.111 532.398, 364.101 526.811 C 365.959 523.340, 366.682 489.642, 364.967 486.439 C 363.470 483.641, 362.712 483.437, 361.087 485.395 M 408.892 514.984 C 405.808 515.381, 402.771 516.024, 402.142 516.412 C 399.141 518.267, 402.743 524.395, 407.542 525.600 C 408.910 525.943, 413.139 526.048, 416.941 525.833 C 424.857 525.386, 428 523.410, 428 518.880 C 428 514.093, 423.284 513.132, 408.892 514.984" stroke="none" fill="#444" fill-rule="evenodd"/></svg>