<svg xmlns="http://www.w3.org/2000/svg" width="50" height="50" viewBox="0 0 50 50" version="1.1">
	<path d="M 4.412 15.369 C 4.123 16.122, 4.032 19.160, 4.210 22.119 L 4.533 27.500 5.017 20.748 C 5.503 13.952, 5.379 12.848, 4.412 15.369 M 45.079 20.583 C 45.127 21.748, 45.364 21.985, 45.683 21.188 C 45.972 20.466, 45.936 19.603, 45.604 19.271 C 45.272 18.939, 45.036 19.529, 45.079 20.583 M 24.500 24 C 24.840 24.550, 25.316 25, 25.559 25 C 25.802 25, 26 24.550, 26 24 C 26 23.450, 25.523 23, 24.941 23 C 24.359 23, 24.160 23.450, 24.500 24 M 29 32 C 30.122 34.200, 31.266 36, 31.541 36 C 31.816 36, 31.122 34.200, 30 32 C 28.878 29.800, 27.734 28, 27.459 28 C 27.184 28, 27.878 29.800, 29 32 M 19 33 C 17.878 35.200, 17.184 37, 17.459 37 C 17.734 37, 18.878 35.200, 20 33 C 21.122 30.800, 21.816 29, 21.541 29 C 21.266 29, 20.122 30.800, 19 33" stroke="none" fill="#555555" fill-rule="evenodd"/>
</svg>