<svg xmlns="http://www.w3.org/2000/svg" width="800" height="800" viewBox="0 0 800 800" version="1.1"><path d="M 344 223.554 C 342.075 223.732, 324.750 224.372, 305.500 224.976 C 246.129 226.838, 228.427 228.730, 212.624 234.904 C 203.255 238.564, 199.176 239.591, 182.643 242.453 C 173.671 244.006, 167.149 245.712, 164.143 247.292 C 149.127 255.185, 144.788 257.148, 138.258 258.999 C 132.366 260.670, 129.895 262.053, 124.996 266.425 C 121.150 269.856, 116.540 272.771, 112.237 274.490 C 104.399 277.623, 103.625 278.180, 99.793 283.455 C 98.213 285.630, 94.576 289.017, 91.710 290.980 C 87.550 293.831, 85.776 295.986, 82.908 301.675 C 80.933 305.595, 77.688 311.019, 75.698 313.730 C 73.708 316.441, 71.585 319.963, 70.979 321.556 C 70.208 323.583, 69.883 349.122, 69.896 406.477 C 69.906 451.590, 69.934 489.011, 69.957 489.636 C 69.981 490.261, 71.594 492.321, 73.543 494.213 C 75.492 496.106, 78.531 499.870, 80.297 502.577 C 82.635 506.161, 85.101 508.346, 89.365 510.612 C 92.586 512.324, 97.359 515.954, 99.972 518.679 C 103.909 522.785, 105.990 524.030, 112.112 525.945 C 121.524 528.889, 123.811 530.076, 129.425 534.935 C 134.037 538.927, 136.767 540.001, 152.687 544.085 C 157.632 545.354, 163.770 547.897, 168.187 550.509 C 176.705 555.546, 179.054 556.240, 196.620 558.917 C 205.039 560.199, 215.252 562.688, 225.120 565.863 C 243.855 571.889, 254.272 573.568, 281.500 574.951 C 293.050 575.538, 311.500 576.576, 322.500 577.259 C 353.669 579.193, 457.113 578.888, 483.500 576.785 C 495.050 575.864, 509 574.822, 514.500 574.469 C 529.649 573.497, 545.533 570.495, 556.470 566.536 C 566.967 562.736, 581.089 559.593, 592.500 558.516 C 604.070 557.425, 611.972 555.192, 622.500 550.038 C 629.947 546.393, 635.275 544.592, 643.372 542.984 C 656.908 540.296, 661.551 538.682, 666 535.115 C 670.961 531.137, 674.472 529.482, 685.298 526.014 C 693.518 523.381, 695.497 522.289, 699.784 518.025 C 702.547 515.276, 707.253 511.978, 710.395 510.589 C 714.417 508.810, 716.537 507.154, 717.770 504.828 C 718.722 503.033, 722.111 498.787, 725.302 495.393 L 731.104 489.222 731.130 407.192 C 731.158 319.159, 731.441 323.984, 725.844 316.842 C 724.268 314.830, 720.918 309.312, 718.400 304.579 C 714.947 298.087, 712.761 295.244, 709.499 293 C 707.122 291.364, 703.027 287.510, 700.401 284.436 C 697.169 280.653, 693.189 277.509, 688.086 274.708 C 683.940 272.433, 678.237 268.478, 675.413 265.921 C 670.452 261.428, 665.905 259.180, 657.500 257.063 C 655.300 256.509, 651.025 254.478, 648 252.551 C 638.556 246.533, 632.776 244.192, 624.500 243.030 C 611.051 241.143, 601.370 238.999, 592.232 235.886 C 573.436 229.482, 557.733 227.598, 504.739 225.388 C 471.397 223.998, 353.711 222.655, 344 223.554 M 330.500 228.111 C 290.579 229.204, 282.931 230.106, 251.500 237.429 C 245.450 238.838, 233.300 240.658, 224.500 241.473 C 208.045 242.997, 193.036 245.275, 188.770 246.897 C 187.439 247.403, 183.537 249.635, 180.099 251.857 C 175.690 254.707, 171.588 256.378, 166.175 257.529 C 151.866 260.571, 148.610 261.830, 142 266.881 C 138.284 269.721, 132.862 272.729, 129.341 273.904 C 119.764 277.101, 118.118 278.074, 114.919 282.432 C 113.276 284.669, 109.585 287.877, 106.716 289.561 C 103.311 291.559, 100.111 294.611, 97.500 298.351 C 95.300 301.502, 91.771 305.231, 89.658 306.639 C 84.834 309.851, 83 314.175, 83 322.333 C 83 329.710, 84.648 332.550, 90.999 336.120 C 93.835 337.714, 95.611 339.785, 97.424 343.613 C 99.662 348.341, 100.384 349.019, 104.214 349.987 C 114.271 352.529, 116.990 354.072, 121.017 359.523 C 125.340 365.375, 125.261 365.335, 136 367.047 C 145.933 368.630, 150.312 370.969, 153.488 376.390 C 154.943 378.872, 157.316 381.302, 158.943 381.976 C 160.526 382.632, 168.950 383.502, 177.661 383.910 C 196.510 384.791, 201.293 386.335, 205.419 392.871 C 210.647 401.154, 216.098 401, 233.293 392.088 C 244.057 386.508, 245.872 385.893, 254.117 385.040 C 259.084 384.527, 268.426 384.371, 274.877 384.696 C 288.965 385.404, 292.462 384.498, 296.889 378.988 C 300.238 374.821, 302.887 373.720, 317.520 370.415 C 326.512 368.385, 401.055 366.916, 434.500 368.111 C 472.537 369.470, 482.171 371.462, 489.548 379.497 C 494.239 384.607, 492.865 384.330, 514.500 384.527 C 532.922 384.695, 538.277 385.717, 546.227 390.587 C 553.921 395.299, 566.684 398.870, 570.971 397.509 C 572.007 397.180, 573.758 395.380, 574.862 393.509 C 578.891 386.680, 589.131 383.744, 609.620 383.540 C 625.604 383.382, 627.189 382.830, 631.570 375.889 C 635.258 370.046, 640.675 367.943, 654.409 367.022 C 660.509 366.613, 666.231 365.964, 667.125 365.580 C 668.018 365.196, 669.538 363.133, 670.502 360.996 C 673.205 355.001, 675.875 353.124, 684.085 351.444 C 696.395 348.926, 697.837 348.240, 700.087 343.829 C 701.801 340.470, 703.313 339.288, 709.500 336.468 C 717.399 332.869, 719 331.062, 719 325.747 C 719 317.299, 714.690 309.398, 708.285 306.106 C 707.067 305.479, 704.575 302.409, 702.748 299.282 C 700.279 295.057, 698.081 292.808, 694.183 290.519 C 691.057 288.684, 687.758 285.655, 686.012 283.018 C 683.209 278.784, 678.187 275.142, 675 275.032 C 671.930 274.926, 662.969 270.013, 658.745 266.119 C 653.528 261.310, 651.083 260.289, 640.206 258.376 C 630.008 256.582, 628.217 255.923, 619.821 250.873 C 609.718 244.797, 604.982 243.890, 568 240.952 C 554.574 239.885, 552.519 239.527, 531.500 234.605 C 503.021 227.935, 426.850 225.474, 330.500 228.111 M 704.557 356.223 C 703.701 357.445, 703 359.238, 703 360.207 C 703 361.176, 701.763 363.336, 700.250 365.006 C 697.869 367.636, 696.164 368.295, 687.550 369.910 C 677.120 371.865, 676.408 372.300, 672.773 378.932 C 670.465 383.142, 665.913 384.865, 655.306 385.543 C 640.495 386.490, 640.250 386.575, 634.100 392.964 C 627.053 400.285, 624.756 400.965, 605 401.582 C 584.844 402.211, 581.589 402.982, 575.628 408.533 C 572.177 411.747, 569.048 413.526, 564.189 415.037 C 557.744 417.041, 556.149 417.093, 520.500 416.463 L 483.500 415.809 471 418.839 C 464.125 420.505, 455.800 423.090, 452.500 424.582 C 447.070 427.038, 444.744 427.394, 428 428.333 C 409.702 429.359, 398.936 429.484, 379.500 428.896 C 371.877 428.665, 368.312 429.015, 364.500 430.365 C 355.773 433.457, 342.775 440.409, 340.877 443 C 339.685 444.627, 338.395 449.867, 337.186 458 C 335.581 468.787, 335.357 475.865, 335.547 509.656 C 335.667 531.193, 336.073 549.309, 336.447 549.914 C 336.821 550.520, 336.565 554.362, 335.878 558.453 C 334.399 567.253, 335.243 570.040, 340.153 572.579 C 343.082 574.094, 349.203 574.250, 403.947 574.208 C 481.048 574.150, 495.528 572.996, 519.351 565.017 C 531.200 561.048, 536.742 560.085, 559.784 557.990 C 574.592 556.643, 581.554 554.972, 589.500 550.853 C 598.673 546.099, 602.226 545.098, 619.261 542.465 C 635.372 539.975, 636.798 539.478, 647.896 532.476 C 651.240 530.366, 656.184 528.437, 660.896 527.403 C 672.618 524.831, 678.198 522.405, 682.478 518.022 C 685.097 515.340, 688.692 513.155, 693.438 511.358 C 698.843 509.312, 701.673 507.462, 705.500 503.477 C 708.250 500.613, 711.907 497.318, 713.627 496.155 C 719.755 492.009, 719.684 492.764, 719.360 435 C 719.198 406.125, 719.397 378.405, 719.803 373.400 C 721.027 358.309, 718.948 354, 710.446 354 C 707.102 354, 705.758 354.507, 704.557 356.223 M 84.551 357.203 L 81.862 359.515 81.875 423.508 C 81.883 458.703, 81.914 488.339, 81.944 489.365 C 81.975 490.391, 85.677 494.976, 90.171 499.555 C 96.279 505.779, 99.875 508.555, 104.421 510.556 C 107.777 512.034, 112.739 515.385, 115.500 518.040 C 120.474 522.822, 122.181 523.600, 136.064 527.418 C 139.124 528.259, 143.572 530.422, 145.949 532.224 C 155.074 539.141, 153.360 538.497, 176 543.512 C 180.125 544.425, 188 547.375, 193.500 550.067 C 204.602 555.501, 210.160 556.682, 238 559.528 C 255.074 561.273, 261.741 562.585, 273.348 566.481 C 290.087 572.100, 310.927 572.111, 315.750 566.504 C 318 563.889, 318 563.882, 318 525.128 C 318 502.099, 317.570 484.040, 316.940 480.634 C 316.071 475.935, 316.250 472.607, 317.926 462.200 C 319.052 455.215, 320.404 445.311, 320.932 440.190 C 321.733 432.412, 322.394 430.121, 324.945 426.269 C 328.337 421.149, 328.445 420.700, 326.965 417.934 C 325.476 415.153, 324.344 415.494, 319.785 420.099 C 315.959 423.963, 315.464 424.168, 311.114 423.695 C 308.576 423.419, 303.102 421.839, 298.949 420.186 C 284.650 414.492, 278.069 414.084, 247 416.969 C 234.564 418.124, 228.492 417.888, 218 415.841 C 210.972 414.470, 206.382 412.093, 202.044 407.578 C 197.707 403.063, 193.941 402.015, 182 401.998 C 170.459 401.982, 160.526 400.480, 156.517 398.145 C 154.876 397.190, 152.368 394.691, 150.942 392.592 C 147.578 387.638, 147.008 387.369, 136.980 386.006 C 125.670 384.468, 120.999 382.293, 117.366 376.872 C 114.692 372.883, 113.836 372.354, 107.586 370.833 C 99.716 368.917, 98.429 367.883, 95 360.721 C 92.025 354.507, 88.905 353.457, 84.551 357.203 M 309 385.031 C 305.975 385.323, 302.436 386.154, 301.135 386.878 C 299.124 387.996, 298.857 388.729, 299.349 391.762 C 300.444 398.512, 309.169 405.064, 319 406.518 C 321.475 406.884, 325.835 408.267, 328.688 409.592 C 332.866 411.531, 335.506 412, 342.245 412 C 346.848 412, 355.539 412.915, 361.557 414.034 C 370.168 415.634, 376.506 416.058, 391.296 416.024 C 416.436 415.965, 422.259 415.123, 433.753 409.883 C 436.624 408.575, 442.847 407.202, 449.500 406.411 C 470.791 403.877, 485.102 397.161, 483.833 390.299 C 483.650 389.310, 481.700 387.616, 479.500 386.534 C 475.626 384.631, 472.969 384.568, 395 384.534 C 350.725 384.516, 312.025 384.739, 309 385.031 M 392.982 449.037 C 391.047 449.496, 387.222 450.829, 384.482 451.998 C 377.639 454.919, 359.190 466.776, 357.984 469.029 C 354.947 474.705, 358.666 478.679, 370.665 482.583 C 377.575 484.830, 379.986 486.161, 382.887 489.326 C 387.708 494.588, 391.449 496, 400.567 496 C 409.950 496, 413.902 494.299, 416.896 488.972 C 418.915 485.379, 419.811 484.814, 426.646 482.829 C 443.952 477.800, 444.325 468.188, 427.515 460.404 C 423.657 458.618, 419.150 455.716, 417.500 453.955 C 415.850 452.194, 413.052 450.134, 411.282 449.377 C 407.780 447.879, 398.577 447.707, 392.982 449.037 M 396.389 467.980 C 395.228 468.449, 393.983 469.602, 393.622 470.543 C 391.570 475.889, 406.115 478.936, 409.333 473.834 C 412.275 469.169, 403.391 465.150, 396.389 467.980 M 394 513.930 C 388.875 514.955, 386.442 516.548, 384.020 520.468 C 382.527 522.884, 380.726 524.266, 378.180 524.950 C 364.887 528.522, 362.480 529.295, 360.399 530.658 C 359.122 531.495, 357.795 533.072, 357.448 534.163 C 356.816 536.156, 358.656 542, 359.916 542 C 360.287 542, 364.056 545.095, 368.292 548.878 C 374.986 554.855, 376.879 555.982, 382.747 557.486 C 386.461 558.437, 393.410 559.453, 398.189 559.743 C 410.432 560.486, 415.101 558.773, 432.254 547.245 C 436.194 544.597, 440 539.390, 440 536.648 C 440 532.873, 434.681 528.925, 426.553 526.667 C 419.022 524.575, 418.472 524.226, 415.996 519.980 C 412.303 513.646, 405.196 511.691, 394 513.930 M 393.250 533.220 C 390.656 534.472, 390.246 538.130, 392.492 539.993 C 393.312 540.674, 396.186 541.264, 398.878 541.305 C 407.236 541.431, 412.405 535.873, 406.453 533.161 C 403.313 531.730, 396.274 531.762, 393.250 533.220" stroke="none" fill="#444" fill-rule="evenodd"/></svg>