<svg xmlns="http://www.w3.org/2000/svg" width="1000" height="1000" viewBox="0 0 1000 1000" version="1.1"><path d="M 392 223.984 C 374.841 224.463, 361.304 225.334, 356 226.299 C 351.325 227.150, 344.497 228.137, 340.827 228.494 C 337.158 228.851, 328.383 230.702, 321.327 232.608 C 300.628 238.200, 287.356 240.801, 273.500 241.983 C 239.976 244.841, 231.630 246.631, 217.533 253.983 C 207.900 259.007, 199.611 261.814, 188.100 263.952 C 178.179 265.794, 171.027 268.897, 166.051 273.519 C 161.268 277.960, 156.169 280.882, 149.500 283 C 142.354 285.270, 138.123 287.924, 130.341 295.018 C 126.135 298.852, 119.950 303.474, 116.597 305.291 C 111.607 307.994, 109.774 309.749, 106.500 314.957 C 104.300 318.456, 99.487 324.432, 95.805 328.236 C 84.629 339.782, 85.500 330.163, 85.500 442 C 85.500 551.740, 84.980 544.663, 93.860 555.727 C 96.566 559.100, 99.571 564.029, 100.536 566.680 C 104.727 578.188, 107.869 583.911, 113.871 590.973 C 117.390 595.113, 120.925 600.075, 121.727 602 C 125.825 611.839, 127.723 614.614, 133.163 618.727 C 136.849 621.514, 139.657 624.665, 141.207 627.754 C 145.012 635.336, 146.925 637.775, 151.986 641.490 C 154.603 643.411, 158.440 647.445, 160.513 650.455 C 162.586 653.464, 166.902 657.985, 170.105 660.502 C 173.309 663.018, 177.595 667.197, 179.631 669.789 C 183.548 674.773, 191.998 682.975, 193.233 682.991 C 193.636 682.996, 196.254 685.911, 199.051 689.470 C 201.847 693.028, 206.961 698.014, 210.414 700.550 C 213.867 703.085, 218.340 707.366, 220.353 710.063 C 222.393 712.795, 227.067 716.978, 230.909 719.509 C 234.701 722.007, 238.557 725.202, 239.479 726.608 C 242.930 731.875, 248.268 736.951, 252.520 739.010 C 256.580 740.975, 258.961 743.280, 264.667 750.772 C 265.860 752.337, 269.742 755.093, 273.295 756.896 C 276.848 758.700, 281.704 762.161, 284.086 764.588 C 289.886 770.497, 291.930 770.363, 296.816 763.750 C 298.950 760.862, 303.127 756.417, 306.098 753.872 C 310.439 750.152, 312.512 747.207, 316.655 738.872 C 321.185 729.760, 327.784 721, 330.119 721 C 331.365 721, 336.596 712.853, 337.880 708.911 C 339.469 704.031, 342.848 699.660, 348.176 695.592 C 351.616 692.965, 353.467 690.370, 356.263 684.253 C 362.645 670.292, 372.125 660.928, 382.784 658.058 C 388.635 656.483, 611.186 656.451, 617.234 658.024 C 620.676 658.920, 623.480 661.141, 631.750 669.524 C 637.388 675.238, 642 680.495, 642.001 681.206 C 642.001 681.918, 643.298 685.240, 644.882 688.589 C 647.091 693.258, 649.114 695.707, 653.554 699.089 C 658.405 702.783, 660.108 704.988, 664.039 712.659 C 667.644 719.694, 670.257 723.244, 675.303 727.965 C 680.957 733.254, 682.181 735.045, 684.073 740.806 C 687.326 750.706, 688.586 752.706, 694.044 756.627 C 696.771 758.586, 700.935 762.732, 703.297 765.840 C 705.660 768.948, 708.426 771.651, 709.445 771.847 C 710.685 772.086, 713.321 770.080, 717.409 765.785 C 721.397 761.596, 725.463 758.477, 729.114 756.806 C 733.124 754.970, 735.952 752.687, 739.104 748.741 C 741.703 745.487, 746.286 741.501, 750.316 738.988 C 754.535 736.359, 758.639 732.743, 761.089 729.499 C 763.265 726.616, 767.623 722.444, 770.773 720.228 C 773.923 718.012, 777.850 714.790, 779.500 713.068 C 781.150 711.346, 784.248 708.264, 786.385 706.218 C 791.195 701.616, 835.860 656.769, 847.908 644.446 C 852.776 639.467, 857.689 633.617, 858.825 631.446 C 861.430 626.469, 864.331 623.193, 869.883 618.962 C 873.275 616.377, 875.130 613.742, 878.088 607.309 C 880.830 601.345, 883.278 597.736, 886.754 594.535 C 889.713 591.809, 892.616 587.822, 894.216 584.286 C 902.329 566.358, 904.112 563.013, 908.230 558 C 916.740 547.640, 916.360 552.627, 916.759 446 C 917.029 373.626, 916.827 351.491, 915.864 348.036 C 914.989 344.896, 912.784 341.634, 908.429 337.036 C 905.023 333.441, 900.015 328.025, 897.299 325 C 886.542 313.019, 877.878 305.270, 871.057 301.531 C 866.556 299.064, 862.744 296.044, 860.509 293.176 C 856.154 287.585, 852.764 285.496, 844.205 283.124 C 835.965 280.840, 831.701 278.610, 825.250 273.210 C 818.518 267.573, 812.416 265.154, 800.528 263.409 C 787.348 261.473, 782.225 259.781, 772 253.986 C 759.557 246.934, 749.978 244.809, 722.500 243.007 C 699.809 241.518, 674.899 237.659, 660.618 233.418 C 653.932 231.433, 643.345 229.192, 637 228.420 C 630.675 227.649, 621.900 226.330, 617.500 225.487 C 610.757 224.196, 594.578 223.897, 514.500 223.585 C 462.250 223.382, 407.125 223.562, 392 223.984 M 467 236.136 C 414.092 238.003, 401.423 238.606, 400.293 239.311 C 398.235 240.596, 373.991 242.030, 338 242.997 C 311.587 243.706, 299.281 244.482, 285.500 246.306 C 268.170 248.600, 267.158 248.861, 258.310 253.324 C 246.621 259.220, 237.440 261.750, 223 263.052 C 211.420 264.097, 199.075 266.840, 194.157 269.461 C 192.696 270.240, 189.071 272.895, 186.102 275.361 C 180.727 279.825, 178.258 280.840, 160.080 286.056 C 155.087 287.489, 151.816 289.091, 150.080 290.953 C 148.661 292.475, 145.801 295.569, 143.724 297.828 C 141.465 300.286, 138.452 302.347, 136.224 302.956 C 130.192 304.607, 126.355 307.541, 122.647 313.337 C 119.224 318.689, 118.004 319.837, 111 324.307 C 105.259 327.970, 103.826 331.939, 104.249 343 C 104.868 359.183, 108.150 362.682, 122.255 362.195 C 130.970 361.893, 131.134 361.932, 133.921 364.915 C 135.476 366.580, 137.265 369.995, 137.897 372.504 C 139.246 377.864, 140.657 378.625, 151.876 380.048 C 161.629 381.284, 167.135 383.963, 169.315 388.533 C 171.744 393.629, 171.498 397.628, 168.638 399.502 C 165.298 401.690, 154.325 402.517, 148.183 401.044 C 141.627 399.471, 138.741 396.484, 136.706 389.166 L 135.063 383.255 126.781 380.623 C 116.042 377.210, 112.072 377.227, 107.941 380.703 C 106.174 382.190, 104.193 384.778, 103.539 386.453 C 102.637 388.767, 102.510 408.510, 103.011 468.500 C 103.667 546.992, 103.686 547.550, 105.966 555.308 C 108.018 562.290, 109.020 563.942, 115.445 570.940 C 121.440 577.469, 122.834 579.654, 123.866 584.133 C 125.679 591.998, 127.829 595.376, 134.420 600.717 C 138.842 604.300, 141.355 607.427, 144.438 613.182 C 148.714 621.162, 151.530 624.665, 159.256 631.614 C 161.771 633.876, 165.225 638.201, 166.931 641.224 C 170.524 647.590, 172.475 649.534, 178.738 652.988 C 182.368 654.991, 184.138 656.998, 187.464 662.886 C 190.739 668.685, 192.589 670.802, 196.068 672.739 C 202.297 676.205, 203.662 677.611, 206.563 683.540 C 209.493 689.528, 211.553 691.526, 218.389 695.009 C 221.232 696.457, 224.452 699.174, 226.082 701.500 C 231.627 709.414, 232.967 710.717, 239.459 714.514 C 245.471 718.030, 258 729.236, 258 731.097 C 258 731.524, 261.820 734.389, 266.488 737.464 C 272.154 741.195, 276.299 744.844, 278.954 748.438 C 287.019 759.355, 294.451 757.903, 298.547 744.610 C 299.982 739.951, 301.553 737.546, 306.057 733.110 C 310.568 728.666, 312.616 725.526, 315.912 718 C 320.660 707.161, 321.693 705.742, 328.264 701.045 C 331.710 698.583, 333.738 696.099, 335.591 692.070 C 337.001 689.007, 338.883 685.004, 339.775 683.175 C 340.672 681.335, 343.970 678.044, 347.160 675.806 C 353.109 671.633, 354.109 669.970, 357.405 658.760 C 359.781 650.678, 363.477 645.431, 368.513 642.994 C 373.467 640.596, 374.956 638.399, 377.454 629.808 C 379.620 622.355, 382.079 619.422, 388.877 616.181 C 394.444 613.527, 394.525 613.425, 397 605.980 C 400.010 596.926, 402.868 592.144, 407.198 588.915 C 413.946 583.884, 415.922 580.348, 418.420 568.827 C 419.282 564.851, 423.458 560.434, 428.119 558.569 C 433.402 556.455, 435.473 553.856, 437.449 546.857 C 439.467 539.715, 441.960 536.560, 448.014 533.493 C 451.970 531.488, 453.263 530.110, 455.258 525.776 C 456.594 522.874, 458.259 517.800, 458.960 514.500 C 460.581 506.865, 461.878 504.427, 466.918 499.547 C 469.193 497.343, 471 494.646, 471 493.452 C 471 489.196, 468.108 488.039, 454.909 487.019 C 448.084 486.492, 438.225 485.615, 433 485.071 C 427.775 484.526, 415.625 483.805, 406 483.469 C 387.337 482.816, 369.896 480.905, 360.677 478.504 C 357.569 477.694, 351.082 475.190, 346.263 472.938 C 335.369 467.847, 324.232 465.466, 302.998 463.687 C 285.051 462.184, 277.766 460.061, 273.963 455.226 C 271.818 452.499, 271.410 447.971, 273.036 444.933 C 274.187 442.782, 282.932 438, 285.717 437.999 C 288.584 437.998, 299.772 432.321, 304.431 428.503 C 311.955 422.338, 320.371 420.198, 349.960 416.927 C 374.467 414.217, 380.578 412.954, 392.866 408.056 C 405.167 403.152, 411.582 401.708, 431.528 399.353 C 444.423 397.830, 455.796 397.583, 513.500 397.573 C 595.156 397.558, 600.243 398.041, 621 407.782 C 630.628 412.299, 640.430 415.230, 653.415 417.472 C 669.208 420.200, 674.044 422.333, 679.717 429.076 C 682.758 432.690, 687.288 435.107, 696.571 438.068 C 708.497 441.873, 715 446.084, 715 450.001 C 715 453.321, 706.685 459.104, 698 461.826 C 696.075 462.429, 689.550 463.429, 683.500 464.047 C 665.561 465.880, 654.068 468.490, 642.868 473.271 C 623.740 481.438, 605.613 483.838, 558.837 484.397 C 531.424 484.725, 530.043 484.833, 527.164 486.883 C 525.448 488.105, 523.865 490.340, 523.482 492.080 C 522.361 497.187, 524.555 500.579, 531.491 504.458 C 537.281 507.696, 537.956 508.442, 540.329 514.232 C 541.742 517.679, 543.201 522.075, 543.570 524 C 544.770 530.262, 546.800 532.870, 552.845 535.922 C 558.989 539.023, 561.348 542.344, 564.079 551.736 C 565.487 556.578, 566.852 558.033, 573.059 561.307 C 578.448 564.149, 581.493 568.408, 582.932 575.116 C 584.774 583.709, 587.956 589.930, 591.394 591.663 C 598.129 595.057, 601.870 600.170, 603.346 608 C 604.454 613.877, 607.287 617.470, 611.906 618.854 C 616.386 620.196, 621.754 625.037, 622.517 628.424 C 622.774 629.566, 623.463 632.750, 624.048 635.500 C 625.402 641.867, 627.079 644.394, 632.030 647.519 C 636.911 650.600, 641.638 656.943, 643.100 662.372 C 645.024 669.516, 648.107 674.903, 651.458 676.974 C 656.735 680.235, 659.781 683.843, 662.987 690.627 C 665.096 695.093, 668.221 699.189, 673.383 704.256 C 679.046 709.814, 681.744 713.478, 684.978 720 C 687.297 724.675, 691.179 730.544, 693.605 733.043 C 696.486 736.009, 699.172 740.332, 701.346 745.500 C 705.261 754.809, 708.189 757.562, 713.177 756.627 C 716.602 755.984, 719.603 753.498, 725.234 746.638 C 726.978 744.513, 732.701 739.958, 737.952 736.515 C 743.203 733.072, 749.861 727.743, 752.747 724.674 C 755.633 721.604, 761.033 717.282, 764.747 715.069 C 769.463 712.259, 772.353 709.688, 774.326 706.548 C 777.472 701.540, 780.498 698.807, 787.356 694.778 C 790.286 693.056, 793.233 690.116, 795.375 686.778 C 799.388 680.521, 800.870 679.161, 807.574 675.583 C 811.821 673.315, 813.244 671.770, 816.311 666.091 C 819.202 660.739, 821.243 658.418, 825.984 655.092 C 830.277 652.081, 833.046 649.110, 835.679 644.689 C 837.816 641.102, 841.916 636.343, 845.433 633.370 C 850.146 629.385, 852.378 626.484, 855.436 620.370 C 858.303 614.637, 861.440 610.423, 866.988 604.852 C 871.585 600.236, 875.310 595.478, 876.383 592.852 C 880.277 583.320, 882.552 579.689, 887.304 575.417 C 893.552 569.799, 895.961 563.523, 899.484 543.682 L 902.052 529.227 901.776 457.864 C 901.519 391.357, 901.378 386.276, 899.701 383.206 C 896.002 376.429, 889.582 374.660, 879 377.500 C 873.231 379.048, 867.254 379.419, 864.582 378.393 C 860.866 376.967, 864.124 366.609, 869.131 363.930 C 870.629 363.128, 873.939 362.930, 879.136 363.331 C 893.196 364.415, 896 361.607, 896 346.439 C 896 333.520, 894.507 330.060, 886.952 325.471 C 880.696 321.671, 877.639 318.540, 874.570 312.790 C 872.615 309.130, 868.524 306.507, 860.165 303.558 C 855.004 301.737, 848.630 297.380, 844 292.508 C 839.159 287.413, 834.429 285.216, 823.173 282.831 C 812.119 280.489, 808.795 278.992, 800.725 272.721 C 793.733 267.287, 785.071 264.831, 764.477 262.443 C 750.978 260.878, 746.890 259.791, 726 252.209 C 710.513 246.588, 693.510 244.612, 647 243.027 C 616.962 242.004, 566.156 239.251, 526.500 236.498 C 503.581 234.907, 502.085 234.898, 467 236.136 M 838.209 382.021 C 827.691 383.553, 823.922 386.867, 823.657 394.812 L 823.500 399.500 834 399.807 C 849.095 400.248, 852.769 399.524, 856.721 395.334 C 859.492 392.396, 860 391.111, 860 387.036 C 860 383.561, 859.558 382.044, 858.418 381.607 C 856.344 380.811, 844.901 381.045, 838.209 382.021 M 178.250 401.116 C 174.110 402.092, 174 402.223, 174 406.191 C 174 415.703, 181.207 420.500, 195.500 420.500 C 210.450 420.500, 214.279 418.407, 211.995 411.484 C 209.745 404.669, 203.496 401.770, 188.500 400.587 C 185.200 400.326, 180.588 400.564, 178.250 401.116 M 802 401.688 C 801.175 401.792, 797.908 402.163, 794.740 402.512 C 786.639 403.404, 782.783 406.695, 783.199 412.358 C 783.617 418.038, 785.871 418.967, 799.282 418.985 C 815.102 419.007, 819.874 416.362, 820.767 407.078 L 821.241 402.136 817.871 401.518 C 814.970 400.987, 806.895 401.073, 802 401.688 M 496 404.536 C 492.425 405.274, 486.575 405.906, 483 405.942 C 476.510 406.008, 465.282 407.672, 453 410.390 C 449.425 411.181, 444.025 412.094, 441 412.419 C 437.975 412.744, 427.625 413.884, 418 414.953 C 408.375 416.021, 394.425 417.388, 387 417.991 C 366.364 419.666, 355.199 422.210, 343.500 427.903 C 338 430.579, 330.125 434.184, 326 435.913 C 309.911 442.657, 306.279 451.630, 317 458.149 C 321.948 461.158, 326.776 462.129, 344 463.582 C 369.292 465.717, 385.810 468.384, 405.490 473.511 C 429.718 479.824, 449.690 481.519, 499 481.447 C 530.520 481.401, 537.956 481.089, 553.500 479.159 C 571.478 476.928, 583.286 474.675, 596.512 470.953 C 607.202 467.945, 625.515 465.221, 646.084 463.579 C 668.517 461.789, 674.852 459.940, 677.472 454.418 C 680.567 447.895, 676.969 441.622, 667.386 436.836 C 665.022 435.655, 661.024 432.984, 658.503 430.901 C 648.134 422.333, 640.849 419.705, 621.404 417.520 C 603.683 415.528, 583.208 412.330, 575.500 410.350 C 572.200 409.502, 565.365 408.416, 560.312 407.936 C 555.259 407.456, 546.638 406.149, 541.155 405.032 C 529.375 402.631, 506.459 402.380, 496 404.536 M 220.250 422.139 C 217.194 423.002, 217 423.329, 217 427.606 C 217 431.270, 217.552 432.706, 219.842 434.996 C 223.968 439.122, 229.656 440.315, 242.553 439.758 C 254.505 439.243, 256.856 438.506, 258.932 434.628 C 261.574 429.691, 257.571 424.498, 249.658 422.598 C 245.003 421.480, 223.757 421.149, 220.250 422.139 M 744 423.468 C 738.419 425.292, 733.775 429.448, 734.193 432.243 C 734.362 433.374, 735.719 435.206, 737.210 436.315 C 739.589 438.085, 741.415 438.326, 752.210 438.292 C 769.193 438.240, 774.895 435.733, 774.968 428.285 C 774.991 426.024, 774.378 424.738, 772.903 423.948 C 769.436 422.093, 749.236 421.757, 744 423.468 M 473.686 545.017 C 469.585 546.248, 468.170 547.721, 464.937 554.125 C 461.898 560.146, 457.880 563.899, 451.716 566.474 C 447.120 568.395, 445.516 570.820, 443.422 579.014 C 440.332 591.109, 437.788 594.979, 430.184 599.154 C 426.399 601.233, 424.065 604.754, 422.845 610.230 C 421.509 616.224, 418.263 620.536, 412.879 623.468 C 410.337 624.852, 407.733 626.616, 407.092 627.389 C 405.802 628.944, 401.139 641.914, 400.298 646.289 C 399.613 649.851, 401.997 652.589, 406.522 653.438 C 412.461 654.552, 591.226 654.250, 594.189 653.121 C 599.737 651.006, 600.209 644.244, 595.545 633.697 C 593.614 629.332, 592.341 627.959, 588.067 625.633 C 582.479 622.592, 578.617 617.625, 577.467 612 C 576.428 606.918, 573.589 603.445, 567.975 600.390 C 564.135 598.300, 562.466 596.569, 560.514 592.652 C 559.131 589.878, 558 586.768, 558 585.742 C 558 581.424, 553.032 573.435, 547.923 569.540 C 541.953 564.986, 538.891 560.610, 536.526 553.251 C 534.641 547.383, 532.034 545, 527.500 545 C 520.951 545, 518.640 548.917, 517.577 561.813 C 516.553 574.241, 514.708 576.774, 502.136 583.011 C 494.313 586.893, 491.634 586.834, 487.490 582.690 C 483.617 578.817, 481.589 572.392, 482.513 566.925 C 483.176 562.996, 487.872 555.547, 491.170 553.193 C 493 551.886, 493.535 548.559, 492.393 545.582 C 491.909 544.319, 490.244 544.017, 484.143 544.086 C 479.939 544.133, 475.234 544.552, 473.686 545.017 M 499.302 599.202 C 495.988 600.060, 485.127 610.921, 482.498 616.003 C 480.214 620.420, 479.654 626.944, 481.170 631.463 C 483.648 638.849, 492.804 642.247, 504.436 640.096 C 516.508 637.865, 518.879 634.622, 519.730 619.181 C 520.329 608.309, 519.175 604.471, 514.357 601.314 C 511.157 599.217, 503.427 598.133, 499.302 599.202" stroke="none" fill="#444" fill-rule="evenodd"/></svg>