<svg xmlns="http://www.w3.org/2000/svg" width="1000" height="1000" viewBox="0 0 1000 1000" version="1.1"><path d="M 509.500 290.659 C 477.691 291.265, 434.538 294.272, 403.858 298.019 C 390.855 299.607, 371.280 301.384, 360.358 301.968 C 298.063 305.296, 289.254 306.569, 270.475 314.957 C 263.914 317.888, 251.922 320.843, 241.889 322.001 C 209.725 325.714, 205.870 326.645, 194.500 333.444 C 184.715 339.296, 179.776 341.227, 170.113 342.979 C 156.881 345.379, 151.320 347.746, 144.593 353.843 C 140.102 357.912, 136.137 360.415, 130.967 362.443 C 124.729 364.891, 122.410 366.564, 114.924 374.021 C 99.709 389.179, 99.365 390.637, 97.506 448 C 96.748 471.375, 95.623 506.137, 95.005 525.249 C 94.387 544.362, 94.143 560.423, 94.463 560.940 C 95.358 562.388, 93.063 589.635, 91.392 597.401 C 89.502 606.185, 90.129 608.815, 95.550 614.844 C 97.971 617.537, 101.149 622.162, 102.611 625.120 C 106.269 632.522, 107.493 633.718, 115.436 637.646 C 119.834 639.821, 124.282 643.079, 127.593 646.553 C 133.347 652.589, 137.604 654.822, 149.354 657.965 C 158.866 660.509, 162.729 662.415, 170.302 668.300 C 176.978 673.488, 185.570 676.221, 201 678.065 C 210.438 679.193, 224.515 683.015, 228.446 685.519 C 238.491 691.915, 258.196 696.187, 283.500 697.453 C 308.545 698.706, 327.864 700.142, 338 701.505 C 377.516 706.817, 436.511 710.813, 457.832 709.622 C 464.250 709.263, 485.250 708.521, 504.500 707.973 C 548.116 706.731, 565.256 705.647, 590 702.564 C 600.725 701.228, 618.950 699.643, 630.500 699.042 C 687.237 696.087, 698.235 694.593, 714.217 687.669 C 726.314 682.428, 737.686 679.486, 751.500 678.024 C 771.871 675.868, 777.867 674.196, 786.728 668.197 C 795.736 662.098, 798.321 661.048, 811.844 657.989 C 827.880 654.362, 831.324 652.893, 837.558 647.017 C 843.551 641.369, 846.053 640.015, 856 637.037 C 866.438 633.912, 868.719 632.595, 875.039 626.043 C 879.102 621.832, 882.139 619.718, 886.431 618.112 C 893.231 615.567, 895.944 613.611, 900.323 608.095 C 902.070 605.893, 905.733 602.507, 908.461 600.571 C 917.024 594.495, 916.955 594.835, 916.427 561 C 916.173 544.775, 915.808 499.969, 915.615 461.430 C 915.344 407.424, 914.973 390.804, 913.998 388.930 C 913.302 387.594, 910.205 383.795, 907.116 380.488 C 904.027 377.182, 900.121 372.457, 898.435 369.988 C 896.074 366.532, 893.639 364.638, 887.840 361.748 C 882.602 359.138, 879.069 356.525, 876.234 353.162 C 871.861 347.976, 868.311 346.472, 851.036 342.486 C 841.809 340.357, 838.216 338.748, 830.208 333.157 C 822.088 327.488, 815.285 325.442, 798.308 323.563 C 775.677 321.059, 769.844 319.599, 751 311.726 C 739.904 307.090, 721.341 304.400, 691 303.030 C 663.300 301.780, 656.596 301.294, 642 299.476 C 612.370 295.787, 593.737 293.799, 580.695 292.936 C 553.909 291.163, 531.495 290.048, 526.500 290.239 C 523.750 290.344, 516.100 290.533, 509.500 290.659 M 413 304.003 C 399.525 304.453, 384.931 305.311, 380.569 305.909 C 376.207 306.507, 367.687 307.464, 361.636 308.034 C 349.444 309.184, 335.028 312.061, 326.245 315.097 C 314.444 319.177, 297.803 322.077, 280.500 323.071 C 263.740 324.033, 246.572 326.115, 240.108 327.969 C 238.288 328.491, 233.462 330.998, 229.383 333.541 C 219.567 339.658, 213.081 341.813, 200.742 343.053 C 195.109 343.619, 187.800 344.796, 184.500 345.667 C 178.800 347.173, 168 352.678, 168 354.078 C 168 355.708, 159.193 360.292, 150.894 362.981 C 139.188 366.776, 134.251 369.728, 128.874 376.151 C 126.479 379.011, 121.510 383.298, 117.830 385.678 C 109.823 390.858, 107.482 393.637, 105.498 400.319 C 102.515 410.365, 104.092 415.039, 112.136 419.989 C 117.692 423.407, 120.554 426.288, 121.587 429.500 C 122.821 433.339, 126.421 436.041, 132.937 438.018 C 141.227 440.533, 143.302 442.182, 146.733 448.987 C 148.380 452.253, 150.568 454.985, 152.139 455.738 C 153.591 456.434, 160.038 457.432, 166.466 457.956 C 173.230 458.507, 181.174 459.857, 185.326 461.161 C 191.487 463.096, 193.359 464.283, 198.583 469.567 C 206.285 477.358, 207.853 477.727, 236 478.380 C 254.619 478.811, 258.874 479.219, 267.755 481.425 C 278.293 484.042, 286.577 487.581, 289 490.500 C 289.756 491.411, 292.653 493.358, 295.437 494.828 L 300.500 497.500 354.500 498.224 C 384.200 498.622, 413.225 499.338, 419 499.816 C 434.795 501.123, 546.460 501.224, 561.089 499.945 C 567.915 499.348, 599.600 498.538, 631.500 498.145 C 688.199 497.446, 689.608 497.381, 694.302 495.248 C 696.944 494.048, 700.967 491.472, 703.243 489.524 C 707.822 485.604, 712.025 484.195, 729 480.888 C 738.023 479.130, 745.563 478.522, 764 478.065 C 790.673 477.403, 790.875 477.350, 796.843 469.442 C 801.800 462.876, 807.869 460.453, 823.079 458.969 C 845.399 456.792, 848.403 455.716, 851.587 448.754 C 853.268 445.078, 857.546 441.115, 861.500 439.572 C 862.600 439.143, 866.376 438.174, 869.891 437.419 C 877.781 435.723, 880.425 434.046, 882.921 429.156 C 883.991 427.058, 887.419 423.414, 890.539 421.058 C 897.913 415.491, 900.252 410.459, 900.304 400.055 C 900.353 390.218, 898.274 385.627, 889.497 376.188 C 882.632 368.805, 876.583 364.970, 867.042 361.953 C 864.189 361.050, 860.325 358.429, 856.308 354.671 C 849.418 348.227, 844.642 346.221, 831 344.046 C 813.975 341.331, 809.601 339.854, 796 332.226 C 787.033 327.197, 776.835 325.104, 753.479 323.499 C 726.767 321.663, 723.515 321.048, 693.944 312.239 C 683.504 309.130, 677.411 307.950, 667.444 307.108 C 660.325 306.506, 649.100 305.540, 642.500 304.962 C 627.425 303.640, 446.521 302.884, 413 304.003 M 110.277 449.829 C 109.617 450.237, 108.281 452.354, 107.306 454.535 C 105.693 458.147, 105.461 464.820, 104.700 529.500 C 104.241 568.550, 103.818 602.834, 103.761 605.687 C 103.637 611.826, 106.440 616.705, 111.726 619.552 C 115.694 621.689, 119.614 625.402, 122.011 629.295 C 124.511 633.353, 129.544 636.725, 135.827 638.552 C 140.052 639.780, 142.628 641.435, 146.915 645.676 C 153.766 652.451, 157.767 654.264, 172.770 657.390 C 185.716 660.087, 189.451 661.572, 198.894 667.781 C 202.410 670.093, 206.910 672.450, 208.894 673.018 C 215.117 674.799, 234.990 678, 239.849 678.004 C 248.993 678.011, 265.572 681.409, 278.275 685.878 C 297.054 692.484, 320.170 695.545, 362.467 697.026 C 387.662 697.909, 389.666 697.851, 392.967 696.151 C 399.060 693.012, 399.172 692.254, 397.820 663.213 C 396.886 643.163, 396.873 625.001, 397.761 583.385 C 399.006 525.055, 399.119 526.740, 393.772 523.878 C 392.154 523.012, 382.640 522.742, 359.022 522.893 C 334.980 523.046, 323.110 522.700, 313.500 521.566 C 286.977 518.436, 279.667 516.207, 271.564 508.779 C 270.499 507.803, 267.219 506.103, 264.276 505.002 C 259.618 503.259, 256.483 503, 240.073 503 C 210.658 503, 198.449 500.194, 189.395 491.354 C 186.301 488.334, 182.585 485.392, 181.135 484.816 C 179.686 484.240, 172.474 483.382, 165.110 482.910 C 148.629 481.852, 146.020 480.719, 140.955 472.419 C 137.541 466.827, 136.988 466.390, 130.921 464.504 C 125.438 462.800, 123.549 461.528, 117.988 455.798 C 113.918 451.604, 111.026 449.366, 110.277 449.829 M 887.038 455.455 C 884.544 458.459, 876.748 462.143, 870.731 463.159 C 863.171 464.437, 858.677 467.238, 857.074 471.673 C 854.413 479.032, 845.575 482.386, 826 483.465 C 809.986 484.349, 807.897 485.060, 801.182 491.912 C 795.937 497.265, 794.846 497.888, 787 500.013 C 779.585 502.021, 775.246 502.395, 753 502.938 C 724.984 503.623, 725.314 503.554, 716.987 510.511 C 703.253 521.985, 691.278 523.237, 599 522.843 C 562.975 522.689, 533.039 522.850, 532.475 523.202 C 531.911 523.553, 509.459 523.412, 482.583 522.889 C 449.007 522.236, 432.731 522.264, 430.569 522.977 C 428.785 523.566, 426.573 525.420, 425.461 527.258 C 423.566 530.390, 423.492 532.987, 423.258 604 C 423.124 644.425, 422.899 680.812, 422.758 684.861 C 422.502 692.160, 422.529 692.247, 426 695.222 L 429.500 698.222 505.500 697.570 C 547.300 697.212, 586.675 696.510, 593 696.010 C 599.325 695.511, 611.816 694.604, 620.757 693.996 C 632.218 693.217, 639.299 692.207, 644.757 690.574 C 649.016 689.300, 654.525 687.935, 657 687.541 C 659.475 687.147, 666 685.537, 671.500 683.964 C 687.094 679.504, 689.597 679.102, 711.718 677.509 C 739.592 675.501, 745.479 674.031, 756.227 666.395 C 762.472 661.958, 770.741 659.275, 782.159 657.982 C 799.721 655.994, 807.158 653.365, 814.500 646.554 C 821.058 640.469, 822.377 639.832, 836.438 635.958 C 847.878 632.805, 848.597 632.447, 853.690 627.353 C 858.757 622.286, 865.418 618, 868.225 618 C 871.495 618, 878.145 612.988, 888.148 602.985 C 894.117 597.017, 899.029 591.766, 899.065 591.317 C 899.100 590.867, 899.341 564.188, 899.600 532.030 C 900.103 469.453, 899.645 460.471, 895.735 456.250 C 893.363 453.689, 888.846 453.276, 887.038 455.455" stroke="none" fill="#444" fill-rule="evenodd"/></svg>