<svg xmlns="http://www.w3.org/2000/svg" width="1000" height="1000" viewBox="0 0 1000 1000" version="1.1"><path d="M 413.500 286.050 C 370.799 288.385, 341.613 291.369, 326.500 294.947 C 312.236 298.323, 289.198 301.653, 267.314 303.502 C 246.286 305.278, 240.363 306.700, 228 312.939 C 216.348 318.820, 208.744 321.451, 199.142 322.923 C 187.436 324.718, 180.488 327.521, 173.663 333.201 C 167.411 338.404, 159.002 342.973, 155.645 342.990 C 152.087 343.009, 144.261 347.806, 139.519 352.876 C 136.891 355.686, 131.987 359.724, 128.621 361.850 C 125.254 363.976, 118.586 369.648, 113.802 374.454 C 107.063 381.223, 104.084 385.166, 100.580 391.950 C 98.092 396.767, 95.343 401.300, 94.471 402.024 C 93.598 402.748, 91.808 405.178, 90.492 407.423 L 88.100 411.505 87.942 511.988 L 87.785 612.470 93.535 617.572 C 96.697 620.378, 100.712 625.109, 102.456 628.087 C 105.339 633.008, 106.464 633.919, 114.827 638.108 C 120.369 640.883, 125.939 644.593, 128.837 647.439 C 134.111 652.618, 138.387 654.842, 149.294 658.081 C 158.476 660.808, 161.120 662.180, 168.588 668.094 C 173.342 671.858, 176.600 673.472, 183.450 675.458 C 188.276 676.856, 193.248 678, 194.500 678 C 199.589 678, 214.594 683.276, 221.600 687.528 C 230.810 693.119, 243.329 696.512, 260.133 697.971 C 271.523 698.960, 284.128 701.303, 295 704.451 C 297.475 705.168, 301.300 706.251, 303.500 706.857 C 305.700 707.463, 310.787 708.895, 314.805 710.038 C 335.456 715.916, 357.611 717.505, 441.500 719.123 C 506.014 720.367, 589.592 719.389, 622 717.010 C 638.512 715.798, 657.600 712.621, 667.500 709.435 C 686.188 703.423, 705.771 699.069, 718.889 698.009 C 740.017 696.302, 750.201 693.930, 763.088 687.711 C 775.259 681.838, 783.074 679.516, 797.271 677.553 C 811.829 675.540, 818.892 673.114, 824.939 668.051 C 830.452 663.435, 836.861 660.468, 845.795 658.396 C 855.494 656.146, 862.042 653.215, 866.464 649.146 C 872.263 643.808, 878.889 639.483, 883.500 638.023 C 890.073 635.943, 893.868 633.093, 896.628 628.163 C 898.064 625.598, 902.364 620.575, 906.183 617 L 913.127 610.500 913.066 513 C 913.032 459.375, 913.004 414.214, 913.002 412.641 C 913.001 410.520, 911.617 408.400, 907.642 404.425 C 904.506 401.288, 901.008 396.394, 899.204 392.618 C 897.510 389.071, 894.431 384.669, 892.363 382.835 C 890.294 381.001, 886.779 377.519, 884.551 375.098 C 876.338 366.172, 872.249 362.433, 867.691 359.679 C 865.123 358.127, 861.593 354.868, 859.847 352.437 C 856.844 348.255, 848.687 343, 845.199 343 C 842.456 343, 833.607 337.857, 828.015 333.013 C 822.315 328.075, 810.490 323, 804.686 323 C 799.959 323, 784.880 317.958, 775.228 313.151 C 761.180 306.154, 754.802 304.799, 727.500 303.005 C 711.036 301.924, 687.589 298.973, 670.500 295.832 C 664.450 294.720, 657.025 293.437, 654 292.980 C 650.975 292.524, 643.775 291.420, 638 290.529 C 614.334 286.874, 587.925 285.859, 507.500 285.512 C 464.600 285.327, 422.300 285.569, 413.500 286.050 M 460.500 297.036 C 446.200 297.483, 430.675 298.354, 426 298.972 C 416.212 300.265, 389.168 301.577, 343.500 302.976 C 295.545 304.445, 281.331 306.334, 264.657 313.456 C 251.623 319.023, 245.765 320.572, 228.500 323.014 C 210.381 325.578, 204.751 327.335, 197.809 332.595 C 190.434 338.182, 183.822 341.471, 177.091 342.899 C 168.447 344.734, 163.466 347.453, 157.282 353.714 C 152.451 358.606, 149.802 360.286, 141.189 363.920 C 131.059 368.195, 130.783 368.400, 125.440 375.625 C 122.089 380.155, 117.923 384.359, 114.588 386.573 C 108.357 390.710, 104.985 396.930, 104.216 405.704 C 103.543 413.388, 104.462 415.562, 111.034 421.822 C 114.311 424.945, 118.007 429.519, 119.246 431.987 C 121.049 435.576, 122.200 436.640, 125 437.304 C 134.086 439.458, 136.115 440.226, 138.884 442.556 C 140.573 443.977, 142.555 447.156, 143.471 449.912 C 145.904 457.237, 147.119 457.913, 159.846 459.030 C 176.311 460.475, 181.630 463.320, 183.432 471.646 C 184.704 477.522, 186.699 478.347, 201.442 479.102 C 220.689 480.087, 231.209 482.112, 237.599 486.061 C 241.196 488.284, 244 492.549, 244 495.797 C 244 496.840, 244.900 498.732, 246 500 C 247.100 501.268, 248 501.872, 248 501.341 C 248 500.730, 250.697 500.689, 255.334 501.229 C 260.837 501.869, 264.395 501.703, 269.584 500.561 C 273.388 499.724, 281.675 497.938, 288 496.592 C 301.842 493.646, 302.555 493.397, 307 489.967 C 316.670 482.505, 326.330 480.449, 349.500 480.919 C 358.300 481.097, 372.700 481.285, 381.500 481.335 C 399.345 481.438, 401.072 480.933, 404.872 474.492 C 408.004 469.184, 410.940 467.900, 423.245 466.458 C 429.435 465.732, 437.425 464.687, 441 464.134 C 444.575 463.582, 461.900 462.823, 479.500 462.448 C 505.318 461.898, 514.108 462.065, 525 463.313 C 532.425 464.164, 543.225 465.118, 549 465.433 C 554.775 465.748, 561.975 466.496, 565 467.094 C 573.769 468.829, 580.499 473.171, 579.827 476.659 C 579.437 478.678, 578.685 478.698, 549.341 477.479 C 540.250 477.101, 531.903 477.439, 522.341 478.573 C 511.698 479.834, 503.994 480.070, 489 479.592 C 478.275 479.250, 458.925 478.969, 446 478.967 C 425.599 478.963, 421.445 479.232, 414.500 481.007 C 410.100 482.131, 405.825 483.194, 405 483.369 C 404.175 483.544, 402.820 485.520, 401.989 487.762 C 399.625 494.135, 396.292 496.117, 377 502.618 C 374.525 503.452, 371.375 504.718, 370 505.431 C 368.625 506.145, 366.349 507.001, 364.942 507.335 C 363.535 507.669, 360.724 508.635, 358.696 509.482 C 356.669 510.330, 354.895 510.942, 354.755 510.842 C 354.615 510.743, 353.550 511.170, 352.389 511.792 C 351.228 512.413, 347.766 513.166, 344.696 513.464 C 341.627 513.762, 337.852 514.486, 336.307 515.073 C 334.763 515.660, 333.275 516.125, 333 516.106 C 332.725 516.087, 330.250 516.741, 327.500 517.561 C 317.906 520.420, 300.122 523, 290.009 523 C 271.604 523, 248 515.623, 248 509.871 C 248 508.907, 247.608 507.876, 247.129 507.580 C 246.650 507.284, 245.993 505.714, 245.668 504.090 L 245.078 501.139 222.507 501.038 C 190.163 500.892, 186.709 499.960, 181.950 490.091 C 180.547 487.183, 178.623 484.369, 177.674 483.838 C 176.725 483.306, 169.942 482.498, 162.600 482.042 C 147.037 481.074, 145.152 480.237, 141.324 472.594 C 137.957 465.873, 136.417 464.248, 132.646 463.436 C 128.909 462.632, 124.165 460.307, 122.151 458.294 C 121.356 457.499, 119.309 454.070, 117.602 450.674 C 115.757 447.001, 113.751 444.361, 112.651 444.158 C 109.913 443.651, 105.335 448.603, 104.157 453.347 C 103.371 456.511, 102.278 596.115, 102.919 611.427 C 103.031 614.093, 124.039 634.295, 128.713 636.232 C 130.796 637.095, 134.652 638.564, 137.282 639.496 C 140.166 640.517, 144.335 643.326, 147.782 646.570 C 153.894 652.322, 158.816 654.709, 171.354 658.002 C 180.588 660.428, 185.146 662.617, 192.270 668.048 C 198.719 672.964, 206.618 675.507, 220.123 677.015 C 234.600 678.633, 240.428 680.285, 253.296 686.422 C 268.026 693.447, 278.764 695.632, 308 697.556 C 330.568 699.040, 346.583 701.333, 361.500 705.216 C 366.973 706.640, 372.872 707.330, 380.175 707.399 C 389.541 707.488, 391.196 707.243, 393.675 705.404 C 399.043 701.423, 399.186 699.831, 398.876 647.500 C 398.489 582.263, 398.677 574.580, 400.997 560.555 C 403.299 546.642, 403.342 545.770, 401.957 540.784 C 400.443 535.334, 398.954 534.370, 390.038 533.066 C 378.640 531.399, 376 530.334, 376 527.402 C 376 526.081, 376.337 524.943, 376.750 524.872 C 377.163 524.802, 378.625 524.530, 380 524.268 C 386.896 522.953, 394.615 523.599, 398.155 525.787 C 403.206 528.909, 404.999 528.604, 411.846 523.457 C 421.596 516.127, 427.786 515.738, 457.232 520.600 C 471.488 522.954, 473.296 523.020, 513.232 522.661 C 536.676 522.449, 557.307 522.704, 561 523.251 C 569.693 524.538, 573.877 524.280, 581.282 522.002 C 591.892 518.738, 595.479 518.479, 597.806 520.806 C 598.921 521.921, 600.096 522.571, 600.417 522.250 C 600.737 521.929, 601 522.646, 601 523.842 C 601 525.038, 599.831 527.329, 598.403 528.932 C 595.203 532.523, 589.447 533.934, 578.462 533.820 C 574.041 533.774, 564.366 534.238, 556.962 534.850 C 533.786 536.765, 503.197 538.080, 485 537.942 C 461.970 537.768, 450.340 539.735, 441.071 545.373 C 439.107 546.568, 436.242 548.185, 434.704 548.967 C 429.386 551.669, 424.088 557.025, 422.999 560.799 C 422.412 562.835, 421.042 570.515, 419.954 577.866 C 418.163 589.972, 417.980 596.485, 418.017 646.917 C 418.053 697.576, 418.212 702.906, 419.778 705.980 C 422.487 711.294, 425.555 712.898, 435.281 714.087 C 447.087 715.529, 573.533 714.717, 588 713.106 C 599.649 711.808, 612.756 708.958, 620.731 705.989 C 623.609 704.918, 630.359 703.121, 635.731 701.995 C 645.025 700.048, 651.990 699.314, 683 697.015 C 700.885 695.688, 713.261 692.928, 725.460 687.546 C 739.410 681.391, 747.336 679.279, 763.253 677.475 C 782.153 675.333, 790.618 673.013, 798.120 667.918 C 806.113 662.491, 814.068 659.440, 825.269 657.507 C 836.968 655.488, 841.741 653.307, 849.167 646.587 C 854.689 641.590, 861.690 638, 865.914 638 C 869.162 638, 877.602 632.795, 879.979 629.325 C 881.333 627.350, 885.421 623.355, 889.065 620.448 C 896.483 614.530, 898.460 610.965, 898.466 603.500 C 898.469 600.750, 898.365 565.103, 898.235 524.285 L 898 450.070 894.989 446.640 C 889.397 440.271, 883.744 440.947, 882.596 448.122 C 880.965 458.324, 875.885 462.037, 862.131 463.077 C 853.222 463.751, 852.416 463.994, 850.291 466.650 C 849.036 468.217, 848.008 470.028, 848.005 470.673 C 847.996 472.748, 843.136 477.706, 839.262 479.593 C 836.365 481.004, 832.072 481.566, 820.593 482.040 L 805.686 482.656 803.348 485.578 C 802.062 487.185, 801.008 489.028, 801.005 489.673 C 800.994 492.366, 795.630 497.040, 790.675 498.674 C 786.377 500.091, 781.265 500.390, 760.500 500.440 C 746.750 500.473, 734.964 500.848, 734.309 501.273 C 733.654 501.698, 732.102 504.079, 730.861 506.565 C 729.619 509.050, 728.130 511.465, 727.552 511.931 C 726.973 512.397, 720.425 514.965, 713 517.639 L 699.500 522.500 684 522.409 C 668.948 522.320, 668.178 522.211, 657.343 518.639 C 648.065 515.580, 644.662 514.939, 637.135 514.835 C 632.156 514.766, 625.477 514.330, 622.292 513.865 C 615.461 512.867, 606 509.922, 606 508.793 C 606 508.357, 605.431 508, 604.735 508 C 602.582 508, 595.666 503.956, 592.165 500.650 C 587.831 496.557, 586.391 493.659, 585.529 487.291 C 584.857 482.327, 584.940 482.053, 587.295 481.462 C 588.655 481.121, 591.507 481.325, 593.634 481.915 C 599.076 483.426, 610.960 483.258, 622.587 481.506 C 644.300 478.233, 658.492 480.177, 665.954 487.447 C 670.876 492.242, 676.716 494.564, 689.753 496.912 C 695.915 498.021, 704.163 499.903, 708.083 501.094 C 715.488 503.343, 724.688 503.334, 727.411 501.074 C 728.111 500.493, 728.939 500.272, 729.251 500.584 C 729.562 500.896, 730.114 500.217, 730.476 499.075 C 730.838 497.934, 731.554 497, 732.067 497 C 732.580 497, 733 496.506, 733 495.901 C 733 492.605, 736.497 488.050, 740.802 485.739 C 747.846 481.958, 754.532 480.898, 776.181 480.131 C 798.330 479.347, 798.590 479.258, 801.553 471.500 C 804.455 463.902, 809.461 461.786, 829.737 459.591 C 836.467 458.863, 842.642 457.712, 843.459 457.034 C 844.276 456.356, 846.065 453.354, 847.434 450.363 C 849.619 445.590, 850.572 444.632, 855.212 442.539 C 858.120 441.226, 864.100 439.654, 868.500 439.045 C 881.125 437.296, 880.793 437.450, 882.128 432.740 C 883.033 429.551, 885.149 426.765, 890.666 421.500 C 897.060 415.398, 897.999 414.051, 897.991 411 C 897.974 405.103, 893.799 398.047, 885.645 390.134 C 881.470 386.083, 876.856 380.683, 875.392 378.134 C 871.276 370.970, 869.181 369.138, 859.571 364.297 C 854.167 361.576, 848.442 357.709, 845.071 354.503 C 838.484 348.241, 833.815 345.662, 825 343.422 C 816.664 341.303, 811.748 338.779, 805.383 333.349 C 798.769 327.707, 792.164 325.512, 775.791 323.514 C 757.197 321.245, 751.105 319.658, 733.759 312.567 C 719.672 306.807, 698.842 304.559, 645 302.985 C 626.025 302.431, 604.425 301.520, 597 300.961 C 589.575 300.402, 575.175 299.311, 565 298.537 C 540.854 296.700, 493.169 296.015, 460.500 297.036 M 467.077 600.819 C 464.656 602.117, 462.657 604.617, 460.093 609.550 C 457.002 615.495, 455.931 616.674, 452.429 617.981 C 442.722 621.604, 440.232 625.181, 439.337 636.789 C 438.653 645.661, 440.073 653.890, 442.999 657.998 C 444.082 659.520, 446.914 661.679, 449.291 662.797 C 454.210 665.109, 455.498 666.444, 459 672.858 C 460.375 675.376, 463.075 678.502, 465 679.805 C 468.262 682.013, 469.249 682.149, 479.500 681.796 C 487.698 681.514, 491.392 680.947, 494 679.573 C 497.740 677.603, 498.141 677.127, 502.010 670.075 C 503.927 666.580, 505.816 664.833, 510.010 662.676 C 520.696 657.179, 522.540 653.605, 521.759 639.906 C 521.078 627.966, 519.553 625.477, 510.196 621.033 C 503.224 617.722, 502.761 617.285, 499.919 611.331 C 498.283 607.902, 495.719 604.231, 494.222 603.174 C 488.340 599.019, 472.926 597.682, 467.077 600.819 M 467.382 628.540 C 465.600 631.259, 464.200 647.675, 465.356 652.282 C 466.592 657.208, 474.668 658.075, 484.173 654.302 C 491.167 651.526, 492.477 643.733, 487.597 633.929 C 484.936 628.583, 480.439 626.004, 473.773 626.002 C 469.814 626, 468.776 626.412, 467.382 628.540" stroke="none" fill="#444" fill-rule="evenodd"/></svg>