<svg xmlns="http://www.w3.org/2000/svg" viewBox="0 0 140 90" fill="none">
<path d="M30 68 Q40 52 52 44 L60 40 Q67 37 70 37 Q73 37 80 40 L88 44 Q100 52 110 68" stroke="#555" stroke-width="1.6" fill="#fff"/>
<path d="M52 44 Q54 38 50 30 Q48 26 45 28 Q48 34 52 44" stroke="#555" stroke-width="1.4" fill="#fff"/>
<path d="M88 44 Q86 38 90 30 Q92 26 95 28 Q92 34 88 44" stroke="#555" stroke-width="1.4" fill="#fff"/>
<path d="M60 40 Q67 50 70 52 Q73 50 80 40" stroke="#555" stroke-width="1.2" fill="none"/>
<line x1="55" y1="42" x2="51" y2="33" stroke="#555" stroke-width="1"/>
<line x1="85" y1="42" x2="89" y2="33" stroke="#555" stroke-width="1"/>
</svg>