<svg xmlns="http://www.w3.org/2000/svg" width="800" height="800" viewBox="0 0 800 800" version="1.1"><path d="M 331.500 178.098 C 289.910 179.232, 269.753 181.403, 249 186.985 C 233.703 191.099, 226.690 192.307, 208 194.049 C 191.931 195.546, 181.719 198.158, 171.627 203.350 C 166.552 205.962, 159.766 208.494, 155.234 209.467 C 140.454 212.640, 137.014 213.946, 132.526 218.083 C 129.887 220.515, 124.564 223.622, 118.854 226.062 C 112.016 228.985, 108.159 231.373, 104.502 234.948 C 101.751 237.638, 96.718 241.453, 93.317 243.427 C 88.433 246.263, 86.381 248.258, 83.547 252.923 C 81.574 256.171, 78.439 260.163, 76.581 261.795 C 72.459 265.414, 70.250 268.683, 68.925 273.127 C 67.438 278.114, 67.500 427.275, 68.992 434.463 C 69.770 438.208, 71.279 441.340, 73.701 444.237 C 75.661 446.582, 78.075 450.300, 79.065 452.500 C 80.055 454.700, 82.185 459.425, 83.798 463 C 85.412 466.575, 89 472.066, 91.772 475.201 C 94.544 478.337, 97.367 482.612, 98.045 484.701 C 99.734 489.906, 102.394 493.463, 106.495 495.997 C 108.665 497.338, 111.158 500.393, 113.182 504.190 C 115.090 507.769, 118.075 511.501, 120.482 513.316 C 122.723 515.004, 126.302 518.677, 128.436 521.477 C 130.570 524.276, 134.292 528.084, 136.706 529.937 C 139.121 531.791, 142.460 535.206, 144.126 537.527 C 145.793 539.847, 149.098 543.200, 151.472 544.979 C 153.845 546.757, 157.285 550.211, 159.114 552.653 C 160.944 555.095, 164.789 558.866, 167.659 561.032 C 170.529 563.199, 174.114 566.593, 175.626 568.576 C 177.137 570.558, 180.999 573.962, 184.206 576.140 C 187.414 578.318, 191.218 581.884, 192.661 584.064 C 194.151 586.315, 197.839 589.580, 201.198 591.621 C 204.451 593.597, 208.241 596.918, 209.619 599.001 C 211.157 601.325, 214.323 603.963, 217.813 605.830 C 220.941 607.503, 225.279 610.700, 227.453 612.936 C 229.627 615.171, 231.979 617, 232.680 617 C 233.380 617, 235.655 614.847, 237.736 612.215 C 239.816 609.584, 243.466 605.670, 245.848 603.519 C 248.636 600.999, 251.739 596.497, 254.566 590.869 C 257.597 584.833, 260.215 581.118, 263.032 578.854 C 265.765 576.658, 268.222 573.233, 270.483 568.468 C 272.836 563.509, 275.221 560.240, 278.367 557.663 C 281.524 555.076, 283.938 551.759, 286.419 546.602 C 288.909 541.424, 291.591 537.747, 295.445 534.224 C 305.021 525.473, 298.308 525.997, 400.428 526.022 C 504.063 526.047, 493.870 525.014, 505.168 536.639 C 509.533 541.130, 512.897 545.770, 514.907 550.072 C 517.186 554.952, 519.130 557.473, 522.456 559.861 C 525.741 562.220, 527.770 564.828, 530.070 569.646 C 531.852 573.381, 535.947 579.203, 539.562 583.143 C 544.144 588.135, 546.384 591.543, 547.581 595.341 C 549.559 601.615, 550.117 602.389, 556.169 607.250 C 558.736 609.313, 561.779 612.524, 562.930 614.387 C 566.341 619.907, 568.598 619.740, 574.439 613.537 C 577.223 610.582, 581.782 607.035, 584.570 605.656 C 587.575 604.170, 590.630 601.674, 592.070 599.528 C 593.407 597.536, 597.033 594.353, 600.128 592.455 C 603.224 590.556, 607.433 586.957, 609.482 584.456 C 611.532 581.955, 615.524 578.187, 618.354 576.081 C 621.184 573.976, 633.850 561.901, 646.500 549.249 C 678.664 517.080, 684.429 510.958, 687.955 505.227 C 689.656 502.463, 693.121 498.503, 695.656 496.425 C 698.706 493.927, 701.092 490.780, 702.707 487.128 C 704.050 484.091, 707.478 479.082, 710.324 475.997 C 713.994 472.019, 716.472 467.990, 718.841 462.151 C 720.679 457.622, 723.703 452.022, 725.560 449.708 C 730.750 443.243, 731.911 440.674, 732.976 433.308 C 733.552 429.327, 733.958 395.977, 733.954 353 C 733.948 285.536, 733.806 279.195, 732.224 275.789 C 729.318 269.532, 706.268 246.066, 698.673 241.632 C 695.029 239.505, 690.463 235.830, 688.525 233.465 C 686.271 230.715, 683.471 228.630, 680.751 227.679 C 678.413 226.860, 674.350 225.431, 671.721 224.502 C 669.093 223.573, 664.786 221.108, 662.150 219.025 C 655.014 213.384, 652.474 212.352, 639.944 210.008 C 630.789 208.294, 626.876 206.992, 620.382 203.499 C 609.012 197.383, 604.404 196.298, 580 193.992 C 555.670 191.693, 539.288 189.040, 530.500 185.977 C 521.438 182.819, 498.949 179.975, 475.500 179.022 C 440.198 177.587, 367.376 177.120, 331.500 178.098 M 358 188.123 C 343.975 188.568, 327.550 189.620, 321.500 190.462 C 308.966 192.206, 279.031 194, 262.453 194 C 251.159 194, 218.052 197.205, 212.500 198.837 C 210.850 199.321, 206.676 201.144, 203.225 202.886 C 195.915 206.577, 188.832 208.492, 177 209.977 C 160.310 212.073, 156.070 213.527, 147.959 219.938 C 143.544 223.428, 140.482 224.660, 126.842 228.436 C 122.168 229.730, 120.469 230.857, 117.069 234.918 C 114.244 238.291, 110.977 240.758, 106.654 242.781 C 101.717 245.091, 99.730 246.717, 97.463 250.301 C 95.872 252.815, 92.609 256.112, 90.212 257.628 C 84.127 261.474, 82.769 264.611, 82.852 274.633 C 82.966 288.293, 86.643 292.751, 96.845 291.597 C 101.838 291.032, 103.029 291.235, 105.327 293.043 C 107.290 294.587, 108 296.050, 108 298.554 C 108 302.951, 105.580 303.647, 97.551 301.555 C 92.072 300.128, 91.362 300.143, 88.064 301.756 C 86 302.766, 83.749 304.973, 82.715 307 C 81.046 310.273, 80.954 314.558, 81.296 373 C 81.615 427.325, 81.881 436.322, 83.327 441.781 C 85.544 450.149, 88.059 454.750, 92.822 459.156 C 95.630 461.753, 97.395 464.648, 98.920 469.156 C 101.381 476.432, 102.142 477.557, 107.155 481.337 C 109.348 482.991, 112.709 487.475, 115.557 492.551 C 118.588 497.950, 121.927 502.338, 124.793 504.686 C 127.261 506.709, 130.955 511.011, 133 514.247 C 135.344 517.953, 138.516 521.307, 141.578 523.314 C 144.736 525.385, 147.497 528.345, 149.468 531.771 C 151.486 535.278, 154.072 538.020, 157.199 539.966 C 160.341 541.922, 162.893 544.635, 164.905 548.158 C 167.113 552.024, 169.322 554.251, 173.207 556.529 C 176.281 558.332, 179.719 561.444, 181.408 563.953 C 183.007 566.330, 186.333 569.450, 188.798 570.887 C 191.263 572.324, 197.230 577.172, 202.058 581.660 C 206.885 586.147, 212.881 591.018, 215.382 592.484 C 217.883 593.949, 220.881 596.690, 222.046 598.575 C 224.806 603.040, 227.710 605, 231.568 605 C 235.323 605, 237.054 603.146, 239.504 596.500 C 240.647 593.401, 243.114 589.790, 245.995 587 C 249.363 583.739, 251.434 580.475, 253.520 575.146 C 255.911 569.036, 257.367 566.949, 262.122 562.813 C 266.488 559.015, 268.494 556.308, 270.581 551.397 C 272.746 546.303, 274.316 544.243, 278.103 541.522 C 281.913 538.784, 283.256 537.011, 284.694 532.818 C 287.992 523.203, 291.285 517.747, 294.941 515.841 C 299.811 513.301, 300.576 512.253, 302.484 505.500 C 304.505 498.347, 306.109 496.341, 311.757 493.903 C 316.073 492.039, 316.371 491.605, 319.559 482.500 C 320.759 479.073, 322.961 475.927, 326.558 472.500 C 332.499 466.840, 333.250 465.571, 334.956 458.298 C 336.223 452.899, 339.563 448.569, 343.351 447.417 C 347.004 446.306, 348.869 443.963, 350.462 438.483 C 352.007 433.167, 357.387 427, 360.478 427 C 363.173 427, 365.860 421.379, 369.011 409.149 C 369.771 406.198, 371.559 403.410, 374.566 400.488 C 377.005 398.118, 379 395.738, 379 395.200 C 379 394.662, 378.184 393.214, 377.186 391.982 C 375.810 390.283, 374.061 389.648, 369.936 389.350 C 366.946 389.135, 359.100 388.508, 352.500 387.959 C 345.900 387.409, 332.625 386.530, 323 386.006 C 301.320 384.827, 291.063 382.948, 279.500 378.039 C 270.369 374.162, 258.998 371.761, 244 370.542 C 227.336 369.187, 220 365.985, 220 360.066 C 220 356.348, 222.251 354.550, 231.951 350.520 C 236.475 348.641, 241.599 346.022, 243.338 344.700 C 251.199 338.725, 257.760 336.953, 283.112 333.958 C 303.555 331.543, 306.363 330.967, 316.290 327.144 C 326.222 323.319, 330.951 322.276, 346.500 320.479 C 364.861 318.357, 422.192 317.482, 450.657 318.890 C 475.491 320.117, 484.508 321.690, 493.845 326.421 C 499.597 329.336, 509.672 332.248, 522 334.558 C 532.683 336.561, 537.692 338.753, 543.216 343.845 C 546.204 346.599, 550.226 348.833, 555.972 350.930 C 564.623 354.088, 569 357.130, 569 359.987 C 569 362.431, 564.036 366.723, 559.260 368.408 C 556.943 369.226, 550.425 370.376, 544.774 370.965 C 530.665 372.435, 520.940 374.642, 511.500 378.517 C 496.707 384.589, 477.821 387.013, 444.326 387.136 C 424.087 387.211, 423.875 387.234, 420.951 389.695 C 418.652 391.629, 418 393.004, 418 395.915 C 418 399.931, 420.208 402.645, 425.197 404.764 C 428.764 406.278, 430.867 409.670, 433.949 418.876 C 436.352 426.055, 436.777 426.646, 441.288 429.080 C 446.886 432.101, 448.108 433.661, 450.442 440.769 C 452.135 445.920, 452.879 446.744, 459.951 451.294 C 462.958 453.228, 463.768 454.705, 466.243 462.771 C 468.787 471.057, 469.474 472.275, 472.792 474.384 C 478.303 477.886, 480.285 480.534, 482.500 487.347 C 484.297 492.875, 484.934 493.708, 488.776 495.553 C 495.193 498.635, 496.780 500.772, 498.395 508.500 C 499.430 513.454, 500.488 515.938, 502.016 517 C 509.085 521.912, 511.972 525.385, 514.511 532.028 C 516.627 537.565, 518.144 539.772, 522.136 543.114 C 525.464 545.901, 528.234 549.500, 530.477 553.955 C 532.632 558.234, 535.437 561.937, 538.303 564.285 C 541.431 566.848, 544.129 570.574, 547.309 576.722 C 549.805 581.550, 553.291 586.850, 555.053 588.500 C 556.816 590.150, 559.365 593.975, 560.717 597 C 564.039 604.435, 565.625 606, 569.833 606 C 572.860 606, 574.208 605.104, 579.428 599.617 C 582.767 596.106, 588.250 591.581, 591.611 589.561 C 594.972 587.540, 600.076 583.443, 602.953 580.456 C 605.830 577.469, 610.280 573.875, 612.842 572.469 C 615.626 570.943, 618.707 568.100, 620.500 565.405 C 622.257 562.763, 625.778 559.489, 629 557.502 C 632.457 555.370, 635.555 552.418, 637.341 549.557 C 639.147 546.661, 642.122 543.843, 645.511 541.816 C 649.003 539.727, 651.609 537.226, 653.069 534.564 C 656.034 529.156, 657.795 527.189, 662.145 524.424 C 664.150 523.150, 667.401 519.496, 669.371 516.304 C 671.341 513.112, 674.798 509.150, 677.053 507.501 C 679.773 505.511, 682.390 502.144, 684.827 497.501 C 686.859 493.628, 691.256 487.660, 694.668 484.143 C 699.109 479.566, 701.457 476.127, 703.052 471.860 C 704.627 467.649, 706.554 464.802, 709.708 462.026 C 714.844 457.505, 716.798 453.033, 719.985 438.500 C 722.106 428.832, 722.179 426.503, 722.208 368.296 C 722.237 310.790, 722.152 307.945, 720.325 304.796 C 719.273 302.983, 716.776 300.614, 714.777 299.530 L 711.142 297.560 704.684 299.716 C 701.133 300.902, 697.291 301.627, 696.147 301.328 C 691.745 300.177, 692.750 293.603, 697.511 292.408 C 698.861 292.069, 702.197 292.327, 704.924 292.982 C 711.187 294.484, 713.354 293.782, 716.082 289.367 C 718.027 286.220, 718.212 284.838, 717.783 276.634 C 717.518 271.573, 716.755 266.410, 716.087 265.163 C 715.419 263.915, 712.444 261.340, 709.475 259.441 C 706.014 257.227, 703.106 254.331, 701.372 251.371 C 699.016 247.351, 697.591 246.261, 690.345 242.929 C 685.477 240.690, 680.013 237.221, 677.178 234.570 C 671.717 229.462, 668.328 227.815, 658.650 225.571 C 651.088 223.817, 647.108 221.980, 642 217.885 C 637.357 214.163, 632.286 212.482, 619.844 210.541 C 600.930 207.591, 598.262 206.964, 587.728 202.994 C 573.499 197.632, 563.623 196.219, 528 194.451 C 511.225 193.618, 477.250 191.600, 452.500 189.967 C 405.815 186.886, 400.377 186.780, 358 188.123 M 112.750 306.080 C 111.787 306.641, 111 308.173, 111 309.485 C 111 316.355, 115.504 320, 123.996 320 C 128.072 320, 129.582 319.509, 131.545 317.545 C 134.585 314.506, 134.627 312.839, 131.750 309.503 C 128.421 305.644, 117.024 303.591, 112.750 306.080 M 670.905 307.013 C 665.419 307.940, 662.308 309.714, 661.633 312.297 C 660.432 316.889, 663.827 319, 672.416 319 C 681.895 319, 686 316.444, 686 310.541 C 686 306.340, 681.332 305.249, 670.905 307.013 M 144.125 323.875 C 141.393 326.607, 141.446 328.244, 144.379 331.655 C 146.480 334.097, 147.594 334.468, 153.882 334.824 C 162.473 335.309, 166.318 333.524, 165.810 329.286 C 165.314 325.145, 161.145 322.815, 153.217 322.248 C 147.066 321.808, 146.002 321.998, 144.125 323.875 M 403 324.027 C 400.525 324.526, 393.325 325.381, 387 325.926 C 380.675 326.471, 372.125 327.635, 368 328.513 C 363.875 329.390, 347.225 331.424, 331 333.032 C 291.317 336.965, 283.446 338.484, 274.649 343.901 C 272.917 344.968, 268.498 346.968, 264.828 348.346 C 256.357 351.527, 253.279 353.560, 251.384 357.225 C 250.017 359.868, 250.030 360.397, 251.519 362.670 C 254.464 367.164, 260.901 369.101, 277.898 370.606 C 298.737 372.452, 311.734 374.500, 328.253 378.541 C 346.842 383.087, 364.721 384.530, 400.500 384.371 C 431.963 384.231, 448.909 382.561, 469.527 377.567 C 484.401 373.965, 496.293 372.080, 511.179 370.966 C 528.727 369.652, 535.537 368.261, 539.102 365.261 C 544.260 360.920, 542.161 355.599, 533.254 350.442 C 530.639 348.929, 526.328 345.979, 523.674 343.888 C 516.404 338.162, 510.510 336.459, 487.973 333.576 C 476.713 332.135, 463.675 330.314, 459 329.529 C 430.956 324.821, 424.620 323.928, 416.500 323.544 C 411.550 323.310, 405.475 323.527, 403 324.027 M 634 323.709 C 631.145 324.759, 629 327.320, 629 329.680 C 629 332.858, 632.285 334, 641.430 334 C 647.301 334, 649.246 333.594, 651.365 331.927 C 654.377 329.558, 655.005 324.600, 652.418 323.607 C 650.484 322.865, 636.079 322.945, 634 323.709 M 178.113 340.708 C 175.216 343.053, 175.835 345.984, 179.789 348.646 C 183.560 351.185, 198.506 351.209, 202.362 348.682 C 205.536 346.603, 205.737 343.977, 202.920 341.427 C 201.241 339.908, 198.872 339.472, 190.660 339.168 C 181.772 338.839, 180.179 339.034, 178.113 340.708 M 595.198 341.131 C 586.667 345.354, 592.487 350.566, 604.457 349.423 C 612.929 348.614, 617.231 346.648, 616.822 343.771 C 616.148 339.023, 602.759 337.389, 595.198 341.131 M 392.045 410.917 C 391.210 412.476, 391.670 413.613, 394.509 417.011 C 397.316 420.370, 398 422.038, 398 425.517 C 398 430.419, 397.887 430.487, 384.532 433.548 C 380.699 434.426, 376.874 435.527, 376.032 435.993 C 375.189 436.460, 373.150 439.465, 371.500 442.671 C 369.060 447.412, 367.567 448.998, 363.500 451.166 C 356.495 454.901, 356.430 454.988, 353.561 464.393 C 350.935 473.002, 350.989 472.929, 342.202 479.672 C 340.215 481.198, 338.872 483.639, 337.697 487.867 C 336.024 493.883, 335.598 494.391, 328.118 499.287 C 325.631 500.915, 324.151 503.087, 322.525 507.500 C 321.308 510.800, 319.726 514.724, 319.009 516.220 C 317.501 519.369, 318.699 521.555, 322.787 523.109 C 324.111 523.612, 358.258 524.040, 400.143 524.078 C 467.857 524.138, 475.371 523.987, 477.619 522.514 C 481.332 520.081, 481.482 518.595, 478.805 510.705 C 476.837 504.903, 475.693 503.069, 472.931 501.287 C 471.044 500.069, 468.531 498.394, 467.348 497.564 C 466.164 496.733, 464.030 493.004, 462.605 489.277 C 460.288 483.216, 459.526 482.241, 455.397 480.052 C 450.438 477.424, 449.140 475.336, 446.532 465.800 C 445.484 461.970, 443.959 459.180, 441.883 457.300 C 433.476 449.684, 432.206 448.141, 430.525 443.500 C 428.288 437.327, 425.787 435, 421.389 435 C 416.774 435, 414.274 437.772, 413.565 443.678 C 413.247 446.330, 412.427 450.960, 411.743 453.967 C 410.625 458.886, 410.033 459.723, 405.851 462.299 C 399.293 466.339, 393.646 466.955, 390.476 463.977 C 385.195 459.016, 386.388 451.893, 393.570 445.500 C 397.174 442.292, 398.212 440.609, 398.810 437.002 C 399.493 432.875, 399.944 432.319, 404.277 430.262 L 409 428.019 409 422.464 C 409 416.183, 406.804 413.070, 400.523 410.445 C 395.834 408.486, 393.269 408.629, 392.045 410.917 M 400.917 481.657 C 400.046 481.891, 396.488 485.261, 393.010 489.145 C 387.471 495.333, 386.629 496.807, 386.223 501.030 C 385.821 505.212, 386.101 506.192, 388.334 508.425 C 390.616 510.707, 391.716 511, 397.987 511 C 405.997 511, 411.277 509.220, 413.040 505.925 C 413.701 504.691, 414.474 499.955, 414.758 495.401 C 415.269 487.207, 415.242 487.088, 412.214 484.060 C 409.236 481.082, 405.788 480.349, 400.917 481.657" stroke="none" fill="#444" fill-rule="evenodd"/></svg>