<svg xmlns="http://www.w3.org/2000/svg" width="50" height="50" viewBox="0 0 50 50" version="1.1">
	<path d="M 21.250 12.716 C 22.763 12.945, 25.238 12.945, 26.750 12.716 C 28.263 12.487, 27.025 12.300, 24 12.300 C 20.975 12.300, 19.738 12.487, 21.250 12.716 M 12.813 13.683 C 13.534 13.972, 14.397 13.936, 14.729 13.604 C 15.061 13.272, 14.471 13.036, 13.417 13.079 C 12.252 13.127, 12.015 13.364, 12.813 13.683 M 34.813 13.683 C 35.534 13.972, 36.397 13.936, 36.729 13.604 C 37.061 13.272, 36.471 13.036, 35.417 13.079 C 34.252 13.127, 34.015 13.364, 34.813 13.683 M 4.872 16.750 C 3.603 18.369, 3.650 18.390, 5.500 17.033 C 6.600 16.226, 7.688 15.439, 7.917 15.283 C 8.146 15.127, 7.863 15, 7.289 15 C 6.715 15, 5.627 15.787, 4.872 16.750 M 43.512 20.119 C 41.967 21.674, 41.892 21.979, 43.174 21.487 C 44.274 21.065, 44.983 21.462, 45.297 22.677 C 45.562 23.704, 45.819 23.081, 45.884 21.250 C 46.019 17.481, 46.097 17.518, 43.512 20.119 M 4 20 C 4 20.550, 4.477 21, 5.059 21 C 5.641 21, 5.840 20.550, 5.500 20 C 5.160 19.450, 4.684 19, 4.441 19 C 4.198 19, 4 19.450, 4 20 M 38.813 22.683 C 39.534 22.972, 40.397 22.936, 40.729 22.604 C 41.061 22.272, 40.471 22.036, 39.417 22.079 C 38.252 22.127, 38.015 22.364, 38.813 22.683 M 13.813 23.683 C 14.534 23.972, 15.397 23.936, 15.729 23.604 C 16.061 23.272, 15.471 23.036, 14.417 23.079 C 13.252 23.127, 13.015 23.364, 13.813 23.683 M 33.750 23.662 C 34.438 23.940, 35.563 23.940, 36.250 23.662 C 36.938 23.385, 36.375 23.158, 35 23.158 C 33.625 23.158, 33.063 23.385, 33.750 23.662 M 23.250 24.689 C 24.212 24.941, 25.788 24.941, 26.750 24.689 C 27.712 24.438, 26.925 24.232, 25 24.232 C 23.075 24.232, 22.288 24.438, 23.250 24.689 M 19.232 35 C 19.232 36.925, 19.438 37.712, 19.689 36.750 C 19.941 35.788, 19.941 34.212, 19.689 33.250 C 19.438 32.288, 19.232 33.075, 19.232 35 M 14.750 37.662 C 15.438 37.940, 16.563 37.940, 17.250 37.662 C 17.938 37.385, 17.375 37.158, 16 37.158 C 14.625 37.158, 14.063 37.385, 14.750 37.662 M 30.269 37.693 C 31.242 37.947, 32.592 37.930, 33.269 37.656 C 33.946 37.382, 33.150 37.175, 31.500 37.195 C 29.850 37.215, 29.296 37.439, 30.269 37.693" stroke="none" fill="#555555" fill-rule="evenodd"/>
</svg>