<svg xmlns="http://www.w3.org/2000/svg" width="800" height="800" viewBox="0 0 800 800" version="1.1"><path d="M 388.500 232.073 C 364.722 232.848, 338.163 235.045, 322.500 237.534 C 311.761 239.240, 296.252 240.576, 270.500 242.013 C 241.656 243.622, 230.608 245.369, 216.929 250.486 C 204.321 255.202, 200.959 255.956, 179.014 258.981 C 164.222 261.021, 163.087 261.404, 150 268.779 C 146.812 270.576, 139.975 272.948, 133.733 274.422 C 121.428 277.329, 118.686 278.556, 114.500 283.023 C 112.850 284.784, 108.333 287.680, 104.463 289.458 C 96.690 293.030, 85.528 303.260, 82.546 309.545 C 79.954 315.008, 77.922 326.428, 77.582 337.445 C 77.411 342.975, 76.755 361.450, 76.125 378.500 C 75.494 395.550, 74.784 420.975, 74.548 435 C 74.311 449.025, 73.539 464.775, 72.831 470 C 70.749 485.370, 70.966 487.353, 75.211 491.728 C 77.224 493.803, 80.363 498.200, 82.187 501.500 C 84.970 506.536, 86.353 507.915, 90.796 510.082 C 93.708 511.502, 98.207 514.712, 100.795 517.216 C 106.518 522.754, 108.115 523.606, 119.294 527.087 C 125.284 528.952, 129.770 531.123, 133.360 533.892 C 140.032 539.039, 144.208 540.489, 159.866 543.097 C 169.843 544.758, 174.506 546.120, 182.038 549.570 C 196.113 556.016, 201.743 556.994, 239.500 559.548 C 252.150 560.404, 268.350 561.960, 275.500 563.007 C 310.796 568.173, 349.818 569.792, 398.500 568.113 C 438.719 566.725, 455.237 565.603, 473.500 563.019 C 481.200 561.929, 499.425 560.342, 514 559.493 C 545.323 557.667, 560.009 555.744, 568.949 552.297 C 584.410 546.335, 589.272 545.012, 603 543.033 C 621.730 540.332, 623.087 539.927, 631.976 534.387 C 637.964 530.655, 641.845 529.139, 651.476 526.774 C 662.585 524.046, 670 520.956, 670 519.054 C 670 517.290, 678.144 512.825, 686.530 509.990 C 693.907 507.496, 696.346 506.110, 700.485 502.061 C 703.243 499.362, 708.069 495.950, 711.210 494.479 C 714.754 492.818, 718.262 490.165, 720.460 487.483 C 722.407 485.107, 725.586 482.183, 727.524 480.985 C 734.381 476.747, 734.050 481.641, 733.431 393.809 C 733.124 350.189, 732.655 313.438, 732.390 312.141 C 732.124 310.844, 729.773 307.469, 727.164 304.641 C 724.555 301.813, 721.172 297.804, 719.645 295.732 C 718.033 293.542, 714.489 290.752, 711.185 289.072 C 708.058 287.482, 703.925 284.528, 702 282.508 C 697.420 277.703, 697.144 277.573, 683.866 273.971 C 675.687 271.753, 670.748 269.750, 666.252 266.828 C 657.936 261.424, 655.178 260.591, 637 257.993 C 621.231 255.740, 615.420 254.240, 604.210 249.531 C 593.370 244.977, 584.807 243.846, 539.500 240.987 C 530.150 240.397, 517.775 239.260, 512 238.460 C 490.011 235.416, 465.795 233.024, 447 232.040 C 425.979 230.940, 423.247 230.941, 388.500 232.073 M 328.500 243.022 C 299.137 243.914, 279.068 246.276, 260.500 251.025 C 241.507 255.883, 237.297 256.599, 216.500 258.508 C 197.112 260.289, 191.091 261.720, 182.173 266.671 C 174.298 271.044, 172.718 271.513, 155.689 274.549 C 141.268 277.120, 137.818 278.334, 134.499 282.001 C 131.459 285.360, 125.295 288.527, 117.023 290.979 C 110.340 292.960, 108.801 293.924, 102.523 300.062 C 98.660 303.839, 93.604 308.286, 91.286 309.945 C 86.663 313.253, 84.539 316.608, 83.474 322.285 C 82.190 329.133, 83.585 332.705, 89.090 336.660 C 92.331 338.989, 94.847 341.849, 96.287 344.843 C 98.369 349.173, 98.885 349.557, 105 351.314 C 112.280 353.407, 115.605 355.924, 116.505 360.022 C 117.659 365.278, 120.024 366.318, 132.564 367.086 C 146.115 367.915, 153.215 370.631, 156.397 376.205 C 160.032 382.571, 161.125 382.953, 175.789 382.978 C 200.621 383.019, 219.081 386.518, 226.217 392.535 C 233.296 398.503, 232.802 398.442, 279.500 399.176 C 303.150 399.547, 327.900 400.301, 334.500 400.850 C 350.822 402.208, 438.138 402.244, 449.500 400.898 C 454.450 400.311, 480.325 399.699, 507 399.536 C 541.274 399.328, 556.380 398.895, 558.500 398.061 C 560.150 397.412, 563.170 395.259, 565.211 393.276 C 568.499 390.082, 570.322 389.340, 581.211 386.771 C 591.927 384.242, 596.114 383.799, 613.925 383.306 C 636.436 382.683, 635.192 383.050, 640.384 375.506 C 643.336 371.217, 649.465 369.150, 664.025 367.534 C 678.506 365.927, 679.757 365.353, 683.116 358.771 C 685.256 354.579, 688.541 352.542, 695.648 351.004 C 703.378 349.330, 705.577 348.109, 707.275 344.550 C 708.151 342.713, 710.906 339.506, 713.398 337.423 C 718.919 332.808, 721.007 327.934, 720.978 319.730 C 720.934 307.225, 713.860 298.159, 698.508 290.932 C 692.966 288.323, 687.161 284.793, 685.500 283.021 C 681.036 278.260, 678.020 277.053, 662.909 273.981 C 651.457 271.654, 647.746 270.422, 640.822 266.650 C 630.635 261.100, 627.341 260.335, 605.650 258.479 C 583.702 256.602, 582.127 256.341, 572.300 252.964 C 554.241 246.757, 537.908 244.655, 495 243.015 C 467.828 241.977, 362.795 241.981, 328.500 243.022 M 87.180 359.283 C 84.334 362.712, 84.026 367.956, 83.512 421.757 C 83.218 452.415, 82.766 479.300, 82.507 481.500 C 81.796 487.526, 83.842 491.931, 89.242 496.006 C 91.850 497.974, 95.341 501.430, 97 503.686 C 99.665 507.309, 106.998 512, 109.998 512 C 110.559 512, 113.688 514.455, 116.952 517.455 C 123.214 523.213, 125.409 524.119, 141.251 527.488 C 146.572 528.620, 150.648 530.245, 154.251 532.671 C 157.138 534.614, 160.769 536.861, 162.319 537.664 C 165.958 539.547, 177.228 541.669, 188 542.499 C 201.332 543.526, 207.508 544.797, 222 549.492 C 232.151 552.781, 238.849 554.257, 249 555.442 C 267.369 557.585, 310.976 559.340, 314.318 558.069 C 319.907 555.944, 319.978 555.390, 319.015 521.450 C 318.499 503.266, 318.507 480.476, 319.034 466.450 C 320.519 426.973, 320.416 423.595, 317.628 420.354 L 315.255 417.596 284.878 417.465 C 245.650 417.295, 232.099 415.102, 222.926 407.438 C 216.924 402.424, 212.762 401.610, 194.385 401.857 C 169.980 402.184, 158.846 399.340, 154.030 391.549 C 152.891 389.706, 151.181 387.885, 150.230 387.501 C 149.278 387.118, 142.332 386.237, 134.793 385.545 C 119.563 384.146, 116.744 383.025, 114.411 377.442 C 112.758 373.486, 109.962 371.480, 104.851 370.586 C 100.358 369.800, 96.630 366.959, 93.421 361.875 C 90.886 357.859, 89.009 357.079, 87.180 359.283 M 708.699 362.510 C 704.839 367.348, 702.337 368.794, 694.385 370.783 C 687.947 372.393, 687.370 372.772, 685.120 376.868 C 681.540 383.383, 676.853 385.106, 661.103 385.696 C 645.231 386.291, 642.610 387.074, 639.387 392.178 C 634.519 399.891, 624.080 402.236, 596.604 401.792 C 576.871 401.474, 575.284 401.814, 570 407.500 C 566.555 411.207, 563.212 412.777, 555.289 414.410 C 540.173 417.526, 524.320 418.209, 482.500 417.546 C 459.950 417.188, 419.518 416.778, 392.650 416.633 C 346.233 416.382, 343.682 416.462, 341.424 418.238 C 336.883 421.811, 336.684 425.075, 338.028 473.940 C 339.042 510.820, 339.035 522.443, 337.989 535.637 C 336.818 550.415, 336.850 552.123, 338.350 554.412 C 341.508 559.230, 342.464 559.353, 374.998 559.093 C 422.104 558.716, 484.138 557.186, 498.109 556.055 C 513.120 554.840, 529.895 551.744, 539.351 548.443 C 547.896 545.460, 553.478 544.472, 573 542.486 C 592.381 540.515, 594.234 540.041, 606.508 533.924 C 614.474 529.953, 618.724 528.537, 627.338 526.984 C 642.835 524.189, 645.701 523.133, 652.411 517.748 C 656.193 514.713, 660.360 512.396, 663.702 511.469 C 666.616 510.661, 671.520 509.299, 674.600 508.443 C 678.957 507.232, 681.349 505.733, 685.371 501.693 C 688.879 498.169, 692.251 495.895, 695.859 494.618 C 699.346 493.384, 702.989 490.974, 706.442 487.618 C 709.339 484.803, 713.783 480.568, 716.317 478.206 C 721.610 473.275, 722.723 469.640, 721.179 462.321 C 720.530 459.241, 720.360 441.969, 720.710 414.500 C 721.284 369.306, 720.980 364.980, 716.947 360.947 C 714.116 358.116, 711.865 358.542, 708.699 362.510 M 420.853 492.423 C 419.358 495.705, 420.605 501.718, 423.052 503.028 C 424.728 503.925, 425.176 503.668, 426.083 501.290 C 426.668 499.756, 426.861 496.587, 426.512 494.250 C 426.014 490.911, 425.457 490, 423.917 490 C 422.813 490, 421.475 491.059, 420.853 492.423" stroke="none" fill="#444" fill-rule="evenodd"/></svg>