<svg xmlns="http://www.w3.org/2000/svg" width="1000" height="1000" viewBox="0 0 1000 1000" version="1.1"><path d="M 327.945 199.374 C 327.700 199.610, 315.800 200.531, 301.500 201.421 C 252.502 204.470, 242.287 206.099, 226.961 213.309 C 215.761 218.577, 207.700 221.186, 195.633 223.447 C 183.557 225.710, 176.774 228.433, 170.513 233.532 C 164.319 238.577, 159.249 241.318, 152.994 243 C 146.350 244.788, 143.427 246.556, 136.578 252.927 C 133.178 256.091, 126.446 261.093, 121.619 264.042 C 112.378 269.690, 111.516 270.545, 101.677 283.854 C 90.131 299.470, 88.157 302.883, 87.504 308.354 C 87.167 311.184, 87.028 354.450, 87.195 404.500 L 87.500 495.500 90.392 501.500 C 91.983 504.800, 94.044 508.400, 94.973 509.500 C 98.006 513.091, 100.924 518.929, 102.604 524.769 C 105.118 533.505, 107.489 537.450, 113.031 542.123 C 117.214 545.650, 119.128 548.498, 124.003 558.448 C 129.177 569.010, 130.562 571.002, 135.204 574.561 C 139.157 577.593, 141.364 580.350, 143.906 585.432 C 146.301 590.219, 148.476 593.022, 151.232 594.871 C 158.182 599.534, 161.970 603.135, 163.651 606.677 C 165.724 611.046, 169.894 615.247, 174.180 617.283 C 178.252 619.219, 181.972 623.143, 185.032 628.732 C 187.108 632.525, 193.506 638, 195.863 638 C 196.861 638, 201.367 643.118, 206.306 649.861 C 208.099 652.308, 211.694 655.407, 214.500 656.923 C 217.866 658.742, 221.076 661.728, 224.324 666.062 C 227.574 670.399, 230.903 673.496, 234.527 675.553 C 241.151 679.312, 243.417 681.318, 247.145 686.721 C 249.253 689.778, 252.434 692.261, 258.676 695.721 C 263.495 698.393, 270.501 703.486, 274.566 707.273 C 278.566 710.998, 285.362 715.988, 289.669 718.361 C 295.196 721.406, 298.579 724.093, 301.166 727.494 C 305.200 732.796, 312.192 738, 315.281 738 C 316.407 738, 320.173 740.965, 324.017 744.878 C 329.338 750.295, 333.115 752.973, 341.787 757.479 C 349.787 761.636, 354.182 764.659, 357.851 768.530 C 361.475 772.354, 365.284 774.990, 371.340 777.867 C 377.925 780.996, 380.820 783.083, 384.523 787.373 C 392.734 796.883, 409.658 802.350, 420.101 798.866 C 424.495 797.400, 429.691 792.477, 430.964 788.572 C 431.516 786.882, 432.887 771.100, 434.011 753.500 C 435.136 735.900, 436.290 720.740, 436.576 719.812 C 436.862 718.883, 437.514 705.158, 438.024 689.312 C 439.149 654.406, 441.151 631.543, 443.475 627.049 C 446.588 621.028, 455.130 618.570, 478.012 617.110 C 496.238 615.947, 504.092 613.863, 512.047 608.082 C 522.227 600.683, 525.167 599.704, 538.500 599.273 C 552.937 598.806, 556.187 600.001, 559.707 607.068 C 561.777 611.226, 561.976 613.573, 562.929 645 C 563.856 675.578, 566.238 715.827, 567.486 722 C 567.765 723.375, 568.443 730.800, 568.994 738.500 C 569.908 751.272, 571.379 763.485, 574.114 781 C 575.392 789.181, 578.214 794.923, 582.351 797.757 C 587.406 801.221, 590.980 801.479, 599.168 798.973 C 609.795 795.720, 613.240 793.707, 618.316 787.784 C 622.838 782.507, 624.387 781.475, 635.298 776.469 C 638.487 775.006, 643.597 771.502, 646.655 768.683 C 654.537 761.413, 657.115 759.663, 665.278 756.042 C 671.047 753.483, 673.347 751.770, 676.712 747.525 C 679.928 743.468, 682.699 741.334, 688.431 738.502 C 694.091 735.705, 697.272 733.273, 701.359 728.617 C 705.476 723.928, 708.997 721.247, 715.995 717.471 C 721.702 714.393, 727.647 710.154, 731.609 706.338 C 735.128 702.950, 741.299 698.370, 745.322 696.162 C 750.645 693.241, 753.402 690.971, 755.450 687.824 C 758.835 682.623, 762.305 679.499, 766.986 677.439 C 771.367 675.511, 774.539 672.599, 777.761 667.546 C 780.845 662.711, 783.166 660.653, 789 657.584 C 794.087 654.907, 795.759 653.207, 798.914 647.500 C 801.032 643.669, 803.287 641.652, 811 636.685 C 812.925 635.446, 815.949 632.197, 817.719 629.466 C 821.083 624.278, 827.517 618, 829.470 618 C 831.010 618, 836.416 612.198, 838.323 608.500 C 840.528 604.222, 844.487 600.302, 848.852 598.075 C 852.270 596.332, 858 589.708, 858 587.500 C 858 585.351, 863.509 578.966, 868.015 575.891 C 872.214 573.025, 873.495 571.297, 876.852 563.970 C 879.601 557.967, 882.684 553.315, 887.139 548.440 C 893.231 541.775, 895.782 537.316, 899.615 526.633 C 900.579 523.945, 903.523 519.400, 906.190 516.482 C 911.287 510.905, 913.313 507.029, 914.952 499.713 C 915.576 496.932, 916.014 459.955, 916.114 401.837 C 916.297 294.840, 917.444 306.667, 905.689 294.301 C 886.020 273.609, 876.976 265.329, 870.472 262.061 C 866.092 259.860, 862.379 256.989, 859.300 253.422 C 854.192 247.506, 851.090 245.729, 840.987 242.929 C 833.724 240.917, 827.376 237.564, 819.623 231.646 C 814.280 227.567, 808.635 225.686, 793.748 223.024 C 783.620 221.213, 778.802 219.634, 761.788 212.549 C 747.595 206.639, 733.120 204.139, 706.352 202.976 C 693.621 202.423, 678.321 201.458, 672.352 200.832 C 661.918 199.738, 329.027 198.328, 327.945 199.374 M 361.500 203.071 C 339.500 203.457, 317.900 204.244, 313.500 204.820 C 280.922 209.085, 275.513 210.143, 266.314 214.051 C 254.150 219.218, 244.688 221.535, 226 223.920 C 207.165 226.325, 201.073 228.251, 193.399 234.228 C 186.486 239.612, 182.228 241.516, 173.720 243.029 C 164.400 244.685, 157.501 248.285, 149.895 255.460 C 145.085 259.998, 141.795 262.244, 138.781 263.046 C 131.505 264.983, 127.710 267.773, 123.500 274.283 C 120.584 278.792, 118.216 281.150, 114.762 282.984 C 105.949 287.664, 105.486 288.565, 105.601 300.787 C 105.713 312.611, 107.327 317.719, 112.054 321.211 C 114.243 322.828, 115.244 322.952, 119.054 322.073 C 130.938 319.335, 136.572 321.627, 139.310 330.315 C 141.557 337.443, 142.912 338.751, 148.762 339.436 C 164.623 341.294, 172.046 345.153, 173.896 352.503 C 174.510 354.941, 175.797 357.339, 176.756 357.831 C 177.715 358.323, 182.885 359, 188.244 359.336 C 208.462 360.601, 216.560 364.300, 217.698 372.788 C 218.501 378.771, 215.991 380.021, 201.804 380.701 C 184.419 381.535, 177.069 378.384, 175.440 369.400 C 175.051 367.255, 174.109 364.268, 173.347 362.762 L 171.961 360.025 163.037 360.658 C 147.783 361.741, 141.286 358.530, 138.940 348.750 C 137.619 343.244, 137.617 343.243, 122.967 338.460 C 112.548 335.059, 110.042 335.469, 106.252 341.194 L 103.500 345.350 103.247 368.925 C 103.108 381.891, 103.406 417.925, 103.911 449 C 104.982 515.066, 104.711 513.096, 113.962 521.980 C 119.949 527.729, 121.911 530.780, 123.941 537.500 C 127.311 548.654, 129.196 552.031, 133.441 554.518 C 139.213 557.901, 141.497 560.600, 144.004 567 C 146.524 573.434, 148.074 575.358, 153.500 578.787 C 158.583 581.998, 160.796 584.494, 162.999 589.500 C 164.918 593.861, 167.104 596.088, 174.054 600.763 C 176.558 602.448, 179.933 605.763, 181.554 608.130 C 184.878 612.986, 187.612 615.647, 193.731 619.985 C 196.058 621.635, 199.181 624.901, 200.672 627.242 C 203.858 632.248, 209.007 638, 210.302 638 C 212.327 638, 219.051 644.362, 221.873 648.948 C 224.056 652.497, 226.596 654.839, 231.154 657.511 C 238.045 661.549, 239.265 662.743, 243.090 669.187 C 244.978 672.368, 247.288 674.408, 251.618 676.716 C 259.034 680.669, 260.842 682.290, 264.543 688.309 C 266.993 692.293, 268.741 693.719, 274.736 696.622 C 280.115 699.227, 283.278 701.627, 287.058 705.973 C 291.101 710.621, 293.906 712.665, 300.748 715.948 C 307.659 719.264, 310.890 721.633, 317.160 727.979 C 323.418 734.313, 326.135 736.306, 330.856 738.028 C 336.931 740.243, 340.147 742.784, 345.744 749.791 C 348.098 752.736, 350.570 754.425, 354.744 755.938 C 363.276 759.030, 365.889 760.671, 372.500 767.091 C 376.593 771.066, 380.958 774.050, 386.236 776.482 C 393.235 779.708, 402 786.807, 402 789.249 C 402 789.715, 403.191 791.199, 404.646 792.548 C 407.994 795.651, 412.089 795.687, 415.626 792.645 C 418.355 790.298, 418.365 790.245, 418.548 775.895 C 418.912 747.405, 421.156 725.502, 426.991 693.500 C 431.937 666.368, 432.983 658.245, 434.006 639 C 434.606 627.725, 435.511 615.800, 436.018 612.500 C 439.851 587.562, 440.302 579.313, 440.422 532 C 440.559 477.708, 440.869 474.911, 447.969 463.927 C 454.858 453.267, 453.076 447.714, 441.900 445.015 C 439.480 444.430, 427.825 443.527, 416 443.007 C 387.173 441.740, 379.635 440.372, 359.491 432.756 C 343.383 426.665, 336.460 425.262, 316.469 424.033 C 285.268 422.115, 274.015 417.281, 274.004 405.789 C 274 401.836, 276.953 398, 279.999 398 C 283.673 398, 294.487 392.806, 298.486 389.120 C 300.843 386.947, 304.060 384.511, 305.636 383.707 C 310.199 381.376, 321.316 379.243, 337.774 377.541 C 359.081 375.338, 371.559 372.721, 385.500 367.533 C 392.100 365.076, 400.425 362.401, 404 361.588 C 425.073 356.796, 525.017 354.440, 578 357.487 C 607.620 359.191, 614.718 360.704, 629.832 368.538 C 640.082 373.851, 654.052 377.946, 662.068 377.987 C 669.065 378.023, 675.166 381.069, 682.153 388.015 C 687.214 393.046, 690.539 395.432, 694.610 396.955 C 705.675 401.095, 711 405.175, 711 409.511 C 711 413.033, 707.101 417.065, 701.151 419.697 C 696.823 421.611, 692.246 422.434, 679.579 423.575 C 651.142 426.137, 637.896 429.004, 626.962 434.962 C 618.617 439.509, 605.715 441.773, 581.828 442.881 C 567.557 443.543, 566.940 443.663, 562.790 446.574 C 558.787 449.381, 558.480 449.929, 558.199 454.750 C 558.034 457.593, 558.596 462.268, 559.449 465.141 C 561.546 472.203, 561.516 500.088, 559.390 520.241 C 557.537 537.805, 557.969 554.178, 560.466 561 C 563.475 569.220, 565.762 584.620, 567.959 611.455 C 568.456 617.530, 569.770 628.125, 570.880 635 C 579.858 690.644, 582.901 723.194, 583.349 768.369 L 583.576 791.238 586.344 793.619 C 591.268 797.855, 596.448 796.107, 601.970 788.349 C 606.957 781.341, 606.139 781.885, 623.640 773.932 C 625.917 772.897, 630.224 769.548, 633.210 766.489 C 637.287 762.313, 640.439 760.196, 645.869 757.986 C 654.887 754.317, 655.849 753.635, 660.713 747.482 C 663.601 743.829, 666.914 741.282, 673.057 737.994 C 677.960 735.370, 684.791 730.470, 689.477 726.218 C 694.643 721.529, 699.934 717.812, 704.336 715.780 C 709.827 713.246, 712.044 711.492, 715.602 706.867 C 718.915 702.561, 721.605 700.330, 726.266 698.021 C 733.915 694.233, 735.800 692.687, 739.474 687.191 C 741.390 684.323, 744.650 681.541, 749.214 678.875 C 753.784 676.206, 757.547 672.992, 760.485 669.248 C 762.912 666.156, 767.283 662.126, 770.199 660.291 C 779.662 654.336, 832.399 602.708, 838.732 593.198 C 840.674 590.283, 845.171 585.333, 848.726 582.198 C 852.660 578.730, 856.723 573.879, 859.108 569.802 C 861.619 565.510, 864.674 561.922, 867.612 559.812 C 872.627 556.210, 875.884 551.264, 878.418 543.400 C 879.549 539.890, 882.046 536.096, 886.429 531.230 C 893.928 522.904, 895.870 518.334, 899.474 500.532 L 902.025 487.933 902.212 423.717 C 902.315 388.397, 902.357 356.308, 902.306 352.406 C 902.183 343.100, 900.301 339.463, 894.214 336.770 L 889.569 334.716 880.035 337.821 C 874.791 339.529, 868.536 341.034, 866.136 341.165 C 861.391 341.425, 860.968 341.931, 859.010 349.696 C 858.414 352.058, 856.859 354.753, 855.451 355.860 C 852.099 358.497, 841.405 360.233, 831 359.829 L 822.500 359.500 822.176 356.112 C 821.681 350.926, 822.705 348.326, 826.335 345.558 C 829.253 343.332, 831.219 342.895, 842.578 341.945 C 860.743 340.425, 859.471 340.941, 860.910 334.511 C 863.287 323.892, 868.724 320.795, 881.447 322.815 C 889.030 324.019, 892.178 322.947, 894.334 318.426 C 896.544 313.791, 896.553 300.942, 894.350 294.122 C 892.849 289.473, 892.122 288.677, 886.257 285.257 C 881.462 282.461, 878.584 279.813, 875.009 274.906 C 870.714 269.011, 869.479 268.019, 863.352 265.546 C 859.584 264.025, 854.710 262.042, 852.523 261.140 C 850.335 260.238, 845.835 256.976, 842.523 253.891 C 834.920 246.809, 831.787 245.223, 821.661 243.332 C 811.472 241.428, 805.230 238.847, 797.290 233.255 C 790.287 228.323, 782.806 225.855, 769.490 224.082 C 764.546 223.423, 756.900 222.403, 752.500 221.814 C 748.100 221.225, 739.325 219.170, 733 217.247 C 711.347 210.665, 703.475 208.993, 682 206.419 C 662.307 204.058, 655.499 203.770, 601 202.983 C 532.938 202, 420.182 202.042, 361.500 203.071 M 501.821 361.512 C 501.540 361.794, 493.244 362.418, 483.386 362.900 C 470.978 363.507, 463.007 364.412, 457.481 365.841 C 433.350 372.081, 420.422 374.364, 400 375.992 C 374.859 377.996, 357.533 380.068, 348.767 382.117 C 341.427 383.833, 338.556 385.154, 330.768 390.395 C 316.241 400.172, 311.900 407.789, 317.092 414.390 C 321.350 419.803, 328.801 421.640, 352 422.996 C 373.081 424.228, 392.488 426.421, 404 428.871 C 423.668 433.056, 434.948 435.041, 442.103 435.575 C 451.954 436.311, 455.521 438.383, 456.961 444.204 C 459.424 454.159, 460.242 456.240, 462.836 459.142 C 464.905 461.458, 466.678 462.322, 470.164 462.715 C 479.010 463.712, 487.377 459.295, 494.989 449.609 C 501.941 440.762, 504.289 439.841, 522.420 438.850 C 530.626 438.402, 541.651 437.337, 546.920 436.483 C 552.189 435.630, 559.650 434.456, 563.500 433.876 C 567.350 433.295, 575.225 431.765, 581 430.476 C 598.469 426.577, 609.469 425.094, 632.500 423.533 C 662.565 421.495, 670.176 419.947, 674.858 414.922 C 677.543 412.040, 677.665 406.529, 675.129 402.683 C 674.108 401.133, 669.812 396.308, 665.584 391.960 C 658.364 384.534, 657.404 383.899, 649.781 381.491 C 644.556 379.840, 635.404 378.231, 624.083 376.973 C 604.388 374.784, 593.655 372.899, 587 370.461 C 575.702 366.322, 568.139 364.814, 549.500 362.987 C 531.046 361.177, 503.023 360.311, 501.821 361.512 M 792 362.089 C 789.525 362.567, 786.508 363.483, 785.295 364.124 C 782.196 365.762, 779.713 371.417, 780.506 375.029 C 781.483 379.477, 786.675 380.589, 799.807 379.164 C 811.348 377.912, 815.193 376.221, 817.484 371.393 C 819.829 366.452, 819.458 363.125, 816.435 361.975 C 813.355 360.804, 798.286 360.874, 792 362.089 M 235.066 382.194 C 229.877 382.671, 225.039 383.553, 224.316 384.153 C 222.674 385.515, 222.654 390.970, 224.282 393.075 C 227.029 396.627, 230.736 397.914, 241.308 398.985 C 254.141 400.285, 262.514 399.205, 265.250 395.895 C 267.597 393.056, 267.461 391.701, 264.472 388.149 C 259.766 382.556, 250.827 380.746, 235.066 382.194 M 742 382.930 C 731.320 385.065, 726.412 392.337, 732.750 396.635 C 735.071 398.209, 737.451 398.500, 748 398.500 C 759.333 398.500, 760.967 398.267, 765.500 396 C 774.452 391.524, 774.633 385.658, 765.892 383.330 C 761.082 382.050, 747.538 381.823, 742 382.930 M 518 455.564 C 511.493 458.956, 504.271 461.824, 499.011 463.104 C 488.143 465.748, 485.521 467.358, 481.965 473.566 C 478.530 479.564, 476.698 481.345, 470.931 484.294 C 462.757 488.474, 462.611 488.979, 461.836 515.809 C 461.459 528.839, 460.666 550.223, 460.072 563.329 C 459.169 583.279, 459.226 588.162, 460.425 593.329 C 462.458 602.091, 463.616 604.740, 466.636 607.538 C 470.214 610.854, 473.694 610.664, 482.316 606.681 C 490.392 602.950, 494.903 601.685, 510 598.914 C 526.412 595.903, 532.634 593.510, 535.562 589.086 C 538.589 584.511, 542 575.036, 542 571.199 C 542 566.909, 538.332 563.999, 532.936 564.007 C 527.825 564.014, 525.224 565.537, 518.852 572.250 C 514.700 576.623, 513.964 577, 509.570 577 C 505.700 577, 502.877 575.970, 494.649 571.556 C 477.485 562.349, 474.331 557.312, 475.301 540.658 C 476.400 521.785, 478.271 519.363, 495.500 514.509 C 498.800 513.579, 502.534 512.410, 503.797 511.909 C 508.326 510.116, 513.204 510.929, 519.853 514.584 C 528.487 519.329, 534.152 519.687, 537.579 515.703 C 541.161 511.539, 541.466 508.714, 539.493 497.962 C 538.039 490.038, 537.803 484.966, 538.240 471.083 L 538.778 453.971 536.254 451.985 C 532.451 448.994, 529.486 449.575, 518 455.564" stroke="none" fill="#444" fill-rule="evenodd"/></svg>