<svg xmlns="http://www.w3.org/2000/svg" width="50" height="50" viewBox="0 0 50 50" version="1.1">
	<path d="M 43.750 18.998 C 44.438 19.769, 45 22.759, 45 25.643 C 45 29.928, 44.594 31.171, 42.777 32.443 C 41.555 33.299, 41.035 34, 41.623 34 C 45.775 34, 47.919 21.697, 44.250 18.921 C 42.761 17.794, 42.687 17.806, 43.750 18.998 M 4.189 25.095 C 4.043 29.410, 4.418 31.069, 5.829 32.345 C 6.835 33.255, 8.060 34, 8.551 34 C 9.043 34, 8.467 33.315, 7.272 32.478 C 5.565 31.282, 5.021 29.725, 4.738 25.228 L 4.378 19.500 4.189 25.095 M 15.250 25.689 C 16.212 25.941, 17.788 25.941, 18.750 25.689 C 19.712 25.438, 18.925 25.232, 17 25.232 C 15.075 25.232, 14.287 25.438, 15.250 25.689 M 31.762 25.707 C 33.006 25.946, 34.806 25.937, 35.762 25.687 C 36.718 25.437, 35.700 25.241, 33.500 25.252 C 31.300 25.263, 30.518 25.468, 31.762 25.707 M 24 31.937 C 24 34.500, 23.587 34.924, 20.750 35.277 C 18.962 35.498, 20.650 35.685, 24.500 35.690 C 28.350 35.696, 30.262 35.513, 28.750 35.284 C 26.470 34.938, 26 34.366, 26 31.934 C 26 30.320, 25.550 29, 25 29 C 24.450 29, 24 30.321, 24 31.937 M 11.750 34.662 C 12.438 34.940, 13.563 34.940, 14.250 34.662 C 14.938 34.385, 14.375 34.158, 13 34.158 C 11.625 34.158, 11.063 34.385, 11.750 34.662 M 35.750 34.662 C 36.438 34.940, 37.563 34.940, 38.250 34.662 C 38.938 34.385, 38.375 34.158, 37 34.158 C 35.625 34.158, 35.063 34.385, 35.750 34.662" stroke="none" fill="#555555" fill-rule="evenodd"/>
</svg>