<svg xmlns="http://www.w3.org/2000/svg" width="800" height="800" viewBox="0 0 800 800" version="1.1"><path d="M 355 227.692 C 330.282 228.204, 296.254 230.024, 283.500 231.516 C 276.350 232.352, 261.050 234.815, 249.500 236.989 C 237.950 239.163, 222.875 241.443, 216 242.055 C 197.729 243.681, 190.274 245.470, 178.750 250.994 C 171.521 254.459, 165.406 256.541, 158.005 258.058 C 146.736 260.368, 143.209 261.921, 135.672 267.890 C 132.925 270.066, 127.752 272.745, 123.672 274.105 C 118.109 275.959, 115.490 277.530, 112 281.108 C 109.525 283.645, 104.786 287.533, 101.469 289.749 C 93.829 294.852, 84.352 304.976, 80.601 312.040 C 79.007 315.043, 76.274 319.300, 74.528 321.500 C 72.782 323.700, 71.067 326.276, 70.717 327.225 C 70.368 328.174, 70.004 365.280, 69.909 409.683 L 69.736 490.417 74.244 494.458 C 76.723 496.681, 80.207 500.679, 81.987 503.342 C 84.528 507.145, 86.539 508.782, 91.361 510.974 C 94.738 512.509, 99.075 515.432, 101 517.470 C 105.194 521.910, 108.826 523.842, 119.756 527.446 C 124.986 529.171, 129.568 531.476, 132.256 533.736 C 138.018 538.579, 143.025 540.647, 154.648 542.985 C 161.537 544.370, 167.207 546.324, 173.500 549.482 C 186.225 555.866, 189.506 556.811, 206.449 558.970 C 216.125 560.203, 227.238 562.479, 237.566 565.341 C 256.763 570.661, 267.941 572.646, 286 573.939 C 312.425 575.831, 388.488 577.280, 428.290 576.650 C 498.007 575.547, 516.987 573.805, 543.850 566.043 C 561.115 561.055, 564.402 560.382, 580.500 558.539 C 596.557 556.701, 603.044 555.035, 614.310 549.852 C 619.927 547.268, 626.815 545.085, 633.310 543.832 C 638.915 542.750, 645.846 541.417, 648.713 540.869 C 652.234 540.197, 656.524 538.144, 661.935 534.543 C 666.786 531.315, 672.027 528.723, 675.222 527.972 C 684.904 525.695, 691.119 522.835, 696.209 518.314 C 698.984 515.850, 704.496 512.356, 708.459 510.550 C 714.636 507.735, 716.106 506.550, 718.757 502.241 C 720.457 499.477, 723.655 495.764, 725.863 493.990 C 728.070 492.216, 730.156 490.035, 730.498 489.143 C 730.941 487.991, 731.404 348.708, 731.031 328.834 C 731.014 327.918, 729.212 325.474, 727.026 323.403 C 724.840 321.332, 721.630 316.779, 719.893 313.285 C 717.700 308.876, 715.411 305.983, 712.404 303.824 C 710.022 302.113, 706.844 298.939, 705.341 296.770 C 703.837 294.601, 700.558 291.473, 698.054 289.819 C 695.549 288.166, 691.475 284.610, 689 281.916 C 685.563 278.177, 682.609 276.236, 676.497 273.701 C 672.096 271.875, 665.789 268.281, 662.482 265.713 C 657.215 261.623, 654.998 260.670, 644.596 258.024 C 638.065 256.364, 628.219 252.941, 622.716 250.418 C 611.670 245.355, 604.023 243.476, 590.500 242.503 C 573.725 241.295, 554.557 238.876, 539 236.003 C 518.967 232.304, 511.355 231.247, 495.500 229.969 C 468.461 227.788, 402.178 226.713, 355 227.692 M 359 236.616 C 348.695 237.780, 315.709 240.070, 296 240.990 C 230.168 244.063, 222.611 244.895, 209.947 250.463 C 200.190 254.753, 197.813 255.381, 179.736 258.443 C 163.825 261.139, 163.029 261.423, 155.500 267.091 C 152.702 269.197, 147.417 271.815, 143.500 273.033 C 131.900 276.643, 130.715 277.250, 124.994 282.508 C 121.519 285.701, 116.908 288.637, 112.494 290.467 C 104.158 293.923, 102.781 294.992, 99.539 300.523 C 98.113 302.957, 94.964 306.098, 92.123 307.921 C 86.840 311.311, 84.766 314.621, 83.008 322.465 C 81.470 329.326, 82.487 332.458, 88.077 338.078 C 90.762 340.776, 93.254 344.225, 93.617 345.742 C 94.647 350.054, 95.613 350.698, 102.160 351.439 C 109.457 352.264, 113.201 355.318, 114.969 361.886 C 116.341 366.980, 117.597 367.595, 129.398 368.945 C 139.829 370.139, 142.496 371.587, 144.094 376.921 C 145.965 383.164, 145.147 383.975, 136.781 384.170 C 119.831 384.565, 117.057 383.631, 114.003 376.506 C 111.974 371.773, 110.438 370.613, 104.872 369.609 C 100.042 368.738, 96.425 365.201, 94.912 359.868 C 93.062 353.348, 91.937 352.464, 88.046 354.476 C 81.659 357.779, 81.728 357.076, 81.212 423.664 C 80.955 456.754, 81.065 485.531, 81.455 487.613 C 82.019 490.617, 83.980 493.187, 90.963 500.071 C 98.141 507.147, 100.920 509.182, 106.056 511.122 C 109.658 512.483, 114.095 515.146, 116.426 517.348 C 120.807 521.485, 125.702 524.294, 130.500 525.422 C 139.897 527.631, 144.586 529.588, 149.742 533.453 C 156.849 538.780, 161.387 540.349, 175.826 542.474 C 188.369 544.320, 191.727 545.319, 200.806 549.902 C 204.216 551.623, 210.650 553.902, 215.104 554.966 C 222.707 556.782, 228.713 557.474, 258.526 559.969 C 265.141 560.522, 277.066 562.327, 285.026 563.979 C 303.521 567.818, 314.039 568.052, 317.394 564.697 C 320.842 561.248, 321.182 555.124, 320.929 501 C 320.735 459.484, 320.929 451.636, 322.282 446.500 C 323.151 443.200, 324.155 438.461, 324.512 435.968 C 325.330 430.263, 330.632 420.284, 334.261 417.620 C 339.455 413.807, 353.691 414.544, 371.630 419.554 C 375.372 420.598, 384.982 421.106, 407.130 421.427 C 423.834 421.669, 438.962 421.898, 440.750 421.934 C 444.551 422.011, 445.320 424.693, 441.750 425.421 C 437.012 426.386, 410.834 427.359, 396 427.121 C 382.299 426.900, 379.257 427.168, 369.788 429.429 C 357.092 432.460, 340.822 440.502, 338.582 444.854 C 337.833 446.309, 336.456 452.675, 335.521 459 C 334.109 468.558, 333.819 478.567, 333.804 518.268 C 333.784 569.992, 333.526 567.582, 339.427 570.816 C 342.216 572.344, 348.234 572.498, 404.500 572.478 C 447.452 572.462, 468.821 572.090, 474.055 571.265 C 478.211 570.610, 489.973 568.020, 500.192 565.509 C 515.228 561.816, 522.661 560.583, 539.137 559.049 C 562.446 556.880, 571.205 555.121, 582.273 550.383 C 592.182 546.142, 598.573 544.509, 613 542.531 C 627.526 540.540, 634.244 538.766, 638.879 535.699 C 645.881 531.065, 651.214 528.865, 660.193 526.905 C 672.004 524.327, 674.645 523.144, 680.807 517.671 C 684.604 514.299, 687.756 512.562, 692.802 511.059 C 699.043 509.200, 700.517 508.187, 709.498 499.577 L 719.349 490.134 719.133 424.828 C 718.893 352.338, 719.327 356.738, 712.053 353.027 C 709.899 351.928, 707.847 350.561, 707.494 349.990 C 705.984 347.547, 708.449 342.521, 713.607 337.525 C 717.907 333.360, 719 331.656, 719 329.119 C 719 323.792, 716.227 318.816, 709.431 311.948 C 705.865 308.345, 701.497 303.206, 699.724 300.529 C 697.199 296.716, 694.764 294.709, 688.500 291.274 C 684.100 288.862, 678.475 284.937, 676 282.552 C 670.874 277.612, 667.573 275.799, 660.599 274.094 C 654.424 272.584, 650.617 270.656, 645.290 266.341 C 639.438 261.602, 635.662 260.238, 624.864 258.964 C 611.701 257.410, 604.608 255.650, 593.046 251.067 C 577.898 245.062, 565.003 243.628, 502 240.939 C 487.975 240.340, 471.100 239.156, 464.500 238.307 C 455.605 237.162, 440.857 236.693, 407.500 236.492 C 382.750 236.343, 360.925 236.399, 359 236.616 M 691.500 352.715 C 684.608 354.378, 680 358.869, 680 363.925 C 680 366.934, 684.906 369, 692.050 369 C 697.711 369, 698.471 368.729, 701.600 365.600 C 704.458 362.742, 705 361.483, 705 357.707 C 705 354.532, 704.536 353.036, 703.418 352.607 C 701.631 351.921, 694.523 351.985, 691.500 352.715 M 654.718 370.092 C 648.824 371.479, 645.086 373.808, 644.407 376.516 C 643.091 381.759, 645.646 383.500, 656.239 384.580 C 667.747 385.753, 676 381.646, 676 374.745 C 676 372.905, 675.460 370.860, 674.800 370.200 C 673.403 368.803, 660.487 368.733, 654.718 370.092 M 366.500 371.996 C 349.105 372.934, 335 375.677, 335 378.121 C 335 378.605, 335.337 379.034, 335.750 379.077 C 336.163 379.119, 337.400 379.344, 338.500 379.578 C 350.358 382.100, 408.812 382.779, 420.338 380.530 C 424.649 379.688, 431.174 378.993, 434.838 378.985 C 442.190 378.968, 445.605 377.725, 443 376.015 C 442.175 375.474, 439.025 375.008, 436 374.980 C 432.975 374.953, 426.900 374.226, 422.500 373.364 C 413.351 371.573, 386.505 370.918, 366.500 371.996 M 150.297 385.700 C 146.183 386.498, 146.457 392.417, 150.790 396.319 C 156.414 401.383, 188.379 400.666, 190.388 395.430 C 192.579 389.722, 179.550 384.905, 162.540 385.136 C 157.018 385.211, 151.509 385.465, 150.297 385.700 M 267.291 386.062 C 261.101 386.867, 256.286 388.772, 248.272 393.586 C 245.807 395.066, 241.219 396.547, 237.272 397.136 C 230.702 398.116, 210.804 403.187, 206.250 405.041 C 198.080 408.368, 214.323 416.879, 230.500 417.747 C 240.993 418.310, 254.531 415.369, 263.603 410.555 C 267.287 408.600, 271.737 407, 273.491 407 C 278.645 407, 290.957 403.451, 298.500 399.791 C 312.743 392.880, 313.328 391.350, 302.503 389.313 C 301.404 389.106, 296.158 388.051, 290.846 386.969 C 280.638 384.888, 277.295 384.760, 267.291 386.062 M 502.902 386.118 C 494.749 386.781, 482.878 390.237, 481.006 392.492 C 479.532 394.269, 480.877 396.878, 485.098 400.429 C 490.538 405.007, 503.346 409, 512.587 409 C 515.715 409, 519.174 410.070, 524.151 412.576 C 532.999 417.032, 546.579 418.989, 556.215 417.197 C 563.039 415.928, 572 410.727, 572 408.035 C 572 405.160, 561.677 400.368, 551.500 398.519 C 539.276 396.299, 536.091 395.242, 532 392.053 C 530.075 390.552, 527.375 388.725, 526 387.993 C 522.649 386.207, 512.215 385.361, 502.902 386.118 M 608.148 385.962 C 591.847 388.533, 587.132 395.355, 599.747 398.116 C 607.060 399.717, 624.205 399.732, 629.746 398.143 C 636.900 396.091, 640.700 389.515, 636.142 387.076 C 633.558 385.693, 614.628 384.940, 608.148 385.962 M 373.756 497.523 C 372.246 498.367, 370.141 500.763, 369.079 502.846 C 366.719 507.471, 365.614 508.391, 360.500 509.990 C 358.300 510.678, 355.262 512.396, 353.750 513.808 C 347.612 519.536, 351.731 528.949, 361.052 530.495 C 367.076 531.494, 369.448 532.873, 372.215 536.985 C 373.505 538.902, 375.672 541.033, 377.030 541.721 C 380.063 543.255, 401.625 543.451, 405.685 541.980 C 407.233 541.420, 410.324 538.905, 412.553 536.392 C 416.050 532.451, 417.492 531.619, 423.053 530.340 C 431.318 528.439, 434 526.019, 434 520.462 C 434 515.219, 431.228 512.212, 424.083 509.703 C 420.165 508.327, 418.384 506.985, 416.486 503.978 C 412.086 497.008, 410.613 496.532, 392.547 496.244 C 379.627 496.038, 375.965 496.288, 373.756 497.523" stroke="none" fill="#444" fill-rule="evenodd"/></svg>