<svg xmlns="http://www.w3.org/2000/svg" width="50" height="50" viewBox="0 0 50 50" version="1.1">
	<path d="M 16.750 11.662 C 17.438 11.940, 18.563 11.940, 19.250 11.662 C 19.938 11.385, 19.375 11.158, 18 11.158 C 16.625 11.158, 16.063 11.385, 16.750 11.662 M 30.813 11.683 C 31.534 11.972, 32.397 11.936, 32.729 11.604 C 33.061 11.272, 32.471 11.036, 31.417 11.079 C 30.252 11.127, 30.015 11.364, 30.813 11.683 M 5.200 15.200 C 4.483 15.917, 4.076 18.834, 4.189 22.450 L 4.378 28.500 4.745 22.535 C 4.947 19.254, 5.592 15.991, 6.179 15.285 C 7.525 13.663, 6.800 13.600, 5.200 15.200 M 45.079 18.583 C 45.127 19.748, 45.364 19.985, 45.683 19.188 C 45.972 18.466, 45.936 17.603, 45.604 17.271 C 45.272 16.939, 45.036 17.529, 45.079 18.583 M 22.592 26.500 C 21.691 27.875, 21.108 29, 21.297 29 C 21.485 29, 22.618 27.875, 23.813 26.500 C 25.009 25.125, 25.592 24, 25.108 24 C 24.625 24, 23.493 25.125, 22.592 26.500 M 28 29 C 29.175 30.650, 30.361 32, 30.636 32 C 30.911 32, 30.175 30.650, 29 29 C 27.825 27.350, 26.639 26, 26.364 26 C 26.089 26, 26.825 27.350, 28 29 M 16.872 34.750 C 15.629 36.336, 15.664 36.371, 17.250 35.128 C 18.916 33.821, 19.445 33, 18.622 33 C 18.415 33, 17.627 33.788, 16.872 34.750 M 33 36.378 C 33 36.585, 33.788 37.373, 34.750 38.128 C 36.336 39.371, 36.371 39.336, 35.128 37.750 C 33.821 36.084, 33 35.555, 33 36.378" stroke="none" fill="#555555" fill-rule="evenodd"/>
</svg>