<svg xmlns="http://www.w3.org/2000/svg" width="1000" height="1000" viewBox="0 0 1000 1000" version="1.1"><path d="M 435.500 206.641 C 431.100 206.857, 412.425 207.449, 394 207.955 C 365.875 208.729, 358.009 209.285, 344.971 211.420 C 336.431 212.818, 327.206 214.660, 324.471 215.512 C 315.874 218.192, 299.347 220.920, 285.168 222.001 C 246.073 224.980, 233.833 227.210, 223.164 233.296 C 212.718 239.255, 208.810 240.648, 196.280 242.881 C 182.134 245.402, 175.554 247.996, 168.939 253.658 C 163.937 257.939, 154.645 262.986, 151.721 263.010 C 149.481 263.028, 140.033 267.877, 137.704 270.204 C 132.656 275.249, 124.115 281.867, 117 286.246 C 110.906 289.996, 108.865 291.930, 106.114 296.565 C 104.251 299.702, 100.485 304.558, 97.744 307.357 C 90.081 315.184, 88.188 318.107, 86.491 324.729 C 85.110 330.119, 84.963 342.217, 85.256 426.673 C 85.631 534.864, 85.119 527.985, 93.627 539.141 C 98.388 545.384, 99.984 548.474, 105.562 562.241 C 107.570 567.199, 109.932 570.655, 114.493 575.305 C 118.566 579.460, 121.322 583.322, 122.525 586.564 C 124.599 592.150, 127.661 597.052, 129.938 598.433 C 132.965 600.269, 139.945 607.987, 141.736 611.477 C 142.739 613.432, 147.821 619.633, 153.030 625.257 C 168.271 641.714, 219.820 692.793, 228.104 699.647 C 232.287 703.107, 237.318 707.902, 239.284 710.302 C 241.251 712.702, 246.154 716.844, 250.180 719.506 C 254.206 722.168, 259.300 726.590, 261.500 729.333 C 264.283 732.802, 267.624 735.412, 272.480 737.910 C 277.897 740.696, 280.445 742.805, 283.858 747.325 C 287.399 752.016, 289.642 753.824, 295.378 756.611 C 299.792 758.756, 304.781 762.299, 308.500 765.931 C 314.952 772.232, 318.568 774.453, 324.045 775.481 C 331.442 776.868, 336.009 772.414, 337.838 762.027 C 339.247 754.031, 342.432 747.793, 347.664 742.785 C 353.270 737.418, 354.255 735.543, 357.474 724.094 C 360.319 713.975, 363.194 708.621, 369.070 702.500 C 371.181 700.300, 374.477 695.125, 376.393 691 C 379.982 683.276, 383.151 679.336, 389.261 675.005 C 393.197 672.215, 395.215 667.543, 397.138 656.764 C 398.836 647.250, 401.447 643.027, 407.500 640 L 412.500 637.500 494.500 637.500 L 576.500 637.500 582.120 640.135 C 593.641 645.537, 599.159 652.901, 603.158 668.209 C 606.068 679.348, 608.325 684.401, 612.843 689.891 C 618.832 697.170, 620.858 701.156, 623.056 709.985 C 626.380 723.340, 627.758 725.968, 635.398 733.513 C 641.111 739.155, 642.975 741.794, 644.928 747.011 C 646.520 751.264, 648.972 755.217, 652.052 758.498 C 654.636 761.249, 657.690 765.364, 658.840 767.642 C 659.990 769.920, 662.462 773.407, 664.333 775.392 C 670.661 782.101, 677.778 779.951, 690.660 767.440 C 696.329 761.934, 700.444 758.931, 705.561 756.567 C 711.396 753.871, 713.407 752.271, 717.085 747.401 C 720.558 742.801, 723.078 740.709, 728.520 737.910 C 733.434 735.382, 736.684 732.830, 739.500 729.288 C 741.700 726.520, 746.650 722.183, 750.500 719.650 C 754.350 717.117, 759.075 713.169, 761 710.876 C 762.925 708.584, 768.155 703.649, 772.623 699.910 C 781.457 692.518, 832.689 641.757, 847.970 625.257 C 853.179 619.633, 858.261 613.432, 859.264 611.477 C 861.055 607.987, 868.035 600.269, 871.062 598.433 C 873.331 597.057, 876.399 592.156, 878.448 586.634 C 879.572 583.606, 882.605 579.263, 886.479 575.134 C 890.657 570.683, 893.609 566.361, 895.451 562 C 901.572 547.512, 902.705 545.341, 907.648 538.629 C 911.141 533.887, 913.224 529.847, 914.126 526.069 C 915.171 521.690, 915.521 500.252, 915.762 425.722 C 916.106 319.014, 916.693 327.267, 908.273 320.367 C 905.775 318.321, 902.455 314.633, 900.894 312.172 C 896.223 304.806, 875.306 285.176, 869.224 282.451 C 866.007 281.009, 861.716 277.772, 858.224 274.151 C 851.879 267.571, 849.270 265.999, 840.487 263.469 C 832.275 261.103, 826.235 257.915, 820.190 252.755 C 814.406 247.818, 808.978 245.820, 795 243.483 C 782.914 241.462, 771.527 237.849, 764.862 233.919 C 752.899 226.865, 744.590 225.424, 696 221.973 C 679.651 220.812, 665.071 218.733, 654 215.986 C 649.875 214.963, 642.900 213.639, 638.500 213.044 C 634.100 212.449, 628.025 211.262, 625 210.406 C 621.273 209.351, 611.765 208.563, 595.500 207.962 C 569.458 207, 448.512 206.001, 435.500 206.641 M 440 220.063 C 433.125 220.480, 411.975 221.304, 393 221.894 C 331.016 223.819, 324.661 224.062, 311 225.032 C 282.332 227.068, 276.825 228.096, 265.146 233.590 C 253.436 239.099, 248.426 240.396, 229 242.945 C 208.046 245.695, 201.694 247.580, 194.358 253.224 C 187.299 258.656, 183.208 260.486, 172.500 263 C 161.402 265.605, 155.944 268.253, 151.311 273.279 C 145.446 279.641, 142.439 281.728, 136.679 283.431 C 129.434 285.574, 126.441 287.853, 122.725 294.055 C 120.322 298.065, 118.122 300.211, 114.096 302.469 C 105.374 307.361, 103.068 312.057, 103.028 325 C 102.996 335.171, 106.932 339.719, 118.506 342.883 C 125.420 344.774, 128.765 347.460, 130.109 352.202 C 131.921 358.597, 132.762 359.117, 142.122 359.640 C 158.731 360.567, 163.942 364.111, 164.303 374.729 L 164.500 380.500 156 380.467 C 140.055 380.406, 133.700 376.757, 132.394 366.914 C 131.665 361.421, 129.833 359.810, 122.818 358.494 C 118.311 357.648, 109.200 359.511, 106.374 361.856 C 101.051 366.273, 101.190 363.686, 102.119 441 C 103.034 517.121, 103.644 529.444, 107.048 540.500 C 108.919 546.578, 109.980 548.224, 115.106 553 C 120.363 557.898, 121.268 559.339, 123.369 566.163 C 126.380 575.940, 128.804 579.802, 134.492 583.887 C 140.412 588.138, 142.727 591.352, 147 601.249 C 150.144 608.531, 151.092 609.770, 156.322 613.428 C 160.988 616.691, 162.875 618.890, 165.822 624.500 C 169.158 630.849, 170.099 631.825, 175.946 635 C 181.850 638.206, 182.671 639.069, 185.713 645.268 C 188.839 651.638, 189.422 652.226, 195.622 655.268 C 201.770 658.284, 202.436 658.947, 205.582 665.179 C 208.610 671.177, 209.573 672.188, 215.027 675.095 C 221.313 678.445, 223.205 680.471, 226.934 687.836 C 228.828 691.579, 230.125 692.626, 236.409 695.490 C 240.833 697.506, 244.632 700.036, 246.094 701.941 C 252.266 709.978, 254.498 712.071, 261.234 716.139 C 265.206 718.538, 271.756 723.736, 275.790 727.691 C 279.824 731.646, 285.234 735.883, 287.812 737.106 C 295.230 740.625, 297.965 742.907, 301.624 748.627 C 305.801 755.156, 309.495 757.225, 316.822 757.137 C 321.058 757.087, 323.420 756.413, 326.925 754.255 C 331.119 751.674, 331.724 750.775, 334.190 743.469 C 335.670 739.086, 337.597 732.906, 338.473 729.735 C 339.821 724.853, 341.060 723.014, 346.559 717.735 C 353.325 711.240, 355.581 706.570, 357.493 695.102 C 358.889 686.727, 361.949 681.918, 369.259 676.613 C 374.030 673.150, 376.899 667.528, 378.186 659.120 C 379.592 649.936, 382.374 643.995, 386.671 641 C 395.368 634.939, 397.099 631.440, 398.509 617.074 C 399.375 608.247, 401.959 603.641, 408.333 599.564 C 414.525 595.602, 415.519 593.723, 417.514 582.192 C 419.477 570.842, 422.335 565.313, 427.932 562.040 C 434.313 558.308, 435.897 555.572, 437.534 545.458 C 439.393 533.976, 442.239 528.372, 448.177 524.500 C 453.517 521.018, 455.399 517.694, 457.027 508.872 C 457.680 505.330, 460.642 497.296, 463.696 490.783 C 469.713 477.947, 469.878 475.440, 464.937 471.852 C 460.829 468.869, 438.980 466.523, 382.500 462.997 C 360.844 461.646, 350.302 459.243, 335 452.172 C 325.781 447.912, 318.741 446.315, 299.442 444.105 C 279.780 441.854, 272.281 439.546, 268.495 434.582 C 265.593 430.777, 265.423 429.269, 267.553 426.227 C 269.380 423.619, 278.110 419.426, 284.790 417.949 C 295.917 415.488, 304.041 412.542, 312 408.083 C 325.598 400.464, 327.891 399.922, 359 396.966 C 375.322 395.416, 388.727 392.707, 403.065 388.064 C 430.804 379.080, 443.240 377.994, 518.057 378.018 C 587.609 378.041, 591.531 378.475, 612 388.405 C 620.638 392.596, 623.179 393.292, 640 396.084 C 660.466 399.482, 665.582 401.292, 674.006 408.118 C 682.624 415.100, 683.242 415.331, 716.684 424.073 C 728.504 427.163, 728.710 429.870, 717.518 435.050 C 706.705 440.055, 700.714 441.749, 686 443.965 C 665.379 447.070, 660.431 448.354, 651.055 453.032 C 635.306 460.891, 631.776 461.687, 606.792 463.014 C 596.182 463.578, 583.900 464.489, 579.500 465.040 C 575.100 465.591, 562.275 466.178, 551 466.344 C 521.212 466.782, 520.178 467.521, 523.354 486.082 C 525.193 496.829, 526.457 499.069, 532.931 503.053 C 538.789 506.657, 541.123 511.426, 543.335 524.309 C 545.143 534.839, 546.420 537.015, 552.836 540.507 C 559.576 544.176, 561.872 548.590, 563.072 560.191 C 564.301 572.068, 566.101 575.674, 572.648 579.379 C 579.465 583.236, 581.771 587.489, 583.115 598.687 C 584.534 610.502, 586.721 615.307, 591.878 617.938 C 599.622 621.889, 601.931 625.830, 603.923 638.500 C 605.645 649.452, 607.921 654.257, 612.970 657.599 C 618.173 661.042, 621.417 666.550, 623.454 675.404 C 625.672 685.044, 628.167 690.198, 632.515 694.124 C 638.067 699.137, 640.865 704.181, 643.121 713.247 C 645.706 723.634, 646.933 725.922, 652.928 731.529 C 658.265 736.522, 661.438 742.281, 663.087 749.971 C 664.475 756.443, 669.187 763, 672.450 763 C 674.946 763, 689.830 757.354, 693.862 754.878 C 695.095 754.120, 697.881 751.156, 700.053 748.292 C 702.239 745.409, 706.122 741.889, 708.751 740.409 C 716.264 736.178, 721.029 732.596, 727.813 726.079 C 731.285 722.743, 737.276 718.143, 741.126 715.856 C 745.263 713.398, 750.218 709.291, 753.242 705.815 C 756.414 702.168, 761.047 698.380, 765.429 695.849 C 771.117 692.564, 773.282 690.573, 776.500 685.667 C 779.488 681.111, 781.961 678.722, 786.275 676.225 C 789.950 674.097, 793.020 671.358, 794.718 668.691 C 798.760 662.342, 801.943 659.206, 806.666 656.920 C 811.338 654.658, 815.585 650.207, 817.564 645.500 C 818.995 642.095, 821.502 639.644, 828.070 635.226 C 831.236 633.096, 833.616 630.322, 835.814 626.198 C 838.692 620.798, 841.072 618.167, 849.363 611.220 C 850.859 609.967, 853.966 605.017, 856.268 600.220 C 859.451 593.588, 862.057 589.906, 867.152 584.844 C 874.215 577.826, 875.698 575.555, 879.031 566.646 C 880.508 562.700, 882.761 559.519, 886.947 555.470 C 891.991 550.590, 893.142 548.755, 895.296 542.155 C 900.423 526.443, 900.500 524.991, 900.500 443.500 C 900.500 370.456, 900.425 367.349, 898.572 363.615 C 897.155 360.760, 895.440 359.197, 892.102 357.721 L 887.561 355.712 878.530 357.846 C 869.460 359.989, 867.560 360.106, 865.250 358.663 C 862.382 356.871, 865.261 347.001, 869.278 344.851 C 870.388 344.257, 875.772 343.710, 881.243 343.636 C 890.949 343.503, 891.247 343.430, 893.500 340.604 C 896.600 336.714, 897.218 332.901, 895.930 325.605 C 894.232 315.985, 891.357 311.120, 884.703 306.600 C 881.515 304.434, 876.157 299.560, 872.795 295.769 C 867.465 289.757, 865.264 288.170, 855.591 283.365 C 848.933 280.057, 842.701 276.128, 840 273.535 C 834.252 268.017, 831.052 266.450, 820.344 263.907 C 808.218 261.027, 804.367 259.383, 797.677 254.234 C 788.351 247.056, 781.029 244.940, 758.893 243.022 C 746.198 241.923, 735.624 239.360, 717.997 233.112 C 708.862 229.874, 703.715 228.726, 692.997 227.537 C 668.257 224.791, 612.301 222.316, 522 219.975 C 481.809 218.933, 458.179 218.958, 440 220.063 M 846.500 361.682 C 833.602 363.323, 828.704 365.920, 826.854 372.093 C 824.914 378.567, 826.607 379.500, 840.286 379.498 C 852.454 379.496, 855.835 378.508, 859.186 373.977 C 860.212 372.589, 861.335 369.709, 861.681 367.577 C 862.666 361.511, 859.005 360.090, 846.500 361.682 M 166.778 382.166 C 166.556 382.832, 166.682 385.403, 167.057 387.878 C 168.035 394.320, 171.847 397.434, 180.692 399.014 C 190.506 400.768, 201.783 400.006, 203.680 397.461 C 207.247 392.678, 202.113 384.164, 194.668 382.516 C 188.432 381.135, 167.210 380.869, 166.778 382.166 M 800.572 382.566 C 788.932 385.450, 783.954 392.856, 791.154 396.579 C 795.265 398.705, 808.274 399.565, 813.764 398.074 C 819.354 396.555, 823.283 391.033, 822.816 385.351 L 822.500 381.500 814.500 381.298 C 810.093 381.187, 803.837 381.757, 800.572 382.566 M 503.313 386.963 C 501.560 387.380, 495.035 388.248, 488.813 388.891 C 482.591 389.534, 473.450 390.526, 468.500 391.095 C 441.913 394.152, 423.889 395.954, 410 396.943 C 376.054 399.362, 368.896 400.704, 353.311 407.572 C 347.707 410.042, 336.907 413.639, 329.311 415.567 C 313.718 419.524, 308.139 422.532, 306.629 427.798 C 303.979 437.036, 313.732 442.050, 338 443.924 C 360.466 445.660, 373.208 447.788, 389.500 452.527 C 397.750 454.927, 409.675 457.798, 416 458.907 C 446.990 464.343, 535.830 464.376, 574 458.965 C 578.125 458.381, 588.925 455.692, 598 452.990 C 615.099 447.900, 624.605 446.278, 653.424 443.532 C 671.058 441.852, 675.254 440.438, 678.357 435.128 C 681.960 428.960, 677.608 420.440, 669.671 418.126 C 660.230 415.373, 652.813 412.119, 647.092 408.217 C 635.874 400.566, 632.662 399.759, 598.500 396.012 C 565.812 392.427, 554.587 391.016, 547 389.541 C 529.941 386.225, 511.090 385.112, 503.313 386.963 M 215.585 402.044 C 207.092 404.583, 210.677 415.071, 221.237 418.579 C 231.101 421.855, 251.749 420.206, 254.021 415.961 C 255.789 412.657, 255.052 409.785, 251.602 406.531 C 248.873 403.958, 246.817 403.098, 241.159 402.163 C 233.070 400.827, 219.859 400.766, 215.585 402.044 M 753 402.912 C 743.617 404.233, 736.982 409.218, 738.450 413.843 C 739.335 416.630, 743.186 417.780, 754.108 418.517 C 771.600 419.698, 779 416.852, 779 408.946 C 779 405.998, 778.483 404.794, 776.840 403.915 C 774.135 402.466, 760.294 401.884, 753 402.912 M 486.454 501.429 C 485.579 502.766, 484.212 507.588, 483.416 512.145 C 481.354 523.959, 478.120 529.986, 471.235 534.851 C 466.907 537.908, 465.308 541.258, 463.671 550.692 C 461.851 561.181, 459.751 565.240, 453.262 570.819 C 446.649 576.505, 445.625 578.364, 443.533 588.495 C 441.290 599.353, 439.793 602.059, 432.480 608.480 C 428.092 612.332, 425.628 615.408, 424.443 618.510 C 422.341 624.014, 422.992 630.437, 425.953 633.397 L 428.056 635.500 496.778 635.171 C 541.775 634.956, 566.788 634.472, 569.231 633.769 C 575.229 632.042, 575.581 626.312, 569.834 623.931 C 562.241 620.786, 559.005 615.611, 557.200 603.726 C 556.055 596.188, 553.308 590.024, 550.410 588.488 C 542.026 584.044, 539.430 580.039, 537.400 568.410 C 535.501 557.527, 533.519 553.673, 526.953 548.095 C 521.282 543.277, 519.410 539.767, 517.918 531.162 C 516.121 520.796, 514.509 517.919, 506.328 510.485 C 492.652 498.056, 489.582 496.656, 486.454 501.429" stroke="none" fill="#444" fill-rule="evenodd"/></svg>