<svg xmlns="http://www.w3.org/2000/svg" width="800" height="800" viewBox="0 0 800 800" version="1.1"><path d="M 390 232.061 C 366.123 232.887, 346.095 234.384, 329.500 236.583 C 323.450 237.384, 315.149 238.481, 311.052 239.021 C 306.956 239.560, 292.106 240.676, 278.052 241.502 C 246.143 243.376, 230.876 245.319, 222.206 248.610 C 207.468 254.204, 200.722 255.949, 186.361 257.886 C 166.072 260.623, 162.399 261.534, 156 265.414 C 146.895 270.936, 144.642 271.844, 133.582 274.458 C 121.430 277.329, 118.678 278.564, 114.500 283.023 C 112.850 284.784, 108.350 287.693, 104.500 289.487 C 93.234 294.738, 83.168 305.639, 80.444 315.539 C 78.028 324.320, 75.715 371.986, 74.572 436.500 C 74.348 449.150, 73.586 464.225, 72.877 470 C 70.889 486.204, 71.019 487.408, 75.234 491.752 C 77.234 493.813, 80.363 498.200, 82.187 501.500 C 84.970 506.536, 86.353 507.915, 90.796 510.082 C 93.708 511.502, 98.207 514.712, 100.795 517.216 C 106.518 522.754, 108.115 523.606, 119.294 527.087 C 125.284 528.952, 129.770 531.123, 133.360 533.892 C 139.783 538.847, 144.580 540.613, 156.972 542.582 C 169.919 544.640, 173.121 545.551, 183.087 550.010 C 196.225 555.888, 203.721 557.156, 239.500 559.549 C 252.150 560.395, 268.125 561.945, 275 562.992 C 301.818 567.076, 324.691 568.491, 363 568.436 C 408.114 568.372, 447.018 566.570, 470 563.479 C 479.625 562.185, 495.825 560.638, 506 560.041 C 549.175 557.508, 560.326 556.042, 571.210 551.469 C 582.399 546.769, 588.734 545.094, 603.250 542.999 C 621.563 540.356, 623.288 539.854, 630.750 535.005 C 638.384 530.045, 639.840 529.479, 652.969 526.371 C 662.663 524.076, 670 520.924, 670 519.054 C 670 517.290, 678.144 512.825, 686.530 509.990 C 693.907 507.496, 696.346 506.110, 700.485 502.061 C 703.243 499.362, 708.069 495.950, 711.210 494.479 C 714.754 492.818, 718.262 490.165, 720.460 487.483 C 722.407 485.107, 725.586 482.183, 727.524 480.985 C 734.436 476.713, 734.101 481.642, 733.456 393.763 C 733.135 350.168, 732.656 313.438, 732.390 312.141 C 732.125 310.844, 729.773 307.469, 727.164 304.641 C 724.555 301.813, 721.173 297.806, 719.648 295.735 C 718.105 293.640, 714.575 290.814, 711.688 289.363 C 708.835 287.928, 704.250 284.646, 701.500 282.070 C 697.962 278.755, 695.038 277.010, 691.500 276.103 C 677.404 272.487, 672.058 270.580, 667.500 267.544 C 657.701 261.017, 657.252 260.878, 636.432 257.962 C 622.281 255.979, 617.483 254.690, 601.851 248.668 C 594.907 245.993, 579.834 243.532, 564.500 242.570 C 559.550 242.259, 548.075 241.532, 539 240.954 C 529.925 240.376, 516.200 239.035, 508.500 237.974 C 486.863 234.994, 467.277 233.111, 446.500 232.014 C 426.011 230.932, 422.577 230.935, 390 232.061 M 327.500 242.637 C 309.101 243.305, 274.580 247.203, 265.500 249.638 C 239.601 256.585, 237.588 256.976, 222.216 258.047 C 202.140 259.445, 191.945 261.239, 185.855 264.444 C 183.185 265.850, 178.791 268.162, 176.091 269.582 C 172.640 271.398, 167.417 272.732, 158.497 274.077 C 144.456 276.194, 138.900 278.218, 132.809 283.432 C 130.492 285.414, 125.859 287.871, 122.111 289.104 C 111.785 292.500, 106.491 295.564, 102.469 300.472 C 100.427 302.964, 96.167 306.576, 93.003 308.498 C 88.312 311.348, 86.857 312.906, 85.125 316.932 C 83.956 319.648, 83 323.959, 83 326.512 C 83 331.400, 84.158 332.998, 91.938 338.853 C 93.657 340.146, 95.938 342.918, 97.006 345.013 C 98.681 348.296, 99.828 349.112, 105.332 350.944 C 112.196 353.228, 115.461 355.923, 116.516 360.176 C 117.742 365.120, 120.158 366.250, 131.370 367.125 C 146.690 368.320, 154.117 371.217, 158.009 377.515 C 160.754 381.957, 164.347 383, 176.899 383.001 C 202.112 383.003, 218.490 386.214, 226.176 392.662 C 234.333 399.506, 233.022 399.339, 279.500 399.465 C 304.531 399.534, 325.540 400.054, 331.500 400.754 C 344.491 402.280, 432.534 402.298, 459.500 400.781 C 470.500 400.162, 495.925 399.579, 516 399.486 C 556.355 399.298, 558.785 398.996, 564.983 393.396 C 568.237 390.456, 570.812 389.401, 581.176 386.757 C 592.872 383.773, 594.528 383.607, 613.663 383.501 C 635.764 383.378, 635.497 383.446, 639.103 377.030 C 642.602 370.805, 648.637 368.621, 665.784 367.371 C 677.578 366.512, 680.350 365.257, 682.827 359.658 C 685.125 354.464, 687.779 352.784, 697.084 350.634 C 701.852 349.533, 704.001 348.469, 705.494 346.468 C 706.597 344.990, 710.071 341.204, 713.213 338.054 C 720.007 331.242, 721 328.972, 721 320.251 C 721 311.783, 718.530 306.530, 711.015 299.015 C 706.630 294.630, 703.589 292.656, 697.331 290.134 C 692.218 288.072, 688.050 285.604, 685.893 283.360 C 681.042 278.312, 678.836 277.409, 664.402 274.558 C 653.990 272.501, 649.570 271.053, 641.500 267.049 C 628.855 260.776, 627.097 260.354, 605.949 258.505 C 584.252 256.607, 579.256 255.732, 565.595 251.436 C 540.754 243.624, 528.769 242.883, 422 242.565 C 374.975 242.425, 332.450 242.458, 327.500 242.637 M 87.180 359.283 C 84.268 362.791, 83.948 367.939, 83.249 422.355 C 82.853 453.235, 82.547 480.999, 82.570 484.053 C 82.617 490.470, 84.094 493.086, 89.814 496.886 C 91.979 498.324, 95.290 501.525, 97.172 504 C 99.767 507.412, 102.087 509.104, 106.772 511 C 110.269 512.415, 114.805 515.294, 117.225 517.633 C 122.797 523.020, 124.308 523.727, 135.279 526.076 C 146.560 528.491, 148.879 529.368, 156.500 534.101 C 163.370 538.367, 170.095 540.471, 181.500 541.922 C 185.900 542.482, 193.519 543.461, 198.431 544.099 C 203.342 544.736, 212.567 547.027, 218.931 549.190 C 234.224 554.387, 251.915 556.706, 285.858 557.963 C 308.509 558.802, 312.619 558.731, 315.079 557.459 C 316.653 556.645, 318.358 555.196, 318.869 554.240 C 319.427 553.194, 319.515 539.929, 319.090 520.980 C 318.702 503.644, 318.727 478.444, 319.147 464.980 C 320.506 421.393, 320.564 423.109, 317.629 420.175 L 315.068 417.613 285.284 417.513 C 259.148 417.424, 254.058 417.143, 243.725 415.219 C 231.192 412.884, 228.344 411.776, 221.549 406.589 C 215.567 402.023, 207.868 400.654, 193.104 401.531 C 184.139 402.064, 179.473 401.841, 172.587 400.548 C 162.454 398.645, 157.804 396.564, 153.500 392.006 C 149.052 387.294, 148.051 386.972, 133.308 385.499 C 120.785 384.247, 119.543 383.936, 116.880 381.385 C 115.296 379.868, 114 378.035, 114 377.313 C 114 374.929, 110.280 372.223, 104.822 370.637 C 99.485 369.085, 96.143 366.368, 92.659 360.750 C 90.814 357.774, 88.865 357.252, 87.180 359.283 M 709.498 363.003 C 706.327 366.312, 699.453 369.997, 696.434 370.006 C 691.111 370.021, 686.971 372.137, 685.102 375.798 C 681.235 383.375, 677.491 384.826, 658.903 385.946 C 644.193 386.833, 641.791 387.571, 639.561 391.881 C 635.778 399.198, 627.546 401.184, 599.800 401.476 C 576.333 401.723, 576.736 401.637, 570.389 407.754 C 566.217 411.774, 558.011 414.697, 546.775 416.164 C 536.042 417.566, 517.625 417.685, 417.273 417 L 344.046 416.500 341.273 419.272 C 338.772 421.773, 338.437 422.948, 337.862 431.272 C 337.511 436.347, 337.638 458.500, 338.145 480.500 C 338.814 509.544, 338.745 524.690, 337.894 535.797 C 336.617 552.459, 336.967 554.622, 341.412 557.534 C 343.650 559.001, 348.964 559.161, 391.707 559.052 C 479.763 558.825, 513.883 556.274, 539.500 548.001 C 548.982 544.939, 553.350 544.212, 572.106 542.573 C 591.522 540.876, 599.286 538.963, 606.274 534.156 C 612.404 529.938, 614.188 529.343, 627.804 526.973 C 643.426 524.254, 647.995 522.639, 652.076 518.390 C 656.252 514.042, 660.754 511.672, 668 510.009 C 676.572 508.040, 680.142 506.257, 685 501.517 C 687.839 498.746, 691.696 496.310, 695.449 494.916 C 700.227 493.142, 703.108 491.014, 710.083 484.104 C 714.860 479.372, 719.270 474.517, 719.884 473.316 C 721.257 470.629, 721.418 374.506, 720.060 368.653 C 719.150 364.732, 715.569 360, 713.513 360 C 712.887 360, 711.080 361.351, 709.498 363.003" stroke="none" fill="#444" fill-rule="evenodd"/></svg>