<svg xmlns="http://www.w3.org/2000/svg" width="50" height="50" viewBox="0 0 50 50" version="1.1">
	<path d="M 45.079 20.583 C 45.127 21.748, 45.364 21.985, 45.683 21.188 C 45.972 20.466, 45.936 19.603, 45.604 19.271 C 45.272 18.939, 45.036 19.529, 45.079 20.583 M 4.168 26.628 C 4.050 29.517, 4.525 31.167, 5.750 32.128 C 7.277 33.325, 7.350 33.307, 6.325 31.987 C 5.678 31.155, 4.966 28.680, 4.743 26.487 L 4.336 22.500 4.168 26.628 M 45.252 26.500 C 45.263 28.700, 45.468 29.482, 45.707 28.238 C 45.946 26.994, 45.937 25.194, 45.687 24.238 C 45.437 23.282, 45.241 24.300, 45.252 26.500 M 17.700 25.649 C 19.554 26.051, 19.962 26.942, 20.295 31.313 L 20.691 36.500 20.595 31 C 20.506 25.872, 20.331 25.489, 18 25.336 C 15.895 25.198, 15.848 25.248, 17.700 25.649 M 30.750 25.662 C 31.438 25.940, 32.563 25.940, 33.250 25.662 C 33.938 25.385, 33.375 25.158, 32 25.158 C 30.625 25.158, 30.063 25.385, 30.750 25.662" stroke="none" fill="#555555" fill-rule="evenodd"/>
</svg>