<svg xmlns="http://www.w3.org/2000/svg" width="1000" height="1000" viewBox="0 0 1000 1000" version="1.1"><path d="M 416.500 303.103 C 355.305 304.664, 337.972 306.416, 318.500 313.011 C 304.865 317.629, 292.278 320.274, 273.500 322.467 C 266.350 323.302, 253.437 325.097, 244.804 326.456 C 230.837 328.653, 228.139 329.409, 220.304 333.314 C 211.089 337.908, 199.653 341.238, 187 343.010 C 172.772 345.003, 166.307 347.183, 158.163 352.735 C 149.810 358.429, 144.011 361.260, 135.440 363.827 C 131.538 364.996, 127.430 366.961, 126.256 368.221 C 119.988 374.945, 112.808 381.928, 108.742 385.253 C 105.874 387.599, 103.690 390.409, 102.918 392.748 C 102.239 394.806, 100.025 400.095, 97.999 404.502 L 94.315 412.515 93.690 434.507 C 93.347 446.603, 92.592 470.900, 92.012 488.500 C 91.433 506.100, 90.465 537.825, 89.863 559 C 89.260 580.175, 88.567 602.840, 88.323 609.366 C 87.906 620.507, 88.033 621.546, 90.405 626.366 C 91.936 629.479, 94.711 632.878, 97.454 635 C 99.941 636.925, 103.323 640.551, 104.969 643.058 C 109.361 649.747, 112.035 651.899, 123.528 657.996 C 129.234 661.023, 136.249 665.525, 139.116 668 C 145.072 673.142, 149.894 675.294, 161.558 678.013 C 171.697 680.378, 175.914 682.267, 183.082 687.659 C 190.529 693.261, 201.322 695.921, 223 697.497 C 235.355 698.396, 253.773 702.431, 269.104 707.598 C 293.618 715.860, 284.601 715.500, 467 715.500 C 612.609 715.500, 628.799 715.341, 641.500 713.782 C 654.648 712.169, 666.613 709.294, 675.254 705.672 C 683.634 702.160, 702.210 698.947, 725.667 696.954 C 751.587 694.752, 758.107 693.399, 764.720 688.849 C 771.170 684.411, 778.399 681.495, 790.054 678.632 C 806.190 674.668, 811.460 672.527, 817.923 667.310 C 823.831 662.542, 827.334 660.974, 844.256 655.520 C 852.045 653.009, 853.466 652.162, 857.136 647.839 C 860.320 644.090, 863.400 641.962, 870.631 638.514 C 876.997 635.478, 882.003 632.189, 886.250 628.250 C 889.688 625.062, 895.650 619.937, 899.500 616.862 C 908.423 609.734, 909.606 608.365, 911.523 602.950 C 912.908 599.037, 913.025 592.532, 912.493 549 C 912.160 521.775, 911.741 478.350, 911.561 452.500 C 911.191 399.183, 911.253 399.642, 902.834 388.307 C 900.462 385.113, 896.713 379.800, 894.502 376.500 C 890.686 370.806, 889.792 370.143, 876.961 363.500 C 869.524 359.650, 860.979 354.625, 857.970 352.334 C 851.777 347.616, 844.011 344.873, 830 342.452 C 814.504 339.775, 808.954 338.078, 800.126 333.316 C 792.803 329.366, 790.042 328.505, 778.126 326.457 C 770.632 325.168, 758.875 323.417, 752 322.564 C 734.090 320.343, 720.312 317.487, 706 313.028 C 682.955 305.849, 670.251 304.614, 603 303.022 C 554.889 301.883, 462.786 301.923, 416.500 303.103 M 456.500 308.048 C 435.974 308.605, 428.500 309.188, 421 310.816 C 411.331 312.915, 394.817 315.394, 367 318.925 C 352.619 320.750, 346.085 321.416, 316.500 324.073 C 299.565 325.593, 279.934 328.031, 275.500 329.165 C 273.300 329.727, 268.067 331.912, 263.871 334.019 C 255.440 338.254, 251.273 339.174, 230 341.498 C 200.398 344.731, 191.897 346.852, 184.219 352.921 C 177.249 358.431, 172.322 360.710, 162.360 363.033 C 150.733 365.744, 146.058 367.944, 141.533 372.835 C 139.454 375.081, 134.703 378.762, 130.976 381.014 C 122.763 385.977, 108.265 401.089, 105.804 407.252 C 103.568 412.855, 103.602 416.108, 106 425.590 C 108.275 434.585, 110.181 436.751, 117.738 438.928 C 125.247 441.091, 131.261 444.547, 134.316 448.456 C 138.767 454.150, 143.625 456.785, 152 458.047 C 162.633 459.649, 169.884 463.132, 174.973 469.083 C 179.809 474.738, 183.808 476.256, 198.500 478.014 C 210.056 479.397, 225.724 482.569, 230.163 484.423 C 232.067 485.219, 235.552 487.740, 237.907 490.026 C 245.275 497.176, 245.863 497.289, 280 498.107 C 296.775 498.509, 313.875 499.302, 318 499.869 C 333.589 502.013, 344.537 504.243, 353.864 507.175 C 368.527 511.784, 370.805 512.176, 380.255 511.706 C 386.895 511.376, 390.638 511.733, 395.755 513.185 C 407.826 516.611, 430.922 517.514, 501.246 517.306 C 561.668 517.128, 567.985 516.950, 579.246 515.113 C 585.986 514.014, 595.542 512.608, 600.483 511.989 C 605.423 511.370, 616.080 509.333, 624.165 507.462 C 652.543 500.895, 669.630 498.916, 705 498.099 C 732.382 497.467, 734.787 497.266, 738.500 495.300 C 740.700 494.136, 743.850 491.752, 745.500 490.002 C 749.502 485.759, 752.857 484.125, 762.100 481.917 C 769.515 480.146, 775.492 479.312, 797.326 477.003 C 808.504 475.820, 813.164 473.852, 817.295 468.570 C 821.842 462.753, 828.603 460.009, 843.479 457.940 C 853.203 456.587, 858.219 454.137, 861.542 449.116 C 864.360 444.858, 870.698 441.013, 878.836 438.623 C 887.986 435.937, 890.339 433.877, 894.109 425.256 C 897.256 418.058, 897.500 416.744, 897.500 407 C 897.500 392.977, 895.416 388.329, 887.361 384.388 C 883.703 382.598, 879.960 379.532, 876.181 375.227 C 870.006 368.194, 865.857 365.867, 855 363.348 C 845.879 361.232, 839.476 358.278, 832.393 352.918 C 825.154 347.440, 815.633 344.496, 800.396 343.026 C 783.037 341.350, 770.421 338.283, 760.526 333.333 C 750.407 328.270, 745.583 327.394, 712 324.521 C 679.611 321.751, 648.239 318.015, 622.500 313.863 C 582.039 307.336, 538.696 305.818, 456.500 308.048 M 879.898 464.289 C 878.029 465.547, 875.453 468.474, 874.174 470.791 C 870.419 477.592, 863.431 480.999, 849.169 482.983 C 836.655 484.723, 834.454 485.644, 827.703 491.959 C 819.401 499.725, 814.077 501.498, 794.791 502.919 C 777.946 504.161, 770.418 506.357, 762.685 512.289 C 760.037 514.320, 755.537 516.642, 752.685 517.450 C 738.298 521.522, 713.681 523.972, 686.960 523.990 C 671.477 524.001, 663.061 525.447, 657.505 529.052 C 650.795 533.406, 642.040 536.874, 634 538.363 C 616.700 541.568, 600.119 542.061, 514.641 541.916 C 432.032 541.775, 429.713 541.823, 427.141 543.717 C 425.689 544.787, 423.619 547.271, 422.542 549.237 C 420.694 552.612, 420.653 553.507, 421.801 565.156 C 422.615 573.423, 423.014 598.600, 423.008 641.382 C 423 704.179, 423.035 705.321, 425.063 708.602 C 426.348 710.680, 428.330 712.266, 430.313 712.802 C 434.528 713.941, 538.204 712.457, 544 711.174 C 546.475 710.627, 551.650 709.910, 555.500 709.581 C 566.677 708.628, 571.735 708.004, 584.500 706.007 C 591.100 704.974, 600.100 703.850, 604.500 703.509 C 608.900 703.167, 621.500 701.815, 632.500 700.504 C 643.500 699.192, 662.175 697.630, 674 697.033 C 704.719 695.481, 714.012 693.929, 725.799 688.385 C 737.066 683.085, 749.568 679.273, 760 677.957 C 780.082 675.425, 787.973 672.910, 794.558 666.947 C 801.580 660.588, 803.960 659.450, 815.419 656.967 C 828.097 654.220, 831.826 652.555, 835.869 647.837 C 839.211 643.936, 848.234 638.027, 850.876 638.009 C 854.193 637.987, 865.033 631.294, 871 625.584 C 875.070 621.689, 880.354 617.943, 885.135 615.562 C 891.960 612.164, 892.989 611.269, 894.834 607.130 C 895.968 604.584, 897.198 601.416, 897.566 600.092 C 897.934 598.767, 898.223 568.713, 898.209 533.305 C 898.185 475.294, 898.020 468.679, 896.539 466.419 C 893.356 461.561, 885.450 460.549, 879.898 464.289 M 106.437 466.071 C 103.521 469.120, 103.503 469.212, 103.954 478.821 C 104.578 492.132, 104.595 530.266, 104 582 L 103.500 625.500 105.767 629.744 C 107.525 633.035, 109.378 634.667, 114.008 637.004 C 118.441 639.242, 121.274 641.664, 124.991 646.394 C 130.200 653.023, 134.064 655.272, 145 658.045 C 151.232 659.624, 156.706 662.750, 162 667.751 C 167.308 672.764, 172.781 675.007, 187.012 677.998 C 200.807 680.898, 204.758 682.292, 215.500 688.052 C 223.467 692.324, 225.763 693.055, 235.500 694.418 C 241.550 695.265, 255.275 696.425, 266 696.996 C 276.725 697.567, 287.525 698.279, 290 698.579 C 297.714 699.514, 321.811 702.827, 338 705.179 C 349.042 706.783, 358.294 707.440, 370.171 707.465 C 385.492 707.497, 387.066 707.333, 389.617 705.432 C 391.143 704.295, 392.795 702.045, 393.288 700.432 C 393.780 698.820, 394.564 679.500, 395.029 657.500 C 395.927 615.033, 397.419 579.622, 398.969 564 C 400 553.607, 399.235 548.022, 396.341 544.825 C 392.601 540.691, 389.683 540.001, 375.800 539.968 C 362.937 539.938, 345.671 538.139, 339.500 536.186 C 334.794 534.697, 330.758 532.753, 327.500 530.408 C 321.097 525.797, 312.125 524.255, 287.076 523.456 C 265.831 522.779, 243.421 520.589, 234.143 518.283 C 228.852 516.968, 226.898 515.837, 222.498 511.541 C 216.044 505.240, 213.046 504.261, 196.327 502.994 C 189.272 502.460, 181.198 501.548, 178.384 500.968 C 172.298 499.714, 166.126 495.939, 163.441 491.830 C 160.695 487.625, 157.986 486.473, 144.105 483.602 C 129.457 480.573, 125.555 478.464, 122.837 472.109 C 119.980 465.431, 117.358 463, 113.013 463 C 110.255 463, 108.663 463.744, 106.437 466.071 M 497.745 585.503 C 494.580 586.894, 488.730 590.200, 484.745 592.849 C 480.760 595.497, 475.501 598.446, 473.058 599.401 C 463.678 603.068, 460.304 607.368, 457.511 619.219 C 455.636 627.170, 455.619 634.317, 457.449 644.718 C 458.860 652.736, 460.139 656.282, 462.457 658.600 C 463.987 660.130, 468.918 662.576, 472 663.334 C 475.213 664.124, 479.016 667.535, 481.813 672.138 C 483.029 674.138, 484.668 676.310, 485.456 676.963 C 487.944 679.029, 497.225 681.002, 505.054 681.130 C 514.305 681.281, 517.873 679.669, 522.311 673.331 C 524.897 669.638, 527.046 668.060, 533.672 664.989 C 542.647 660.829, 543.599 659.678, 546.935 648.959 C 547.966 645.648, 550.001 641.376, 551.458 639.467 C 557.022 632.171, 556.909 628.832, 550.880 622.453 C 549.217 620.692, 546.758 615.856, 545.059 611.001 C 541.341 600.378, 540.083 599.329, 527.005 595.952 C 523.597 595.072, 521.284 593.463, 517.434 589.293 C 513.008 584.499, 511.790 583.742, 507.929 583.384 C 504.701 583.085, 501.939 583.659, 497.745 585.503 M 495.860 619.554 C 487.219 622.337, 484.727 624.918, 484.727 631.084 C 484.727 637.268, 488.024 641.296, 496.007 644.865 C 500.027 646.663, 504.699 648, 506.961 648 C 510.507 648, 511.215 647.549, 513.992 643.511 C 520.779 633.647, 520.946 627.266, 514.593 620.530 C 510.483 616.172, 506.937 615.987, 495.860 619.554" stroke="none" fill="#444" fill-rule="evenodd"/></svg>