<svg xmlns="http://www.w3.org/2000/svg" width="1000" height="1000" viewBox="0 0 1000 1000" version="1.1"><path d="M 503.557 111.223 C 500.395 115.736, 502.787 123, 507.434 123 C 510.276 123, 511.791 121.295, 512.617 117.166 C 513.929 110.607, 507.118 106.138, 503.557 111.223 M 502.455 244.455 C 499.894 247.015, 499.479 248.631, 500.836 250.768 C 501.953 252.528, 506.997 253.777, 510 253.037 C 512.056 252.530, 512.557 251.725, 512.823 248.500 C 513.058 245.644, 512.667 244.230, 511.382 243.290 C 508.657 241.298, 505.155 241.755, 502.455 244.455 M 501.250 365.989 C 497.043 368.554, 496.903 371.921, 500.904 374.284 C 504.265 376.270, 510.056 376.544, 511.800 374.800 C 513.352 373.248, 513.352 366.752, 511.800 365.200 C 509.986 363.386, 504.895 363.766, 501.250 365.989 M 506 370 C 506 370.550, 506.450 371, 507 371 C 507.550 371, 508 370.550, 508 370 C 508 369.450, 507.550 369, 507 369 C 506.450 369, 506 369.450, 506 370 M 501.881 488.895 C 499.867 490.526, 499.680 491.189, 500.543 493.643 C 502.537 499.312, 511.135 500.406, 513.098 495.241 C 514.126 492.540, 513.413 488.950, 511.615 487.765 C 509.518 486.384, 504.224 486.998, 501.881 488.895 M 505 491.893 C 505 494.383, 507.968 495.460, 509.796 493.633 C 511.669 491.759, 510.529 490, 507.441 490 C 505.713 490, 505 490.553, 505 491.893 M 504.557 619.223 C 501.631 623.399, 503.076 629, 507.078 629 C 509.648 629, 511.402 626.203, 511.291 622.280 C 511.140 616.939, 507.358 615.222, 504.557 619.223 M 505.327 742.778 C 503.116 743.125, 498 747.565, 498 749.136 C 498 750.704, 501.902 753.937, 504.615 754.618 C 506.081 754.986, 508.455 754.877, 509.890 754.375 C 511.991 753.642, 512.561 752.722, 512.815 749.662 C 513.266 744.201, 510.786 741.921, 505.327 742.778 M 505.200 747.200 C 502.672 749.728, 505.024 752.695, 508.500 751.362 C 510.480 750.602, 510.425 747.377, 508.418 746.607 C 506.404 745.834, 506.602 745.798, 505.200 747.200" stroke="none" fill="#444" fill-rule="evenodd"/></svg>