<svg xmlns="http://www.w3.org/2000/svg" width="50" height="50" viewBox="0 0 50 50" version="1.1"><path d="M 22.231 25.250 L 22.500 47.500 25 47.500 L 27.500 47.500 27.769 25.250 L 28.038 3 25 3 L 21.962 3 22.231 25.250 M 23 23.073 C 23 40.700, 23.133 42.121, 24.750 41.810 C 26.331 41.507, 26.526 39.661, 26.772 22.737 C 27.037 4.509, 26.989 4, 25.022 4 C 23.063 4, 23 4.597, 23 23.073 M 23 45 C 23 46.333, 23.667 47, 25 47 C 26.333 47, 27 46.333, 27 45 C 27 43.667, 26.333 43, 25 43 C 23.667 43, 23 43.667, 23 45" stroke="none" fill="#444" fill-rule="evenodd"/></svg>