<svg xmlns="http://www.w3.org/2000/svg" width="800" height="800" viewBox="0 0 800 800" version="1.1"><path d="M 400.500 85.155 C 397.163 86.980, 396 89.177, 396 93.656 C 396 100.732, 403.550 107.510, 408.405 104.793 C 413.002 102.221, 415.054 89.927, 411.535 86.039 C 409.482 83.770, 403.855 83.319, 400.500 85.155 M 402.235 86.037 C 399.482 87.143, 397.663 91.511, 398.519 94.961 C 400.075 101.239, 407.624 104.439, 410.075 99.861 C 412.257 95.783, 412.916 91.909, 411.887 89.203 C 410.287 84.995, 407.282 84.009, 402.235 86.037 M 398.286 193.451 C 395.728 196.008, 393.976 198.623, 394.167 199.595 C 394.725 202.432, 399.581 205.253, 404.765 205.751 C 409.247 206.182, 409.877 205.972, 411.930 203.362 C 413.626 201.206, 414.046 199.674, 413.636 197.145 C 412.725 191.532, 410.459 189, 406.345 189 C 403.408 189, 401.909 189.828, 398.286 193.451 M 401.826 192.712 C 396.285 196.150, 396.182 201.978, 401.626 204.048 C 408.151 206.529, 413.713 203.315, 412.592 197.711 C 411.333 191.414, 407.092 189.445, 401.826 192.712 M 402.489 288.336 C 394.660 291.363, 390.504 295.770, 392.474 298.957 C 393.491 300.603, 400.167 303.753, 404.268 304.522 C 407.491 305.127, 408.314 304.840, 410.971 302.183 C 414.681 298.473, 414.971 294.179, 411.750 290.637 C 408.905 287.507, 406.304 286.861, 402.489 288.336 M 399.898 291.282 C 395.069 294.526, 394.792 298.293, 399.186 300.972 C 403.912 303.853, 408.365 303.623, 410.927 300.365 C 412.067 298.916, 413 296.952, 413 296 C 413 295.048, 412.067 293.084, 410.927 291.635 C 408.323 288.324, 404.485 288.201, 399.898 291.282 M 398.250 388.989 C 393.680 391.775, 393.783 395.724, 398.535 399.896 C 405.097 405.658, 412.377 403.612, 413.670 395.643 C 414.604 389.891, 412.112 386.999, 406.227 387.004 C 403.280 387.006, 400.276 387.754, 398.250 388.989 M 400.228 389.230 C 395.540 391.490, 396.499 397.655, 401.980 400.490 C 406.182 402.663, 408.570 402.363, 410.927 399.365 C 413.489 396.109, 413.596 391.849, 411.171 389.655 C 409.113 387.792, 403.652 387.580, 400.228 389.230 M 402.196 488.488 C 398.623 491.495, 396 496.718, 396 500.829 C 396 505.050, 399.953 508, 405.612 508 C 411.668 508, 413.378 505.285, 412.823 496.555 C 412.183 486.510, 408.169 483.463, 402.196 488.488 M 402.826 490.703 C 398.352 495.827, 397.583 502.894, 401.223 505.443 C 403.947 507.352, 407.022 507.436, 409.440 505.668 C 411.785 503.953, 412.608 495.495, 410.769 492 C 409.135 488.895, 404.995 488.219, 402.826 490.703 M 399.840 592.022 C 394.596 594.792, 391.750 598.665, 393.103 601.192 C 394.508 603.817, 401.589 606.951, 406.177 606.978 C 413.023 607.019, 416.055 599.883, 412.011 593.250 C 410.413 590.628, 409.398 590.009, 406.765 590.044 C 404.969 590.069, 401.853 590.958, 399.840 592.022 M 402.500 592.167 C 393.111 597.360, 394.312 604.293, 404.846 605.706 C 407.956 606.123, 409.206 605.794, 410.884 604.116 C 413.574 601.426, 413.592 597.023, 410.927 593.635 C 408.736 590.849, 405.806 590.339, 402.500 592.167 M 421.170 694.750 C 419.963 697.098, 420.764 699, 422.961 699 C 425.289 699, 427.385 696.446, 426.643 694.513 C 425.850 692.447, 422.275 692.602, 421.170 694.750 M 405.073 709.635 C 403.933 711.084, 403.007 712.547, 403.015 712.885 C 403.112 716.768, 409.757 716.905, 411.662 713.063 C 414.339 707.667, 408.862 704.817, 405.073 709.635 M 390.308 723.010 C 387.089 724.306, 384.661 728.511, 385.409 731.493 C 385.922 733.537, 386.649 734, 389.345 734 C 395.474 734, 399.857 725.599, 395.066 723.035 C 392.855 721.852, 393.177 721.854, 390.308 723.010 M 370 738.288 C 366.443 740.078, 365.944 746.147, 369.168 748.405 C 372.042 750.418, 375.920 750.445, 378.738 748.471 C 381.397 746.609, 382.751 740.610, 380.991 738.489 C 379.487 736.676, 373.422 736.565, 370 738.288" stroke="none" fill="#444" fill-rule="evenodd"/></svg>