<svg xmlns="http://www.w3.org/2000/svg" width="800" height="800" viewBox="0 0 800 800" version="1.1"><path d="M 394.295 97.107 C 386.754 99.288, 385.783 108.161, 392.684 111.837 C 395.746 113.468, 405.545 113.287, 408.928 111.537 C 411.565 110.174, 413.602 107.269, 412.615 106.282 C 412.377 106.044, 411.898 106.746, 411.550 107.841 C 410.855 110.033, 406.277 112, 401.871 112 C 396.945 112, 391.051 109.051, 390.344 106.233 C 389.058 101.111, 394.050 97.714, 402.863 97.714 C 407.592 97.714, 408.681 98.090, 410.679 100.413 C 413.140 103.274, 413.660 103.101, 411.988 99.978 C 410.172 96.585, 401.159 95.122, 394.295 97.107 M 393.250 197.989 C 390.436 199.705, 390 200.519, 390 204.062 C 390 212.322, 399.342 216.865, 407.010 212.335 C 412.294 209.213, 413.932 200.467, 409.777 197.557 C 406.518 195.274, 397.309 195.514, 393.250 197.989 M 395.819 198.536 C 388.845 202.322, 393.336 211, 402.268 211 C 409.578 211, 414.127 202.304, 408.777 198.557 C 406.008 196.617, 399.372 196.607, 395.819 198.536 M 396.500 300.863 C 391.537 303.121, 390.059 304.862, 389.339 309.298 C 388.425 314.933, 391.299 317, 400.045 317 C 406.283 317, 407.386 316.705, 409.667 314.424 C 411.840 312.251, 412.158 311.218, 411.703 307.826 C 410.617 299.725, 404.829 297.075, 396.500 300.863 M 398.333 302.456 C 391.300 305.515, 388.811 311.353, 393.223 314.443 C 394.558 315.379, 397.569 316, 400.768 316 C 405.149 316, 406.545 315.546, 408.657 313.434 C 410.727 311.364, 411.105 310.252, 410.609 307.684 C 409.455 301.707, 404.705 299.684, 398.333 302.456 M 393.357 400.992 C 390.599 402.105, 388 405.828, 388 408.667 C 388 409.889, 389.086 412.151, 390.413 413.694 C 392.659 416.305, 393.348 416.500, 400.333 416.500 C 406.900 416.500, 408.161 416.197, 410.419 414.076 C 411.839 412.742, 413 411.219, 413 410.691 C 413 410.163, 412.088 410.890, 410.972 412.308 C 407.088 417.246, 393.836 416.731, 390.414 411.510 C 387.048 406.372, 391.468 402.101, 401.316 400.979 L 407.500 400.274 401.500 400.200 C 398.200 400.160, 394.536 400.516, 393.357 400.992 M 393.395 500.430 C 388.116 502.728, 388.210 509.126, 393.573 512.640 C 396.751 514.722, 404.831 514.964, 408.346 513.082 C 410.930 511.700, 413.059 508.023, 412.910 505.203 C 412.860 504.266, 412.398 504.960, 411.883 506.745 C 410.526 511.442, 407.061 513.356, 400.974 512.771 C 395.324 512.229, 392 509.843, 392 506.330 C 392 501.117, 404.251 497.889, 410.027 501.580 L 412.500 503.160 410.139 501.080 C 407.328 498.603, 398.390 498.256, 393.395 500.430 M 398.333 600.097 C 393.315 601.550, 390 606.254, 390 611.922 C 390 618.939, 391.963 620.341, 401.065 619.826 C 409.546 619.347, 411 618.034, 411 610.856 C 411 604.599, 409.404 601.336, 405.713 600.050 C 402.311 598.864, 402.600 598.862, 398.333 600.097 M 398.799 603.729 C 395.137 606, 392.539 611.029, 393.353 614.272 C 394.548 619.031, 403.807 620.271, 408.250 616.267 C 409.406 615.225, 410 613.216, 410 610.345 C 410 602.984, 404.877 599.958, 398.799 603.729 M 372.667 723.667 C 371.289 725.044, 372.052 730.737, 373.829 732.345 C 379.081 737.098, 384.599 731.156, 380.443 725.223 C 378.944 723.082, 374.200 722.133, 372.667 723.667 M 421.245 724.250 C 418.140 728.131, 419.257 734, 423.101 734 C 428.036 734, 431.212 729.133, 428.989 724.979 C 427.781 722.722, 422.840 722.256, 421.245 724.250 M 393 740.847 C 389.303 741.930, 389.050 746.331, 392.553 748.627 C 395.942 750.848, 404.086 750.829, 407.499 748.593 C 410.401 746.691, 410.774 743.484, 408.250 742.136 C 405.761 740.808, 395.964 739.980, 393 740.847" stroke="none" fill="#444" fill-rule="evenodd"/></svg>