<svg xmlns="http://www.w3.org/2000/svg" width="1000" height="1000" viewBox="0 0 1000 1000" version="1.1"><path d="M 490.223 146.557 C 488.008 148.108, 487.245 152.323, 488.765 154.600 C 491.367 158.497, 497.327 158.538, 504.250 154.707 C 509.153 151.993, 509.088 149.596, 504.040 147.020 C 499.313 144.609, 493.292 144.407, 490.223 146.557 M 496.569 149.326 C 493.981 151.218, 495.432 153, 499.559 153 C 502.333 153, 503 152.613, 503 151 C 503 149.900, 502.587 149, 502.082 149 C 501.577 149, 500.551 148.765, 499.803 148.478 C 499.055 148.191, 497.599 148.573, 496.569 149.326 M 489.571 268.571 C 487.580 270.563, 487.575 272.948, 489.557 275.777 C 491.962 279.211, 498.971 278.891, 503.151 275.156 C 506.782 271.912, 506.554 269.541, 502.461 267.985 C 498.450 266.460, 491.360 266.783, 489.571 268.571 M 495.693 269.700 C 494.667 269.966, 494.022 270.888, 494.201 271.834 C 494.569 273.773, 498.807 274.493, 501 272.990 C 502.300 272.099, 502.242 271.765, 500.559 270.481 C 499.491 269.666, 498.366 269.052, 498.059 269.116 C 497.751 269.180, 496.687 269.443, 495.693 269.700 M 491.514 390.629 C 490.618 391.525, 490.136 392.912, 490.442 393.711 C 490.749 394.510, 491 395.336, 491 395.547 C 491 395.757, 491.896 396.409, 492.991 396.995 C 495.281 398.221, 500.349 396.138, 501.336 393.566 C 502.806 389.736, 494.801 387.342, 491.514 390.629 M 489.783 765.578 C 488.205 769.040, 489.773 771.408, 493.916 771.818 C 499.469 772.368, 501.995 768.115, 498.171 764.655 C 495.316 762.071, 491.173 762.527, 489.783 765.578" stroke="none" fill="#444" fill-rule="evenodd"/></svg>