<svg xmlns="http://www.w3.org/2000/svg" width="800" height="800" viewBox="0 0 800 800" version="1.1"><path d="M 423.827 700.750 C 417.768 707.290, 414.571 713.999, 416.844 715.403 C 418.481 716.415, 425.036 713.873, 426.391 711.700 C 428.932 707.627, 429.416 698, 427.080 698 C 426.692 698, 425.228 699.237, 423.827 700.750 M 407.360 720.460 C 406.214 721.263, 404.697 723.318, 403.989 725.026 C 402.896 727.666, 402.933 728.362, 404.240 729.669 C 407.635 733.063, 412 728.713, 412 721.935 C 412 718.669, 410.567 718.214, 407.360 720.460 M 390.529 740.614 C 388.569 742.574, 388.560 745.894, 390.513 746.643 C 392.600 747.444, 395 745.221, 395 742.485 C 395 739.629, 392.542 738.601, 390.529 740.614 M 369.200 757.200 C 367.346 759.054, 367.765 760.800, 370.493 762.587 C 374.973 765.523, 379.950 762.568, 378.455 757.859 C 377.764 755.682, 371.187 755.213, 369.200 757.200" stroke="none" fill="#444" fill-rule="evenodd"/></svg>