<svg xmlns="http://www.w3.org/2000/svg" width="50" height="50" viewBox="0 0 50 50" version="1.1"><path d="M 22.229 22.250 L 22.500 42.500 25.250 42.816 L 28 43.133 28 22.566 L 28 2 24.979 2 L 21.959 2 22.229 22.250 M 23 20 C 23 36.333, 23.078 37, 25 37 C 26.922 37, 27 36.333, 27 20 C 27 3.667, 26.922 3, 25 3 C 23.078 3, 23 3.667, 23 20 M 23.250 40.250 C 23.479 40.938, 24.267 41.500, 25 41.500 C 25.733 41.500, 26.521 40.938, 26.750 40.250 C 26.998 39.506, 26.289 39, 25 39 C 23.711 39, 23.002 39.506, 23.250 40.250" stroke="none" fill="#444" fill-rule="evenodd"/></svg>