<svg xmlns="http://www.w3.org/2000/svg" width="1000" height="1000" viewBox="0 0 1000 1000" version="1.1"><path d="M 492.984 125.869 C 485.736 129.756, 490.123 137.278, 499.725 137.426 C 508.107 137.556, 513.978 133.656, 512.485 128.951 C 510.962 124.153, 499.547 122.349, 492.984 125.869 M 496.614 128.529 C 494.422 130.721, 495.647 132.815, 499.853 134.068 C 506.029 135.907, 512.080 132.211, 508.989 128.487 C 507.312 126.467, 498.647 126.496, 496.614 128.529 M 500.248 249.718 C 495.752 250.559, 494.868 257.189, 499.074 258.523 C 504.594 260.275, 511.436 254.903, 507.927 251.570 C 506.150 249.882, 503.190 249.168, 500.248 249.718 M 497.315 383.007 C 496.114 383.491, 494.591 384.895, 493.932 386.127 C 492.900 388.055, 493.045 388.618, 494.978 390.183 C 497.946 392.587, 502.115 392.484, 505.365 389.927 C 508.526 387.441, 508.615 386.615, 506 384 C 503.888 381.888, 500.932 381.550, 497.315 383.007 M 495.643 504.028 C 491.662 505.221, 489 507.883, 489 510.670 C 489 518.209, 510.160 519.372, 512.512 511.962 C 514.395 506.028, 504.499 501.374, 495.643 504.028 M 496.500 507.195 C 492.424 509.507, 492.461 511.978, 496.602 513.865 C 504.114 517.287, 514.423 512.190, 508.950 507.759 C 506.475 505.754, 499.591 505.442, 496.500 507.195 M 498.854 627.710 C 491.836 628.779, 491.865 634.980, 498.898 637.088 C 503.798 638.556, 507.970 637.280, 509.990 633.696 C 511.311 631.354, 511.311 630.892, 509.990 629.643 C 508.311 628.054, 502.832 627.103, 498.854 627.710 M 497.567 761.926 C 494.653 765.145, 495.898 767.500, 500.514 767.500 C 503.915 767.500, 504.548 767.162, 504.827 765.195 C 505.501 760.440, 500.819 758.332, 497.567 761.926" stroke="none" fill="#444" fill-rule="evenodd"/></svg>