<svg xmlns="http://www.w3.org/2000/svg" width="800" height="800" viewBox="0 0 800 800" version="1.1"><path d="M 390.736 114.250 C 385.945 117.888, 387.125 126.957, 392.663 129.062 C 396.119 130.376, 407.776 127.750, 411.503 124.819 C 414.611 122.375, 414.735 118.628, 411.777 116.557 C 408.524 114.278, 406.587 114.587, 409 117 C 411.712 119.712, 411.514 122.451, 408.430 124.877 C 405.553 127.139, 398.333 128.551, 394.525 127.596 C 391.187 126.758, 388.608 122.700, 389.402 119.536 C 390.127 116.644, 392.467 115.201, 398.297 114.049 L 402.500 113.219 397.441 113.110 C 394.659 113.049, 391.642 113.563, 390.736 114.250 M 393 210.709 C 387.373 212.778, 386.087 220.177, 390.573 224.664 C 393.592 227.683, 396.323 227.532, 405.489 223.838 C 412.707 220.929, 414.851 218.211, 412.277 215.231 C 411.299 214.099, 409.375 212.868, 408 212.494 L 405.500 211.815 407.807 213.504 C 411.563 216.254, 410.432 220.030, 405.038 222.750 C 396.641 226.984, 389 224.795, 389 218.155 C 389 215.195, 391.621 212.011, 394.079 211.985 C 394.860 211.976, 396.175 211.533, 397 211 C 398.237 210.200, 398.150 210.042, 396.500 210.094 C 395.400 210.129, 393.825 210.406, 393 210.709 M 393 307.946 C 391.614 308.300, 389.876 309.880, 389.100 311.492 C 387.899 313.985, 387.899 314.975, 389.100 318.430 C 391.214 324.515, 394.226 325.148, 402.257 321.194 C 409.466 317.645, 412.326 315.014, 411.452 312.736 C 410.780 310.985, 405.276 308.390, 404.301 309.365 C 403.952 309.714, 404.362 310, 405.211 310 C 407.513 310, 409.254 312.623, 408.510 314.969 C 407.712 317.482, 401.134 321, 397.231 321 C 393.610 321, 391.284 319.224, 390.468 315.837 C 389.486 311.760, 392.796 309, 398.667 309 C 401.233 309, 403.146 308.839, 402.917 308.642 C 401.962 307.820, 395.316 307.354, 393 307.946 M 391.441 408.066 C 390.114 409.532, 389.577 411.635, 389.591 415.316 C 389.633 426.260, 394.376 428.063, 402.920 420.382 C 409.189 414.745, 410.429 412.670, 409.056 410.105 C 406.780 405.851, 394.709 404.454, 391.441 408.066 M 395.073 410.635 C 392.821 413.497, 392.689 414.026, 393.618 416.446 C 394.742 419.377, 397.701 420.206, 400.982 418.510 C 408.356 414.696, 408.392 408, 401.037 408 C 398.024 408, 396.677 408.595, 395.073 410.635 M 391.348 505.592 C 390.414 507.018, 389.456 510.510, 389.221 513.353 C 388.636 520.397, 391.019 523.504, 396.828 523.272 C 401.622 523.081, 406.266 520.886, 408.439 517.783 C 410.637 514.645, 410.392 512.619, 407.381 509.041 C 402.003 502.649, 394.354 501.004, 391.348 505.592 M 394.343 508.566 C 392.267 510.642, 391.896 511.741, 392.402 514.316 C 393.564 520.234, 399.218 521.872, 403.545 517.545 C 404.895 516.195, 406 514.150, 406 513 C 406 510.302, 401.698 506, 399 506 C 397.850 506, 395.754 507.155, 394.343 508.566 M 389.394 607.521 C 388.486 608.907, 387.695 611.874, 387.636 614.112 C 387.498 619.380, 389.669 621.045, 396.441 620.866 L 401.500 620.733 397 620.090 C 390.860 619.214, 390 618.477, 390 614.096 C 390 607.140, 396.408 604.786, 403.102 609.282 C 407.680 612.357, 408.201 616.287, 404.310 618.396 C 400.688 620.360, 402.184 620.473, 405.959 618.521 C 411.299 615.760, 410.465 612.519, 403.233 607.933 C 397.178 604.093, 391.746 603.931, 389.394 607.521 M 418.905 660.285 C 414.702 663.118, 414.166 665.483, 417.035 668.537 C 421.351 673.131, 430.532 672.518, 432.826 667.483 C 436.251 659.966, 426.704 655.030, 418.905 660.285 M 420.162 741.327 C 418.063 743.562, 418.014 743.871, 419.516 745.373 C 421.504 747.361, 427.804 747.464, 430.330 745.549 C 431.423 744.721, 432.027 743.223, 431.830 741.831 C 431.547 739.835, 430.849 739.457, 426.967 739.204 C 423.242 738.961, 422.030 739.339, 420.162 741.327" stroke="none" fill="#444" fill-rule="evenodd"/></svg>