<svg xmlns="http://www.w3.org/2000/svg" width="800" height="800" viewBox="0 0 800 800" version="1.1"><path d="M 373.094 35.306 C 371.220 35.963, 368.765 37.744, 367.637 39.265 L 365.586 42.031 367.820 44.265 C 369.993 46.440, 370.731 46.509, 395.215 46.842 C 423.206 47.222, 429.886 46.725, 433.224 44.014 L 435.500 42.166 433.406 39.333 C 432.255 37.775, 429.780 35.963, 427.906 35.306 C 423.207 33.660, 377.793 33.660, 373.094 35.306 M 395.329 85.458 C 391.171 87.266, 389.643 90.301, 390.326 95.393 C 391.342 102.970, 397.991 105.996, 405.643 102.365 C 408.908 100.816, 412.807 95.474, 411.574 94.240 C 411.258 93.925, 411 94.192, 411 94.833 C 411 97.513, 406.992 100, 402.674 100 C 397.435 100, 394 96.967, 394 92.341 C 394 88.151, 397.120 85.667, 403.333 84.911 L 408.500 84.282 403.500 84.180 C 400.750 84.124, 397.073 84.699, 395.329 85.458 M 392.500 193.155 C 389.337 194.885, 388 197.123, 388 200.691 C 388 206.872, 394.108 209.942, 403.769 208.618 C 408.128 208.021, 413 204.892, 413 202.691 C 413 202.163, 412.109 202.864, 411.019 204.249 C 408.480 207.477, 402.167 208.519, 396.009 206.725 C 388.330 204.489, 387.322 198.214, 394.085 194.752 C 398.371 192.557, 406.722 192.468, 410.027 194.580 L 412.500 196.160 410.139 194.080 C 408.244 192.410, 406.468 192.006, 401.139 192.030 C 397.488 192.047, 393.600 192.553, 392.500 193.155 M 392.455 296.455 C 390.408 298.502, 390 299.881, 390 304.763 C 390 307.983, 390.575 311.403, 391.277 312.364 C 394.258 316.440, 405.825 316.167, 409.250 311.939 C 411.811 308.777, 411.628 300.068, 408.927 296.635 C 407.102 294.314, 406.143 294, 400.882 294 C 395.874 294, 394.513 294.396, 392.455 296.455 M 395.923 298.923 C 390.402 304.444, 393.635 313.041, 401.205 312.968 C 408.683 312.896, 412.591 304.564, 407.927 298.635 C 404.974 294.880, 399.842 295.004, 395.923 298.923 M 394.500 400.716 C 388.559 402.153, 386.069 409.393, 389.891 414.114 C 391.553 416.166, 392.740 416.474, 399.641 416.644 L 407.500 416.838 400.583 416.075 C 394.816 415.440, 393.278 414.862, 391.333 412.601 C 390.050 411.109, 389 409.288, 389 408.555 C 389 405.464, 392.626 402.927, 399 401.556 C 405.260 400.211, 405.334 400.160, 401 400.196 C 398.525 400.216, 395.600 400.450, 394.500 400.716 M 396.270 505.483 C 392.205 507.250, 389.009 512.394, 389.004 517.179 C 388.997 523.456, 392.851 525.592, 402.712 524.774 C 409.322 524.226, 412 521.780, 412 516.290 C 412 506.579, 404.927 501.719, 396.270 505.483 M 397.420 508.885 C 395.726 509.918, 393.751 512.187, 393.030 513.927 C 391.115 518.551, 392.812 521.603, 398.090 523.024 C 405.819 525.106, 411 522.206, 411 515.800 C 411 508.283, 404.138 504.789, 397.420 508.885 M 395.232 610.169 C 387.690 611.858, 385.787 619.327, 391.712 623.988 C 396.288 627.588, 409.889 626.338, 411.488 622.171 C 411.932 621.013, 411.534 621.112, 409.938 622.556 C 406.867 625.335, 398.153 625.248, 394.323 622.401 C 390.119 619.276, 390.065 615.541, 394.186 613.028 C 396.009 611.917, 398.711 611.006, 400.191 611.004 C 401.671 611.002, 403.160 610.550, 403.500 610 C 404.244 608.797, 401.076 608.861, 395.232 610.169 M 372.109 675.869 C 370.794 676.237, 369.095 677.478, 368.333 678.626 C 367.116 680.457, 367.184 681.006, 368.885 683.106 L 370.823 685.500 400.500 685.500 L 430.177 685.500 432.115 683.106 C 433.816 681.006, 433.884 680.457, 432.667 678.626 C 431.905 677.478, 430.206 676.237, 428.891 675.869 C 427.576 675.501, 414.800 675.199, 400.500 675.199 C 386.200 675.199, 373.424 675.501, 372.109 675.869 M 371.805 757.529 C 369.357 762.902, 378.162 768.695, 382.375 764.483 C 384.633 762.224, 384.408 760.318, 381.545 757.455 C 378.163 754.072, 373.363 754.109, 371.805 757.529 M 419.958 758.545 C 418.078 760.546, 417.795 761.454, 418.634 762.795 C 420.124 765.175, 424.770 765.518, 427.088 763.420 C 429.411 761.318, 429.508 759.651, 427.429 757.571 C 425.166 755.309, 422.695 755.631, 419.958 758.545" stroke="none" fill="#444" fill-rule="evenodd"/></svg>