<svg xmlns="http://www.w3.org/2000/svg" width="50" height="50" viewBox="0 0 50 50" version="1.1">
	<path d="M 22 23.878 C 22 42.104, 22.250 45.963, 23.500 47 C 24.697 47.993, 25.303 47.993, 26.500 47 C 27.762 45.952, 27.964 42.326, 27.772 24.128 L 27.545 2.500 27.251 22.250 C 26.970 41.164, 26.874 42, 24.979 42 C 23.075 42, 23 41.264, 23 22.583 C 23 7.986, 23.310 3.041, 24.250 2.662 C 24.997 2.361, 24.795 2.126, 23.750 2.079 C 22.134 2.006, 22 3.678, 22 23.878 M 23.190 44.750 C 23.376 45.712, 24.190 46.500, 25 46.500 C 25.810 46.500, 26.624 45.712, 26.810 44.750 C 27.046 43.522, 26.506 43, 25 43 C 23.494 43, 22.954 43.522, 23.190 44.750" stroke="none" fill="#555555" fill-rule="evenodd"/>
</svg>