<svg xmlns="http://www.w3.org/2000/svg" width="50" height="50" viewBox="0 0 50 50" version="1.1">
	<path d="M 22.229 22.250 L 22.500 42.500 25 42.500 L 27.500 42.500 27.537 23 C 27.573 4.216, 27.563 4.115, 27.263 20.250 C 26.967 36.160, 26.853 37, 24.976 37 C 23.086 37, 23 36.264, 23 20.083 C 23 7.486, 23.319 3.038, 24.250 2.662 C 24.989 2.364, 24.776 2.126, 23.729 2.079 C 22.082 2.006, 21.977 3.414, 22.229 22.250 M 23 40 C 23 41.333, 23.667 42, 25 42 C 26.333 42, 27 41.333, 27 40 C 27 38.667, 26.333 38, 25 38 C 23.667 38, 23 38.667, 23 40" stroke="none" fill="#555555" fill-rule="evenodd"/>
</svg>