<svg xmlns="http://www.w3.org/2000/svg" width="50" height="50" viewBox="0 0 50 50" version="1.1"><path d="M 22 25.687 L 22 49.374 25 46.500 L 28 43.626 28 22.813 L 28 2 25 2 L 22 2 22 25.687 M 23 22 C 23 40.333, 23.070 41, 25 41 C 26.930 41, 27 40.333, 27 22 C 27 3.667, 26.930 3, 25 3 C 23.070 3, 23 3.667, 23 22 M 23 44.622 C 23 45.951, 23.271 46.020, 24.500 45 C 25.325 44.315, 26 43.585, 26 43.378 C 26 43.170, 25.325 43, 24.500 43 C 23.675 43, 23 43.730, 23 44.622" stroke="none" fill="#444" fill-rule="evenodd"/></svg>