<svg xmlns="http://www.w3.org/2000/svg" width="50" height="50" viewBox="0 0 50 50" version="1.1"><path d="M 22 25.500 L 22 48 25 48 L 28 48 28 25.500 L 28 3 25 3 L 22 3 22 25.500 M 23.009 17.250 C 23.020 33.818, 23.815 41, 25.639 41 C 26.738 41, 27 37.436, 27 22.500 C 27 4.667, 26.928 4, 25 4 C 23.100 4, 23 4.664, 23.009 17.250 M 24 45.083 C 24 47.520, 26.337 47.176, 26.823 44.667 C 27.015 43.680, 26.505 43, 25.573 43 C 24.646 43, 24 43.855, 24 45.083" stroke="none" fill="#444" fill-rule="evenodd"/></svg>