<svg xmlns="http://www.w3.org/2000/svg" width="1000" height="1000" viewBox="0 0 1000 1000" version="1.1"><path d="M 468.659 47.478 C 467.472 48.068, 466.362 49.508, 466.193 50.679 C 465.954 52.337, 466.617 53.022, 469.193 53.779 C 473.041 54.911, 530.612 54.706, 533.250 53.552 C 535.448 52.590, 535.511 49.669, 533.373 47.895 C 531.279 46.157, 472.089 45.776, 468.659 47.478 M 498.039 112.189 C 495.653 114.749, 495.516 115.956, 497.328 118.434 C 498.982 120.696, 503.171 120.773, 506.485 118.602 C 509.178 116.837, 509.821 113.221, 507.800 111.200 C 505.806 109.206, 500.298 109.764, 498.039 112.189 M 494.021 244.116 C 485.220 247.628, 486.293 254.930, 495.928 257.095 C 501.301 258.302, 507.628 256.826, 510.837 253.617 C 513.065 251.390, 513.223 250.785, 512.179 248.494 C 510.082 243.890, 500.423 241.562, 494.021 244.116 M 496.689 247.604 C 492.952 249.630, 493.576 252.065, 498.289 253.859 C 503.617 255.887, 510 254.053, 510 250.495 C 510 246.120, 502.450 244.481, 496.689 247.604 M 497.897 377.883 C 495.845 379.544, 495.712 380.072, 496.765 382.383 C 498.158 385.440, 500.985 385.779, 503.345 383.171 C 505.466 380.828, 505.430 379.700, 503.171 377.655 C 500.883 375.584, 500.727 375.591, 497.897 377.883 M 490.803 506.885 C 487.842 509.531, 487.675 509.991, 488.789 512.437 C 491.924 519.317, 508.387 519.751, 511.975 513.047 C 514.738 507.885, 509.624 504, 500.065 504 C 494.827 504, 493.606 504.381, 490.803 506.885 M 496.308 507.194 C 488.286 511.071, 498.940 518.141, 507.447 514.586 C 511.890 512.730, 512.400 508.959, 508.453 507.161 C 505.343 505.744, 499.276 505.761, 496.308 507.194 M 495.750 640.982 C 492.594 643.464, 492.041 647.959, 494.626 650.105 C 497.027 652.097, 503.465 651.794, 505.920 649.572 C 512.376 643.730, 502.674 635.536, 495.750 640.982 M 494.250 766.973 C 490.914 768.488, 490 769.434, 490 771.379 C 490 775.424, 494.280 778, 501 778 C 507.969 778, 512 775.448, 512 771.036 C 512 768.678, 511.342 767.954, 507.980 766.609 C 502.757 764.519, 499.465 764.606, 494.250 766.973 M 499.250 768.662 C 497.332 769.436, 497.766 772.805, 499.934 773.965 C 502.546 775.363, 507.326 775.274, 508.800 773.800 C 510.494 772.106, 510.290 769.325, 508.418 768.607 C 506.573 767.899, 501.059 767.932, 499.250 768.662 M 471 848.833 C 469.580 849.307, 469.759 851.709, 471.250 852.185 C 472.301 852.521, 525.990 852.455, 529.750 852.114 C 531.074 851.993, 531.527 849.077, 530.250 848.891 C 528.247 848.598, 471.868 848.544, 471 848.833" stroke="none" fill="#444" fill-rule="evenodd"/></svg>