<svg xmlns="http://www.w3.org/2000/svg" width="50" height="50" viewBox="0 0 50 50" version="1.1">
	<path d="M 22.445 3.282 C 22.175 3.987, 22.077 12.875, 22.229 23.032 L 22.505 41.500 23.003 21.749 C 23.276 10.886, 23.373 1.998, 23.219 1.999 C 23.064 2, 22.716 2.577, 22.445 3.282 M 27.417 22.500 C 27.418 32.950, 27.566 37.089, 27.746 31.698 C 27.926 26.307, 27.925 17.757, 27.744 12.698 C 27.563 7.639, 27.416 12.050, 27.417 22.500 M 24.515 45.719 L 22.759 48.500 25.074 46.278 C 26.347 45.056, 27.137 43.804, 26.830 43.497 C 26.522 43.189, 25.481 44.189, 24.515 45.719" stroke="none" fill="#555555" fill-rule="evenodd"/>
</svg>