<svg xmlns="http://www.w3.org/2000/svg" width="800" height="800" viewBox="0 0 800 800" version="1.1"><path d="M 370.223 677.557 C 367.348 679.570, 367.405 681.564, 370.392 683.521 C 372.452 684.871, 376.770 685.048, 401.474 684.794 C 428.025 684.522, 430.264 684.362, 431.513 682.653 C 433.237 680.293, 432.388 678.098, 429.299 676.923 C 427.963 676.416, 414.624 676, 399.657 676 C 376.647 676, 372.102 676.240, 370.223 677.557 M 371.655 738.829 C 367.423 743.505, 372.422 752, 379.404 752 C 382.345 752, 383.068 751.575, 383.576 749.553 C 383.914 748.207, 383.663 745.509, 383.019 743.556 C 381.025 737.516, 375.081 735.043, 371.655 738.829 M 422.229 737.669 C 418.853 739.028, 416.711 748.311, 419.200 750.800 C 421.379 752.979, 425.977 752.177, 429.077 749.077 C 435.245 742.909, 430.179 734.471, 422.229 737.669 M 389.250 755.662 C 387.088 756.535, 387.816 761.907, 390.455 764.545 C 396.502 770.593, 415.080 765.166, 409.487 758.986 C 407.056 756.299, 393.279 754.037, 389.250 755.662" stroke="none" fill="#444" fill-rule="evenodd"/></svg>